<?xml version="1.0" encoding="UTF-8" standalone="no"?>
<svg
   xmlns:dc="http://purl.org/dc/elements/1.1/"
   xmlns:cc="http://creativecommons.org/ns#"
   xmlns:rdf="http://www.w3.org/1999/02/22-rdf-syntax-ns#"
   xmlns:svg="http://www.w3.org/2000/svg"
   xmlns="http://www.w3.org/2000/svg"
   xmlns:sodipodi="http://sodipodi.sourceforge.net/DTD/sodipodi-0.dtd"
   xmlns:inkscape="http://www.inkscape.org/namespaces/inkscape"
   width="12.5243mm"
   height="11.2895mm"
   viewBox="0 0 71 64"
   version="1.1"
   id="svg3"
   sodipodi:docname="filter.svg"
   inkscape:version="1.0.1 (3bc2e813f5, 2020-09-07)">
  <metadata
     id="metadata9">
    <rdf:RDF>
      <cc:Work
         rdf:about="">
        <dc:format>image/svg+xml</dc:format>
        <dc:type
           rdf:resource="http://purl.org/dc/dcmitype/StillImage" />
        <dc:title></dc:title>
      </cc:Work>
    </rdf:RDF>
  </metadata>
  <defs
     id="defs7" />
  <sodipodi:namedview
     pagecolor="#ffffff"
     bordercolor="#666666"
     borderopacity="1"
     objecttolerance="10"
     gridtolerance="10"
     guidetolerance="10"
     inkscape:pageopacity="0"
     inkscape:pageshadow="2"
     inkscape:window-width="1818"
     inkscape:window-height="1345"
     id="namedview5"
     showgrid="false"
     inkscape:zoom="13.039316"
     inkscape:cx="23.667968"
     inkscape:cy="21.334489"
     inkscape:window-x="460"
     inkscape:window-y="29"
     inkscape:window-maximized="1"
     inkscape:current-layer="svg3"
     inkscape:document-rotation="0" />
  <path
     id="Sélection"
     fill="none"
     stroke="black"
     stroke-width="1"
     d="M 0,0 C 0,0 71,0 71,0 71,3.03 71.33,7.3 69.98,10 67.09,15.77 46.75,31.08 43.6,36 40.85,40.31 42,56.23 42,62 42,62 29,61 29,61 29,55.3 30.14,40.33 27.4,36 27.4,36 8,16 8,16 5.59,13.59 1.77,10.18 0.6,7 -0.12,5.05 0.01,2.1 0,0 Z m 52,15 c 0,0 -12,1 -12,1 0,0 -18,0 -18,0 1.31,4.38 11.04,15.49 16,13.84 C 42.71,28.26 50.6,19.77 52,15 Z"
     style="fill:#000000;fill-opacity:1;stroke:#000000;stroke-opacity:1" />
</svg>
