<?xml version="1.0" encoding="UTF-8" standalone="no"?>
<svg
   xmlns:dc="http://purl.org/dc/elements/1.1/"
   xmlns:cc="http://creativecommons.org/ns#"
   xmlns:rdf="http://www.w3.org/1999/02/22-rdf-syntax-ns#"
   xmlns:svg="http://www.w3.org/2000/svg"
   xmlns="http://www.w3.org/2000/svg"
   xmlns:sodipodi="http://sodipodi.sourceforge.net/DTD/sodipodi-0.dtd"
   xmlns:inkscape="http://www.inkscape.org/namespaces/inkscape"
   width="100"
   height="100"
   viewBox="0 0 75.00931 75.00931"
   version="1.1"
   id="svg3"
   sodipodi:docname="moral-malheureux.svg"
   inkscape:version="1.0.1 (3bc2e813f5, 2020-09-07)">
  <metadata
     id="metadata9">
    <rdf:RDF>
      <cc:Work
         rdf:about="">
        <dc:format>image/svg+xml</dc:format>
        <dc:type
           rdf:resource="http://purl.org/dc/dcmitype/StillImage" />
        <dc:title />
      </cc:Work>
    </rdf:RDF>
  </metadata>
  <defs
     id="defs7" />
  <sodipodi:namedview
     pagecolor="#ffffff"
     bordercolor="#666666"
     borderopacity="1"
     objecttolerance="10"
     gridtolerance="10"
     guidetolerance="10"
     inkscape:pageopacity="0"
     inkscape:pageshadow="2"
     inkscape:window-width="3840"
     inkscape:window-height="2066"
     id="namedview5"
     showgrid="false"
     inkscape:zoom="6.0226229"
     inkscape:cx="159.51964"
     inkscape:cy="126.87132"
     inkscape:window-x="-11"
     inkscape:window-y="-11"
     inkscape:window-maximized="1"
     inkscape:current-layer="svg3"
     units="px"
     inkscape:document-rotation="0" />
  <path
     id="Sélection #2"
     d="m 31.388625,2.3182172 c 4.409777,0.1049465 8.850818,-0.238982 13.235505,0.2328545 12.343616,2.5226775 23.044406,11.8898383 26.790636,23.9755673 1.895687,4.47925 1.152474,9.358954 1.298859,14.073386 0.243884,5.666579 -2.268429,11.068801 -5.035,15.869569 -5.408578,8.666803 -14.775017,14.821045 -24.89,16.222248 -4.053365,-0.09512 -8.136018,0.20082 -12.16912,-0.168131 C 19.553649,70.172024 9.6028354,62.593076 5.0519554,52.147322 3.2422814,48.180027 2.0056664,43.880128 2.3186249,39.489636 2.3830349,35.012666 1.8677074,30.399761 3.7434254,26.170285 7.7021134,13.897624 18.761719,4.5969632 31.388625,2.3182172 Z m 5.13,2.868525 C 27.902914,5.4285077 19.395882,9.1781862 13.675723,15.667218 7.2145354,22.522912 4.2422324,32.383446 5.5175124,41.68387 6.9114379,54.433573 16.848647,65.754875 29.321729,68.777804 39.708925,71.461905 51.434955,68.787304 59.314103,61.419959 65.370515,55.787504 69.323332,47.886411 69.753843,39.577891 70.823163,26.172346 62.529369,12.588239 49.98022,7.6540632 45.737872,5.8425747 41.106859,5.1443342 36.518625,5.1867422 Z M 25.543275,19.089042 c 3.582403,1.517397 0.580488,3.887381 -1.590604,4.876635 -1.849564,1.075143 -3.533772,2.669329 -5.542195,3.293175 -3.938358,-3.009638 2.168109,-4.497832 4.038782,-6.246298 1.012957,-0.667156 1.994696,-1.401943 3.094017,-1.923512 z m 23.419875,0.0342 c 1.961351,0.383847 3.479413,2.018322 5.240466,2.974735 1.19966,1.199517 4.361146,1.708698 3.704117,3.68638 -0.794685,2.709419 -2.895477,0.815812 -4.290751,-0.139783 -1.994145,-1.401573 -4.233694,-2.523989 -6.026107,-4.155832 0.114314,-0.924379 0.785346,-1.688663 1.372275,-2.3655 z m -24.842025,8.329125 c 3.53895,-0.901294 5.202723,4.843356 1.541869,5.786659 -3.889946,1.388206 -5.600478,-4.938423 -1.541869,-5.786659 z m 25.365,-0.0085 c 3.543795,-0.687496 4.743854,4.888994 1.336318,5.853985 -4.052187,1.23158 -5.621521,-5.221504 -1.336318,-5.853985 z m -26.3625,27.720525 c -1.645428,-4.409007 3.436948,-5.79006 6.546089,-7.011067 7.253174,-2.83024 15.685954,-1.242533 21.973766,3.135599 1.074232,1.903828 0.444999,5.215737 -1.814737,2.671124 -4.926871,-3.182177 -11.020067,-4.782556 -16.8245,-3.386883 -3.647364,0.701851 -6.693672,2.861951 -9.880618,4.591227 z"
     style="fill:#000000;stroke:#000000;stroke-width:0.1425" />
</svg>
