<?xml version="1.0" encoding="UTF-8" standalone="no"?>
<svg
   xmlns:dc="http://purl.org/dc/elements/1.1/"
   xmlns:cc="http://creativecommons.org/ns#"
   xmlns:rdf="http://www.w3.org/1999/02/22-rdf-syntax-ns#"
   xmlns:svg="http://www.w3.org/2000/svg"
   xmlns="http://www.w3.org/2000/svg"
   xmlns:sodipodi="http://sodipodi.sourceforge.net/DTD/sodipodi-0.dtd"
   xmlns:inkscape="http://www.inkscape.org/namespaces/inkscape"
   width="100"
   height="100"
   viewBox="0 0 75.00931 75.00931"
   version="1.1"
   id="svg3"
   sodipodi:docname="moral-heureux.svg"
   inkscape:version="1.0.1 (3bc2e813f5, 2020-09-07)">
  <metadata
     id="metadata9">
    <rdf:RDF>
      <cc:Work
         rdf:about="">
        <dc:format>image/svg+xml</dc:format>
        <dc:type
           rdf:resource="http://purl.org/dc/dcmitype/StillImage" />
        <dc:title></dc:title>
      </cc:Work>
    </rdf:RDF>
  </metadata>
  <defs
     id="defs7" />
  <sodipodi:namedview
     pagecolor="#ffffff"
     bordercolor="#666666"
     borderopacity="1"
     objecttolerance="10"
     gridtolerance="10"
     guidetolerance="10"
     inkscape:pageopacity="0"
     inkscape:pageshadow="2"
     inkscape:window-width="3840"
     inkscape:window-height="2066"
     id="namedview5"
     showgrid="false"
     inkscape:zoom="1"
     inkscape:cx="333.29198"
     inkscape:cy="333.29198"
     inkscape:window-x="-11"
     inkscape:window-y="-11"
     inkscape:window-maximized="1"
     inkscape:current-layer="svg3"
     units="px" />
  <path
     id="Sélection"
     d="m 66.763622,55.801746 c -2.43018,3.864628 -5.706983,7.123491 -9.411048,9.759339 -7.03081,4.846547 -15.837577,7.115739 -24.341337,6.00475 C 25.807644,70.784579 19.08654,67.301555 13.665114,62.614772 9.3359224,58.489365 6.8728307,52.79721 4.9072277,47.257566 2.8341434,38.959612 2.3577605,29.777223 6.3796256,21.960827 8.9043904,16.883034 12.829489,12.457533 17.465047,9.2040308 27.601292,2.8411196 41.10206,0.89353942 52.052456,6.354848 c 7.511064,3.3349698 13.761367,9.512106 16.745031,17.220786 3.774954,9.248512 4.041191,20.107428 -0.497545,29.152314 -0.484077,1.038326 -1.001798,2.06063 -1.53632,3.073798 z M 53.074022,10.263125 C 42.613443,4.1684105 28.294549,4.5690521 18.806476,12.378825 12.904057,16.664573 8.6121134,23.206388 6.8339975,30.265584 5.7018593,36.155804 6.6585098,42.281224 8.2314204,47.992154 11.305017,57.050163 18.814508,64.757877 28.088515,67.393442 36.608062,69.793939 46.019628,68.565828 53.570132,63.920893 60.322168,60.364578 64.59903,53.584735 67.344823,46.686025 69.46186,39.678571 69.137857,31.902665 66.204722,25.171266 63.403219,20.113594 60.194091,14.993649 55.229789,11.796444 54.534807,11.253973 53.83928,10.705202 53.074022,10.263125 Z m -34.5,17.524621 c -2.627361,-2.239264 0.259088,-3.743091 2.144272,-4.879335 1.813444,-1.099784 3.457859,-2.564599 5.420888,-3.342705 2.485732,1.266481 1.070031,3.230373 -0.764858,3.964512 -2.283569,1.383885 -4.331247,3.234058 -6.800302,4.257528 z m 28.29,-5.796 c 0.335112,-2.973907 2.799592,-2.36474 4.401386,-0.89375 2.098276,1.319998 4.165178,2.688185 6.224614,4.06775 -0.333429,3.743981 -3.345506,1.901392 -5.118668,0.385841 -1.83578,-1.186614 -3.671559,-2.373227 -5.507332,-3.559841 z m -22.632,5.86914 c 3.909347,-1.447006 5.131289,5.454209 1.123361,5.508353 -3.699973,0.747498 -4.527027,-4.808106 -1.123361,-5.508353 z m 24.288,0.0041 c 4.715115,-1.511238 4.776422,6.820705 0.115071,5.441899 -2.99057,-0.223498 -2.893321,-5.001148 -0.115071,-5.441899 z m -25.116,18.82872 c 3.265301,1.726263 6.40892,3.97311 10.171497,4.583318 6.094487,1.424781 12.299547,-0.979689 17.256948,-4.463458 0.854814,0.302882 0.795598,4.025722 -0.932445,4.2575 -6.932423,4.290793 -16.025719,4.826964 -23.266434,0.96166 -2.690331,-0.594794 -3.622776,-2.72038 -3.229566,-5.185654 z"
     style="stroke-width:0.138" />
</svg>
