<?xml version="1.0" encoding="UTF-8" standalone="no"?>
<svg
   xmlns:dc="http://purl.org/dc/elements/1.1/"
   xmlns:cc="http://creativecommons.org/ns#"
   xmlns:rdf="http://www.w3.org/1999/02/22-rdf-syntax-ns#"
   xmlns:svg="http://www.w3.org/2000/svg"
   xmlns="http://www.w3.org/2000/svg"
   xmlns:sodipodi="http://sodipodi.sourceforge.net/DTD/sodipodi-0.dtd"
   xmlns:inkscape="http://www.inkscape.org/namespaces/inkscape"
   width="12.5243mm"
   height="11.2895mm"
   viewBox="0 0 71 64"
   version="1.1"
   id="svg3"
   sodipodi:docname="no-filter.svg"
   inkscape:version="1.0.1 (3bc2e813f5, 2020-09-07)">
  <metadata
     id="metadata9">
    <rdf:RDF>
      <cc:Work
         rdf:about="">
        <dc:format>image/svg+xml</dc:format>
        <dc:type
           rdf:resource="http://purl.org/dc/dcmitype/StillImage" />
        <dc:title></dc:title>
      </cc:Work>
    </rdf:RDF>
  </metadata>
  <defs
     id="defs7" />
  <sodipodi:namedview
     pagecolor="#ffffff"
     bordercolor="#666666"
     borderopacity="1"
     objecttolerance="10"
     gridtolerance="10"
     guidetolerance="10"
     inkscape:pageopacity="0"
     inkscape:pageshadow="2"
     inkscape:window-width="1818"
     inkscape:window-height="1345"
     id="namedview5"
     showgrid="false"
     inkscape:zoom="23.294527"
     inkscape:cx="23.667968"
     inkscape:cy="14.465922"
     inkscape:window-x="630"
     inkscape:window-y="276"
     inkscape:window-maximized="1"
     inkscape:current-layer="svg3"
     inkscape:document-rotation="0" />
  <path
     id="Sélection"
     fill="none"
     stroke="black"
     stroke-width="1"
     d="M 0.00,0.00            C 0.00,0.00 71.00,0.00 71.00,0.00              71.00,3.03 71.33,7.30 69.98,10.00              67.09,15.77 46.75,31.08 43.60,36.00              40.85,40.31 42.00,56.23 42.00,62.00              42.00,62.00 29.00,61.00 29.00,61.00              29.00,55.30 30.14,40.33 27.40,36.00              27.40,36.00 8.00,16.00 8.00,16.00              5.59,13.59 1.77,10.18 0.60,7.00              -0.12,5.05 0.01,2.10 0.00,0.00 Z            M 52.00,15.00            C 52.00,15.00 40.00,16.00 40.00,16.00              40.00,16.00 22.00,16.00 22.00,16.00              23.31,20.38 33.04,31.49 38.00,29.84              42.71,28.26 50.60,19.77 52.00,15.00 Z"
     style="fill:#000000;fill-opacity:1;stroke:#000000;stroke-opacity:1" />
  <path
     style="fill:#6c0000;stroke:#6c0000;stroke-width:1.49992px;stroke-linecap:butt;stroke-linejoin:miter;stroke-opacity:0.5;fill-opacity:1"
     d="M 47.004186,-2.0604574 10.753012,51.897773 14.551981,55.052848 56.920138,-6.3101511 52.090941,-8.4993871 Z"
     id="path834" />
</svg>
