<?xml version="1.0" encoding="UTF-8" standalone="no"?>
<svg
   xmlns:dc="http://purl.org/dc/elements/1.1/"
   xmlns:cc="http://creativecommons.org/ns#"
   xmlns:rdf="http://www.w3.org/1999/02/22-rdf-syntax-ns#"
   xmlns:svg="http://www.w3.org/2000/svg"
   xmlns="http://www.w3.org/2000/svg"
   xmlns:sodipodi="http://sodipodi.sourceforge.net/DTD/sodipodi-0.dtd"
   xmlns:inkscape="http://www.inkscape.org/namespaces/inkscape"
   width="200"
   height="200"
   viewBox="0 0 299.98443 299.98487"
   version="1.1"
   id="svg18"
   sodipodi:docname="hd01.svg"
   inkscape:version="1.0.1 (3bc2e813f5, 2020-09-07)">
  <metadata
     id="metadata24">
    <rdf:RDF>
      <cc:Work
         rdf:about="">
        <dc:format>image/svg+xml</dc:format>
        <dc:type
           rdf:resource="http://purl.org/dc/dcmitype/StillImage" />
        <dc:title></dc:title>
      </cc:Work>
    </rdf:RDF>
  </metadata>
  <defs
     id="defs22" />
  <sodipodi:namedview
     pagecolor="#ffffff"
     bordercolor="#666666"
     borderopacity="1"
     objecttolerance="10"
     gridtolerance="10"
     guidetolerance="10"
     inkscape:pageopacity="0"
     inkscape:pageshadow="2"
     inkscape:window-width="3840"
     inkscape:window-height="2066"
     id="namedview20"
     showgrid="false"
     inkscape:zoom="1"
     inkscape:cx="100"
     inkscape:cy="660"
     inkscape:window-x="-11"
     inkscape:window-y="-11"
     inkscape:window-maximized="1"
     inkscape:current-layer="svg18"
     inkscape:document-rotation="0"
     units="px"
     showguides="true">
    <inkscape:grid
       type="xygrid"
       id="grid1862" />
  </sodipodi:namedview>
  <path
     id="Sélection #7"
     fill="none"
     stroke="#000000"
     stroke-width="1.45"
     d="m 151.66788,12.35477 c 0,0 2.9,0 2.9,0 3.9875,12.1075 2.9,22.2575 2.9,34.8 0,0 0,52.2 0,52.2 0,0 2.291,29 2.291,29 0.58,4.0165 0.667,8.99 4.1325,11.7015 4.466,3.48 19.64751,4.234 25.4765,4.2485 0,0 21.75,0 21.75,0 0,0 20.3,-1.45 20.3,-1.45 0,0 13.05,0 13.05,0 7.54,0.0145 16.356,0.7105 11.977,11.455 -2.059,5.017 -9.1205,7.7285 -13.427,11.0635 -6.8875,5.3215 -13.6445,13.543 -18.183,20.9815 -19.981,32.8135 -21.721,84.825 -64.467,98.5565 -6.699,2.1605 -10.382,2.8565 -17.4,2.697 0,0 -23.2,0 -23.2,0 -14.6885,-2.7985 -28.057497,-11.977 -33.697997,-25.8535 0,0 -10.846,-37.4825 -10.846,-37.4825 -7.656,-10.0485 -19.864999,3.567 -28.840499,-4.1905 -4.8285,-4.408 -5.8435,-16.385 0,-20.561 6.032,-4.553 33.422499,-11.5275 41.484499,-11.716 0,0 0,17.4 0,17.4 0.058,10.7155 2.0155,23.055 4.9735,33.35 2.7695,9.7005 5.6695,16.182 13.876497,22.5765 15.08,11.9045 43.7465,9.4395 59.45,0 23.722,-14.384 33.611,-40.397 44.109,-64.6265 0,0 11.6,-26.1 11.6,-26.1 2.7405,-12.18 -11.6435,-8.497 -18.009,-7.453 0,0 -10.15,0 -10.15,0 -7.72849,0.2175 -22.3735,-0.899 -28.4345,4.147 -4.5675,3.8135 -4.843,9.4395 -4.9155,14.906 0,0 -1.45,59.45 -1.45,59.45 0,0 -5.8,0 -5.8,0 -1.653,-9.193 -2.8855,-16.6895 -2.9,-26.1 -0.029,-17.9075 8.671,-50.286 -18.85,-50.75 0,0 -57.999997,0 -57.999997,0 -6.786,-0.1305 -13.1805,-1.508 -11.5275,-10.15 1.5805,-8.2795 11.136,-13.92 17.3275,-18.85 10.5995,-8.468 16.8635,-15.4425 25.142997,-26.1 16.5155,-21.3005 27.8255,-46.0375 37.4825,-71.05 0,0 9.8745,-26.1 9.8745,-26.1 z m -5.8,59.45 c -3.045,0.9425 -4.0165,0.9425 -6.4815,3.3495 -6.612,6.4525 -16.8925,33.292 -21.0685,43.0505 -1.711,4.002 -6.902,13.4995 -6.496,17.313 0.6235,5.771 6.3945,5.8 10.846,5.887 4.64,0.0725 13.311,0.5075 17.2405,-1.6965 9.0335,-5.0895 5.9595,-26.767 5.9595,-36.0035 0,0 0,-31.9 0,-31.9 z"
     style="fill:#ffffff;stroke:none" />
</svg>
