<?xml version="1.0" encoding="UTF-8" standalone="no"?>
<svg
   xmlns:dc="http://purl.org/dc/elements/1.1/"
   xmlns:cc="http://creativecommons.org/ns#"
   xmlns:rdf="http://www.w3.org/1999/02/22-rdf-syntax-ns#"
   xmlns:svg="http://www.w3.org/2000/svg"
   xmlns="http://www.w3.org/2000/svg"
   xmlns:sodipodi="http://sodipodi.sourceforge.net/DTD/sodipodi-0.dtd"
   xmlns:inkscape="http://www.inkscape.org/namespaces/inkscape"
   width="200"
   height="200"
   viewBox="0 0 299.98504 299.98421"
   version="1.1"
   id="svg3"
   sodipodi:docname="hd02.svg"
   inkscape:version="1.0.1 (3bc2e813f5, 2020-09-07)">
  <metadata
     id="metadata9">
    <rdf:RDF>
      <cc:Work
         rdf:about="">
        <dc:format>image/svg+xml</dc:format>
        <dc:type
           rdf:resource="http://purl.org/dc/dcmitype/StillImage" />
        <dc:title></dc:title>
      </cc:Work>
    </rdf:RDF>
  </metadata>
  <defs
     id="defs7" />
  <sodipodi:namedview
     pagecolor="#ffffff"
     bordercolor="#666666"
     borderopacity="1"
     objecttolerance="10"
     gridtolerance="10"
     guidetolerance="10"
     inkscape:pageopacity="0"
     inkscape:pageshadow="2"
     inkscape:window-width="1677"
     inkscape:window-height="1195"
     id="namedview5"
     showgrid="false"
     inkscape:zoom="1.7038548"
     inkscape:cx="-68.974332"
     inkscape:cy="165.35734"
     inkscape:window-x="830"
     inkscape:window-y="264"
     inkscape:window-maximized="0"
     inkscape:current-layer="svg3"
     inkscape:document-rotation="0"
     showguides="false"
     units="px" />
  <path
     id="Sélection"
     fill="none"
     stroke="black"
     stroke-width="1.48994"
     d="m 62.126949,61.340325 c 4.276142,-14.482276 22.945165,-29.813819 38.738591,-23.854034 9.43136,3.560969 17.70056,13.871394 29.79892,10.742517 24.30102,-6.28758 39.11108,-37.546648 71.51741,-37.546648 7.28584,0 11.2789,0.163904 17.87935,3.754666 3.63547,1.966729 8.62678,5.393603 11.41299,8.433095 10.77233,11.725873 6.10877,24.837392 -0.78967,36.980463 -3.15869,5.557487 -7.98611,11.055395 -7.25605,17.879347 0.84927,7.85202 9.66974,15.614639 8.6566,23.839129 -0.61088,5.00623 -7.46462,13.96079 -10.13164,19.3693 -4.87211,9.87835 -6.34716,18.92231 -6.36206,29.79891 0,0 0,17.87936 0,17.87936 0,0 1.48995,23.83914 1.48995,23.83914 0.11929,26.16346 1.51974,35.02865 -10.80213,59.59786 -5.92998,11.83015 -12.12815,20.20364 -23.46663,27.48949 -16.86621,10.8468 -35.08824,7.06234 -52.14812,-1.04295 -6.95805,-3.30769 -19.81628,-10.57862 -26.81903,-11.24912 -16.13611,-1.54952 -26.163446,14.70578 -38.738592,22.0512 1.773036,-15.68912 18.117744,-33.86645 34.268759,-35.4607 12.977433,-1.28135 26.506133,10.69781 37.248643,16.896 17.67076,10.19122 40.18383,10.20611 54.68102,-5.40851 4.36555,-4.69334 7.73282,-10.48922 10.48922,-16.25531 4.02286,-8.44801 4.81253,-14.63126 4.69333,-23.83914 0,0 0,-14.89946 0,-14.89946 0.11925,-24.7331 -5.94489,-46.44162 0,-71.51742 1.25156,-7.09213 3.29278,-13.18603 7.18155,-19.36929 2.14551,-3.41199 7.56892,-10.01244 8.3139,-13.40952 1.47504,-6.853746 -7.13684,-13.707492 -7.67322,-23.839127 -0.62579,-12.098372 7.4944,-19.265012 10.817,-29.798928 C 229.34359,39.065632 221.08929,22.184544 206.6517,19.934726 177.44875,15.39039 148.70771,55.544426 123.21473,60.26757 107.97259,63.098459 94.563069,49.823043 84.476138,49.718749 75.283168,49.614486 69.859766,57.689953 62.126949,61.340325 Z m 4.469837,52.148105 c 3.173585,-11.1001 13.856496,-26.819018 25.329081,-30.022407 4.201647,-1.400554 11.159693,0.327784 16.389403,0 8.74598,-0.119251 18.95211,-3.143783 26.81903,-6.898449 18.99681,-9.073772 29.24764,-23.451756 40.22854,-28.63677 -8.82048,12.321861 -36.50368,38.8429 -50.65816,44.594083 -8.58209,3.486488 -24.31592,0.01497 -32.778813,2.443514 -6.451467,1.847537 -17.96875,13.588309 -25.329081,18.520029 z m 16.389405,31.28886 c 4.767828,-16.67249 20.009969,-31.24417 35.758699,-37.94891 7.62853,-3.26299 13.54361,-2.22003 26.81903,-9.520759 0,0 34.26876,-24.04773 34.26876,-24.04773 -2.50311,6.58557 -6.66006,12.396358 -8.1649,19.369304 0,0 -0.77477,41.718475 -0.77477,41.718475 -0.11924,9.81875 -2.44353,16.92579 -7.55404,25.32909 -4.03774,6.64518 -11.51727,15.83812 -11.50239,23.83914 0.0298,20.15896 40.80963,31.33356 18.78824,53.36986 -2.01144,1.99654 -4.67845,4.06756 -7.18154,5.37871 -11.88978,6.22797 -15.39115,-3.54608 -31.28887,-7.97123 -13.7522,-3.60566 -30.20121,-0.0896 -44.698382,0 -4.499636,-0.13403 -9.282362,0.29799 -13.275417,-2.50308 -8.55229,-6.33229 -10.578617,-20.18879 0,-25.92507 0,0 2.875595,13.27541 2.875595,13.27541 10.23593,18.71373 38.455504,1.11745 55.098204,5.22972 11.32358,2.78618 23.42193,19.87588 31.67626,8.13509 4.67842,-6.64514 0.0895,-12.67943 -4.91684,-17.25356 -8.73108,-7.9712 -20.08447,-13.08173 -18.98191,-27.26601 0.74498,-9.62505 8.65659,-16.13613 13.51382,-23.83912 5.46809,-8.65662 9.19295,-21.06787 9.86344,-31.28889 0.47678,-7.21135 -0.55129,-20.63576 -8.83539,-23.24316 -3.73976,-1.17706 -12.44104,2.56271 -16.3596,3.87386 -13.39462,4.46983 -29.14334,8.58208 -40.168943,17.61116 0,0 -14.959056,13.6777 -14.959056,13.6777 z"
     style="fill:#ffffff;stroke:none" />
</svg>
