<?xml version="1.0" encoding="UTF-8" standalone="no"?>
<svg
   xmlns:dc="http://purl.org/dc/elements/1.1/"
   xmlns:cc="http://creativecommons.org/ns#"
   xmlns:rdf="http://www.w3.org/1999/02/22-rdf-syntax-ns#"
   xmlns:svg="http://www.w3.org/2000/svg"
   xmlns="http://www.w3.org/2000/svg"
   xmlns:sodipodi="http://sodipodi.sourceforge.net/DTD/sodipodi-0.dtd"
   xmlns:inkscape="http://www.inkscape.org/namespaces/inkscape"
   width="200"
   height="200"
   viewBox="0 0 299.98441 299.98488"
   version="1.1"
   id="svg3"
   sodipodi:docname="hd03.svg"
   inkscape:version="1.0.1 (3bc2e813f5, 2020-09-07)">
  <metadata
     id="metadata9">
    <rdf:RDF>
      <cc:Work
         rdf:about="">
        <dc:format>image/svg+xml</dc:format>
        <dc:type
           rdf:resource="http://purl.org/dc/dcmitype/StillImage" />
        <dc:title></dc:title>
      </cc:Work>
    </rdf:RDF>
  </metadata>
  <defs
     id="defs7" />
  <sodipodi:namedview
     pagecolor="#ffffff"
     bordercolor="#666666"
     borderopacity="1"
     objecttolerance="10"
     gridtolerance="10"
     guidetolerance="10"
     inkscape:pageopacity="0"
     inkscape:pageshadow="2"
     inkscape:window-width="3840"
     inkscape:window-height="2066"
     id="namedview5"
     showgrid="false"
     inkscape:zoom="4.9490365"
     inkscape:cx="228.35679"
     inkscape:cy="83.518468"
     inkscape:window-x="-11"
     inkscape:window-y="-11"
     inkscape:window-maximized="1"
     inkscape:current-layer="svg3"
     inkscape:document-rotation="0"
     units="px" />
  <path
     id="Sélection #1"
     fill="none"
     stroke="black"
     stroke-width="1.6625"
     d="m 56.584182,270.49795 c -23.308249,-41.097 -22.709749,-93.11662 -1.230249,-134.66249 11.105499,-21.49612 23.507749,-30.97237 27.314874,-38.237498 3.3915,-6.467125 2.310875,-14.99575 9.359875,-28.262501 15.577628,-29.293249 46.234128,-58.021249 80.930498,-58.187499 0,0 9.975,0 9.975,0 10.45713,0.133 18.62,1.96175 28.2625,6.01825 15.87688,6.65 23.84025,14.713125 33.25,28.89425 4.655,7.01575 10.4405,16.924249 12.93425,24.937499 1.94513,6.251 1.64588,8.87775 2.29425,14.962501 3.44138,32.019748 -1.23025,62.243998 -10.00825,93.099988 0,0 -10.29087,31.5875 -10.29087,31.5875 0,0 -26.0015,59.85 -26.0015,59.85 -4.123,8.96088 -5.41975,19.152 -17.14038,18.2875 0,0 11.72063,-33.25 11.72063,-33.25 0,0 26.31737,-76.475 26.31737,-76.475 4.63838,-17.57261 10.09138,-38.35386 10.1745,-56.52499 0.14963,-32.767873 -7.6475,-62.809248 -31.5875,-86.433373 -11.65412,-11.47125 -26.21762,-20.38225 -43.225,-19.102125 -12.06975,0.89775 -24.77125,5.1205 -34.9125,11.687375 -10.80625,6.9825 -25.25337,23.092125 -28.861,35.660624 -2.42725,8.41225 0.84788,12.103 -3.90687,21.612501 -6.949253,13.965 -38.885878,52.501748 -45.153503,69.824998 -2.876124,7.94675 -1.928499,27.33149 -1.878624,36.57499 0.04988,9.044 0.482125,9.65913 1.662499,18.2875 1.03075,7.53113 2.75975,25.55263 13.33325,25.55263 6.55025,0 15.178625,-11.7705 20.199375,-16.12625 10.556873,-9.19363 30.274123,-18.70313 44.604873,-15.428 17.32325,3.97337 20.33238,26.21762 3.325,32.60162 -2.0615,-4.13962 -3.724,-8.01325 -7.01575,-11.40475 -4.15625,-4.256 -8.778,-6.00162 -14.59675,-6.5835 -23.657373,-2.41062 -35.959873,23.22513 -47.148498,39.60075 -4.1895,6.13463 -5.968375,8.379 -12.7015,11.6375 z M 174.52193,99.277087 c 0.51538,-0.1995 2.31088,-0.947625 4.27263,0 2.394,1.995003 1.04737,5.935123 0,8.295873 -1.76225,5.90188 -6.3175,16.50863 -12.60175,18.63663 -7.98,2.67662 -9.16038,-6.56688 -7.19863,-11.98663 2.44388,-6.73312 9.31,-12.20275 15.52775,-14.945873 z"
     style="fill:#ffffff;stroke:none" />
</svg>
