<?xml version="1.0" encoding="UTF-8" standalone="no"?>
<svg
   xmlns:dc="http://purl.org/dc/elements/1.1/"
   xmlns:cc="http://creativecommons.org/ns#"
   xmlns:rdf="http://www.w3.org/1999/02/22-rdf-syntax-ns#"
   xmlns:svg="http://www.w3.org/2000/svg"
   xmlns="http://www.w3.org/2000/svg"
   xmlns:sodipodi="http://sodipodi.sourceforge.net/DTD/sodipodi-0.dtd"
   xmlns:inkscape="http://www.inkscape.org/namespaces/inkscape"
   width="200"
   height="200"
   viewBox="0 0 299.98441 299.98487"
   version="1.1"
   id="svg3"
   sodipodi:docname="hd04.svg"
   inkscape:version="1.0.1 (3bc2e813f5, 2020-09-07)">
  <metadata
     id="metadata9">
    <rdf:RDF>
      <cc:Work
         rdf:about="">
        <dc:format>image/svg+xml</dc:format>
        <dc:type
           rdf:resource="http://purl.org/dc/dcmitype/StillImage" />
        <dc:title></dc:title>
      </cc:Work>
    </rdf:RDF>
  </metadata>
  <defs
     id="defs7" />
  <sodipodi:namedview
     pagecolor="#ffffff"
     bordercolor="#666666"
     borderopacity="1"
     objecttolerance="10"
     gridtolerance="10"
     guidetolerance="10"
     inkscape:pageopacity="0"
     inkscape:pageshadow="2"
     inkscape:window-width="3840"
     inkscape:window-height="2066"
     id="namedview5"
     showgrid="false"
     inkscape:zoom="4.7536798"
     inkscape:cx="71.090069"
     inkscape:cy="24.560891"
     inkscape:window-x="-11"
     inkscape:window-y="-11"
     inkscape:window-maximized="1"
     inkscape:current-layer="svg3"
     inkscape:document-rotation="0"
     units="px" />
  <path
     id="Sélection #2"
     fill="none"
     stroke="black"
     stroke-width="1.5552"
     d="m 143.78949,23.221253 c 48.35117,-6.205248 78.11769,30.030912 87.0912,73.965308 1.86624,9.144579 4.94554,33.172419 4.6034,41.990399 -0.46656,11.95949 -3.74804,48.69331 -6.84288,59.0976 -7.15394,24.02784 -24.24557,46.54714 -44.41652,61.0416 -9.67334,6.9673 -23.95008,14.54112 -35.7696,16.50067 -4.32345,0.69984 -11.32185,1.81959 -15.552,1.61741 -5.81644,-0.29549 -11.77286,-2.31725 -17.1072,-4.54118 -27.262657,-11.33741 -40.481857,-37.72915 -46.033921,-65.2873 -2.64384,-13.17254 -5.272128,-39.51763 -5.28768,-52.8768 -0.06221,-38.94221 12.161664,-84.043003 40.435201,-111.958843 5.45876,-5.365438 11.75732,-10.870846 18.6624,-14.276734 5.97197,-2.93933 13.65466,-4.059074 20.2176,-5.27213 z m -4.6656,30.886272 c -14.47891,2.737152 -22.17715,7.884864 -32.6592,18.211392 C 77.817905,100.5769 68.999921,150.98093 79.886321,188.94336 c 7.589376,26.48506 29.875399,52.51911 59.237569,52.8768 0,0 13.9968,0 13.9968,0 21.07296,-0.24883 36.96711,-12.8615 48.64666,-29.5488 20.99519,-29.99981 24.1989,-58.33555 14.88326,-93.312 -5.66092,-21.228479 -20.01542,-49.019899 -40.20192,-59.361979 -11.13523,-5.692032 -25.06982,-6.702912 -37.3248,-5.489856 z m -6.2208,36.049532 c 7.23168,-0.88646 10.15546,-0.09336 17.1072,1.804032 35.58298,9.704451 43.59226,40.870661 43.5456,73.654271 -0.0156,14.96103 -3.59251,24.02784 -13.17254,35.7696 -5.73869,7.04506 -18.14918,17.76039 -27.26266,19.57997 -15.70752,3.1415 -40.96396,-12.11501 -48.35116,-25.80077 C 88.175537,164.38675 93.152183,100.73242 132.90309,90.157057 Z m 4.6656,23.094723 c -25.86297,6.43853 -34.78982,48.25785 -23.76345,64.77408 4.26125,6.36077 11.88173,9.72 19.09785,11.664 4.52564,1.01088 7.88487,0.82425 12.4416,0 3.87245,-0.46656 12.11501,-2.08397 15.552,-3.54586 11.15079,-4.72781 24.4322,-18.39801 22.98586,-31.41504 -2.48832,-22.34822 -23.01696,-43.85664 -46.31386,-41.47718 z"
     style="fill:#ffffff;stroke:none" />
</svg>
