<?xml version="1.0" encoding="UTF-8" standalone="no"?>
<svg
   xmlns:dc="http://purl.org/dc/elements/1.1/"
   xmlns:cc="http://creativecommons.org/ns#"
   xmlns:rdf="http://www.w3.org/1999/02/22-rdf-syntax-ns#"
   xmlns:svg="http://www.w3.org/2000/svg"
   xmlns="http://www.w3.org/2000/svg"
   xmlns:sodipodi="http://sodipodi.sourceforge.net/DTD/sodipodi-0.dtd"
   xmlns:inkscape="http://www.inkscape.org/namespaces/inkscape"
   width="200"
   height="200"
   viewBox="0 0 299.9845 299.9845"
   version="1.1"
   id="svg3"
   sodipodi:docname="hd05.svg"
   inkscape:version="1.0.1 (3bc2e813f5, 2020-09-07)">
  <metadata
     id="metadata9">
    <rdf:RDF>
      <cc:Work
         rdf:about="">
        <dc:format>image/svg+xml</dc:format>
        <dc:type
           rdf:resource="http://purl.org/dc/dcmitype/StillImage" />
        <dc:title></dc:title>
      </cc:Work>
    </rdf:RDF>
  </metadata>
  <defs
     id="defs7" />
  <sodipodi:namedview
     pagecolor="#ffffff"
     bordercolor="#666666"
     borderopacity="1"
     objecttolerance="10"
     gridtolerance="10"
     guidetolerance="10"
     inkscape:pageopacity="0"
     inkscape:pageshadow="2"
     inkscape:window-width="3840"
     inkscape:window-height="2066"
     id="namedview5"
     showgrid="false"
     inkscape:zoom="6.0476878"
     inkscape:cx="19.086896"
     inkscape:cy="63.635654"
     inkscape:window-x="-11"
     inkscape:window-y="-11"
     inkscape:window-maximized="1"
     inkscape:current-layer="svg3"
     inkscape:document-rotation="0"
     units="px" />
  <path
     id="Sélection"
     fill="none"
     stroke="black"
     stroke-width="1.4"
     d="m 104.4657,8.303951 c 9.8098,3.1262 16.6166,9.7482 24.64,15.939 0,0 41.58001,29.953 41.58001,29.953 7.623,4.62 25.3022,10.8724 29.26,17.248 -12.3354,-0.6006 -22.4224,-6.0676 -33.88,-10.2872 -5.1898,-1.9096 -11.242,-4.7894 -16.8784,-3.2032 -2.80281,0.7854 -4.46601,2.0636 -6.08301,4.466 -3.234,4.8202 -7.1302,23.5928 -2.6026,27.9664 8.60861,8.3006 27.93561,-3.9578 34.75781,8.8704 2.9568,5.528589 -0.4004,11.257389 -1.1704,16.847589 -1.1704,8.4084 -0.4158,22.6072 1.8788,30.8 3.8038,13.56741 8.5624,24.03941 17.017,35.42001 6.0214,8.1004 15.4154,16.4472 19.2808,24.64 -28.721,-10.9032 -47.7092,-28.6748 -56.6566,-58.52 -2.079,-6.91461 -3.9424,-18.88041 -4.6816,-26.18001 -0.5236,-5.1282 0.0308,-10.6414 -4.21961,-14.4914 -2.9414,-2.6488 -14.6454,-4.4968 -19.1422,-5.75959 0,0 -40.04,-12.982199 -40.04,-12.982199 -4.312,-0.9548 -15.7542,-4.2042 -18.0334,1.3706 -1.6324,4.0194 6.2832,15.446189 8.393,19.542589 6.2832,12.166 11.7502,24.948 14.1372,38.50001 0,0 3.234,25.9644 3.234,25.9644 3.465,5.929 16.6782,7.854 23.0692,10.01 12.474,4.1888 28.5054,12.4124 36.96001,22.5456 -6.8838,-1.9558 -9.20921,-3.7114 -15.40001,-6.3602 -13.2286,-5.6518 -27.3812,-8.3776 -41.58,-10.1486 -6.4372,-0.8008 -22.561,-1.1396 -26.796,-5.8366 -4.4044,-4.8818 -1.6016,-16.2624 -1.0318,-22.3146 1.309,-14.19881 0.8008,-27.84321 -3.5112,-41.58001 -4.9434,-15.7542 -12.458601,-29.752789 -24.116401,-41.579989 -8.854999,-8.9628 -20.790001,-14.8148 -26.1646,-26.18 0,0 75.460001,29.029 75.460001,29.029 4.8664,1.3244 22.792,6.083 26.796,2.2484 2.0482,-2.4948 0.3234,-10.5952 0,-14.3374 0.6468,-30.0454 -7.9618,-37.4528 -14.476,-61.6 z M 6.0750988,226.98395 c 9.9946002,1.9404 17.2325992,8.547 26.0105992,13.86 2.926002,1.771 9.101401,5.0666 10.533601,8.1466 2.2022,4.7894 -3.9424,7.0686 -1.7864,13.4288 3.4804,10.318 22.591801,18.172 32.832801,16.3702 2.772,-0.4774 5.2822,-1.54 7.6384,-3.0492 19.5272,-12.5972 -6.6836,-28.9058 -15.169,-38.038 -3.0338,-3.2494 -5.2822,-6.2216 -5.9598,-10.7184 -3.249401,-21.6216 22.9306,-16.7552 35.0504,-13.1824 37.5144,11.0572 70.65521,50.5736 110.88001,24.6554 5.3284,-3.4342 10.9186,-8.2698 15.1228,-13.013 30.0916,-33.9724 8.393,-81.89721 7.9772,-117.04001 -0.1848,-16.231589 0.1848,-41.194989 18.48,-48.140389 16.7398,-6.3756 54.2388,14.9688 44.8294,37.2064 -3.2032,7.561389 -11.7656,8.007989 -18.6186,5.590189 -2.8182,-1.00099 -8.008,-3.926989 -5.929,-7.684589 1.5554,-2.8336 9.2708,-3.542 10.0254,-10.1024 0.6776,-5.9906 -8.4392,-15.4 -17.9872,-11.165 -10.8108,4.7894 -15.939,15.1844 -15.1228,26.595799 1.001,13.92159 5.0358,26.65739 8.393,40.03999 9.7174,38.91581 11.9504,98.79101 -33.3102,116.31621 -8.6548,3.3572 -17.0324,3.8962 -26.18,3.8038 -24.4244,-0.2772 -48.44841,-13.2902 -69.30001,-24.8556 -7.3766,-4.081 -27.5506,-15.7388 -35.42,-13.552 -7.7,2.1406 -10.2872,8.5316 -6.1138,15.3076 6.8992,11.1804 36.6828,25.9182 22.3916,44.5984 -1.771,2.3254 -4.5738,4.8356 -7.0378,6.391 -3.8192,2.387 -6.4064,2.7258 -10.78,2.8798 -16.4318,0.6006 -29.491,-4.543 -43.120001,-13.3672 0,0 -15.400001,-11.2112 -15.400001,-11.2112 -8.931998,-4.312 -19.6195992,4.6662 -22.9305992,-6.2832 -0.1232,-1.617 -0.1386,-4.3582 0,-6.0676 0,0 0,-27.72 0,-27.72 z"
     style="fill:#ffffff;stroke:none" />
  <path
     id="path1671"
     fill="none"
     stroke="black"
     stroke-width="1.4"
     d="m 104.4657,8.303951 c 9.8098,3.1262 16.6166,9.7482 24.64,15.939 0,0 41.58001,29.953 41.58001,29.953 7.623,4.62 25.3022,10.8724 29.26,17.248 -12.3354,-0.6006 -22.4224,-6.0676 -33.88,-10.2872 -5.1898,-1.9096 -11.242,-4.7894 -16.8784,-3.2032 -2.80281,0.7854 -4.46601,2.0636 -6.08301,4.466 -3.234,4.8202 -7.1302,23.5928 -2.6026,27.9664 8.60861,8.3006 27.93561,-3.9578 34.75781,8.8704 2.9568,5.528589 -0.4004,11.257389 -1.1704,16.847589 -1.1704,8.4084 -0.4158,22.6072 1.8788,30.8 3.8038,13.56741 8.5624,24.03941 17.017,35.42001 6.0214,8.1004 15.4154,16.4472 19.2808,24.64 -28.721,-10.9032 -47.7092,-28.6748 -56.6566,-58.52 -2.079,-6.91461 -3.9424,-18.88041 -4.6816,-26.18001 -0.5236,-5.1282 0.0308,-10.6414 -4.21961,-14.4914 -2.9414,-2.6488 -14.6454,-4.4968 -19.1422,-5.75959 0,0 -40.04,-12.982199 -40.04,-12.982199 -4.312,-0.9548 -15.7542,-4.2042 -18.0334,1.3706 -1.6324,4.0194 6.2832,15.446189 8.393,19.542589 6.2832,12.166 11.7502,24.948 14.1372,38.50001 0,0 3.234,25.9644 3.234,25.9644 3.465,5.929 16.6782,7.854 23.0692,10.01 12.474,4.1888 28.5054,12.4124 36.96001,22.5456 -6.8838,-1.9558 -9.20921,-3.7114 -15.40001,-6.3602 -13.2286,-5.6518 -27.3812,-8.3776 -41.58,-10.1486 -6.4372,-0.8008 -22.561,-1.1396 -26.796,-5.8366 -4.4044,-4.8818 -1.6016,-16.2624 -1.0318,-22.3146 1.309,-14.19881 0.8008,-27.84321 -3.5112,-41.58001 -4.9434,-15.7542 -12.458601,-29.752789 -24.116401,-41.579989 -8.854999,-8.9628 -20.790001,-14.8148 -26.1646,-26.18 0,0 75.460001,29.029 75.460001,29.029 4.8664,1.3244 22.792,6.083 26.796,2.2484 2.0482,-2.4948 0.3234,-10.5952 0,-14.3374 0.6468,-30.0454 -7.9618,-37.4528 -14.476,-61.6 z M 6.0750988,226.98395 c 9.9946002,1.9404 17.2325992,8.547 26.0105992,13.86 2.926002,1.771 9.101401,5.0666 10.533601,8.1466 2.2022,4.7894 -3.9424,7.0686 -1.7864,13.4288 3.4804,10.318 22.591801,18.172 32.832801,16.3702 2.772,-0.4774 5.2822,-1.54 7.6384,-3.0492 19.5272,-12.5972 -6.6836,-28.9058 -15.169,-38.038 -3.0338,-3.2494 -5.2822,-6.2216 -5.9598,-10.7184 -3.249401,-21.6216 22.9306,-16.7552 35.0504,-13.1824 37.5144,11.0572 70.65521,50.5736 110.88001,24.6554 5.3284,-3.4342 10.9186,-8.2698 15.1228,-13.013 30.0916,-33.9724 8.393,-81.89721 7.9772,-117.04001 -0.1848,-16.231589 0.1848,-41.194989 18.48,-48.140389 16.7398,-6.3756 54.2388,14.9688 44.8294,37.2064 -3.2032,7.561389 -11.7656,8.007989 -18.6186,5.590189 -2.8182,-1.00099 -8.008,-3.926989 -5.929,-7.684589 1.5554,-2.8336 9.2708,-3.542 10.0254,-10.1024 0.6776,-5.9906 -8.4392,-15.4 -17.9872,-11.165 -10.8108,4.7894 -15.939,15.1844 -15.1228,26.595799 1.001,13.92159 5.0358,26.65739 8.393,40.03999 9.7174,38.91581 11.9504,98.79101 -33.3102,116.31621 -8.6548,3.3572 -17.0324,3.8962 -26.18,3.8038 -24.4244,-0.2772 -48.44841,-13.2902 -69.30001,-24.8556 -7.3766,-4.081 -27.5506,-15.7388 -35.42,-13.552 -7.7,2.1406 -10.2872,8.5316 -6.1138,15.3076 6.8992,11.1804 36.6828,25.9182 22.3916,44.5984 -1.771,2.3254 -4.5738,4.8356 -7.0378,6.391 -3.8192,2.387 -6.4064,2.7258 -10.78,2.8798 -16.4318,0.6006 -29.491,-4.543 -43.120001,-13.3672 0,0 -15.400001,-11.2112 -15.400001,-11.2112 -8.931998,-4.312 -19.6195992,4.6662 -22.9305992,-6.2832 -0.1232,-1.617 -0.1386,-4.3582 0,-6.0676 0,0 0,-27.72 0,-27.72 z"
     style="fill:#ffffff;stroke:none" />
</svg>
