<?xml version="1.0" encoding="UTF-8" standalone="no"?>
<svg
   xmlns:dc="http://purl.org/dc/elements/1.1/"
   xmlns:cc="http://creativecommons.org/ns#"
   xmlns:rdf="http://www.w3.org/1999/02/22-rdf-syntax-ns#"
   xmlns:svg="http://www.w3.org/2000/svg"
   xmlns="http://www.w3.org/2000/svg"
   xmlns:sodipodi="http://sodipodi.sourceforge.net/DTD/sodipodi-0.dtd"
   xmlns:inkscape="http://www.inkscape.org/namespaces/inkscape"
   width="200"
   height="200"
   viewBox="0 0 299.9844 299.98487"
   version="1.1"
   id="svg3"
   sodipodi:docname="hd06.svg"
   inkscape:version="1.0.1 (3bc2e813f5, 2020-09-07)">
  <metadata
     id="metadata9">
    <rdf:RDF>
      <cc:Work
         rdf:about="">
        <dc:format>image/svg+xml</dc:format>
        <dc:type
           rdf:resource="http://purl.org/dc/dcmitype/StillImage" />
        <dc:title></dc:title>
      </cc:Work>
    </rdf:RDF>
  </metadata>
  <defs
     id="defs7" />
  <sodipodi:namedview
     pagecolor="#ffffff"
     bordercolor="#666666"
     borderopacity="1"
     objecttolerance="10"
     gridtolerance="10"
     guidetolerance="10"
     inkscape:pageopacity="0"
     inkscape:pageshadow="2"
     inkscape:window-width="3840"
     inkscape:window-height="2066"
     id="namedview5"
     showgrid="false"
     inkscape:zoom="1.6806796"
     inkscape:cx="371.26516"
     inkscape:cy="37.442828"
     inkscape:window-x="-11"
     inkscape:window-y="-11"
     inkscape:window-maximized="1"
     inkscape:current-layer="svg3"
     inkscape:document-rotation="0"
     units="px" />
  <path
     id="Sélection #3"
     fill="none"
     stroke="black"
     stroke-width="1.62624"
     d="m 8.382186,249.37012 c 5.334067,-10.71691 12.53831,-11.17226 21.141119,-18.4253 2.715821,-2.29299 7.805952,-6.81394 7.805952,-10.66812 0,-3.48017 -3.463891,-5.17145 -6.212236,-6.26103 -7.090407,-2.82966 -20.929709,-2.99229 -21.401319,-13.43276 -0.146361,-3.23621 1.740077,-6.55375 4.179437,-8.57028 12.115488,-9.95259 42.737587,2.09784 57.910406,1.30099 13.026183,-0.68302 29.792715,-16.5226 39.029755,-25.32056 5.69184,-5.41538 17.88864,-14.16455 16.6527,-22.70231 -1.08958,-7.57828 -12.86356,-18.6855 -18.00248,-24.3936 0,0 -37.810074,-42.282241 -37.810074,-42.282241 -3.577728,-3.886714 -17.677229,-18.815598 -19.10832,-22.669786 -1.853914,-4.976294 2.146637,-6.342336 6.261024,-6.228499 7.562016,0.211411 12.684672,4.358323 17.839853,9.41593 0,0 48.868507,60.073306 48.868507,60.073306 4.82994,4.84619 15.35171,15.56312 22.70231,13.66041 6.70011,-1.72381 20.86466,-16.34371 25.74336,-21.72656 0,0 50.6899,-56.772039 50.6899,-56.772039 4.5047,-4.179437 11.53005,-10.22905 17.88864,-10.798234 5.6268,-0.520397 10.45673,3.008544 8.68413,9.058157 -1.59372,5.512954 -15.43303,18.100051 -20.06781,22.734835 0,0 -50.41344,48.852251 -50.41344,48.852251 -3.13863,2.99228 -19.85637,18.96196 -20.86463,21.53142 -0.66677,1.69129 -0.61798,2.79713 0,4.48842 1.08957,3.05733 7.93605,10.09895 10.42419,12.94487 8.99309,10.32662 26.97931,25.87348 38.08652,34.3462 4.30954,3.285 14.26214,11.56257 19.51488,11.62762 4.30954,0.0651 9.0419,-4.13068 13.00992,-6.04964 9.78998,-4.73234 30.44322,-9.95257 40.46085,-4.52094 2.89471,1.5612 4.9763,3.6753 5.6268,7.00909 2.01653,10.60311 -12.22932,12.74974 -18.19763,17.51463 -2.56945,2.04907 -4.78114,4.71609 -3.91923,8.22878 2.39057,9.62734 23.77562,6.06586 26.50771,18.03499 1.20341,5.33407 -3.54521,7.82222 -8.22878,6.91152 -6.19597,-1.21968 -12.09922,-7.87099 -21.1086,-9.31835 -8.86301,-1.44735 -24.23098,4.61853 -34.15104,5.36659 -6.11465,0.45535 -15.62816,-0.53666 -17.02673,-7.93606 -1.95149,-10.35914 11.92034,-15.51432 8.65159,-24.29602 -2.40682,-6.42364 -13.69293,-13.49779 -19.27094,-17.43331 0,0 -39.02975,-30.75219 -39.02975,-30.75219 -4.94376,-3.70783 -14.76625,-12.27811 -21.14111,-11.17227 -3.91924,0.66676 -12.83103,7.17172 -16.2624,9.72491 0,0 -32.524795,26.31257 -32.524795,26.31257 -3.740352,2.99228 -12.391948,9.93634 -12.456998,15.04274 -0.146362,9.5135 28.377883,12.57082 20.279213,27.58102 -3.642778,6.76516 -12.538311,7.02535 -19.205895,6.24477 -12.326899,-1.41484 -32.671161,-6.99283 -43.90848,-4.69984 -14.993932,3.0736 -15.611903,10.91207 -27.646079,8.42392 z m 26.019839,-52.03969 c 2.049063,4.09811 2.618247,5.44789 6.602535,8.17998 4.488422,3.08988 9.204518,4.61854 14.50606,2.66705 9.188257,-3.38259 7.187981,-10.45672 -1.62624,-12.26186 0,0 -8.098675,0 -8.098675,0 0,0 -11.38368,1.41483 -11.38368,1.41483 z M 237.682,216.84532 c 0,0 6.50496,1.07333 6.50496,1.07333 3.18744,0.22767 12.71721,-1.33353 9.48098,-6.66759 -1.23593,-2.04906 -13.85556,-6.73267 -15.98594,5.59426 z m -167.502695,16.2624 c -2.553196,-7.69211 -5.431641,-7.67585 -13.00992,-8.1312 2.553197,8.0011 5.155181,7.85475 13.00992,8.1312 z m 175.633895,4.87872 c 0,0 -8.1312,-3.25248 -8.1312,-3.25248 0,0 -1.62624,6.50496 -1.62624,6.50496 5.80569,0.73181 5.51296,0.7806 9.75744,-3.25248 z"
     style="fill:#ffffff;stroke:none" />
</svg>
