<?xml version="1.0" encoding="UTF-8" standalone="no"?>
<svg
   xmlns:dc="http://purl.org/dc/elements/1.1/"
   xmlns:cc="http://creativecommons.org/ns#"
   xmlns:rdf="http://www.w3.org/1999/02/22-rdf-syntax-ns#"
   xmlns:svg="http://www.w3.org/2000/svg"
   xmlns="http://www.w3.org/2000/svg"
   xmlns:sodipodi="http://sodipodi.sourceforge.net/DTD/sodipodi-0.dtd"
   xmlns:inkscape="http://www.inkscape.org/namespaces/inkscape"
   width="200"
   height="200"
   viewBox="0 0 299.98441 299.98488"
   version="1.1"
   id="svg3"
   sodipodi:docname="hd07.svg"
   inkscape:version="1.0.1 (3bc2e813f5, 2020-09-07)">
  <metadata
     id="metadata9">
    <rdf:RDF>
      <cc:Work
         rdf:about="">
        <dc:format>image/svg+xml</dc:format>
        <dc:type
           rdf:resource="http://purl.org/dc/dcmitype/StillImage" />
        <dc:title></dc:title>
      </cc:Work>
    </rdf:RDF>
  </metadata>
  <defs
     id="defs7" />
  <sodipodi:namedview
     pagecolor="#ffffff"
     bordercolor="#666666"
     borderopacity="1"
     objecttolerance="10"
     gridtolerance="10"
     guidetolerance="10"
     inkscape:pageopacity="0"
     inkscape:pageshadow="2"
     inkscape:window-width="3840"
     inkscape:window-height="2066"
     id="namedview5"
     showgrid="false"
     inkscape:zoom="4.7536798"
     inkscape:cx="50.113431"
     inkscape:cy="110.18717"
     inkscape:window-x="-11"
     inkscape:window-y="-11"
     inkscape:window-maximized="1"
     inkscape:current-layer="svg3"
     inkscape:document-rotation="0"
     units="px" />
  <path
     id="Sélection #4"
     fill="none"
     stroke="black"
     stroke-width="1.458"
     d="m 203.85452,50.949891 c 0,0 -1.21014,16.038 -1.21014,16.038 -0.93312,12.13056 7.85862,17.00028 11.63484,8.66052 0,0 2.65356,-26.15652 2.65356,-26.15652 0.34992,-5.71536 0.5832,-11.31408 7.3629,-13.07826 7.37748,-1.92456 14.04054,3.09096 15.51312,10.16226 0,0 1.95372,53.945999 1.95372,53.945999 0,0 1.458,23.328 1.458,23.328 0,0 -1.458,21.87 -1.458,21.87 -0.0583,39.19104 -5.93406,82.2312 -37.908,108.88344 -16.767,13.96764 -34.39422,16.19838 -55.404,17.70012 -6.24024,0.4374 -17.10234,-1.98288 -23.328,-3.5721 -40.444921,-10.3518 -66.105719,-38.2725 -65.609999,-80.72946 0.32076,-27.00216 19.128958,-58.58244 32.294699,-81.648 8.76258,-15.367319 19.3185,-28.168559 17.51058,-46.655999 -0.62694,-6.38604 -2.95974,-15.44022 -8.64594,-19.15812 -7.61076,-4.98636 -25.631641,4.02408 -28.095661,17.70012 -2.361958,13.09284 10.5705,16.51914 12.27636,20.90772 2.71188,6.98382 -9.41868,8.32518 -13.676038,8.1648 -10.7892,-0.37908 -15.2361,-8.90838 -14.2884,-18.86652 1.63296,-17.14608 23.153038,-39.847141 40.532398,-40.765681 17.962561,-0.93312 24.115321,11.095381 22.861441,27.643681 -3.41172,44.687699 -41.348881,78.382079 -41.815441,118.097999 -0.45198,39.05982 21.38886,64.31238 55.404001,81.2835 4.50522,2.24532 8.15022,4.06782 13.122,5.20506 10.1331,2.31822 33.12576,2.08494 39.11814,-8.06274 2.02662,-3.45546 1.70586,-8.87922 1.70586,-12.81582 0,0 0,-32.076 0,-32.076 0,0 2.66814,-29.16 2.66814,-29.16 0,0 1.83708,-29.16 1.83708,-29.16 0,0 1.32678,-23.328 1.32678,-23.328 -0.17496,-13.95306 0.18954,-23.21136 -16.038,-23.328 -13.25322,-0.0875 -25.47126,1.07892 -37.908,-4.855139 -6.86718,-3.26592 -11.19744,-6.03612 -10.206,-14.09886 17.30646,4.06782 34.07346,18.691559 52.488,10.67256 2.87226,-1.25388 6.00696,-2.97432 8.12106,-5.33628 9.85608,-10.96416 -5.4675,-34.21926 13.74894,-37.41228 z m 8.748,48.114 c -7.0713,2.259899 -7.15878,4.621859 -7.29,11.663999 0,0 0,34.992 0,34.992 0,0 -1.32678,14.58 -1.32678,14.58 0,0 -2.79936,42.282 -2.79936,42.282 0,0 -3.16386,37.908 -3.16386,37.908 2.02662,-0.67068 3.09096,-0.61236 4.78224,-2.31822 3.90744,-3.98034 7.12962,-24.97554 7.93152,-31.21578 3.44088,-27.03132 1.86624,-78.39666 1.86624,-107.891999 z"
     style="fill:#ffffff;stroke:none" />
</svg>
