<?xml version="1.0" encoding="UTF-8" standalone="no"?>
<svg
   xmlns:dc="http://purl.org/dc/elements/1.1/"
   xmlns:cc="http://creativecommons.org/ns#"
   xmlns:rdf="http://www.w3.org/1999/02/22-rdf-syntax-ns#"
   xmlns:svg="http://www.w3.org/2000/svg"
   xmlns="http://www.w3.org/2000/svg"
   xmlns:sodipodi="http://sodipodi.sourceforge.net/DTD/sodipodi-0.dtd"
   xmlns:inkscape="http://www.inkscape.org/namespaces/inkscape"
   width="200"
   height="200"
   viewBox="0 0 299.98452 299.98453"
   version="1.1"
   id="svg3"
   sodipodi:docname="hd08.svg"
   inkscape:version="1.0.1 (3bc2e813f5, 2020-09-07)">
  <metadata
     id="metadata9">
    <rdf:RDF>
      <cc:Work
         rdf:about="">
        <dc:format>image/svg+xml</dc:format>
        <dc:type
           rdf:resource="http://purl.org/dc/dcmitype/StillImage" />
        <dc:title></dc:title>
      </cc:Work>
    </rdf:RDF>
  </metadata>
  <defs
     id="defs7" />
  <sodipodi:namedview
     pagecolor="#ffffff"
     bordercolor="#666666"
     borderopacity="1"
     objecttolerance="10"
     gridtolerance="10"
     guidetolerance="10"
     inkscape:pageopacity="0"
     inkscape:pageshadow="2"
     inkscape:window-width="3840"
     inkscape:window-height="2066"
     id="namedview5"
     showgrid="false"
     inkscape:zoom="6.0476878"
     inkscape:cx="48.669177"
     inkscape:cy="85.525398"
     inkscape:window-x="-11"
     inkscape:window-y="-11"
     inkscape:window-maximized="1"
     inkscape:current-layer="svg3"
     inkscape:document-rotation="0"
     units="px" />
  <path
     id="Sélection"
     fill="none"
     stroke="black"
     stroke-width="1.77156"
     d="m 29.507423,138.78717 c 3.277388,-9.44243 16.121205,-10.75338 24.801853,-13.57017 0,0 17.715611,-5.91701 17.715611,-5.91701 10.700229,-1.45268 19.044281,5.65128 20.231226,15.94405 1.29324,5.59813 -0.03543,8.92867 0,14.17249 -1.169229,9.46013 4.180885,20.19579 15.199997,16.75896 8.96409,-2.81678 29.40791,-19.00884 42.51746,-20.10722 10.41678,-0.88577 19.34545,2.97623 21.75477,13.97763 2.28531,10.48764 -8.43263,30.04567 -9.1944,42.51745 -1.98414,32.49044 44.46616,56.21164 71.12816,22.87086 16.93612,-21.17016 22.03821,-55.66244 3.96829,-77.71838 -9.47784,-11.58601 -24.85499,-18.79626 -38.05313,-25.2979 -16.06804,-7.91887 -48.00928,-22.46338 -41.08248,-45.635401 1.73613,-5.828436 6.6965,-12.755238 11.47972,-16.475518 3.43683,-2.675057 11.17855,-5.793004 15.43029,-7.582281 16.90069,-7.086244 47.83213,-16.599527 62.97898,-1.116083 5.36783,5.474124 2.3916,10.682514 -2.94079,14.615379 -8.73379,6.430766 -22.62283,11.798595 -33.4648,12.330064 1.55898,-3.808857 5.52728,-10.239622 4.51749,-14.101625 -3.47226,-13.268993 -30.27597,-7.529135 -31.97665,7.015381 -1.47041,12.489505 19.41628,29.779944 29.23072,34.970604 19.23917,10.16877 48.91281,19.9655 55.55616,42.97808 1.36411,4.69464 1.18696,11.01911 1.1338,15.94405 -0.15943,13.46386 -3.04708,30.61256 -9.4247,42.51745 -13.269,24.731 -52.13703,50.64893 -80.92489,48.73566 -7.77716,-0.51376 -20.10722,-5.59814 -26.57342,-9.93847 -19.15057,-12.89696 -16.51094,-28.46898 -10.66479,-47.65499 2.24988,-7.40512 7.08624,-21.38274 2.4979,-28.23867 -5.54499,-8.29091 -12.43636,-6.53707 -20.17808,-3.10024 -8.5035,3.77343 -31.073183,15.80232 -38.974345,16.75897 -28.468986,3.50769 -11.196266,-30.32912 -22.162228,-43.63355 -8.592073,-10.41678 -23.455467,-3.57855 -34.527724,-2.01957 z"
     style="fill:#ffffff;stroke:none" />
</svg>
