<?xml version="1.0" encoding="UTF-8" standalone="no"?>
<svg
   xmlns:dc="http://purl.org/dc/elements/1.1/"
   xmlns:cc="http://creativecommons.org/ns#"
   xmlns:rdf="http://www.w3.org/1999/02/22-rdf-syntax-ns#"
   xmlns:svg="http://www.w3.org/2000/svg"
   xmlns="http://www.w3.org/2000/svg"
   xmlns:sodipodi="http://sodipodi.sourceforge.net/DTD/sodipodi-0.dtd"
   xmlns:inkscape="http://www.inkscape.org/namespaces/inkscape"
   width="200"
   height="200"
   viewBox="0 0 299.98483 299.9849"
   version="1.1"
   id="svg3"
   sodipodi:docname="hd09.svg"
   inkscape:version="1.0.1 (3bc2e813f5, 2020-09-07)">
  <metadata
     id="metadata9">
    <rdf:RDF>
      <cc:Work
         rdf:about="">
        <dc:format>image/svg+xml</dc:format>
        <dc:type
           rdf:resource="http://purl.org/dc/dcmitype/StillImage" />
        <dc:title></dc:title>
      </cc:Work>
    </rdf:RDF>
  </metadata>
  <defs
     id="defs7" />
  <sodipodi:namedview
     pagecolor="#ffffff"
     bordercolor="#666666"
     borderopacity="1"
     objecttolerance="10"
     gridtolerance="10"
     guidetolerance="10"
     inkscape:pageopacity="0"
     inkscape:pageshadow="2"
     inkscape:window-width="3840"
     inkscape:window-height="2066"
     id="namedview5"
     showgrid="false"
     inkscape:zoom="6.6899283"
     inkscape:cx="38.540024"
     inkscape:cy="89.50212"
     inkscape:window-x="-11"
     inkscape:window-y="-11"
     inkscape:window-maximized="1"
     inkscape:current-layer="svg3"
     inkscape:document-rotation="0"
     units="px" />
  <path
     id="Sélection"
     fill="none"
     stroke="black"
     stroke-width="1.7424"
     d="m 200.78959,86.416053 c 0,-7.736255 0.90605,-24.864046 -1.75982,-31.363198 -5.34917,-13.068 -22.59893,-21.083041 -34.25558,-8.520336 -15.64676,16.849007 -21.44895,52.324261 -21.4838,74.731531 -0.0523,32.89651 2.42194,70.89824 -12.66724,101.05919 -6.95218,13.90435 -16.97098,22.42469 -26.136,34.848 0,0 -20.351232,29.53368 -20.351232,29.53368 -2.26512,3.22344 -5.122661,7.91049 -9.705173,5.24462 C 70.893673,289.87609 63.854377,276.9649 61.397593,272.85284 46.622041,248.23273 44.56601,236.69804 43.52057,208.38404 41.412265,150.65834 80.180665,71.657926 129.35119,41.218199 c 18.26036,-11.290753 24.14967,-6.952177 33.1056,-10.576369 12.6324,-5.105232 26.60645,-25.8397897 47.0448,-23.1564937 24.88146,3.2582877 22.45953,32.5306067 47.04479,35.3707187 -2.5439,2.892384 -3.58934,4.286304 -7.03929,6.324912 -20.92623,12.336192 -30.89276,-19.201249 -43.55999,-23.836033 -3.97267,-1.585582 -6.51658,-0.731806 -10.38471,0 8.17186,15.995233 22.05879,27.686737 14.60132,47.13192 -2.59618,6.760512 -3.95525,9.147599 -9.37412,13.939199 z m -52.272,-43.559998 C 125.62246,47.525687 114.29686,61.203527 101.22886,79.446454 75.319369,115.5664 65.248297,145.27432 61.955161,189.21764 c -1.04544,13.99147 4.913568,40.47595 9.461232,54.0144 1.637856,4.87872 5.523408,14.51419 11.203637,15.66417 5.087805,1.0106 11.447561,-4.82644 14.862671,-8.03246 12.318769,-11.48242 17.423999,-21.2747 21.867119,-37.25251 6.8999,-24.91632 4.73933,-65.53166 4.77417,-92.34719 0.0349,-17.00583 3.43253,-35.196477 10.90743,-50.529596 0,0 15.22857,-26.135999 15.22857,-26.135999 0,0 -1.7424,-1.7424 -1.7424,-1.7424 z M 92.760795,222.32324 c -1.812096,-7.16127 -2.230272,-9.5832 5.227196,-12.1968 0.20909,7.02187 -0.1045,7.4052 -5.227196,12.1968 z"
     style="fill:#ffffff;stroke:none" />
</svg>
