<?xml version="1.0" encoding="UTF-8" standalone="no"?>
<svg
   xmlns:dc="http://purl.org/dc/elements/1.1/"
   xmlns:cc="http://creativecommons.org/ns#"
   xmlns:rdf="http://www.w3.org/1999/02/22-rdf-syntax-ns#"
   xmlns:svg="http://www.w3.org/2000/svg"
   xmlns="http://www.w3.org/2000/svg"
   xmlns:sodipodi="http://sodipodi.sourceforge.net/DTD/sodipodi-0.dtd"
   xmlns:inkscape="http://www.inkscape.org/namespaces/inkscape"
   width="200"
   height="200"
   viewBox="0 0 299.98471 299.98475"
   version="1.1"
   id="svg3"
   sodipodi:docname="hd10.svg"
   inkscape:version="1.0.1 (3bc2e813f5, 2020-09-07)">
  <metadata
     id="metadata9">
    <rdf:RDF>
      <cc:Work
         rdf:about="">
        <dc:format>image/svg+xml</dc:format>
        <dc:type
           rdf:resource="http://purl.org/dc/dcmitype/StillImage" />
        <dc:title></dc:title>
      </cc:Work>
    </rdf:RDF>
  </metadata>
  <defs
     id="defs7" />
  <sodipodi:namedview
     pagecolor="#ffffff"
     bordercolor="#666666"
     borderopacity="1"
     objecttolerance="10"
     gridtolerance="10"
     guidetolerance="10"
     inkscape:pageopacity="0"
     inkscape:pageshadow="2"
     inkscape:window-width="3840"
     inkscape:window-height="2066"
     id="namedview5"
     showgrid="false"
     inkscape:zoom="3.2444703"
     inkscape:cx="-10.243748"
     inkscape:cy="69.07271"
     inkscape:window-x="-11"
     inkscape:window-y="-11"
     inkscape:window-maximized="1"
     inkscape:current-layer="svg3"
     inkscape:document-rotation="0"
     units="px" />
  <path
     id="Sélection"
     fill="none"
     stroke="black"
     stroke-width="1.6"
     d="m 45.192365,51.028774 c 15.536,-11.632 16.304,-0.208 30.4,12.528 9.952,8.976 26.256005,16.944 40.000005,15.744 31.18399,-2.688 39.82399,-21.488 49.10399,-47.472 2.384,-6.64 9.584,-28.2879985 19.2,-25.8879985 5.024,1.264 3.6,11.0399995 2.88,14.6879995 -4.016,20.111999 -5.968,30.591999 -1.328,51.199999 5.36,23.776 29.376,48.976006 54.944,47.936006 11.632,-0.464 25.808,-6.992 38.4,-9.536 -3.312,10.08 -15.264,12.048 -24,16.432 -12.832,6.432 -28.768,17.6 -36.256,29.968 -12.352,20.39999 1.024,52.95999 13.44,70.39999 5.056,7.088 13.776,18.992 1.808,25.296 -8.496,4.464 -18.4,-8.72 -23.792,-14.096 -13.36,-13.296 -25.408,-22.96 -44.8,-14.096 -11.776,5.376 -23.328,17.408 -26.64,30.096 -6.672,25.536 0.32,39.44 -21.11999,40 0,0 0,-14.4 0,-14.4 1.79199,-10.88 8.17599,-24.496 5.24799,-35.2 -1.744,-6.416 -7.07199,-12.768 -11.95199,-17.12 -28.688005,-25.616 -60.432005,-6.624 -89.536004,5.92 4.384,-8.848 11.663999,-12.304 19.199999,-18.32 11.36,-9.072 19.76,-16.528 28.768,-28.08 5.344,-6.832 11.088,-15.824 14.032,-24 9.936,-27.51999 -5.04,-59.99999 -19.472,-83.199996 0,0 -18.528,-28.8 -18.528,-28.8 z m 107.199995,36.8 c -9.696,0.24 -36.84799,7.136 -36.54399,19.232006 0.192,7.104 9.18399,17.536 14.28799,22.128 2.752,2.496 6.56,5.424 10.384,3.312 4.48,-2.464 8.544,-21.536 10.032,-27.072 2.08,-7.776006 2.608,-9.552006 1.84,-17.600006 z m 17.6,22.400006 c 0,0 -7.664,28.8 -7.664,28.8 -0.656,3.2 -2.128,9.04 0,11.84 2.528,3.36 7.776,1.12 10.864,0 0,0 27.168,-11.408 27.168,-11.408 2.928,-1.424 7.024,-3.152 7.024,-7.024 0,-7.072 -15.824,-13.472 -21.392,-16.976 -7.168,-4.512 -7.52,-4.944 -16,-5.232 z m -73.599995,73.59999 c 7.088005,-1.104 30.127995,-8.848 33.423995,-15.024 4.048,-7.584 -8.352,-21.87199 -14.22399,-25.61599 -3.152,-2.016 -4.528,-2 -8,-2.56 0,0 -5.504,25.59999 -5.504,25.59999 0,0 -5.696005,17.6 -5.696005,17.6 z m 91.199995,0 c 0,0 1.44,-9.6 1.44,-9.6 1.28,-22.87999 -26.08,-2.64 -9.136,7.504 2.704,1.616 4.736,1.68 7.696,2.096 z m -61.008,6.688 c -5.904,-0.208 -16.38399,3.232 -18.59199,9.472 -2.32,6.528 6.88,12.704 12.36799,13.52 10.288,1.536 15.808,-17.616 6.224,-22.992 z m 27.712,3.952 c -9.712,6.112 -7.408,22.32 -4.144,24.32 2.656,1.632 10.64,-1.232 13.408,-2.4 15.408,-6.496 2.784,-22.88 -9.264,-21.92 z"
     style="fill:#ffffff;stroke:none" />
</svg>
