<?xml version="1.0" encoding="UTF-8" standalone="no"?>
<svg
   xmlns:dc="http://purl.org/dc/elements/1.1/"
   xmlns:cc="http://creativecommons.org/ns#"
   xmlns:rdf="http://www.w3.org/1999/02/22-rdf-syntax-ns#"
   xmlns:svg="http://www.w3.org/2000/svg"
   xmlns="http://www.w3.org/2000/svg"
   xmlns:sodipodi="http://sodipodi.sourceforge.net/DTD/sodipodi-0.dtd"
   xmlns:inkscape="http://www.inkscape.org/namespaces/inkscape"
   width="200"
   height="200"
   viewBox="0 0 299.98444 299.98488"
   version="1.1"
   id="svg3"
   sodipodi:docname="hd11.svg"
   inkscape:version="1.0.1 (3bc2e813f5, 2020-09-07)">
  <metadata
     id="metadata9">
    <rdf:RDF>
      <cc:Work
         rdf:about="">
        <dc:format>image/svg+xml</dc:format>
        <dc:type
           rdf:resource="http://purl.org/dc/dcmitype/StillImage" />
        <dc:title></dc:title>
      </cc:Work>
    </rdf:RDF>
  </metadata>
  <defs
     id="defs7" />
  <sodipodi:namedview
     pagecolor="#ffffff"
     bordercolor="#666666"
     borderopacity="1"
     objecttolerance="10"
     gridtolerance="10"
     guidetolerance="10"
     inkscape:pageopacity="0"
     inkscape:pageshadow="2"
     inkscape:window-width="3840"
     inkscape:window-height="2066"
     id="namedview5"
     showgrid="false"
     inkscape:zoom="1.6806796"
     inkscape:cx="404.20909"
     inkscape:cy="74.67043"
     inkscape:window-x="-11"
     inkscape:window-y="-11"
     inkscape:window-maximized="1"
     inkscape:current-layer="svg3"
     inkscape:document-rotation="0"
     units="px" />
  <path
     id="Sélection #6"
     fill="none"
     stroke="black"
     stroke-width="1.38915"
     d="m 141.5067,13.16902 c 4.16745,11.39103 -7.69589,25.338096 -5.00094,37.50705 2.47268,11.224332 11.00207,7.709782 13.25249,14.197113 0,0 0,12.196737 0,12.196737 0,0 3.0978,36.1179 3.0978,36.1179 2.56993,26.61611 7.34861,53.67675 15.51681,79.18155 2.86165,8.91834 5.3899,19.2814 13.44697,24.86578 11.51605,7.95983 34.96491,12.46068 37.47927,27.92192 -11.07153,-0.63901 -12.64127,-4.62587 -22.2264,-8.57106 -3.13948,-1.19467 -7.39028,-2.70884 -10.27971,0 -3.00057,2.63939 -1.79201,7.93205 -0.97241,11.34936 0,0 8.80721,26.39385 8.80721,26.39385 0.88906,3.52844 2.13929,11.83556 -3.29228,12.46067 -5.04262,0.58345 -10.75202,-8.8211 -13.2386,-12.46067 -6.80684,-10.00188 -15.86409,-24.82411 -28.25531,-28.25531 -17.75334,-4.91759 -25.60204,16.48921 -34.72875,21.30956 3.23672,-11.08542 7.15412,-26.94951 18.05895,-32.56168 11.37714,-6.19561 21.93468,0.36118 27.75521,0 3.72293,0.0139 7.1958,-2.18096 6.40399,-6.3623 -1.36137,-7.09856 -20.101,-22.19862 -25.8243,-27.76911 -10.41863,-10.18247 -20.71223,-20.62888 -29.92229,-31.93656 0,0 -9.82129,-13.69702 -9.82129,-13.69702 -6.153941,-7.04299 -12.321762,-3.54233 -17.419943,-11.39103 -2.305989,-3.55622 -2.556036,-8.29323 -3.15337,-12.419 -1.444715,-10.01577 0.09724,-36.562432 6.140043,-44.4528 -0.08335,9.321193 -1.819787,18.57293 -2.903324,27.783 -0.972405,5.00094 -2.611602,10.71035 0,15.32232 6.195609,9.58514 13.00244,2.87554 18.725744,7.73757 2.6116,2.20875 9.55735,14.78055 12.07171,18.61461 6.8624,10.4603 14.58607,20.37883 23.50442,29.17215 3.12558,3.08391 15.05838,14.47494 18.18397,5.33433 0.97241,-2.80608 -3.01445,-24.29623 -3.70903,-28.94988 0,0 -5.90389,-51.39855 -5.90389,-51.39855 0,0 -2.45879,-25.0047 -2.45879,-25.0047 -3.33396,-9.015584 -13.22471,-9.946314 -15.37789,-22.2264 -1.83368,-10.418625 4.43139,-23.559984 7.76535,-33.3396 0,0 4.27858,-16.6698 4.27858,-16.6698 z"
     style="fill:#ffffff;stroke:none" />
</svg>
