<?xml version="1.0" encoding="UTF-8" standalone="no"?>
<svg
   xmlns:dc="http://purl.org/dc/elements/1.1/"
   xmlns:cc="http://creativecommons.org/ns#"
   xmlns:rdf="http://www.w3.org/1999/02/22-rdf-syntax-ns#"
   xmlns:svg="http://www.w3.org/2000/svg"
   xmlns="http://www.w3.org/2000/svg"
   xmlns:sodipodi="http://sodipodi.sourceforge.net/DTD/sodipodi-0.dtd"
   xmlns:inkscape="http://www.inkscape.org/namespaces/inkscape"
   width="200"
   height="200"
   viewBox="0 0 299.9845 299.98451"
   version="1.1"
   id="svg3"
   sodipodi:docname="hd12.svg"
   inkscape:version="1.0.1 (3bc2e813f5, 2020-09-07)">
  <metadata
     id="metadata9">
    <rdf:RDF>
      <cc:Work
         rdf:about="">
        <dc:format>image/svg+xml</dc:format>
        <dc:type
           rdf:resource="http://purl.org/dc/dcmitype/StillImage" />
        <dc:title></dc:title>
      </cc:Work>
    </rdf:RDF>
  </metadata>
  <defs
     id="defs7" />
  <sodipodi:namedview
     pagecolor="#ffffff"
     bordercolor="#666666"
     borderopacity="1"
     objecttolerance="10"
     gridtolerance="10"
     guidetolerance="10"
     inkscape:pageopacity="0"
     inkscape:pageshadow="2"
     inkscape:window-width="3840"
     inkscape:window-height="2066"
     id="namedview5"
     showgrid="false"
     inkscape:zoom="2.3075"
     inkscape:cx="101.45835"
     inkscape:cy="293.77361"
     inkscape:window-x="-11"
     inkscape:window-y="-11"
     inkscape:window-maximized="1"
     inkscape:current-layer="svg3"
     inkscape:document-rotation="0"
     units="px" />
  <path
     id="Sélection"
     fill="none"
     stroke="black"
     stroke-width="1.25226"
     d="m 121.24318,89.911785 c 1.90345,-5.985817 8.2399,-11.520819 12.46002,-16.279419 0,0 21.40118,-25.045261 21.40118,-25.045261 2.51704,-2.642275 8.80341,-9.61738 12.35982,-9.980537 3.84446,-0.400724 9.86784,8.390163 12.29722,11.232799 8.55296,9.980539 29.85396,27.649969 32.89697,38.820156 0,0 -32.55885,3.756788 -32.55885,3.756788 5.37222,6.449154 8.89108,7.025195 9.7927,16.279419 0.80146,8.20232 -3.69418,17.40645 2.35426,24.70714 4.83374,5.82303 15.89121,7.10034 21.17576,1.40254 3.23085,-3.48129 4.43301,-8.61557 8.26493,-11.40812 2.98039,-2.17893 6.26132,-2.12884 9.75515,-2.17893 0,0 31.30656,1.25226 31.30656,1.25226 0,0 -1.23974,18.78395 -1.23974,18.78395 -0.31306,13.98777 3.74427,36.92923 5.72285,51.34278 0,0 0.80144,8.76584 0.80144,8.76584 1.82831,10.46891 13.56201,15.03967 12.0092,28.80203 -1.54027,13.69977 -14.73913,21.97723 -27.31185,23.793 3.90705,-8.26492 8.89107,-9.86782 11.79631,-16.2794 6.41159,-14.18814 -13.28651,-32.09551 -26.82345,-31.18135 -7.6764,0.5009 -16.89305,6.3114 -23.25455,1.11452 -4.80867,-3.91959 -1.07694,-8.5655 -6.36149,-16.26692 -10.4063,-15.15237 -32.28333,-24.94506 -50.52881,-23.68029 -15.56563,1.07696 -32.45865,9.99307 -45.08147,18.69629 -3.93211,2.71742 -15.415353,11.97165 -18.78394,12.9985 -7.075287,2.16642 -11.746227,-4.82122 -18.783945,-8.11468 -11.270369,-5.28454 -18.721333,-1.65297 -27.499696,5.88565 -12.347313,10.59414 -19.435123,28.07574 -7.300695,41.75044 8.427732,9.50469 18.771424,9.2918 16.442215,16.11664 -2.066235,6.06095 -13.912643,7.1379 -19.209716,5.98581 -11.33298,-2.45443 -17.38141,-13.71228 -17.531682,-24.55688 -0.237929,-17.4941 4.119946,-26.73581 17.531682,-38.457 0,0 17.882317,-14.51373 17.882317,-14.51373 3.882014,-5.17184 5.873114,-26.46031 5.910682,-33.43542 0.02505,-4.55823 1.076946,-25.58372 2.366776,-28.75195 0.876585,-2.14137 2.028666,-3.66913 4.057333,-4.84626 2.679842,-1.52776 14.050391,-1.91596 18.621151,-2.86768 3.781834,-0.78893 11.295412,-4.11994 14.638948,-2.21651 5.24698,2.99291 1.40254,15.76599 3.64409,20.97541 2.19146,5.10923 9.55477,5.12175 14.2758,5.18436 3.91958,0.0375 10.18091,0.30055 13.59959,-1.64046 7.11285,-4.04481 6.04842,-23.20443 8.69068,-30.86828 2.47949,-7.187987 6.22376,-4.90887 10.26856,-12.572719 -15.79102,-3.180748 -14.20065,-2.504526 -30.05431,-2.504526 z m 62.61314,-6.261315 c -0.20034,-2.416867 -0.13774,-3.969674 -1.2773,-6.261315 -2.52957,-5.059143 -12.54767,-14.939497 -18.7589,-13.887596 -8.79089,1.477669 -18.95926,12.297222 -22.54073,20.148911 9.45459,3.719221 31.29405,0 42.57693,0 z m 47.58602,116.46046 c 4.27021,0 12.59776,0.76387 15.89119,-2.00362 3.65663,-3.08057 2.70492,-7.66386 1.90345,-11.77128 0,0 0,-22.54073 0,-22.54073 0,0 -1.28983,-17.53168 -1.28983,-17.53168 0.2755,-3.90706 1.72813,-9.75513 0.63865,-13.6121 -1.23973,-4.32031 -5.78544,-5.47239 -9.5798,-3.65661 -7.3007,3.51886 -4.98402,11.54587 -12.62281,15.96636 -8.67819,4.69598 -25.2331,0.93919 -35.01329,0 -4.97147,-0.23794 -10.51899,-0.10018 -14.15056,-4.23266 -4.19507,-4.74608 -3.31849,-13.54948 -3.38111,-19.51025 -0.0877,-6.79979 -1.61543,-22.240191 -12.38488,-17.69448 -5.1969,2.17894 -4.84627,6.76222 -5.34716,11.43316 -0.93921,8.51539 -0.16279,25.33328 -8.61558,29.51584 -2.91777,1.4401 -22.40298,3.11813 -26.24743,2.99291 0,0 -12.52263,-1.20217 -12.52263,-1.20217 -4.72103,-0.22541 -12.409921,-0.65118 -15.891212,-4.14498 -5.747888,-5.78547 0.400725,-17.63188 -7.976916,-20.33676 -5.221935,-1.69056 -8.47782,4.13246 -9.730083,8.20232 -1.85335,6.09852 -3.882015,25.90932 -3.969673,32.55884 -0.05008,4.5958 -0.42577,10.83207 1.815781,14.90192 4.846258,8.75331 19.334942,11.45821 28.238523,8.84098 14.11301,-4.14499 18.29557,-12.61028 36.31564,-21.06306 22.0273,-9.86784 49.4769,-11.2328 71.37899,0 13.12372,6.38653 22.35289,14.35093 22.54074,29.879 0,0 0,5.00905 0,5.00905 z"
     style="fill:#ffffff;stroke:none" />
</svg>
