<?xml version="1.0" encoding="UTF-8" standalone="no"?>
<svg
   xmlns:dc="http://purl.org/dc/elements/1.1/"
   xmlns:cc="http://creativecommons.org/ns#"
   xmlns:rdf="http://www.w3.org/1999/02/22-rdf-syntax-ns#"
   xmlns:svg="http://www.w3.org/2000/svg"
   xmlns="http://www.w3.org/2000/svg"
   xmlns:sodipodi="http://sodipodi.sourceforge.net/DTD/sodipodi-0.dtd"
   xmlns:inkscape="http://www.inkscape.org/namespaces/inkscape"
   width="80.64064mm"
   height="87.145065mm"
   viewBox="0 0 80.64064 87.145065"
   version="1.1"
   id="svg857"
   inkscape:version="1.0.1 (3bc2e813f5, 2020-09-07)"
   sodipodi:docname="appel-chance.svg">
  <defs
     id="defs851" />
  <sodipodi:namedview
     id="base"
     pagecolor="#ffffff"
     bordercolor="#666666"
     borderopacity="1.0"
     inkscape:pageopacity="0.0"
     inkscape:pageshadow="2"
     inkscape:zoom="2.3758788"
     inkscape:cx="275.41114"
     inkscape:cy="237.41072"
     inkscape:document-units="mm"
     inkscape:current-layer="layer1"
     inkscape:document-rotation="0"
     showgrid="false"
     inkscape:window-width="3840"
     inkscape:window-height="2054"
     inkscape:window-x="-11"
     inkscape:window-y="-11"
     inkscape:window-maximized="1" />
  <metadata
     id="metadata854">
    <rdf:RDF>
      <cc:Work
         rdf:about="">
        <dc:format>image/svg+xml</dc:format>
        <dc:type
           rdf:resource="http://purl.org/dc/dcmitype/StillImage" />
        <dc:title></dc:title>
      </cc:Work>
    </rdf:RDF>
  </metadata>
  <g
     inkscape:label="Calque 1"
     inkscape:groupmode="layer"
     id="layer1"
     transform="translate(-65.513013,-104.59413)">
    <g
       id="g7"
       transform="matrix(0.26458333,0,0,0.26458333,66.057598,105.25559)"
       style="image-rendering:auto;fill:#ffffff;stroke:none">
      <title
         id="title4">Layer 1</title>
      <path
         fill="#ffffff"
         fill-rule="evenodd"
         stroke="#000000"
         stroke-width="8"
         id="path2"
         d="m 206.5,1.5 q 8.5,0 15,3 6.5,3 12.25,8.25 5.75,5.25 12.5,15.5 Q 253,38.5 259.5,43 266,47.5 273.75,52.25 281.5,57 285.5,63 q 4,6 5.75,11.5 1.75,5.5 0,18 -1.75,12.5 -5.75,20 -4,7.5 -12.75,14.25 -8.75,6.75 -17.25,10.75 -8.5,4 -15,6 -6.5,2 -28.75,4.25 -22.25,2.25 -23,3 l -0.75,0.75 0.5,1.25 q 0.5,1.25 32,0.5 31.5,-0.75 43.5,2.75 12,3.5 18.25,8.25 6.25,4.75 9.75,10.25 3.5,5.5 5.5,10.5 2,5 0.5,19.5 -1.5,14.5 -4.75,19.75 -3.25,5.25 -3.75,6.5 l -0.5,1.25 -4.25,2.5 q -4.25,2.5 -10.25,10.5 -6,8 -10,16.5 -4,8.5 -6.75,12.25 -2.75,3.75 -5.25,5.5 -2.5,1.75 -4,4 -1.5,2.25 -9.5,6.25 -8,4 -18.5,2.5 Q 210,290.5 202.75,285.25 195.5,280 190.5,275 q -5,-5 -10.25,-12.25 -5.25,-7.25 -7,-10.5 Q 171.5,249 169,237 q -2.5,-12 -5.5,-21 l -3,-9 -1.5,6.5 q -1.5,6.5 0,28.5 1.5,22 6.5,35 5,13 9.25,18.25 4.25,5.25 10,10.5 5.75,5.25 4.75,10.75 -1,5.5 -1.25,5.75 L 188,322.5 181,321 q -7,-1.5 -13.75,-7.25 Q 160.5,308 156,301.5 q -4.5,-6.5 -8.5,-17 -4,-10.5 -5.5,-20.5 -1.5,-10 -0.25,-36.25 l 1.25,-26.25 -3.25,0.75 q -3.25,0.75 -4.75,5.25 -1.5,4.5 -5.5,29.5 -4,25 -8,32.5 -4,7.5 -7.25,10.75 -3.25,3.25 -8.25,6.75 -5,3.5 -11,5.5 -6,2 -19,0.5 Q 63,291.5 57,288 51,284.5 43.25,274.75 35.5,265 31.75,257 L 28,249 26.5,247.75 Q 25,246.5 20.75,242.75 16.5,239 10,230.5 3.5,222 2.5,219 1.5,216 3,202.5 4.5,189 9.5,181 14.5,173 21.75,167.25 29,161.5 37,158.5 q 8,-3 36.5,-3.5 28.5,-0.5 30.75,-2.75 l 2.25,-2.25 -1.25,-1.25 Q 104,147.5 74,145 44,142.5 30.5,136.5 17,130.5 11.75,125.25 6.5,120 4.5,116.5 2.5,113 2,103.5 1.5,94 5.25,84.75 9,75.5 21.5,65 34,54.5 35,54.25 L 36,54 37.5,51.25 Q 39,48.5 46.25,39.25 53.5,30 57.25,25.75 61,21.5 68,16 75,10.5 83,8 91,5.5 97,6 q 6,0.5 14,4 8,3.5 14.25,9.25 6.25,5.75 9.25,12.25 3,6.5 4.5,15.5 1.5,9 4.25,34 2.75,25 3.75,25 h 1 l 0.75,-2.5 Q 149.5,101 151.5,72 153.5,43 155,39.5 156.5,36 162.25,27.75 168,19.5 176,13.5 q 8,-6 15,-9 7,-3 15.5,-3 z"
         style="fill:#ffffff;stroke:none" />
    </g>
  </g>
</svg>
