<?xml version="1.0" encoding="UTF-8" standalone="no"?>
<svg
   xmlns:dc="http://purl.org/dc/elements/1.1/"
   xmlns:cc="http://creativecommons.org/ns#"
   xmlns:rdf="http://www.w3.org/1999/02/22-rdf-syntax-ns#"
   xmlns:svg="http://www.w3.org/2000/svg"
   xmlns="http://www.w3.org/2000/svg"
   xmlns:xlink="http://www.w3.org/1999/xlink"
   xmlns:sodipodi="http://sodipodi.sourceforge.net/DTD/sodipodi-0.dtd"
   xmlns:inkscape="http://www.inkscape.org/namespaces/inkscape"
   width="79.0263mm"
   height="97.0189mm"
   viewBox="0 0 448 550"
   version="1.1"
   id="svg3"
   sodipodi:docname="icon-tmr-normal.svg"
   inkscape:version="1.0.1 (3bc2e813f5, 2020-09-07)">
  <metadata
     id="metadata9">
    <rdf:RDF>
      <cc:Work
         rdf:about="">
        <dc:format>image/svg+xml</dc:format>
        <dc:type
           rdf:resource="http://purl.org/dc/dcmitype/StillImage" />
        <dc:title />
      </cc:Work>
    </rdf:RDF>
  </metadata>
  <defs
     id="defs7">
    <linearGradient
       inkscape:collect="always"
       id="linearGradient61">
      <stop
         style="stop-color:#ffe6d5;stop-opacity:1;"
         offset="0"
         id="stop57" />
      <stop
         style="stop-color:#ffe6d5;stop-opacity:0;"
         offset="1"
         id="stop59" />
    </linearGradient>
    <linearGradient
       inkscape:collect="always"
       xlink:href="#linearGradient61"
       id="linearGradient55"
       x1="271.68201"
       y1="236.89392"
       x2="337.75156"
       y2="44.167706"
       gradientUnits="userSpaceOnUse" />
  </defs>
  <sodipodi:namedview
     pagecolor="#ffffff"
     bordercolor="#666666"
     borderopacity="1"
     objecttolerance="10"
     gridtolerance="10"
     guidetolerance="10"
     inkscape:pageopacity="0"
     inkscape:pageshadow="2"
     inkscape:window-width="2916"
     inkscape:window-height="1413"
     id="namedview5"
     showgrid="false"
     inkscape:zoom="2.748949"
     inkscape:cx="131.51605"
     inkscape:cy="183.3428"
     inkscape:window-x="0"
     inkscape:window-y="0"
     inkscape:window-maximized="0"
     inkscape:current-layer="svg3"
     inkscape:document-rotation="0"
     inkscape:snap-text-baseline="true" />
  <path
     id="Sélection #2"
     fill="none"
     stroke="black"
     stroke-width="1"
     d="M 224.29,2.07            C 230.26,1.46 235.03,7.81 238.56,12.00              244.34,18.85 249.09,26.45 251.91,35.00              251.91,35.00 257.02,55.00 257.02,55.00              261.37,66.89 271.42,67.09 280.91,72.67              285.32,75.26 292.35,82.81 295.42,87.00              297.89,90.38 300.78,94.87 301.62,99.00              302.92,105.35 300.26,116.44 309.19,124.62              316.25,131.10 326.06,130.87 330.99,133.45              334.24,135.15 337.52,139.10 339.78,142.00              349.65,154.70 344.83,168.26 356.09,178.70              361.87,184.06 368.45,185.28 375.00,189.33              383.03,194.29 393.61,209.31 394.33,219.00              394.33,219.00 394.33,225.00 394.33,225.00              395.57,232.19 401.80,238.60 408.17,241.73              411.44,243.34 414.05,242.86 419.00,245.96              424.40,249.35 431.42,256.41 436.00,261.00              438.52,263.53 445.04,269.67 445.79,273.00              446.63,276.71 439.45,284.84 437.12,288.00              433.83,292.45 431.56,295.82 427.00,299.12              415.87,307.15 401.26,311.35 395.36,325.00              393.22,329.97 393.99,335.88 392.36,341.00              390.97,345.34 382.98,358.55 379.79,361.90              373.47,368.54 360.70,371.18 355.64,378.02              354.15,380.02 348.89,391.56 348.21,394.00              346.05,401.66 346.62,404.54 341.37,412.00              338.28,416.39 332.57,422.89 328.00,425.65              322.39,429.05 314.31,431.57 310.14,436.05              301.45,445.41 304.57,457.90 295.62,470.00              290.71,476.64 288.14,479.15 281.00,483.34              275.08,486.82 268.99,488.86 264.18,494.04              256.92,501.87 256.71,509.68 253.64,519.00              250.27,529.24 245.98,533.78 238.42,541.08              236.15,543.28 232.91,546.53 230.00,547.74              223.47,550.48 217.26,542.11 213.00,537.96              207.38,532.50 203.56,527.52 201.06,520.00              197.19,508.32 198.13,495.82 185.96,488.53              185.96,488.53 176.00,483.61 176.00,483.61              167.33,478.07 165.50,474.66 159.49,467.00              157.45,464.39 155.01,462.03 153.57,459.00              150.80,453.18 151.57,438.39 146.43,432.18              141.35,426.05 133.61,425.57 127.00,422.62              123.13,420.90 117.36,415.89 114.52,412.72              109.44,407.04 105.58,396.52 103.94,389.09              102.85,384.18 103.03,379.57 100.01,375.17              94.87,367.68 88.41,367.45 81.00,364.22              76.87,362.41 71.25,358.24 68.17,354.96              65.38,351.98 57.67,339.85 56.61,336.00              54.90,329.80 55.94,324.30 51.03,317.04              45.69,309.14 36.91,308.29 29.00,304.69              20.87,300.98 14.28,294.78 8.59,288.00              6.19,285.14 2.39,280.83 1.96,277.00              1.33,271.28 8.31,263.78 12.04,260.01              15.00,257.02 23.52,249.47 27.00,247.55              27.00,247.55 41.91,241.01 41.91,241.01              46.80,237.73 49.84,232.21 52.23,227.00              57.19,216.17 56.48,206.15 66.21,196.43              81.64,180.99 87.66,187.74 98.52,174.00              106.46,163.95 105.55,149.42 113.26,140.00              117.05,135.36 121.80,130.07 127.00,127.09              133.19,123.56 142.47,120.83 146.42,114.98              148.58,111.78 148.66,107.67 149.50,104.00              150.88,98.00 153.25,89.70 157.21,85.00              161.99,79.33 167.44,74.76 174.00,71.32              181.12,67.58 184.74,68.57 190.87,61.96              198.82,53.40 197.11,44.24 199.90,35.00              203.26,23.86 208.18,18.22 215.91,10.00              218.93,6.80 220.45,4.41 224.29,2.07 Z            M 226.91,10.94            C 220.81,11.44 215.47,19.16 212.22,24.00              206.14,33.05 207.99,36.79 206.20,45.72              204.48,54.35 199.83,64.66 192.96,70.33              184.10,77.65 170.65,79.54 163.56,89.00              157.00,97.75 159.57,111.96 150.87,120.90              141.05,130.99 127.42,131.03 118.60,144.00              114.60,149.88 112.42,159.05 110.75,166.00              109.67,170.49 110.38,172.92 107.43,177.00              100.21,186.98 79.21,191.01 69.52,201.32              59.99,211.45 64.06,222.56 56.32,234.00              52.02,240.35 45.70,245.94 39.00,249.65              31.39,253.87 28.33,252.08 19.09,262.00              15.97,265.36 9.89,272.22 10.54,277.00              11.07,280.97 14.45,284.00 17.00,286.87              28.00,299.21 48.66,304.33 55.61,312.17              64.27,321.94 60.71,333.65 70.67,346.71              81.18,360.50 90.57,353.14 101.90,365.04              115.88,379.73 108.85,392.28 118.79,406.00              127.85,418.51 138.62,416.52 149.00,424.94              163.33,436.56 155.37,448.47 162.64,460.96              169.99,473.57 178.58,475.21 189.00,483.51              195.30,488.53 202.82,499.57 204.93,507.42              208.10,519.21 210.06,525.39 218.30,535.00              220.65,537.74 224.92,542.90 229.00,541.60              231.74,540.73 235.69,536.22 237.56,534.00              240.67,530.31 244.83,524.56 246.39,520.00              248.66,513.39 247.47,507.72 252.38,498.00              254.91,492.98 261.18,485.89 266.00,483.08              266.00,483.08 272.00,480.45 272.00,480.45              275.14,478.90 283.07,473.49 285.33,470.90              287.84,468.02 293.17,460.50 294.39,457.00              297.14,449.12 295.02,443.16 302.47,434.00              311.01,423.49 322.93,424.53 333.15,410.83              333.15,410.83 340.30,398.00 340.30,398.00              342.70,390.84 338.70,394.41 345.22,382.00              346.70,379.17 347.07,377.78 349.34,375.28              360.83,362.66 372.84,361.92 380.03,351.83              386.05,343.39 385.19,336.71 387.38,328.00              388.03,325.42 394.64,313.18 396.39,311.02              401.42,304.77 406.74,303.64 413.00,299.79              422.60,293.90 421.70,293.99 429.13,286.17              431.54,283.63 436.98,278.72 437.18,275.09              437.31,272.65 430.71,264.99 428.90,263.00              425.04,258.77 420.15,254.57 415.00,251.99              405.82,247.39 401.37,248.29 393.82,238.99              392.50,237.36 390.94,235.40 390.19,233.42              390.19,233.42 389.08,227.99 389.08,227.99              386.90,218.36 385.84,207.76 378.74,200.18              372.17,193.16 367.28,193.64 361.00,190.25              355.60,187.34 351.09,182.95 347.47,178.04              341.39,169.81 345.48,156.04 334.57,145.32              323.39,134.33 310.36,136.14 301.26,125.91              295.48,119.41 296.57,112.75 295.56,105.00              294.67,98.09 292.38,91.59 287.48,86.46              277.02,75.51 262.45,74.30 255.37,66.79              245.54,56.36 248.32,49.35 246.38,39.00              244.52,29.06 240.94,23.66 233.87,16.58              231.16,13.86 230.44,12.52 226.91,10.94 Z            M 225.96,18.87            C 231.22,18.95 233.36,23.87 235.85,28.00              238.63,32.62 240.96,36.66 242.06,42.00              243.75,50.15 241.80,52.04 245.45,61.00              249.04,69.78 255.61,75.19 264.00,79.30              271.54,82.99 276.30,82.85 282.37,90.29              292.20,102.34 286.36,119.45 297.39,131.58              308.66,143.97 320.01,138.72 330.79,151.01              338.62,159.93 337.01,172.99 342.12,180.91              344.41,184.46 352.31,192.20 356.00,194.37              362.99,198.48 370.64,200.00 376.36,207.17              382.24,214.54 381.53,224.52 382.43,228.00              383.11,230.66 389.02,241.04 390.90,243.42              402.87,258.65 410.19,249.85 424.41,264.72              427.15,267.58 429.60,269.85 430.26,274.00              431.17,279.73 423.20,287.03 418.99,290.24              404.95,300.92 391.03,300.66 383.36,319.00              380.37,326.15 383.78,334.62 379.36,341.72              375.74,347.52 367.82,355.25 362.00,358.79              355.23,362.91 347.47,366.28 342.75,373.00              334.27,385.08 336.87,394.43 329.75,404.99              321.05,417.89 307.78,418.61 300.30,427.04              297.42,430.29 291.17,442.18 289.93,446.41              287.48,454.84 288.86,456.36 282.25,464.83              276.82,471.80 261.42,478.10 254.19,484.67              249.47,488.96 245.95,499.75 244.63,506.00              243.92,509.36 243.68,512.78 242.39,516.00              241.39,518.49 239.82,520.78 238.33,523.00              236.29,526.05 232.69,531.88 228.96,532.77              224.18,533.91 218.84,527.52 216.55,524.00              215.08,521.75 210.07,511.47 209.37,509.01              207.50,502.42 206.83,494.63 202.58,489.00              194.87,478.77 178.21,471.34 173.09,463.96              173.09,463.96 167.64,455.00 167.64,455.00              165.03,448.87 164.86,433.60 155.89,424.04              143.53,410.85 133.32,417.00 123.10,402.99              116.61,394.07 118.54,378.63 110.75,368.00              105.66,361.06 97.68,355.65 90.00,351.81              85.24,349.43 80.26,348.95 76.56,344.70              73.65,341.34 72.57,336.07 70.89,332.00              66.79,322.05 62.74,310.89 53.96,304.00              41.18,293.98 31.67,297.29 22.51,284.00              21.09,281.94 18.64,278.52 18.57,276.00              18.46,271.98 25.79,262.50 29.10,260.28              29.10,260.28 38.00,256.13 38.00,256.13              50.03,250.17 58.83,243.58 64.42,231.00              68.74,221.27 68.35,211.99 77.18,203.29              86.46,194.16 100.46,193.06 109.10,182.74              117.93,172.19 116.35,155.99 125.46,145.09              131.87,137.41 145.06,135.73 152.90,127.90              163.71,117.09 161.44,100.66 168.47,92.17              177.70,81.03 189.41,83.38 198.91,73.56              201.89,70.48 204.95,66.03 206.44,62.00              208.28,57.04 208.18,51.25 209.19,46.00              209.19,46.00 212.07,37.00 212.07,37.00              212.07,37.00 213.87,30.13 213.87,30.13              215.59,26.25 222.14,20.52 225.96,18.87 Z            M 326.00,326.00            C 325.12,315.59 323.11,315.83 316.13,309.25              316.13,309.25 310.74,303.53 310.74,303.53              308.13,301.41 303.84,300.51 302.02,297.62              300.83,295.72 301.11,293.16 300.74,291.00              300.74,291.00 299.13,285.00 299.13,285.00              299.13,285.00 299.13,272.00 299.13,272.00              299.06,260.21 303.09,262.67 306.18,250.00              306.80,247.45 308.50,243.86 307.39,241.31              306.32,238.88 303.95,239.28 300.68,236.14              298.04,233.59 297.45,231.55 295.51,229.01              293.70,226.66 292.22,225.59 290.26,223.59              286.87,220.15 286.35,218.71 282.00,215.22              270.08,205.67 245.38,195.02 230.00,194.90              230.00,194.90 222.00,194.90 222.00,194.90              222.00,194.90 211.00,194.90 211.00,194.90              211.00,194.90 202.00,197.58 202.00,197.58              182.95,203.67 174.42,209.43 160.23,223.37              152.15,231.33 153.06,233.67 149.32,237.78              146.22,241.18 143.20,241.22 142.59,245.05              141.95,246.88 142.50,249.03 142.59,250.83              144.89,262.38 146.73,258.27 149.26,265.00              150.14,267.32 150.00,270.52 149.85,273.00              149.85,273.00 149.85,287.00 149.85,287.00              149.85,287.00 147.30,294.00 147.30,294.00              146.79,296.41 147.32,299.63 145.98,301.69              144.36,304.18 141.63,303.85 138.21,306.72              133.04,311.04 133.74,314.78 125.00,320.00              126.78,325.50 129.63,325.91 135.00,326.00              135.00,326.00 173.00,326.00 173.00,326.00              173.00,326.00 326.00,326.00 326.00,326.00 Z            M 192.00,206.00            C 205.29,197.25 217.02,199.00 232.00,199.00              229.15,204.26 228.23,204.27 223.00,207.00              221.51,204.36 220.41,202.96 217.02,203.20              213.93,203.42 212.25,205.47 213.74,207.28              214.87,208.65 218.97,209.17 221.00,210.00              218.72,211.85 215.84,215.15 213.00,215.58              209.01,216.18 201.79,208.87 197.00,217.00              206.40,217.76 210.67,225.68 217.32,230.67              219.96,232.65 225.75,234.70 229.00,236.00              229.00,236.00 234.00,234.00 234.00,234.00              234.23,242.91 237.28,244.88 246.00,245.00              246.00,245.00 279.00,245.00 279.00,245.00              279.00,245.00 291.00,244.04 291.00,244.04              291.00,244.04 304.00,244.04 304.00,244.04              299.87,249.53 296.37,245.55 297.00,253.00              297.00,253.00 293.00,253.00 293.00,253.00              292.72,251.32 292.73,249.92 291.40,248.60              289.17,246.38 280.83,246.38 278.60,248.60              277.27,249.92 277.28,251.32 277.00,253.00              277.00,253.00 274.00,253.00 274.00,253.00              273.72,251.32 273.73,249.92 272.40,248.60              270.17,246.38 261.83,246.38 259.60,248.60              258.27,249.92 258.28,251.32 258.00,253.00              258.00,253.00 255.00,253.00 255.00,253.00              254.72,251.32 254.73,249.92 253.40,248.60              250.97,246.18 239.69,246.98 236.00,247.00              234.04,247.01 230.98,246.89 229.32,248.02              226.53,249.93 226.09,255.81 236.00,256.00              236.00,256.00 251.00,256.00 251.00,256.00              251.00,256.00 251.00,295.00 251.00,295.00              251.00,295.00 231.91,295.00 231.91,295.00              233.09,290.50 234.08,272.91 231.91,269.23              229.67,265.70 221.54,264.65 218.60,267.60              216.96,269.23 217.04,271.86 217.00,274.00              216.93,277.96 217.45,291.59 214.40,293.99              211.85,295.98 204.13,294.41 201.00,293.99              201.00,293.99 201.00,273.00 201.00,273.00              201.00,268.43 200.45,264.16 202.86,260.06              206.58,253.73 212.00,256.81 217.98,255.85              220.82,255.40 223.84,253.48 223.04,250.14              222.27,246.99 218.55,247.05 216.00,247.00              216.00,247.00 205.00,247.00 205.00,247.00              197.61,247.05 195.18,248.11 197.00,256.00              197.00,256.00 191.00,256.00 191.00,256.00              191.72,253.94 192.88,251.45 191.72,249.31              190.02,246.17 180.88,246.28 178.60,248.60              176.57,250.67 177.44,253.56 178.00,256.00              178.00,256.00 166.00,256.00 166.00,256.00              170.00,266.63 169.13,271.85 169.00,283.00              168.91,290.42 169.28,294.71 161.00,295.00              161.00,295.00 161.00,267.00 161.00,267.00              161.00,264.52 161.22,260.41 159.83,258.31              158.21,255.89 155.57,256.09 153.00,256.00              155.73,248.20 153.53,247.10 146.00,247.00              147.54,243.00 149.92,242.31 154.00,242.00              155.45,238.43 155.62,237.91 159.00,236.00              156.24,227.33 164.83,227.66 170.00,224.00              169.72,223.46 169.03,223.18 169.13,221.78              169.36,218.58 175.95,213.26 179.00,212.83              180.91,212.56 182.31,213.34 184.00,214.00              184.00,214.00 185.00,213.00 185.00,213.00              185.00,213.00 184.00,209.00 184.00,209.00              189.64,210.58 190.30,213.42 195.00,208.00              195.00,208.00 192.00,206.00 192.00,206.00 Z            M 232.00,207.00            C 236.28,199.83 246.20,206.31 252.00,208.00              250.95,209.15 250.57,210.05 248.89,210.61              246.43,211.43 234.62,208.22 232.00,207.00 Z            M 229.00,212.00            C 234.28,213.73 237.93,213.99 242.00,218.00              236.67,219.03 230.08,218.12 229.00,212.00 Z            M 242.00,233.12            C 243.66,233.20 246.35,233.69 247.91,233.12              251.20,232.27 253.65,227.69 255.51,225.00              258.97,220.01 261.10,217.01 267.00,215.00              262.08,221.87 254.70,226.19 254.00,235.00              261.72,233.75 262.38,229.25 267.44,224.33              270.57,221.28 274.13,219.86 278.00,218.00              278.00,218.00 285.51,224.32 285.51,224.32              285.51,224.32 289.12,229.54 289.12,229.54              290.59,231.44 294.77,234.72 292.92,237.42              291.53,239.45 286.25,239.01 284.00,239.00              284.00,239.00 255.00,239.00 255.00,239.00              249.27,238.93 247.78,237.72 242.00,239.00              242.00,239.00 242.00,233.12 242.00,233.12 Z            M 214.00,222.00            C 215.32,220.31 216.65,218.22 219.02,217.91              221.39,217.61 231.54,223.83 233.00,226.00              233.00,226.00 224.00,223.26 224.00,223.26              224.00,223.26 214.00,222.00 214.00,222.00 Z            M 162.01,246.77            C 153.03,248.36 158.44,255.63 163.02,255.71              165.49,255.76 174.53,252.12 171.93,248.56              170.50,246.60 164.34,246.82 162.01,246.77 Z            M 148.00,249.00            C 148.00,249.00 150.00,249.00 150.00,249.00              150.00,249.00 151.00,250.00 151.00,250.00              151.00,250.00 151.00,252.00 151.00,252.00              151.00,252.00 148.00,253.00 148.00,253.00              148.00,253.00 148.00,249.00 148.00,249.00 Z            M 161.00,249.00            C 161.00,249.00 168.00,250.00 168.00,250.00              168.00,250.00 161.00,252.00 161.00,252.00              161.00,252.00 161.00,249.00 161.00,249.00 Z            M 181.00,249.00            C 184.98,249.01 186.68,248.55 190.00,251.00              185.74,252.96 182.85,254.27 181.00,249.00 Z            M 200.00,249.00            C 200.00,249.00 220.00,250.00 220.00,250.00              218.81,251.18 218.62,251.72 216.89,252.32              214.71,253.26 203.30,253.64 201.59,252.32              200.42,251.27 200.41,250.26 200.00,249.00 Z            M 230.00,250.00            C 230.00,250.00 250.00,249.00 250.00,249.00              249.57,250.23 249.62,251.05 248.41,252.19              246.46,253.46 235.44,253.32 233.11,252.19              231.38,251.72 231.19,251.18 230.00,250.00 Z            M 261.00,249.00            C 261.00,249.00 269.00,249.00 269.00,249.00              267.19,254.15 262.81,254.15 261.00,249.00 Z            M 280.00,249.00            C 280.00,249.00 289.00,249.00 289.00,249.00              286.43,253.56 281.98,254.48 280.00,249.00 Z            M 298.00,253.00            C 300.87,253.55 300.87,253.29 302.00,256.00              302.00,256.00 298.00,253.00 298.00,253.00 Z            M 180.00,256.00            C 180.00,256.00 188.00,256.00 188.00,256.00              188.00,256.00 189.93,264.00 189.93,264.00              189.93,264.00 189.93,283.00 189.93,283.00              190.00,285.41 190.40,291.60 188.98,293.40              187.33,295.48 182.45,295.00 180.00,295.00              180.00,295.00 180.00,256.00 180.00,256.00 Z            M 261.00,256.00            C 261.00,256.00 269.00,257.00 269.00,257.00              269.00,257.00 269.00,294.00 269.00,294.00              269.00,294.00 261.00,294.00 261.00,294.00              261.00,294.00 261.00,256.00 261.00,256.00 Z            M 280.00,256.00            C 280.00,256.00 289.00,256.00 289.00,256.00              289.00,256.00 288.00,294.00 288.00,294.00              288.00,294.00 280.00,294.00 280.00,294.00              280.00,294.00 280.00,256.00 280.00,256.00 Z            M 255.00,257.00            C 255.00,257.00 258.40,260.22 258.40,260.22              258.40,260.22 259.00,283.00 259.00,283.00              259.00,283.00 258.40,289.69 258.40,289.69              258.40,289.69 254.00,292.00 254.00,292.00              254.00,292.00 255.00,257.00 255.00,257.00 Z            M 273.00,257.00            C 273.00,257.00 277.00,257.00 277.00,257.00              277.00,257.00 277.00,294.00 277.00,294.00              277.00,294.00 273.00,294.00 273.00,294.00              273.00,294.00 273.00,257.00 273.00,257.00 Z            M 292.00,257.00            C 292.00,257.00 296.00,257.00 296.00,257.00              296.00,257.00 296.00,293.00 296.00,293.00              291.86,291.55 292.08,290.15 292.00,286.00              292.00,286.00 292.00,257.00 292.00,257.00 Z            M 171.00,258.00            C 171.00,258.00 178.00,258.00 178.00,258.00              178.00,258.00 176.10,266.00 176.10,266.00              176.10,266.00 176.10,295.00 176.10,295.00              176.10,295.00 173.00,295.00 173.00,295.00              173.00,295.00 173.00,269.00 173.00,269.00              173.00,269.00 171.00,258.00 171.00,258.00 Z            M 192.00,258.00            C 192.00,258.00 199.00,258.00 199.00,258.00              199.00,258.00 197.06,266.00 197.06,266.00              197.06,266.00 197.06,294.00 197.06,294.00              197.06,294.00 194.00,294.00 194.00,294.00              194.00,294.00 194.00,269.00 194.00,269.00              194.00,269.00 192.00,258.00 192.00,258.00 Z            M 153.00,259.00            C 153.00,259.00 156.00,259.00 156.00,259.00              157.53,267.56 157.01,276.33 157.00,285.00              156.99,289.27 157.40,291.29 155.00,295.00              155.00,295.00 153.00,259.00 153.00,259.00 Z            M 221.06,271.00            C 221.06,271.00 230.00,271.00 230.00,271.00              230.00,273.39 230.28,280.89 229.40,282.69              228.13,285.28 222.77,285.83 221.06,283.40              220.25,282.14 221.00,273.22 221.06,271.00 Z            M 151.00,301.00            C 151.00,301.00 162.00,303.00 162.00,303.00              162.00,303.00 208.00,303.00 208.00,303.00              208.00,303.00 269.00,303.00 269.00,303.00              269.00,303.00 299.00,303.00 299.00,303.00              297.62,306.32 296.42,305.93 293.00,306.00              293.00,306.00 263.00,306.00 263.00,306.00              263.00,306.00 149.00,306.00 149.00,306.00              149.00,306.00 151.00,301.00 151.00,301.00 Z            M 146.00,309.00            C 146.00,309.00 252.00,309.00 252.00,309.00              265.03,309.00 297.08,309.96 308.00,308.00              308.00,308.00 309.00,312.00 309.00,312.00              309.00,312.00 146.00,312.00 146.00,312.00              146.00,312.00 146.00,309.00 146.00,309.00 Z            M 143.00,315.00            C 143.00,315.00 316.00,315.00 316.00,315.00              316.00,315.00 318.00,321.00 318.00,321.00              318.00,321.00 140.00,321.00 140.00,321.00              140.00,321.00 143.00,315.00 143.00,315.00 Z"
     style="fill:#ffe6d5;stroke:none" />
  <ellipse
     style="fill:url(#linearGradient55);stroke:none;stroke-width:2.23898;fill-opacity:1"
     id="path37"
     cx="315.2002"
     cy="152.00063"
     rx="135.68269"
     ry="70.234856"
     transform="matrix(0.85310441,0.52174023,-0.47857008,0.87804936,0,0)" />
  <ellipse
     style="fill:#9955ff;stroke-width:1.61008"
     id="path19"
     ry="32.983631"
     rx="31.919643"
     cy="377.30655"
     cx="226.98415" />
</svg>
