<?xml version="1.0" encoding="utf-8"?>
<!-- Generator: Adobe Illustrator 24.1.2, SVG Export Plug-In . SVG Version: 6.00 Build 0)  -->
<svg version="1.1" xmlns="http://www.w3.org/2000/svg" xmlns:xlink="http://www.w3.org/1999/xlink" x="0px" y="0px"
	 viewBox="0 0 512.07 512" style="enable-background:new 0 0 512.07 512;" xml:space="preserve">
<style type="text/css">
	.st0{display:none;}
	.st1{display:inline;}
	.st2{fill:#DCDCDC;stroke:#000000;stroke-linecap:round;stroke-linejoin:round;stroke-miterlimit:10;}
</style>
<g id="icon_x5F_sidebar_x5F_chat" class="st0">
	<g class="st1">
		<g>
			<g>
				<path class="st2" d="M180,480.93c14-15.25,27.95-29.3,40.56-44.47c14.18-17.05,23.54-36.69,26.34-59.05
					c1.66-13.29-0.67-25.98-5.04-38.48c-1.8-5.15-5.7-5.52-10.23-5.78c-18.92-1.08-37.99-1.21-56.71-3.83
					c-40-5.59-76.63-19.99-107.18-47.16c-36.18-32.19-46.99-77.73-26.93-122.29c15.37-34.14,40.96-59.17,71.93-78.94
					c47.68-30.44,100.22-45.65,156.55-49.23c41.61-2.64,81.81,2.91,120.81,17.42c26.15,9.73,48.71,24.87,66.74,46.2
					c29.1,34.42,32.23,80.62,8.86,120.58c-23.61,40.37-58.93,67.06-100.58,86.28c-10.17,4.7-20.81,8.38-31.3,12.36
					c-4.3,1.63-6.47,4.24-6.8,9.02c-2.04,29.43-14.23,54.78-32.77,77.05c-29.18,35.06-66,59.86-107.6,77.9
					C184.67,479.39,182.56,480.01,180,480.93z"/>
			</g>
		</g>
	</g>
</g>
<g id="icon_x5F_sidebar_x5F_rolltable" class="st0">
	<g class="st1">
		<g>
			<g>
				<path class="st2" d="M255.1,55.46c6.7,2.37,12.64,3.53,17.63,6.38c47.83,27.36,95.49,55,143.19,82.58
					c1.76,1.02,3.5,2.14,5.06,3.43c4.67,3.85,4.73,8.08-0.19,11.57c-4.48,3.18-9.3,5.9-14.07,8.66
					c-43.81,25.34-87.68,50.58-131.43,76.01c-12.79,7.43-25.19,8.02-38.18,0.44c-47.26-27.53-94.66-54.81-141.95-82.29
					c-11.67-6.78-11.5-10.86,0.17-17.61c45.93-26.57,91.78-53.27,137.82-79.64C240.07,61.03,247.84,58.57,255.1,55.46z
					 M256.6,177.07c8.18-2.74,15.83-4.76,23.02-7.85c6.75-2.9,11.12-8.42,11.32-16.12c0.2-7.86-4.55-13.18-10.98-16.36
					c-16.34-8.07-32.92-8.99-48.94,0.93c-13.18,8.17-13.33,23.46,0.28,30.9C238.94,172.75,248.01,174.3,256.6,177.07z
					 M139.44,174.49c10.51,0.36,20.31-1.78,28.43-8.85c7.92-6.9,8.07-17.96,0.6-25.36c-13.09-12.97-44.39-13.07-57.62-0.19
					c-8.94,8.7-8.15,19.73,2.02,27.08C120.8,172.91,129.82,174.83,139.44,174.49z M371.05,174.5c13.13,0.01,20.45-1.93,27.72-7.04
					c11.22-7.88,11.04-21.8-0.38-29.44c-14.58-9.76-37.05-9.78-51.54-0.06c-11.6,7.78-11.75,21.98-0.23,29.88
					C354.29,173.1,362.88,175.12,371.05,174.5z M257.2,200.1c-10.74-0.21-20.43,1.8-28.51,8.53c-9.63,8.02-9.2,19.91,0.7,27.6
					c13.81,10.71,40.59,10.4,54.05-0.63c9.82-8.05,9.29-21.21-1.19-28.54C274.59,201.7,265.94,199.86,257.2,200.1z M255.77,105.95
					c10.86-0.08,20.49-2.25,28.35-9.28c8.51-7.61,8.52-17.75,0.3-25.54c-13.52-12.81-43.78-12.59-57.1,0.4
					c-7.45,7.27-7.44,17.61,0.19,24.78C235.62,103.93,245.78,105.61,255.77,105.95z"/>
			</g>
			<g>
				<path class="st2" d="M73.56,270.29c-0.01-23.47-0.01-46.95,0-70.42c0-2.24-0.04-4.5,0.09-6.73c0.55-9.08,4.45-11.43,12.3-7.03
					c14.77,8.29,29.43,16.78,44.1,25.25c31.29,18.06,62.49,36.27,93.87,54.16c13.59,7.75,19.9,19.03,19.84,34.61
					c-0.18,47.56-0.07,95.12-0.07,142.68c0,1.02,0,2.04-0.03,3.06c-0.37,10.88-4.46,13.26-13.91,7.81
					c-46.51-26.8-93.02-53.6-139.43-80.56c-11.08-6.44-16.76-16.38-16.77-29.35C73.56,319.28,73.57,294.79,73.56,270.29z
					 M238.89,301.12c-1.04-15.22-9.94-29.1-25.87-37.67c-12.78-6.88-25.53,0.97-25.17,15.07c0.45,18,8.76,32.2,24.15,41.47
					C226.27,328.58,238.87,320.93,238.89,301.12z M238.88,424.25c-0.03-14.84-11.77-33.85-24.91-40.35
					c-13.82-6.83-27.24,1.36-26.24,16.4c1.14,17.22,9.44,30.68,24.03,39.63C226.22,448.8,238.92,441.17,238.88,424.25z
					 M78.36,336.56c-0.07,16.35,12.18,35.46,26.64,41.57c13.6,5.74,24.53-1.52,24.14-16.28c-0.47-17.75-9.44-30.82-23.63-40.54
					c-5.85-4.01-12.62-5.05-19.12-1.43C80,323.43,78.2,329.62,78.36,336.56z M78.16,216.83c1.81,17.43,9.33,31.66,25.03,40.21
					c13.84,7.55,26.4-0.25,25.96-15.46c-0.51-17.56-9.43-30.51-23.26-40.31c-5.78-4.1-12.64-5.27-19.16-1.76
					C80.09,203.09,78.12,209.49,78.16,216.83z"/>
			</g>
			<g>
				<path class="st2" d="M438.48,269.36c0,23.88-0.09,47.77,0.04,71.65c0.08,14.95-5.66,26.05-19.04,33.69
					c-45.56,26.01-90.87,52.43-136.3,78.66c-1.93,1.11-4.02,2.03-6.14,2.72c-4.13,1.36-6.9-0.45-7.9-4.42
					c-0.69-2.73-0.78-5.65-0.78-8.49c-0.04-48.18,0.04-96.35-0.07-144.53c-0.03-14.73,6.49-25.32,19.04-32.56
					c44.18-25.53,88.36-51.07,132.54-76.6c1.24-0.71,2.5-1.39,3.75-2.08c11.32-6.2,14.8-4.14,14.84,9.08
					C438.53,220.78,438.48,245.07,438.48,269.36z M273.14,421.22c0.05,19.9,12.39,27.34,26.79,18.9
					c14.92-8.75,23.03-22.32,24.24-39.46c1.09-15.44-12.22-24.3-25.6-16.81C282.99,392.57,274.73,406.59,273.14,421.22z
					 M273.19,300.58c-0.25,19.57,10.43,26.62,25.43,19.95c14.02-6.23,26.59-26.94,25.75-42.41c-0.77-14.26-13.04-21.55-25.73-14.51
					C283.1,272.22,275.12,286.19,273.19,300.58z M378.55,373.28c0.05-21.14-11.77-28.95-25.77-20.61
					c-15.26,9.09-24.61,22.51-24.5,41.07c0.1,15.52,11.79,22.77,25.39,15.25C369.25,400.38,377.63,386.78,378.55,373.28z
					 M433.65,340.47c0.1-20.18-12.26-27.99-26.62-19.24c-14.51,8.85-23.33,22.09-24,39.66c-0.62,16.14,11.34,23.92,25.59,16.37
					C424.57,368.82,431.83,354.54,433.65,340.47z M378.56,249.19c0.11-16.72-10.87-24.46-24.88-17.53
					c-15.12,7.48-26.59,27.54-25.35,44.37c0.88,11.94,10.06,18.07,21.51,14.37C365.3,285.38,378.44,266.54,378.56,249.19z
					 M433.67,217.08c0.11-15.23-9.9-22.9-23.27-17.86c-16.2,6.12-29.92,29.74-27.12,46.71c1.73,10.53,10.4,15.95,20.67,12.93
					C419.6,254.24,433.54,234.65,433.67,217.08z"/>
			</g>
		</g>
	</g>
</g>
<g id="icon_x5F_sidebar_x5F_actor" class="st0">
	<g class="st1">
		<g>
			<g>
				<path class="st2" d="M194.72,240.85c-18.71-10.84-37.43-21.65-56.1-32.56c-4.38-2.56-3.72-6.78-3.09-10.93
					c4.53-29.87,16.49-56.68,33.54-81.37c22.53-32.64,51.22-59.09,83.04-82.38c1.94-1.42,4.08-2.55,6.44-4.01
					c2.95,1.91,5.76,3.52,8.35,5.44c34.2,25.36,64.61,54.39,87.21,90.87c13.92,22.47,23.34,46.63,27.11,72.93
					c0.74,5.19-0.6,8.42-5.19,11.05c-17.12,9.83-34.08,19.93-51.1,29.92c-0.35-0.42-0.7-0.84-1.06-1.26
					c7.2-7.59,13.9-15.74,21.74-22.61c6.97-6.11,8.08-12.73,6.54-21.27c-5.03-27.96-18.41-51.68-36.13-73.32
					c-14.99-18.3-32.86-33.43-51.91-47.27c-3.26-2.37-6.29-3.56-10-0.89c-28.94,20.8-54.74,44.63-72.73,75.88
					c-9.25,16.07-15.58,33.21-17.65,51.81c-0.5,4.49,0.65,7.78,3.76,10.99c9.23,9.52,18.23,19.25,27.32,28.9L194.72,240.85z"/>
			</g>
			<g>
				<path class="st2" d="M168.55,345.65c-12.76,3.01-23.81-2.22-35.94-5.83c-3.63,12.02-1.15,22.71,4.28,33.16
					c-0.52,0.49-1.04,0.98-1.56,1.47c-7.28-3.95-14.57-7.89-22.66-12.28c-0.94,40.71,5.85,79.96,12.76,120.22
					c-9.73,0-18.21,0-28.31,0c0-4.71-0.17-8.65,0.03-12.57c2.77-54.5,0.73-108.5-16.69-160.88c-1.7-5.12-1.02-8.86,2.98-12.56
					c15.25-14.13,30.3-28.49,45.51-42.67c1.86-1.73,4.21-2.92,7.2-4.95c12.66,31.79,36.38,51.55,65.92,65.71
					c-23.56,4.18-43.99-5.23-64.98-14.12C142.45,319.03,153.45,333.5,168.55,345.65z"/>
			</g>
			<g>
				<path class="st2" d="M378.56,342.15c-11.2,1.29-21.2,6.91-34.38,4.02c17.38-13.12,29.62-28.02,35.34-49.86
					c-22.86,11.18-44.29,22.27-69.86,17.87c29.22-14.58,53.47-34,65.19-66.51c3.09,2.11,5.44,3.31,7.29,5.04
					c15.49,14.48,30.83,29.13,46.36,43.57c3.94,3.66,4.92,7.36,3.13,12.52c-12.8,37.05-17.33,75.43-17.57,114.4
					c-0.11,17.53,0.54,35.07,0.78,52.6c0.02,1.77-0.35,3.55-0.66,6.4c-8.97,0-17.6,0-27.36,0c6.32-39.97,13.54-79.18,12.38-120.61
					c-8.84,4.81-16.27,8.85-23.71,12.89c-0.49-0.48-0.97-0.96-1.46-1.44C378.33,363.41,381.6,353.68,378.56,342.15z"/>
			</g>
			<g>
				<path class="st2" d="M207.81,179.57c3.71-5.83,8.78-8.93,15.2-8.75c5.91,0.17,10.65,3.14,13.82,8.68
					c-3.37,5.93-8.7,7.74-14.45,7.81C216.53,187.39,211.48,185.04,207.81,179.57z"/>
			</g>
			<g>
				<path class="st2" d="M277.66,179.72c3.23-6.12,7.85-9.04,14-9c6.15,0.04,10.67,3.08,13.58,8.58c-2.43,6.15-7.58,7.55-12.87,7.82
					C286.5,187.42,281.29,185.46,277.66,179.72z"/>
			</g>
			<g>
				<path class="st2" d="M194.81,240.77c0,0-0.08,0.08-0.08,0.08C194.72,240.85,194.81,240.77,194.81,240.77z"/>
			</g>
		</g>
	</g>
</g>
<g id="icon_x5F_sidebar_x5F_scene">
	<g>
		<g>
			<g>
				<path class="st2" d="M141.31,362.45c10.55-10.81,21.11-21.61,32.39-33.17c-4.23-4.4-7.78-8.52-11.78-12.13
					c-4.39-3.96-5.23-7.87-1.64-12.78c2.36-3.24,4.31-6.78,7.52-11.92c29.68,29.65,58.51,58.45,88.28,88.2
					c29.63-29.58,58.38-58.28,88.43-88.27c3.76,6.48,7.17,11.44,9.48,16.88c0.68,1.6-1.26,4.92-2.82,6.75
					c-3.78,4.43-8.04,8.45-12.61,13.15c3.87,4.06,7.01,7.46,10.26,10.75c6.02,6.1,12.2,12.04,18.09,18.27
					c1.5,1.58,2.14,3.98,2.19,6.78c-11.12-2.35-15.32-13.36-25.7-18.87c-4.53,5.37-9.27,11-14.4,17.08
					c4.03,8.46,15.77,12.55,18.84,22.89c-0.64,0.7-1.28,1.4-1.92,2.1c-2.18-1.32-4.7-2.29-6.49-4.01
					c-7.5-7.21-14.75-14.68-22.17-21.99c-1.69-1.67-3.67-3.05-6.41-5.3c-5.41,5.88-10.51,11.42-16,17.4
					c1.57,1.94,2.93,3.92,4.6,5.61c7.3,7.42,14.75,14.69,22,22.16c1.66,1.71,2.69,4.01,3.13,6.87
					c-10.84-2.35-15.01-13.32-25.2-18.68c-4.93,5.38-10.02,10.94-15.43,16.85c4.67,9.02,15.38,13.49,19.26,23.07
					c-0.54,0.67-1.09,1.34-1.63,2.01c-2.14-1.31-4.59-2.29-6.35-3.98c-7.49-7.22-14.75-14.69-22.17-21.99
					c-1.69-1.66-3.68-3.01-5.89-4.79c-3.8,3-7.23,5.71-11.03,8.71c-3.77-2.97-7.19-5.68-11.01-8.69c-2.19,1.75-4.19,3.08-5.87,4.74
					c-7.42,7.3-14.69,14.75-22.16,22c-1.73,1.67-4.02,2.76-6.91,3.23c2.31-10.77,13.12-15.02,18.63-25.24
					c-5.42-4.76-11.09-9.74-17.21-15.11c-8.81,4.1-12.9,15.32-22.79,18.83c-0.62-0.47-1.25-0.95-1.87-1.42
					c1.25-2.13,2.15-4.6,3.81-6.33c7.21-7.5,14.68-14.75,21.99-22.17c1.67-1.7,3.05-3.67,5.27-6.37
					c-5.69-5.59-11.06-10.87-16.79-16.51c-2.48,2-4.47,3.36-6.16,5.02c-7.42,7.3-14.69,14.75-22.16,22c-1.71,1.66-4,2.72-6.87,3.19
					c2.16-10.9,13.44-14.89,18.41-25.47c-5.23-4.81-10.76-9.89-16.39-15.06c-9.69,4.24-13.75,16.43-24.15,19.15
					C143.03,364.74,142.17,363.6,141.31,362.45z"/>
			</g>
			<g>
				<path class="st2" d="M441,403.48c-16.69-27.59-33.44-55.13-50.04-82.77c-42.46-70.68-84.85-141.39-127.26-212.1
					c-1.34-2.23-2.47-4.58-4.3-8.02c13.34-3.15,24.63-8.77,32.97-20.46c1.71,2.53,2.89,3.85,3.6,5.4
					c28.28,61.55,56.51,123.12,84.77,184.68c19.15,41.72,38.37,83.41,57.51,125.14c1.18,2.58,1.92,5.36,2.86,8.04L441,403.48z"/>
			</g>
			<g>
				<path class="st2" d="M217.61,82.38c2.39,3.13,3.85,4.73,4.95,6.53c4.59,7.48,8.69,15.3,13.71,22.47
					c4.35,6.21,4.12,11.18,0.16,17.73c-47.28,78.28-94.26,156.74-141.31,235.16c-6.51,10.85-13.01,21.71-19.54,32.55
					c-1.13,1.88-2.39,3.68-4.72,4.92C119.57,295.76,168.27,189.77,217.61,82.38z"/>
			</g>
			<g>
				<path class="st2" d="M477.25,255.92c-10.87-10.64-21.54-21.09-32.91-32.23c-5.58,5.75-10.68,11.01-16.24,16.75
					c1.84,2.26,3.31,4.39,5.1,6.21c7.43,7.56,15,15,22.43,22.56c2.12,2.16,4.52,4.52-0.17,8.58c-7.22-6.76-14.48-13.55-21.88-20.47
					c-6.08,5.51-11.66,10.57-17.97,16.3c7.88,8.42,14.65,15.65,21.42,22.88c-0.62,0.85-1.25,1.7-1.87,2.56
					c-2.14-1.03-4.53-1.72-6.36-3.13c-13.8-10.59-21.18-25.52-27.46-41.16c-5.78-14.38-8.33-11.03,4.45-23.75
					c7.23-7.19,14.4-14.44,21.65-21.61c1.71-1.69,3.62-3.17,5.84-5.08c1.73,1.12,3.41,1.86,4.63,3.06
					c13.32,13.21,26.59,26.48,39.81,39.79C479.85,249.34,482.22,251.73,477.25,255.92z"/>
			</g>
			<g>
				<path class="st2" d="M68.55,223.56c-12.92,10.59-22.16,23.11-34.32,32.22c-0.78-0.53-1.57-1.06-2.35-1.59
					c0.43-1.85,0.25-4.3,1.39-5.46c14.33-14.51,28.84-28.83,43.34-43.18c0.39-0.38,1.12-0.42,1.97-0.71
					c0.75,0.34,1.86,0.54,2.53,1.2c10.88,10.75,21.84,21.43,32.39,32.51c1.47,1.54,1.83,5.55,0.94,7.69
					c-4.29,10.36-8.17,21.11-14.15,30.47c-5.16,8.08-12.9,14.53-19.62,21.58c-0.65,0.69-2.18,0.54-5.2,1.2
					c3.65-11.71,15.03-15.79,20.22-26.77c-5.23-4.62-10.83-9.57-16.64-14.7c-9.41,4.67-13.78,15.49-23.35,19.4
					c-0.67-0.54-1.35-1.07-2.02-1.61c1.11-1.99,1.87-4.32,3.4-5.91c7.07-7.35,14.38-14.47,21.55-21.72c1.84-1.86,3.48-3.92,6.4-7.23
					C79.61,235.25,74.35,229.69,68.55,223.56z"/>
			</g>
			<g>
				<path class="st2" d="M256.05,428.1c7.93,7.53,16.37,15.55,24.7,23.47c-8.21,8.27-16.4,16.51-24.37,24.54
					c-8.23-7.98-16.67-16.16-25.11-24.34C239.8,443.62,248.21,435.58,256.05,428.1z"/>
			</g>
			<g>
				<path class="st2" d="M254.88,73.27c6.48-5.93,12.68-11.6,18.52-16.94C275.4,65.47,265.2,75.93,254.88,73.27z"/>
			</g>
			<g>
				<path class="st2" d="M238.87,49.47c0.54-7.99,6.12-13.62,15.88-13.57c-4.81,4.98-9.61,9.96-14.42,14.93
					C239.84,50.38,239.35,49.92,238.87,49.47z"/>
			</g>
			<g>
				<polygon class="st2" points="441.11,403.38 441.22,403.67 441,403.48 				"/>
			</g>
		</g>
	</g>
</g>
<g id="icon_x5F_sidebar_x5F_item" class="st0">
	<g class="st1">
		<g>
			<g>
				<path class="st2" d="M86.57,379.95c0-48.58,0-96.33,0-143.79c5.64-2.82,112.01-3.19,119.52-0.33c0.25,2.68,0.79,5.83,0.8,8.98
					c0.07,26.94,0.01,53.88,0.08,80.83c0.01,3.17,0.51,6.33,0.85,10.3c32.36,0,63.92,0,97.01,0c0-33.87,0-66.95,0-99.19
					c6.41-3.36,112.58-3.86,119.48-1.35c2.55,5.28,2.8,137.43-0.09,144.56C312.19,379.95,199.8,379.95,86.57,379.95z"/>
			</g>
			<g>
				<path class="st2" d="M351.95,96.52c0,37.52,0,74.24,0,111.87c-15.41,0-30.07,0-45.61,0c-0.81-5.04-1.56-9.72-2.59-16.15
					c-31.78-0.12-63.35-0.24-95.41,0.16c-1.01,5.85-1.81,10.52-2.76,16c-15.49,0-30.54,0-46.27,0c-0.48-3.17-1.18-5.7-1.19-8.24
					c-0.08-31.43-0.09-62.85-0.03-94.28c0.02-8.73,1.64-10.33,10.48-10.33c58.36-0.05,116.72-0.03,175.09,0.01
					C346.04,95.56,348.42,96.09,351.95,96.52z"/>
			</g>
			<g>
				<path class="st2" d="M132.51,208.42c-9.52,0-18.03,0-27.47,0c0-37.52,0-74.16,0-111.86c9.22,0,17.87,0,27.47,0
					C132.51,133.9,132.51,170.54,132.51,208.42z"/>
			</g>
			<g>
				<path class="st2" d="M378.57,96.39c10.31,0,18.82,0,29.12,0c0.27,37.43,0.14,74.07,0.08,111.82c-10.01,0-18.66,0-29.13,0
					C378.39,170.99,378.51,134.35,378.57,96.39z"/>
			</g>
			<g>
				<path class="st2" d="M107.03,407.31c99.7,0,198.42,0,297.14,0c0.31,0.74,0.62,1.47,0.93,2.21c-3.8,2.18-7.48,4.61-11.44,6.42
					c-1.72,0.78-4.02,0.36-6.06,0.36c-87.72,0.01-175.44-0.01-263.17,0.06C117.35,416.37,111.13,415.25,107.03,407.31z"/>
			</g>
			<g>
				<path class="st2" d="M280.03,311.38c-16.62,0-31.68,0-47.61,0c0-31.35,0-61.94,0-93.7c15.6-1.68,30.82-0.85,47.53-0.45
					C280.76,248.97,280.56,279.53,280.03,311.38z M267.36,293.14c0.39-3.77,0.85-6.35,0.89-8.94c0.12-7.13-0.2-14.28,0.21-21.39
					c0.17-2.85,1.14-6.13,2.88-8.31c8.15-10.27,8.56-19.5,0.67-27.25c-8.45-8.3-21.51-8.87-30.61-1.33
					c-8.41,6.98-10.24,17.21-3.09,25.35c4.73,5.38,5.6,10.91,5.4,17.36c-0.17,5.7-0.14,11.42,0.05,17.12
					c0.08,2.32,0.82,4.63,1.34,7.39C252.64,293.14,259.56,293.14,267.36,293.14z"/>
			</g>
			<g>
				<path class="st2" d="M459.64,208.46c-9.05,0-17.17,0-26.05,0c-0.44-3.46-1.09-6.2-1.09-8.93c-0.07-31.16-0.05-62.33-0.04-93.49
					c0-1.22,0.07-2.44,0.15-3.66c0.3-4.41,2.7-6.57,7.1-6.7c4.5-0.13,6.66,2.09,7.24,6.46c4.34,32.91,8.76,65.81,13.07,98.73
					C460.3,202.98,459.83,205.2,459.64,208.46z"/>
			</g>
			<g>
				<path class="st2" d="M77.56,97.23c0,36.74,0,73.41,0,111.08c-8.48,0-16.35,0-25.02,0c-0.25-2.71-0.9-5.08-0.6-7.34
					c4.21-32.52,8.49-65.04,12.9-97.53C65.84,96.02,68.83,94.5,77.56,97.23z"/>
			</g>
			<g>
				<path class="st2" d="M451.71,362.72c0-42.84,0-84.74,0-127.72c3.45-0.21,6.42-0.39,10.08-0.61c0.46,3.5,1.09,6.04,1.1,8.58
					c0.06,34.46-0.08,68.92,0.12,103.38C463.06,354.24,458.99,358.62,451.71,362.72z"/>
			</g>
			<g>
				<path class="st2" d="M50.26,234.87c2.86,0,5.32,0,7.56,0c2.47,5.02,3.24,118.46,0.9,126.79c-5.37-3.13-9.67-6.58-9.66-13.41
					c0.02-35.65-0.01-71.31,0.05-106.96C49.12,239.34,49.79,237.4,50.26,234.87z"/>
			</g>
			<g>
				<path class="st2" d="M51.56,390.71c7.99,7.72,15.99,15.44,25.01,24.15c-9.12,2.16-16.82,2.02-24.49,0.42
					c-1.03-0.21-2.41-2.03-2.45-3.14c-0.23-6.78-0.11-13.57-0.11-20.36C50.2,391.43,50.88,391.07,51.56,390.71z"/>
			</g>
			<g>
				<path class="st2" d="M436.46,413.79c8.05-7.65,16.1-15.3,24.15-22.95c0.61,0.34,1.23,0.69,1.84,1.03
					c0,6.76,0.19,13.52-0.17,20.26c-0.07,1.29-2.24,3.46-3.53,3.53c-7.16,0.35-14.35,0.17-21.53,0.17
					C436.96,415.15,436.71,414.47,436.46,413.79z"/>
			</g>
		</g>
	</g>
</g>
<g id="icon_x5F_sidebar_x5F_fight" class="st0">
	<g class="st1">
		<g>
			<g>
				<path class="st2" d="M98.54,121.71c7.19,0.33,14.38,0.67,22.81,1.06c1.18-7.93,2.28-15.34,3.38-22.75
					c0.65-0.23,1.3-0.46,1.95-0.69c70.17,84.04,140.34,168.07,211.57,253.38c-9.84,8.24-18.85,15.78-28.82,24.13
					C238.18,291.6,167.84,207.47,97.5,123.34C97.85,122.8,98.2,122.26,98.54,121.71z"/>
			</g>
			<g>
				<path class="st2" d="M74.25,462.04c-10.75-7.58-20.15-14.21-30.69-21.64C87.39,378.65,130.68,317.64,175,255.19
					c8.95,10.7,16.69,19.95,24.95,29.82C158.02,344.06,116.54,402.48,74.25,462.04z"/>
			</g>
			<g>
				<path class="st2" d="M425.22,103.01c0.37,2.17,1.08,4.12,0.96,6.02c-1.52,23.89-10.41,44.55-26.71,62.21
					c-17.85,19.34-40.04,31.93-63.81,42.21c-1.98,0.86-4.11,1.36-7.64,2.49c1.24-4.12,1.91-6.97,2.94-9.69
					c6.52-17.26,11.93-34.75,11.33-53.5c-0.09-2.84-0.01-5.86-0.93-8.47c-2.37-6.7,0.06-11.13,5.24-15.36
					c8.52-6.96,16.52-14.54,24.94-21.63c1.91-1.61,4.59-3.05,6.99-3.2c14.23-0.85,28.48-1.32,42.72-1.86
					C422.24,102.2,423.23,102.61,425.22,103.01z"/>
			</g>
			<g>
				<path class="st2" d="M291.85,453.14c-4.87-5.91-8.93-10.84-14.08-17.09c41.71-34.89,82.71-69.18,124.58-104.2
					c4.79,5.78,8.96,10.8,14.01,16.89C374.53,383.82,333.55,418.17,291.85,453.14z"/>
			</g>
			<g>
				<path class="st2" d="M273.79,115.61c10.76,7.57,20.25,14.24,30.73,21.61c-17.52,24.77-34.23,48.41-51.86,73.34
					c-8.76-10.27-16.69-19.55-25.21-29.54C242.84,159.29,257.83,138.14,273.79,115.61z"/>
			</g>
			<g>
				<path class="st2" d="M310.02,250.99c3.13-1.7,6.08-3.97,9.41-5.02c21.89-6.92,42.92-15.68,62.36-28.02
					c29.04-18.43,51.93-42.06,63.17-75.38c4.67-13.85,6.52-28.16,6.18-42.77c-0.05-2.01-0.01-4.02-0.01-6.78
					c3.9-2.17,7.86-4.37,12.69-7.05c1.31,3.33,2.56,5.61,3.12,8.05c3.1,13.52,1.31,26.78-2.57,39.85
					c-16.18,54.48-81.45,113.08-140.32,120.1c-4.27,0.51-8.65,0.07-12.98,0.07C310.71,253.03,310.37,252.01,310.02,250.99z"/>
			</g>
			<g>
				<path class="st2" d="M389.79,472.78c-11.28-13.51-21.9-26.23-33.01-39.54c8.13-9.93,17.68-16.81,28.3-24.44
					c11.08,13.21,21.71,25.89,33.02,39.37C409.83,457.64,400.05,464.37,389.79,472.78z"/>
			</g>
			<g>
				<path class="st2" d="M321.15,118.13c-11.98-8.39-23.18-16.22-35.16-24.61c4.46-12.23,8.63-23.66,13.37-36.67
					c17.45,12.36,33.25,23.54,50.46,35.73C339.82,101.49,330.87,109.47,321.15,118.13z"/>
			</g>
			<g>
				<path class="st2" d="M98.58,95.77c-7.12-0.81-13.28-1.35-19.35-2.36c-1.23-0.2-2.8-2.02-3.15-3.37
					c-2.23-8.67-4.18-17.41-6.14-26.14c-0.15-0.68,0.35-1.51,0.74-2.98c1.89,0.47,3.64,0.68,5.2,1.33
					c6.2,2.59,12.29,5.47,18.53,7.94c4.9,1.94,7.04,5.25,6.33,10.43C100.13,85.01,99.49,89.39,98.58,95.77z"/>
			</g>
			<g>
				<path class="st2" d="M263.6,72.75c-4.58-8.72-9.17-17.44-14.34-27.29c9.64-1.5,17.2,0.6,26.32,3.04
					c-3.26,8.72-6.26,16.73-9.26,24.75C265.41,73.08,264.5,72.92,263.6,72.75z"/>
			</g>
			<g>
				<path class="st2" d="M328.1,39.22c10.42,7.7,21.69,12.69,29.96,23.17C349.73,64.21,326.41,46.59,328.1,39.22z"/>
			</g>
		</g>
	</g>
</g>
<g id="icon_x5F_sidebar_x5F_compendium" class="st0">
	<g class="st1">
		<g>
			<g>
				<path class="st2" d="M172.73,49.37c21.98,0,43.98,0,66.87,0c0,137.52,0,274.28,0,412.73c-22.56,0.64-44.71,0.55-66.23,0.05
					C170.22,455.66,169.78,57.56,172.73,49.37z M200.52,429.88c3.18-7.29,2.79-312.57-0.29-318.12c-6.66,0-13.58,0-20.13,0
					c-3.18,7.31-2.79,312.56,0.29,318.12C187.06,429.88,193.98,429.88,200.52,429.88z M210.72,299.22
					c-3.15,7.38-2.74,125.16,0.33,130.65c6.67,0,13.59,0,21.35,0c0-43.84,0-86.81,0-130.65
					C224.64,299.22,217.72,299.22,210.72,299.22z"/>
			</g>
			<g>
				<path class="st2" d="M145.38,142.76c0,85.62,0,170.31,0,256.67c-17.42,1.03-34.25,0.66-51.8,0.12
					c-0.49-3.88-1.14-6.62-1.14-9.36c-0.05-79.17-0.06-158.34-0.03-237.52c0-9.54,1.47-10.94,11.07-11
					c11.02-0.07,22.04-0.07,33.06,0.03C139.11,141.74,141.67,142.3,145.38,142.76z"/>
			</g>
			<g>
				<path class="st2" d="M363.52,456.03c-12.7,2.35-23.74,4.39-35.68,6.6c-1.26-4.11-2.57-7.24-3.16-10.5
					c-10.85-60.07-21.6-120.15-32.38-180.23c-7.75-43.2-15.53-86.4-23.26-129.6c-0.49-2.72-0.59-5.51-1-9.55
					c12.13-2.2,23.57-4.27,36.31-6.58C324.11,236.33,343.65,345.24,363.52,456.03z"/>
			</g>
			<g>
				<path class="st2" d="M30.77,95.93c12.29,0,23.52,0,35.63,0c0.49,3.12,1.29,5.83,1.29,8.53c0.07,53.47,0.07,106.95,0.02,160.42
					c0,2.37-0.57,4.75-0.98,8c-11.97,0-23.53,0-35.96,0C30.77,213.88,30.77,155.54,30.77,95.93z"/>
			</g>
			<g>
				<path class="st2" d="M367.58,238.23c7-3.03,12.81-5.54,20.08-8.69c31.66,74.22,62.88,147.39,94.52,221.55
					c-7.17,3.14-12.98,5.68-20.06,8.77C430.48,385.69,399.26,312.48,367.58,238.23z"/>
			</g>
			<g>
				<path class="st2" d="M65.98,461.62c-11.43,0-22.81,0-35.96,0c-0.23-38.48-0.1-76.1-0.08-114.56c13.02,0,24.42,0,35.56,0
					C68.27,352.44,68.8,453.4,65.98,461.62z"/>
			</g>
			<g>
				<path class="st2" d="M145.31,461.62c-17.64,0-34.34,0-51.98,0c0-12.22,0-23.59,0-34.65c5.83-2.99,44.82-3.3,51.98-0.36
					C145.31,437.66,145.31,449.07,145.31,461.62z"/>
			</g>
			<g>
				<path class="st2" d="M66.94,299.04c0,7.68,0,14,0,20c-5.68,3.23-28.48,3.6-36.48,0.32c0-5.15-0.23-10.92,0.17-16.64
					c0.09-1.3,2.32-3.48,3.61-3.52C44.72,298.91,55.21,299.04,66.94,299.04z"/>
			</g>
			<g>
				<path class="st2" d="M344.77,183.51c1.37-6.24,13.25-11.41,18.86-8.56C361.93,179.91,351.56,184.78,344.77,183.51z"/>
			</g>
			<g>
				<path class="st2" d="M376.69,203.79c-1.47,1.58-2.66,3.99-4.46,4.57c-4.85,1.58-9.26,6.71-16.33,2.77
					c5.69-6.11,12.27-7.7,18.8-9.41C375.37,202.41,376.03,203.1,376.69,203.79z"/>
			</g>
		</g>
	</g>
</g>
<g id="icon_x5F_sidebar_x5F_settings" class="st0">
	<g class="st1">
		<g>
			<g>
				<path class="st2" d="M167.35,468.66c-13.39-1.77-50.61-24-55.69-33.14c1.08-1.73,2.27-3.8,3.62-5.75
					c9.08-13.11,15.46-27.19,17.17-43.32c2.08-19.66-8.6-38.21-26.93-45.65c-18.45-7.49-36.8-5.28-55.13,0.52
					c-2.27,0.72-4.61,1.24-7.95,2.13c-8.74-20.07-13.97-40.42-16.04-62.21c3.72-1,6.27-1.51,8.71-2.36
					c10.15-3.55,20.93-5.98,30.28-11.03c32.02-17.29,37.2-51.45,11.57-77.58c-7.69-7.84-18.02-13.11-27.21-19.46
					c-1.8-1.24-3.88-2.08-6.88-3.65c7.46-20.81,19.04-38.63,32.65-56.07c2.6,1.58,4.49,2.63,6.28,3.83
					c12.84,8.66,26.44,15.16,42.16,16.87c27.62,3.01,49.81-16.05,50.75-43.89c0.44-12.98-0.7-25.69-5.26-37.95
					c-0.57-1.52-0.94-3.13-1.27-4.72c-0.16-0.77-0.03-1.6-0.03-3.56c19.48-9.06,40.19-13.46,62.14-15.74
					c1.02,3.75,1.82,6.21,2.34,8.72c3.47,16.64,9.06,32.26,21.51,44.52c15.73,15.49,38.24,17.59,56.71,5.52
					c12.09-7.9,21.07-18.51,27.72-31.22c1.77-3.4,3.56-6.79,5.82-11.11c21.09,7.8,39.67,18.42,56.8,32.93
					c-1.64,2.8-2.68,4.95-4.05,6.86C388.21,94.64,382,108.15,380,123.56c-3.04,23.55,11.24,44.26,34.61,49.71
					c15.81,3.69,31.2,1.62,46.42-3.22c2.48-0.79,5-1.42,8.46-2.39c8.98,19.98,13.9,40.42,16.18,62.37c-3.8,0.94-6.46,1.76-9.18,2.25
					c-16.65,3.01-31.7,9.36-43.86,21.42c-17.55,17.41-17.87,44.76-1.08,62.94c9.09,9.85,19.19,18.29,31.47,23.91
					c1.97,0.9,3.73,2.29,6.35,3.94c-7.98,20.35-18.77,38.4-32.84,55.12c-3.06-1.75-5.24-2.79-7.18-4.15
					c-11.9-8.34-24.87-13.72-39.36-15.81c-25.9-3.73-48.07,12.39-52.41,38.17c-2.51,14.96-0.26,29.24,4.49,43.36
					c0.89,2.64,1.57,5.34,2.63,8.96c-20.39,9.22-41.13,13.92-63.52,15.93c-1.27-5.66-2.36-10.56-3.47-15.47
					c-2.68-11.93-7.48-22.97-15.18-32.45c-19.22-23.66-48.23-25.35-70.63-3.31c-8,7.87-13.67,18.12-20.35,27.33
					C170.02,464.25,168.74,466.5,167.35,468.66z M255.86,400.9c76.17,1.14,145.09-60.6,145.17-144.58
					c0.07-81.43-64.18-146.3-147.02-145.43c-80.82,0.84-143.17,67.24-143.11,145.2C110.95,336.29,175.57,400.89,255.86,400.9z"/>
			</g>
			<g>
				<path class="st2" d="M255.9,375.07c-66.32-0.01-119.05-52.79-119.18-119.01c-0.12-60.41,46.51-119.03,119.17-119.37
					c66.88-0.31,119,51.98,119.5,119.66C375.87,322.28,322.28,375.08,255.9,375.07z M256.32,367.82
					c61.81,0.01,112.28-50.05,111.82-111.65c-0.45-60.76-47.78-111.81-111.76-112.13c-63.11-0.31-112.37,51.07-112.41,112.06
					C143.95,318.19,193.87,367.82,256.32,367.82z"/>
			</g>
		</g>
	</g>
</g>
<g id="icon_x5F_sidebar_x5F_journal" class="st0">
	<g class="st1">
		<g>
			<g>
				<path class="st2" d="M448.42,92.12c-17.01,7.17-36.38,3.32-52.81,13.34c13.35,7.59,25.04,14.25,36.73,20.9
					c-0.07,0.7-0.15,1.39-0.22,2.09c-10.32,2.08-20.63,4.16-30.95,6.23c-0.13,0.63-0.27,1.25-0.4,1.88
					c14.07,8.7,28.14,17.4,42.66,26.38c-0.79,3.42-1.29,6.39-2.17,9.24c-9.51,30.75-25.84,57.54-47.17,81.49
					c-28.41,31.88-43.98,69.29-47.66,111.76c-0.21,2.39-0.8,4.75-1.37,8.08c-3.69,0.38-7.21,1.06-10.74,1.07
					c-52.87,0.07-105.74-0.15-158.6,0.15c-23.87,0.13-41.44,11.18-51.15,33.28c-13.04,29.65,8.96,66.89,45.53,62.06
					c6.73-0.89,13.59-0.76,20.39-1.1c0.18,0.69,0.36,1.39,0.54,2.08c-1.95,1.11-3.78,2.8-5.87,3.23
					c-13.93,2.87-27.83,6.21-41.92,7.89c-9.63,1.15-19.71,0.93-29.3-0.54c-25.73-3.96-39.5-20.96-46.09-44.94
					c-7.68-27.98-4.86-55.9,1.11-83.65c2.48-11.54,6.41-22.77,9.52-34.19c1.48-5.44,4.92-7.99,10.38-8.84
					c14.32-2.22,28.6-4.7,42.88-7.15c2.31-0.4,4.55-1.17,8.35-2.18c-12.43-12.92-23.92-24.85-35.68-37.07
					c10.82-18.72,21.31-36.6,31.53-54.63c10.13-17.88,18.72-36.44,25.46-57.28c-4.1-0.52-6.79-1.1-9.48-1.17
					c-19.98-0.48-39.99-0.43-59.95-1.38c-24.37-1.15-41.44-13.86-51.3-35.78c-9.41-20.93-7.08-40.88,7.01-59.34
					c19.06-24.97,49.5-32.54,79.33-22.79c21.47,7.01,43.03,8.54,65.03,9.07c24.68,0.59,49.38,1.73,74.03,1.02
					c37.08-1.07,74.08-3.17,111.05-7.28c35.35-3.93,63.98,16.8,71.28,52.84C448.69,88.4,448.42,90.05,448.42,92.12z M159.2,70.78
					c0-1.99,0.18-2.66-0.04-3.16c-0.48-1.12-1.19-2.13-1.74-3.22c-6.25-12.36-16.75-18.76-29.81-22.21
					c-18.28-4.83-36.2-6.22-53.53,3.12c-21.82,11.76-31.94,33.41-26.21,55.84c5.97,23.41,24.48,37.29,49.57,37.18
					c17.77-0.08,24.02-8.04,17.19-24.49c-5.04-12.13-12.63-23.2-19.09-34.74c-1.22-2.18-2.46-4.34-4.73-8.33
					C114.8,70.78,137.01,70.78,159.2,70.78z M125.86,137.58c1.23,0.84,1.72,1.47,2.22,1.47c10.98,0.11,21.98,0.38,32.94-0.05
					c1.75-0.07,4.42-3.12,4.9-5.2c3.31-14.42,3.93-28.99,1.39-43.67c-1-5.82-3.9-8.4-9.91-8.3c-12.83,0.22-25.67,0.01-38.51,0.11
					c-2.02,0.02-4.04,0.76-6.94,1.34C121.1,101.11,132.77,117.32,125.86,137.58z"/>
			</g>
			<g>
				<path class="st2" d="M437.3,403.69c-12.05,6.13-24.1,12.27-36.16,18.4c0.06,0.71,0.11,1.41,0.17,2.12
					c24.23,2.92,48.45,5.83,72.88,8.77c0.85,2.39,1.74,4.21,2.15,6.14c4.1,19.37-9.24,40.07-28.6,44.05
					c-5.16,1.06-10.51,1.63-15.78,1.64c-68.14,0.11-136.27,0.08-204.41,0.06c-2.4,0-4.79-0.23-9.27-0.46
					c10.87-12.42,17.06-25.54,17.43-40.56c0.37-14.77-2.14-29.17-10.26-43.31c3.8-0.56,6.28-1.23,8.77-1.24
					c60.59-0.06,121.18-0.1,181.76,0.05c7,0.02,13.99,1.22,20.99,1.88C437.07,402.06,437.18,402.88,437.3,403.69z"/>
			</g>
			<g>
				<path class="st2" d="M208.78,442.37c-2.84,0.3-5.59,0.73-8.35,0.86c-11.77,0.56-23.55,0.9-35.32,1.59
					c-11.74,0.69-20.7-11.09-17.7-23.56c2.84-11.78,14.12-20.41,27.04-20.71C193.39,400.09,213.19,416.86,208.78,442.37z"/>
			</g>
		</g>
	</g>
</g>
<g id="icon_x5F_sidebar_x5F_music" class="st0">
	<g class="st1">
		<g>
			<g>
				<path class="st2" d="M261.65,225.6c0.7,2.64,1.55,5.26,2.07,7.94c1.62,8.25,2.65,8.79,11.01,8.46c15-0.58,29.14,2.2,41.74,11.16
					c14.6,10.37,19.64,25.5,21.71,42.14c2.78,22.32-10.19,36.76-25.52,49.9c-0.44,0.37-1.09,0.54-1.67,0.69
					c-0.37,0.09-0.8-0.03-1.59-0.08c-3.15-4.92-2.8-9.59,0.96-14.33c6.14-7.74,11.54-15.89,12.05-26.24
					c1.24-25.02-14.28-44.09-39.26-47.94c-4.59-0.71-9.31-0.53-15-0.81c0.44,4.72,0.51,7.73,1.03,10.66
					c8.8,49.42,17.66,98.83,26.47,148.26c1.07,6.03,2.01,12.08,2.81,18.15c1.93,14.59-2.85,26.51-14.6,35.46
					c-18.51,14.1-39.18,15.5-60.44,8.72c-16.02-5.1-25.76-22.74-22.74-38.34c3.49-18.02,17.24-29.36,35.42-29.2
					c17.96,0.16,31.41,11.98,34.49,30.27c0.42,2.52,1.01,5.02,1.49,7.33c10.2,0.4,17.08-7.88,15.5-18.5
					c-3.27-22-6.51-44.01-10.45-65.89c-5.72-31.73-12.04-63.35-18.15-95.01c-0.4-2.07-1.27-4.05-2.29-7.23
					c-7.24,4.84-12.49,9.93-15.47,17.08c-5.54,13.32-3.63,26.35,1.74,39.25c1.25,3.01,1.98,6.23,2.95,9.35
					c-0.69,0.48-1.39,0.96-2.08,1.44c-1.98-1.63-4.28-2.98-5.89-4.92c-14.99-18.11-14.14-48.78,1.75-66.18
					c2.06-2.26,4.06-4.69,6.52-6.45c5.79-4.17,9.56-8.69,8.28-16.73c-0.43-2.71,3.11-6.04,4.83-9.09
					C260.1,225.14,260.88,225.37,261.65,225.6z"/>
			</g>
			<g>
				<path class="st2" d="M242.98,129.77c-0.54-2.18-1.24-3.66-1.24-5.15c0.06-27.65,5.24-53.97,20.63-77.55
					c0.78-1.19,1.62-2.36,2.52-3.47c15.38-18.96,34.82-17.62,45.72,4.2c15.14,30.31,13.51,60.55-6.91,87.73
					c-13.67,18.2-29.81,34.59-45.42,51.26c-18.14,19.38-36.83,38.27-50.39,61.34c-4.74,8.07-9.5,16.33-12.73,25.07
					c-8.46,22.81-4.26,43.77,11.57,62.22c9.81,11.44,22.06,19.31,36.6,23.44c5.39,1.53,7.9,4.61,6.35,11.29
					c-2.86,0-5.84,0.44-8.66-0.07c-31-5.57-50.06-25.12-60.87-53.46c-11.63-30.51-8.06-59.85,11.23-86
					c15.34-20.81,32.18-40.57,49.3-59.97c15.92-18.03,33.27-34.79,49.64-52.44c11.16-12.03,12.87-27,10.85-42.48
					c-1.06-8.1-5.98-13.73-14.13-16.01c-7.39-2.07-12.75,1.54-17.1,6.79c-2.57,3.1-5.27,6.57-6.35,10.32
					c-3.64,12.7-7.02,25.51-9.61,38.46C252.62,122.04,249,126,242.98,129.77z"/>
			</g>
		</g>
	</g>
</g>
</svg>
