<?xml version="1.0" encoding="UTF-8" standalone="no"?>
<svg
   xmlns:dc="http://purl.org/dc/elements/1.1/"
   xmlns:cc="http://creativecommons.org/ns#"
   xmlns:rdf="http://www.w3.org/1999/02/22-rdf-syntax-ns#"
   xmlns:svg="http://www.w3.org/2000/svg"
   xmlns="http://www.w3.org/2000/svg"
   xmlns:sodipodi="http://sodipodi.sourceforge.net/DTD/sodipodi-0.dtd"
   xmlns:inkscape="http://www.inkscape.org/namespaces/inkscape"
   width="100mm"
   height="100mm"
   viewBox="0 0 1181.099 1181.0975"
   version="1.1"
   id="svg3"
   sodipodi:docname="aligate.svg"
   inkscape:version="1.0.1 (3bc2e813f5, 2020-09-07)">
  <metadata
     id="metadata9">
    <rdf:RDF>
      <cc:Work
         rdf:about="">
        <dc:format>image/svg+xml</dc:format>
        <dc:type
           rdf:resource="http://purl.org/dc/dcmitype/StillImage" />
        <dc:title></dc:title>
      </cc:Work>
    </rdf:RDF>
  </metadata>
  <defs
     id="defs7" />
  <sodipodi:namedview
     pagecolor="#ffffff"
     bordercolor="#666666"
     borderopacity="1"
     objecttolerance="10"
     gridtolerance="10"
     guidetolerance="10"
     inkscape:pageopacity="0"
     inkscape:pageshadow="2"
     inkscape:window-width="3840"
     inkscape:window-height="2066"
     id="namedview5"
     showgrid="false"
     units="mm"
     inkscape:zoom="2.571418"
     inkscape:cx="224.80104"
     inkscape:cy="117.60378"
     inkscape:window-x="-11"
     inkscape:window-y="-11"
     inkscape:window-maximized="1"
     inkscape:current-layer="svg3"
     inkscape:document-rotation="0" />
  <path
     id="Sélection"
     fill="none"
     stroke="black"
     stroke-width="0.8151"
     d="m 768.06815,397.13783 c 4.01029,2.26598 11.78634,3.65165 16.26939,2.36379 2.55942,-0.73359 3.64348,-2.4453 6.58601,-3.72503 0,0 10.49032,-3.58644 10.49032,-3.58644 0,0 5.02102,-2.60832 5.02102,-2.60832 3.04034,-0.6113 3.70055,2.28228 7.31146,2.16817 2.55942,-0.073 11.72122,-3.0729 14.63927,-3.97768 0,0 15.4869,-4.29556 15.4869,-4.29556 3.7576,-1.32863 7.02617,-4.16518 10.5963,-6.11325 0,0 7.93908,-3.75763 7.93908,-3.75763 0,0 3.68425,-3.34191 3.68425,-3.34191 1.91547,-1.23895 4.23035,-1.20634 6.30887,-2.04588 0,0 8.9661,-4.60533 8.9661,-4.60533 11.24838,-4.88243 9.37365,-3.4234 19.5624,-6.34146 0,0 9.7812,-3.2604 9.7812,-3.2604 0,0 24.46114,-5.3226 24.46114,-5.3226 16.70955,-3.43973 13.43284,-5.37966 32.59586,-5.28185 0,0 9.7812,0 9.7812,0 4.71941,-0.44016 4.53196,-1.6139 10.59635,-1.69541 6.2681,-0.0815 15.09563,0.39961 21.19253,1.6302 0,0 9.7812,2.20077 9.7812,2.20077 6.7001,0.92921 5.6568,-1.83397 15.4869,-0.432 4.4586,0.63578 17.1741,4.70312 21.1926,6.68382 0,0 10.5963,6.32517 10.5963,6.32517 0,0 13.8567,7.12396 13.8567,7.12396 0,0 8.7378,5.76277 8.7378,5.76277 4.7358,2.91806 10.5556,6.65122 13.596,11.46031 2.8447,4.49935 1.0596,9.15354 -2.804,12.21832 -2.0704,1.6302 -6.6512,3.96139 -5.0047,7.22179 0,0 4.6134,5.04548 4.6134,5.04548 0,0 4.7602,6.2518 4.7602,6.2518 0,0 11.982,11.6478 11.982,11.6478 7.7516,8.27325 6.6838,11.20761 10.9305,17.6958 5.2492,8.02876 16.3917,22.74129 19.3504,31.2102 2.2416,6.42299 2.3149,14.45987 2.3068,21.1926 -0.015,11.04459 -1.4917,14.90816 -6.5779,24.453 -1.7769,3.34191 -4.7031,7.98798 -8.1673,9.77303 -1.5894,0.82327 -3.1218,0.77436 -4.8172,1.12484 0,0 -7.3359,1.94811 -7.3359,1.94811 0,0 -13.8567,0 -13.8567,0 -4.6135,0.20406 -9.39,-0.26068 -13.8567,1.01072 5.4123,1.77692 5.5182,0.595 10.5963,0.8477 0,0 8.9661,1.49162 8.9661,1.49162 4.2222,0 8.8519,-1.6302 10.5963,3.36638 6.2436,-2.38826 8.3141,1.98067 7.2136,4.88243 -1.0841,2.84472 -7.6946,7.27886 -10.474,8.66453 -5.9421,2.9751 -12.4058,3.04031 -18.7473,4.22222 -21.3393,3.99399 -46.1755,0.51349 -66.0231,-8.25698 -5.1351,-2.27411 -6.9039,-4.14884 -9.3084,-5.33889 0,0 -6.1785,-2.45347 -6.1785,-2.45347 0,0 -13.0416,-7.3848 -13.0416,-7.3848 0,0 -12.22643,-8.52595 -12.22643,-8.52595 -9.6671,-5.66493 -17.32907,-8.85199 -26.08325,-16.32643 -5.2085,-4.45045 -4.94767,-5.87689 -8.29771,-9.1862 -6.12956,-6.07248 -11.10167,-9.12095 -15.34019,-17.35346 0,0 -13.8567,3.37451 -13.8567,3.37451 -18.82067,5.3878 -27.32215,7.07507 -44.8305,17.45128 -4.01846,2.38009 -5.99913,2.90992 -9.7812,6.21923 -2.99956,2.62462 -11.92493,12.06348 -13.60403,15.34018 -1.53239,2.99957 -0.70099,5.06175 -1.55683,7.3033 -0.72545,1.91546 -3.03217,4.05102 -4.40154,5.7383 9.11282,1.08406 8.06949,10.3436 7.3359,17.1171 0,0 6.5208,2.4453 6.5208,2.4453 0,0 1.6302,-2.4453 1.6302,-2.4453 0.40755,1.46718 0.80693,3.31744 1.47532,4.66237 0,0 13.64477,18.97553 13.64477,18.97553 0,0 6.44746,11.4114 6.44746,11.4114 0,0 8.33845,13.8567 8.33845,13.8567 0,0 4.73575,11.45214 4.73575,11.45214 2.33932,3.03217 5.59159,4.35263 9.38996,9.74046 0,0 6.21106,11.23208 6.21106,11.23208 2.30671,2.77134 4.36893,2.24967 6.70012,6.71642 1.85843,3.56197 1.05146,6.74086 1.58943,10.58 0.61134,4.31186 1.98071,5.82795 1.71171,10.5963 -0.22002,3.84727 -1.13297,12.18573 -2.92619,15.41352 -2.3964,4.30373 -6.40669,5.25742 -9.9687,7.81683 0,0 -5.46117,5.02102 -5.46117,5.02102 0,0 -12.61774,8.86828 -12.61774,8.86828 -5.13513,2.87729 -5.21664,-0.53796 -9.70783,3.63535 -3.46419,-1.07593 -4.9558,-2.29858 -8.151,0 0,0 -1.6302,0 -1.6302,0 0,0 -4.0755,-1.6302 -4.0755,-1.6302 0.65208,-7.84943 3.88801,-3.40712 10.5963,-8.17547 0,0 -3.24409,0 -3.24409,0 -2.4127,-0.23674 -5.16774,-1.73615 -2.77134,-4.27926 1.80135,-1.9155 3.60274,-0.64395 7.64563,-4.66237 0,0 -4.0755,-1.6302 -4.0755,-1.6302 0,0 1.6302,-4.0755 1.6302,-4.0755 1.41011,0.28538 3.48863,0.8314 4.8906,0.61948 1.80953,-0.27702 3.34191,-1.41828 4.64607,-2.6328 5.79535,-5.41226 4.39337,-11.43583 2.68983,-18.36418 1.02703,-3.04034 -1.41827,-4.3445 -4.0755,-5.33075 -2.98326,-1.11671 -6.18662,-1.67098 -8.9661,-3.32561 0,0 -14.6718,-11.41957 -14.6718,-11.41957 -9.82197,-7.31143 -13.24539,-11.62333 -20.83395,-21.02141 0,0 -4.75205,-6.81424 -4.75205,-6.81424 -3.06478,-3.23596 -5.85242,-2.48607 -10.26209,-6.16215 -4.23852,-3.52124 -4.60534,-6.25997 -6.85501,-7.99615 0,0 -7.8331,-3.37452 -7.8331,-3.37452 0,0 -18.74737,-9.015 -18.74737,-9.015 -5.60789,-3.35822 -5.1596,-5.56712 -8.9661,-9.4959 -0.3667,2.77947 -0.27702,6.21919 -2.4453,8.151 0,0 0,1.6302 0,1.6302 0,0 1.6302,1.6302 1.6302,1.6302 -4.62164,2.54311 -3.74946,5.16773 -4.21409,9.7812 -0.50536,5.05362 -0.40755,10.57183 -1.60573,15.4869 -1.43457,5.90946 -5.29001,6.46372 -1.30416,16.302 2.08666,5.15956 3.76577,5.78721 6.78977,9.7812 0,0 3.78206,5.7057 3.78206,5.7057 0,0 9.48777,12.2265 9.48777,12.2265 3.16258,4.68681 8.76234,17.98924 10.6289,23.6379 0,0 1.87481,6.5208 1.87481,6.5208 1.9318,4.78462 6.22736,10.14798 9.53667,20.3775 1.50795,4.67867 1.15744,7.82496 1.87473,12.2265 0.69285,4.31186 3.87987,14.17457 3.49679,17.1171 0,0 -2.01331,7.3359 -2.01331,7.3359 -3.04848,10.3436 -5.17587,11.72114 -13.8078,17.9159 -4.77656,3.42342 -4.48312,5.28998 -10.8083,5.33075 -7.53965,0.0574 -9.38995,3.57014 -12.90301,4.80092 -1.8829,0.65208 -4.48305,0.41549 -6.5208,0.55427 -2.91806,0.1957 -5.16774,1.48348 -7.3359,-0.88844 -4.82539,1.08406 -6.87945,-0.58687 -8.9661,-4.8906 0,0 -4.0755,0.8151 -4.0755,0.8151 0,0 -2.4453,-2.4453 -2.4453,-2.4453 0,0 0.8151,-1.6302 0.8151,-1.6302 0,0 -2.4453,-4.0755 -2.4453,-4.0755 2.4616,0.17936 3.98582,-0.27702 5.7057,1.6302 4.88243,-1.42644 10.30286,-1.80952 9.7812,-8.151 1.07593,-0.12198 1.47531,0.0574 2.4779,-0.69285 1.96437,-1.45901 5.66493,-8.17544 5.57529,-10.71855 -0.0901,-2.64909 -4.13258,-7.6049 -4.78466,-11.4114 0,0 0,-14.6718 0,-14.6718 0,0 -3.26853,-11.4114 -3.26853,-11.4114 -1.43458,-0.15466 -1.72801,0.038 -3.12185,-0.7988 -2.429,-1.46718 -11.61516,-13.84857 -14.33759,-17.1334 0,0 -9.44703,-10.6289 -9.44703,-10.6289 0,0 -15.69066,-24.34706 -15.69066,-24.34706 0,0 -14.37836,-12.37322 -14.37836,-12.37322 -3.00774,-3.10551 -7.00986,-11.21577 -8.23251,-15.41352 0,0 -1.6302,0 -1.6302,0 -0.77437,3.39082 -0.98629,5.40409 -4.0755,7.3359 0.44828,5.28998 -3.82284,8.38736 -6.03991,13.0416 -2.11109,4.42597 -1.13297,7.59673 -3.76576,11.27281 -2.60015,3.64352 -12.87041,11.05276 -17.09263,13.009 0,0 -4.8906,1.84213 -4.8906,1.84213 0,0 -12.2265,5.66496 -12.2265,5.66496 0,0 0.8151,0.8151 0.8151,0.8151 0,0 -0.8151,1.6302 -0.8151,1.6302 0,0 -3.2604,-1.6302 -3.2604,-1.6302 0,0 0.8151,2.4453 0.8151,2.4453 -2.82025,1.85843 -3.98586,4.48305 0,5.7057 0,0 4.0755,2.4453 4.0755,2.4453 0,0 4.8906,10.5963 4.8906,10.5963 2.46973,0.64391 3.35004,2.88545 5.01284,4.79279 4.86617,5.57528 6.95283,12.87858 9.65896,19.66021 8.53408,21.39636 11.11796,41.80646 14.09306,64.3929 0,0 1.83399,8.9661 1.83399,8.9661 0,0 1.53239,9.7812 1.53239,9.7812 0,0 2.9751,24.453 2.9751,24.453 0.35872,3.81467 1.9155,6.5534 -1.68724,8.9661 4.44227,5.4693 4.11623,7.12397 7.29512,12.2265 0,0 7.05064,10.5963 7.05064,10.5963 0,0 12.76446,26.8983 12.76446,26.8983 0,0 20.0759,30.9738 20.0759,30.9738 6.38225,9.43069 11.15057,14.46801 19.65208,21.87728 0,0 9.5448,7.61304 9.5448,7.61304 4.9232,4.98024 8.37923,11.1424 12.15316,16.96221 3.12181,4.82539 5.11883,3.97769 9.27584,7.36037 6.05617,4.93951 11.37062,10.44141 16.5303,16.2857 2.67353,3.01587 6.03987,4.88243 6.29257,8.9661 9.7486,3.81467 10.06647,10.98757 14.77775,16.30197 5.61606,6.3333 7.09954,4.858 13.75075,7.8087 3.36635,1.4916 6.86315,5.1025 10.5963,3.6027 0,0 2.89359,3.5131 2.89359,3.5131 5.04549,4.2548 17.44314,4.0837 23.08363,9.6834 6.46376,6.4149 1.31233,12.2836 -2.33932,12.2917 -2.19263,0 -6.18662,-3.0647 -8.151,-4.2956 0,0 3.92062,6.5045 3.92062,6.5045 2.15186,4.695 -2.1763,5.0374 -5.55082,4.2956 -3.36638,-0.7417 -6.84684,-1.7606 -9.77306,-3.619 -4.67051,-2.9589 -3.64348,-4.5157 -9.78934,-5.5509 0.5135,2.1926 3.87171,9.1699 1.92364,10.4903 -1.6139,1.0923 -3.96139,-0.758 -5.18404,-1.6628 -2.7632,-2.054 -9.95239,-6.9853 -13.0416,-7.9798 0,0 -13.8567,0 -13.8567,0 -9.03947,-0.049 -13.60411,-1.7688 -22.00777,-3.4478 0,0 -7.3359,-1.2798 -7.3359,-1.2798 0,0 -7.3359,-2.3312 -7.3359,-2.3312 0,0 -5.7057,-0.6602 -5.7057,-0.6602 -3.58644,-0.5217 -7.21366,-1.1492 -10.5963,-2.2823 -5.60789,-2.38 -8.50151,-6.1702 -12.2265,0 0,0 -1.6302,-1.4427 -1.6302,-1.4427 -2.02145,5.0291 -4.82539,2.535 -8.9661,1.9237 -3.68425,-0.538 -8.90089,1.0433 -10.88161,-3.7658 -0.3996,-0.9618 -0.44015,-3.5131 -0.52979,-4.6787 3.33374,0.057 3.46415,0.034 5.7057,-2.4453 0,0 -1.6302,-2.4453 -1.6302,-2.4453 7.09137,-3.8554 4.42597,-5.2492 7.40111,-10.5963 1.6791,-3.0158 4.01842,-4.4993 4.6379,-8.151 0.8314,-4.915 -2.38823,-11.01199 -4.21405,-15.48687 -4.70315,-11.54999 -5.77908,-11.76191 -13.22909,-21.1926 0,0 -3.99399,-5.7057 -3.99399,-5.7057 -2.74687,-3.5457 -8.65637,-9.02318 -12.13682,-12.12869 -19.39938,-17.30459 -39.06777,-34.63362 -60.79016,-49.00381 -10.40885,-6.87944 -12.81337,-4.21409 -17.68767,-7.61303 -2.63279,-1.834 -2.23338,-4.47492 -4.09997,-7.287 -2.77948,-4.18148 -9.88715,-13.44915 -14.07676,-15.7396 -2.79581,-1.52422 -6.01544,-2.02145 -8.9661,-3.15442 0,0 -22.0077,-8.94166 -22.0077,-8.94166 0,0 -13.0416,-5.84425 -13.0416,-5.84425 0,0 -9.7812,-6.72459 -9.7812,-6.72459 -3.43972,-1.71985 -9.57745,-1.68724 -16.302,-6.96096 -6.30074,-4.9395 -7.6049,-8.52594 -11.92493,-14.35389 -3.96952,-5.35523 -6.08878,-3.5457 -7.63747,-7.3359 -3.21967,1.36937 -7.94725,4.28743 -9.66709,7.3685 -1.51608,2.70614 -1.04333,5.24108 -1.53239,8.1184 0,0 -1.75248,6.17846 -1.75248,6.17846 0,0 -1.49978,10.12354 -1.49978,10.12354 0,0 -2.9914,10.5963 -2.9914,10.5963 -1.14931,8.19174 1.56499,10.09094 1.3938,12.81337 -0.15466,2.34749 -1.79322,2.34749 -1.84213,9.19433 0,0 0,13.8567 0,13.8567 0,0 0.77437,8.151 0.77437,8.151 0.057,5.21664 0.0901,10.3436 1.11667,15.4869 0.87217,4.36077 3.05664,8.56668 2.95883,13.0416 4.49935,3.70869 0.82323,8.09392 0.96995,12.2265 0,0 3.92065,14.6718 3.92065,14.6718 0,0 10.03386,26.8983 10.03386,26.8983 3.92878,10.79192 11.32176,30.99827 17.80995,39.93987 3.08108,4.2386 15.4543,19.3668 19.44012,21.7143 7.51522,4.4341 17.49205,4.6216 24.44487,8.3629 0,0 25.2681,17.3453 25.2681,17.3453 0,0 5.63232,2.6247 5.63232,2.6247 0,0 4.28743,2.7142 4.28743,2.7142 3.46419,1.7037 4.89877,0.4565 8.77864,5.1433 0.61131,0.7336 1.25526,1.5487 1.66281,2.4127 0.71728,1.5161 0.87213,3.2115 0,4.7031 -2.4453,4.1489 -9.07209,1.8096 -13.0253,1.8177 0.17936,2.3393 -0.0901,10.8898 -3.44789,10.9224 -2.10296,0.015 -7.76789,-4.6135 -9.59371,-6.0318 -0.64395,2.8529 -1.98071,10.8979 -5.7057,10.8979 -3.87988,0 -7.45002,-10.4659 -12.25911,-11.8271 -1.89103,-0.5298 -8.82755,1.9563 -14.63919,0.595 0,0 -7.3359,-2.7224 -7.3359,-2.7224 0,0 -13.8567,-1.8421 -13.8567,-1.8421 0,0 -11.4114,-3.668 -11.4114,-3.668 -4.03477,-1.0596 -11.99014,-1.2063 -16.302,-1.2145 -5.53455,0 -10.5474,-0.8476 -15.4869,-3.5456 -4.74388,-2.6002 -7.93094,-6.3089 -13.8567,-5.8525 -3.08108,0.2367 -11.3788,2.1438 -13.67738,0.5217 -2.59202,-2.1111 -0.96182,-6.3415 0,-9.0558 0,0 3.08108,0.8151 3.08108,0.8151 2.77134,-5.6487 8.35475,-13.2046 13.8567,-16.302 -3.4968,-9.5856 0.69281,-8.7541 -1.63837,-19.5624 0,0 -9.77303,-25.2681 -9.77303,-25.2681 0,0 -1.6302,1.6302 -1.6302,1.6302 -1.33677,-5.6894 -7.05877,-16.61171 -10.93047,-20.83393 0,0 -6.66752,-5.55085 -6.66752,-5.55085 0,0 -3.81467,-5.10252 -3.81467,-5.10252 -3.89618,-3.91248 -12.38952,-10.48219 -15.2668,-14.97337 -5.05362,0.16302 -5.06179,-2.93436 -4.79279,-7.19735 0.37506,-6.00727 2.58385,-8.9172 2.31488,-15.62545 -0.3097,-7.77605 -3.96955,-15.96783 -7.40111,-22.8228 -3.04847,-6.08882 -7.93094,-15.69069 -13.08237,-20.03516 -3.48046,-2.93436 -6.19476,-1.95624 -10.311,-6.13772 0,0 -4.47491,-5.61602 -4.47491,-5.61602 0,0 -16.05747,-19.55427 -16.05747,-19.55427 -9.65896,-9.66708 -25.41482,-21.89358 -33.6718,-32.61213 -4.59717,-5.9584 -6.46373,-12.07978 -5.06176,-19.5624 0.92922,-4.96398 6.22737,-11.72114 1.16558,-15.5195 -4.55639,-3.42342 -9.53666,-4.05107 -14.59028,-5.74648 0,0 -8.9661,-3.77389 -8.9661,-3.77389 -8.33032,-1.97254 -25.7001,-2.91806 -34.2342,-1.6139 0,0 -7.3359,1.78505 -7.3359,1.78505 0,0 -6.5208,0.8314 -6.5208,0.8314 0,0 -13.8567,3.48863 -13.8567,3.48863 -6.12955,0.86401 -8.19991,0.0813 -14.6718,2.61649 -5.31445,2.08666 -8.23251,4.6542 -13.0416,7.58856 0,0 -7.3359,4.13258 -7.3359,4.13258 0,0 -21.42083,15.35648 -21.42083,15.35648 0,0 -28.30027,18.95923 -28.30027,18.95923 0,0 -21.1926,17.6795 -21.1926,17.6795 -3.86358,3.48049 -6.64307,7.39297 -11.4114,9.64265 0,0 0.8151,2.4453 0.8151,2.4453 -7.31145,3.26853 -5.46932,4.54826 -10.60445,8.72157 -2.71429,2.2089 -4.0592,1.98067 -7.25439,5.18404 0,0 -14.28055,18.69839 -14.28055,18.69839 0,0 -5.6405,8.9661 -5.6405,8.9661 0,0 -7.03431,9.7812 -7.03431,9.7812 0,0 -11.23208,16.302 -11.23208,16.302 0,0 -16.008562,22.0403 -16.008562,22.0403 -6.757179,10.71042 -15.462447,30.23204 -19.220058,42.35257 -2.958813,9.553 -4.181463,19.4157 -4.97211,29.3436 -0.366814,4.4994 -1.22265,7.4419 -0.505362,12.2265 0.586872,3.9369 3.91248,11.9087 7.90647,13.0416 0,0 8.982402,9.1128 8.982402,9.1128 0,0 7.319598,0 7.319598,0 0,0 0.8151,-2.592 0.8151,-2.592 3.146282,1.5487 7.898322,3.9289 10.596302,6.0154 2.33119,1.8096 5.2574,4.9803 8.151,5.7954 2.90991,0.8233 3.70055,-0.595 4.8906,-2.8447 0,0 1.6302,-0.8151 1.6302,-0.8151 5.57528,1.3612 6.06434,0.2771 11.40325,3.7413 2.38009,1.5569 6.02359,5.5916 8.1673,5.8688 2.85285,0.367 9.92792,-5.1188 13.92191,-3.9451 2.90175,0.8558 7.07507,4.9477 9.70784,6.7246 2.96696,2.0051 4.83354,2.2089 8.151,3.0973 0.3016,-0.8966 0.63578,-2.1437 1.13299,-2.9425 0.76619,-1.2063 1.63835,-1.785 2.98326,-2.2333 5.64865,-1.8748 7.80051,2.4615 12.18575,4.0021 4.65422,1.6302 2.8284,-1.3531 10.5963,3.619 3.48863,-7.2707 6.92835,-6.5533 13.0253,-2.8691 3.34191,2.0133 3.96138,1.19 4.9069,5.3144 0,0 6.5208,-0.864 6.5208,-0.864 2.10296,-0.8069 3.48048,-2.5594 6.5208,-3.0159 5.42041,-0.8151 12.87043,3.3827 15.4869,7.9554 5.20034,-3.6516 8.03688,0.8803 12.2265,1.3857 3.87172,0.4646 9.12097,-7.2951 13.8567,1.0596 3.43157,0.4483 4.01844,2.4372 6.5208,2.9262 2.72243,0.538 4.48305,-2.0459 7.3359,-1.7361 3.13813,0.334 3.96138,3.1463 8.9661,4.5646 4.91505,1.3856 4.59716,0.7906 8.9661,1.027 0,0 22.0077,6.5126 22.0077,6.5126 0,0 4.8906,2.0704 4.8906,2.0704 2.37194,0.7907 12.98454,0.3097 10.87343,6.5289 -1.35306,4.0185 -12.84597,2.5513 -16.57913,2.5594 0,0 -26.0832,0 -26.0832,0 0,0 -19.5624,1.1575 -19.5624,1.1575 -9.13727,-0.3503 -18.59243,-0.2607 -27.7134,0.6113 0,0 -13.8567,1.8177 -13.8567,1.8177 0,0 -13.8567,0.7172 -13.8567,0.7172 -11.63148,1.402 -11.63963,3.1382 -25.2681,3.0322 0,0 -22.8228,-2.4453 -22.8228,-2.4453 0,0 -7.3359,0 -7.3359,0 0,0 -31.79705,-3.1463 -31.79705,-3.1463 0,0 -52.973352,-5.6649 -52.973352,-5.6649 0,0 -12.2265,-3.293 -12.2265,-3.293 -9.838257,-2.6572 -16.970382,-4.1408 -26.0832,-9.3247 -9.487764,-5.396 -9.879012,-7.5234 -16.530228,-15.112 -6.129552,-6.9936 -12.519936,-13.8893 -16.970382,-22.1463 0,0 -3.814668,-9.7812 -3.814668,-9.7812 -2.7305849,-6.2273 -5.4530189,-12.7644 -6.3740819,-19.5624 -0.953667,-7.0424 0.480909,-14.142 0.48906,-21.1926 0,0 0,-18.7473 0,-18.7473 0.0057,-5.6242 1.361217,-13.37578 3.920631,-18.38863 0,0 5.4937739,-7.70271 5.4937739,-7.70271 0,0 5.86872,-15.47873 5.86872,-15.47873 0,0 5.37966,-7.92277 5.37966,-7.92277 0,0 5.012865,-16.53023 5.012865,-16.53023 0,0 2.68983,-7.3359 2.68983,-7.3359 1.238952,-2.7143 2.909907,-5.24924 3.725007,-8.151 0.953667,-3.39082 1.165593,-11.63963 4.222218,-13.83227 2.225223,-1.59759 5.004714,0.48093 9.332895,0.79067 -1.043328,-10.04203 4.499352,-28.34918 8.9661,-37.4946 0,0 10.734867,2.4453 10.734867,2.4453 0,0 0,-9.7812 0,-9.7812 0,0 1.320462,-4.0755 1.320462,-4.0755 0,0 1.22265,-12.2265 1.22265,-12.2265 0,0 4.654221,-14.6718 4.654221,-14.6718 1.507935,0.66838 4.955808,2.52681 6.447441,2.37192 3.627195,-0.39125 4.597164,-6.97725 6.545253,-10.52292 2.722434,-4.95581 5.966532,-11.6478 7.441863,-17.1171 2.054052,-7.5723 -0.839553,-3.37451 3.602745,-12.29171 0.78249,-1.57316 1.14114,-2.99143 2.4616,-4.27112 1.33677,-1.29603 5.722,-3.5131 7.59673,-3.41529 3.6598,0.20406 5.11883,5.39596 9.41441,1.1004 0,0 1.85843,-2.31488 1.85843,-2.31488 1.88288,-2.74691 4.40154,-11.19134 5.24924,-14.6718 0.8151,-3.31748 0.36677,-5.96653 3.17889,-8.151 -1.10854,-2.22524 -2.56757,-4.75205 -2.16002,-7.3359 0.85586,-5.41226 6.26812,-7.24626 10.31102,-3.2604 1.69541,-1.15744 1.79322,-1.58129 3.2604,0 0,0 7.97983,-1.6465 7.97983,-1.6465 3.38266,-2.00515 3.64349,-7.3196 5.51822,-10.50666 1.71171,-2.91806 3.93694,-3.93691 5.35521,-7.40924 1.09224,-2.70613 1.12484,-7.56413 2.82025,-9.52854 5.36336,-6.20289 11.90861,5.51008 16.55468,3.65165 2.0296,-0.8151 4.0918,-4.43414 5.05362,-6.34961 1.99699,-3.96956 1.08408,-4.73575 2.11926,-7.80866 0,0 5.13513,-11.75374 5.13513,-11.75374 0,0 1.6302,0 1.6302,0 2.37194,1.78505 5.19219,2.4453 8.151,2.4453 2.75504,3.2278 3.50493,2.85285 7.3359,4.0755 4.43414,-10.28656 6.70827,-10.71041 10.95494,-19.22823 1.30416,-2.60832 0.87216,-5.61602 3.83097,-7.0995 4.03475,-2.01332 8.65636,-0.92921 12.85413,-0.41591 2.11926,0.25308 4.24667,1.25525 5.94208,-0.54614 4.19776,-4.45857 4.96396,-17.58168 6.84684,-23.24665 0.68468,-2.07035 1.70356,-3.8228 2.77134,-5.7057 4.54826,1.28786 9.06391,4.14888 13.8567,4.12441 9.67524,-0.049 16.20419,-13.83223 17.9322,-22.05661 6.60231,0.0114 7.59673,0.038 13.8567,2.4453 0,0 7.89017,-14.6718 7.89017,-14.6718 0,0 3.35821,-12.10421 3.35821,-12.10421 1.36122,-2.51868 2.60832,-2.16004 5.05362,-1.75249 0,0 0,-1.6302 0,-1.6302 2.38824,0.7988 8.72972,3.76576 10.5963,3.70873 3.18704,-0.0893 5.39596,-2.95884 7.04246,-5.33893 2.57572,-3.72499 7.14028,-11.83525 10.74302,-14.06862 7.80866,-4.83353 6.51265,-1.53239 14.81852,-1.41828 5.46117,0.073 4.98841,-0.18734 10.59629,0.8151 1.27155,-6.38221 6.58601,-15.17716 13.0416,-17.1171 1.17374,-6.38221 5.71387,-1.78505 11.4114,-6.5208 7.70271,0.95369 6.42299,3.57014 9.7812,3.29301 3.62721,-0.29336 5.26554,-4.74389 6.90391,-7.36851 3.74133,-6.00727 7.42558,-7.29512 11.02833,-12.08791 0,0 9.7812,0 9.7812,0 0,0 4.8906,-0.74989 4.8906,-0.74989 2.05405,-0.17138 4.35263,0.73359 6.12138,-0.66839 1.0678,-0.8477 2.58388,-3.92878 3.34191,-5.24111 0,0 6.67569,-10.5963 6.67569,-10.5963 0.864,-1.4264 2.65722,-4.84982 3.93691,-5.7057 3.71686,-2.48603 12.23467,3.2115 14.50065,3.19519 5.01284,-0.049 11.86785,-11.41953 14.32946,-15.42169 4.9395,1.73618 6.61861,0.62765 9.78929,1.99702 3.07295,1.32859 4.80096,4.08363 8.1347,2.90175 5.64049,-2.00514 11.92493,-15.67439 16.45689,-20.24708 4.56456,-4.59717 8.80308,-5.37153 11.26468,1.49161 10.91417,-4.73571 8.86829,-7.51522 15.5195,-13.71811 3.43972,-3.20336 5.64863,-3.96956 9.7486,-5.84429 0.97812,1.47535 1.16557,1.94811 2.59202,3.12185 1.05963,0.87214 3.42342,2.55125 4.81722,2.46161 2.33118,-0.15466 4.52382,-3.06478 5.83611,-4.76836 0,0 11.56629,-14.45987 11.56629,-14.45987 4.75202,-2.85285 9.06391,3.70872 13.49806,2.86102 5.14326,-0.97812 6.59414,-8.46891 14.6718,-11.22395 0,0 0,1.6302 0,1.6302 3.51306,0.1387 5.33888,1.18192 7.3359,4.0755 6.34148,-4.39337 9.47959,-6.97725 14.30498,-13.0416 2.07036,-2.59202 5.9584,-9.10465 8.59116,-10.29469 4.33633,-1.96441 6.31704,2.66536 11.30545,2.05405 8.59929,-1.0515 8.18361,-9.1862 12.36505,-11.23208 4.70315,-2.29858 6.58601,4.28743 12.12056,1.87473 4.6868,-2.03775 9.90344,-9.13729 13.93821,-12.54441 4.1244,-3.48862 8.64006,-4.56456 13.77519,-5.722 0,0 4.0755,1.6302 4.0755,1.6302 0,0 0.8151,2.4453 0.8151,2.4453 0,0 4.75201,-0.96182 4.75201,-0.96182 2.67353,-1.06776 9.22693,-8.7786 11.24838,-11.26468 1.35307,-1.6628 3.72503,-5.96653 6.38225,-4.76831 1.21448,0.55426 1.22265,2.17629 5.33076,4.76831 0,0 -1.6302,2.4453 -1.6302,2.4453 7.84939,1.834 11.88416,-2.11109 16.302,-8.151 0,0 3.2604,0.92108 3.2604,0.92108 5.12696,0.7662 12.30801,-5.46934 15.4869,-9.07208 z m 326.04005,134.4915 c 0,0 -0.8151,0 -0.8151,0 0,0 0.8151,0.8151 0.8151,0.8151 0,0 0,-0.8151 0,-0.8151 z m -307.29275,203.775 c 0,0 -0.8151,0 -0.8151,0 0,0 0.8151,0.8151 0.8151,0.8151 0,0 0,-0.8151 0,-0.8151 z m -286.1001,275.50377 c 0,0 -0.8151,0 -0.8151,0 0,0 0.8151,0.8151 0.8151,0.8151 0,0 0,-0.8151 0,-0.8151 z"
     style="fill:#000000;stroke:none" />
</svg>
