<?xml version="1.0" encoding="UTF-8" standalone="no"?>
<svg
   xmlns:dc="http://purl.org/dc/elements/1.1/"
   xmlns:cc="http://creativecommons.org/ns#"
   xmlns:rdf="http://www.w3.org/1999/02/22-rdf-syntax-ns#"
   xmlns:svg="http://www.w3.org/2000/svg"
   xmlns="http://www.w3.org/2000/svg"
   xmlns:sodipodi="http://sodipodi.sourceforge.net/DTD/sodipodi-0.dtd"
   xmlns:inkscape="http://www.inkscape.org/namespaces/inkscape"
   width="100mm"
   height="100mm"
   viewBox="0 0 1181.1024 1181.1008"
   version="1.1"
   id="svg3"
   sodipodi:docname="araflate.svg"
   inkscape:version="1.0.1 (3bc2e813f5, 2020-09-07)">
  <metadata
     id="metadata9">
    <rdf:RDF>
      <cc:Work
         rdf:about="">
        <dc:format>image/svg+xml</dc:format>
        <dc:type
           rdf:resource="http://purl.org/dc/dcmitype/StillImage" />
        <dc:title></dc:title>
      </cc:Work>
    </rdf:RDF>
  </metadata>
  <defs
     id="defs7" />
  <sodipodi:namedview
     pagecolor="#ffffff"
     bordercolor="#666666"
     borderopacity="1"
     objecttolerance="10"
     gridtolerance="10"
     guidetolerance="10"
     inkscape:pageopacity="0"
     inkscape:pageshadow="2"
     inkscape:window-width="3840"
     inkscape:window-height="2066"
     id="namedview5"
     showgrid="false"
     units="mm"
     inkscape:zoom="2.9412705"
     inkscape:cx="311.15677"
     inkscape:cy="157.16385"
     inkscape:window-x="-11"
     inkscape:window-y="-11"
     inkscape:window-maximized="1"
     inkscape:current-layer="svg3"
     inkscape:document-rotation="0"
     fit-margin-top="0"
     fit-margin-left="0"
     fit-margin-right="0"
     fit-margin-bottom="0" />
  <path
     id="Sélection"
     fill="none"
     stroke="black"
     stroke-width="0.684"
     d="m 42.068405,899.22609 c 0,0 8.208,-2.45556 8.208,-2.45556 0,0 12.312,-5.84821 12.312,-5.84821 29.6514,-13.0986 57.298685,-29.76084 84.816005,-46.81296 0,0 73.872,-44.78832 73.872,-44.78832 0,0 9.43236,-6.03288 9.43236,-6.03288 1.82628,-1.42956 2.09988,-2.28456 4.31604,-3.64572 0,0 32.7636,-18.42012 32.7636,-18.42012 0,0 18.468,-10.83456 18.468,-10.83456 0,0 14.364,-7.9002 14.364,-7.9002 7.16832,-4.45968 26.16984,-15.60888 33.516,-18.08496 5.48568,-1.7784 13.62528,-1.68948 19.152,0 0,0 5.472,1.92888 5.472,1.92888 3.33108,1.01916 7.87284,2.28456 10.944,3.77568 5.79348,2.82492 7.35984,2.8386 12.996,4.93164 1.55952,0.57456 5.17104,1.95624 6.74424,1.61424 1.54584,-0.33516 4.56912,-5.20524 5.96448,-6.7374 0,0 5.61565,-5.5404 5.61565,-5.5404 4.49388,-5.0958 6.68952,-10.5678 14.50764,-10.9098 2.68812,-0.11628 4.3434,0.0479 6.83999,1.08756 1.75788,0.73188 4.61016,2.44188 6.43644,0.99864 0.73188,-0.5814 3.0438,-8.74152 3.591,-10.32156 2.09304,-6.08076 2.21616,-11.42964 5.29416,-17.784 1.25172,-2.58552 3.85776,-5.84136 5.62932,-8.208 3.57048,-4.77432 3.33108,-5.58828 9.14508,-7.2162 1.49112,-0.41724 2.51028,-0.8208 4.104,-0.69768 6.29964,0.46512 10.76616,5.08212 13.9878,9.96588 5.97816,9.06984 7.32564,13.84416 11.47068,23.256 0,0 2.20248,5.43096 2.20248,5.43096 2.12724,3.67308 6.91524,2.7702 10.64304,3.7278 1.71684,0.43776 5.0274,2.45556 6.47064,3.56364 2.20932,1.69632 3.078,4.66488 5.27364,5.19156 1.92204,0.45828 3.98088,-1.32012 5.54724,-2.20248 2.61288,-1.47744 7.15464,-3.09852 10.06848,-3.93984 6.0534,-1.75104 12.4488,-1.00548 18.07128,-3.52944 3.37896,-1.52532 4.87008,-4.70592 9.97272,-7.524 5.58144,-3.08484 14.82228,-4.09032 21.204,-3.98088 0,0 12.996,0 12.996,0 0,0 6.84,1.59372 6.84,1.59372 3.89196,0.62928 4.71276,0.28728 8.892,1.72368 0,0 10.19844,4.01508 10.19844,4.01508 1.87416,0.98496 4.12452,2.89332 6.21756,3.0438 0,0 11.628,-3.50208 11.628,-3.50208 14.6034,-3.09168 15.51312,-3.63204 30.78,-3.61152 8.84412,0.0152 17.83188,3.09852 25.308,7.74288 0,0 7.58556,5.78664 7.58556,5.78664 0,0 11.56644,0.3762 11.56644,0.3762 0,0 12.312,4.788 12.312,4.788 3.3174,1.12176 5.9508,1.94256 8.86464,4.02876 1.15596,0.82764 3.49524,3.29004 4.80168,3.249 1.56636,-0.0479 2.64024,-2.22984 3.31056,-3.39948 0,0 5.78664,-10.26 5.78664,-10.26 3.7962,-6.669 6.42276,-10.36944 11.09448,-16.416 5.814,-7.524 8.31744,-12.71556 18.81,-12.29832 5.08212,0.19836 4.88376,2.18196 7.70184,4.0698 2.05884,1.368 4.57596,1.76472 7.7976,5.10948 2.5992,2.69496 5.76612,11.00556 7.10676,14.74704 0,0 3.37212,10.25316 3.37212,10.25316 0.52668,1.32012 1.28592,3.05064 2.95488,3.05748 2.10672,0.008 7.48296,-4.79484 9.3708,-6.21756 0,0 23.94,-17.34624 23.94,-17.34624 2.61288,-1.47744 6.5664,-3.7962 9.576,-3.87144 2.03148,-0.0479 10.23264,1.92888 12.312,2.6676 1.38852,0.49932 3.37896,1.73052 4.72644,1.71 2.03148,-0.0266 5.1642,-3.03696 6.90156,-4.15188 2.9412,-1.88784 9.5076,-4.11084 12.996,-3.98772 1.4364,0.0479 2.78388,0.6156 4.104,1.1286 5.30784,2.07936 6.06024,4.12452 7.81128,9.234 3.0438,8.90568 1.12176,10.43784 1.08072,18.468 0,0 0,8.208 0,8.208 0,0 0,6.84 0,6.84 0,0 6.84,-1.28592 6.84,-1.28592 0,0 7.524,-1.96308 7.524,-1.96308 0,0 9.86328,-1.07388 9.86328,-1.07388 0,0 6.3612,-2.11356 6.3612,-2.11356 0,0 13.4748,-2.29824 13.4748,-2.29824 0,0 15.44472,-4.83588 15.44472,-4.83588 0,0 14.35716,6.96996 14.35716,6.96996 0,0 5.5404,4.65804 5.5404,4.65804 0,0 6.77844,3.31056 6.77844,3.31056 0.342,3.31056 2.30508,3.90564 4.69908,5.86188 0,0 8.81676,7.09308 8.81676,7.09308 0,0 11.79215,12.35304 11.79215,12.35304 0,0 10.944,10.14372 10.944,10.14372 0,0 6.156,4.96584 6.156,4.96584 0,0 9.6923,9.28188 9.6923,9.28188 0,0 23.6322,19.63764 23.6322,19.63764 0,0 12.5035,11.16972 12.5035,11.16972 0,0 5.9645,4.42548 5.9645,4.42548 0,0 7.9071,7.38036 7.9071,7.38036 0,0 4.5964,3.57732 4.5964,3.57732 0,0 17.784,15.1848 17.784,15.1848 0,0 12.312,9.1314 12.312,9.1314 0,0 7.524,5.84136 7.524,5.84136 0,0 9.576,5.86872 9.576,5.86872 0,0 16.416,10.69092 16.416,10.69092 0,0 21.204,7.87285 21.204,7.87285 -1.6963,3.85776 -1.6758,2.47608 -4.6512,3.80304 -1.6758,0.75924 -2.1751,1.9152 -3.7004,2.33928 -2.1956,0.6156 -9.234,-1.72368 -12.1684,-2.20932 -3.7346,-0.60876 -12.7771,-0.684 -15.732,-2.09304 -1.7442,-0.82764 -6.026,-3.8646 -7.2298,-5.32836 -2.0042,-2.43505 -1.2654,-3.67309 -4.6991,-6.84001 0,0 -17.8798,-13.92624 -17.8798,-13.92624 0,0 -18.7553,-16.28604 -18.7553,-16.28604 0,0 -14.364,-12.6198 -14.364,-12.6198 0,0 -5.5882,-4.35024 -5.5882,-4.35024 -1.9084,-1.27224 -4.2614,-2.09988 -5.944,-3.63204 -2.2914,-2.07252 -1.6758,-3.15324 -4.9248,-6.17652 0,0 -16.375,-13.67316 -16.375,-13.67316 0,0 -14.1656,-10.37628 -14.1656,-10.37628 0,0 -17.9277,-14.90436 -17.9277,-14.90436 0,0 -4.22025,-4.28184 -4.22025,-4.28184 0,0 -12.90708,-10.51992 -12.90708,-10.51992 0,0 -9.48024,-8.03016 -9.48024,-8.03016 0,0 -3.762,-3.87828 -3.762,-3.87828 0,0 -10.04112,-8.1054 -10.04112,-8.1054 -2.3598,-2.0178 -7.79076,-7.38036 -10.26,-8.55 -1.881,-0.60876 -12.27096,-0.18468 -15.048,0 -6.9426,-0.0752 -10.21212,1.8468 -16.416,3.42684 0,0 -4.788,0.82764 -4.788,0.82764 0,0 -8.208,2.68812 -8.208,2.68812 0,0 -6.84,1.71684 -6.84,1.71684 -1.45692,0.45828 -9.12456,3.20796 -9.8496,3.96036 -0.65664,0.684 -0.86184,1.38852 -0.97128,2.29824 -0.15048,1.32012 0.72504,6.41592 1.21068,7.7292 0,0 7.96176,14.07672 7.96176,14.07672 2.07252,2.64024 3.03696,2.33928 4.3434,4.275 0,0 6.17652,14.13144 6.17652,14.13144 0,0 4.6512,6.95628 4.6512,6.95628 0,0 7.27776,12.996 7.27776,12.996 0,0 9.22716,21.888 9.22716,21.888 0,0 12.19572,25.308 12.19572,25.308 0,0 4.47336,9.576 4.47336,9.576 0,0 6.43644,12.312 6.43644,12.312 0,0 2.60604,6.15601 2.60604,6.15601 0,0 6.0534,9.06984 6.0534,9.06984 0,0 3.33108,6.66216 3.33108,6.66216 0,0 12.36672,17.784 12.36672,17.784 4.3434,5.00688 9.70596,11.67588 14.84964,15.61572 6.04659,4.63752 11.38859,5.13684 15.04799,12.36672 -3.6662,1.10124 -7.2572,0.84132 -10.94399,0 -1.75104,-0.4788 -4.35024,-1.89468 -6.00552,-1.1628 -3.00276,1.3338 -2.91384,7.5582 -5.12316,8.63208 -2.54448,1.24488 -5.76612,-5.63616 -6.8742,-7.40772 0,0 -6.14916,-11.628 -6.14916,-11.628 0,0 -9.52128,-17.1 -9.52128,-17.1 0,0 -28.50912,-50.61601 -28.50912,-50.61601 0,0 -23.21496,-43.092 -23.21496,-43.092 0,0 -14.37084,-26.676 -14.37084,-26.676 -0.95076,-1.71 -5.8482,-10.48572 -6.81948,-3.40632 0,0 0,2.03832 0,2.03832 0,0 0.56772,7.524 0.56772,7.524 0,0 0,4.788 0,4.788 0,0 0.684,8.892 0.684,8.892 0,0 0.684,19.836 0.684,19.836 0,0 1.34064,12.312 1.34064,12.312 0,0 0,6.84 0,6.84 0,0 0.71136,12.312 0.71136,12.312 0.12996,11.0808 4.24764,13.38589 5.472,19.71289 0,0 -5.472,0 -5.472,0 0,0 -6.84,5.59512 -6.84,5.59512 0,0 -0.56088,-8.892 -0.56088,-8.892 0,0 0.56088,-6.84001 0.56088,-6.84001 0.0889,-7.83864 -1.51848,-15.5268 -2.53764,-23.256 0,0 -1.56636,-23.94 -1.56636,-23.94 0,0 -0.684,-10.26 -0.684,-10.26 0,0 -0.684,-15.048 -0.684,-15.048 0,0 -0.684,-20.52 -0.684,-20.52 -0.041,-3.37896 -1.01232,-17.25048 -2.10672,-19.836 -0.77292,-1.82628 -2.74968,-4.446 -3.91932,-6.156 -1.14912,-1.68948 -2.66076,-4.4802 -4.35708,-5.54724 -2.55816,-1.6074 -8.47476,0.36252 -11.50488,0.93708 0,0 -33.516,9.93168 -33.516,9.93168 -2.55816,0.67716 -11.68272,3.39264 -12.55824,5.71824 -0.86868,2.29824 1.99728,11.0124 2.88648,13.58424 0,0 5.75928,18.468 5.75928,18.468 0.9576,5.04792 2.89332,16.70328 5.96448,20.52 0,0 -0.684,2.052 -0.684,2.052 4.57596,2.74284 5.46516,8.21484 7.06572,12.996 0,0 9.85644,27.36 9.85644,27.36 4.62384,13.96728 11.4228,27.23689 17.98236,40.35601 6.55272,13.11228 12.42144,26.68968 21.47076,38.304 9.29556,11.92896 9.15876,12.14784 21.60072,21.19716 3.58416,2.60604 7.33932,4.02192 5.472,8.89884 -7.35984,-2.38716 -8.14644,-1.07388 -15.048,-0.80712 0,0 -4.02876,0 -4.02876,0 -3.37896,0.38304 -3.01644,5.1642 -6.9084,2.57184 -1.58688,-1.0602 -5.17788,-5.54724 -6.55956,-7.23672 -5.9166,-7.23672 -12.31884,-23.68692 -16.30656,-32.832 0,0 -15.84144,-35.568 -15.84144,-35.568 0,0 -16.3134,-39.67201 -16.3134,-39.67201 0,0 -8.3106,-18.468 -8.3106,-18.468 0,0 -18.28332,-49.248 -18.28332,-49.248 0,0 -4.55544,-12.312 -4.55544,-12.312 -0.69768,-1.71 -1.45692,-3.74832 -3.47472,-4.23396 -1.75104,-0.42408 -7.27776,2.223 -9.5418,2.85228 0,0 -5.472,1.2312 -5.472,1.2312 0,0 -20.52,7.33248 -20.52,7.33248 0,0 -8.208,1.64844 -8.208,1.64844 0,0 -7.55136,2.69496 -7.55136,2.69496 0,0 -19.12464,7.70868 -19.12464,7.70868 0,0 -9.576,3.13956 -9.576,3.13956 0,0 -17.784,6.52536 -17.784,6.52536 0,0 -10.944,2.95488 -10.944,2.95488 -8.39268,2.55816 -8.42004,5.4036 -11.65536,6.23808 0,0 -12.28464,1.51848 -12.28464,1.51848 -2.96856,-0.22572 -4.83588,-1.36116 -7.524,-1.15596 -4.72644,0.36936 -6.54588,3.80988 -10.944,4.49388 -7.03152,1.08756 -8.98092,-3.16692 -12.996,-3.57048 -2.93436,-0.29412 -5.10948,2.10672 -10.26,1.58688 -5.21892,-0.52668 -8.72784,-6.1218 -15.048,-5.18472 -2.99592,0.4446 -5.75928,3.17376 -9.576,3.74832 -5.04792,0.75924 -7.36668,-1.48428 -9.576,-1.2654 -2.83176,0.28728 -4.62384,3.61836 -10.944,2.6334 -4.959,-0.77292 -6.0876,-4.52124 -7.81128,-4.82904 -1.16964,-0.21204 -2.09304,1.1286 -3.87828,1.95624 -1.6758,0.76608 -3.591,0.98496 -5.41044,0.73188 0,0 -9.54864,-2.12724 -9.54864,-2.12724 -2.5992,-1.34748 -4.01508,-3.9672 -6.86736,-5.21208 -1.97676,-0.855 -4.69224,-0.6156 -6.84,-0.63612 -7.33248,-0.0889 -16.0398,-2.36664 -22.572,-5.643 -4.59648,-2.30508 -11.9016,-7.27092 -14.79492,-11.51856 0,0 -6.00552,-10.73196 -6.00552,-10.73196 -2.20932,-2.07936 -7.07256,-3.58416 -9.97956,-4.59648 -4.80168,-1.68264 -8.61156,-3.50892 -13.68,-4.63752 -2.24352,-0.49932 -8.55684,-2.96172 -10.1916,-2.5992 -2.6334,0.58824 -6.50484,9.12456 -7.58556,11.68272 0,0 -16.99056,32.148 -16.99056,32.148 0,0 -23.87843,45.828 -23.87843,45.828 0,0 -6.66216,13.68 -6.66216,13.68 0,0 -5.80717,10.26001 -5.80717,10.26001 0,0 -6.64848,12.996 -6.64848,12.996 0,0 -6.96996,14.364 -6.96996,14.364 0,0 -5.31468,7.524 -5.31468,7.524 -4.42548,7.353 -5.84136,11.49804 -7.57188,19.836 0,0 -2.26404,13.66632 -2.26404,13.66632 -1.1286,2.98908 -4.91112,5.71824 -8.18748,5.11632 -2.02464,-0.3762 -4.59648,-2.27088 -8.208,-1.79208 -3.57732,0.4788 -7.16148,4.66488 -11.58696,1.65528 -1.41588,-0.96444 -2.64024,-2.45556 -1.97676,-4.25448 0,0 9.31608,-8.91936 9.31608,-8.91936 0,0 3.91248,-5.472 3.91248,-5.472 0,0 4.91796,-6.156 4.91796,-6.156 0,0 6.45696,-10.944 6.45696,-10.944 0,0 32.94828,-60.87601 32.94828,-60.87601 0,0 6.03973,-10.26 6.03973,-10.26 0,0 19.40507,-36.936 19.40507,-36.936 0,0 4.46652,-8.208 4.46652,-8.208 0,0 9.48024,-19.836 9.48024,-19.836 0,0 5.301,-10.26 5.301,-10.26 1.08756,-2.2914 4.97268,-8.88516 4.00824,-10.98504 -1.3338,-2.91384 -9.58968,-4.91112 -12.66084,-6.11496 -2.31192,-0.90972 -8.6868,-3.8988 -10.8756,-3.37896 -2.42819,0.5814 -3.59783,4.04244 -4.44599,6.11496 0,0 -8.88516,18.468 -8.88516,18.468 -3.98772,10.19844 -8.67997,22.29156 -14.57605,31.464 0,0 -7.32564,10.26 -7.32564,10.26 0,0 -9.54864,13.35852 -9.54864,13.35852 -1.22436,1.2654 -3.57048,2.57184 -5.24628,3.11904 -2.59236,0.855 -6.10128,0.62244 -8.86464,0.62244 0.39672,-4.94532 4.31604,-7.98912 7.43508,-11.628 3.98088,-4.64436 9.11088,-12.01104 12.53772,-17.21628 0,0 8.39268,-17.66772 8.39268,-17.66772 0,0 5.62248,-11.628 5.62248,-11.628 0,0 2.61972,-6.09444 2.61972,-6.09444 0,0 3.44737,-5.5404 3.44737,-5.5404 0,0 7.14096,-16.40916 7.14096,-16.40916 0,0 -7.524,-2.68128 -7.524,-2.68128 0,0 -6.84001,-3.1806 -6.84001,-3.1806 -1.69632,-0.72504 -4.32972,-2.02464 -6.156,-1.42272 -1.63476,0.53352 -7.92072,7.03152 -9.576,8.65944 0,0 -16.38864,16.40916 -16.38864,16.40916 0,0 -6.1902,6.84 -6.1902,6.84 -7.5924,7.81812 -10.50624,12.4488 -16.42284,21.204 -2.48292,3.67308 -2.54448,4.67856 -5.85504,8.70048 0,0 -12.0384,14.55552 -12.0384,14.55552 0,0 -16.587,21.204 -16.587,21.204 0,0 -28.03716,33.516 -28.03716,33.516 0,0 -12.35988,14.36401 -12.35988,14.36401 0,0 -20.36268,25.308 -20.36268,25.308 -2.95488,4.4802 -4.29552,10.57464 -9.39816,12.74292 -4.19292,1.7784 -5.86188,-0.64296 -9.576,-1.20384 -2.736,-0.41724 -3.75516,0.80712 -6.14916,1.55268 -2.55132,0.79344 -7.03836,1.25172 -9.58284,0.58824 0,0 0,-1.368 0,-1.368 0,0 17.1,-11.20392 17.1,-11.20392 0,0 7.524,-7.23672 7.524,-7.23672 0,0 6.77844,-6.1902 6.77844,-6.1902 0,0 18.2628,-21.88116 18.2628,-21.88116 0,0 24.49404,-29.41201 24.49404,-29.41201 0,0 52.0866,-61.56 52.0866,-61.56 0,0 43.38612,-49.932 43.38612,-49.932 -6.81948,-4.09716 -14.96592,-5.643 -22.572,-7.81128 -3.37212,-0.96444 -9.11088,-2.96856 -12.312,-3.10536 -6.75108,-0.29412 -12.483,3.32424 -18.468,6.01236 0,0 -14.364,6.44328 -14.364,6.44328 0,0 -19.152,9.87012 -19.152,9.87012 0,0 -32.148,16.92216 -32.148,16.92216 0,0 -22.572,13.80312 -22.572,13.80312 0,0 -32.148,19.8018 -32.148,19.8018 0,0 -41.04,25.08912 -41.04,25.08912 0,0 -28.044,17.21628 -28.044,17.21628 0,0 -10.944,6.64164 -10.944,6.64164 0,0 -5.472,2.59236 -5.472,2.59236 0,0 -8.208,5.32836 -8.208,5.32836 0,0 -22.572005,13.91256 -22.572005,13.91256 0,0 -6.84,4.72644 -6.84,4.72644 0,0 -6.84,3.96721 -6.84,3.96721 -2.43504,1.6074 -7.42824,5.08212 -10.26,5.42412 -2.31876,0.28728 -3.5568,-0.93708 -5.07528,-0.96444 -1.27224,-0.019 -3.63204,1.1628 -5.18472,1.51164 -5.45148,1.24488 -12.90024,0.88236 -15.048,-5.10948 z M 453.15241,701.78948 c -8.46108,2.44872 -9.79488,13.78944 -12.6198,20.9646 -1.03968,2.64024 -2.88648,7.5582 -1.7784,10.26 1.35432,3.29688 10.30788,8.57052 13.72104,10.66356 0,0 4.09716,2.47608 4.09716,2.47608 1.62108,1.18332 4.67172,4.69224 6.72372,4.1382 1.90836,-0.51984 5.34888,-7.79076 6.4638,-9.75384 1.32012,-2.3256 4.80168,-8.47476 4.97268,-10.944 0.15048,-2.26404 -2.04516,-7.3872 -3.01644,-9.576 0,0 -3.53628,-6.84 -3.53628,-6.84 -3.29688,-6.59376 -6.38856,-12.19572 -15.02748,-11.3886 z m 279.756,81.8406 c 4.88376,-1.026 8.49528,-5.01372 12.4146,-7.9002 0,0 23.8374,-17.77032 23.8374,-17.77032 3.88512,-2.8386 9.9522,-5.84136 11.70324,-10.58148 1.20384,-3.26268 -1.21752,-10.1574 -3.29004,-12.7908 0,0 -4.09032,-3.8304 -4.09032,-3.8304 0,0 -4.57596,-5.9508 -4.57596,-5.9508 -1.72368,-2.3256 -4.00824,-6.67584 -7.27092,-6.50484 -4.69908,0.2394 -9.65808,10.90296 -11.81952,14.71284 0,0 -8.56368,15.048 -8.56368,15.048 -0.9576,1.6074 -4.53492,7.51716 -4.9248,8.892 0,0 0,10.26 0,10.26 -0.041,8.1396 -1.80576,9.53496 -3.42,16.416 z m 145.692,-36.252 c 1.9836,-6.99048 0.64296,-15.2532 -3.40632,-21.204 -1.10124,-1.61424 -3.50208,-5.82084 -6.06024,-4.67172 -2.4966,1.21752 -0.84132,5.54724 0,7.40772 2.09988,5.51988 5.07528,14.6034 9.46656,18.468 z m -30.78,-15.86196 c -4.63752,1.31328 -8.208,3.82356 -12.312,6.1902 -4.60332,2.64708 -9.3708,4.97952 -13.61844,8.2422 0,0 -4.97268,4.36392 -4.97268,4.36392 -3.41316,2.30508 -9.20664,4.37076 -11.97684,7.15464 -3.26268,3.29004 -0.6156,6.73056 0.99864,9.80856 1.27224,2.42136 1.55268,4.91112 4.959,4.74696 3.933,-0.19152 7.30512,-2.24352 10.93032,-3.47472 0,0 6.156,-1.42272 6.156,-1.42272 0,0 16.01928,-6.12864 16.01928,-6.12864 3.1806,-0.80028 16.074,-4.17924 17.96184,-5.88924 2.62656,-2.37348 0.36252,-5.3352 -0.94392,-7.7292 -2.90016,-5.3352 -6.64164,-15.21216 -13.2012,-15.86196 z m -224.352,4.23396 c -1.16964,6.89472 8.46108,7.8318 11.8674,3.34476 1.44324,-1.90152 2.0862,-5.97132 -1.51848,-5.72508 -1.73052,0.11628 -3.0096,2.04516 -4.88376,2.81808 -2.01096,0.8208 -3.51576,0.12312 -5.46516,-0.43776 z m -36.936,3.42 c 0,0 -5.472,-3.06432 -5.472,-3.06432 0,0 -3.30372,-1.28592 -3.30372,-1.28592 -5.63616,-1.9836 -5.82768,1.68264 -4.4802,3.3858 1.4022,1.77156 8.97408,3.83724 11.10816,3.17376 1.38852,-0.42408 1.52532,-1.11492 2.14776,-2.20932 z m 25.308,-3.42 c 0,0 -12.312,-2.052 -12.312,-2.052 0.0616,2.394 0.0616,4.57596 1.8126,6.45696 3.32424,3.57732 10.06848,2.86596 10.4994,-4.40496 z m 34.2,8.892 c 4.28184,1.4022 8.38584,1.05336 12.23676,-1.51848 1.8468,-1.2312 3.42684,-3.57048 2.09988,-5.76612 -1.99728,-3.3174 -4.3434,-0.60192 -6.24492,0.79344 -3.95352,2.907 -5.76612,1.06704 -8.09172,6.49116 z m -149.796,3.42 c 0.45144,-1.10808 0.98496,-2.1888 0.98496,-3.42 0.008,-3.47472 -4.14504,-7.09992 -7.14096,-8.208 0,0 -0.684,0.684 -0.684,0.684 1.19016,4.2066 2.75652,8.89884 6.84,10.944 z m -80.02799,9.576 c 0,0 6.36803,-13.68 6.36803,-13.68 0.62928,-1.37484 2.38032,-4.29552 1.58004,-5.76612 -0.96444,-1.75104 -6.97679,-1.01916 -8.63207,-0.58824 -4.40496,1.14228 -9.52812,6.01236 -12.98232,9.03564 -1.13544,0.9918 -3.46105,2.79756 -2.94121,4.56228 0.53352,1.8126 7.26409,3.44052 9.08353,3.99456 0,0 7.524,2.44188 7.524,2.44188 z m 145.00799,-12.996 c -1.61424,-0.63612 -5.93712,-2.65392 -7.4214,-2.43504 -2.35296,0.35568 -2.40084,3.249 -0.57456,4.47336 2.28456,1.52532 5.79348,0.34884 7.99596,-0.67032 0,0 0,-1.368 0,-1.368 z M 434.83489,743.7734 c -2.736,1.72368 -5.00004,9.8496 -6.21756,13.18068 -0.45828,1.56636 -1.08756,3.61152 0,5.13 0.86868,1.4022 3.82356,2.28456 5.38308,2.85912 0,0 12.312,4.32972 12.312,4.32972 1.32696,0.47196 4.02876,1.75104 5.32836,1.45692 3.20112,-0.7182 6.69636,-9.48708 5.00688,-12.3462 -1.0944,-1.83996 -3.78936,-3.42684 -5.54724,-4.65804 -3.7278,-2.61288 -12.08628,-9.97956 -16.26552,-9.9522 z m 246.0006,1.54584 c -2.11356,0.16416 -2.74968,0.60876 -4.69908,1.22436 0,0 -3.3858,1.01232 -3.3858,1.01232 -3.27636,1.36116 -3.05064,3.95352 0,4.94532 2.37348,0.77292 6.68952,0.26676 8.7552,-1.17648 2.74284,-1.9152 2.0862,-4.6512 -0.67032,-6.00552 z m -191.43108,25.99884 c 2.60604,-9.07668 1.03284,-10.79352 -3.5568,-18.468 -0.87552,-1.4706 -2.6334,-5.04108 -4.5828,-5.05476 -1.49112,-0.0152 -2.5308,1.9152 -3.20112,3.01644 -1.97676,3.24216 -3.61152,5.82084 -4.39128,9.56232 0,0 15.732,10.944 15.732,10.944 z m -142.956,-21.204 c 2.59236,-0.67032 3.18744,-0.7866 5.472,0.684 0,0 -5.472,-0.684 -5.472,-0.684 z m 438.444,7.524 c 0,0 -3.42,3.42 -3.42,3.42 0,0 3.42,-3.42 3.42,-3.42 z m -5.472,5.472 c -3.67308,0.6156 -4.5144,1.21068 -6.84,4.104 0,0 6.84,-4.104 6.84,-4.104 z m 10.26,4.104 c -4.57596,1.51848 -16.08084,10.3968 -20.58156,13.70052 -3.43368,2.51712 -10.48572,7.29828 -12.93444,10.23948 5.32152,0.3762 10.35576,-2.82492 14.99328,-4.98636 0,0 7.57188,-2.66076 7.57188,-2.66076 0,0 4.30236,-2.09304 4.30236,-2.09304 2.31192,-0.76608 8.06436,-1.53216 9.35712,-3.54996 1.62792,-2.5308 -1.62792,-8.1396 -2.70864,-10.64988 z m -324.216,8.892 c 0,0 15.048,4.84956 15.048,4.84956 1.39536,0.5472 4.24764,2.27772 5.63616,1.27908 2.3256,-1.66896 -0.9918,-3.88512 -2.22984,-4.66488 -4.33656,-2.72916 -10.33524,-8.0028 -15.03432,-8.98776 0,0 -3.42,7.524 -3.42,7.524 z m 104.652,-1.368 c 0,0 -1.368,0 -1.368,0 -0.513,1.93572 -1.9152,7.16832 -1.92888,8.892 -0.041,6.23124 4.8564,12.8934 10.13688,15.732 0,0 -2.43504,-10.944 -2.43504,-10.944 0,0 -0.41724,-6.84 -0.41724,-6.84 0,0 -3.98772,-6.84 -3.98772,-6.84 z m 97.128,1.368 c -2.47608,1.21752 -5.9166,4.0698 -6.62796,6.86736 0,0 -0.35568,6.81264 -0.35568,6.81264 0,0 -1.90836,6.84 -1.90836,6.84 8.85096,-6.33384 8.892,-10.54044 8.892,-20.52 z m -67.716,4.788 c -1.65528,-0.31464 -5.75928,-1.48428 -7.14096,-0.60876 -1.0944,0.69768 -1.56636,2.83176 -1.81944,4.02876 -1.07388,5.19156 1.9152,10.59516 6.9084,12.312 -1.62792,-6.7032 -0.0821,-9.56916 2.052,-15.732 z m 29.412,18.468 c 6.09444,-2.05884 10.1916,-6.53904 10.78668,-12.996 0.1368,-0.95076 0.22572,-3.05748 0,-3.78252 -0.8892,-2.91384 -5.44464,-1.49796 -6.68952,0 -0.96444,1.44324 -0.60876,5.34888 -0.88236,7.20252 -0.50616,3.41316 -2.27772,6.29964 -3.2148,9.576 z m 122.436,-6.156 c 0,0 -0.684,0 -0.684,0 0,0 0.684,0.684 0.684,0.684 0,0 0,-0.684 0,-0.684 z"
     style="fill:#000000;stroke:none" />
</svg>
