<?xml version="1.0" encoding="UTF-8" standalone="no"?>
<svg
   xmlns:dc="http://purl.org/dc/elements/1.1/"
   xmlns:cc="http://creativecommons.org/ns#"
   xmlns:rdf="http://www.w3.org/1999/02/22-rdf-syntax-ns#"
   xmlns:svg="http://www.w3.org/2000/svg"
   xmlns="http://www.w3.org/2000/svg"
   xmlns:sodipodi="http://sodipodi.sourceforge.net/DTD/sodipodi-0.dtd"
   xmlns:inkscape="http://www.inkscape.org/namespaces/inkscape"
   width="100mm"
   height="100mm"
   viewBox="0 0 1181.099 1181.097"
   version="1.1"
   id="svg3"
   sodipodi:docname="baffreux.svg"
   inkscape:version="1.0.1 (3bc2e813f5, 2020-09-07)">
  <metadata
     id="metadata9">
    <rdf:RDF>
      <cc:Work
         rdf:about="">
        <dc:format>image/svg+xml</dc:format>
        <dc:type
           rdf:resource="http://purl.org/dc/dcmitype/StillImage" />
        <dc:title></dc:title>
      </cc:Work>
    </rdf:RDF>
  </metadata>
  <defs
     id="defs7" />
  <sodipodi:namedview
     pagecolor="#ffffff"
     bordercolor="#666666"
     borderopacity="1"
     objecttolerance="10"
     gridtolerance="10"
     guidetolerance="10"
     inkscape:pageopacity="0"
     inkscape:pageshadow="2"
     inkscape:window-width="3840"
     inkscape:window-height="2066"
     id="namedview5"
     showgrid="false"
     units="mm"
     inkscape:zoom="2.5196564"
     inkscape:cx="123.96825"
     inkscape:cy="176.32238"
     inkscape:window-x="-11"
     inkscape:window-y="-11"
     inkscape:window-maximized="1"
     inkscape:current-layer="svg3"
     inkscape:document-rotation="0" />
  <path
     id="Sélection"
     fill="none"
     stroke="#000000"
     stroke-width="2.0577"
     d="m 112.82402,796.45514 c -5.67926,0.8848 -26.153368,5.24712 -30.844928,7.26367 -11.31735,4.85617 -15.76198,11.64658 -30.8655,12.92235 -7.61349,0.65847 -35.37186,-4.1154 -31.99723,-15.70023 1.39923,-4.77386 9.28023,-7.1608 13.47793,-8.60119 0,0 43.2117,-7.46947 43.2117,-7.46947 8.04561,-1.95479 27.017598,-3.97134 32.552818,-7.26366 4.50636,-2.67501 20.577,-22.90222 25.63894,-28.39626 7.83984,-8.47772 13.95121,-11.68773 22.05854,-18.95143 17.26411,-15.47391 21.85278,-24.83642 45.2694,-34.19898 11.19389,-4.48578 46.93614,-11.21444 59.6733,-12.4285 0,0 28.8078,-1.56386 28.8078,-1.56386 23.21086,-3.6627 33.14955,-11.09098 53.5002,-17.81968 0,0 43.2117,-12.53137 43.2117,-12.53137 0,0 34.9809,-15.61796 34.9809,-15.61796 0,0 37.0386,-27.09989 37.0386,-27.09989 25.41257,-17.34643 51.15442,-28.23165 82.308,-28.60203 27.7172,-0.30856 64.40601,-1.74907 90.5388,7.28425 39.89878,13.80715 55.02289,36.11262 98.7696,41.50379 0,0 43.2117,4.87677 43.2117,4.87677 0,0 43.2117,7.98388 43.2117,7.98388 6.00848,0.34998 23.6841,3.82732 27.65548,0 5.39118,-5.00023 -3.18945,-11.21449 -6.76985,-20.49469 -5.7204,-14.71258 -0.3705,-33.82859 16.15297,-38.82882 6.7081,-2.03711 11.95521,3.39522 16.02946,8.00447 11.9141,13.4162 12.73718,28.49913 8.66294,45.22825 0,0 16.62621,-1.60501 16.62621,-1.60501 7.32541,-0.22648 21.9968,2.22232 27.75836,-2.14001 3.90963,-2.96309 5.84386,-10.30909 8.3337,-14.77428 6.19366,-11.11158 13.39561,-20.26837 25.47433,-25.18625 10.8029,-4.38292 27.63489,-6.95503 32.82029,6.74925 1.83137,4.85618 1.11116,9.63004 -1.31693,14.11583 -5.59694,10.3708 -17.32583,10.39136 -33.56106,24.89817 27.2645,7.18135 55.47561,20.47409 72.98661,43.2117 8.6012,11.15273 14.4656,28.74605 22.2026,36.25667 0,0 59.1383,36.19492 59.1383,36.19492 17.2641,14.77429 35.1661,30.18648 27.4703,55.1258 -2.9014,9.42427 -16.5645,28.47857 -27.4703,27.90242 -6.5435,-0.34998 -11.3791,-6.46118 -20.577,-4.19771 0,0 -24.6924,13.33389 -24.6924,13.33389 -9.8564,-20.84452 -10.803,-3.39522 -30.8655,2.0577 0,0 -2.0577,-12.3462 -2.0577,-12.3462 0,0 -22.6347,14.4039 -22.6347,14.4039 0,0 -2.0577,-14.4039 -2.0577,-14.4039 -4.7945,2.71617 -14.15699,8.70406 -19.77453,6.83157 -4.85617,-1.58445 -6.1525,-8.10734 -11.52312,-8.70409 -4.77386,-0.51441 -12.18158,5.41177 -18.08716,6.62579 -6.81101,1.39924 -10.78235,-1.62556 -16.4616,-4.75327 0,0 0,18.5193 0,18.5193 0,0 24.6924,-4.1154 24.6924,-4.1154 0,0 0,12.3462 0,12.3462 20.35063,-5.98792 22.55239,-18.12835 28.8078,4.1154 0,0 18.51931,-10.2885 18.51931,-10.2885 0,0 2.0577,12.3462 2.0577,12.3462 0,0 16.4616,-10.2885 16.4616,-10.2885 0,0 2.0577,10.2885 2.0577,10.2885 4.5063,-1.1729 12.696,-4.83561 16.4616,-4.36232 3.2512,0.39094 7.3048,3.0248 9.8152,5.04135 13.1693,10.51486 0.5144,23.51953 -9.8152,29.8984 -8.8893,5.47348 -26.4826,7.59289 -37.0386,8.51887 -28.70495,2.5104 -50.02272,1.89309 -78.19261,-6.00848 -35.88629,-10.08273 -68.95355,-37.98514 -94.6542,-63.95332 -17.53161,-17.73737 -25.26856,-43.10883 -55.5579,-33.23187 -25.76241,8.39542 -38.91113,29.98071 -57.6156,43.66439 -8.62179,6.31716 -23.21086,12.3668 -27.28511,22.57299 -2.1606,5.37058 -1.29637,14.46561 -1.70791,20.49469 0,0 -4.95903,37.0386 -4.95903,37.0386 -4.85618,20.53585 -19.58931,45.90727 -7.6958,65.8464 10.70004,17.94316 21.5441,18.88966 37.53245,29.30166 7.88097,5.1442 17.4287,14.2804 24.34257,20.9474 6.58464,6.3583 17.07891,18.3958 17.59335,27.9024 0.63787,11.9141 -10.16504,7.8193 -17.24352,9.1979 0,0 -10.2885,3.21 -10.2885,3.21 -10.08273,3.3335 -14.19813,-1.3375 -24.6924,0 0,0 -12.3462,1.5021 -12.3462,1.5021 0,0 -30.8655,-1.8519 -30.8655,-1.8519 0,0 -10.2885,-4.1771 -10.2885,-4.1771 -5.06195,-1.7902 -11.42026,-1.7491 -15.4122,-5.2471 -6.46117,-5.6176 -7.88097,-23.89 -14.23928,-35.516 -6.89328,-12.5519 -33.62282,-32.3058 -46.48342,-39.0963 -0.84368,19.4864 20.14486,34.0756 22.6347,57.6156 -15.61797,-0.4321 -16.25583,1.9137 -24.6924,1.8931 -7.53119,-0.041 -11.07043,-2.3457 -16.4616,-2.4692 0,0 -18.5193,0 -18.5193,0 -5.82331,0.041 -25.45377,-3.4981 -29.2605,-7.4489 -7.59293,-7.9015 8.95098,-18.6633 10.2885,-35.1867 1.19347,-14.87715 -12.69602,-48.54112 -10.65888,-57.61556 1.68731,-7.53118 15.84429,-22.40837 21.40008,-32.9232 -27.3057,10.51483 -39.6313,18.56046 -69.9618,18.5193 -26.70895,-0.041 -34.09611,-6.97562 -57.6156,-12.3462 -6.23485,13.18984 -25.18625,26.60605 -37.0386,35.98916 -6.31712,5.02079 -15.45332,10.41196 -15.70025,19.56874 -0.20577,7.51059 5.84388,12.18159 11.58485,15.74136 11.83175,7.3049 24.81586,13.4574 34.54876,23.7047 4.85617,5.1031 12.81949,16.5439 7.34601,23.4578 -3.66271,4.6093 -9.87696,4.3829 -15.14467,5.0208 -13.14872,1.4816 -26.02989,1.9137 -39.0963,0 -11.97581,-1.6667 -29.42511,3.5598 -40.57784,-2.9631 -8.66292,-5.0413 -7.07849,-21.3383 -11.17331,-29.9807 0,0 -20.06258,-32.84085 -20.06258,-32.84085 -4.83559,-6.13194 -12.0787,-11.54371 -14.83601,-18.6222 -2.18117,-5.65866 -1.41982,-14.23929 -1.83136,-20.55641 -17.24352,10.10329 -16.23525,16.66737 -32.9232,27.69665 -6.64637,4.38288 -18.31353,9.75349 -20.92681,17.75793 -2.63385,8.12798 9.58889,37.07978 13.78659,45.08418 12.40794,23.6224 34.1784,26.6061 47.71807,43.2323 4.60925,5.6381 10.06215,16.7085 1.99597,21.9762 -6.76984,4.4035 -14.95948,1.1524 -21.99682,1.2347 0,0 -12.3462,1.7902 -12.3462,1.7902 -5.96733,0 -10.14446,-3.3129 -16.4616,-3.8273 0,0 -18.5193,1.2963 -18.5193,1.2963 0,0 -14.4039,-2.3663 -14.4039,-2.3663 -8.78638,-0.4733 -17.46987,6.2348 -24.85701,-2.243 -7.05791,-8.1073 -3.80675,-14.9183 -2.5104,-24.0545 1.70789,-12.0581 2.63386,-25.5566 -1.85193,-37.0386 0,0 -28.37568,-55.55786 -28.37568,-55.55786 -2.88078,-13.21043 3.93021,-35.28957 4.09482,-49.3848 0.0412,-4.67099 0.28808,-12.18158 -1.21404,-16.4616 0,0 -25.55663,-43.2117 -25.55663,-43.2117 -8.86869,-22.14085 -6.50234,-55.6402 0,-78.1926 z m 635.84987,277.78946 c 0,0 -2.0577,0 -2.0577,0 0,0 2.0577,2.0577 2.0577,2.0577 0,0 0,-2.0577 0,-2.0577 z"
     style="fill:#000000;stroke:none" />
</svg>
