<?xml version="1.0" encoding="UTF-8" standalone="no"?>
<svg
   xmlns:dc="http://purl.org/dc/elements/1.1/"
   xmlns:cc="http://creativecommons.org/ns#"
   xmlns:rdf="http://www.w3.org/1999/02/22-rdf-syntax-ns#"
   xmlns:svg="http://www.w3.org/2000/svg"
   xmlns="http://www.w3.org/2000/svg"
   xmlns:sodipodi="http://sodipodi.sourceforge.net/DTD/sodipodi-0.dtd"
   xmlns:inkscape="http://www.inkscape.org/namespaces/inkscape"
   width="100mm"
   height="100mm"
   viewBox="0 0 566.90006 566.8999"
   version="1.1"
   id="svg3"
   sodipodi:docname="bramart.svg"
   inkscape:version="1.0.1 (3bc2e813f5, 2020-09-07)">
  <metadata
     id="metadata9">
    <rdf:RDF>
      <cc:Work
         rdf:about="">
        <dc:format>image/svg+xml</dc:format>
        <dc:type
           rdf:resource="http://purl.org/dc/dcmitype/StillImage" />
        <dc:title></dc:title>
      </cc:Work>
    </rdf:RDF>
  </metadata>
  <defs
     id="defs7" />
  <sodipodi:namedview
     pagecolor="#ffffff"
     bordercolor="#666666"
     borderopacity="1"
     objecttolerance="10"
     gridtolerance="10"
     guidetolerance="10"
     inkscape:pageopacity="0"
     inkscape:pageshadow="2"
     inkscape:window-width="3840"
     inkscape:window-height="2066"
     id="namedview5"
     showgrid="true"
     showguides="false"
     inkscape:zoom="0.70710678"
     inkscape:cx="1241.5248"
     inkscape:cy="781.55546"
     inkscape:window-x="-11"
     inkscape:window-y="-11"
     inkscape:window-maximized="1"
     inkscape:current-layer="svg3"
     inkscape:document-rotation="0">
    <inkscape:grid
       type="xygrid"
       id="grid830" />
  </sodipodi:namedview>
  <path
     id="Sélection #16"
     fill="none"
     stroke="#000000"
     stroke-width="1"
     d="m 342.98303,10.979945 c 1.57,0.12 2.99,0.03 4.37,0.99 4.74,3.32 8.14,16.14 6.96,22.01 -0.63,3.15 -2.21,9.2 -3.57,12 -5.24,10.84 -15.41,19.77 -10.83,33 1.69,4.89 1.88,5.75 6.07,9 1.99,-10.99 11.52,-24.06 19.42,-31.9 6.5,-6.07 9.63,-3.07 8.41,0 -1.16,2.51 -6.96,5.34 -12.3,13.07 -7.63,11.05 -5.28,13.72 -8.53,23.75 3.22,1.73 5.21,3.46 7.98,0 3.4,-4.43 1.71,-10.44 9.49,-19.92 8.12,-9.9 19.51,-13.28 25.34,-26 1.95,-4.24 3.05,-9.35 3.18,-14 0.05,-2.16 -0.42,-6.38 1.56,-7.77 1.91,-1.33 3.56,-0.01 4.14,1.92 0.79,2.68 -0.16,8.02 -0.56,10.85 -1.57,11.14 -5.9,19 -14.16,26.72 -13.17,12.29 -10.15,10.5 -18.97,24.28 8.34,1.45 6.11,11.839995 12.17,13.799995 2.82,0.91 5.91,-3.839995 7.23,-5.799995 4.7,-6.96 7.42,-15.64 7.6,-24 4.06,2.72 3.11,6.55 2.75,11 -0.23,2.91 -0.1,6.29 -1.07,9 -2.68,7.439995 -9.56,10.419995 -1.68,17.999995 1.49,6.58 6.06,7.81 10.79,2.89 2.73,-2.85 3.68,-5.86 5.84,-8.89 4.7,-6.549995 8.07,-7.489995 11.27,-16.999995 1.18,-3.53 1.18,-10.46 3.62,-11.83 2.09,-1.18 3.55,1.21 4.05,2.89 1.17,3.92 -0.41,10.05 -1.45,13.94 -2.01,7.479995 -8.81,16.429995 -14.16,21.989995 -2.23,2.31 -8.78,7.69 -9.41,10.59 -0.43,1.97 2.59,7.08 3.45,9.42 5.88,-2.73 8.95,-6.7 14,-10.4 9.31,-6.81 23.75,-13.8 29.15,-24.599998 2.49,-4.969997 1.39,-8.219997 2.06,-12.999997 0,0 1.79,-8 1.79,-8 3.33,2.49 2.08,5.18 2.01,9 -0.1,5.79 1.35,10.36 -0.53,15.999995 -3.85,11.54 -15.83,19.72 -24.48,27.29 -9.05,7.92 -11.92,12.09 -17,22.71 8.76,0.64 7.32,-3.19 16,-2.96 0,0 26,3.45 26,3.45 3.92,-0.27 10.67,-2.84 13.72,-0.85 2.23,1.46 9.54,8.95 8.11,11.8 -1.06,2.12 -5.25,1.99 -9.62,6.66 -1.11,1.19 -2.01,2.46 -2.77,3.9 -6.21,11.83 5.85,11 13.56,11 -2.87,9.66 -7.76,4.8 -11,14 0,0 -9,-4 -9,-4 0,0 3,14 3,14 0,0 -7,-1 -7,-1 0,0 2,12 2,12 0,0 -4,0 -4,0 -2.19,2.92 -2.41,2.71 -6,3 2.82,5.09 2.93,5.21 3,11 0,0 -5,0 -5,0 0,0 0,5 0,5 0,0 -5,0 -5,0 0,0 -3,-5 -3,-5 0,0 6,14 6,14 -4.69,-0.8 -4.96,-2.41 -8,-6 0,0 3.51,10.83 3.51,10.83 0,0 3.49,8.17 3.49,8.17 0,0 -2,1 -2,1 0,0 -7,-8 -7,-8 1.37,8.71 9.83,18.31 7,27 0,0 -5,-6 -5,-6 0,0 2,5 2,5 0,0 -3,6 -3,6 0,0 -5,-4 -5,-4 0,0 4,8 4,8 -1.48,2.42 0.19,3.46 -0.69,5.67 -1.7,4.25 -6.7,-2.3 -8.31,-3.67 1.06,5.65 6.13,14.88 0,19 0,0 0,-4 0,-4 0,0 -3,2 -3,2 0,0 -4,-3 -4,-3 0.16,6.61 3.37,16.01 1,22 0,0 -1,-3 -1,-3 -2.46,2.71 -2.63,2.24 -6,1 0,0 1,9 1,9 0,0 -5,-7 -5,-7 0,0 0,7 0,7 0,0 -5,-7 -5,-7 0,0 -5,5 -5,5 0,0 -2,-5 -2,-5 0,0 -1,5 -1,5 0,0 -5,-2 -5,-2 0,0 -3.01,18.98 -3.01,18.98 -1.43,3.47 -3.87,4.76 -6.38,7.26 -7.24,7.24 -11,10.6 -20.61,14.76 4.29,17.41 -2.87,26.01 -5.45,41.99998 -0.99,6.13 3.31,22.45 3.06,26 -0.31,4.47 -3.76,7.14 -4.87,11 -0.52,1.8 0.24,12.62 0.55,15 0,0 1.75,10.42 1.75,10.42 0,0 1.69,5.58 1.69,5.58 0.55,2.95 0.01,4.85 1.27,7.99 0,0 4.86,8.1 4.86,8.1 1.49,3.69 0.43,5.71 1.98,8.16 2.61,4.14 9.67,6.78 11.59,8.71 1.69,1.7 1.46,3.34 3.12,5.96 3.83,6.06 5.23,6.31 7.45,14.08 0,0 -9,-3 -9,-3 0,0 1,6 1,6 -2.34,-0.36 -4.67,-0.74 -6.83,-1.78 -2.65,-1.27 -10.71,-7.8 -11.91,-10.31 -1.97,-4.11 1.15,-5.88 -4.39,-11.49 -2.32,-2.35 -9.01,-7.86 -10.14,-10.55 -1.42,-3.41 -0.23,-8.25 -0.53,-11.87 0,0 -1.8,-14 -1.8,-14 0,0 -2.4,-9 -2.4,-9 0,0 -3.27,-15.96 -3.27,-15.96 -1.56,-5.39 -3.58,-3.28 -3.73,-11.04 -0.27,-14.94 -1.72,-10.22 -4.58,-23 -2.03,-9.11 -0.83,-9.47 -1.52,-17 -0.58,-6.18998 -1.87,-3.93998 -1.9,-13.99998 0,0 -2,0 -2,0 -0.91,6.68 -9,23.55998 -13.41,28.82998 -4.05,4.85 -9.48,9.1 -11.87,15.17 -2.16,5.49 -1.17,12.46 -2.25,17 -1.16,4.9 -4.1,7.61 -5.08,12 -1.07,4.78 -1.06,23.51 -0.69,29 0.21,3.58 -0.81,6.41 0,10 1.12,4.7 3.77,6.79 4.17,12 0,0 0,6 0,6 0.87,6.28 7.82,9.43 11.92,13.37 3.3,3.18 7.13,11.13 8.21,15.63 0,0 -9,-1 -9,-1 0,0 2,8 2,8 -8.57,-1.61 -16.77,-7.62 -19.85,-16 -1.87,-5.09 0.3,-6.22 -3.69,-12 -2.29,-3.32 -6.89,-8.19 -7.88,-12.04 0,0 1.66,-21.96 1.66,-21.96 0,0 0,-21 0,-21 -0.4,-13.04 -4.9,-20.33 -5.08,-26 -0.34,-10.58 1.46,-10.2 3.32,-19 0,0 0.84,-9 0.84,-9 0,0 3.01,-11 3.01,-11 0,0 1.14,-8.99998 1.14,-8.99998 1.06,-4.43 3.27,-6.83 4.53,-15 -6.98,2.46 -12.43,2.33 -18,7 0,0 2,1 2,1 0,0 0,1 0,1 -6.59,-0.3 -5.95,-0.14 -11,4 0,0 1,-5 1,-5 -4.54,3.3 -7.33,4.75 -4,9.99998 0,0 -5,-1.99998 -5,-1.99998 0,0 -3,5.99998 -3,5.99998 0,0 -5,0 -5,0 0,0 0,-4 0,-4 0,0 -5,2 -5,2 0,0 -2,-5.99998 -2,-5.99998 0,0 -2,3 -2,3 0,0 -4,-5 -4,-5 0,2.45 0.32,6.39998 -0.99,8.48998 -1.7,2.71 -7.66,5.65 -10.08,9.6 -2.45,4.01 -0.43,5.86 -5.5,13.74 -2.33,3.61 -7.01,7.01 -7.03,11.17 -0.02,3.7 5.66,12.67 7.78,16 0,0 9.57,16 9.57,16 0,0 11.49,14 11.49,14 2.08,2.8 5.16,7.58 5.87,10.99 0.73,3.55 -0.82,4.27 0.8,8.1 2.21,5.2 6.08,7.87 7.63,11 1.89,3.83 0.09,5.35 0.87,8.19 0.77,2.8 2.98,4.28 4.59,10.72 0,0 -18.68,-6.43 -18.68,-6.43 0,0 -8.23,-9.83 -8.23,-9.83 0,0 0,-9.72 0,-9.72 0,0 -5.54,-7.39 -5.54,-7.39 0,0 -4.68,-15.63 -4.68,-15.63 0,0 -11.11,-18.96 -11.11,-18.96 0,0 -13.39,-13.55 -13.39,-13.55 0,0 -4.58,-4.96 -4.58,-4.96 0,0 -6.71,-5 -6.71,-5 0,0 -5.08,-10.53 -5.08,-10.53 0,0 4.69,-6 4.69,-6 0,0 2.39,-16 2.39,-16 0,0 -3.08,-8.99998 -3.08,-8.99998 0,0 -27,17.62998 -27,17.62998 0,0 -9,3.86 -9,3.86 -5.58,2.67 -15.73,11.71 -19.35,16.6 -2.36,3.18 -3.93,9.88 -5.34,13.91 0,0 -4.9,16 -4.9,16 0,0 -3.32,23 -3.32,23 -0.67,11.53 4.69,14.2 11.54,21.43 4.77,5.04 14.12,18.9 15.37,25.57 -2.63,1.1 -6.84,4.2 -9.04,4.14 -3.86,-0.12 -12.71,-6.66 -14.24,-10.38 -0.75,-1.81 -0.67,-3.83 -0.72,-5.79 0,0 -8.4,0 -8.4,0 0,0 -0.98,-7.97 -0.98,-7.97 0,0 -2.62,-13 -2.62,-13 -13.990002,-4.43 -5.98,-23.21 -1,-32 0,0 -3,-1 -3,-1 0,0 2.59,-8.87 2.59,-8.87 1.38,-4.24 3.6,-3.71 5.12,-16.13 0,0 0.55,-16 0.55,-16 0,0 0,-12 0,-12 0.43,-6.03 2.75,-9.69 8.74,-11 1,-8.60998 5.57,-8.67998 10.73,-18.99998 4.08,-8.17 5.55,-23.12 10.27,-29 -4.95,-6.01 -5.34,-21.8 -8,-30 0,0 -11.42,10.74 -11.42,10.74 0,0 -5.57,4.51 -5.57,4.51 0,0 -9.01,9.75 -9.01,9.75 0,0 -8.000003,0 -8.000003,0 -1.17,3.43 -2.889999,5.19 -5.999999,7 0,0 1,-2 1,-2 0,0 -6,3 -6,3 -0.72,-1.8 -1.36,-2.98 -1.43,-5 -0.2,-5.57 6.38,-17.95 9.12,-23 4.770002,-8.8 8.980002,-16.9 16.310002,-23.96 6.39,-6.15 7.8,-4.72 13,-9.66 0,0 14.43,-16.06 14.43,-16.06 0,0 6.57,-5.46 6.57,-5.46 15.54,-13.14 20.99,-12.96 40,-16.32 5.48,-0.97 22.12,-3.69 27,-3.32 6.06,0.46 17.46,4.23 27,3.69 11.53,-0.66 50.23,-5.32 61,-7.8 0,0 17,-4.77 17,-4.77 0,0 7,-2.91 7,-2.91 4.26,-0.93 13.08,1.9 17,3.79 2.13,1.03 5.6,3.56 8.01,2.32 1.98,-1.01 3.82,-6.38 5.03,-8.54 0,0 11.27,-16.83 11.27,-16.83 2.05,-2.95 8.04,-9.68 10.69,-11.96 2.65,-2.27 6.39,-3.99 8.3,-6.42 1.64,-2.09 3.88,-8.87 5.13,-11.79 2.01,-4.73 3.3,-5.66 2.57,-11 -3.35,6.46 -5.32,12.13 -12,16.26 -4.42,2.74 -7.41,1.25 -12,0.83 -4.87,-0.25 -5.57,1.2 -11,0 1.8,-2.98 7.25,-11.81 9.21,-13.79 0,0 20.28,-17.59 20.28,-17.59 2.58,-3.14 2.65,-6.21 4.07,-9.67 2.04,-4.97 6.85,-7.67 6.54,-12.04 -0.36,-4.99 -6.11,-8.3 -10.1,-10.15 -5.61,-2.6 -11.71,-4.68 -18,-4.67 0,0 -15,1.82 -15,1.82 -8.96,0.1 -13.39,-0.1 -22,-3.23 -5.69,-2.07 -7.6,-5.67 -14.01,-4.47 0,0 -34.99,12.7 -34.99,12.7 -10.56,1.58 -11.86,1.69 -21,-4.31 -3.53,-2.32 -4.65,-2.58 -6,-6.69 9.97,3.96 10.53,3.92 20.96,4.04 3.2,0.04 4.9,0.5 8.08,-0.68 7.05,-2.62 15.64,-10.59 24.96,-12.36 0.23,-4.98 -0.09,-8.49 -5.17,-11.2 -3.16,-1.38 -6.5,0.06 -9.83,0 -10.66,-0.98 -25.59,-6.41 -23,-19.799995 5.44,3.45 5.2,5.949997 10.01,9.009995 7.61,4.83 13.91,3.36 21.99,2.99 -3.04,-15.959995 -23.88,-25.239995 -31.16,-36.999995 -3.33,-5.38 -2.92,-11.93 -2.84,-18 0.06,-4.29 0.19,-5.09 2,-9 0,0 2,0 2,0 3.32,8.3 -1.35,13.48 6.55,24 3.17,4.21 9.91,9.23 14.45,12.02 3.08,1.89 5.76,2.08 8,4.98 2.79,-2.2 10.49,-10.38 10.12,-14 -0.33,-3.32 -9.11,-10.58 -11.55,-14 -2.59,-3.63 -2.42,-5.83 -2.99,-10 -1.24,-8.97 -2.55,-21.81 6.42,-27 2.05,7.92 -2.39,9.64 -1.66,17 0.81,8.21 5.66,15.81 12.66,20 -1.97,-6.91 -6.31,-10.11 -5,-17 2.53,1.97 11.15,10.53 12.26,13.17 2.48,5.87 -2.02,8.05 4.74,13.83 3.02,-12.06 17.09,-18.66 19.53,-33 1.71,-10.01 -4.91,-10.25 -5.53,-21 z m -20,69 c -1.17,1.27 -1.55,1.39 -2.32,3.11 -1.31,2.92 -4.01,14.7 -0.94,16.839997 1.39,0.979998 8.65,-0.87 11.26,-0.949997 0,0 -8,-19 -8,-19 z m 48,12 c -2.34,4.03 -1.99,6.49 -2,10.999995 0,0 5,0 5,0 0,0 -3,-10.999995 -3,-10.999995 z m -32,14.999995 c 0,0 -12,2 -12,2 0,0 7,10 7,10 4.34,-3.69 6.31,-6.22 5,-12 z m 34,12 c -0.48,-1.46 -0.42,-2.09 -1.59,-3.36 -3.47,-3.72 -18.11,-6.92 -23.41,-7.64 -0.55,2.35 -0.9,3.51 -0.66,6 0.23,2.42 1.49,7.61 3.36,9.22 4.32,3.75 18.07,-1.78 22.3,-4.22 z m 10,0 c -0.81,4.81 1.73,7.39 6,9 -0.82,-5.07 -1.94,-5.99 -6,-9 z m 15,198 c 0,0 -2,4 -2,4 0,0 2,-4 2,-4 z m 13,4 c -1.25,3.29 -1.07,4.18 1,7 0,0 -1,-7 -1,-7 z m -9,2 c -1.88,2.56 -2.08,2.97 -1,6 0,0 1,-6 1,-6 z m -5,1 c 0,0 -2,0 -2,0 -1.1,3.53 -2.01,4.71 0,8 0,0 2,-8 2,-8 z m -128,65 c 0,0 -2,-1 -2,-1 0,0 -1,3 -1,3 0,0 3,-2 3,-2 z"
     style="fill:#000000;stroke:none" />
</svg>
