<?xml version="1.0" encoding="UTF-8" standalone="no"?>
<svg
   xmlns:dc="http://purl.org/dc/elements/1.1/"
   xmlns:cc="http://creativecommons.org/ns#"
   xmlns:rdf="http://www.w3.org/1999/02/22-rdf-syntax-ns#"
   xmlns:svg="http://www.w3.org/2000/svg"
   xmlns="http://www.w3.org/2000/svg"
   xmlns:sodipodi="http://sodipodi.sourceforge.net/DTD/sodipodi-0.dtd"
   xmlns:inkscape="http://www.inkscape.org/namespaces/inkscape"
   width="100mm"
   height="100mm"
   viewBox="0 0 566.90005 566.8999"
   version="1.1"
   id="svg29"
   sodipodi:docname="brolute.svg"
   inkscape:version="1.0.1 (3bc2e813f5, 2020-09-07)">
  <metadata
     id="metadata35">
    <rdf:RDF>
      <cc:Work
         rdf:about="">
        <dc:format>image/svg+xml</dc:format>
        <dc:type
           rdf:resource="http://purl.org/dc/dcmitype/StillImage" />
        <dc:title></dc:title>
      </cc:Work>
    </rdf:RDF>
  </metadata>
  <defs
     id="defs33" />
  <sodipodi:namedview
     pagecolor="#ffffff"
     bordercolor="#666666"
     borderopacity="1"
     objecttolerance="10"
     gridtolerance="10"
     guidetolerance="10"
     inkscape:pageopacity="0"
     inkscape:pageshadow="2"
     inkscape:window-width="3840"
     inkscape:window-height="2066"
     id="namedview31"
     showgrid="false"
     inkscape:zoom="1.55205"
     inkscape:cx="620.48048"
     inkscape:cy="347.73271"
     inkscape:window-x="-11"
     inkscape:window-y="-11"
     inkscape:window-maximized="1"
     inkscape:current-layer="svg29"
     inkscape:document-rotation="0" />
  <path
     id="Sélection #13"
     fill="none"
     stroke="black"
     stroke-width="1.5"
     d="m 388.90251,154.87586 c 0,0 39,4.5 39,4.5 0,0 31.5,-3 31.5,-3 0,0 -3,10.5 -3,10.5 15.285,2.865 14.175,8.055 19.935,14.745 2.55,2.955 4.86,4.29 7.11,7.86 0,0 4.26,8.025 4.26,8.025 7.23,10.26 11.46,13.275 15.195,26.37 0,0 -19.5,10.125 -19.5,10.125 0,0 -13.5,-2.625 -13.5,-2.625 0,0 3,3 3,3 0,0 0,1.5 0,1.5 -15.12,3.765 -10.53,-8.49 -33,-9 0,0 7.05,24 7.05,24 0,0 9.75,21 9.75,21 3.48,11.415 2.97,27.33 0.87,39 -1.035,5.79 -4.26,9.765 -6.69,15 -2.415,5.22 -10.425,29.31 -10.98,34.5 -7.74,1.38 -18.81,3.3 -25.5,-1.5 0,0 9,-3 9,-3 0,0 -3,-6 -3,-6 7.905,-2.43 9.84,-6.405 13.5,-13.5 -7.65,5.7 -10.605,10.875 -21,9 0,0 22.5,-18 22.5,-18 0,0 -1.5,-9 -1.5,-9 -6.135,5.985 -8.985,10.515 -18,9 0,0 0,-3 0,-3 10.14,-7.935 7.83,-9.66 12.615,-14.04 4.575,-4.17 17.25,-6.975 17.925,-15.96 0.675,-9.105 -11.235,-18.21 -15.165,-27 -4.77,-10.635 -2.07,-14.22 -5.775,-19.005 -2.985,-3.87 -9.06,-7.05 -13.83,-4.665 -3.39,1.695 -9.045,9.885 -11.685,13.17 -2.565,3.195 -5.85,6.84 -7.62,10.5 -1.89,3.885 -3.78,14.805 -4.59,19.5 -1.815,10.455 -4.56,24.015 -3.06,34.5 1.125,7.86 7.05,20.7 7.065,31.5 0.015,10.74 -4.38,21.945 -8.88,31.5 12.525,6.72 31.455,26.22 28.8,42 -2.67,15.78 -21.45,38.955 -8.79,53.865 3.3,3.9 12.75,13.17 17.505,14.58 4.965,1.29 10.02,-0.075 14.985,0 0,0 10.5,2.115 10.5,2.115 0,0 13.5,0 13.5,0 5.55,1.095 16.365,6.135 19.68,10.695 1.8,2.49 3.42,8.64 4.32,11.745 0,0 -12,-1.5 -12,-1.5 0,0 1.5,4.5 1.5,4.5 0,0 -27,-10.5 -27,-10.5 8.34,7.725 11.775,1.965 13.5,12 -4.17,-0.42 -9.735,-0.3 -13.5,-1.425 0,0 -11.37,-5.34 -11.37,-5.34 -5.43,-1.395 -7.65,2.805 -19.815,-5.76 -4.785,-3.36 -6.195,-7.14 -10.02,-11.16 0,0 -10.755,-9.33 -10.755,-9.33 0,0 -4.815,-7.155 -4.815,-7.155 -2.4,-2.775 -6.09,-4.2 -7.635,-6.915 -2.985,-5.205 2.355,-18.915 2.985,-24.915 0.99,-9.54 -8.235,-21.195 -16.575,-24.84 -1.965,-0.855 -9.705,-2.31 -12,-2.535 -5.895,-0.6 -8.295,0.825 -12.63,4.65 -12.405,10.935 -7.92,15.63 -12.72,25.725 -2.01,4.245 -11.07,15.585 -14.565,18.915 -7.005,6.66 -18.375,8.955 -24.3,14.49 -5.715,5.34 -7.62,13.245 -9.285,20.595 0,0 6,1.5 6,1.5 0,0 1.5,-4.5 1.5,-4.5 0,0 11.355,5.88 11.355,5.88 0,0 9.645,0 9.645,0 0,0 23.235,12.15 23.235,12.15 0,0 2.265,2.97 2.265,2.97 0,0 -12,0.96 -12,0.96 0,0 -13.5,-8.46 -13.5,-8.46 0,0 -1.5,4.5 -1.5,4.5 3.735,1.98 8.295,4.305 10.485,8.13 2.46,4.32 -0.465,7.98 -4.425,7.14 -6.66,-1.425 -13.395,-13.545 -21.06,-15.27 0,0 15,16.5 15,16.5 0,0 -12,1.5 -12,1.5 -3.735,-11.505 -7.5,-14.61 -19.5,-16.5 0,0 12,12 12,12 -5.73,-0.06 -13.98,-0.375 -16.905,-6.42 -1.56,-3.225 -0.585,-6.54 -3.675,-11.445 -4.755,-7.545 -9.915,-10.05 -5.325,-21 2.415,-5.73 13.86,-12.84 21.405,-27.135 0,0 -37.485,24.255 -37.485,24.255 0,0 -31.515,30.615 -31.515,30.615 -8.04,6.06 -38.85,15.36 -49.5,15.615 -34.29,0.81 -34.92,-29.925 -70.500003,-29.985 -19.785,-0.03 -49.56,2.28 -55.5,-22.5 9.54,4.5 15.54,13.635 27,15.12 8.28,1.08 18.825,-2.415 27,-2.985 9.990003,-0.69 20.610003,1.8 30.000003,5.19 21.285,7.665 21.975,22.095 42,21.66 29.31,-0.66 47.145,-16.665 65.745,-37.485 0,0 18.39,-22.245 18.39,-22.245 13.5,-12.96 34.785,-19.875 42.615,-40.755 4.185,-11.145 -5.16,-14.67 -2.745,-27 0,0 11.43,-33 11.43,-33 1.575,-6.405 0.045,-9.015 0,-15 -0.765,-8.385 4.08,-25.08 5.865,-34.5 0,0 4.56,-31.5 4.56,-31.5 2.685,-11.43 11.76,-31.665 17.64,-42 -5.22,1.05 -12.015,2.385 -16.35,5.55 -11.985,8.775 -20.43,42.72 -22.185,57.45 -1.245,10.47 3.27,10.725 -3.99,26.865 -2.85,6.345 -5.85,7.305 -8.55,13.515 -4.155,9.57 0.555,22.755 -16.425,19.62 -0.645,6.795 -0.615,9.645 -7.5,12 0.555,-11.22 4.29,-19.995 9,-30 -6.495,6.165 -6.945,12.9 -10.5,21 0,0 -3,0 -3,0 -2.34,-9.075 1.02,-12.72 4.5,-21 0,0 -12,4.5 -12,4.5 3.105,-9.135 6.105,-9.48 11.385,-16.5 0,0 7.56,-13.365 7.56,-13.365 5.655,-7.815 12.18,-12.45 15.465,-22.635 1.41,-4.35 4.575,-26.055 4.8,-31.08 0.315,-7.395 -0.66,-8.835 0.93,-17.055 1.005,-5.235 0.57,-11.52 4.125,-15.585 5.49,-6.285 28.86,-19.485 36.735,-24.705 5.97,-3.96 9.69,-8.85 16.5,-11.445 0,0 31.5,-9.585 31.5,-9.585 11.88,-6.12 22.17,-16.215 31.5,-25.545 -7.95,-2.85 -11.16,-4.095 -15,-12 z m 51,70.5 c 0,0 -1.5,0 -1.5,0 0,0 1.5,1.5 1.5,1.5 0,0 0,-1.5 0,-1.5 z m -169.5,126 c 0,0 -4.5,12 -4.5,12 5.25,-3.51 4.425,-6.075 4.5,-12 z m 165,0 c 0,0 -6,6 -6,6 4.605,-1.605 4.395,-1.395 6,-6 z m -154.5,180 c 0,0 -1.5,0 -1.5,0 0,0 1.5,1.5 1.5,1.5 0,0 0,-1.5 0,-1.5 z"
     style="fill:#000000;stroke:none" />
</svg>
