<?xml version="1.0" encoding="UTF-8" standalone="no"?>
<svg
   xmlns:dc="http://purl.org/dc/elements/1.1/"
   xmlns:cc="http://creativecommons.org/ns#"
   xmlns:rdf="http://www.w3.org/1999/02/22-rdf-syntax-ns#"
   xmlns:svg="http://www.w3.org/2000/svg"
   xmlns="http://www.w3.org/2000/svg"
   xmlns:sodipodi="http://sodipodi.sourceforge.net/DTD/sodipodi-0.dtd"
   xmlns:inkscape="http://www.inkscape.org/namespaces/inkscape"
   width="100mm"
   height="100mm"
   viewBox="0 0 566.90005 566.89991"
   version="1.1"
   id="svg55"
   sodipodi:docname="chamule.svg"
   inkscape:version="1.0.1 (3bc2e813f5, 2020-09-07)">
  <metadata
     id="metadata61">
    <rdf:RDF>
      <cc:Work
         rdf:about="">
        <dc:format>image/svg+xml</dc:format>
        <dc:type
           rdf:resource="http://purl.org/dc/dcmitype/StillImage" />
        <dc:title></dc:title>
      </cc:Work>
    </rdf:RDF>
  </metadata>
  <defs
     id="defs59" />
  <sodipodi:namedview
     pagecolor="#ffffff"
     bordercolor="#666666"
     borderopacity="1"
     objecttolerance="10"
     gridtolerance="10"
     guidetolerance="10"
     inkscape:pageopacity="0"
     inkscape:pageshadow="2"
     inkscape:window-width="2056"
     inkscape:window-height="997"
     id="namedview57"
     showgrid="false"
     inkscape:zoom="1.153349"
     inkscape:cx="470.48408"
     inkscape:cy="229.26543"
     inkscape:window-x="668"
     inkscape:window-y="872"
     inkscape:window-maximized="0"
     inkscape:current-layer="svg55"
     inkscape:document-rotation="0"
     fit-margin-top="0"
     fit-margin-left="0"
     fit-margin-right="0"
     fit-margin-bottom="0" />
  <path
     id="Sélection #17"
     fill="none"
     stroke="#000000"
     stroke-width="1.5"
     d="m 437.17618,99.433481 c 0.36,-3.21 0.51,-7.515 1.68,-10.44 1.14,-2.865 3.735,-5.28 3.21,-7.77 -1.005,-4.725 -8.97,-3.48 -11.49,-9.135 -3.525,-7.86 3.45,-27.09 7.62,-34.155 2.205,-3.735 4.86,-7.65 9.48,-8.445001 12.69,-2.19 17.55,25.950001 23.13,29.355001 2.55,1.575 6.87,0.84 9.87,1.05 3.945,0.105 11.265,1.56 14.745,0 10.575,-4.38 12.09,-19.86 21.255,-24.96 -1.515,18.45 -8.19,26.625 -8.595,31.44 -0.765,8.895 14.31,10.095 14.865,19.575 0.195,3.27 -7.5,21.974999 -10.035,24.224999 0,0 -10.98,6.585 -10.98,6.585 -3.57,2.85 -5.94,6.75 -10.77,7.56 -5.445,0.93 -10.755,-2.505 -14.985,-5.385 -2.025,5.58 -3.945,8.22 1.5,12 0,0 -3,6 -3,6 0,0 10.5,3 10.5,3 0,0 0,3 0,3 0,0 -10.5,1.5 -10.5,1.5 5.745,4.815 12.63,7.755 15,15 0,0 -7.5,-4.5 -7.5,-4.5 0,0 6,7.5 6,7.5 -3.195,11.41503 0.18,22.90503 0,34.50003 -0.285,17.22 -7.095,8.22 -4.5,25.5 -7.185,2.925 -7.77,3.06 -6,10.5 0,0 -4.5,-1.5 -4.5,-1.5 0,0 4.5,12 4.5,12 0,0 -7.5,-1.5 -7.5,-1.5 0,0 6,6 6,6 0,0 -4.5,6 -4.5,6 0,0 -1.185,33 -1.185,33 1.05,7.38 7.05,14.475 6.465,21 -0.48,5.37 -3.51,8.715 -8.28,10.5 0,0 1.5,7.5 1.5,7.5 0,0 -7.5,-4.5 -7.5,-4.5 0,0 -1.5,9 -1.5,9 0,0 -5.61,1.35 -5.61,1.35 0,0 -19.89,18.51 -19.89,18.51 0,0 -16.5,9.45 -16.5,9.45 0,0 -10.485,5.64 -10.485,5.64 0,0 -2.865,10.05 -2.865,10.05 0,0 -5.16,25.5 -5.16,25.5 0,0 7.545,13.5 7.545,13.5 0,0 4.305,18 4.305,18 0,0 -1.65,25.5 -1.65,25.5 0,0 3.48,19.5 3.48,19.5 0,0 4.365,16.5 4.365,16.5 0,0 -4.275,16.5 -4.275,16.5 0,0 -1.515,13.245 -1.515,13.245 0,0 -22.245,21.255 -22.245,21.255 -1.905,-0.405 -3.885,-0.675 -5.685,-1.485 -4.47,-2.025 -8.055,-8.355 -5.145,-12.945 3.45,-5.445 11.085,-5.025 16.83,-17.07 0,0 -6,-1.5 -6,-1.5 0,0 10.5,-16.5 10.5,-16.5 -13.335,-4.56 -12.405,-11.475 -17.205,-22.5 -4.23,-9.72 -8.985,-10.545 -11.745,-16.635 -4.755,-10.455 1.14,-13.98 -8.55,-26.865 -2.385,10.425 -3.72,10.695 -7.425,19.5 0,0 -12.945,40.5 -12.945,40.5 -0.6,6.93 4.26,15 5.085,22.5 0.96,8.535 -1.29,13.485 3.555,22.365 5.16,9.48 14.385,8.085 19.02,11.535 3.84,2.865 4.815,6.795 6.21,11.1 -12.555,6.51 -13.83,6.87 -27,2.82 -3,-0.915 -7.62,-2.1 -10.035,-4.08 -3.9,-3.195 -3.105,-7.23 -6.195,-13.74 -7.155,-15.015 -12.18,-15.21 -12.405,-34.5 0,0 0,-12 0,-12 -1.17,-8.655 -4.05,-11.085 -2.415,-22.5 0,0 5.1,-24.855 5.1,-24.855 0,0 5.505,-11.4 5.505,-11.4 2.715,-10.89 -6.18,-12.66 -3.555,-25.245 0,0 -4.5,-3 -4.5,-3 0,0 10.5,-1.5 10.5,-1.5 0,0 -9,-6 -9,-6 0,0 10.5,0 10.5,0 0,0 -6,-4.5 -6,-4.5 0,0 0,-4.5 0,-4.5 0,0 6,-1.5 6,-1.5 0,0 -1.5,-4.5 -1.5,-4.5 0,0 -6,3 -6,3 0,0 10.5,-13.5 10.5,-13.5 0,0 -7.5,1.5 -7.5,1.5 0,0 3,-9 3,-9 -13.245,-0.84 -10.365,2.97 -21,6 0,0 0,-7.5 0,-7.5 0,0 -3,3 -3,3 0,0 -1.5,0 -1.5,0 0,0 -4.5,-4.5 -4.5,-4.5 0,0 0,6 0,6 4.02,1.38 5.37,1.485 4.5,6 0,0 -4.5,-4.5 -4.5,-4.5 0,0 -1.5,19.5 -1.5,19.5 -6.285,-2.58 -5.715,-8.91 -6,-15 0,0 -10.5,12 -10.5,12 0,0 -7.5,-3 -7.5,-3 0,0 1.5,6 1.5,6 -4.86,-3.255 -4.305,-4.92 -4.5,-10.5 0,0 -3,0 -3,0 0,7.89 2.625,17.985 -6,21 0,0 1.5,-10.5 1.5,-10.5 0,0 -6,0 -6,0 0,0 4.5,-18 4.5,-18 0,0 -3,0 -3,0 0,0 -4.5,19.5 -4.5,19.5 0,0 -9,1.5 -9,1.5 0,0 -1.5,4.5 -1.5,4.5 -11.535,-4.035 -0.855,-9.99 -9,-19.5 0,0 -3,21 -3,21 -5.595,-3.75 -4.47,-7.275 -4.5,-13.5 0,0 -4.5,-3 -4.5,-3 -8.475,3.135 -10.26,-1.245 -9,-9 -9.78,8.325 -4.5,13.185 -11.145,20.67 -3.75,4.23 -7.86,4.53 -12.435,8.445 -5.925,5.1 -21.075,23.925 -25.89,30.885 -2.865,4.155 -8.97,11.91 -8.895,16.92 0,0 4.125,22.08 4.125,22.08 1.53,11.655 1.215,32.685 7.935,41.79 4.92,6.66 11.28,5.025 17.49,10.185 4.035,3.345 7.86,10.305 1.575,13.635 -2.28,1.2 -4.8,0.915 -7.26,0.75 -3.45,-0.24 -7.335,-0.585 -10.485,-2.07 -5.58,-2.61 -17.745,-15.15 -19.905,-20.79 -1.98,-5.16 -0.015,-9.87 -4.11,-18 -2.805,-5.595 -5.715,-8.19 -10.2,-12 1.185,-6.12 1.875,-11.79 0,-18 -3.21,-13.665 -15.72,-26.595 1.2,-36 0,0 -1.5,-4.5 -1.5,-4.5 0,0 6,-1.5 6,-1.5 0,0 -3,-6 -3,-6 0,0 4.5,-3 4.5,-3 0,0 -4.5,-1.5 -4.5,-1.5 0,0 0,-3 0,-3 0,0 7.5,-1.5 7.5,-1.5 -8.97,-11.46 -0.75,-8.925 -1.5,-22.5 0,0 -31.5,22.5 -31.5,22.5 -7.2,5.19 -9.075,8.61 -17.999998,10.5 8.519998,11.805 25.454998,28.215 23.999998,43.5 -10.185,-6.21 -16.755,-9.165 -25.034998,-18.255 -2.505,-2.745 -6.614996,-9.72 -10.799996,-9.105 -4.89,0.72 -6.87,14.13 -7.83,18.36 -0.87,3.795 -1.29,8.565 -2.715,12 0,0 -5.595,10.5 -5.595,10.5 -3.705,8.265 -5.145,21.57 -1.485,30 8.715,20.025 26.654996,1.335 29.459996,25.5 -5.46,1.725 -11.144996,5.685 -16.499996,5.355 -17.7,-1.08 -25.215,-15.015 -31.5,-29.355 -2.01,-4.56 -5.4,-10.125 -5.67,-15 0,0 9.045,-43.5 9.045,-43.5 2.445,-15.06 -1.815,-24.12 7.125,-37.5 -2.82,-3.15 -3.96,-5.49 -6.165,-9 -6.9,-11.01 -7.29,-9.15 -7.335,-22.5 0,0 -6,0 -6,0 0,0 3,-9 3,-9 -7.185,-2.985 -3.57,-13.425 -2.04,-19.5 0,0 9.3,-24.735 9.3,-24.735 0,0 6.345,-7.035 6.345,-7.035 0,0 4.155,-7.995 4.155,-7.995 3.9,-4.83 5.295,-2.31 7.74,-9.735 0,0 16.5,-7.5 16.5,-7.5 0,0 -1.5,-7.5 -1.5,-7.5 0,0 1.5,-1.5 1.5,-1.5 17.099994,1.725 14.834996,-19.8 28.499994,-13.5 0,0 4.5,-7.5 4.5,-7.5 18.855,0.33 10.545,-16.575 30,-26.43 17.955,-9.12 39,-9.3 58.5,-10.995 0,0 18,-1.35 18,-1.35 0,0 18,0 18,0 0,0 13.5,2.64 13.5,2.64 0,0 27,2.04 27,2.04 9.435,1.83 13.575,8.565 37.5,8.595 10.83,0.015 24.48,0.495 34.5,-4.14 11.64,-5.385 18.345,-16.62 39,-17.085 3.735,0.18 13.65,0.87 16.47,0 10.77,-4.47 13.155,-23.01 16.11,-32.775 0,0 7.275,-19.50003 7.275,-19.50003 0,0 -3.6,-33 -3.6,-33 -0.72,-7.695 0.495,-9.765 0.975,-16.5 0.345,-5.01 -0.825,-10.005 -1.23,-15 0,0 7.5,-1.5 7.5,-1.5 0,0 -6,-5.999999 -6,-5.999999 0,0 6,1.5 6,1.5 z m -322.5,214.500029 c 0,0 -13.5,-1.5 -13.5,-1.5 0,0 -4.499998,9 -4.499998,9 0,0 -3,0 -3,0 0,0 -4.499996,-6 -4.499996,-6 0,0 -7.5,15 -7.5,15 0,0 -3,0 -3,0 0,0 -4.5,-6 -4.5,-6 0,0 -1.5,16.5 -1.5,16.5 -7.935,1.365 -7.305,4.725 -7.5,12 0,0 -4.5,-1.5 -4.5,-1.5 -1.74,6.15 -1.17,22.59 1.275,28.44 1.725,4.125 13.11,18.165 16.725,21.06 3.765,-8.67 4.5,-11.265 13.499996,-15 0,0 -1.499996,-6 -1.499996,-6 0,0 5.999996,0 5.999996,0 0.525,-6.405 0.555,-8.625 7.499998,-9 0,0 1.5,-1.5 1.5,-1.5 -3.33,-9.21 -3.195,-12.63 7.5,-13.5 0,0 -1.5,-7.5 -1.5,-7.5 0,0 -7.5,1.5 -7.5,1.5 0,0 2.88,-15 2.88,-15 0,0 0,-10.5 0,-10.5 0,0 7.62,-10.5 7.62,-10.5 z m 166.5,60 c -2.775,-3.66 -2.94,-3.09 -7.5,-3 0.51,6.21 0.435,7.365 6,10.5 -1.215,-4.29 -2.025,-4.59 1.5,-7.5 z m 57,15 c 0,0 -1.5,0 -1.5,0 0,0 1.5,1.5 1.5,1.5 0,0 0,-1.5 0,-1.5 z"
     style="fill:#000000;stroke:none" />
</svg>
