<?xml version="1.0" encoding="UTF-8" standalone="no"?>
<svg
   xmlns:dc="http://purl.org/dc/elements/1.1/"
   xmlns:cc="http://creativecommons.org/ns#"
   xmlns:rdf="http://www.w3.org/1999/02/22-rdf-syntax-ns#"
   xmlns:svg="http://www.w3.org/2000/svg"
   xmlns="http://www.w3.org/2000/svg"
   xmlns:sodipodi="http://sodipodi.sourceforge.net/DTD/sodipodi-0.dtd"
   xmlns:inkscape="http://www.inkscape.org/namespaces/inkscape"
   width="100mm"
   height="100mm"
   viewBox="0 0 566.90023 566.90003"
   version="1.1"
   id="svg3"
   sodipodi:docname="cheval.svg"
   inkscape:version="1.0.1 (3bc2e813f5, 2020-09-07)">
  <metadata
     id="metadata9">
    <rdf:RDF>
      <cc:Work
         rdf:about="">
        <dc:format>image/svg+xml</dc:format>
        <dc:type
           rdf:resource="http://purl.org/dc/dcmitype/StillImage" />
        <dc:title></dc:title>
      </cc:Work>
    </rdf:RDF>
  </metadata>
  <defs
     id="defs7" />
  <sodipodi:namedview
     pagecolor="#ffffff"
     bordercolor="#666666"
     borderopacity="1"
     objecttolerance="10"
     gridtolerance="10"
     guidetolerance="10"
     inkscape:pageopacity="0"
     inkscape:pageshadow="2"
     inkscape:window-width="3840"
     inkscape:window-height="2066"
     id="namedview5"
     showgrid="false"
     inkscape:zoom="1"
     inkscape:cx="173.34217"
     inkscape:cy="162.00832"
     inkscape:window-x="-11"
     inkscape:window-y="-11"
     inkscape:window-maximized="1"
     inkscape:current-layer="svg3" />
  <path
     id="Sélection"
     fill="none"
     stroke="#000000"
     stroke-width="1.089"
     d="m 472.59732,69.809218 c 2.56212,-3.295819 5.15898,-3.615202 8.61436,-5.750641 0,0 14.58333,-9.50268 14.58333,-9.50268 2.10433,-1.062097 6.08925,-2.877918 8.3158,-1.338533 3.64772,2.538248 -1.2354,9.872465 -2.73776,12.550446 5.95906,-4.638364 10.29858,-7.133715 18.02208,-6.07539 0.10085,8.218453 -2.16052,9.201221 -6.62015,15.818208 -2.16208,3.221501 -4.72733,5.303637 -4.05453,9.483712 0.70805,4.401791 7.97769,19.01931 10.91105,22.85058 3.15914,4.12431 8.25001,8.90955 9.78744,13.95235 0.84242,2.74101 0.16388,5.87367 0.17463,8.74962 -8.0249,4.26086 -0.3884,10.18706 -0.90831,22.87689 0,0 2.26462,-0.89503 2.26462,-0.89503 0,0 5.74454,20.17946 5.74454,20.17946 0,0 2.67738,8.88113 2.67738,8.88113 0,0 -3.77022,5.23433 -3.77022,5.23433 4.15122,1.28144 3.52936,4.26602 3.67504,7.97365 -6.55466,2.57484 -12.77064,12.27392 -20.47774,10.52834 -5.42388,-1.22881 -2.50351,-6.7452 -11.45765,-7.85653 -4.87558,-9.62003 -10.58446,-18.71173 -19.69446,-24.78871 0,0 -8.59347,-5.23379 -8.59347,-5.23379 -3.90794,-1.93791 -6.80124,-1.22906 -12.2931,-5.92914 -6.61117,-5.65066 -6.81205,-10.22671 -11.75024,-15.63262 0,0 -13.36766,41.46371 -13.36766,41.46371 -2.25483,15.40212 5.24456,21.02118 10.3255,34.79132 1.63493,4.42822 1.09495,5.10247 2.10472,8.92942 1.77381,6.71414 3.00499,6.63602 2.0207,14.38786 0,0 -3.29776,17.20204 -3.29776,17.20204 0,0 -0.41482,11.98847 -0.41482,11.98847 -1.09142,6.97725 -9.11732,18.49661 -13.01798,25.09691 3.05795,1.03274 22.69154,3.52661 26.12226,3.42228 4.68169,-0.15884 9.54317,-2.24779 14.05728,-0.36616 3.01536,1.26952 17.09432,11.65102 18.75662,14.26699 4.90445,7.6658 8.55595,33.40123 12.14965,43.55408 0,0 13.56372,28.51567 13.56372,28.51567 2.30539,6.76065 -0.35439,8.29887 -2.61164,13.98259 0,0 -2.38278,8.49308 -2.38278,8.49308 0,0 -6.46667,13.68904 -6.46667,13.68904 -1.95759,2.75841 -7.60364,9.56675 -11.45069,7.55764 -4.84066,-2.52237 -5.35475,-15.13868 -4.95788,-19.9248 0.28242,-3.35315 0.58083,-10.13743 1.94174,-12.94803 3.00281,-6.2088 6.50474,-4.50318 8.02507,-13.50898 0,0 -8.25838,6.9296 -8.25838,6.9296 0,0 0.66438,-7.59399 0.66438,-7.59399 0,0 -4.62416,2.87492 -4.62416,2.87492 0,0 3.78323,-18.25273 3.78323,-18.25273 0,0 -5.61411,1.69515 -5.61411,1.69515 0,0 1.58107,-9.70011 1.58107,-9.70011 -0.31453,-5.52611 -5.89913,-20.41162 -9.61629,-24.53009 -3.39849,-3.76265 -4.71415,-3.59353 -8.22042,-5.99916 -2.02097,-1.39022 -5.3625,-4.92925 -7.56001,-5.17616 -1.93809,-0.21333 -5.52881,1.84472 -7.42309,2.63004 0,0 -13.55263,4.96879 -13.55263,4.96879 3.61749,3.50852 6.55205,5.95158 11.34401,7.78099 3.64879,1.40146 7.20562,0.98023 9.87087,4.25239 3.56231,4.38915 9.46042,18.68991 8.0522,24.41511 -1.08345,4.38717 -7.47806,10.25549 -10.39817,14.39452 0,0 -16.2129,22.63107 -16.2129,22.63107 0,0 -8.451,14.37903 -8.451,14.37903 -2.87658,3.89141 -5.23167,3.6963 -8.76488,5.84679 -4.31837,2.62838 -4.99705,6.01246 -8.77449,7.95575 -4.39743,2.28258 -7.11556,-0.0104 -17.59684,3.83882 -3.48983,1.27976 -11.70796,6.12495 -14.60755,2.65738 -1.99873,-2.39398 -1.23667,-6.48132 -0.539,-9.20784 2.06181,-8.07297 6.71928,-15.07712 13.72983,-19.86398 3.02184,-2.05312 8.66079,-1.65816 10.147,-5.02625 0.86095,-1.96888 -1.24155,-6.17566 -1.98483,-8.17558 0,0 10.84856,0.94913 10.84856,0.94913 3.40437,-3.80151 5.20808,-2.80197 10.04844,-2.40036 0,0 -2.78,-5.70901 -2.78,-5.70901 11.38257,0.8428 12.44214,-4.77079 17.44973,-13.77759 1.63458,-2.9397 4.07723,-5.99455 3.84842,-9.50174 -0.25783,-3.92514 -3.49089,-8.32921 -6.30462,-10.90381 -5.40399,-4.95474 -7.04712,-2.79193 -12.68052,-4.74962 0,0 -6.33639,-2.54392 -6.33639,-2.54392 -8.16194,-2.4194 -26.72383,-4.91789 -35.57436,-5.71407 -3.55738,-0.32217 -6.64325,-0.28606 -9.601,-2.58903 -3.96016,-3.0903 -6.02457,-8.85696 -10.0075,-10.81237 -1.92875,-0.94489 -19.63954,-0.17688 -22.95146,0.069 -9.0329,0.66363 -18.07587,10.56357 -25.16239,12.72021 0,0 -13.31155,2.21325 -13.31155,2.21325 0,0 -14.71911,5.80685 -14.71911,5.80685 0,0 -11.08679,1.77387 -11.08679,1.77387 -9.20687,2.27721 -21.66842,6.27016 -31.12958,5.9562 0,0 -15.29334,-0.12459 -15.29334,-0.12459 -0.39673,4.5347 -0.55317,8.69689 -2.59265,12.89109 0,0 -5.46758,8.26693 -5.46758,8.26693 -7.01889,10.75479 -16.43651,23.56256 -13.08239,37.20349 1.27558,5.16199 7.4501,11.43035 10.66648,16.14998 0,0 21.29251,30.26314 21.29251,30.26314 0,0 8.89579,9.77499 8.89579,9.77499 3.95395,5.91011 3.16456,15.30781 5.02136,22.07294 1.97072,7.21237 7.0574,12.79525 4.35052,22.24382 -2.10671,7.33663 -5.88484,7.91341 -10.48769,13.29352 0,0 -11.05448,16.52342 -11.05448,16.52342 0,0 -2.16971,-0.18983 -2.16971,-0.18983 -3.95764,-7.86718 -8.97107,-23.53352 -6.84946,-32.28995 1.43899,-5.95207 9.37563,-8.32949 6.95591,-15.65765 -1.75427,-5.3132 -8.10783,-3.03778 -12.10823,-2.29461 0,0 0.7593,-8.67885 0.7593,-8.67885 0,0 -4.52925,1.79007 -4.52925,1.79007 0.66536,-5.85579 0.57199,-12.16056 -1.73596,-17.64244 0,0 -3.91896,7.30926 -3.91896,7.30926 -1.81669,-9.47267 2.08997,-12.26824 -0.21717,-17.50956 -2.66989,-6.09292 -8.53751,-10.24649 -13.38388,-14.45283 -4.89681,-4.25447 -10.72241,-10.26274 -16.33644,-13.19165 0,0 -15.16349,-6.6066 -15.16349,-6.6066 -1.87384,-2.19722 -1.03855,-5.62225 -1.76544,-9.18395 -1.86687,-9.14911 -3.91721,-18.32519 -4.40753,-27.71461 0,0 -31.40414,22.08909 -31.40414,22.08909 -3.77974,2.71923 -10.75492,5.72734 -12.80758,8.07295 -3.30293,3.76666 -5.78268,11.86865 -5.58532,16.8598 0,0 1.07138,7.74585 1.07138,7.74585 0.27397,3.74071 0.082,7.30948 1.00362,11.0194 0,0 3.55842,9.0566 3.55842,9.0566 1.74166,5.08253 0.37693,7.062 1.33992,11.04883 0.55914,2.35548 5.53169,12.36661 6.92427,14.81687 0,0 15.40736,22.68645 15.40736,22.68645 3.54942,3.78678 7.20499,4.86088 9.4641,8.15217 0,0 8.50619,22.22479 8.50619,22.22479 -8.45074,0.50685 -19.06185,0.0923 -27.1214,-2.37282 -2.91122,-1.0855 -6.69534,-1.68986 -8.52837,-4.35356 -1.88957,-2.76704 -2.70136,-18.85285 -7.1005,-22.29857 -3.66264,-2.86751 -8.67921,3.49306 -10.97622,5.88288 0.28688,-5.52815 0.34056,-7.14133 -4.57007,-10.23827 3.29749,-5.95345 1.83795,-5.76412 -0.0408,-12.02832 0,0 -1.17977,0.98994 -1.17977,0.98994 0,0 -2.0748,-1.27468 -2.0748,-1.27468 0.94597,-2.19101 2.57065,-5.14251 2.97514,-7.39183 0.37045,-2.11018 -0.1533,-5.3699 -0.21435,-7.67087 -0.5177,-20.07198 -10.489722,-36.41263 -25.557015,-49.24182 0,0 -2.359538,1.97988 -2.359538,1.97988 -2.097421,-11.13696 5.980483,-16.62845 12.836281,-24.01964 0,0 14.610032,-21.67815 14.610032,-21.67815 2.19028,-3.04412 8.27774,-9.64987 9.30791,-12.30358 2.02917,-5.20081 -2.50948,-18.67209 -3.83523,-24.38505 -2.74048,-11.78353 -2.81926,-24.25244 -1.77143,-36.22926 -14.188067,5.9845 -34.583891,17.70062 -46.157554,27.66338 -4.681375,4.02866 -11.315471,9.63553 -14.355173,15.14148 -3.703475,7.47022 0.04393,11.49295 -1.42274,16.26199 -2.45536,6.57371 -8.185981,5.60228 -6.12474,19.15196 0,0 -4.149599,-2.54936 -4.149599,-2.54936 0,0 1.315499,9.95353 1.315499,9.95353 -6.180119,2.54202 -2.855798,7.40227 1.343707,10.1309 5.203409,3.37398 15.19777,3.34105 21.479087,3.89059 -2.7259,6.16743 -7.708655,4.76952 -13.492836,4.28533 -0.02882,5.45235 0.481876,5.73752 4.66498,9.15341 0,0 -1.695149,-5.6141 -1.695149,-5.6141 0,0 4.339424,0.37965 4.339424,0.37965 -1.255173,12.47245 -4.7292,7.94892 -10.238268,4.57006 0,0 2.21053,12.21816 2.21053,12.21816 0,0 -6.129486,-4.9089 -6.129486,-4.9089 0.101503,6.08685 2.475734,8.43716 5.370185,13.58775 0,0 -10.184172,-8.54312 -10.184172,-8.54312 0,0 2.780005,5.70902 2.780005,5.70902 0,0 -4.244511,-1.46451 -4.244511,-1.46451 -1.59468,5.10765 -1.266774,5.85782 0.13573,10.94347 0,0 -11.553766,-5.38346 -11.553766,-5.38346 0,0 -0.664389,7.59399 -0.664389,7.59399 -4.110011,-3.3767 -6.578899,-6.01951 -9.255695,-10.65914 -2.382253,-4.13286 -2.436107,-5.76638 -3.605494,-10.14294 -0.966509,-3.57174 -1.937347,-6.09442 -1.768831,-9.89481 0.798525,-17.74864 16.43664,-23.81397 21.865223,-38.63234 0,0 2.264526,-9.64031 2.264526,-9.64031 0,0 2.961559,-8.48618 2.961559,-8.48618 3.592093,-11.81981 6.500043,-24.19139 15.014014,-33.66756 4.457342,-4.96651 28.558372,-26.54672 33.905581,-30.18918 6.824635,-4.66102 13.880923,-6.72192 20.398933,-12.2515 0,0 15.17709,-13.79057 15.17709,-13.79057 0,0 8.08434,-12.31225 8.08434,-12.31225 3.56682,-4.15897 18.4192,-13.98792 23.37791,-16.1886 0,0 24.84918,-9.14018 24.84918,-9.14018 5.58033,-2.05885 11.71881,-5.24948 17.73515,-4.91989 0,0 22.06852,-0.22277 22.06852,-0.22277 16.06942,-0.12454 17.81252,1.31789 34.2712,-4.38049 10.7883,-3.73487 30.82747,-15.37288 38.87742,-23.29363 7.76205,-7.62892 13.06553,-16.89405 19.35081,-25.63602 0,0 9.34318,-11.20733 9.34318,-11.20733 -9.02787,1.85561 -12.06816,3.12004 -20.61226,-1.80334 8.08445,-1.81791 17.06131,-6.21411 22.93098,-12.20488 0,0 -5.23445,-2.64428 -5.23445,-2.64428 0,0 3.53931,-2.96983 3.53931,-2.96983 -7.53064,1.73518 -7.87169,1.76 -15.2829,-0.24392 3.09569,-7.02053 10.30828,-12.9922 15.81155,-18.29354 0,0 -12.31306,3.29538 -12.31306,3.29538 0,0 14.25213,-12.96417 14.25213,-12.96417 0,0 -0.98994,-1.17977 -0.98994,-1.17977 0,0 -14.95734,8.52984 -14.95734,8.52984 0.45822,-11.11014 4.25131,-8.73408 10.86733,-17.63295 5.02999,-6.76385 4.01899,-11.82618 13.67717,-13.01448 0,0 -4.81399,5.04463 -4.81399,5.04463 5.63784,-1.09183 7.55771,-5.66818 14.84629,-7.26056 4.9034,-1.06864 13.86999,-2.09881 18.63333,-0.56705 2.36092,0.75314 3.16278,1.70875 6.34114,2.48968 0,0 9.76371,0.85421 9.76371,0.85421 0,0 0.19741,-2.2565 0.19741,-2.2565 0,0 -10.84856,-0.94913 -10.84856,-0.94913 0,0 -8.43017,-3.60162 -8.43017,-3.60162 0,0 -13.18627,0.78124 -13.18627,0.78124 5.60423,-11.578172 8.35327,-9.763512 18.78138,-14.754233 -10.6061,-1.846168 -8.74693,-1.355563 -17.83226,3.905679 1.14639,-2.982415 2.53605,-6.621306 5.51992,-8.240485 2.29595,-1.253034 5.63663,-0.578156 7.54718,-2.673846 1.72788,-1.882107 0.226,-4.58243 3.0382,-6.238492 2.47765,-1.455768 6.41746,-0.007 10.62192,-2.208071 4.05584,-2.126633 7.27373,-8.294747 15.93429,-5.951965 7.8484,2.129618 17.55012,14.063049 26.02326,14.9246 0,0 -10.99853,-11.729871 -10.99853,-11.729871 0,0 -10.55148,-4.344725 -10.55148,-4.344725 0,0 -11.28991,-8.399362 -11.28991,-8.399362 6.48427,-3.26969 8.14929,-0.434847 14.10313,1.233864 0,0 6.3848,1.990637 6.3848,1.990637 3.07056,1.263414 5.24938,3.848056 8.28547,2.506734 3.48101,-1.553821 4.08264,-6.431336 5.44939,-9.558446 2.35969,12.012572 2.28304,20.510648 17.81898,21.235835 0,0 -0.42047,-7.688905 -0.42047,-7.688905 0,0 -1.36959,3.159655 -1.36959,3.159655 -5.16883,-3.644241 -10.98255,-1.79165 -10.08926,-9.627973 0,0 2.16971,0.189825 2.16971,0.189825 0,0 -0.18982,2.169711 -0.18982,2.169711 0,0 6.41422,1.654332 6.41422,1.654332 0,0 3.53931,-2.969829 3.53931,-2.969829 0,0 -15.89319,-5.763113 -15.89319,-5.763113 2.55493,-3.088747 4.17557,-2.870438 7.97364,-3.675036 0,0 -0.18983,2.169712 -0.18983,2.169712 0,0 17.16787,3.688313 17.16787,3.688313 0,0 0.89503,2.264625 0.89503,2.264625 0,0 1.08486,0.09491 1.08486,0.09491 -0.0952,-1.910429 -1.28767,-7.272853 -0.69603,-8.412636 1.72393,-3.336355 8.12027,-0.852787 9.5647,7.002224 4.05357,0.398368 4.55952,0.737786 5.04463,4.813988 0,0 2.96983,3.539304 2.96983,3.539304 3.69652,0.356198 3.55359,0.365557 5.13955,3.729132 0,0 5.42428,0.474563 5.42428,0.474563 z m 28.77573,-4.041408 c 0,0 -1.08486,-0.09491 -1.08486,-0.09491 0,0 0.98995,1.179768 0.98995,1.179768 0,0 0.0949,-1.084856 0.0949,-1.084856 z m -50.28303,-0.02656 c 0,0 -1.08485,-0.09491 -1.08485,-0.09491 0,0 0.98994,1.179768 0.98994,1.179768 0,0 0.0949,-1.084856 0.0949,-1.084856 z m 0.98995,1.179769 c 0,0 -1.17977,0.989944 -1.17977,0.989944 0,0 4.33942,0.37965 4.33942,0.37965 0,0 -3.15965,-1.369594 -3.15965,-1.369594 z m -2.64428,5.234455 c -2.09083,-3.965257 -3.23101,-3.802651 -7.40417,-2.8341 0,0 -0.18982,2.169712 -0.18982,2.169712 0,0 7.59399,0.664388 7.59399,0.664388 z m -66.09458,18.266989 c 1.23509,-1.247462 2.71401,-2.408002 3.44979,-4.070821 1.78373,-4.019815 -2.18308,-7.034175 -5.6831,-7.886968 -4.88146,-1.181352 -7.63982,0.359173 -10.21549,4.309702 0,0 12.4488,7.648087 12.4488,7.648087 z m 18.02208,-6.075391 c 0,0 -10.84856,-0.949126 -10.84856,-0.949126 0,0 10.65874,3.118838 10.65874,3.118838 0,0 0.18982,-2.169712 0.18982,-2.169712 z m -7.26844,8.109373 c -3.04518,0.695566 -5.67106,1.471536 -8.84399,1.128346 -5.77279,-0.61437 -7.65749,-3.687062 -13.13786,0.22797 6.69452,1.44929 17.2704,5.14026 21.98185,-1.356316 z m -39.96312,19.460035 c -1.42394,-5.59038 -6.56303,-5.70111 -11.38194,-3.84894 0,0 -6.10932,3.35716 -6.10932,3.35716 -7.61184,3.66296 -10.9593,3.31544 -15.20343,11.84244 0,0 13.13217,-0.16287 13.13217,-0.16287 0,0 9.10216,-4.07916 9.10216,-4.07916 0,0 21.8243,0.44455 21.8243,0.44455 -2.13466,-6.71293 -7.16113,-0.36416 -19.24267,-4.963 0,0 7.87873,-2.59018 7.87873,-2.59018 z m -9.39733,19.94788 c -4.75929,-2.95252 -9.26993,1.9984 -12.50289,5.46509 8.75153,0.67823 11.04232,-0.64086 17.03214,-7.25515 0,0 -4.52925,1.79006 -4.52925,1.79006 z m 12.63862,5.47837 c -4.04501,0.37853 -6.24835,0.44812 -9.0585,3.58013 4.52194,-0.45705 5.51214,-0.65464 9.0585,-3.58013 z m -7.36335,9.19423 c -4.2537,1.63926 -13.73907,6.97482 -16.23202,10.60464 6.46883,-1.71875 13.48185,-4.03486 16.23202,-10.60464 z m -17.54752,0.65111 c 0,0 -3.63422,4.05469 -3.63422,4.05469 0,0 -1.97989,-2.35954 -1.97989,-2.35954 0,0 -2.54936,4.1496 -2.54936,4.1496 0,0 -3.44439,1.88497 -3.44439,1.88497 5.63175,-0.27249 10.67861,-1.48162 11.60786,-7.72972 z m 3.71585,20.00197 c 0,0 -1.08485,-0.0949 -1.08485,-0.0949 0,0 0.98994,1.17977 0.98994,1.17977 0,0 0.0949,-1.08486 0.0949,-1.08486 z m -1.17977,0.98995 c 0,0 -1.08485,-0.0949 -1.08485,-0.0949 0,0 0.98994,1.17977 0.98994,1.17977 0,0 0.0949,-1.08485 0.0949,-1.08485 z M 114.06911,319.38413 c 0,0 -1.08484,-0.0949 -1.08484,-0.0949 0,0 0.98993,1.17977 0.98993,1.17977 0,0 0.0949,-1.08486 0.0949,-1.08486 z m 7.09288,56.3717 c 0,0 -1.08486,-0.0949 -1.08486,-0.0949 0,0 0.98994,1.17977 0.98994,1.17977 0,0 0.0949,-1.08485 0.0949,-1.08485 z m -75.261269,48.07348 c 0,0 -1.179768,0.98994 -1.179768,0.98994 0,0 5.42428,0.47457 5.42428,0.47457 0,0 -4.244512,-1.46451 -4.244512,-1.46451 z m -2.8341,7.40417 c -3.713955,4.09143 -5.010171,8.5365 -3.403576,13.9133 0,0 3.403576,-13.9133 3.403576,-13.9133 z m -12.123242,1.12567 c 0,0 -3.634218,4.05469 -3.634218,4.05469 0,0 3.634218,-4.05469 3.634218,-4.05469 z m -5.993755,6.03457 c -2.727144,4.05753 -3.112042,12.08044 0.840935,15.37781 -1.996214,-7.17087 -1.472104,-8.16351 -0.840935,-15.37781 z m 1.925791,15.47272 c 0,0 -1.084856,-0.0949 -1.084856,-0.0949 0,0 0.989944,1.17977 0.989944,1.17977 0,0 0.09491,-1.08486 0.09491,-1.08486 z"
     style="fill:#000000;stroke:none" />
</svg>
