<?xml version="1.0" encoding="UTF-8" standalone="no"?>
<svg
   xmlns:dc="http://purl.org/dc/elements/1.1/"
   xmlns:cc="http://creativecommons.org/ns#"
   xmlns:rdf="http://www.w3.org/1999/02/22-rdf-syntax-ns#"
   xmlns:svg="http://www.w3.org/2000/svg"
   xmlns="http://www.w3.org/2000/svg"
   xmlns:sodipodi="http://sodipodi.sourceforge.net/DTD/sodipodi-0.dtd"
   xmlns:inkscape="http://www.inkscape.org/namespaces/inkscape"
   width="100mm"
   height="100mm"
   viewBox="0 0 566.90006 566.89992"
   version="1.1"
   id="svg81"
   sodipodi:docname="chiard.svg"
   inkscape:version="1.0.1 (3bc2e813f5, 2020-09-07)">
  <metadata
     id="metadata87">
    <rdf:RDF>
      <cc:Work
         rdf:about="">
        <dc:format>image/svg+xml</dc:format>
        <dc:type
           rdf:resource="http://purl.org/dc/dcmitype/StillImage" />
        <dc:title></dc:title>
      </cc:Work>
    </rdf:RDF>
  </metadata>
  <defs
     id="defs85" />
  <sodipodi:namedview
     pagecolor="#ffffff"
     bordercolor="#666666"
     borderopacity="1"
     objecttolerance="10"
     gridtolerance="10"
     guidetolerance="10"
     inkscape:pageopacity="0"
     inkscape:pageshadow="2"
     inkscape:window-width="3840"
     inkscape:window-height="2066"
     id="namedview83"
     showgrid="false"
     inkscape:zoom="1.6310818"
     inkscape:cx="688.05532"
     inkscape:cy="253.96655"
     inkscape:window-x="-11"
     inkscape:window-y="-11"
     inkscape:window-maximized="1"
     inkscape:current-layer="svg81"
     inkscape:document-rotation="0" />
  <path
     id="Sélection #11"
     fill="none"
     stroke="#000000"
     stroke-width="1.5"
     d="m 349.2967,277.32896 c 13.95,-3.915 12.45,3.225 22.5,4.23 0,0 12,-1.08 12,-1.08 4.905,0.66 6.915,4.335 13.5,5.685 0,0 33,0 33,0 2.355,10.29 4.71,8.895 1.5,19.665 0,0 -13.5,10.5 -13.5,10.5 0,0 0,-9 0,-9 0,0 -4.5,0 -4.5,0 0,0 0,4.5 0,4.5 -11.88,-1.86 -20.79,-4.575 -24,10.5 9.03,1.71 15.195,7.155 24,4.5 0,0 1.5,13.5 1.5,13.5 -12.525,5.76 -12.825,-0.345 -24,-4.35 0,0 -16.065,-3.75 -16.065,-3.75 -3.27,-1.08 -6.075,-3.795 -9.69,-3.36 -14.88,1.8 -21.045,26.445 -34.245,30.96 0,0 0,7.5 0,7.5 0,0 -7.5,0 -7.5,0 0,0 -3,3 -3,3 0,0 3,6 3,6 0,0 -6,-4.5 -6,-4.5 0,0 3,19.5 3,19.5 0,0 -4.5,-1.5 -4.5,-1.5 -2.19,9.51 -1.74,27.555 4.11,35.55 4.275,5.865 16.485,11.655 22.89,15.495 3.93,2.355 13.995,9.135 17.01,12.27 0,0 5.94,6.45 5.94,6.45 7.755,6.555 8.925,1.695 16.05,15.735 -10.98,2.625 -10.26,0.57 -19.5,-4.125 0,0 -7.245,-3.495 -7.245,-3.495 -6.3,-3.99 -5.28,-6.99 -13.755,-5.88 0,0 -9.21,-12.48 -9.21,-12.48 0,0 -20.595,-8.535 -20.595,-8.535 0,0 -10.695,-7.485 -10.695,-7.485 -1.35,-11.685 -10.035,-17.535 -18,-25.5 -3.525,8.25 -8.25,13.44 -16.5,17.22 -4.155,1.92 -11.34,3.33 -14.355,6.12 -3.585,3.33 -4.965,10.935 -5.19,15.66 -0.195,4.11 -0.09,12.765 1.38,16.44 4.53,11.28 18.855,13.89 28.665,18.06 0,0 1.5,6 1.5,6 -6.69,0.15 -14.82,2.1 -21,1.185 -11.025,-1.635 -9.18,-6.81 -24.00005,-5.685 0,0 1.5,4.5 1.5,4.5 -8.64,-1.62 -27.3,-7.455 -33.525,-13.185 -2.085,-1.905 -2.79,-3.885 -3.975,-6.315 0,0 -7.725,3 -7.725,3 0.36,-2.79 0.795,-6.36 0,-8.97 -3.165,-7.485 -19.56,-13.92 -26.77499,-18.03 3.10499,-9.39 7.19999,-9.54 2.99999,-18 -4.39499,5.58 -10.24499,10.125 -16.49999,13.545 -9.36,5.13 -13.665,1.05 -25.5,5.28 -5.565,1.98 -10.5,4.995 -14.145,9.735 -5.655,7.35 -10.485,27.525 -4.08,35.46 3.645,4.53 7.785,1.92 12.225,3.765 4.59,1.905 7.71,6.33 10.5,10.215 0,0 -10.5,0 -10.5,0 -4.065,11.55 -20.085,0.945 -27,-3 0.045,-9.06 -2.37,-10.95 -9,-16.5 2.19,-1.575 4.725,-3.045 6.48,-5.115 3.555,-4.215 8.175,-17.805 8.4,-23.385 -0.075,-6.57 -3.42,-17.565 0,-23.52 4.05,-6.48 24.12,-14.355 31.62,-19.875 3.42,-2.52 8.19,-6 8.475,-10.605 0.18,-2.73 -2.85,-9.21 -3.975,-12 0,0 -7.5,3 -7.5,3 0,0 1.5,-6 1.5,-6 0,0 -1.5,1.5 -1.5,1.5 0,0 -3,-1.5 -3,-1.5 0,0 -6,12 -6,12 0,0 1.5,-9 1.5,-9 0,0 -4.5,7.5 -4.5,7.5 0,0 -7.5,3 -7.5,3 0,0 -1.5,-6 -1.5,-6 0,0 -4.5,12 -4.5,12 0,0 -1.5,-9 -1.5,-9 0,0 -6,16.5 -6,16.5 0,0 1.5,-6 1.5,-6 0,0 -6,0 -6,0 0,0 -3,10.5 -3,10.5 0,0 -16.5,9 -16.5,9 0,0 -1.5,-4.5 -1.5,-4.5 -6.045,2.265 -13.11,4.815 -19.5,3 0,0 6,-6 6,-6 0,0 -21,9 -21,9 0,0 -3,-3 -3,-3 0,0 0,-1.5 0,-1.5 0,0 28.5,-8.94 28.5,-8.94 0,0 34.5,-27.66 34.5,-27.66 0,0 37.5,-13.44 37.5,-13.44 0,0 22.5,-12.465 22.5,-12.465 0,0 32.98499,-11.145 32.98499,-11.145 0,0 8.145,-4.635 8.145,-4.635 0,0 12.87,-8.715 12.87,-8.715 0,0 25.5,-5.325 25.5,-5.325 0,0 39.00005,-6.975 39.00005,-6.975 0,0 24,3.825 24,3.825 0,0 21,8.475 21,8.475 0,0 -1.5,-4.5 -1.5,-4.5 7.155,-4.785 9.135,-6.21 9,-15 0,0 6,1.5 6,1.5 0,0 6,-7.5 6,-7.5 0,0 -4.5,-1.5 -4.5,-1.5 0,0 7.5,-3 7.5,-3 -1.875,-4.86 -0.525,-5.82 1.5,-10.5 0,0 -6,3 -6,3 0,0 -1.5,-7.5 -1.5,-7.5 -10.065,2.835 -13.77,0.45 -22.5,-4.5 12.75,-7.575 26.7,-5.625 40.5,-4.5 0,0 -1.5,-6 -1.5,-6 z m -93,127.5 c 0,0 -24.00005,-10.365 -24.00005,-10.365 -13.77,-5.895 -18.405,-13.545 -37.5,-3.135 3.21,6.24 14.595,19.08 11.985,25.5 -3.21,7.905 -11.265,12.42 -17.895,16.815 -3,1.98 -5.88,4.455 -4.335,8.445 0.9,2.325 6.33,7.125 8.325,9.3 8.43,9.18 18.42,17.01 30.42,21.165 5.52,1.92 6.075,-0.27 15.00005,2.775 -0.075,-5.49 0.99,-8.22 -4.50005,-10.5 0,0 4.33505,-7.755 4.33505,-7.755 0,0 -1.755,-10.245 -1.755,-10.245 0,0 0,-18 0,-18 0,0 19.92,-24 19.92,-24 z m -177.00004,7.5 c 0,0 -4.5,9 -4.5,9 0,0 4.5,-9 4.5,-9 z"
     style="fill:#000000;stroke:#f4e3d7" />
</svg>
