<?xml version="1.0" encoding="UTF-8" standalone="no"?>
<svg
   xmlns:dc="http://purl.org/dc/elements/1.1/"
   xmlns:cc="http://creativecommons.org/ns#"
   xmlns:rdf="http://www.w3.org/1999/02/22-rdf-syntax-ns#"
   xmlns:svg="http://www.w3.org/2000/svg"
   xmlns="http://www.w3.org/2000/svg"
   xmlns:sodipodi="http://sodipodi.sourceforge.net/DTD/sodipodi-0.dtd"
   xmlns:inkscape="http://www.inkscape.org/namespaces/inkscape"
   width="100mm"
   height="100mm"
   viewBox="0 0 1181.1031 1181.1023"
   version="1.1"
   id="svg3"
   sodipodi:docname="chrasme.svg"
   inkscape:version="1.0.1 (3bc2e813f5, 2020-09-07)">
  <metadata
     id="metadata9">
    <rdf:RDF>
      <cc:Work
         rdf:about="">
        <dc:format>image/svg+xml</dc:format>
        <dc:type
           rdf:resource="http://purl.org/dc/dcmitype/StillImage" />
        <dc:title></dc:title>
      </cc:Work>
    </rdf:RDF>
  </metadata>
  <defs
     id="defs7" />
  <sodipodi:namedview
     pagecolor="#ffffff"
     bordercolor="#666666"
     borderopacity="1"
     objecttolerance="10"
     gridtolerance="10"
     guidetolerance="10"
     inkscape:pageopacity="0"
     inkscape:pageshadow="2"
     inkscape:window-width="3840"
     inkscape:window-height="2066"
     id="namedview5"
     showgrid="false"
     units="mm"
     inkscape:zoom="3.2706813"
     inkscape:cx="281.43983"
     inkscape:cy="138.72001"
     inkscape:window-x="-11"
     inkscape:window-y="-11"
     inkscape:window-maximized="1"
     inkscape:current-layer="svg3" />
  <path
     id="Sélection"
     fill="none"
     stroke="black"
     stroke-width="0.7315"
     d="m 334.02914,418.20895 c 0.73881,-4.11103 -0.0512,-3.44536 0,-6.5835 0,0 1.82875,-9.5095 1.82875,-9.5095 1.72634,-4.06714 6.23238,-7.7539 9.59728,-10.44582 13.48886,-10.79694 18.08268,-9.66311 32.39082,-16.11494 5.77885,-2.60414 12.72078,-6.57619 19.019,-7.49788 0,0 15.3615,0.40964 15.3615,0.40964 0,0 21.2135,-2.07014 21.2135,-2.07014 0,0 15.3615,-0.68761 15.3615,-0.68761 0,0 19.019,-1.63125 19.019,-1.63125 0,0 39.501,-1.49226 39.501,-1.49226 0,0 8.0465,-0.70224 8.0465,-0.70224 6.59813,-0.0731 16.71477,0.8266 22.6765,3.69408 3.43805,1.65319 6.39331,5.1717 9.31199,7.73927 6.95657,6.10071 12.40624,9.43635 17.27072,17.89249 2.80164,4.87179 6.62007,16.89033 8.52929,22.61066 0,0 16.80987,-14.35203 16.80987,-14.35203 2.23107,-1.9531 4.05251,-4.37437 6.59813,-5.93978 4.57919,-2.81627 11.03102,-4.8279 16.093,-6.70785 15.15668,-5.63987 18.28018,-5.79348 33.649,-8.44883 0,0 13.167,-1.84338 13.167,-1.84338 0,0 32.186,3.97936 32.186,3.97936 5.00346,0.95827 11.69668,3.46731 16.8245,3.08693 13.47423,-1.00947 26.96309,0.90706 40.2325,3.38685 0,0 8.778,1.93116 8.778,1.93116 0,0 27.06548,4.21344 27.06548,4.21344 0,0 16.8245,2.12866 16.8245,2.12866 0,0 11.704,2.77239 11.704,2.77239 0,0 11.704,2.392 11.704,2.392 0,0 5.72764,1.63125 5.72764,1.63125 0,0 13.167,1.71171 13.167,1.71171 0,0 3.81843,1.52883 3.81843,1.52883 0,0 6.86147,1.82144 6.86147,1.82144 0,0 16.50996,2.42126 16.50996,2.42126 0,0 21.2135,3.88427 21.2135,3.88427 0,0 49.742,10.05812 49.742,10.05812 0,0 11.704,1.68977 11.704,1.68977 0,0 6.27627,1.74828 6.27627,1.74828 0,0 3.97204,0.43159 3.97204,0.43159 0,0 19.7432,3.88426 19.7432,3.88426 0,0 7.315,1.97505 7.315,1.97505 0,0 13.89852,2.70655 13.89852,2.70655 0,0 19.9553,3.13082 19.9553,3.13082 0,0 7.1102,1.52152 7.1102,1.52152 0,0 11.704,1.96042 11.704,1.96042 0,0 6.5835,1.84338 6.5835,1.84338 0,0 10.2409,2.00431 10.2409,2.00431 0,0 18.2875,4.83522 18.2875,4.83522 5.4204,1.34596 9.8899,1.92384 14.63,5.44236 7.7246,5.74227 14.0814,16.84644 18.6752,25.20017 0,0 8.3683,15.3615 8.3683,15.3615 0,0 2.4506,6.5835 2.4506,6.5835 0,0 6.1153,10.241 6.1153,10.241 0,0 3.8696,8.778 3.8696,8.778 0,0 6.0934,11.704 6.0934,11.704 4.0599,8.90236 4.5134,7.38815 7.6954,13.167 0,0 4.7182,9.5095 4.7182,9.5095 1.1192,2.01894 4.528,7.49788 4.506,9.5095 -0.022,1.71903 -1.6678,4.30854 -2.509,5.852 0,0 2.1945,0.7315 2.1945,0.7315 0,0 -2.926,5.1205 -2.926,5.1205 0,0 -8.778,5.1205 -8.778,5.1205 -3.5771,-4.19149 -5.3765,-2.56025 -10.241,-2.80164 0,0 -8.778,0 -8.778,0 0,0 -9.5095,0.60714 -9.5095,0.60714 0,0 -16.8245,0 -16.8245,0 0,0 -12.4355,-0.66566 -12.4355,-0.66566 0,0 -19.7505,2.73581 -19.7505,2.73581 0,0 -20.4819,2.1945 -20.4819,2.1945 0,0 -10.241,1.09725 -10.241,1.09725 -3.4673,0.61446 -5.1132,2.17255 -10.9725,3.09424 -6.0276,0.95095 -11.9015,-0.28528 -18.2875,2.42858 -9.50952,4.03788 -13.45962,10.27026 -18.41188,13.91313 -3.07961,2.26765 -15.28836,8.69754 -18.89465,9.48024 0,0 -12.4355,0 -12.4355,0 -5.43505,0.0366 -12.17948,-2.26765 -16.81719,-5.08392 -3.74528,-2.28228 -5.2668,-5.15708 -8.778,-4.84985 -5.50088,0.48279 -12.46476,11.37483 -18.29481,14.19842 -1.28013,0.61446 -10.16054,2.35543 -11.704,2.36274 0,0 -5.852,-0.60714 -5.852,-0.60714 -5.89589,-0.40233 -10.40925,-0.19019 -16.093,-2.91137 -4.49141,-2.15793 -4.00862,-4.2427 -11.704,-7.39547 -0.95827,-2.39932 -2.37738,-1.11919 -2.926,0.7315 -6.96388,4.07446 -5.20097,5.93247 -10.25563,8.49272 -4.27196,2.16524 -10.52629,4.05251 -15.34687,3.62824 0,0 -8.0465,-1.74829 -8.0465,-1.74829 -2.28228,-0.29991 -3.37222,-0.12435 -5.852,-0.81196 -5.14245,-1.4118 -10.23369,-5.86663 -11.704,-11.02371 0,0 -17.556,7.45399 -17.556,7.45399 -3.10156,1.19966 -5.09124,2.51636 -8.0465,0.59251 -1.6093,1.79949 -2.79433,1.44837 -5.1205,1.463 -9.82405,0.0658 -14.42518,-1.42642 -22.6765,-6.74443 -3.54044,-2.27496 -8.06111,-7.43935 -11.70398,-7.68806 -2.79433,-0.19019 -6.78101,2.72849 -9.5095,3.96473 -4.84985,2.20181 -11.49918,3.99399 -16.8245,3.87695 -4.80596,-0.10973 -12.78662,-0.80465 -16.8245,-3.32833 -4.87179,-3.04304 -7.1175,-8.59512 -13.167,-9.6558 -6.15192,-1.08262 -10.44582,4.05251 -12.58912,4.94494 -1.71902,0.71687 -13.96433,2.8748 -15.93938,2.86748 -9.78747,-0.0439 -24.6735,-13.97896 -32.9175,-19.69198 0,0 0,-2.926 0,-2.926 0,0 -2.926,0.7315 -2.926,0.7315 0,0 1.463,-3.6575 1.463,-3.6575 -6.59813,0.59983 -14.98112,-2.18718 -21.2135,-4.25001 -12.47208,-4.13298 -13.27673,-3.75991 -24.86369,-11.03102 0,0 -5.73496,-3.35027 -5.73496,-3.35027 -2.65534,-2.04089 -1.44837,-3.45268 -2.96257,-5.29606 -0.78271,-0.95827 -4.03057,-3.05767 -5.20828,-3.86964 -0.79734,-6.70785 -4.31585,-3.67213 -6.78832,-2.29691 0,0 -4.91568,2.29691 -4.91568,2.29691 2.90405,0.44622 3.16739,0.76808 5.1205,2.926 0,0 -5.1205,2.926 -5.1205,2.926 0,0 19.7505,8.17817 19.7505,8.17817 0,0 13.8985,7.4613 13.8985,7.4613 0,0 9.5095,3.37953 9.5095,3.37953 0,0 -1.463,0.7315 -1.463,0.7315 4.41826,0.40233 7.70269,2.05552 11.704,3.87695 1.97505,0.90706 3.74528,1.28744 4.389,3.43805 7.46861,0.77539 8.20743,2.94795 13.167,7.315 0.95826,5.2156 4.67428,6.91268 7.58565,10.9725 0,0 3.71602,6.5835 3.71602,6.5835 0,0 5.90321,8.778 5.90321,8.778 0,0 5.15707,8.57318 5.15707,8.57318 0,0 15.44928,23.73718 15.44928,23.73718 3.76723,6.18849 7.10287,12.96218 11.8503,18.47037 0,0 11.75521,14.84945 11.75521,14.84945 4.5865,5.10587 10.92129,9.48756 8.80726,17.02932 3.24786,1.76292 4.08177,4.30122 6.15191,7.315 4.44021,6.46646 9.07792,12.99144 7.74659,21.2135 2.16524,-1.05336 4.83521,-2.34811 7.315,-1.71902 2.31154,0.5852 4.86447,3.35027 6.64933,4.96688 0,0 12.36967,11.38214 12.36967,11.38214 5.58134,-4.90836 8.96087,-2.25302 13.8985,1.79949 5.93246,4.87179 11.39675,10.32878 16.82448,15.75651 4.16223,-2.64803 9.29736,-0.60714 13.04264,1.81412 8.79995,5.69107 11.83567,9.1657 19.14336,16.47338 3.14545,-2.57488 5.5594,-1.6605 8.778,0.44622 0,0 13.89118,11.25047 13.89118,11.25047 1.98968,1.60198 6.92731,6.09339 8.05382,1.29475 1.48494,-0.1975 2.05551,-0.48279 3.6575,0 2.2457,0.24871 15.31761,7.71733 18.2875,9.37783 6.37136,3.56241 8.27326,2.4871 14.63,4.27928 6.21043,1.74828 7.69538,3.66481 14.63,3.49657 5.69838,-0.13899 17.59257,2.1945 21.8499,5.98367 1.73366,1.54346 2.18719,2.77238 3.0211,4.83521 0,0 -1.463,2.1945 -1.463,2.1945 0,0 -4.389,-0.7315 -4.389,-0.7315 0,0 2.1945,2.1945 2.1945,2.1945 0,0 0,1.463 0,1.463 0,0 -1.463,0 -1.463,0 0,0 0,0.7315 0,0.7315 0,0 1.463,1.463 1.463,1.463 -3.42342,5.24486 -0.50474,6.16655 -3.26981,10.00692 -5.06929,7.02972 -8.71216,3.29907 -13.55469,6.08608 -0.98753,-4.84253 2.57488,-6.61276 5.1205,-10.9725 0,0 -7.32232,-4.03788 -7.32232,-4.03788 0,0 -5.11318,1.11188 -5.11318,1.11188 0.26334,-0.97289 1.29475,-3.43805 1.1704,-4.20612 -0.4389,-2.72118 -4.93763,-3.00647 -7.0224,-3.10888 0,0 0.7315,-2.926 0.7315,-2.926 0,0 -2.926,-3.6575 -2.926,-3.6575 -1.48495,0.26334 -4.57188,1.14846 -5.78617,1.00216 -1.7556,-0.21945 -2.72849,-1.47032 -4.52067,-2.05552 0,0 -7.24916,-0.93632 -7.24916,-0.93632 0,0 -17.556,-1.6093 -17.556,-1.6093 -2.56757,-0.15361 -10.27026,-0.65835 -12.33309,-1.54346 -3.1674,-1.36059 -2.45053,-3.9501 -1.56541,-6.56156 0,0 -29.25269,-9.54607 -29.25269,-9.54607 0,0 -5.85931,-5.08393 -5.85931,-5.08393 0,0 2.1945,-0.7315 2.1945,-0.7315 0,0 -9.5095,-5.47162 -9.5095,-5.47162 0,0 -6.5835,-4.23538 -6.5835,-4.23538 0,0 -8.77069,-2.20182 -8.77069,-2.20182 0,0 -7.4247,-7.64417 -7.4247,-7.64417 0,0 -19.64809,-6.35674 -19.64809,-6.35674 0,0 -10.241,-3.35027 -10.241,-3.35027 0.72418,-2.10672 1.38253,-3.62824 -0.84854,-5.13513 -1.43374,-0.95826 -6.74443,-1.79217 -8.66096,-2.12135 0,0 -16.72941,-2.98452 -16.72941,-2.98452 0,0 0,-2.88211 0,-2.88211 -0.45353,-4.52798 -6.45914,-2.83822 -9.26079,-4.65965 -2.45784,-1.60199 -3.45268,-6.56156 -4.0013,-9.28274 -6.42257,2.34812 -8.89504,0.0146 -7.315,-6.5835 -5.58135,-3.18202 -4.389,-6.72248 -4.389,-12.4355 0,0 -4.389,0.88512 -4.389,0.88512 -1.87264,0.50473 -9.93377,4.52067 -7.11018,-4.57188 0,0 1.25818,-3.62824 1.25818,-3.62824 -2.04089,-1.83606 -1.41911,-3.4161 -0.7315,-5.852 0,0 -2.926,-0.7315 -2.926,-0.7315 0,0 0,-5.1205 0,-5.1205 0,0 -2.926,0 -2.926,0 0,0 -0.7315,5.1205 -0.7315,5.1205 -0.5852,-1.93847 -1.04605,-4.43289 -2.96989,-5.48625 -2.76507,-1.52152 -7.2638,1.36059 -7.60029,-4.03788 -0.10972,-1.85069 0.32186,-2.31885 -0.51936,-4.34511 -0.67298,-1.62393 -6.59082,-7.18333 -8.08308,-8.07576 -1.08262,-0.65103 -2.9772,-1.06067 -4.23538,-1.463 0,0 1.06067,-10.241 1.06067,-10.241 -1.49957,-6.04219 -9.91182,-7.1687 -14.95917,-8.0465 0,-3.89889 0.95826,-12.26725 -1.68977,-15.1201 -3.44536,-3.70871 -7.93677,-1.63856 -9.51681,-6.12266 -1.13383,-3.24054 1.2216,-8.9755 1.14114,-10.94324 -0.10973,-2.56025 -1.79218,-3.94278 -2.65535,-5.852 -1.00947,-2.22376 -0.32186,-3.47462 -1.1704,-4.74743 -0.84854,-1.28744 -2.99183,-1.79218 -4.32316,-2.50173 0,0 -5.19365,-3.72334 -5.19365,-3.72334 -0.16093,-2.72118 -0.91438,-3.1235 -3.68676,-2.8309 -5.2668,0.55594 -9.29737,3.66481 -16.79524,4.2939 0,0 0,-2.926 0,-2.926 2.01894,-0.79002 3.10887,-5.91052 3.6575,-8.0465 0,0 -12.4355,4.93763 -12.4355,4.93763 -1.94579,0.64372 -4.38169,1.15577 -5.17902,-1.38985 -0.42427,-1.36059 0.54131,-4.84985 0.79002,-6.47378 -5.04735,0.0146 -7.57103,0.41696 -12.4355,1.78486 -1.66782,0.534 -3.78186,1.45569 -5.17171,0 -2.05551,-2.10672 -0.44621,-6.62739 0,-9.09986 -5.78616,0.95095 -10.90666,4.68892 -16.77329,4.32317 -1.53615,-0.0951 -4.72549,-0.42427 -5.08393,-2.33349 -0.35843,-1.92384 1.94579,-3.40147 2.88943,-7.84168 -4.08177,1.09725 -13.54007,5.10587 -16.94886,0.95095 -1.70439,-2.07014 0.60715,-4.50604 -2.26033,-7.16138 -2.97721,-2.75044 -5.2668,-0.76076 -7.12481,-5.49357 0,0 2.926,-1.463 2.926,-1.463 0,0 0.7315,-7.315 0.7315,-7.315 0,0 -3.6575,-2.1945 -3.6575,-2.1945 0,0 -1.0241,5.78617 -1.0241,5.78617 -1.18503,4.14029 -2.83822,2.4871 -2.34812,9.57533 0.0805,1.2655 0.10973,2.37006 0.70224,3.53315 1.06068,2.08477 4.35974,4.19881 6.32748,5.4643 5.80079,3.74528 6.27627,3.0723 11.69668,8.55855 0,0 10.27758,12.30383 10.27758,12.30383 5.04735,4.66697 13.15237,8.74874 18.75566,14.7251 4.33779,4.63771 3.24786,5.56671 5.59597,8.59512 3.77454,4.86448 10.37999,10.66527 15.85161,13.38645 0.64372,4.70355 8.62438,7.50519 12.06243,10.49703 4.35974,3.78917 4.95957,6.7298 7.35889,11.44797 0,0 3.59167,5.852 3.59167,5.852 0,0 4.52067,13.8985 4.52067,13.8985 1.23623,5.56672 0.70224,8.16354 1.09725,13.13774 0,0 1.36059,21.24276 1.36059,21.24276 0.0293,4.61577 2.47247,16.79524 5.33995,20.35033 4.17686,5.15708 7.03703,3.67945 12.09169,5.78617 0,0 8.17086,4.45483 8.17086,4.45483 0,0 16.093,8.17817 16.093,8.17817 -9.42904,0 -10.49703,0.25603 -19.7505,-2.73581 -4.00862,-1.30207 -12.24531,-4.47678 -15.3615,-7.0224 -12.37698,-10.13127 -15.6541,-31.46913 -16.75867,-46.56729 -0.4389,-5.94709 -1.58735,-18.00953 -3.4161,-23.408 0,0 -1.80681,-3.6575 -1.80681,-3.6575 -1.70439,-3.90621 0.13899,-3.97204 -3.68676,-8.07576 -6.21775,-6.67859 -9.4144,-7.04434 -13.8034,-11.07491 0,0 -15.4566,-17.08784 -15.4566,-17.08784 0,0 -30.65716,-23.62013 -30.65716,-23.62013 -2.41395,-2.17987 -4.18418,-3.43805 -6.45183,-5.97636 0,0 -5.88858,-7.0736 -5.88858,-7.0736 -3.29175,-3.19666 -6.7298,-4.38169 -8.14159,-9.0194 0,0 -3.38685,6.5835 -3.38685,6.5835 0,0 -6.85415,20.482 -6.85415,20.482 0,0 -10.9725,39.501 -10.9725,39.501 0,0 -3.85501,10.21174 -3.85501,10.21174 0,0 -3.52583,17.58526 -3.52583,17.58526 0,0 -2.12866,8.778 -2.12866,8.778 5.37652,0.56326 11.6089,4.79133 14.72509,9.09986 0,0 2.83822,6.386 2.83822,6.386 0,0 4.45484,5.72764 4.45484,5.72764 0,0 10.89935,19.019 10.89935,19.019 0,0 1.463,0 1.463,0 0,0 0.7315,-2.926 0.7315,-2.926 5.76422,0.92901 4.30122,3.2186 8.73411,6.88342 0,0 18.33139,15.42733 18.33139,15.42733 0,0 5.852,3.29175 5.852,3.29175 5.12781,-3.2186 11.72594,7.44667 14.35934,10.9725 0,0 8.20743,10.97982 8.20743,10.97982 1.0241,1.36059 2.96258,4.38168 4.35974,5.28143 1.85801,0.91437 2.926,-0.66567 5.25949,0 0,0 8.03918,5.4643 8.03918,5.4643 0,0 11.40409,11.29436 11.40409,11.29436 2.77238,1.65319 2.96989,-0.81928 9.08523,2.82359 0,0 -1.463,2.1945 -1.463,2.1945 0,0 2.926,0.7315 2.926,0.7315 0,0 -0.7315,-1.463 -0.7315,-1.463 0,0 20.482,14.63 20.482,14.63 -0.76808,7.76122 3.84037,3.91353 8.17085,5.63255 1.82875,0.7315 5.6545,4.08177 7.08824,5.54477 3.40879,3.5112 2.34811,5.60329 3.66481,9.30468 0,0 3.0211,6.72249 3.0211,6.72249 -1.17772,0.10972 -1.62393,0.39501 -2.926,0 -3.27712,-0.49742 -11.61622,-6.70786 -13.167,-9.64849 0,0 -0.7315,0.7315 -0.7315,0.7315 0,0 -1.463,-0.7315 -1.463,-0.7315 0,0 -0.7315,2.926 -0.7315,2.926 -6.75175,1.93116 -9.69238,14.63732 -19.7505,13.67174 -1.53615,-0.1463 -2.31154,-0.61446 -3.6575,-1.23624 0,0 4.389,-4.389 4.389,-4.389 -0.75345,-4.37437 1.82143,-6.77369 2.99183,-10.9725 0,0 0.66567,-7.315 0.66567,-7.315 0,0 -20.35765,-7.14675 -20.35765,-7.14675 0,0 -5.25217,-3.33564 -5.25217,-3.33564 0,0 -8.03918,-4.87911 -8.03918,-4.87911 0,0 4.389,-1.463 4.389,-1.463 0,0 0,-1.463 0,-1.463 0,0 -12.55986,-7.16138 -12.55986,-7.16138 0,0 -15.23714,-4.54262 -15.23714,-4.54262 -1.44106,1.45569 -1.68245,1.08994 -3.6575,0.7315 0,0 0,-1.463 0,-1.463 0,0 7.315,-2.926 7.315,-2.926 0,0 0,-1.463 0,-1.463 0,0 -16.8245,-8.27326 -16.8245,-8.27326 0,0 -5.852,-3.5112 -5.852,-3.5112 0,0 -13.167,-5.77154 -13.167,-5.77154 1.06067,-1.28012 4.84253,-4.46215 4.57187,-5.91052 -0.33649,-1.79949 -7.21259,-5.0254 -8.96087,-5.95441 0,0 -8.05382,-5.35458 -8.05382,-5.35458 0,0 -4.38168,-1.08993 -4.38168,-1.08993 -3.70139,-1.17772 -9.90451,-4.41826 -12.4355,-7.29306 0,0 3.6575,-5.852 3.6575,-5.852 -8.88041,-4.33048 -8.73411,-5.89589 -15.164,-11.39677 -3.46731,-2.96257 -7.56371,-5.69838 -9.707,-9.81673 0,0 2.926,-1.463 2.926,-1.463 -3.70139,-2.70655 -11.72595,-11.14806 -13.167,-15.3615 0,0 0.7315,0 0.7315,0 0,0 0.7315,-1.463 0.7315,-1.463 -6.06414,-0.80465 -10.78963,-4.389 -11.08954,-10.9725 0,0 0.45353,-4.389 0.45353,-4.389 0,0 0,-4.389 0,-4.389 0.26334,-2.88942 2.4871,-7.13212 2.36274,-9.5095 -0.16824,-3.05767 -2.8309,-4.90836 -1.77023,-10.241 0.63641,-3.17471 2.64072,-4.5353 2.84554,-7.315 0.38038,-2.70655 -1.40448,-4.38168 0,-10.23368 0.81928,-4.10372 2.44321,-4.29391 2.73581,-6.62008 0.28528,-2.26033 -2.21645,-7.08823 -1.95311,-10.17516 0.27797,-3.1674 2.77239,-3.16008 3.40148,-5.5082 0.4389,-1.6605 -1.5581,-10.73842 -2.10672,-12.81588 7.27842,-4.72549 1.97505,-5.17902 1.463,-16.093 6.81026,-1.14114 2.96257,-5.31069 5.13513,-9.48024 1.36059,-2.61877 6.55424,-5.09855 3.21128,-8.3903 -2.70655,-2.67729 -6.36405,-0.74613 -9.28273,0 -2.15061,0.55594 -3.41611,0.21945 -6.37868,1.28012 -7.47593,2.67729 -7.67344,3.86964 -11.83567,9.88257 0,0 -2.8748,3.84769 -2.8748,3.84769 -3.98667,7.14675 -0.97289,13.18894 -0.67298,20.40885 0,0 0,14.63731 0,14.63731 0,0 -1.92384,23.408 -1.92384,23.408 0.48279,4.81327 -0.50474,12.08438 -1.80681,16.78793 -0.46816,1.70439 -0.36575,4.54993 -2.0994,5.15707 0,0 0.7315,2.1945 0.7315,2.1945 0,0 -4.389,9.5095 -4.389,9.5095 0.76076,2.18719 0.62177,3.63556 2.926,4.389 3.75259,7.40278 2.56025,9.26811 4.96688,14.63 0,0 19.12873,33.649 19.12873,33.649 0,0 7.98798,13.77415 7.98798,13.77415 4.76938,6.59081 13.53275,6.90536 16.92691,12.55985 -10.13859,2.25302 -6.20312,-1.06067 -13.167,0 0,0 -0.7315,-2.1945 -0.7315,-2.1945 -1.82875,0.89243 -2.10672,1.47763 -3.6575,0 0,0 -1.463,0.7315 -1.463,0.7315 0,0 -4.84985,-7.43935 -4.84985,-7.43935 0,0 -2.6334,-4.96689 -2.6334,-4.96689 0,0 -7.20527,-10.27026 -7.20527,-10.27026 0,0 -5.76422,-10.9725 -5.76422,-10.9725 0,0 -10.95056,-12.64763 -10.95056,-12.64763 0,0 -5.74227,-16.61237 -5.74227,-16.61237 -3.30638,-10.72379 -1.98237,-15.08353 -1.47763,-25.6025 0.13898,-3.01378 2.41395,-6.91999 0.5852,-9.5095 1.48494,-3.7087 1.23623,-7.81242 1.90921,-11.76252 1.997,-11.66742 1.23624,-24.78322 1.1704,-36.64083 -0.0366,-6.06414 -0.57057,-5.10587 -1.38253,-10.11665 0,0 -0.65835,-7.315 -0.65835,-7.315 0,0 0,-10.241 0,-10.241 0.24139,-2.06283 1.67513,-5.4131 1.22892,-7.28574 -0.50474,-2.15061 -9.64849,-8.96087 -11.77715,-9.35588 -2.20182,-0.40964 -5.33995,2.30422 -6.79564,3.8038 0,0 -16.37828,14.43249 -16.37828,14.43249 -2.47979,2.62609 -3.77454,5.80811 -5.81543,8.64633 -1.62393,2.26034 -3.77454,3.99399 -4.8791,6.5835 0,0 -4.08177,17.556 -4.08177,17.556 0,0 -5.63255,24.1395 -5.63255,24.1395 0,0 -3.03573,14.63 -3.03573,14.63 -2.2457,8.44883 -3.98667,7.45399 -6.07145,11.17732 0,0 -3.58435,7.84168 -3.58435,7.84168 -1.77754,4.05251 -1.59467,8.90967 -2.62608,13.167 -0.89243,3.67213 -2.61877,5.58866 -4.14029,8.778 0,0 -2.17987,5.63987 -2.17987,5.63987 -1.12651,1.85069 -9.99961,9.23884 -12.23068,10.88472 0,0 -26.42178,17.85591 -26.42178,17.85591 0,0 0.7315,-1.463 0.7315,-1.463 0,0 -13.8985,7.49788 -13.8985,7.49788 -5.62524,2.37737 -8.95356,1.92384 -13.167,3.44536 0,0 -6.5835,3.11619 -6.5835,3.11619 -2.96258,1.39717 -9.17301,3.20397 -10.241,6.42257 0,0 -10.9725,-3.6575 -10.9725,-3.6575 2.75044,-4.43289 6.11534,-2.15792 10.241,-3.29175 3.05767,-0.83391 12.27457,-6.97119 15.58095,-9.03402 2.85285,-1.77755 4.44752,-1.58004 4.90105,-5.23023 0,0 13.8985,-8.64633 13.8985,-8.64633 11.3163,-5.49356 9.22421,-2.07746 21.945,-11.20658 1.38253,-0.98752 3.8038,-2.64071 4.92299,-3.78917 0,0 7.98798,-12.20142 7.98798,-12.20142 0,0 7.84168,-19.7505 7.84168,-19.7505 0,0 1.7044,-6.5835 1.7044,-6.5835 0,0 4.57919,-11.704 4.57919,-11.704 0,0 4.62308,-22.6765 4.62308,-22.6765 1.0753,-6.39331 1.97505,-5.59597 1.98968,-13.167 0.0146,-10.84083 -0.008,-6.99314 2.44321,-16.8245 0,0 1.62393,-7.08823 1.62393,-7.08823 1.30938,-2.42858 4.01593,-1.3167 6.1958,-4.69623 0,0 6.32748,-12.42087 6.32748,-12.42087 2.14329,-3.17471 12.83051,-12.20142 16.32708,-14.56417 0,0 1.463,1.463 1.463,1.463 0,0 6.5835,-10.241 6.5835,-10.241 0,0 -21.2135,13.8985 -21.2135,13.8985 1.09725,3.55509 -2.51636,4.78401 -4.99615,6.48109 0,0 -3.17471,2.45053 -3.17471,2.45053 0,0 -4.26464,2.45052 -4.26464,2.45052 0,0 -7.315,5.53014 -7.315,5.53014 -6.61276,5.04004 -9.93377,6.46646 -14.63,13.81072 -5.93247,-1.38253 -3.8989,1.10457 -8.0465,3.6575 0.80465,6.4372 -5.35458,4.12566 -8.778,10.9725 0,0 2.1945,0.7315 2.1945,0.7315 -2.20182,8.39031 -7.0224,5.01078 -12.40624,7.73196 -2.57488,1.30207 -3.27712,2.96257 -4.41826,5.43504 0,0 2.86016,0.89975 2.86016,0.89975 3.50389,1.41179 4.54262,3.73796 0.75345,5.80079 -3.13082,1.71171 -4.6304,1.0241 -7.2638,1.44837 -1.09725,0.18288 -2.392,0.49742 -2.99915,1.55078 -1.81412,3.16008 7.79048,2.94063 4.00131,7.38815 -3.56972,4.1915 -10.50434,1.08262 -13.44497,6.32016 4.02325,1.25818 3.82574,2.8748 5.1205,6.5835 0,0 -13.167,4.389 -13.167,4.389 0,0 0.7315,-2.1945 0.7315,-2.1945 -4.95226,7.315 6.76637,6.35674 5.59597,12.28189 -0.41695,2.12866 -3.13082,2.70655 -4.86447,3.40879 -4.0964,1.65319 -8.95356,2.98452 -12.4355,5.52282 0,0 0.7315,0 0.7315,0 0,0 0.7315,1.463 0.7315,1.463 0,0 -2.926,0.7315 -2.926,0.7315 0,0 0.7315,-2.926 0.7315,-2.926 -2.37006,2.57488 -7.04435,7.28574 -6.83221,10.9725 0,0 0.98021,4.389 0.98021,4.389 0,0 -12.4355,7.315 -12.4355,7.315 0,0 1.463,2.1945 1.463,2.1945 0,0 3.6575,0 3.6575,0 -0.76076,4.35974 -3.56241,4.06714 -8.0465,5.852 0,0 -15.3615,5.93978 -15.3615,5.93978 0,0 -9.5095,5.76422 -9.5095,5.76422 0,0 -0.7315,-0.7315 -0.7315,-0.7315 0,0 0,-1.463 0,-1.463 0,0 2.1945,-0.60714 2.1945,-0.60714 -1.77023,-1.93848 -5.23023,-3.00647 -6.33479,0 -0.81928,2.43589 3.26249,3.53314 1.06799,7.03703 -1.53615,2.45052 -6.7298,4.41094 -9.3632,5.71301 0,0 -16.8245,6.83953 -16.8245,6.83953 -7.11018,1.463 -9.58997,-0.25603 -13.8985,0.76807 0,0 2.1945,0.7315 2.1945,0.7315 -0.0585,1.12651 -0.10241,3.99399 -0.49742,4.90105 -0.64372,1.49226 -2.33349,1.96774 -3.55509,2.86748 -7.08092,5.25217 -7.19796,2.86748 -14.235,5.63255 -5.02541,1.97505 -11.74789,5.78617 -16.8245,6.97851 -4.65966,0.88512 -7.24917,2.12867 -11.704,0 1.23623,5.31069 4.51335,4.52067 8.778,3.75991 -2.8748,4.78401 -7.69538,2.75044 -11.704,0.7315 1.32401,5.12782 -1.60199,9.53876 -6.59081,11.1188 0,0 -9.50219,1.17772 -9.50219,1.17772 -3.52583,0.3438 -18.843435,1.99699 -21.05988,3.29175 -2.15061,1.25086 -3.445365,4.21344 -4.586505,6.35673 -3.0723,5.78617 -6.459145,10.55555 -5.07661,17.556 0,0 -5.852,1.463 -5.852,1.463 0,0 -2.926,3.6575 -2.926,3.6575 -2.026255,-4.37437 -2.926,-10.54091 -2.926,-15.3615 -1.543465,0.8266 -3.17471,2.35543 -4.542615,2.71387 -4.44752,1.17771 -8.57318,-2.16524 -14.476385,5.33263 0,0 -6.5835,-0.7315 -6.5835,-0.7315 1.19966,-3.54777 2.333485,-4.30853 4.19881,-7.315 2.201815,-3.55509 5.756905,-10.16785 9.18764,-12.4867 1.294755,-0.8778 3.39416,-1.36791 4.90105,-1.93116 0,0 5.852,-2.53099 5.852,-2.53099 0,0 11.704,-2.44321 11.704,-2.44321 8.258635,-2.05552 25.309895,-9.34857 30.722995,-15.71994 0,0 1.463,-0.7315 1.463,-0.7315 5.9471,-0.30723 4.69623,-3.38684 10.241,-5.97635 4.56456,-2.12867 4.63771,0.50473 8.77068,-1.77755 0,0 21.22082,-17.51211 21.22082,-17.51211 1.94579,-1.32401 4.8791,-2.61877 7.24916,-2.72118 2.31887,-0.16093 3.26982,0.90706 5.92516,0 4.65966,-1.50689 9.5095,-6.91999 14.62269,-9.47292 7.71732,-3.86232 8.08307,-6.84684 13.90581,-12.25994 2.72118,-2.50173 4.47678,-3.68676 6.57619,0 4.98883,-3.18934 17.24877,-13.7522 21.63777,-18.09731 1.94579,-1.93116 5.77153,-5.54477 6.89073,-0.94364 0,0 5.852,-0.7315 5.852,-0.7315 -0.67298,-7.0736 4.27927,-13.67173 7.23453,-19.7505 6.26896,-12.8744 5.1205,-8.31715 11.15538,-17.556 3.69407,-5.67644 4.08177,-8.25863 5.74227,-10.9725 0,0 3.69408,-5.1205 3.69408,-5.1205 0,0 10.35072,-17.556 10.35072,-17.556 0,0 8.95356,-22.66187 8.95356,-22.66187 0.9729,-1.70439 1.88727,-2.45052 3.34296,-3.67213 0,0 -1.463,-2.1945 -1.463,-2.1945 0,0 2.926,0 2.926,0 0.76076,-4.42557 6.04219,-7.23453 10.241,-5.852 0,0 -0.7315,0 -0.7315,0 0,0 -0.7315,1.463 -0.7315,1.463 0,0 4.389,-0.7315 4.389,-0.7315 0,0 -2.1945,-1.463 -2.1945,-1.463 3.83306,-0.62177 9.37783,-4.8791 10.32146,-8.778 0.40233,-1.19966 0.0951,-2.46515 0,-3.6575 6.08608,-3.60629 18.57279,-14.26425 23.01299,-19.87485 0,0 3.03573,-4.79133 3.03573,-4.79133 2.86748,-3.9501 9.72163,-12.35503 14.10332,-14.10332 0,0 -5.53746,-10.24831 -5.53746,-10.24831 0,0 1.19966,-16.81719 1.19966,-16.81719 0,0 -1.5142,-9.5095 -1.5142,-9.5095 0,0 -8.0465,-2.926 -8.0465,-2.926 0,0 1.463,-1.463 1.463,-1.463 -4.66697,-0.929 -7.35158,-3.48925 -11.43335,0.83391 -5.00346,5.31801 -8.29521,17.01469 -18.86538,21.27202 -1.76292,0.70956 -4.90837,0.59983 -7.00777,0.8778 -8.82921,1.1704 -26.26817,1.71903 -30.723,10.66527 6.60544,1.6093 8.50003,4.54262 12.73541,9.13644 1.72634,1.86532 2.7797,2.36274 4.2427,4.79132 1.05336,1.74097 3.93547,11.10417 4.14029,13.13774 0.48279,4.79864 -1.93116,7.76122 -1.37522,10.9725 0.34381,1.95311 1.98968,3.88427 1.49958,5.67644 -0.38038,1.39717 -1.67514,1.81412 -2.95526,1.34596 -4.27196,-1.55809 -3.91353,-7.20527 -2.926,-10.6799 -2.3408,-2.0994 -0.62909,-3.77454 -3.20397,-9.5095 -3.16008,-7.05897 -5.9983,-9.61922 -12.88903,-13.167 1.69708,2.3408 5.50819,6.16655 6.10071,8.778 0.53399,2.37006 -1.45569,6.20312 -1.79949,9.08523 0,0 -0.70224,7.73927 -0.70224,7.73927 -0.54131,2.53099 -1.56541,4.30122 -2.67729,6.5835 -3.41611,7.02972 -4.89374,9.88257 -12.62569,12.81588 -2.86748,1.08994 -3.44537,1.48495 -6.5835,1.81412 0,0 0,-2.926 0,-2.926 0,0 3.6575,-0.7315 3.6575,-0.7315 -3.56972,-5.92515 4.2427,-6.91999 5.61792,-10.32146 0.7315,-1.79218 -0.7315,-4.57188 -1.22892,-6.50304 7.63686,-4.23538 3.34295,-7.16138 2.0482,-9.88256 -1.74097,-3.67213 0.3438,-6.46646 -7.1687,-6.21044 -0.95095,-10.11664 -6.70786,-4.65234 -5.852,-13.167 0,0 -4.389,0 -4.389,0 3.5624,6.72249 6.13728,15.25909 3.05767,22.64724 -1.3167,3.16008 -2.6334,3.96473 -4.54262,6.62008 -2.2457,3.13813 -2.07746,3.67944 -5.09855,6.57618 1.11188,2.25302 -2.86748,5.09124 -4.389,6.57619 -4.12566,4.02325 -13.13774,9.97034 -18.2875,12.85245 -5.24486,2.93332 -11.05297,4.12566 -16.8245,5.53746 -4.11103,1.00947 -4.36706,2.37006 -13.167,3.95741 0,0 -11.704,1.19966 -11.704,1.19966 0,0 -15.36151,3.70871 -15.36151,3.70871 -9.19496,3.15276 -21.10378,13.62784 -24.1395,15.09084 -1.47763,0.70956 -3.50389,1.11188 -5.1205,1.55078 1.69708,-8.72679 1.84338,-5.54477 6.51766,-12.4355 0,0 16.51727,-22.6765 16.51727,-22.6765 2.08478,-3.03572 5.69107,-10.54823 9.15838,-11.91613 3.46001,-1.36059 12.24532,5.17902 17.51944,2.392 3.46731,-1.83606 3.5112,-5.57403 6.07876,-6.9273 3.15277,-1.65319 6.90536,0.37306 10.02887,-0.81197 4.26464,-1.61661 2.99183,-5.53014 4.82058,-6.59813 1.83607,-1.10456 5.15708,1.1704 8.36105,0 3.87695,-1.38253 3.99399,-5.25948 8.06113,-5.86663 2.01894,-0.29991 3.60629,0.68761 5.59597,-0.7315 2.77239,-1.97505 6.26896,-10.10933 7.77585,-13.43034 0.79002,-1.98968 1.47763,-3.58435 0,-5.53014 -3.46731,-4.86447 -6.59813,-3.37221 -11.19195,-2.18718 -8.96088,2.31885 -13.87656,2.44321 -19.7505,10.64332 -1.08994,-0.65103 -3.2186,-2.06283 -4.389,-2.28959 -3.97936,-0.77539 -6.78832,4.16223 -7.315,7.41009 0,0 -13.8985,-2.926 -13.8985,-2.926 0,0 -2.83091,5.56672 -2.83091,5.56672 0,0 -1.77754,4.25733 -1.77754,4.25733 0,0 -12.41357,0 -12.41357,0 0,0 -3.45999,14.31545 -3.45999,14.31545 0,0 -21.2135,-3.59166 -21.2135,-3.59166 0,0 -31.454495,3.82574 -31.454495,3.82574 0,0 -13.8985,-3.16008 -13.8985,-3.16008 6.810265,-0.1463 28.184695,-5.67644 34.380495,-8.75605 0,0 10.241,-5.6545 10.241,-5.6545 4.5353,-2.91137 5.56671,-4.27196 10.9725,-6.84684 0,0 8.0465,-3.1235 8.0465,-3.1235 0,0 27.06551,-11.56502 27.06551,-11.56502 0,0 13.19626,-6.07145 13.19626,-6.07145 6.53961,-2.32617 4.00862,1.1192 11.67474,-1.87264 0,0 0,-1.463 0,-1.463 -7.09555,-3.83306 -7.20528,-5.72033 -12.50134,-9.83867 0,0 -10.48239,-7.95141 -10.48239,-7.95141 -3.18203,-4.04519 0.19019,-8.0465 -7.73927,-11.46992 -0.51205,-7.2199 -4.22807,-8.84383 -6.41526,-13.8985 -1.31671,-3.04304 -0.10241,-3.57703 -1.63125,-8.0465 0,0 5.85201,-5.1205 5.85201,-5.1205 0,0 -6.54694,-4.33048 -6.54694,-4.33048 0,0 -5.68375,-1.30938 -5.68375,-1.30938 0,0 -6.78832,-6.79564 -6.78832,-6.79564 0,0 1.463,-2.1945 1.463,-2.1945 -7.24917,-2.80896 -6.22507,-0.21945 -10.241,-1.76291 -3.52583,-1.34596 -4.84253,-4.05251 -8.07576,-5.45699 0,0 -10.94324,-2.93332 -10.94324,-2.93332 -7.46861,-1.77754 -21.184235,-4.05982 -28.733315,-3.86232 -8.89504,0.23408 -21.045255,3.67213 -29.78668,5.72765 -6.93462,1.62393 -14.1911,1.14114 -21.2135,1.24355 -3.9501,0.0585 -6.08608,-0.25603 -8.0465,-3.92816 0,0 8.0465,1.463 8.0465,1.463 0,0 0,-2.1945 0,-2.1945 0,0 17.556,-3.67213 17.556,-3.67213 3.269805,-0.19019 5.32532,-0.81196 7.315,2.20913 5.142445,-0.95826 6.195805,0.13167 6.5835,-3.6575 3.6575,-0.16093 4.132975,-1.55809 7.315,-2.28959 3.49657,-0.80465 4.103715,0.5852 7.315,-2.09941 3.986675,1.03873 8.64633,1.05336 10.241,5.1205 0,0 8.046495,-2.1945 8.046495,-2.1945 0,0 -0.7315,-3.6575 -0.7315,-3.6575 0,0 5.852,1.44837 5.852,1.44837 0,0 17.556,3.67213 17.556,3.67213 0,0 -2.926,4.389 -2.926,4.389 0,0 8.78531,-1.44837 8.78531,-1.44837 0,0 10.775,4.95226 10.775,4.95226 0,0 3.9501,4.65234 3.9501,4.65234 0,0 11.29436,6.26164 11.29436,6.26164 0,0 5.42774,3.86963 5.42774,3.86963 0,0 3.6575,6.5835 3.6575,6.5835 0,0 0,-2.1945 0,-2.1945 1.5142,0.75345 3.37953,1.9019 5.1205,1.71903 3.24786,-0.34381 9.37051,-8.3391 9.9996,-11.22853 0.50474,-2.31154 -2.23839,-9.84599 -2.82359,-13.167 -1.38253,-7.90751 1.17772,-18.21435 6.85416,-24.01514 7.95872,-8.13428 19.12141,-9.48756 29.85983,-9.63386 5.39847,-0.0805 6.94193,-1.70439 11.704,-3.92815 4.35242,-2.04089 14.20573,-8.06113 17.4097,-11.33825 1.74828,-1.79218 1.93116,-2.69192 3.32101,-4.51336 2.38469,-3.10887 3.34295,-3.37953 4.87179,-7.28574 4.67428,-1.33133 4.5353,-3.29175 8.0977,-5.97635 0,0 5.55209,-3.61361 5.55209,-3.61361 0,0 8.29521,-5.97636 8.29521,-5.97636 2.18718,-1.47763 4.81327,-3.68676 7.315,-4.42557 1.18503,-0.34381 2.43589,-0.35844 3.6575,-0.49011 7.81242,-0.82659 6.4884,2.56757 11.82835,5.74959 0,0 6.45183,2.39932 6.45183,2.39932 1.7044,0.94364 9.99229,9.17301 11.33094,10.87009 4.66697,5.90321 3.92084,7.51982 5.79348,10.9725 0,0 6.24701,8.77069 6.24701,8.77069 2.72849,4.07445 1.16308,3.53314 5.23754,8.05381 z m 134.52285,-33.649 c -2.2896,-3.28443 -5.35458,-1.90921 -8.778,-1.49226 0,0 -6.5835,0 -6.5835,0 0,0 -10.9725,0.76076 -10.9725,0.76076 0,0 -7.315,0.66567 -7.315,0.66567 -14.25694,0.97289 -17.39507,1.38253 -31.4545,5.07661 -7.36621,1.93116 -12.06975,2.20913 -18.2875,7.42472 0,0 10.9725,-3.95741 10.9725,-3.95741 0,0 19.019,-4.54993 19.019,-4.54993 0,0 13.8985,-1.12651 13.8985,-1.12651 0,0 27.797,-2.80165 27.797,-2.80165 0,0 11.704,0 11.704,0 z m 351.85148,40.964 c 1.03141,-1.87995 8.07576,0.35112 10.241,0.62178 0,0 32.186,5.7569 32.186,5.7569 2.6334,0.37307 14.01554,3.45268 11.95271,-2.61877 -1.09725,-3.23323 -8.88041,-3.02841 -11.95271,-3.75991 0,0 -19.019,-3.5112 -19.019,-3.5112 0,0 -21.2135,-4.33779 -21.2135,-4.33779 0,0 -59.2515,-10.241 -59.2515,-10.241 0,0 -45.35298,-6.34211 -45.35298,-6.34211 -9.28274,-1.85069 -28.38952,-5.54477 -37.3065,-5.5594 0,0 -13.8985,0 -13.8985,0 -3.0723,0.0366 -12.72079,1.13383 -15.3615,2.1945 0,0 16.093,1.33865 16.093,1.33865 0,0 16.093,0.98021 16.093,0.98021 0,0 23.408,3.11619 23.408,3.11619 0,0 8.778,2.02625 8.778,2.02625 0,0 30.723,6.11534 30.723,6.11534 0,0 52.63872,9.29005 52.63872,9.29005 0,0 3.89158,1.6093 3.89158,1.6093 0,0 15.15668,1.85801 15.15668,1.85801 0,0 -1.463,0 -1.463,0 0,0 0,0.7315 0,0.7315 0,0 3.6575,0.7315 3.6575,0.7315 z m -435.24248,-28.5285 c 0,0 -2.926,2.1945 -2.926,2.1945 0,0 2.926,-2.1945 2.926,-2.1945 z m -5.1205,2.926 c 0,0 -0.7315,0 -0.7315,0 0,0 0.7315,0.7315 0.7315,0.7315 0,0 0,-0.7315 0,-0.7315 z m -1.463,0.7315 c 0,0 -0.7315,0 -0.7315,0 0,0 0.7315,0.7315 0.7315,0.7315 0,0 0,-0.7315 0,-0.7315 z m -3.6575,2.1945 c 0,0 -0.7315,0 -0.7315,0 0,0 0.7315,0.7315 0.7315,0.7315 0,0 0,-0.7315 0,-0.7315 z m 425.00148,18.2875 c 0,0 -3.6575,0.7315 -3.6575,0.7315 0,0 3.6575,-0.7315 3.6575,-0.7315 z m 7.315,1.463 c 0,0 -0.7315,0 -0.7315,0 0,0 0.7315,0.7315 0.7315,0.7315 0,0 0,-0.7315 0,-0.7315 z m 2.926,0.7315 c 0,0 -0.7315,0 -0.7315,0 0,0 0.7315,0.7315 0.7315,0.7315 0,0 0,-0.7315 0,-0.7315 z m 147.763,4.389 c 0,0 -0.7315,0 -0.7315,0 0,0 0.7315,0.7315 0.7315,0.7315 0,0 0,-0.7315 0,-0.7315 z m -727.11098,11.704 c -0.71687,3.42342 4.26464,3.72334 5.01077,9.5095 0.87049,6.68591 -5.9032,15.15668 -12.32577,16.53922 -2.56757,0.55594 -4.8279,0.16093 -7.315,-0.44622 2.57488,4.15492 6.81758,2.82359 10.9725,2.49442 11.74789,-0.92169 20.14551,-10.89204 12.09169,-21.51342 -2.392,-3.15276 -5.03272,-4.75475 -8.43419,-6.5835 z m -107.53051,12.4355 c 0,0 -0.7315,0 -0.7315,0 0,0 0.7315,0.7315 0.7315,0.7315 0,0 0,-0.7315 0,-0.7315 z m 138.98501,93.632 c 0,0 -0.7315,0 -0.7315,0 0,0 0.7315,0.7315 0.7315,0.7315 0,0 0,-0.7315 0,-0.7315 z m 129.4755,24.1395 c 0,0 -0.7315,0 -0.7315,0 0,0 0.7315,0.7315 0.7315,0.7315 0,0 0,-0.7315 0,-0.7315 z m 760.75991,0.7315 c 0,0 -0.7315,0 -0.7315,0 0,0 0.7315,0.7315 0.7315,0.7315 0,0 0,-0.7315 0,-0.7315 z m -867.55891,2.1945 c 0,0 -0.7315,0 -0.7315,0 0,0 0.7315,0.7315 0.7315,0.7315 0,0 0,-0.7315 0,-0.7315 z m 868.29041,0.7315 c 0,0 -0.7315,0 -0.7315,0 0,0 0.7315,0.7315 0.7315,0.7315 0,0 0,-0.7315 0,-0.7315 z m -772.46391,5.852 c 0,0 -0.7315,0 -0.7315,0 0,0 0.7315,0.7315 0.7315,0.7315 0,0 0,-0.7315 0,-0.7315 z m -2.1945,1.463 c 0,0 -0.7315,0 -0.7315,0 0,0 0.7315,0.7315 0.7315,0.7315 0,0 0,-0.7315 0,-0.7315 z m 688.34141,0.7315 c 0,0 -0.7315,0 -0.7315,0 0,0 0.7315,0.7315 0.7315,0.7315 0,0 0,-0.7315 0,-0.7315 z m -699.31391,2.1945 c 0,0 -0.7315,0 -0.7315,0 0,0 0.7315,0.7315 0.7315,0.7315 0,0 0,-0.7315 0,-0.7315 z m -71.687,16.093 c 0,0 -0.7315,0 -0.7315,0 0,0 0.7315,0.7315 0.7315,0.7315 0,0 0,-0.7315 0,-0.7315 z m 49.742,0 c 0,0 -0.7315,0 -0.7315,0 0,0 0.7315,0.7315 0.7315,0.7315 0,0 0,-0.7315 0,-0.7315 z m -131.67,0.7315 c 0,0 -0.7315,0 -0.7315,0 0,0 0.7315,0.7315 0.7315,0.7315 0,0 0,-0.7315 0,-0.7315 z m 129.4755,0.7315 c 0,0 -0.7315,0 -0.7315,0 0,0 0.7315,0.7315 0.7315,0.7315 0,0 0,-0.7315 0,-0.7315 z m 236.2745,0 c 0,0 -0.7315,0 -0.7315,0 0,0 0.7315,0.7315 0.7315,0.7315 0,0 0,-0.7315 0,-0.7315 z m -293.3315,60.7145 c 0,0 -0.7315,0 -0.7315,0 0,0 0.7315,0.7315 0.7315,0.7315 0,0 0,-0.7315 0,-0.7315 z m 373.7965,35.8435 c 0,0 -0.7315,0 -0.7315,0 0,0 0.7315,0.7315 0.7315,0.7315 0,0 0,-0.7315 0,-0.7315 z m 75.3445,48.279 c 0,0 -0.7315,0 -0.7315,0 0,0 0.7315,0.7315 0.7315,0.7315 0,0 0,-0.7315 0,-0.7315 z m -284.5535,16.8245 c 0,0 -0.7315,0 -0.7315,0 0,0 0.7315,0.7315 0.7315,0.7315 0,0 0,-0.7315 0,-0.7315 z m 73.8815,21.2135 c 0,0 -0.7315,0 -0.7315,0 0,0 0.7315,0.7315 0.7315,0.7315 0,0 0,-0.7315 0,-0.7315 z m 0.7315,0.7315 c 0,0 -0.7315,0 -0.7315,0 0,0 0.7315,0.7315 0.7315,0.7315 0,0 0,-0.7315 0,-0.7315 z m 81.1965,46.816 c 0,0 -0.7315,0 -0.7315,0 0,0 0.7315,0.7315 0.7315,0.7315 0,0 0,-0.7315 0,-0.7315 z"
     style="fill:#000000;stroke:none" />
</svg>
