<?xml version="1.0" encoding="UTF-8" standalone="no"?>
<svg
   xmlns:dc="http://purl.org/dc/elements/1.1/"
   xmlns:cc="http://creativecommons.org/ns#"
   xmlns:rdf="http://www.w3.org/1999/02/22-rdf-syntax-ns#"
   xmlns:svg="http://www.w3.org/2000/svg"
   xmlns="http://www.w3.org/2000/svg"
   xmlns:sodipodi="http://sodipodi.sourceforge.net/DTD/sodipodi-0.dtd"
   xmlns:inkscape="http://www.inkscape.org/namespaces/inkscape"
   width="100mm"
   height="100mm"
   viewBox="0 0 566.90005 566.8999"
   version="1.1"
   id="svg107"
   sodipodi:docname="cornicochon.svg"
   inkscape:version="1.0.1 (3bc2e813f5, 2020-09-07)">
  <metadata
     id="metadata113">
    <rdf:RDF>
      <cc:Work
         rdf:about="">
        <dc:format>image/svg+xml</dc:format>
        <dc:type
           rdf:resource="http://purl.org/dc/dcmitype/StillImage" />
        <dc:title></dc:title>
      </cc:Work>
    </rdf:RDF>
  </metadata>
  <defs
     id="defs111" />
  <sodipodi:namedview
     pagecolor="#ffffff"
     bordercolor="#666666"
     borderopacity="1"
     objecttolerance="10"
     gridtolerance="10"
     guidetolerance="10"
     inkscape:pageopacity="0"
     inkscape:pageshadow="2"
     inkscape:window-width="3840"
     inkscape:window-height="2066"
     id="namedview109"
     showgrid="false"
     inkscape:zoom="1.6310818"
     inkscape:cx="633.40311"
     inkscape:cy="272.8483"
     inkscape:window-x="-11"
     inkscape:window-y="-11"
     inkscape:window-maximized="1"
     inkscape:current-layer="svg107"
     inkscape:document-rotation="0" />
  <path
     id="Sélection #18"
     fill="none"
     stroke="#000000"
     stroke-width="1.3"
     d="m 26.180351,394.1812 c -9.282,-2.444 -22.6979999,-5.46 -23.9459999,-16.9 -0.702,-6.487 4.6410002,-12.792 7.5920002,-18.2 3.8089997,-6.968 1.2739997,-8.138 3.6009997,-13 0,0 10.686,-14.3 10.686,-14.3 0,0 17.511,-37.7 17.511,-37.7 5.135,-8.814 14.963,-17.251 22.243,-24.7 5.109,-5.239 10.166,-12.779 16.913,-15.6 0,0 38.999999,-7.904 38.999999,-7.904 0,0 28.6,-2.548 28.6,-2.548 0,0 9.1,-0.806 9.1,-0.806 0,0 13,0.806 13,0.806 0,0 13,-1.014 13,-1.014 0,0 35.1,5.993 35.1,5.993 0,0 11.7,4.121 11.7,4.121 0,0 48.1,12.194 48.1,12.194 0,0 44.2,16.354 44.2,16.354 0,0 24.7,6.656 24.7,6.656 13.455,3.497 14.716,10.4 20.917,14.443 4.03,2.639 8.255,2.288 11.999,5.824 6.63,6.266 12.584,16.601 22.984,17.004 3.406,0.13 16.692,-5.785 20.8,-7.423 -4.212,8.645 -9.49,9.685 -7.8,20.8 0,0 2.6,0 2.6,0 7.631,-15.119 10.855,-21.749 6.5,-39 3.783,-0.637 6.721,-0.923 9.074,2.899 2.249,3.666 0.416,9.308 2.691,17.901 2.041,7.709 8.827,16.38 14.235,22.1 6.175,-8.619 9.919,-9.737 14.677,-15.717 7.397,-9.282 3.016,-13.754 15.223,-14.183 -1.352,5.941 -5.733,16.575 -4.615,22.1 1.937,9.477 11.102,14.807 18.915,18.811 18.72,9.594 23.205,8.476 38.883,25.389 10.127,10.92 9.607,13.65 14.989,26 2.548,5.863 5.798,9.113 3.328,15.6 -5.564,-12.454 -15.067,-24.96 -26,-33.189 0,0 -11.7,-7.332 -11.7,-7.332 -10.829,-7.072 -16.51,-10.647 -28.6,-15.457 -13.299,-5.304 -11.31,-7.67 -27.3,-7.722 11.973,28.236 15.223,31.551 23.4,62.4 -5.798,-3.484 -7.709,-9.763 -10.738,-15.6 0,0 -15.145,-24.7 -15.145,-24.7 -1.976,-2.795 -7.878,-11.479 -11.089,-12.103 -3.458,-0.663 -8.775,4.771 -11.128,6.903 4.329,2.496 8.515,5.655 10.361,10.504 1.287,3.393 0.598,6.149 2.366,9.36 4.459,8.112 9.984,11.18 15.34,16.952 2.145,2.314 3.38,5.408 6.084,7.176 1.677,1.092 5.408,2.106 7.449,2.808 -4.355,6.5 -8.801,12.324 -15.6,16.445 -8.502,5.148 -15.431,5.239 -20.8,13.455 0,0 0,-5.2 0,-5.2 0,0 -11.7,-3.627 -11.7,-3.627 -3.783,-0.689 -9.724,-0.351 -13,-1.768 -4.004,-1.716 -5.252,-4.446 -10.4,-5.941 0,0 -18.2,-3.627 -18.2,-3.627 0,0 -26,-9.529 -26,-9.529 -2.275,-0.195 -4.316,0.689 -6.5,1.131 0,0 -6.5,1.092 -6.5,1.092 -8.567,2.834 -5.59,7.605 -19.5,7.969 0.52,9.308 2.496,8.827 3.341,14.3 1.144,7.41 -4.693,12.181 -10.218,15.912 -6.812,4.628 -23.842,10.569 -32.123,13.234 -10.309,3.341 -11.232,6.643 -22.1,2.054 -1.573,9.204 3.198,11.752 8.879,18.2 0,0 15.912,18.42101 15.912,18.42101 1.222,1.924 1.807,4.134 2.509,6.279 0,0 -9.1,-3.9 -9.1,-3.9 0,0 2.6,6.175 2.6,6.175 -3.588,0.325 -9.724,0.572 -13,0 -13.559,-3.991 -20.293,-17.342 -24.7,-29.57501 0,0 -6.5,2.6 -6.5,2.6 -1.157,-7.748 2.223,-14.365 3.341,-22.1 0,0 2.21,-24.7 2.21,-24.7 0.949,-4.914 3.575,-7.527 3.64,-13 0.078,-6.903 -6.435,-20.41 -9.191,-27.3 -7.033,1.651 -24.037,0 -31.2,-1.937 0,0 -11.687,-3.679 -11.687,-3.679 0,0 -31.213,1.599 -31.213,1.599 0,0 -11.7,0 -11.7,0 -12.896,-1.651 -7.67,-4.043 -22.1,2.171 -11.167,4.81 -33.241,16.458 -27.612,31.746 2.041,5.551 15.106,21.671 19.812,25.558 0,0 10.4,7.28 10.4,7.28 0,0 10.4,9.529 10.4,9.529 7.956,6.032 12.064,3.77 16.9,14.833 0,0 -10.4,-1.3 -10.4,-1.3 0,0 5.2,5.20001 5.2,5.20001 -5.85,0.65 -26.169,-1.17001 -30.81,-4.26401 -2.912,-1.937 -3.471,-4.602 -5.98,-6.89 -4.095,-3.744 -12.441,-7.098 -17.81,-5.746 0,0 -2.626,-10.4 -2.626,-10.4 0,0 -19.694999,-24.7 -19.694999,-24.7 -2.483,-2.743 -9.763,-10.491 -12.779,-11.882 -3.458,-1.612 -6.968,0.078 -10.4,0.975 -2.574,0.676 -7.865,1.625 -9.841,3.081 -3.289,2.418 -6.37,18.083 -6.357,22.126 0.026,4.81 10.608,22.087 14.014,25.883 4.667,5.187 7.345,4.771 9.984,11.81701 0,0 -3.9,-1.30001 -3.9,-1.30001 0,0 1.3,3.90001 1.3,3.90001 -10.088,-0.026 -23.27,-0.494 -30.498,-8.47601 -3.419,-3.77 -6.604,-12.636 -8.502,-17.524 0,0 -1.3,1.3 -1.3,1.3 0,0 -2.6,-1.3 -2.6,-1.3 1.716,-6.578 2.821,-8.463 2.548,-15.6 -0.351,-9.009 -4.888,-24.908 -3.159,-32.5 2.522,-11.154 10.816,-13.429 16.601,-22.1 3.328,-4.992 6.006,-17.186 7.41,-23.4 -2.626,-1.287 -3.835,-1.625 -5.772,-4.082 -4.368,-5.499 -8.359,-27.131 -9.828,-34.918 -9.425,4.615 -5.759,6.877 -9.126,12.779 -3.497,6.123 -13.8839997,11.687 -9.971,20.787 2.795,6.487 11.648,5.044 16.497,17.134 0,0 -1.3,1.3 -1.3,1.3 z m 395.199999,-39 c 1.963,0.988 2.795,1.781 5.2,1.976 13.338,1.079 9.62,-16.913 -1.157,-6.981 -1.625,1.495 -2.756,3.237 -4.043,5.005 z m -136.5,100.386 c 2.912,0.169 4.784,0.611 7.8,0 3.068,-0.039 9.932,-1.755 11.518,-4.615 2.561,-4.602 -7.813,-14.053 -12.818,-14.222 -3.614,-0.13 -8.879,3.965 -11.349,6.422 -3.211,3.185 -5.915,10.361 -8.151,14.729 6.071,3.978 10.348,5.681 13,-2.314 z"
     style="fill:#000000;stroke:#f4e3d7" />
</svg>
