<?xml version="1.0" encoding="UTF-8" standalone="no"?>
<svg
   xmlns:dc="http://purl.org/dc/elements/1.1/"
   xmlns:cc="http://creativecommons.org/ns#"
   xmlns:rdf="http://www.w3.org/1999/02/22-rdf-syntax-ns#"
   xmlns:svg="http://www.w3.org/2000/svg"
   xmlns="http://www.w3.org/2000/svg"
   xmlns:sodipodi="http://sodipodi.sourceforge.net/DTD/sodipodi-0.dtd"
   xmlns:inkscape="http://www.inkscape.org/namespaces/inkscape"
   width="100mm"
   height="100mm"
   viewBox="0 0 566.90006 566.89991"
   version="1.1"
   id="svg138"
   sodipodi:docname="dong.svg"
   inkscape:version="1.0.1 (3bc2e813f5, 2020-09-07)">
  <metadata
     id="metadata144">
    <rdf:RDF>
      <cc:Work
         rdf:about="">
        <dc:format>image/svg+xml</dc:format>
        <dc:type
           rdf:resource="http://purl.org/dc/dcmitype/StillImage" />
        <dc:title></dc:title>
      </cc:Work>
    </rdf:RDF>
  </metadata>
  <defs
     id="defs142" />
  <sodipodi:namedview
     pagecolor="#ffffff"
     bordercolor="#666666"
     borderopacity="1"
     objecttolerance="10"
     gridtolerance="10"
     guidetolerance="10"
     inkscape:pageopacity="0"
     inkscape:pageshadow="2"
     inkscape:window-width="3840"
     inkscape:window-height="2066"
     id="namedview140"
     showgrid="false"
     inkscape:zoom="1.6310818"
     inkscape:cx="807.82882"
     inkscape:cy="418.75629"
     inkscape:window-x="-11"
     inkscape:window-y="-11"
     inkscape:window-maximized="1"
     inkscape:current-layer="svg138"
     inkscape:document-rotation="0" />
  <path
     id="Sélection"
     fill="none"
     stroke="#000000"
     stroke-width="2"
     d="m 218.35461,229.09971 c -16.6,-5.84 -5.14,-16.42 -1,-26 3.08,-7.16 1.72,-10.08 7.78001,-16.82 3.1,-3.42 5.9,-4.42 7.18,-9.38 1.38,-5.42 -2.58,-14.28 6.5,-23.34 9.98,-10 15.98,-2.78 31.54,-11.98 21.06,-12.47999 33.34,-32.75999 61.14,-23.23999 5.34,1.84 10.66,1.98 13.96,7.28 4.92,7.94 -0.12,13.81999 2.9,27.47999 0,0 -8,6 -8,6 0,0 4,6 4,6 -4.82,5.96 -3.7,6.7 -2,14 -5.68,4.08 -4.68,5.28 -4,12 0,0 -8,-2 -8,-2 0,0 2,8 2,8 0,0 -6,-2 -6,-2 0,0 -2,14 -2,14 0,0 8,-10 8,-10 0,0 8,2 8,2 0,0 2,-10 2,-10 0,0 12,2 12,2 0,0 14,-12 14,-12 8.38,0.18 10.98,-1.68 18,-6 0,0 8,2 8,2 5.64,17.68 -4.5,18.32 -1.3,27.98 1.56,4.74 7.24,9.06 10.74,12.58 7.74,7.84 17.12,17.46 21.68,27.44 0,0 12.1,30 12.1,30 0.88,4.08 0.86,29.92 0,34 -3.24,15.52001 -17.9,43.42001 -31.22,52.06001 -9.72,6.3 -34.2,10.94 -46,11.94 0,0 4,14 4,14 8.92,-3.84 37.16,-17.56 45.66,-14.44 16.3,6 7.6,22.1 3.26,32.44 -10.7,25.52 -23.84,46.04 -52.92,52 6.22,11.04 16.74,8.42 28,11.52 0,0 26,9.66 26,9.66 8.26,1.48 11.66,-0.62 18,0 0,0 22,6.22 22,6.22 13.16,2.1 23.34,1.52 28,16.6 -26.32,-17.3 -19.4,-5.22 -46,-14 0,0 -2,8 -2,8 20.02,5.66 33.62,14.36 38,36 0,0 -11.92,-10.22 -11.92,-10.22 0,0 -38.08,-19.78 -38.08,-19.78 7.14,10.06 18.96,18.44 14,32 -5.72,-11.42 -16.74,-22.62 -28,-28.84 -9.26,-5.14 -15.52,0.8 -8.88,12.84 0,0 6.88,12 6.88,12 -28.58,-7.68 -19.68,-29.64 -48,-38 0,0 4,20 4,20 0,0 -18,-14 -18,-14 0,0 10,26 10,26 -12.4,-4.02 -21.02,-14.74 -18,-28 -3.74,-0.82 -6.04,-1.56 -10,-1.16 -9.1,0.92 -18.78,6.72 -15.16,17.16 4.6,13.24 19.46,19.58 13.16,36 -5.22,-9.28 -19.36,-23.76 -28,-30 3.84,11.08 11.28,28.44 8,40 -3.36,-8.52 -15.68,-32.28 -22,-38 -3.1,19.8 -8.7,13.98 -4,34 -16.9,-9.88 -5.68,-23.5 -6,-38 0,0 -30,24 -30,24 0.02,-6.76 -0.58,-15.46 3.7,-21.1 4.98,-6.52 15.9,-9.82 17.16,-18.98 0.52,-3.76 -1,-6.74 -2.74,-9.92 -7.24,-13.06 -16.06,-16.74 -29.78,-20.7 -10.82001,-3.12 -19.86001,6.7 -30.34001,8.28 -15.38,2.32 -33.28,-5.54 -45.98,-13.58 -2.26,11.32 0.32,14.9 0,26 -0.28,5.12 -1.82,11.08 0,15.82 5.18,12.28 19.42,21.52 29.98,28.18 -20.14,3.78 -29.26,-14.62 -43.96,-14.32 -7.4,0.16 -10.66,7.3 -14.78,12.32 0,0 -16.58,16.56 -16.58,16.56 0,0 -10.679999,13.44 -10.679999,13.44 0,0 2.879999,-23.48 2.879999,-23.48 -2.639999,-7 -12.099999,-3.28 -16.879999,-1.28 -17.56,7.36 -21.44,21.54 -36,28.76 0,0 16,-26 16,-26 -17.46,8.76 -24.380001,8.9 -38.000001,24 0.44,-3.72 0.46,-6.36 2.34,-9.8 1.78,-3.24 20.220001,-21.02 23.740001,-23.14 12.5,-7.5 19.58,-3.7 23.92,-21.06 0,0 -29.98,4.62 -29.98,4.62 0,0 -16.020001,13.38 -16.020001,13.38 6.28,-14.7 19.740001,-28.5 36.000001,-31.34 12.76,-2.24 20.3,2.64 32.02,-4.28 0,0 9.979999,-6.58 9.979999,-6.58 9.04,-5.08 19.22,-5.22 17.64,-21.8 -1.84,-19.38 -15.64,-20.26 -21.3,-30.34 -3.04,-5.46 -2.22,-13.52 -2.36,-19.66 0,0 -2.719999,-32 -2.719999,-32 0,0 -5.32,-26 -5.32,-26 1.04,-5.76 5.739999,-8.78 10.059999,-12 0,0 26.08,27.06 26.08,27.06 0,0 39.92,32.94 39.92,32.94 0,0 -1.38,-38 -1.38,-38 0.92,-8.54 10,-19.88 13.46,-28 0,0 9.4,-35.52001 9.4,-35.52001 2.62,-5.7 8.82,-7.48 12.48,-14.52 5.98,-11.46 3.96,-30.12 4.28,-31.7 1.02,-4.96 5.46,-6.68 7.74,-10.78 2.46,-4.38 2,-10.56 2.02,-15.48 z m 96.00001,-90 c 0,0 4,6 4,6 0,0 -4,-6 -4,-6 z m -2,4 c 0,0 -8,6 -8,6 0,0 10,2 10,2 0,0 -2,-8 -2,-8 z m -8,8 c -1.04,4.66 -0.24,4.34 4,6 0,0 0,-4 0,-4 0,0 -4,-2 -4,-2 z m -4,6 c -11.12,9.8 -21.54,31.12 -18,46 0,0 8,-2 8,-2 0,0 -4,-18 -4,-18 0,0 10,0 10,0 0,0 -4,-8 -4,-8 0,0 2,-8 2,-8 0,0 10,-2 10,-2 0,0 -4,-8 -4,-8 z m -18,50 c 0,0 -2,8 -2,8 0,0 8,-4 8,-4 0,0 -6,-4 -6,-4 z m 4,18 c -3.18,-4.52 -3.16,-4.78 -8,-2 0,0 8,2 8,2 z m 38,234.00001 c 0,0 -24,12.98 -24,12.98 0,0 -22,1.02 -22,1.02 2.56,10.28 10.32,20.62 22,20.88 10.4,0.24 26.12,-14.54 26.78,-24.88 0.26,-4.14 -1.22,-6.44 -2.78,-10 z"
     style="fill:#000000;stroke:#f4e3d7" />
</svg>
