<?xml version="1.0" encoding="UTF-8" standalone="no"?>
<svg
   xmlns:dc="http://purl.org/dc/elements/1.1/"
   xmlns:cc="http://creativecommons.org/ns#"
   xmlns:rdf="http://www.w3.org/1999/02/22-rdf-syntax-ns#"
   xmlns:svg="http://www.w3.org/2000/svg"
   xmlns="http://www.w3.org/2000/svg"
   xmlns:sodipodi="http://sodipodi.sourceforge.net/DTD/sodipodi-0.dtd"
   xmlns:inkscape="http://www.inkscape.org/namespaces/inkscape"
   width="100mm"
   height="100mm"
   viewBox="0 0 566.90007 566.89991"
   version="1.1"
   id="svg182"
   sodipodi:docname="felorn.svg"
   inkscape:version="1.0.1 (3bc2e813f5, 2020-09-07)">
  <metadata
     id="metadata188">
    <rdf:RDF>
      <cc:Work
         rdf:about="">
        <dc:format>image/svg+xml</dc:format>
        <dc:type
           rdf:resource="http://purl.org/dc/dcmitype/StillImage" />
        <dc:title></dc:title>
      </cc:Work>
    </rdf:RDF>
  </metadata>
  <defs
     id="defs186" />
  <sodipodi:namedview
     pagecolor="#ffffff"
     bordercolor="#666666"
     borderopacity="1"
     objecttolerance="10"
     gridtolerance="10"
     guidetolerance="10"
     inkscape:pageopacity="0"
     inkscape:pageshadow="2"
     inkscape:window-width="3840"
     inkscape:window-height="2066"
     id="namedview184"
     showgrid="false"
     inkscape:zoom="1.6310818"
     inkscape:cx="651.33959"
     inkscape:cy="420.14405"
     inkscape:window-x="-11"
     inkscape:window-y="-11"
     inkscape:window-maximized="1"
     inkscape:current-layer="svg182"
     inkscape:document-rotation="0" />
  <path
     id="Sélection #5"
     fill="none"
     stroke="#000000"
     stroke-width="2.0736"
     d="m 243.54022,137.98966 c 0.24883,4.33383 0.60134,5.88903 0,10.368 -0.0622,4.56192 -1.76256,9.45562 1.57593,13.51987 5.86829,7.13319 21.02631,-1.5552 24.75879,-7.56864 3.02745,-4.85222 1.74182,-7.71379 9.24825,-18.2062 0,0 16.71321,-21.10926 16.71321,-21.10926 3.691,-7.63085 7.07097,-28.657157 14.5152,-41.285381 10.69977,-18.102528 25.92,-14.224896 28.2839,6.2208 -2.79936,-1.86624 -9.14458,-6.697728 -12.23424,-7.05024 -5.20474,-0.559872 -8.0041,5.246208 -9.89107,9.144576 -6.40743,13.146626 -2.32243,16.381442 -8.97869,29.009665 0,0 8.2944,20.73601 8.2944,20.73601 0,0 27.03974,-2.38464 27.03974,-2.38464 0,0 24.80026,0 24.80026,0 -3.73248,7.50643 -9.97402,14.03827 -18.6624,14.41152 -3.8569,0.47693 -7.776,-1.47225 -12.42086,0 0,0 -18.68314,10.78272 -18.68314,10.78272 10.47168,0.14515 14.57741,-1.01606 16.5888,10.368 0,0 6.2208,4.1472 6.2208,4.1472 0,0 -4.1472,-2.0736 -4.1472,-2.0736 8.2944,4.62413 13.78944,-0.39398 14.5152,10.368 0,0 10.368,0 10.368,0 6.28301,6.30375 7.776,6.46963 16.5888,6.2208 0,0 0,10.32653 0,10.32653 11.98541,-4.97664 11.1767,-0.24883 21.60691,0 7.56864,0.14515 21.2544,-3.13114 28.15949,-6.17933 0,0 4.1472,4.1472 4.1472,4.1472 0,0 2.0736,-5.9927 2.0736,-5.9927 0,0 4.81075,0 4.81075,0 0,0 28.36685,-14.90919 28.36685,-14.90919 0,0 38.81779,0 38.81779,0 0,0 4.72781,2.23949 4.72781,2.23949 10.55462,-7.00877 24.69658,-3.67027 22.10458,3.69101 -1.74183,4.9559 -11.3426,7.13318 -15.88378,8.16998 -15.57274,3.50439 -27.33005,9.58004 -41.472,16.65101 0,0 -76.7232,37.63584 -76.7232,37.63584 -9.3312,3.23482 -34.23514,6.65626 -43.5456,4.39603 -6.61478,-1.59667 -53.25005,-27.88992 -59.55379,-32.55552 -7.87967,-5.84755 -7.67231,-7.81747 -19.243,-15.17875 -1.34784,16.75469 -7.48569,14.7433 -13.54061,26.9568 -2.71641,5.47431 -2.01139,12.42087 -3.04819,18.6624 -7.98336,-2.82009 -7.56864,-4.4375 -6.2208,-12.4416 -11.13523,11.30112 -6.44889,17.3353 -10.368,31.104 -12.66969,-9.51782 -2.63347,-21.66912 1.09901,-33.1776 0,0 5.12179,-22.8096 5.12179,-22.8096 -14.84697,-5.51577 -18.84902,-1.88697 -31.104,8.66765 -12.77337,11.01082 -41.05728,30.85517 -58.0608,32.57626 -12.37939,1.26489 -31.60166,-5.47431 -43.5456,-9.70445 -8.64691,-3.04819 -28.346109,-9.95328 -31.207677,-19.30522 -1.161216,-3.42144 -0.269568,-8.66765 0,-12.23424 0,0 16.692477,10.368 16.692477,10.368 0,0 0,-6.2208 0,-6.2208 0,0 4.1472,6.2208 4.1472,6.2208 0,0 0,-4.1472 0,-4.1472 0,0 2.0736,0 2.0736,0 5.14253,1.59667 41.49274,0.0622 49.7664,12.4416 6.61479,-3.23481 8.08704,-4.49971 12.4416,2.0736 0,0 22.8096,-9.95328 22.8096,-9.95328 0,0 39.3984,-31.51872 39.3984,-31.51872 0,0 -2.0736,-6.2208 -2.0736,-6.2208 0,0 -10.368,4.1472 -10.368,4.1472 0,0 -10.63757,-17.21088 -10.63757,-17.21088 0,0 6.63552,-15.96672 6.63552,-15.96672 0,0 4.00205,-12.4416 4.00205,-12.4416 6.36595,14.97139 9.62151,8.93722 23.09991,2.0736 z m 234.02648,37.3248 c 0,0 -2.0736,0 -2.0736,0 0,0 2.0736,2.0736 2.0736,2.0736 0,0 0,-2.0736 0,-2.0736 z m -213.58079,26.9568 c -6.5111,4.43751 -6.57331,4.79002 -8.2944,12.4416 6.38669,-3.96057 6.46963,-5.24621 8.2944,-12.4416 z"
     style="fill:#000000;stroke:#f4e3d7" />
</svg>
