<?xml version="1.0" encoding="UTF-8" standalone="no"?>
<svg
   xmlns:dc="http://purl.org/dc/elements/1.1/"
   xmlns:cc="http://creativecommons.org/ns#"
   xmlns:rdf="http://www.w3.org/1999/02/22-rdf-syntax-ns#"
   xmlns:svg="http://www.w3.org/2000/svg"
   xmlns="http://www.w3.org/2000/svg"
   xmlns:sodipodi="http://sodipodi.sourceforge.net/DTD/sodipodi-0.dtd"
   xmlns:inkscape="http://www.inkscape.org/namespaces/inkscape"
   width="100mm"
   height="100mm"
   viewBox="0 0 566.90007 566.8999"
   version="1.1"
   id="svg208"
   sodipodi:docname="furlong.svg"
   inkscape:version="1.0.1 (3bc2e813f5, 2020-09-07)">
  <metadata
     id="metadata214">
    <rdf:RDF>
      <cc:Work
         rdf:about="">
        <dc:format>image/svg+xml</dc:format>
        <dc:type
           rdf:resource="http://purl.org/dc/dcmitype/StillImage" />
        <dc:title></dc:title>
      </cc:Work>
    </rdf:RDF>
  </metadata>
  <defs
     id="defs212" />
  <sodipodi:namedview
     pagecolor="#ffffff"
     bordercolor="#666666"
     borderopacity="1"
     objecttolerance="10"
     gridtolerance="10"
     guidetolerance="10"
     inkscape:pageopacity="0"
     inkscape:pageshadow="2"
     inkscape:window-width="3840"
     inkscape:window-height="2066"
     id="namedview210"
     showgrid="false"
     inkscape:zoom="1.6310818"
     inkscape:cx="-103.49676"
     inkscape:cy="54.669479"
     inkscape:window-x="-11"
     inkscape:window-y="-11"
     inkscape:window-maximized="1"
     inkscape:current-layer="svg208"
     inkscape:document-rotation="0" />
  <path
     id="Sélection #14"
     fill="none"
     stroke="#000000"
     stroke-width="2"
     d="m 501.00209,206.75055 c 9.24,12.56 -1.66,21.78 -14,24.64 -22.24,5.16 -41.74,-5.56 -56,-1.5 -7,2 -10.86,6.08 -16,10.86 20.88,9.28 25.06,3.16 32.24,10.62 9.1,9.48 13.02,20.56 10.52,33.38 -0.92,4.76 -1.98,10.4 -7.22,12.08 -2.94,1.08 -6.54,0.28 -9.54,0 1.02,-13.16 5.62,-10.92 5.98,-16.5 0.22,-3.54 -2.1,-6.84 -4.44,-9.54 -12.24,-12.6 -29.44,-1.62 -37.54,0 -3.88,0.42 -6.32,0.06 -10,-1.26 -13.32,-4.74 -26.72,-22.26 -35.56,-18.46 -5.82,2.52 -6.36,11.16 -11.46,16.46 -4.9,5.12 -32.24,21.26 -38.98,23.22 2.18,-18.78 18.98,-23.34 30,-38 -28.26,9.44 -45.32,17.92 -61.82,44 -3.04,4.8 -10.88,14.3 -10.16,19.9 1.02,7.78 11.06,8.14 16.02,16.32 4.54,7.5 2.36,18.86 7.96,33.78 -4.26,2.6 -11.92,7.98 -15.72,1.52 -2.9,-4.94 8.14,-20.28 -4.58,-26.58 -3.36,-1.68 -8.04,-1.68 -11.7,-1.12 -16.74,2.58 -17.08,14.88 -22.28,21.88 -5.78,7.82 -10.38,6.6 -13.72,-1.7 0,0 2,0 2,0 0,0 4,-4 4,-4 0,0 -56,14.7 -56,14.7 -11.58,5.28 -23.02,16.4 -32,25.3 8.42,8.28 10.52,24.42002 9.82,36.00002 -0.32,5.24 -2.68,11.84 -1.1,16.56 3.68,10.82 12.26,12.04 21.28,15.7 5.36,2.16 12.72,7.74 18,7.5 6.1,-0.3 10.94,-6.18 20,-9.5 8.22,-3.02 12.64,-1.58 20,-3 0,0 12,-3.26 12,-3.26 4.38,9.74 16.92,23.6 16.08,33.92 -1.22,15.22 -22.38,8.68 -30.08,-5.92 -11.72,3.46 -23.76,13.04 -32,22 6.92,4.04 7.6,4.3 10,12 -4.46,0.44 -7.26,1.26 -11.36,-1.36 0,0 -9.28,-8.7 -9.28,-8.7 -9.68,-6.48 -40.4,-9.36 -43.3,6.1 -1.1,5.86 3.32,6.52 1.94,19.96 0,0 -12,-2 -12,-2 0,0 -3.14,-14 -3.14,-14 -0.44,-6.16 4.76,-22.44 9.98,-25.96 2.48,-1.68 4.44,-1.58 7.16,-2.04 -9.64,-12.24 -25.42,-17.82 -32.86,-32 -5.66,-10.78 -0.18,-31.06 -11.88,-38.24 -4.799999,-2.92 -8.439999,0.66 -11.239999,4.38 -6.48,8.66 -10.08,28.6 -23.919998,28.62 -6.18,0.02 -7.86,-4.02 -10.1,-8.76 22.439998,-9.52 13.659998,-10.6 21.399998,-24 0,0 13.06,-17.92002 13.06,-17.92002 11.339999,-14.02 15.459999,-11.5 25.359999,-20.5 0,0 10.52,-11.24 10.52,-11.24 5.36,-5.32 19.18,-16.06 25.66,-20.16 11.54,-7.3 26.68,-12.3 40,-15.16 11.34,-2.44 24.56,-4.26 32.78,-13.46 0,0 35.06,-53.56 35.06,-53.56 21.22,-28.62 63.62,-55.82 100.16,-55.82 0,0 38,0 38,0 0,0 18,4.9 18,4.9 0,0 26,-3 26,-3 23.08,-0.9 33.36,9.96 44,6.36 6.66,-2.24 11.66,-9.2 16,-14.44 z m -364,214.00002 c -2.4,7.32 -0.84,10.3 4,16 1.86,-8.22 1.74,-9.74 -4,-16 z"
     style="fill:#000000;stroke:none" />
</svg>
