<?xml version="1.0" encoding="UTF-8" standalone="no"?>
<svg
   xmlns:dc="http://purl.org/dc/elements/1.1/"
   xmlns:cc="http://creativecommons.org/ns#"
   xmlns:rdf="http://www.w3.org/1999/02/22-rdf-syntax-ns#"
   xmlns:svg="http://www.w3.org/2000/svg"
   xmlns="http://www.w3.org/2000/svg"
   xmlns:sodipodi="http://sodipodi.sourceforge.net/DTD/sodipodi-0.dtd"
   xmlns:inkscape="http://www.inkscape.org/namespaces/inkscape"
   width="100mm"
   height="100mm"
   viewBox="0 0 566.90006 566.89991"
   version="1.1"
   id="svg178"
   sodipodi:docname="glipzouk.svg"
   inkscape:version="1.0.1 (3bc2e813f5, 2020-09-07)">
  <metadata
     id="metadata184">
    <rdf:RDF>
      <cc:Work
         rdf:about="">
        <dc:format>image/svg+xml</dc:format>
        <dc:type
           rdf:resource="http://purl.org/dc/dcmitype/StillImage" />
        <dc:title></dc:title>
      </cc:Work>
    </rdf:RDF>
  </metadata>
  <defs
     id="defs182" />
  <sodipodi:namedview
     pagecolor="#ffffff"
     bordercolor="#666666"
     borderopacity="1"
     objecttolerance="10"
     gridtolerance="10"
     guidetolerance="10"
     inkscape:pageopacity="0"
     inkscape:pageshadow="2"
     inkscape:window-width="3840"
     inkscape:window-height="2066"
     id="namedview180"
     showgrid="false"
     inkscape:zoom="0.54873255"
     inkscape:cx="724.67086"
     inkscape:cy="1214.0659"
     inkscape:window-x="-11"
     inkscape:window-y="-11"
     inkscape:window-maximized="1"
     inkscape:current-layer="svg178" />
  <path
     id="Sélection #1"
     fill="none"
     stroke="#000000"
     stroke-width="2"
     d="m 391.6048,189.73569 c 10.92,3.04 11.56,1.3 22,-2 4.68,6.68 7.02,4.74 14,2 2.44,4.58 3.18,3.28 8,2 0,0 10,2 10,2 0,0 0,4 0,4 0,0 10,-4 10,-4 0,0 -2,6 -2,6 0,0 10,-4 10,-4 2.98,11.1 14.04,4.14 22,16 0,0 6,-2 6,-2 0.82,10.08 6.38,17.02 16,20 0,0 -4,10 -4,10 0,0 12,4 12,4 0,0 -6,8 -6,8 0,0 8,-4 8,-4 -0.74,7.66 -0.54,7.68 4,14 0,0 -4,6.00006 -4,6.00006 13.34,7.6 4.88,11.4 14,22 0,0 2,16 2,16 -5.08,4.14 -1.06,7.42 2,12 0,0 -6,10 -6,10 0,0 4,0 4,0 0,0 0,4 0,4 0,0 -4,6 -4,6 0,0 4,8 4,8 0,0 6,2 6,2 0,0 -4,4 -4,4 0,0 -10,-2 -10,-2 0,0 6,10 6,10 0,0 -8,-2 -8,-2 0,0 10,12 10,12 0,0 -14,4 -14,4 0,0 6,0 6,0 0,0 -2,4 -2,4 0,0 6,2 6,2 -5.4,1.28 -6.24,0.64 -8,6 0,0 -8,6 -8,6 0,0 6,4 6,4 0,0 -14,-2 -14,-2 0,0 6,12 6,12 0,0 -10,-6 -10,-6 0,0 6,12 6,12 0,0 -14,-8 -14,-8 0,0 4,14 4,14 0,0 -8,-4 -8,-4 0,0 6,8 6,8 0,0 -8,6 -8,6 0,0 -6,-2 -6,-2 0,0 0,12 0,12 0,0 -4,-8 -4,-8 0,0 -10,-2 -10,-2 0,0 0,8 0,8 0,0 4,4 4,4 0,0 -18,-8 -18,-8 0,0 6,10 6,10 0,0 -6,-2 -6,-2 0,0 4,6 4,6 0,0 -2,8 -2,8 0,0 -14,-12 -14,-12 0,0 2,8 2,8 0,0 -8,-10 -8,-10 0,0 -4,6 -4,6 0,0 -2,-4 -2,-4 -3.22,6.68 -6.86,1.74 -12,-2 0,0 -2,6 -2,6 0,0 -2,-12 -2,-12 0,0 -8,10 -8,10 0,0 -4,-4 -4,-4 0,0 -2,6 -2,6 0,0 -4,-16 -4,-16 0,0 -6,14 -6,14 0,0 -2,-12 -2,-12 0,0 -8,8 -8,8 0,0 2,-8 2,-8 0,0 -14,6 -14,6 0,0 4,-6 4,-6 0,0 -4,-6 -4,-6 0,0 -10,4 -10,4 0,0 2,-6 2,-6 0,0 -6,-6 -6,-6 0,0 -4,4 -4,4 0,0 -2,0 -2,0 0,0 2,-6 2,-6 0,0 -4,-8 -4,-8 -8.06,2.9 -8,3.9 -16,0 -9.44,8.36 -15.98,2.78 -26,-2 0,0 2,6 2,6 0,0 -8,-2 -8,-2 0,0 -2,6 -2,6 0,0 -14,-2 -14,-2 0,0 6,8 6,8 0,0 -4,4 -4,4 0,0 -12,2 -12,2 0,0 14,2 14,2 0,0 -10,4 -10,4 0,0 8,6 8,6 0,0 -10,4 -10,4 0,0 6,2 6,2 0,0 -8,2 -8,2 0,0 6,2 6,2 0,0 -1.58,29.74 -1.58,29.74 0,0 3.58,10.26 3.58,10.26 0,0 4,-4 4,-4 0,0 4,8 4,8 0,0 8,-4 8,-4 5.38,23.3 6,19.56 6,44 0,0 -12,6 -12,6 0,0 0,-8 0,-8 0,0 -10,10 -10,10 0,0 -2,-6 -2,-6 0,0 -12,4 -12,4 0,0 14,-18 14,-18 -8.02,1.02 -11.06,2.9 -18,-2 0,0 14,-4 14,-4 -3.06,-17.9 -20.8,-16.48 -25.94,-24.86 -3.26,-5.46 1.86,-10.34 0,-25.14 0,0 -8.06,-2 -8.06,-2 0,0 -4,6 -4,6 0,0 -2,-4 -2,-4 0,0 -10,2 -10,2 0,0 -2,8 -2,8 0,0 -10,-4 -10,-4 0,0 -4,10 -4,10 8.66,-1.84 9.5,-0.9 16.84,3.7 18.08,11.36 20.08,24.8 25.16,44.3 0,0 -12,-6 -12,-6 0,0 2,10 2,10 0,0 -10,-12 -10,-12 0,0 2,18 2,18 -6.92,-5.92 -7.28,-7 -8,-16 -5.64,5.44 -6.06,6.18 -6,14 0,0 -6,2 -6,2 0,0 6,-20 6,-20 0,0 -12,2 -12,2 7.54,-9.72 14.08,-10.8 14.76,-14.38 0.84,-4.38 -5.7,-6.94 -8.78,-8.22 0,0 -29.98,-11.4 -29.98,-11.4 1.52,-4.58 4.86,-13.52 4.94,-18 0.18,-12.86 -11.7,-24.16 -22.94,-28 1.2,8.62 4.98,19.34 14,22 1.92,10.42 0.44,11.8 -6,20 0,0 6,2 6,2 0,0 -4,8 -4,8 0,0 8,2 8,2 0,0 -8,0 -8,0 0,0 4,6 4,6 0,0 -8,4 -8,4 4.16,9.02 2.46,9.78 -6,14 0,0 6,2 6,2 0,0 -4,10 -4,10 0,0 -12,-8 -12,-8 2.48,6.62 3.22,7.56 0,14 0,0 -4,-8 -4,-8 -1.68,7.88 -3.74,19.22 -14,14 -7.24,4.64 -9.86,3.9 -17.99999,2 0,0 -10,8 -10,8 0,0 5.86,-23.46 5.86,-23.46 0,0 14.13999,-12.54 14.13999,-12.54 0,0 -4,4 -4,4 0,0 -1.99999,0 -1.99999,0 2.27999,-9.94 4.29999,-9.68 13.99999,-10 0,0 -4,-4 -4,-4 0,0 0,-2 0,-2 9.22,-5.48 8.36,-10.52 10.98,-20 1.32,-4.82 4.42,-11.56 4.74,-16 0.68,-10 -10.82,-29.08 -17.72,-36 -3.6,19.86 -9.77999,18.86 -9.99999,44 0,0 5.99999,2 5.99999,2 0,0 -7.99999,0 -7.99999,0 0,0 4,8 4,8 0,0 -2,0 -2,0 0,0 -4,-4 -4,-4 0,0 4,18 4,18 0,0 -8,0 -8,0 0,0 6,4 6,4 0,0 -10,2 -10,2 0,0 4,10 4,10 0,0 -10,-6 -10,-6 0,0 6,10 6,10 0,0 -8,8 -8,8 0,0 -16.000002,-6 -16.000002,-6 0,0 6,16 6,16 0,0 -10,-8 -10,-8 -2.4,8.78 -2.96,12.92 -12,16 0,0 0,-8 0,-8 0,0 -2,10 -2,10 0,0 -8,-2 -8,-2 0,0 4,-10 4,-10 0,0 -16,12 -16,12 0,0 2,-10 2,-10 0,0 -6,2 -6,2 6.22,-15.88 10.98,-14.24 21.66,-24.42 7.24,-6.9 21.98,-25.1 28.26,-33.58 13.960002,-18.86 10.780002,-30.02 18.080002,-50 -4.54,-2.1 -9.26,-3.88 -11.960002,-8.42 -2.48,-4.16 -1.6,-9.18 -3.24,-13.58 -3.88,-10.48 -10.38,-14.06 -20.8,-14 0,0 4,-8 4,-8 0,0 -4,-6 -4,-6 0,0 -14,-6 -14,-6 0,0 6,-2 6,-2 0,0 -14,-4 -14,-4 0,0 12,-2 12,-2 0,0 -6,-4 -6,-4 0,0 8,0 8,0 0,0 -8,-6 -8,-6 0,0 14,4 14,4 0,0 -2,-8 -2,-8 0,0 2,0 2,0 0,0 4,4 4,4 0,0 0,-10 0,-10 0,0 4,8 4,8 0,0 6,-10 6,-10 0,0 4,8 4,8 0.26,-2.54 0.32,-7.3 1.24,-9.42 1.34,-3.02 3.86,-5.1 6.86,-6.38 9.420002,-3.98 13.340002,3.16 20.240002,7.68 5.27999,3.46 7.79999,3.4 12.91999,8.56 0,0 7.48,8.8 7.48,8.8 2.98,2.92 5.82,4.56 9.26,6.76 0,0 -6,12 -6,12 0,0 10,2 10,2 0,0 -14,6 -14,6 19.92,7.24 11.46,2 26,5.04 0,0 20,6.02 20,6.02 0,0 14,0 14,0 0,0 10,1.78 10,1.78 7.38,-0.12 14.48,-5.5 24,-6.44 9.84,-0.98 17.5,3.2 24,2.98 10.32,-0.38 18.68,-9.42 24,-17.38 0,0 0,10 0,10 0,0 8,-8 8,-8 0,0 -2,8 -2,8 0,0 6,-6 6,-6 8.54,2.62 13.44,-1.32 22,-4 0,0 0,4 0,4 6.48,-1.76 11.9,-3.84 14,4 24.7,-7.46 33.58,5.7 56,10.66 31.78,7.04 37.02,3.94 64,-11.22 5.36,-3 13.02,-5.34 17.36,-8.84 4.24,-3.4 9.86,-11.88 12.92,-16.6 4.14,-6.44 10.26,-16.8 12.48,-24 3.04,-9.88 3.04,-19.76 3.3,-29.92 0.66,-25.72 -0.44,-38.6 -16.04,-60.08006 -2.56,-3.52 -5.8,-8.26 -8.94,-11.18 -11.94,-11 -50.64,-20.42 -67.08,-20.8 -57.02,-1.28 -102.42,69.42006 -74.08,109.80006 9.18,13.08 37.3,31.36 54.08,31.16 11.04,-0.14 11.3,-7.4 24,-4.98 0,0 16,-16 16,-16 0,0 4,2 4,2 5.96,-14.64 18.4,-32.1 16.18,-48 -2.3,-16.54 -9.06,-21.5 -24.1,-25.68 -10.24,-2.86 -16.86,-3.84 -25.54,4.46 -2.32,2.22 -3.7,4.42 -5.16,7.26 0,0 -2.44,5.92 -2.44,5.92 -4.88,20.26 21.72,2.7 24.34,14.34 0.68,2.98 -0.18,6.84 -1.64,9.48 -2.22,4.04 -5.54,6.22 -9.68,8 -13.56,5.84 -26.66,-5 -32.04,-17.22 -6.84,-15.56 2.9,-31.76 4.08,-40.56006 8.34,-2.82 13.36,-4.14 18,-12 0,0 10,2 10,2 0,0 -2,-6 -2,-6 0,0 10,4 10,4 0,0 4,-6 4,-6 0,0 2,6 2,6 0,0 8,0 8,0 0,0 2,-6 2,-6 0,0 2,8 2,8 0,0 6,-4 6,-4 0,0 0,8 0,8 0,0 4,-6 4,-6 0,0 8,12 8,12 0,0 4,-6 4,-6 0,0 6,10.00006 6,10.00006 0,0 0,8 0,8 0,0 0,-4 0,-4 0,0 2,0 2,0 0,0 0,10 0,10 0,0 6,-4 6,-4 0,0 4,24 4,24 -2.96,4.92 -5.3,8.8 -2,14 0,0 -4,8 -4,8 0,0 6,2 6,2 0,0 -6,2 -6,2 0,0 2,4 2,4 0,0 -8,4 -8,4 0,0 2,4 2,4 0,0 -8,8 -8,8 0,0 6,2 6,2 0,0 -12,2 -12,2 0,0 4,4 4,4 0,0 -8,0 -8,0 0,0 2,6 2,6 0,0 -6,-2 -6,-2 -5.04,13.9 -23.6,14.98 -34,24 0,0 -28,2 -28,2 0,0 -6,-4 -6,-4 0,0 -4,6 -4,6 0,0 -4,-10 -4,-10 0,0 -12,4 -12,4 -6.36,-8.58 -13.58,-15.02 -24,-18 0,0 4,-8 4,-8 -8.74,-0.58 -8.68,-4.1 -10,-12 0,0 -8,2 -8,2 0,0 0,-2 0,-2 0,0 4,-4 4,-4 0,0 -8,0 -8,0 0,0 -4,-6 -4,-6 0,0 0,-2 0,-2 0,0 4,-4 4,-4 -5.64,-5.3 -8.2,-16.32 -8,-24 0,0 -6,-2 -6,-2 0,0 6,-8 6,-8 0,0 -6,-2 -6,-2 0,0 8,-6 8,-6 0,0 -6,-2 -6,-2 0,0 8,-2 8,-2 0,0 -8,-8 -8,-8 0,0 12,-2 12,-2 -4.76,-1.82 -4.72,-1.74 -2,-6.00006 0,0 -6,-2 -6,-2 7.44,-3.46 8.14,-4.86 12,-12 0,0 6,2 6,2 0,0 2,-2 2,-2 0,0 0,-10 0,-10 0,0 6,2 6,2 0,0 -2,-6 -2,-6 0,0 8,0 8,0 0,0 2,-12 2,-12 0,0 6,2 6,2 0,0 -2,-6 -2,-6 0,0 8,0 8,0 0,0 -2,-6 -2,-6 0,0 8,-6 8,-6 0,0 6,6 6,6 0,0 -2,-8 -2,-8 0,0 10,-6 10,-6 0,0 14,2 14,2 0,0 6,-8 6,-8 0,0 2,2 2,2 0,0 -2,4 -2,4 0,0 10,-8 10,-8 z m 4,4 c 0,0 -2,0 -2,0 0,0 2,2 2,2 0,0 0,-2 0,-2 z m -22,6 c 0,0 -2,0 -2,0 0,0 2,2 2,2 0,0 0,-2 0,-2 z m -34,20 c 0,0 -2,0 -2,0 0,0 2,2 2,2 0,0 0,-2 0,-2 z M 101.68481,361.55575 c -7.160002,4.56 -1.48,7.76 1.48,6.72 2.96,-1.04 5.04,-5.14 -1.48,-6.72 z m 23.91999,16.18 c -11.33999,2 -11.33999,8 0,10 0,0 0,-10 0,-10 z m 388,10 c 0,0 -2,0 -2,0 0,0 2,2 2,2 0,0 0,-2 0,-2 z m -50,44 c 0,0 -2,0 -2,0 0,0 2,2 2,2 0,0 0,-2 0,-2 z m -42,2 c 0,0 4,8 4,8 0,0 -4,-8 -4,-8 z m -186,30 c 0,0 -2,0 -2,0 0,0 2,2 2,2 0,0 0,-2 0,-2 z m -80,58 c 0,0 -2,0 -2,0 0,0 2,2 2,2 0,0 0,-2 0,-2 z m -26,6 c -7.67999,3.38 -8.53999,3.62 -9.99999,12 0,0 9.99999,-12 9.99999,-12 z m -69.999992,2 c 0,0 -8,8 -8,8 0,0 8,-8 8,-8 z m 73.999992,6 c 0,0 -9.99999,8 -9.99999,8 7.05999,-1.22 7.31999,-1.34 9.99999,-8 z m -81.999992,2 c 0,0 -2,0 -2,0 0,0 2,2 2,2 0,0 0,-2 0,-2 z"
     style="fill:#000000;stroke:none" />
</svg>
