<?xml version="1.0" encoding="UTF-8" standalone="no"?>
<svg
   xmlns:dc="http://purl.org/dc/elements/1.1/"
   xmlns:cc="http://creativecommons.org/ns#"
   xmlns:rdf="http://www.w3.org/1999/02/22-rdf-syntax-ns#"
   xmlns:svg="http://www.w3.org/2000/svg"
   xmlns="http://www.w3.org/2000/svg"
   xmlns:sodipodi="http://sodipodi.sourceforge.net/DTD/sodipodi-0.dtd"
   xmlns:inkscape="http://www.inkscape.org/namespaces/inkscape"
   width="100mm"
   height="100mm"
   viewBox="0 0 1181.1012 1181.1033"
   version="1.1"
   id="svg878"
   sodipodi:docname="grincette.svg"
   inkscape:version="1.0.1 (3bc2e813f5, 2020-09-07)">
  <metadata
     id="metadata884">
    <rdf:RDF>
      <cc:Work
         rdf:about="">
        <dc:format>image/svg+xml</dc:format>
        <dc:type
           rdf:resource="http://purl.org/dc/dcmitype/StillImage" />
        <dc:title></dc:title>
      </cc:Work>
    </rdf:RDF>
  </metadata>
  <defs
     id="defs882" />
  <sodipodi:namedview
     pagecolor="#ffffff"
     bordercolor="#666666"
     borderopacity="1"
     objecttolerance="10"
     gridtolerance="10"
     guidetolerance="10"
     inkscape:pageopacity="0"
     inkscape:pageshadow="2"
     inkscape:window-width="3840"
     inkscape:window-height="2066"
     id="namedview880"
     showgrid="false"
     units="mm"
     inkscape:zoom="4.4272867"
     inkscape:cx="163.04016"
     inkscape:cy="181.3752"
     inkscape:window-x="-11"
     inkscape:window-y="-11"
     inkscape:window-maximized="1"
     inkscape:current-layer="svg878"
     inkscape:document-rotation="0" />
  <path
     id="Sélection"
     fill="none"
     stroke="#000000"
     stroke-width="0.7"
     d="m 767.4487,533.73021 c -3.17402,1.10157 -3.94896,2.56981 -6.59239,4.23637 0,0 -5.59865,2.57114 -5.59865,2.57114 0,0 -10.11005,8.60711 -10.11005,8.60711 -1.69952,1.24967 -8.0616,5.04512 -8.69037,6.63816 -0.55057,1.38762 0.12416,4.09697 0.40074,5.54992 0.7315,3.80099 2.1928,10.22995 3.46985,13.77203 0,0 6.34261,16.95828 6.34261,16.95828 1.35713,5.44738 0.22859,6.38006 1.57818,11.37852 1.3412,4.92896 5.44528,8.08249 2.23393,9.96272 -4.07927,2.3895 -7.26596,-5.755 -7.94093,-8.40791 0,0 -2.00049,-10.71706 -2.00049,-10.71706 -0.75316,-2.44748 -1.77246,-4.014 -2.79293,-6.2925 -4.19349,-9.39666 -7.7321,-17.47761 -13.05468,-26.40262 -2.23395,1.74131 -4.72389,3.25401 -7.3105,4.44415 -1.77051,0.81262 -4.63079,1.65077 -5.66842,3.41999 -1.14006,1.96064 0.003,4.12421 -0.49316,7.79817 -0.26484,1.95673 -3.32574,10.99636 -4.24937,12.90414 -3.43716,7.15732 -8.46331,9.07288 -15.68514,11.15145 -8.15635,2.33921 -5.00008,1.32439 -12.76451,1.05278 -11.73609,-0.4065 -16.77227,-2.86958 -26.05024,-9.53565 0,0 -4.5105,-3.3316 -4.5105,-3.3316 0,0 -5.50289,-5.8687 -5.50289,-5.8687 0,0 2.36282,11.62946 2.36282,11.62946 0,0 2.72713,11.51648 2.72713,11.51648 0,0 2.42403,13.48346 2.42403,13.48346 0.81144,3.98454 2.30086,4.87679 2.78581,8.86683 0.89249,7.23217 -4.94322,10.19992 -1.05038,18.28331 2.57915,5.36079 8.04323,8.63672 11.99773,12.81933 3.34697,3.54087 4.74321,7.03052 8.72442,10.08886 0,0 4.50324,3.40016 4.50324,3.40016 3.64831,1.96894 4.25962,0.98012 7.88083,4.55 -3.47316,2.3757 -5.88806,1.85441 -6.83656,3.49726 -1.46743,2.55568 2.68108,8.20824 0.28436,11.40749 -1.60537,2.13657 -6.47527,1.1355 -5.78332,-3.339 -3.23426,-2.3361 -7.62047,-9.98496 -9.73886,-13.7218 0,0 -2.41199,-4.48831 -2.41199,-4.48831 -7.01331,-9.65059 -12.76364,-9.67272 -17.29016,-17.59658 -1.14672,-2.00382 -3.48221,-6.51263 -3.74058,-8.73911 0,0 0.32418,-13.9175 0.32418,-13.9175 0,0 -1.36589,-5.0402 -1.36589,-5.0402 0,0 -1.24123,-6.90813 -1.24123,-6.90813 0,0 -5.56924,-17.87779 -5.56924,-17.87779 -2.6709,-10.88588 -6.76109,-25.34746 -12.20352,-35.04489 0,0 -2.43111,-4.48319 -2.43111,-4.48319 0,0 -8.79493,-6.92874 -8.79493,-6.92874 0,0 -4.36881,-0.833 -4.36881,-0.833 -2.52051,-0.59035 -8.27154,-2.79527 -10.61648,-4.01171 -0.80989,2.10277 -1.44266,6.74076 -2.98681,7.80531 -1.81496,1.23959 -7.50303,0.49362 -9.81287,0.36438 0,0 -7.89618,-0.32342 -7.89618,-0.32342 0,0 -19.19588,-4.55176 -19.19588,-4.55176 -17.60151,-4.41529 -34.82249,-10.83368 -53.15162,-11.5387 0,0 -6.58924,0.2129 -6.58924,0.2129 -9.60968,0.16646 -6.73681,0.79051 -14.9607,2.1127 -2.49541,0.40218 -5.61259,0.2433 -7.71142,1.66657 -2.21032,1.50439 -6.69942,10.72173 -8.40904,13.65489 -5.6765,9.71998 -15.36352,13.9964 -25.59345,17.54715 -3.86881,1.33898 -8.26537,3.42404 -12.26174,1.81995 -2.32081,1.35977 -2.55168,1.33964 -4.6873,-0.28134 -2.02821,1.55295 -2.55992,0.8499 -4.68731,-0.28135 0.48689,-1.31931 1.26861,-4.3113 2.1546,-5.17387 2.15827,-2.10024 7.47234,-0.81848 12.39846,-3.47076 2.39518,-1.29258 16.35299,-11.77622 18.13109,-13.70798 1.29473,-1.40254 2.17279,-3.02139 3.12129,-4.66424 0,0 10.5,-18.18653 10.5,-18.18653 1.10157,-1.89396 2.01163,-3.68025 3.73454,-5.1104 4.74602,-3.93636 15.31182,-2.58086 21.00813,-1.34515 0,0 6.42196,1.47684 6.42196,1.47684 0,0 14.05276,-0.4141 14.05276,-0.4141 0,0 22.53847,2.83622 22.53847,2.83622 0,0 17.83851,1.3028 17.83851,1.3028 0,0 13.47042,1.86854 13.47042,1.86854 0,0 -20.12178,-7.20405 -20.12178,-7.20405 0,0 -22.85444,-6.55895 -22.85444,-6.55895 -3.93799,-1.8452 -5.20223,-5.33947 -8.78248,-7.18829 0,0 -4.54453,-1.92865 -4.54453,-1.92865 0,0 -14.83906,-7.072 -14.83906,-7.072 0,0 -8.31128,-3.23044 -8.31128,-3.23044 0,0 -15.95344,-7.36782 -15.95344,-7.36782 -3.22876,-2.00962 -3.4606,-3.37207 -5.47768,-4.51238 0,0 -12.40014,-5.12234 -12.40014,-5.12234 0,0 -29.02702,-14.12373 -29.02702,-14.12373 -2.60774,-1.27925 -6.59241,-2.97359 -9.43554,-3.25715 -7.07052,-0.70351 -12.90496,1.19803 -19.31767,-2.94082 -3.71323,-2.40249 -2.16416,-2.81757 -8.40726,-6.43819 0,0 -21.82384,-12.6 -21.82384,-12.6 -6.1783,-3.55088 -8.1498,-2.83814 -15.09308,-3.25803 -5.35309,-0.31817 -12.43086,-0.95312 -17.63655,0.1394 0,0 -16.79483,5.70951 -16.79483,5.70951 -2.75041,0.73185 -12.76486,2.10337 -15.35431,1.98245 0,0 -8.0684,-1.42513 -8.0684,-1.42513 1.96228,-1.76076 4.60817,-4.56559 6.75824,-5.79762 0,0 14.95679,-5.91392 14.95679,-5.91392 10.23619,-4.1776 14.34828,-7.11395 25.55955,-8.57044 -6.06571,-1.92588 -16.44593,-9.66481 -22.43005,-12.95 0,0 -23.53122,-15.24275 -23.53122,-15.24275 0,0 -14.74244,-9.46534 -14.74244,-9.46534 0,0 -6.31464,-4.51871 -6.31464,-4.51871 0,0 -22.89797,-16.28357 -22.89797,-16.28357 -2.82422,-1.8003 -7.9279,-3.92246 -8.63548,-7.4429 -5.09508,-1.32506 -11.674,-7.13605 -15.70638,-10.59575 0,0 -6.73212,-5.13964 -6.73212,-5.13964 0,0 -13.97666,-12.19171 -13.97666,-12.19171 0,0 -28.50424,-26.22916 -28.50424,-26.22916 0,0 -5.32018,-4.78518 -5.32018,-4.78518 0,0 -11.13529,-11.51311 -11.13529,-11.51311 0,0 -4.29046,-5.16871 -4.29046,-5.16871 -2.38823,-2.21946 -3.61381,-1.91669 -6.06218,-3.5 0,0 -7.23684,-5.66544 -7.23684,-5.66544 -3.24887,-2.56279 -11.18241,-11.45949 -14.0481,-14.86798 -3.05054,-3.62031 -6.93378,-8.20634 -8.75929,-12.59045 -3.20689,-7.70352 -0.96139,-11.25683 -1.64539,-15.58811 0,0 -0.67487,-4.43109 -0.67487,-4.43109 0,0 5.13109,-1.8873 5.13109,-1.8873 0,0 2.5873,3.91865 2.5873,3.91865 0,0 3.04259,-3.56191 3.04259,-3.56191 0,0 5.44159,-0.0591 5.44159,-0.0591 0,0 6.64515,-1.45772 6.64515,-1.45772 0,0 18.25176,-7.46297 18.25176,-7.46297 0,0 8.67078,-0.0942 8.67078,-0.0942 0,0 12.37555,-1.83508 12.37555,-1.83508 0,0 21.43867,-0.73284 21.43867,-0.73284 0,0 -7.0184,-3.24379 -7.0184,-3.24379 2.69722,-0.68172 2.8714,-0.60541 4.94353,1.23757 0,0 1.44457,-0.34608 1.44457,-0.34608 0,0 9.39869,2.56499 9.39869,2.56499 3.23425,-2.73188 4.97767,0.19842 9.41513,0.0445 3.9694,-0.14122 5.42602,-2.41216 11.0841,-1.95023 0,0 -8.69974,3.86839 -8.69974,3.86839 0,0 12.98679,8.30622 12.98679,8.30622 0,0 1.11865,2.26244 1.11865,2.26244 0,0 4.77436,19.73057 4.77436,19.73057 0,0 -0.95622,0.25622 -0.95622,0.25622 0,0 -2.45253,-5.3281 -2.45253,-5.3281 0,0 -4.34044,-11.49414 -4.34044,-11.49414 0,0 -8.56844,-4.17103 -8.56844,-4.17103 0,0 4.43109,-0.67487 4.43109,-0.67487 -5.06714,-4.08945 -7.91324,-11.11586 -18.37409,-7.37513 0,0 5.45596,3.15 5.45596,3.15 -6.47814,3.53446 -8.91546,-2.67397 -11.54471,-3.80399 -2.27482,-0.97389 -9.13661,-0.97492 -11.70426,-0.72761 0,0 9.88705,2.47513 9.88705,2.47513 0.0763,3.32574 3.17419,7.83013 4.50843,11.20315 2.90197,7.34965 4.53438,13.95824 3.85297,21.91447 -1.41176,-2.34275 -1.69015,-6.90058 -2.36362,-9.8921 -1.07353,-4.79058 -3.76104,-13.30968 -6.18597,-17.42557 -3.79683,-6.44371 -7.14089,-5.95762 -14.02423,-6.38332 -8.08036,-0.49442 -21.55064,-0.64123 -28.6047,3.34476 8.66791,2.30474 3.91769,1.13836 12.14948,1.35648 -2.66624,1.52407 -5.09588,1.19634 -5.9125,2.47077 -0.86913,1.36536 0.38203,3.5103 0.90585,4.81501 1.19095,2.99122 2.21911,5.29841 1.55019,8.50102 3.31855,2.70809 3.26376,4.875 4.62161,8.79513 1.82431,5.24021 5.01513,15.77155 7.75223,20.17275 0,0 3.56865,-1.98109 3.56865,-1.98109 0,0 0.18757,-3.12487 0.18757,-3.12487 0,0 4.34544,3.15547 4.34544,3.15547 0,0 6.36667,-2.09539 6.36667,-2.09539 0,0 13.8682,-3.03444 13.8682,-3.03444 0,0 -3.66243,3.54353 -3.66243,3.54353 2.79364,-0.30274 6.2264,-1.01245 8.90139,-0.0177 3.02779,1.12571 9.32835,9.58883 10.35397,12.46035 0.45714,1.26621 0.26977,1.61876 0.21224,2.83839 0,0 -2.26243,1.11866 -2.26243,1.11866 0,0 11.08844,15.79425 11.08844,15.79425 0,0 6.76648,10.6801 6.76648,10.6801 1.98526,-3.60656 5.95398,-14.70859 9.68861,-15.74515 1.2727,-0.35639 2.01648,0.10536 3.14248,0.52106 0,0 -0.32487,-5.03731 -0.32487,-5.03731 1.9661,3.03461 1.69469,5.10071 4.2254,8.0814 4.81874,5.6677 12.411,5.41151 8.96735,12.46808 0,0 6.22462,6.01866 6.22462,6.01866 0,0 -1.28109,-4.78109 -1.28109,-4.78109 0,0 20.67036,24.39788 20.67036,24.39788 0,0 7.84027,7.42026 7.84027,7.42026 1.37857,-5.41176 6.05476,-8.28916 11.24352,-9.67436 0,0 -1.05,1.81865 -1.05,1.81865 1.37096,-0.58257 2.44824,-0.92247 3.65959,-1.92859 0.86105,-0.91738 1.25593,-1.85333 1.736,-3.00684 0.45731,-0.72208 1.13144,-1.9737 1.20027,-2.80692 0.38753,-4.94123 -8.04552,-12.41275 -6.91399,-18.30662 -3.06701,-2.45778 -3.6772,-4.25691 -4.2184,-8.09352 0,0 13.35519,23.06814 13.35519,23.06814 0,0 -8.24367,-22.12156 -8.24367,-22.12156 0,0 -2.31152,-5.79632 -2.31152,-5.79632 4.99393,2.59226 7.24248,12.78165 9.04723,17.92974 1.05289,2.99234 4.39615,13.02165 5.80798,15.15428 1.68525,2.54106 4.17968,3.72257 6.2888,5.83748 0,0 3.86249,4.56596 3.86249,4.56596 5.57786,-6.09112 9.18576,2.6118 11.6212,6.7095 0,0 3.41318,5.05019 3.41318,5.05019 0,0 11.43988,17.98555 11.43988,17.98555 5.8817,8.54461 19.99364,27.208 27.40113,33.73985 -4.0166,3.33096 -6.95915,-0.3644 -10.40432,-3.10518 0,0 -12.59839,-13.05296 -12.59839,-13.05296 0,0 -3.55474,-5.043 -3.55474,-5.043 -1.9068,-2.50732 -4.69395,-5.02985 -4.91561,-8.28591 0,0 -6.10983,-7.61746 -6.10983,-7.61746 0,0 -7.83192,-11.63472 -7.83192,-11.63472 0,0 -3.91318,-7.22218 -3.91318,-7.22218 0,0 -3.28731,-2.70621 -3.28731,-2.70621 -3.21062,2.49495 -5.09343,2.98407 -8.86218,1.34974 -4.19322,3.60888 -8.7767,-0.49231 -12.00458,-0.16546 -1.88668,0.18783 -3.84567,3.3569 -5.20734,4.77738 0,0 -4.84974,-2.8 -4.84974,-2.8 0,0 7.99123,8.61478 7.99123,8.61478 0,0 9.78661,10.9931 9.78661,10.9931 0,0 5.39718,4.65181 5.39718,4.65181 0,0 4.33596,5.0899 4.33596,5.0899 0,0 24.49811,28.96803 24.49811,28.96803 0,0 -2.61244,1.72487 -2.61244,1.72487 8.45529,7.93701 19.6544,2.97359 29.40493,6.46917 0,0 -1.4,2.42487 -1.4,2.42487 0,0 8.75583,3.03446 8.75583,3.03446 0,0 6.65627,3.843 6.65627,3.843 0,0 8.44309,-1.99585 8.44309,-1.99585 0,0 -4.31208,-5.38326 -4.31208,-5.38326 0,0 -5.10606,-4.90405 -5.10606,-4.90405 0,0 2.1,-3.63731 2.1,-3.63731 0,0 1.81865,1.05 1.81865,1.05 3.36806,-5.48364 -0.0901,-4.14196 -7.34326,-8.28109 -4.8395,-2.76175 -6.63971,-3.85768 -11.12058,-7.21259 -2.31143,-1.72248 -3.97755,-2.12669 -3.4973,-5.26849 0,0 -3.12488,-0.18757 -3.12488,-0.18757 -0.7647,-3.5615 -7.549,-11.01873 0.65648,-10.93705 0.9839,-2.96417 2.96144,-7.95736 -2.39974,-7.04352 -2.36616,-2.6917 -2.43944,-3.97877 -4.07418,-6.94332 -2.86302,-5.17711 -10.64462,-11.53697 -4.5937,-15.84347 0,0 -1.46866,-1.65622 -1.46866,-1.65622 2.95558,-5.66521 -2.75861,-9.31994 -2.88704,-14.59949 -3.01883,-2.16323 -5.77298,-7.2209 -4.98705,-10.96217 0,0 -2.07487,-2.00622 -2.07487,-2.00622 4.05358,2.79298 3.45538,4.34709 5.66533,8.38736 0,0 2.95902,4.67482 2.95902,4.67482 0,0 1.957,-8.56962 1.957,-8.56962 0,0 4.46191,-9.54826 4.46191,-9.54826 0.99019,-4.37506 -0.18444,-10.25054 -1.32461,-14.50571 -1.013,-3.76143 -2.27855,-7.54744 -5.55405,-9.9801 -2.28462,-1.69892 -5.23201,-1.18589 -8.45761,-2.15099 0,0 1.21728,-3.50839 1.21728,-3.50839 1.17274,0.83874 2.94171,1.9328 4.21927,2.436 5.64331,1.43951 13.11154,-2.54985 18.03402,-4.77583 0,0 12.3185,-5.01227 12.3185,-5.01227 4.31363,-2.37543 8.42219,-6.66366 12.00575,-10.04257 3.53994,-3.33135 7.46547,-6.29458 10.51607,-10.09436 0,0 -17.78488,3.81232 -17.78488,3.81232 0,0 -8.177,0.54097 -8.177,0.54097 0,0 -3.56196,-3.6165 -3.56196,-3.6165 0,0 9.17972,-1.10174 9.17972,-1.10174 2.35954,-0.69886 2.05233,-1.90275 5.65297,-3.26724 0,0 15.16161,-3.94468 15.16161,-3.94468 6.77195,-1.27136 6.14153,1.86456 10.41795,0.63159 5.63612,-1.62806 13.38324,-9.16645 24.77299,-7.22208 -0.47202,-3.57843 -4.79232,-10.23545 -8.9057,-8.37487 -1.52874,-0.44615 -1.44744,-0.18097 -2.26244,1.11865 0,0 -1.30622,0.86244 -1.30622,0.86244 0,0 -16.93984,-1.69733 -16.93984,-1.69733 0,0 -10.09621,-3.27485 -10.09621,-3.27485 0,0 -4.88775,0.0798 -4.88775,0.0798 0,0 -13.92651,0.13943 -13.92651,0.13943 0,0 -6.34499,-0.0421 -6.34499,-0.0421 0,0 -24.24971,2.21373 -24.24971,2.21373 -6.55125,0.25909 -14.53143,0.0812 -21.00977,-0.82201 0,0 -11.07077,-1.82487 -11.07077,-1.82487 -1.13008,-0.0866 -1.98686,-0.12867 -3.1175,0.10767 0,0 -15.50214,5.54249 -15.50214,5.54249 -1.64494,0.49713 -5.49724,1.24751 -6.24519,2.89299 -0.92763,2.02671 1.53183,4.62679 2.67663,6.08794 3.31521,-1.41611 4.07052,0.15965 7.21018,1.51161 5.33217,2.2864 15.06786,6.96969 18.34475,11.62596 4.15543,-1.35942 2.85076,2.66433 10.20811,1.93303 0,0 15.5908,-2.05606 15.5908,-2.05606 0,0 7.2733,-1.15972 7.2733,-1.15972 0,0 4.6125,0.11691 4.6125,0.11691 2.72989,-0.0243 2.80897,-0.81928 5.99483,-0.28935 -1.03443,1.24568 -2.04842,2.77797 -3.51225,3.5494 -3.83965,2.00246 -17.23116,1.32724 -22.39941,4.93092 3.89682,3.6805 6.52944,7.36667 1.51218,11.38083 -2.16881,-2.16553 -6.06286,-6.46682 -8.33099,-7.97031 -5.13965,-3.40386 -6.62208,-1.38223 -11.52998,-2.42949 -5.33208,-1.13857 -10.17907,-3.77533 -14.88101,-6.42533 -3.82549,-2.15207 -11.25718,-5.19799 -11.93679,-10.12487 0,0 -4.49975,-3.40622 -4.49975,-3.40622 1.41469,5.58568 8.3332,14.88247 12.56832,18.83104 0,0 4.34574,3.67295 4.34574,3.67295 4.37443,3.66527 5.84424,6.81749 12.12436,7 0,0 -2.76572,3.39037 -2.76572,3.39037 0,0 -3.66156,-2.114 -3.66156,-2.114 0,0 -8.31723,-7.93813 -8.31723,-7.93813 0,0 -5.49518,-4.48207 -5.49518,-4.48207 0,0 -5.72411,-6.88555 -5.72411,-6.88555 0,0 1.30621,-0.86243 1.30621,-0.86243 -3.83992,-2.22507 -6.53514,-4.1368 -7.37362,-8.87251 -0.39481,-2.20017 0.92065,-2.79861 -0.67315,-6.18408 -1.41481,-3.02347 -4.3167,-2.58924 -4.95939,-7.03408 -0.66361,-4.61858 4.57486,-9.75788 10.86937,-5.0083 0,0 2.96244,-2.33109 2.96244,-2.33109 0,0 -0.18757,3.12487 -0.18757,3.12487 3.6968,-0.14503 6.08492,-1.21537 9.37462,0.56269 2.31584,-2.58315 7.1345,-1.77332 10.60345,-2.61571 12.77194,-3.10965 13.62356,-4.4447 27.08391,-2.46072 3.24861,0.47725 5.72508,0.23388 8.60462,1.89638 2.75863,-2.3841 7.92341,-1.69775 11.45783,-1.64555 5.06679,0.072 15.2761,-0.99298 20.42222,-1.77233 -3.37091,-5.96341 -1.01772,-13.03526 -2.25535,-15.87561 -0.74124,-1.81013 -3.66705,-2.44049 -5.37715,-3.1045 -5.67692,-2.0813 -11.93389,-3.1719 -17.80351,-1.36342 0,0 -1.46866,-1.65622 -1.46866,-1.65622 -2.05965,2.18143 -5.68755,1.28313 -8.38968,0.53135 -8.83134,-2.45567 -5.0892,-1.47524 -13.76863,-2.75202 0,0 -5.8195,-1.06434 -5.8195,-1.06434 -2.8905,-0.1735 -3.60631,0.88432 -6.65199,0.26559 0,0 -0.79378,2.77487 -0.79378,2.77487 -1.87266,-0.62046 -2.90668,-0.63548 -3.28731,-2.70622 0,0 -1.91243,0.51244 -1.91243,0.51244 0,0 -0.60622,-0.35 -0.60622,-0.35 -1.16705,-4.06862 -1.54072,-6.7254 -6.32683,-7.24161 0,0 -35.03643,3.28487 -35.03643,3.28487 -6.67378,-0.10264 -19.11629,-2.53357 -24.97469,0.65548 -6.88281,3.74538 1.34296,7.45992 -3.60324,13.84299 0,0 18.61011,16.76631 18.61011,16.76631 2.69971,2.46396 2.4597,3.32767 4.29952,5.27901 3.33935,3.30207 6.643,4.48198 10.85736,6.2685 0,0 -1.17528,3.43565 -1.17528,3.43565 0,0 4.43108,-0.67487 4.43108,-0.67487 1.31688,2.9831 -0.76611,3.77696 -3.47856,3.19704 -2.35077,-0.49235 -8.99575,-3.16489 -11.18957,-4.39108 -10.46058,-5.87776 -18.50542,-12.39768 -30.84844,-13.7689 0,0 4.31218,6.53109 4.31218,6.53109 0,0 -1.30622,0.86243 -1.30622,0.86243 3.43345,3.61505 6.49531,12.68976 5.21812,17.56191 -1.80992,-2.81511 -3.67007,-9.75726 -2.98081,-13.03704 0,0 -6.90927,-9.0328 -6.90927,-9.0328 0,0 -9.08348,-6.66694 -9.08348,-6.66694 3.46784,-1.76447 6.94233,0.43552 10.47154,1.46275 0,0 4.38892,1.38617 4.38892,1.38617 0,0 6.38435,0.95398 6.38435,0.95398 4.11423,1.25991 10.85361,5.54696 13.42849,8.94113 0,0 1.4,-2.42487 1.4,-2.42487 -1.94863,-1.49686 -5.96558,-5.10931 -7.89205,-5.93057 -3.57732,-1.5319 -10.12304,-1.73034 -11.10512,-7.36533 -3.46383,-1.28046 -3.43636,-2.57404 -6.06217,-3.5 0,0 -8.3379,-0.95834 -8.3379,-0.95834 -2.74394,-0.52535 -10.10895,-3.53278 -12.42814,-5.07383 -11.50499,-7.65277 -15.51556,-13.67025 -23.92824,-24.35509 0,0 -16.88956,-22.54642 -16.88956,-22.54642 0,0 -9.43223,-17.26291 -9.43223,-17.26291 0,0 2.35622,-2.68109 2.35622,-2.68109 6.57132,4.78815 10.66096,15.86268 15.96762,21.34327 6.07844,-5.02616 8.08799,5.8012 12.45011,6.37978 1.43088,0.19565 4.90689,-0.86898 6.47484,-1.23273 0,0 5.85867,-1.10351 5.85867,-1.10351 3.79824,-0.89475 6.33992,-2.32907 10.54619,-2.23654 -3.66235,2.54937 -9.64008,4.06911 -14.08005,4.78736 -2.32422,0.37168 -7.50211,1.26202 -9.10127,2.98185 -3.8457,4.14093 1.06442,9.95838 3.93186,12.97183 3.33673,3.50262 11.20032,10.16848 15.3676,12.58254 4.89474,2.83406 10.75953,4.44994 14.89923,7.79378 -3.97565,5.05202 -5.40598,0.24943 -11.73083,2.1184 11.32468,4.85706 6.61698,2.72104 17.60544,4.50647 -0.0227,-4.84668 -1.34779,-4.03556 -3.62968,-7.71321 -2.46718,-3.98671 -1.99746,-6.3263 -6.36955,-8.56762 0,0 2.45,-4.24352 2.45,-4.24352 6.15991,4.17072 6.85499,-0.6172 10.73173,-1.1999 2.42404,-0.36255 5.35994,1.51032 7.47572,1.73767 3.2188,0.34687 3.55745,-1.21968 7.14152,0.35652 4.05568,-3.72063 9.58834,-1.22148 14.49519,-1.30643 0,0 17.90255,-0.60013 17.90255,-0.60013 7.84271,-0.92797 15.41382,-2.86953 23.36262,-2.27325 -2.16781,-4.53324 -6.62609,-9.25728 -5.4057,-14.43705 0,0 8.36813,12.10596 8.36813,12.10596 -0.56518,-4.69107 -1.89667,-18.82085 0.10052,-22.57409 -3.79286,-2.06857 -10.27714,-0.46947 -14.51342,-0.062 0,0 -13.18127,1.83062 -13.18127,1.83062 0,0 -8.65832,-0.16531 -8.65832,-0.16531 0,0 -12.18367,1.25074 -12.18367,1.25074 -7.08286,0.70387 -16.64622,3.3381 -17.0856,-6.79288 0,0 -16.86407,2.73544 -16.86407,2.73544 0,0 -10.07246,1.92001 -10.07246,1.92001 2.96443,-1.99854 13.2354,-4.82238 16.9732,-5.59845 2.06399,-0.42494 6.90456,-1.02505 8.28279,-2.46021 1.13142,-1.18968 1.15005,-4.00794 1.43251,-5.63118 0,0 0.94819,-4.30231 0.94819,-4.30231 0.59262,-3.81246 -0.47095,-4.01429 1.21901,-8.18739 -6.2059,-1.83707 -5.02896,-3.88959 -10.6312,-5.38622 0,0 -6.63896,-1.10099 -6.63896,-1.10099 -16.04305,-2.84463 -22.13001,-2.53572 -38.35246,-0.7716 0,0 -18.16258,2.0585 -18.16258,2.0585 -3.82748,0.44139 -5.89885,1.35512 -8.93011,-1.33259 -3.60109,4.97728 0.42173,5.51354 -1.00647,11.54326 -3.2868,-5.74509 -4.40073,-9.65371 -4.27084,-16.2067 0.0573,-2.73126 -0.24093,-4.97268 1.59648,-7.16118 0,0 0.58109,5.99353 0.58109,5.99353 0,0 1.4,-2.42487 1.4,-2.42487 0,0 4.4557,-0.35351 4.4557,-0.35351 3.55403,0.71824 2.47861,4.73693 1.41891,6.97838 4.70154,0.98469 15.54602,-0.5785 20.78189,-1.23329 3.92148,-0.4922 6.82271,-1.75127 10.65439,-0.0159 2.2935,-1.27046 2.57236,-1.10946 5.0373,-0.32487 0,0 0.79379,-2.77487 0.79379,-2.77487 0,0 -1.91244,0.51244 -1.91244,0.51244 0,0 -0.60622,-0.35 -0.60622,-0.35 2.87805,-1.70893 11.05546,-3.51061 14.52001,-3.7574 2.27379,-0.15831 5.31519,1.41982 7.02922,0.033 2.69811,1.65475 6.14083,2.60779 9.28084,2.12513 0,0 0.86244,1.30622 0.86244,1.30622 0,0 2.77487,0.79378 2.77487,0.79378 5.72801,-2.37521 15.42881,5.65851 19.47042,5.09825 1.79318,-0.24989 6.43693,-3.05711 7.66823,-4.44777 2.26009,-2.5426 2.91415,-5.91545 7.00384,-5.18701 -2.43305,3.75217 -2.07195,4.16272 -5.54676,7.29727 -1.3756,1.23461 -4.20046,2.89341 -4.64548,4.56021 -0.31802,1.22282 0.21659,3.81085 0.36074,5.17118 0.50943,4.73163 2.32148,13.31108 1.16855,17.57601 0,0 4.24352,2.45 4.24352,2.45 -1.5341,1.73315 -2.37979,3.49193 -4.87487,2.84353 0.49005,2.65121 2.3363,1.98741 4.64253,1.75891 4.15815,-0.41214 8.95631,-1.82079 12.80048,0.22891 0,0 -0.32487,-5.03731 -0.32487,-5.03731 0,0 15.1434,-1.02918 15.1434,-1.02918 0,0 17.69286,-2.64493 17.69286,-2.64493 0,0 -2.26244,1.11866 -2.26244,1.11866 0,0 -1.4,2.42487 -1.4,2.42487 0,0 0.25622,0.95622 0.25622,0.95622 7.9605,-0.278 6.90152,-1.70578 11.98652,-2.40726 3.71836,-0.50439 4.86811,0.0382 7.19671,-0.14508 0,0 14.67866,-2.53418 14.67866,-2.53418 5.11296,-1.32389 3.8236,-2.88467 5.66587,-4.21358 1.71771,-1.23916 6.3594,-1.2428 8.44557,-0.99214 2.55767,-4.05203 5.6962,-4.98011 10.26217,-3.77461 1.84023,-2.23537 3.0165,-2.18672 5.73731,-1.53731 0,0 2.87438,-2.64058 2.87438,-2.64058 1.14018,-1.59685 1.74645,-8.66693 0.30923,-10.16759 -0.96538,-1.00192 -4.88513,-2.26271 -6.32688,-2.74753 0,0 -16.70172,-4.67176 -16.70172,-4.67176 0,0 -19.3821,-5.62923 -19.3821,-5.62923 0,0 -13.16942,-2.38989 -13.16942,-2.38989 0,0 -5.34674,-1.93917 -5.34674,-1.93917 0,0 -24.49314,-5.1206 -24.49314,-5.1206 -6.51604,-0.43188 -9.01555,6.93539 -14.88408,7.52398 0,0 -3.15,5.45596 -3.15,5.45596 0,0 -2.42487,-1.4 -2.42487,-1.4 0,0 6.94295,-7.30755 6.94295,-7.30755 0,0 7.00679,-5.65411 7.00679,-5.65411 -7.43451,-2.99905 -6.57146,-1.44191 -12.62595,-1.98721 0,0 -9.04937,-1.07004 -9.04937,-1.07004 0,0 -23.39875,-2.87218 -23.39875,-2.87218 0,0 -16.9908,-1.371088 -16.9908,-1.371088 0,0 -13.29718,-1.77661 -13.29718,-1.77661 -3.37879,-0.29375 -8.32666,-0.3618 -11.153,-2.07442 -2.81933,2.55921 -6.5828,2.66574 -10.15913,3.83411 -9.15164,2.985108 -14.31064,3.926768 -22.88984,8.608378 0,0 -1.81866,-1.05 -1.81866,-1.05 1.06677,-5.3897 2.0957,-4.03585 5.10166,-7.562328 3.03302,-3.55935 4.80493,-8.00038 10.24809,-7.8242 0,0 -5.57488,4.05596 -5.57488,4.05596 0,0 10.24974,-3.51506 10.24974,-3.51506 0,0 8.87462,-1.6093 8.87462,-1.6093 0,0 -3.38109,-1.14378 -3.38109,-1.14378 0,0 12.51349,0.72601 12.51349,0.72601 0,0 13.20298,-0.46824 13.20298,-0.46824 0,0 14.23342,0.54699 14.23342,0.54699 0,0 13.39031,1.53131 13.39031,1.53131 0,0 2.63099,1.51901 2.63099,1.51901 0,0 4.70759,-1.15379 4.70759,-1.15379 4.62611,3.49535 11.27155,2.5551 16.66601,3.33363 0,0 9.99394,1.47798 9.99394,1.47798 10.11196,0.71358 20.16924,1.03186 30.1086,3.262378 5.44026,1.2172 7.17895,0.7257 12.4659,3.60838 0,0 -1.65621,1.46866 -1.65621,1.46866 4.37731,0.48226 13.46179,1.85548 16.64922,4.76269 3.03878,-1.14732 6.53291,0.93467 9.48733,1.76746 6.38408,1.79445 17.93513,3.97744 23.51291,6.87445 0,0 2.40062,1.386 2.40062,1.386 0,0 13.41139,3.4268 13.41139,3.4268 0,0 11.16675,5.03262 11.16675,5.03262 0,0 6.52669,2.13544 6.52669,2.13544 0,0 6.05611,3.4965 6.05611,3.4965 0,0 4.78603,1.51036 4.78603,1.51036 0,0 5.67646,2.76808 5.67646,2.76808 0,0 7.2494,2.84368 7.2494,2.84368 0,0 22.58334,11.28451 22.58334,11.28451 0,0 17.32409,9.19378 17.32409,9.19378 0,0 3.05622,-3.89352 3.05622,-3.89352 0,0 2.50259,5.5914 2.50259,5.5914 0,0 13.28223,7.6685 13.28223,7.6685 0,0 15.53416,9.49404 15.53416,9.49404 0,0 26.06736,15.05 26.06736,15.05 0,0 9.87871,6.68958 9.87871,6.68958 0,0 14.19922,9.00622 14.19922,9.00622 0,0 2.00622,-2.07487 2.00622,-2.07487 -5.43224,-4.38108 -8.51204,-10.59671 -12.51788,-16.1184 0,0 -0.7,1.21244 -0.7,1.21244 -2.08068,-2.06615 -2.55372,-2.49284 -2.49352,-5.48109 -3.23217,-0.85573 -4.43998,-1.42373 -4.40596,-4.96865 -2.05845,-1.60067 -2.0839,-3.68459 -3.0015,-6.05727 0,0 -5.06151,-12.17719 -5.06151,-12.17719 -2.45938,-6.52024 -3.00757,-16.19674 -3.5727,-23.23991 0,0 -1.01347,-10.28461 -1.01347,-10.28461 -0.29071,-6.86048 0.36967,-19.0643 1.18367,-25.99019 0.5514,-4.69305 0.87108,-10.384748 2.58674,-14.672348 1.41466,1.30173 2.80201,2.69277 3.54581,4.51246 0.91904,2.24418 1.29148,12.393098 1.47103,15.358108 0.66997,10.99158 1.93376,23.16662 5.30976,33.64322 1.35054,4.1988 7.80262,22.31148 9.74454,25.12197 2.32233,3.36961 4.93771,4.10364 6.94283,6.17467 0,0 8.30864,12.20901 8.30864,12.20901 0,0 8.03779,16.87814 8.03779,16.87814 0,0 9.68835,11.21928 9.68835,11.21928 0,0 5.45596,3.15 5.45596,3.15 2.01821,1.27837 2.7356,1.8138 4.46475,3.46683 0,0 0.7,-1.21243 0.7,-1.21243 2.58645,2.94013 2.98126,5.1403 4.78961,8.50415 0,0 5.14886,8.16191 5.14886,8.16191 0,0 6.29245,12.62115 6.29245,12.62115 0,0 12.17623,12.51015 12.17623,12.51015 0,0 14.16503,17.46544 14.16503,17.46544 4.41265,5.22309 9.86191,8.90269 14.8846,13.41912 3.21356,2.88996 5.74654,4.5787 6.95127,8.96006 0,0 -8.99949,-6.81244 -8.99949,-6.81244 0,0 12.21482,19.44332 12.21482,19.44332 0,0 13.72691,23.8243 13.72691,23.8243 0,0 -0.0687,-4.08108 -0.0687,-4.08108 0,0 7.24949,9.84352 7.24949,9.84352 0,0 -0.67487,-4.43109 -0.67487,-4.43109 1.07861,1.30979 1.98316,2.90706 3.77708,3.27189 2.54689,0.51667 7.3356,-0.52562 5.54413,-4.1707 -1.25196,-2.54955 -7.95632,-7.68125 -10.35061,-9.90422 -2.72721,-2.52834 -2.24277,-3.49341 -4.5623,-6.12586 -2.20811,-2.50345 -5.2284,-3.75416 -5.50106,-7.2579 -3.02392,-0.82441 -7.74754,-3.47885 -9.34948,-6.20622 2.33233,0.53828 5.40582,0.95484 6.06218,3.5 4.66228,1.22069 7.17565,5.1694 10.43663,8.52321 0,0 5.15568,5.07011 5.15568,5.07011 0,0 7.14609,5.76662 7.14609,5.76662 0,0 5.70358,8.37711 5.70358,8.37711 0.99716,-3.60315 -2.7468,-6.90441 -5.04584,-9.46036 -3.59239,-3.9978 -18.15899,-17.85571 -22.34614,-20.09534 0,0 2.12674,-0.47762 2.12674,-0.47762 0,0 9.31789,7.25492 9.31789,7.25492 0,0 28.25927,26.65353 28.25927,26.65353 4.08166,-3.31765 5.3129,-2.35622 8.28108,-7.34327 0.91419,-1.54141 2.428,-3.98141 2.7014,-5.71496 0.84053,-5.27783 -3.63401,-9.4697 -5.41829,-12.97323 0,0 -2.59461,-7.35002 -2.59461,-7.35002 0,0 -5.27321,-11.62853 -5.27321,-11.62853 0,0 -3.59699,-4.91382 -3.59699,-4.91382 -1.68443,-2.92049 -1.29221,-5.01383 -3.54615,-9.3139 0,0 -14.95427,-24.48443 -14.95427,-24.48443 0,0 -3.21127,-7.10792 -3.21127,-7.10792 0,0 -5.30659,-8.61671 -5.30659,-8.61671 -1.12822,-2.25988 -0.15229,-3.62824 -1.8648,-5.50608 1.8003,-2.82422 2.17733,-4.82126 0.46891,-7.81218 0,0 10.22362,-23.19584 10.22362,-23.19584 0,0 3.79866,-5.08146 3.79866,-5.08146 0,0 6.3,-10.91192 6.3,-10.91192 0,0 4.2,-7.27461 4.2,-7.27461 0,0 4.43133,-8.7253 4.43133,-8.7253 0.45517,-2.77638 -1.59525,-5.39895 0.44723,-7.81661 2.31216,-2.73078 6.48406,-0.18472 7.53201,2.94218 2.30231,6.89027 -2.83236,14.84578 -6.02067,20.5221 0,0 -2.94835,6.38068 -2.94835,6.38068 0,0 -6.87839,15.42773 -6.87839,15.42773 -1.2954,3.5037 -3.84679,11.21284 -3.43052,14.83183 0.26069,2.29247 1.55249,3.49902 2.31628,5.50808 0,0 1.28036,4.16636 1.28036,4.16636 0,0 2.88371,4.62326 2.88371,4.62326 0,0 3.56946,6.41751 3.56946,6.41751 0,0 7.89142,11.53166 7.89142,11.53166 0,0 5.44029,10.56915 5.44029,10.56915 0,0 1.99086,2.93574 1.99086,2.93574 0,0 3.34795,7.02517 3.34795,7.02517 5.72696,11.12262 10.29226,22.42328 14.71775,34.1201 0,0 8.74884,19.03457 8.74884,19.03457 0.8548,1.85145 2.99239,5.37304 2.22731,7.3562 -0.65702,1.69798 -5.10308,3.98078 -6.77078,4.90933 -7.05287,3.91393 -7.39587,1.58202 -17.92814,9.85645 2.71701,3.064 6.53822,6.17546 6.89948,10.44974 2.98716,-0.8619 8.13618,-2.68227 11.12112,-2.46233 1.69861,0.1239 3.21066,1.00497 4.85952,1.38305 0,0 15.56583,2.3832 15.56583,2.3832 2.09535,-0.0593 7.54355,-1.79581 9.60417,-2.63492 3.92813,-1.59572 8.296,-5.81508 11.78279,-8.52239 0,0 17.94115,-15.50697 17.94115,-15.50697 0,0 7.29901,-7.91027 7.29901,-7.91027 3.74786,-3.03348 6.69205,-3.02297 9.03275,-4.55717 1.74683,-1.1496 2.31071,-2.60228 4.22328,-3.53495 3.28916,-1.60898 6.17039,-0.13141 9.42832,-0.38433 4.40184,-0.3442 5.04629,-2.14642 12.66302,-0.87699 0,0 22.17869,7.78539 22.17869,7.78539 0,0 16.81929,1.66814 16.81929,1.66814 0,0 4.77831,0.12373 4.77831,0.12373 2.48351,0.31842 2.95529,1.02727 4.75452,1.56492 1.57724,0.47414 2.30909,0.29854 3.73459,0.5315 1.93479,0.31684 5.71784,2.44441 7.72611,3.41798 -2.07652,1.67863 -2.82216,1.24813 -5.3873,0.93109 -3.35077,3.9417 -14.05597,3.86365 -18.98858,3.48917 0,0 -13.7462,0.009 -13.7462,0.009 0,0 -13.83633,-2.56478 -13.83633,-2.56478 -2.47727,-0.16123 -3.44794,0.80602 -5.47373,0.64679 0,0 -11.02425,-2.91345 -11.02425,-2.91345 -4.64661,-0.64583 -4.99152,1.54757 -7.3474,3.17808 -3.40367,2.36733 -6.64759,1.81196 -5.07446,7.10922 -3.44696,4.29032 -8.12366,7.28059 -12.46487,10.58579 -2.98737,2.27628 -6.81592,5.29551 -10.04964,7.13049 0,0 -8.74218,3.8439 -8.74218,3.8439 -12.92968,5.58085 -19.8359,8.14878 -33.99416,8.85761 0,0 -5.08981,0.4158 -5.08981,0.4158 -2.77301,-0.041 -3.6532,-1.26047 -7.20668,-1.51766 -3.73747,-0.27452 -5.11055,0.39574 -9.49361,-0.35658 0,0 -1.05,1.81865 -1.05,1.81865 0,0 4.05596,5.57487 4.05596,5.57487 0,0 -1.4,2.42487 -1.4,2.42487 0,0 3.38109,1.14378 3.38109,1.14378 0,0 -2.96244,2.33109 -2.96244,2.33109 0,0 6.52436,16.69949 6.52436,16.69949 0,0 0.28135,-4.68731 0.28135,-4.68731 0,0 1.46865,1.65622 1.46865,1.65622 0.90176,-2.0659 4.79788,-8.56217 6.28342,-10.1132 0,0 3.88067,-3.41753 3.88067,-3.41753 1.74679,-1.72351 2.57116,-3.17937 4.81104,-4.49696 6.26527,-3.69777 19.06189,-3.77016 25.61387,-0.48851 4.52739,2.26632 10.64615,7.48832 12.95389,11.98919 1.56056,3.05104 2.2262,6.43411 3.32496,9.65501 0,0 2.24683,6.09037 2.24683,6.09037 1.11848,4.25073 2.15722,16.46558 1.0428,20.66382 -1.14404,3.43753 -4.42965,8.54037 -6.65,11.51814 -2.60499,3.95197 -4.97793,2.78402 -7.00358,7.27255 0,0 -5.76347,24.96262 -5.76347,24.96262 9.19195,0.0531 15.1069,0.15409 24.34838,-1.55863 4.34484,-0.80549 9.91767,-2.8419 13.89364,-3.09249 1.10821,-0.0715 2.48178,-0.0706 3.54298,0.27538 1.67586,0.55533 6.71909,3.5802 6.16781,5.71104 -0.48334,1.88717 -3.65654,2.60931 -5.24249,3.11626 -4.25873,1.35634 -9.68381,2.96884 -12.63052,6.4487 0,0 -23.6346,1.73632 -23.6346,1.73632 0,0 -7.00789,-3.26197 -7.00789,-3.26197 0,0 -5.64953,27.45328 -5.64953,27.45328 -1.33309,6.11698 -0.28546,9.51043 -3.22612,15.91979 z M 636.472,563.18852 c 0,0 0.65647,-10.93705 0.65647,-10.93705 0,0 -6.34352,1.18731 -6.34352,1.18731 0,0 5.68705,9.74974 5.68705,9.74974 z m 55.19636,-209.0029 c 0.76131,-4.06263 1.54845,-3.592 4.45621,-6.31839 -3.61524,-4.71421 -5.44391,-5.07486 -8.73689,-0.26725 -0.45116,-0.26857 -0.66696,-0.7488 -1.7156,-0.9905 -1.43474,-0.49696 -5.97115,0.62633 -6.92814,1.83589 -1.48961,1.88008 0.25249,5.30267 2.37633,5.86607 0,0 10.54809,-0.12582 10.54809,-0.12582 z M 571.90644,536.41935 c -2.49204,-2.10966 -8.24979,-3.00094 -11.44949,-2.56891 0,0 11.44949,2.56891 11.44949,2.56891 z m 101.15673,-196.2086 c 0,0 -0.35,0.60622 -0.35,0.60622 0,0 -0.25622,-0.95622 -0.25622,-0.95622 0,0 0.60622,0.35 0.60622,0.35 z M 562.06965,522.65718 c -4.0345,-4.15606 -11.44389,-4.02061 -16.74301,-3.20026 0,0 16.74301,3.20026 16.74301,3.20026 z m -17.09301,-2.59404 c 0,0 -1.70684,-1.39767 -1.70684,-1.39767 0,0 -12.74143,-2.5712 -12.74143,-2.5712 0,0 -2.29474,0.76861 -2.29474,0.76861 0,0 16.74301,3.20026 16.74301,3.20026 z M 649.39555,332.20428 c -1.54187,-3.15341 -7.94352,-4.70744 -11.26192,-5.69378 1.43309,4.1818 7.42278,4.65736 11.26192,5.69378 z m 4.38756,-10.39949 c -0.63443,-4.73914 -3.39874,-7.9032 -6.19948,-11.66217 -0.13559,3.93084 3.70702,8.67123 6.19948,11.66217 z m -6.08731,2.14353 c 0.25208,-6.49861 -5.98218,-11.52056 -7.38679,-18.0057 0,0 -5.01217,-5.31866 -5.01217,-5.31866 0,0 0.33582,12.32633 0.33582,12.32633 0.0306,2.88707 -0.65928,5.13191 0.97578,7.8299 2.08772,3.41197 6.05947,4.6947 9.68736,5.593 0,0 0.7,-1.21244 0.7,-1.21244 0,0 -9.99922,-16.28083 -9.99922,-16.28083 0,0 10.69922,15.0684 10.69922,15.0684 z M 533.13363,508.37583 c 0,0 1.05,-1.81865 1.05,-1.81865 0,0 -6.82383,-6.38078 -6.82383,-6.38078 0,0 -4.95618,-5.41565 -4.95618,-5.41565 -2.65435,-2.12254 -4.18354,-1.8819 -5.2741,-3.045 -1.06592,-1.62577 -0.22348,-5.57691 -2.7076,-6.93029 -1.72798,-0.94106 -5.79316,0.43004 -7.74146,0.80861 -4.03911,0.77994 -12.82653,1.7202 -16.77936,1.06269 0,0 -16.36294,-6.65855 -16.36294,-6.65855 0,0 -10.00255,-2.27507 -10.00255,-2.27507 0,0 -11.68821,-3.55544 -11.68821,-3.55544 -4.05705,-1.42898 -10.95107,-4.91618 -14.82779,-5.11751 0,0 5.36218,4.71243 5.36218,4.71243 0,0 9.44429,3.63401 9.44429,3.63401 0,0 7.13216,2.65475 7.13216,2.65475 0,0 6.66839,3.85 6.66839,3.85 0,0 12.1082,2.82798 12.1082,2.82798 0,0 13.3888,4.79592 13.3888,4.79592 0,0 8.78361,4.40034 8.78361,4.40034 0,0 5.22218,4.95493 5.22218,4.95493 0,0 9.57204,3.02072 9.57204,3.02072 0,0 18.43217,4.47456 18.43217,4.47456 z m -6.11244,7.78705 c 0,0 -2.77487,-0.79378 -2.77487,-0.79378 0,0 2.77487,0.79378 2.77487,0.79378 z M 632.09658,317.36697 c 0,0 0.35,-0.60622 0.35,-0.60622 0,0 -0.95622,0.25622 -0.95622,0.25622 0,0 0.60622,0.35 0.60622,0.35 z m -0.25622,-0.95622 c 1.02875,-4.65185 1.37787,-7.59454 -3.1684,-9.91217 0,0 3.1684,9.91217 3.1684,9.91217 z m -115.91865,196.577 c -1.57922,-1.59072 -2.26712,-1.72923 -4.33731,-0.88756 0,0 4.33731,0.88756 4.33731,0.88756 z M 631.79684,306.68614 c 0.0736,-3.47355 -0.10284,-4.39989 -2.39975,-7.04352 0,0 0.7,-1.21244 0.7,-1.21244 0,0 2.16866,0.44378 2.16866,0.44378 1.04501,-5.18402 -1.24336,-6.82044 -4.23383,-10.86679 -3.59631,-4.87301 -7.49304,-12.47367 -14.06488,-13.43891 0,0 8.36813,12.10596 8.36813,12.10596 0,0 -2.00621,2.07487 -2.00621,2.07487 3.72362,7.08849 4.28776,13.57337 11.46788,17.93705 z m -23.16192,14.91762 c 2.3268,-6.21413 0.98639,-10.73848 -5.14949,-13.48083 0,0 4.59353,1.84378 4.59353,1.84378 0,0 -0.53015,-6.31976 -0.53015,-6.31976 0,0 -6.64099,-7.85946 -6.64099,-7.85946 0,0 -8.3527,-9.3327 -8.3527,-9.3327 -2.8669,3.29962 -4.1558,9.04605 -0.78176,12.55405 1.28685,1.3411 2.42313,1.01101 5.13746,3.70166 0,0 -4.24353,-2.45 -4.24353,-2.45 -0.37266,5.11147 3.97369,14.88737 8.18901,18.01622 1.84933,1.37486 5.35693,2.18753 7.77862,3.32704 z m -5.05571,-15.04326 c -2.20641,0.23762 -3.12244,0.24223 -3.6373,-2.1 0,0 3.6373,2.1 3.6373,2.1 z m 1.86891,-10.23705 c 1.11195,-5.20196 -2.85904,-6.65399 -5.76229,-10.01142 -3.47251,-4.00942 -5.46688,-9.08108 -9.50533,-12.54429 0,0 0.19641,6.39382 0.19641,6.39382 0,0 4.85436,5.858 4.85436,5.858 0,0 10.21685,10.30389 10.21685,10.30389 z m -14.90596,13.21788 c 0.80645,-4.44881 -1.87056,-10.06008 -6.19948,-11.66218 0,0 0.7,-1.21244 0.7,-1.21244 0,0 -3.73109,-0.53756 -3.73109,-0.53756 0,0 4.68731,0.28135 4.68731,0.28135 0,0 -1.37487,-3.21866 -1.37487,-3.21866 1.83157,-3.60637 0.64743,-8.90538 0.17204,-12.89798 0,0 -6.6684,-3.85 -6.6684,-3.85 0,0 -4.58024,-3.26679 -4.58024,-3.26679 0,0 -6.6684,-3.85 -6.6684,-3.85 0,0 -6.20989,-4.64414 -6.20989,-4.64414 0,0 -9.5427,-7.27156 -9.5427,-7.27156 0,0 -16.7431,-10.2001 -16.7431,-10.2001 0,0 4.26865,-3.19353 4.26865,-3.19353 4.20239,5.64325 9.99479,8.30853 15.4761,12.39462 0,0 15.71366,11.88513 15.71366,11.88513 0,0 4.59024,3.36148 4.59024,3.36148 0,0 4.45446,2.07064 4.45446,2.07064 0,0 9.09327,5.25 9.09327,5.25 0.28602,-3.9814 0.0917,-8.1108 -1.21374,-11.91174 -0.45945,-1.33221 -1.07181,-3.61757 -2.62253,-2.44365 0,0 -9.04148,-6.73969 -9.04148,-6.73969 0,0 -5.32924,-1.96948 -5.32924,-1.96948 0,0 -9.47621,-7.38674 -9.47621,-7.38674 0,0 -16.701,-3.273 -16.701,-3.273 8.42722,-2.72439 7.342,0.56927 12.59326,-0.81218 0,0 -12.95251,-9.7656 -12.95251,-9.7656 0,0 -20.16762,-14.06865 -20.16762,-14.06865 -6.58113,-4.72915 -12.71262,-8.0671 -13.69882,-16.87295 0,0 7.27462,4.2 7.27462,4.2 0,0 7.17877,5.64 7.17877,5.64 0,0 7.93539,4.5815 7.93539,4.5815 0,0 9.5952,7.18062 9.5952,7.18062 0,0 4.84975,2.8 4.84975,2.8 0,0 11.20385,8.59435 11.20385,8.59435 2.51842,2.03598 11.54131,10.02587 14.08758,10.29161 1.66455,0.1689 2.27623,-0.51256 3.44302,-1.45549 0,0 -16.47719,-17.66068 -16.47719,-17.66068 -2.27485,-2.33183 -3.31877,-4.21972 -6.00761,-6.39451 -10.4187,-8.45627 -41.91254,-26.25935 -54.96704,-33.5943 0,0 -7.01139,-3.2559 -7.01139,-3.2559 0,0 -9.09327,-5.25 -9.09327,-5.25 -2.27451,-1.24044 -2.90584,-1.79894 -5.30052,-0.61923 0,0 9.67579,14.04104 9.67579,14.04104 3.95734,5.49369 8.03804,8.82771 9.55401,15.65197 0,0 -2.77488,-0.79378 -2.77488,-0.79378 -4.13367,4.07974 -7.90201,-4.66731 -10.00017,-7.48718 0,0 -5.1387,-7.12952 -5.1387,-7.12952 0,0 -3.32497,-3.80299 -3.32497,-3.80299 -4.52112,-5.81918 -7.47002,-12.96153 -6.803,-20.41684 0,0 -6.95024,-1.97583 -6.95024,-1.97583 0,0 -15.70167,-6.38992 -15.70167,-6.38992 0,0 -13.53631,-6.57043 -13.53631,-6.57043 0,0 -13.31084,-5.72895 -13.31084,-5.72895 0,0 -8.79576,-5.76529 -8.79576,-5.76529 0,0 -3.63731,-2.1 -3.63731,-2.1 0,0 -15.36401,-5.58875 -15.36401,-5.58875 -1.6701,1.8567 -3.5268,3.11261 -4.34264,5.57568 -1.40923,4.30285 0.12095,7.54651 -3.27415,9.35299 -3.00348,1.60417 -10.16,1.49764 -13.77293,1.91741 0,0 -8.98799,1.72167 -8.98799,1.72167 0,0 -7.54048,0.90847 -7.54048,0.90847 0,0 -8.29446,1.76643 -8.29446,1.76643 -4.26802,0.51844 -13.45644,1.81724 -16.5042,4.78612 2.27254,5.19184 2.22717,10.70243 1.56775,16.25457 -0.32317,2.77176 -0.22321,9.57062 1.81879,11.54977 1.66852,1.61804 8.06297,3.81454 10.40088,3.68516 3.27587,-0.18598 4.24837,-1.7584 8.12347,0.55972 0,0 16.03829,0.20687 16.03829,0.20687 0,0 7.77528,-0.79717 7.77528,-0.79717 0,0 9.0368,3.8918 9.0368,3.8918 0,0 15.13085,1.79259 15.13085,1.79259 0,0 3.56334,0.77212 3.56334,0.77212 0,0 8.5828,-3.53985 8.5828,-3.53985 0,0 21.98173,3.85654 21.98173,3.85654 -1.3883,-6.4434 -9.79492,-11.27272 -14.34282,-15.75752 0,0 -4.22746,-5.27782 -4.22746,-5.27782 0,0 -7.44827,-8.09923 -7.44827,-8.09923 0,0 -7.4042,-10.97554 -7.4042,-10.97554 -2.01441,-2.90893 -5.87068,-6.53369 -6.90577,-9.03886 0,0 -2.42487,-1.4 -2.42487,-1.4 0,0 2.00622,-2.07487 2.00622,-2.07487 0,0 16.10547,16.90451 16.10547,16.90451 0,0 3.85853,3.11684 3.85853,3.11684 0,0 11.49579,10.8887 11.49579,10.8887 0,0 7.53155,6.55498 7.53155,6.55498 0,0 7.04154,7.40368 7.04154,7.40368 0,0 4.80496,4.27756 4.80496,4.27756 0,0 3.81569,4.35304 3.81569,4.35304 0,0 8.76726,8.85266 8.76726,8.85266 0,0 3.54424,5.06119 3.54424,5.06119 3.59418,4.9607 13.94333,15.77745 5.83629,20.69125 -1.0357,-5.68211 -3.25114,-7.12285 -6.33248,-11.43181 -1.762,-2.46413 -3.15851,-5.11331 -5.78712,-6.77643 0,0 -8.47583,-3.51943 -8.47583,-3.51943 0,0 -10.6557,-5.34378 -10.6557,-5.34378 0,0 -16.45251,-3.70342 -16.45251,-3.70342 -1.77246,6.906 4.6182,7.80704 6.1057,13.22461 -2.0443,-2.04515 -7.01296,-8.55919 -9.10242,-9.43414 -1.62148,-0.67751 -3.73978,-0.34051 -5.46877,-0.27181 -1.93655,0.0782 -4.15002,-0.24596 -5.46632,1.51594 -1.24817,1.67191 -1.05968,4.38343 -1.31684,6.36884 0,0 -1.59487,7.9704 -1.59487,7.9704 9.11589,2.31281 15.78324,-0.0374 29.84871,4.30052 0.17407,-3.2135 -1.11937,-3.6612 -2.74974,-6.43731 0,0 8.87244,8.82448 8.87244,8.82448 0,0 3.02657,2.76583 3.02657,2.76583 0,0 3.94699,4.30761 3.94699,4.30761 0,0 6.69374,-0.2819 6.69374,-0.2819 0,0 9.99508,0.83201 9.99508,0.83201 0,0 13.33679,7.7 13.33679,7.7 1.67111,-2.08244 3.61863,-3.64965 6.38839,-3.65902 2.79496,-0.011 12.34612,6.33591 15.33665,8.03016 1.29218,0.72987 3.67342,2.17743 5.17343,2.05735 2.00117,-0.16214 4.24583,-2.55199 5.60118,-3.91953 0,0 -0.25622,-0.95622 -0.25622,-0.95622 0,0 -14.35251,-7.34072 -14.35251,-7.34072 0,0 -14.93351,-6.33441 -14.93351,-6.33441 12.75423,3.40304 10.60259,2.25778 22.72541,8.23845 3.48726,1.67389 3.54602,0.9561 6.66839,3.85 -0.5123,-2.33267 -2.19191,-2.8255 -4.01674,-4.2428 0,0 -9.3712,-7.5686 -9.3712,-7.5686 -5.42749,-4.66932 -18.10134,-16.56957 -22.06337,-21.98513 -1.3049,-1.77184 -3.38848,-5.72298 -4.40389,-7.77223 7.09268,4.30511 12.92849,10.47919 19.06162,15.9843 0,0 4.48224,3.43653 4.48224,3.43653 0,0 14.54438,12.60839 14.54438,12.60839 0,0 8.03977,7.07472 8.03977,7.07472 0.92857,0.88367 2.55003,2.34521 2.4465,3.75653 -0.0803,1.07714 -0.96849,1.45348 -1.71491,1.97632 2.78041,4.62019 7.44693,6.44954 11.60707,9.29596 0,0 9.74992,8.31264 9.74992,8.31264 3.74723,2.56761 5.66675,1.0489 8.21767,2.80458 2.17438,1.49786 4.95611,5.62576 6.7005,7.75641 3.36708,4.09403 6.12128,6.79962 10.70335,9.46124 2.56506,-1.61481 3.1056,-1.52906 5.64353,0.0251 1.00402,-0.26903 1.55707,-0.65294 2.70433,-0.33005 0.94346,0.26988 6.6939,6.50783 7.41134,7.61718 0.95543,1.48115 1.03315,2.74654 2.61261,4.28083 2.81227,2.73101 5.69879,2.23941 7.50799,6.58178 0,0 6.57461,5.41244 6.57461,5.41244 z m -8.99275,-27.8241 c 0,0 -3.37361,2.44126 -3.37361,2.44126 0,0 -4.17885,-1.96002 -4.17885,-1.96002 0,0 -13.94301,-8.05 -13.94301,-8.05 0,0 -15.79738,-10.43813 -15.79738,-10.43813 0,0 -9.90742,-8.03985 -9.90742,-8.03985 0,0 -5.21867,-4.96098 -5.21867,-4.96098 0,0 -7.27462,-4.2 -7.27462,-4.2 0,0 2.22178,-5.24824 2.22178,-5.24824 0,0 3.79975,4.61865 3.79975,4.61865 2.43092,-0.73848 3.28953,0.84036 5.23124,2.13922 0,0 9.26198,6.35778 9.26198,6.35778 0,0 17.77426,12.61409 17.77426,12.61409 0,0 6.06217,3.5 6.06217,3.5 0,0 15.34238,11.22622 15.34238,11.22622 z m 1.66295,-22.48032 c -0.63604,-2.62234 -4.04079,-9.95513 -6.58986,-10.95802 -1.62685,-0.6402 -2.91482,0.0226 -4.39071,0.57693 0,0 10.98057,10.38109 10.98057,10.38109 z M 434.85096,468.6064 c -1.77933,-1.4961 -2.67905,-1.44975 -4.94352,-1.23756 0,0 4.94352,1.23756 4.94352,1.23756 z m 95.79456,-200.92103 c 0,0 1.05,-1.81866 1.05,-1.81866 0,0 -6.41218,-2.89378 -6.41218,-2.89378 0,0 5.36218,4.71244 5.36218,4.71244 z M 421.58956,443.97583 c 0,0 0.35,-0.60622 0.35,-0.60622 0,0 -0.95622,0.25622 -0.95622,0.25622 0,0 0.60622,0.35 0.60622,0.35 z m -0.95622,0.25622 c -0.89742,-2.02963 -1.35145,-2.82523 -3.63731,-2.1 -1.46529,-1.24205 -1.49034,-1.66066 -3.38109,-1.14378 -5.8639,-5.13143 -11.23181,-5.04594 -18.2831,-7.53275 0,0 -10.47648,-4.2542 -10.47648,-4.2542 -7.05921,-3.24309 -14.9874,-8.46707 -23.07541,-7.63222 8.15762,5.3726 10.30886,4.85254 18.88932,7.88274 0,0 13.06936,5.36321 13.06936,5.36321 0,0 16.75144,5.98565 16.75144,5.98565 -4.2486,1.0308 -11.90309,-2.48324 -16.74301,-3.20026 0,0 0.7,-1.21243 0.7,-1.21243 0,0 -17.29098,-6.29715 -17.29098,-6.29715 0,0 -2.73933,0.39067 -2.73933,0.39067 0,0 1.98108,3.56866 1.98108,3.56866 -2.03481,-1.8376 -2.95693,-3.19444 -5.36917,-4.70032 -8.24024,-5.14548 -15.48683,-5.11002 -24.60213,-6.38787 -5.35551,-0.74797 -11.43349,-2.26061 -16.68907,-0.49368 0,0 9.69949,5.6 9.69949,5.6 7.89995,4.54488 14.86545,3.28828 23.42396,4.2285 2.16873,0.23366 3.33278,1.26946 5.40275,1.84218 0,0 9.42083,1.88264 9.42083,1.88264 3.93976,0.66612 8.26379,0.0507 11.98148,1.64746 0,0 -2.51865,0.16243 -2.51865,0.16243 0,0 5.19974,2.19378 5.19974,2.19378 0,0 -6.85596,-0.72512 -6.85596,-0.72512 0,0 -0.7,1.21243 -0.7,1.21243 0,0 4.87846,4.15026 4.87846,4.15026 0,0 8.17268,-0.15549 8.17268,-0.15549 0,0 17.75379,0.0495 17.75379,0.0495 0,0 0.35,-0.60622 0.35,-0.60622 0,0 -0.51244,-1.91243 -0.51244,-1.91243 0,0 5.19975,2.19378 5.19975,2.19378 z m -6.80571,-12.01218 c 0,0 1.14379,-3.38109 1.14379,-3.38109 -3.61038,-1.71264 -6.56247,-1.12148 -10.07462,0.64974 3.50701,1.9197 4.90256,2.44252 8.93083,2.73135 z m 79.89559,-218.18321 c 3.51047,0.55568 7.88903,1.5398 10.81599,3.66616 0,0 10.67679,12.30726 10.67679,12.30726 3.94617,4.68702 7.54796,7.74455 5.5492,14.1885 -8.21247,-5.92158 -14.50955,-13.60673 -20.74243,-21.47306 -2.36746,-2.98344 -6.69051,-6.8777 -7.7682,-10.34508 0,0 2.16865,0.44378 2.16865,0.44378 0,0 -0.7,1.21244 -0.7,1.21244 z M 383.10975,447.6248 c -3.26685,-6.12964 -5.84928,-9.97274 -13.33679,-7.7 0,0 13.33679,7.7 13.33679,7.7 z M 498.24809,211.79935 c 0,0 -0.35,0.60622 -0.35,0.60622 0,0 -0.25622,-0.95622 -0.25622,-0.95622 0,0 0.60622,0.35 0.60622,0.35 z m -138.73057,210.8884 c -1.02529,-1.78014 -1.71975,-2.59331 -3.66953,-3.4442 0,0 -14.86629,-5.05083 -14.86629,-5.05083 -1.88959,-0.91313 -3.36492,-2.82377 -1.28303,-4.53972 1.22091,-1.00868 4.04487,-1.29392 5.64475,-1.61499 -7.3473,-9.5201 -4.83081,-0.0328 -13.54722,-10.35953 0,0 -5.39334,-8.63446 -5.39334,-8.63446 0,0 -8.31492,-10.79814 -8.31492,-10.79814 0,0 -8.21548,-8.17036 -8.21548,-8.17036 0,0 -5.1809,-6.42643 -5.1809,-6.42643 0,0 -4.37374,-3.62445 -4.37374,-3.62445 0,0 -5.05418,-5.24591 -5.05418,-5.24591 -9.5709,-9.51872 -24.48798,-23.44157 -28.27128,-36.4327 0,0 -5.44444,-4.17796 -5.44444,-4.17796 0,0 -5.46748,-2.12204 -5.46748,-2.12204 0,0 -0.79378,2.77487 -0.79378,2.77487 -1.70147,-1.43498 -5.22691,-3.30874 -7.48288,-3.44728 -3.41823,-0.21145 -4.62642,1.83919 -9.51635,-0.70919 0,0 -2.00622,2.07487 -2.00622,2.07487 0,0 6.07555,9.07684 6.07555,9.07684 0,0 10.06779,13.36207 10.06779,13.36207 0,0 4.49418,6.21586 4.49418,6.21586 0,0 5.75561,6.83098 5.75561,6.83098 0,0 4.78746,4.30788 4.78746,4.30788 0,0 15.05547,18.72316 15.05547,18.72316 0,0 6.96949,10.3285 6.96949,10.3285 0,0 3.03109,1.75 3.03109,1.75 0,0 6.35276,9.99668 6.35276,9.99668 0,0 -15.33197,-18.24425 -15.33197,-18.24425 0,0 -3.99296,-5.68399 -3.99296,-5.68399 0,0 -8.87877,-10.91352 -8.87877,-10.91352 0,0 -0.6318,-2.01368 -0.6318,-2.01368 0,0 -10.50808,-8.27347 -10.50808,-8.27347 0,0 -8.76633,-5.94228 -8.76633,-5.94228 0,0 -13.21159,-16.31684 -13.21159,-16.31684 0,0 -16.64632,-22.57574 -16.64632,-22.57574 0,0 -8.12003,-17.12769 -8.12003,-17.12769 -2.35898,1.15991 -5.96342,2.01298 -8.42816,0.59804 -1.79185,-1.02643 -2.27564,-3.52047 -4.9604,-3.88233 -3.64622,-0.48856 -11.4494,4.43093 -14.41039,6.63353 0,0 -0.86244,-1.30622 -0.86244,-1.30622 0,0 -3.12487,-0.18756 -3.12487,-0.18756 -0.12959,4.14445 4.48342,17.21048 5.94645,21.88645 1.32603,4.24124 3.16557,7.81707 1.10874,12.0936 0,0 5.46716,4.53056 5.46716,4.53056 0,0 4.58374,3.26073 4.58374,3.26073 0,0 7.81577,7.4627 7.81577,7.4627 0,0 9.83042,8.17321 9.83042,8.17321 3.20319,2.48791 11.41323,7.97969 12.86922,11.30984 0,0 8.10905,5.55472 8.10905,5.55472 0,0 4.49814,2.597 4.49814,2.597 0,0 4.45618,3.24366 4.45618,3.24366 0,0 7.72928,4.4625 7.72928,4.4625 0,0 8.67748,7.37016 8.67748,7.37016 0,0 21.84206,13.96844 21.84206,13.96844 0,0 14.28395,10.25948 14.28395,10.25948 0,0 7.91305,2.96819 7.91305,2.96819 0,0 3.60508,3.68181 3.60508,3.68181 0,0 3.59379,-7.62461 3.59379,-7.62461 0,0 0.95621,-0.25622 0.95621,-0.25622 0,0 1.21244,0.7 1.21244,0.7 0,0 -2.69033,8.2998 -2.69033,8.2998 0,0 5.7036,4.66707 5.7036,4.66707 0,0 10.08199,4.71348 10.08199,4.71348 0,0 11.13739,-0.85252 11.13739,-0.85252 0,0 19.79016,2.12243 19.79016,2.12243 z m 81.62046,-215.57078 c -2.07122,-3.21654 -4.45794,-5.77462 -8.48705,-4.9 0,0 3.6373,2.1 3.6373,2.1 0,0 -4.08108,0.0686 -4.08108,0.0686 0,0 8.93083,2.73135 8.93083,2.73135 z m -81.43109,134.04278 c 0,0 -1.25774,-17.23953 -1.25774,-17.23953 0,0 -1.34796,-2.04726 -1.34796,-2.04726 -0.49576,6.43067 -1.38008,13.74436 2.6057,19.28679 z M 425.2758,220.59107 c 0,0 -2.33109,-2.96244 -2.33109,-2.96244 0,0 2.33109,2.96244 2.33109,2.96244 z m -70.90596,110.21272 c 0,0 0.35,-0.60621 0.35,-0.60621 0,0 -0.95622,0.25621 -0.95622,0.25621 0,0 0.60622,0.35 0.60622,0.35 z m 5.43756,-12.21813 c 0,0 0.79379,-2.77487 0.79379,-2.77487 0,0 -0.79379,2.77487 -0.79379,2.77487 z m -54.52461,77.6394 c -1.81594,0.6813 -2.15943,0.60424 -3.73109,-0.53757 0,0 3.73109,0.53757 3.73109,0.53757 z m 98.5443,-194.48373 c -2.00226,-1.54399 -3.48271,-1.33178 -5.89974,-0.98135 0,0 5.89974,0.98135 5.89974,0.98135 z m -66.98058,86.61375 c 0,0 -4.61865,3.79975 -4.61865,3.79975 0,0 -5.43083,-8.79353 -5.43083,-8.79353 0,0 1.65622,-1.46865 1.65622,-1.46865 0,0 -3.54353,-3.66244 -3.54353,-3.66244 0,0 1.65622,-1.46865 1.65622,-1.46865 0,0 -2.42487,-1.4 -2.42487,-1.4 0,0 0.79378,-2.77487 0.79378,-2.77487 0,0 1.86981,2.23539 1.86981,2.23539 0,0 3.79211,13.15787 3.79211,13.15787 0,0 4.17487,-1.63109 4.17487,-1.63109 0,0 2.07487,2.00622 2.07487,2.00622 z m -37.81839,50.10339 c -1.23049,-1.13074 -1.27349,-0.83225 -2.51865,0.16243 0,0 2.51865,-0.16243 2.51865,-0.16243 z m 29.84378,-53.09095 c 0,0 0.35,-0.60622 0.35,-0.60622 0,0 -0.95622,0.25622 -0.95622,0.25622 0,0 0.60622,0.35 0.60622,0.35 z m -0.27461,-16.32436 c 0,0 -4.87487,2.84353 -4.87487,2.84353 1.01659,-3.09079 1.69601,-3.38558 4.87487,-2.84353 z m -49.41012,-18.01917 c 5.12782,-1.15364 7.43372,4.73642 9.37368,8.57232 0,0 8.01144,13.24178 8.01144,13.24178 4.19551,6.01917 8.18813,9.82773 6.57551,17.88487 0,0 -3.99067,-9.90194 -3.99067,-9.90194 0,0 -4.4944,-7.72749 -4.4944,-7.72749 0,0 -3.70318,-4.6599 -3.70318,-4.6599 0,0 -6.56522,-11.42069 -6.56522,-11.42069 0,0 -5.20716,-5.98895 -5.20716,-5.98895 z m 19.15441,46.62359 c 0,0 -0.7,1.21243 -0.7,1.21243 0,0 -1.8873,-5.13109 -1.8873,-5.13109 0,0 2.5873,3.91866 2.5873,3.91866 z M 380.3605,148.58666 c 2.53533,-2.73934 3.01324,-5.1631 1.77512,-8.67462 -1.91091,5.24181 -3.54529,5.51064 -1.77512,8.67462 z m 2.73134,-8.93084 c 0,0 5.06244,-5.96839 5.06244,-5.96839 0,0 -3.98731,-1.49378 -3.98731,-1.49378 -1.22714,2.99347 -1.94371,4.2206 -1.07513,7.46217 z m -86.63756,152.86067 c -3.65054,-0.10308 -4.62815,-4.40181 -4.5684,-7.48731 0,0 4.5684,7.48731 4.5684,7.48731 z m 79.82513,-143.86118 c 0,0 -1.98109,-3.56865 -1.98109,-3.56865 0,0 -12.87462,5.49948 -12.87462,5.49948 4.36814,0.008 10.79258,-0.4373 14.85571,-1.93083 z m -88.68058,124.19926 c -2.09808,-0.88802 -2.22841,-2.42627 -2.2373,-4.52487 0,0 2.2373,4.52487 2.2373,4.52487 z m -2.39974,-7.04353 c 0,0 -0.35,0.60622 -0.35,0.60622 0,0 -0.25622,-0.95622 -0.25622,-0.95622 0,0 0.60622,0.35 0.60622,0.35 z m -3.26218,-8.34974 c 0,0 -0.35,0.60622 -0.35,0.60622 0,0 -0.25621,-0.95622 -0.25621,-0.95622 0,0 0.60621,0.35 0.60621,0.35 z m -41.26813,44.87851 c 0,0 8.34974,-3.26218 8.34974,-3.26218 -1.99025,-1.90078 -4.65515,-4.57905 -7.04225,-1.59247 -1.3228,1.66115 -1.53213,2.84973 -1.30749,4.85465 z m 5.71891,-16.90544 c -2.57444,-1.15495 -2.45503,-2.62177 -1.88731,-5.13109 -2.8909,-1.83881 -2.73156,-3.5008 -3.63258,-6.67219 0,0 -1.39357,-5.25826 -1.39357,-5.25826 -1.39878,-4.28324 -3.66749,-7.60572 -3.54795,-12.41878 4.17933,5.55719 7.91324,22.03587 10.46141,29.48032 z m -10.88006,-32.95519 c -1.94609,-0.70327 -1.79278,-1.01081 -2.33107,-2.96242 0,0 2.33107,2.96242 2.33107,2.96242 z m -50.04325,65.67749 c 0,0 -2.5608,-12.40656 -2.5608,-12.40656 0,0 -2.65495,-11.15149 -2.65495,-11.15149 0,0 -4.59463,-13.68588 -4.59463,-13.68588 0,0 -4.72538,-13.17939 -4.72538,-13.17939 0,0 -1.56244,-0.0938 -1.56244,-0.0938 -0.0256,-5.94763 -3.64129,-13.6851 -5.76001,-19.29736 0,0 -1.47682,-5.28207 -1.47682,-5.28207 -1.33649,-3.64914 -5.1654,-11.85728 -8.52941,-13.91265 -1.39755,-0.85537 -3.99957,-1.08055 -5.67574,-1.36933 1.96596,-1.61314 2.00183,-1.47927 1.49378,-3.9873 0,0 -6.78731,3.35596 -6.78731,3.35596 0,0 3.38109,1.14378 3.38109,1.14378 0,0 -10.992,2.7147 -10.992,2.7147 0,0 -6.20674,-0.67361 -6.20674,-0.67361 0,0 -10.69401,2.87057 -10.69401,2.87057 0.0537,5.68903 4.18798,9.85421 6.91914,14.6157 2.97239,5.18368 9.19403,15.37948 12.79653,19.83576 0,0 6.49484,6.95063 6.49484,6.95063 0,0 9.24314,10.59041 9.24314,10.59041 0,0 -1.30622,0.86244 -1.30622,0.86244 0,0 12.96866,13.93761 12.96866,13.93761 2.67002,2.6974 4.54444,2.92281 5.86762,6.637 0,0 12.28679,9.51865 12.28679,9.51865 0,0 2.07487,2.00622 2.07487,2.00622 z m 39.51321,-99.23888 c 0,0 -3.82487,1.02487 -3.82487,1.02487 0,0 3.82487,-1.02487 3.82487,-1.02487 z m -43.25596,62.32152 c 1.77622,1.0255 1.73941,0.90725 2.86865,-0.76866 0,0 -2.86865,0.76866 -2.86865,0.76866 z m 6.74378,-13.08058 c -1.42461,-0.8225 -1.66874,-0.20365 -2.86865,0.76866 0,0 2.86865,-0.76866 2.86865,-0.76866 z m 77.28135,-138.05522 c 0,0 0.35,-0.60621 0.35,-0.60621 0,0 -0.95622,0.25621 -0.95622,0.25621 0,0 0.60622,0.35 0.60622,0.35 z m -88.26866,148.6858 c 0,0 0.7,-1.21244 0.7,-1.21244 -1.28526,-2.67386 -1.91785,-5.87618 -4.91839,-6.88109 0,0 4.21839,8.09353 4.21839,8.09353 z m 60.40103,-149.41766 c 0,0 0.35,-0.60622 0.35,-0.60622 0,0 -0.95621,0.25622 -0.95621,0.25622 0,0 0.60621,0.35 0.60621,0.35 z m 0.85077,-35.073588 c 0,0 -2.77487,-0.79378 -2.77487,-0.79378 0,0 2.77487,0.79378 2.77487,0.79378 z m -3.12487,-0.18756 c -4.39774,-3.69489 -14.73203,-0.49538 -19.86788,-3.38782 0,0 -2.00622,2.07487 -2.00622,2.07487 7.19087,1.36305 14.58945,1.51234 21.8741,1.31295 z m -88.7057,129.842778 c -2.93165,-2.04823 -11.86971,2.49894 -14.08705,4.79949 5.74633,0.14106 9.06181,-2.11552 14.08705,-4.79949 z m -25.91167,8.48032 c 0,0 3.31244,-2.93731 3.31244,-2.93731 0,0 -2.42487,-1.4 -2.42487,-1.4 0,0 -0.95622,0.25622 -0.95622,0.25622 0,0 0.0687,4.08109 0.0687,4.08109 z m 42.29482,-119.45677 c 0,0 -2.19379,5.19975 -2.19379,5.19975 0,0 2.19379,-5.19975 2.19379,-5.19975 z"
     style="fill:#000000;stroke:none" />
</svg>
