<?xml version="1.0" encoding="UTF-8" standalone="no"?>
<svg
   xmlns:dc="http://purl.org/dc/elements/1.1/"
   xmlns:cc="http://creativecommons.org/ns#"
   xmlns:rdf="http://www.w3.org/1999/02/22-rdf-syntax-ns#"
   xmlns:svg="http://www.w3.org/2000/svg"
   xmlns="http://www.w3.org/2000/svg"
   xmlns:sodipodi="http://sodipodi.sourceforge.net/DTD/sodipodi-0.dtd"
   xmlns:inkscape="http://www.inkscape.org/namespaces/inkscape"
   width="100mm"
   height="100mm"
   viewBox="0 0 566.90005 566.8999"
   version="1.1"
   id="svg260"
   sodipodi:docname="grizzal.svg"
   inkscape:version="1.0.1 (3bc2e813f5, 2020-09-07)">
  <metadata
     id="metadata266">
    <rdf:RDF>
      <cc:Work
         rdf:about="">
        <dc:format>image/svg+xml</dc:format>
        <dc:type
           rdf:resource="http://purl.org/dc/dcmitype/StillImage" />
        <dc:title></dc:title>
      </cc:Work>
    </rdf:RDF>
  </metadata>
  <defs
     id="defs264" />
  <sodipodi:namedview
     pagecolor="#ffffff"
     bordercolor="#666666"
     borderopacity="1"
     objecttolerance="10"
     gridtolerance="10"
     guidetolerance="10"
     inkscape:pageopacity="0"
     inkscape:pageshadow="2"
     inkscape:window-width="3840"
     inkscape:window-height="2066"
     id="namedview262"
     showgrid="false"
     inkscape:zoom="1.6310818"
     inkscape:cx="768.86559"
     inkscape:cy="398.82"
     inkscape:window-x="-11"
     inkscape:window-y="-11"
     inkscape:window-maximized="1"
     inkscape:current-layer="svg260"
     inkscape:document-rotation="0" />
  <path
     id="Sélection #4"
     fill="none"
     stroke="#000000"
     stroke-width="1.11"
     d="m 233.82178,46.363264 c -1.4763,-2.8971 -4.5288,-7.3704 -5.2392,-10.0899 0,0 -1.7871,-9.7902 -1.7871,-9.7902 0.2664,-6.2937 7.6701,-9.324 12.765,-10.3563 7.659,-1.3098 15.4401,-1.665 23.1213,0 0,0 14.43,4.1181 14.43,4.1181 3.2745,0.4884 6.3936,-1.4208 9.99,-1.8093 5.9607,-0.6438 16.3281,2.7417 22.2,4.44 0,0 12.21,2.1978 12.21,2.1978 0,0 6.66,3.3633 6.66,3.3633 7.0596,3.219 9.0465,-4.3068 15.4179,0 8.2584,5.328 4.5066,14.3079 1.2321,21.2565 0,0 6.66,4.44 6.66,4.44 0,0 -6.66,0 -6.66,0 0,0 7.77,4.439996 7.77,4.439996 0,0 -5.55,1.11 -5.55,1.11 0,0 9.99,2.22 9.99,2.22 0,0 -4.44,5.55 -4.44,5.55 5.6721,0.4662 8.8134,0.7659 13.32,4.44 0,0 -5.55,2.22 -5.55,2.22 0,0 6.66,1.11 6.66,1.11 0,0 -3.33,2.22 -3.33,2.22 0,0 2.22,3.33 2.22,3.33 0,0 3.33,0 3.33,0 -3.2079,7.1373 5.0505,5.2503 8.88,4.44 0,0 0,1.11 0,1.11 0,0 -2.22,2.22 -2.22,2.22 0,0 7.77,-2.22 7.77,-2.22 0,0 -3.33,4.44 -3.33,4.44 0,0 7.77,-1.11 7.77,-1.11 0,0 -1.11,0 -1.11,0 0,0 -2.22,2.22 -2.22,2.22 5.0283,0 11.988,-0.7992 15.54,3.33 0,0 -8.88,2.22 -8.88,2.22 6.6156,1.6761 8.2029,0.5994 12.21,6.66 0,0 -4.44,1.11 -4.44,1.11 0,0 5.55,2.22 5.55,2.22 -1.2432,3.3744 0.3219,3.4854 3.33,4.44 -1.0989,6.0717 3.2301,12.9648 5.1726,18.87001 0.7992,2.442 1.5429,6.2049 4.0404,7.4259 0,0 12.987,0.6771 12.987,0.6771 5.7942,0.8547 11.3997,3.8184 16.65,6.327 0,0 4.44,-11.1 4.44,-11.1 0,0 -3.33,-3.33 -3.33,-3.33 0,0 5.55,0 5.55,0 0,0 -4.44,-2.22 -4.44,-2.22 5.661,-6.49351 -5.8608,-14.92951 -2.22,-24.42001 0,0 3.33,7.77 3.33,7.77 5.7609,-6.1716 3.2967,-10.7337 1.5429,-17.76 -0.6216,-2.5086 -0.4995,-4.1514 -1.7316,-6.66 0,0 -5.3613,-7.77 -5.3613,-7.77 9.5904,2.0535 10.3119,5.3169 16.65,12.21 -0.2664,-14.2413 -1.2432,-10.3341 -5.55,-19.98 11.8326,1.3764 8.6247,7.77 16.65,14.43 0,0 -2.22,-12.21 -2.22,-12.21 8.1807,3.1191 7.7478,13.542 7.77,21.09 0,0 3.33,-12.21 3.33,-12.21 7.4814,14.4078 4.7619,13.1091 5.55,27.75 0,0 0,4.44 0,4.44 0,0 -1.11,4.44 -1.11,4.44 3.9183,1.1211 3.5631,5.2392 4.1625,8.88001 0,0 1.3542,19.6692 1.3542,19.6692 0.2664,2.5752 1.0767,3.6519 2.2533,5.8608 0,0 -4.44,0 -4.44,0 0,0 1.6317,3.2856 1.6317,3.2856 0,0 0,5.8719 0,5.8719 0,0 0.5883,10.8225 0.5883,10.8225 0,0 0,-1.11 0,-1.11 0,0 -2.22,-2.22 -2.22,-2.22 0,0 3.33,18.87 3.33,18.87 0,0 -3.33,-1.11 -3.33,-1.11 0,0 0,7.77 0,7.77 0,0 -3.33,0 -3.33,0 0,0 3.33,7.77 3.33,7.77 0,0 -6.66,-5.55 -6.66,-5.55 0,0 4.44,13.32 4.44,13.32 0,0 -4.44,-4.44 -4.44,-4.44 0,0 3.33,11.1 3.33,11.1 0,0 -1.11,0 -1.11,0 0,0 -2.22,-2.22 -2.22,-2.22 0,0 3.33,8.88 3.33,8.88 0,0 -7.77,-4.44 -7.77,-4.44 0,0 -3.33,4.44 -3.33,4.44 0,0 0,-3.33 0,-3.33 0,0 -6.66,12.21 -6.66,12.21 0,0 -1.11,-5.55 -1.11,-5.55 0,0 -3.33,5.55 -3.33,5.55 -2.9304,-2.5197 -3.0081,-2.0868 -6.66,-1.11 0,0 -3.33,-5.55 -3.33,-5.55 0,0 -1.11,4.44 -1.11,4.44 -0.0666,-5.1948 0.4329,-7.2372 -4.44,-9.99 0,0 -1.11,3.33 -1.11,3.33 0,0 -2.22,-3.33 -2.22,-3.33 0,0 1.11,9.99 1.11,9.99 0,0 -4.44,-7.77 -4.44,-7.77 0,0 -3.33,4.44 -3.33,4.44 0,0 -4.44,-3.33 -4.44,-3.33 0,0 1.11,4.44 1.11,4.44 0,0 -5.55,2.22 -5.55,2.22 0,0 3.33,7.77 3.33,7.77 0,0 -3.33,0 -3.33,0 0,0 1.11,3.33 1.11,3.33 0,0 -5.55,-2.22 -5.55,-2.22 0,0 5.55,6.66 5.55,6.66 0,0 -8.88,-3.33 -8.88,-3.33 0,0 6.66,8.88 6.66,8.88 0,0 -5.55,-3.33 -5.55,-3.33 -1.9647,7.7922 -0.6882,7.4481 2.22,14.43 0,0 -3.33,0 -3.33,0 0,0 -1.11,3.33 -1.11,3.33 0,0 4.44,6.66 4.44,6.66 0,0 -6.66,-4.44 -6.66,-4.44 1.9092,3.8406 3.3411,4.9395 1.11,8.88 0,0 4.44,3.33 4.44,3.33 0,0 -6.66,-2.22 -6.66,-2.22 0,0 5.55,6.66 5.55,6.66 0,0 -6.66,-2.22 -6.66,-2.22 2.0202,3.4965 3.0747,4.0737 1.11,7.77 0,0 1.11,3.33 1.11,3.33 4.1736,1.5096 4.3623,1.7649 6.66,5.55 0,0 -7.77,-3.33 -7.77,-3.33 0,0 7.77,14.43 7.77,14.43 0,0 -7.77,-4.44 -7.77,-4.44 0,0 9.99,8.88 9.99,8.88 0,0 -9.99,-4.44 -9.99,-4.44 0,0 6.66,12.21 6.66,12.21 0,0 -7.77,-2.22 -7.77,-2.22 0,0 4.44,7.77 4.44,7.77 0,0 -2.22,0 -2.22,0 0,0 2.22,2.22 2.22,2.22 0,0 0,1.11 0,1.11 0,0 -5.55,-2.22 -5.55,-2.22 0,0 4.329,9.99 4.329,9.99 -0.0333,1.0989 -0.5772,1.2876 0,3.33 0,0 11.1777,17.76 11.1777,17.76 2.5974,4.0071 5.0172,5.4723 2.2533,9.99 0,0 5.6277,9.8013 5.6277,9.8013 0,0 5.4723,6.8487 5.4723,6.8487 0,0 -7.77,-2.22 -7.77,-2.22 0,0 6.66,9.99 6.66,9.99 0,0 -4.44,0 -4.44,0 0,0 6.66,5.55 6.66,5.55 0,0 -13.32,-1.11 -13.32,-1.11 4.7175,2.6085 8.7801,6.1605 11.1,11.1 0,0 -6.66,-3.33 -6.66,-3.33 0,0 4.44,4.44 4.44,4.44 0,0 -3.33,2.22 -3.33,2.22 0,0 4.44,2.22 4.44,2.22 0,0 -6.66,-2.22 -6.66,-2.22 0,0 12.21,9.99 12.21,9.99 0,0 -8.88,-1.11 -8.88,-1.11 0,0 4.44,6.66 4.44,6.66 0,0 -6.66,-1.11 -6.66,-1.11 0,0 -1.11,3.33 -1.11,3.33 0,0 3.33,1.11 3.33,1.11 0,0 -4.44,0 -4.44,0 0,0 3.33,6.66 3.33,6.66 0,0 -2.22,-1.11 -2.22,-1.11 0,0 3.33,7.77 3.33,7.77 0,0 -4.44,-1.11 -4.44,-1.11 0,0 7.6701,5.2059 7.6701,5.2059 0,0 15.6954,15.429 15.6954,15.429 0,0 2.7195,12.6318 2.7195,12.6318 0,0 8.8911,7.1484 8.8911,7.1484 0,0 8.3139,12.8649 8.3139,12.8649 0.8769,11.4885 22.2888,21.9669 16.65,36.63 -3.7629,-5.55 -4.1403,-6.5268 -9.99,-9.99 2.9415,9.9345 13.8972,14.9073 7.77,25.53 -2.9526,-8.6469 -5.6943,-7.992 -13.32,-9.99 2.5641,5.5056 7.2816,12.6651 5.55,18.87 0,0 -8.9244,-10.1343 -8.9244,-10.1343 0,0 -9.9456,-4.2957 -9.9456,-4.2957 0,0 1.11,12.21 1.11,12.21 -6.1272,-3.0192 -8.3805,-7.0818 -12.6984,-11.9325 0,0 -15.0183,-17.0274 -15.0183,-17.0274 0,0 -8.9133,-19.8801 -8.9133,-19.8801 0,0 -4.44,0 -4.44,0 0,0 -3.33,-9.99 -3.33,-9.99 0,0 -14.43,-5.55 -14.43,-5.55 0,0 -2.22,-5.55 -2.22,-5.55 0,0 -2.22,2.22 -2.22,2.22 0,0 0,-9.99 0,-9.99 0,0 -3.33,0 -3.33,0 0,0 -1.11,-5.55 -1.11,-5.55 0,0 -1.11,4.44 -1.11,4.44 0,0 -1.11,-4.44 -1.11,-4.44 0,0 -2.22,4.44 -2.22,4.44 0,0 -1.11,-5.55 -1.11,-5.55 0,0 -5.55,0 -5.55,0 0,0 0,-6.66 0,-6.66 0,0 -3.33,1.11 -3.33,1.11 0,0 1.11,-4.44 1.11,-4.44 0,0 -2.22,-1.11 -2.22,-1.11 0,0 -2.22,2.22 -2.22,2.22 0,0 1.11,-7.77 1.11,-7.77 0,0 -3.33,1.11 -3.33,1.11 0,0 0,-5.55 0,-5.55 0,0 -13.32,-4.44 -13.32,-4.44 0,0 1.11,3.33 1.11,3.33 0,0 -5.55,-4.44 -5.55,-4.44 0,0 2.22,8.88 2.22,8.88 0,0 -7.77,-6.66 -7.77,-6.66 0,0 2.22,11.1 2.22,11.1 0,0 -5.55,-2.22 -5.55,-2.22 0,0 3.33,4.44 3.33,4.44 0,0 -7.77,-1.11 -7.77,-1.11 0,0 4.44,6.66 4.44,6.66 0,0 -11.1,-5.55 -11.1,-5.55 0,0 3.33,9.99 3.33,9.99 0,0 -3.33,-1.11 -3.33,-1.11 0,0 1.11,4.44 1.11,4.44 0,0 -6.66,-5.55 -6.66,-5.55 0,0 2.22,12.21 2.22,12.21 0,0 -2.22,3.33 -2.22,3.33 0,0 -4.44,-1.11 -4.44,-1.11 0,0 4.44,9.99 4.44,9.99 0,0 -3.33,-1.11 -3.33,-1.11 0,0 7.77,16.65 7.77,16.65 -2.8194,1.887 -9.7902,8.8134 -7.77,12.21 0,0 -7.77,6.66 -7.77,6.66 0,0 -5.55,1.11 -5.55,1.11 0,0 2.22,3.33 2.22,3.33 0,0 -4.44,-1.11 -4.44,-1.11 0,0 -1.11,4.44 -1.11,4.44 0,0 3.33,1.11 3.33,1.11 -5.2614,0.888 -6.327,1.9536 -3.33,6.66 -3.0192,1.332 -7.5924,4.4622 -10.3119,4.9395 -3.7962,0.888 -6.6156,-1.0323 -11.8881,0 0,0 -15.54,4.218 -15.54,4.218 -5.0172,0.7326 -7.6701,-1.332 -10.989,0 -4.3845,2.0091 -6.1827,7.6257 -6.771,11.9325 -4.3734,-2.9526 -4.2624,-6.2715 -3.33,-11.1 -8.0364,-0.1443 -6.7266,3.4188 -12.21,8.88 0,0 2.22,-14.43 2.22,-14.43 -6.9042,4.1625 -7.881,4.2291 -12.21,11.1 -1.8093,-9.3018 2.5086,-12.2877 8.7357,-18.2151 3.9627,-3.774 3.6186,-4.8951 9.0465,-6.9264 4.5621,-1.7094 16.6056,-4.4955 19.6581,-6.8709 2.775,-2.1645 6.6378,-12.7761 9.102,-16.8276 5.8497,-9.6126 12.2544,-13.0425 13.4199,-15.2514 1.4541,-2.7861 -0.8325,-6.0606 -3.3522,-6.9486 0,0 1.11,-5.55 1.11,-5.55 0,0 -3.33,1.11 -3.33,1.11 0,0 -1.11,-6.66 -1.11,-6.66 0,0 -2.22,3.33 -2.22,3.33 0,0 0,-5.55 0,-5.55 0,0 -2.22,1.11 -2.22,1.11 0,0 0,-6.66 0,-6.66 0,0 -3.33,1.11 -3.33,1.11 0,0 -2.22,-2.22 -2.22,-2.22 0,0 0,-5.55 0,-5.55 0,0 -3.33,1.11 -3.33,1.11 0,0 1.11,-7.77 1.11,-7.77 0,0 -3.3966,1.11 -3.3966,1.11 1.2987,-12.1434 -2.4087,-12.2322 0,-18.87 3.2634,-9.4128 15.7398,-26.3181 16.0395,-34.41 0.1332,-3.7074 -1.11,-6.7266 -2.6529,-9.99 0,0 -2.22,5.55 -2.22,5.55 0,0 -3.33,-3.33 -3.33,-3.33 0,0 1.11,-4.44 1.11,-4.44 0,0 -5.55,3.33 -5.55,3.33 0,0 0,-5.55 0,-5.55 0,0 -2.22,5.55 -2.22,5.55 0,0 0,-11.1 0,-11.1 0,0 -2.22,3.33 -2.22,3.33 0,0 -1.11,-9.99 -1.11,-9.99 0,0 3.33,-1.11 3.33,-1.11 0,0 -2.22,-4.44 -2.22,-4.44 0,0 -3.33,4.44 -3.33,4.44 0,0 2.22,-6.66 2.22,-6.66 0,0 -4.44,1.11 -4.44,1.11 0,0 5.0283,-8.88 5.0283,-8.88 0,0 -3.8295,-24.42 -3.8295,-24.42 0,0 0,-11.1 0,-11.1 0,0 -2.0646,-31.2687 -2.0646,-31.2687 0,0 2.6862,-22.4775 2.6862,-22.4775 0,0 -1.8204,-3.9738 -1.8204,-3.9738 0,0 4.44,0 4.44,0 0,0 0,-2.22 0,-2.22 0,0 -5.55,-1.11 -5.55,-1.11 0,0 6.66,-4.44 6.66,-4.44 0,0 -5.55,0 -5.55,0 0,0 6.66,-3.33 6.66,-3.33 0,0 -3.33,-3.33 -3.33,-3.33 0,0 6.66,-1.11 6.66,-1.11 0,0 -9.99,0 -9.99,0 0,0 5.55,-4.44 5.55,-4.44 0,0 -4.44,0 -4.44,0 0,0 5.55,-6.66 5.55,-6.66 0,0 -7.77,3.33 -7.77,3.33 0,0 5.55,-5.55 5.55,-5.55 0,0 -4.44,-1.11 -4.44,-1.11 0,0 7.77,-9.99 7.77,-9.99 0,0 -4.44,4.44 -4.44,4.44 -2.3199,-4.2291 -0.7326,-5.8719 1.11,-9.99 0,0 -4.44,2.22 -4.44,2.22 0,0 5.55,-6.66 5.55,-6.66 0,0 -6.66,2.22 -6.66,2.22 0,0 7.77,-8.88 7.77,-8.88 0,0 -8.88,5.55 -8.88,5.55 0,0 1.11,-12.21 1.11,-12.21 0,0 -5.55,6.66 -5.55,6.66 0,0 1.11,-7.77 1.11,-7.77 0,0 -2.22,-1.11 -2.22,-1.11 0,0 -5.55,1.11 -5.55,1.11 0,0 -2.22,5.55 -2.22,5.55 0,0 0,-8.88 0,-8.88 0,0 -4.44,3.33 -4.44,3.33 0,0 1.11,-7.77 1.11,-7.77 0,0 -3.33,4.44 -3.33,4.44 0,0 -1.11,-5.55 -1.11,-5.55 0,0 -1.11,3.33 -1.11,3.33 0,0 -3.33,-5.55 -3.33,-5.55 0,0 -3.33,1.11 -3.33,1.11 0,0 2.22,-7.77 2.22,-7.77 0,0 -6.66,4.44 -6.66,4.44 0,0 -3.33,1.11 -3.33,1.11 0,0 0,-5.55 0,-5.55 0,0 -2.22,2.22 -2.22,2.22 0,0 -1.11,0 -1.11,0 0,0 0,-2.22 0,-2.22 0,0 -2.22,2.22 -2.22,2.22 0,0 -1.11,0 -1.11,0 0,0 1.11,-4.44 1.11,-4.44 0,0 -4.44,2.22 -4.44,2.22 0,0 0,-7.77 0,-7.77 0,0 -3.33,5.55 -3.33,5.55 0,0 0,-5.55 0,-5.55 0,0 -4.44,0 -4.44,0 0,0 1.11,-7.77 1.11,-7.77 0,0 -5.55,4.44 -5.55,4.44 0,0 -3.33,-8.88 -3.33,-8.88 0,0 -3.33,1.11 -3.33,1.11 0,0 -1.11,-5.55 -1.11,-5.55 0,0 -4.44,1.11 -4.44,1.11 0,0 2.22,-4.44 2.22,-4.44 0,0 -4.44,1.11 -4.44,1.11 0,0 -3.33,-11.1 -3.33,-11.1 0,0 -3.33,2.22 -3.33,2.22 0,0 -1.11,-5.55 -1.11,-5.55 0,0 0,2.22 0,2.22 0,0 -1.11,0 -1.11,0 0,0 0,-6.66 0,-6.66 0,0 -3.33,1.11 -3.33,1.11 -1.7982,-10.8558 -18.3594,-13.8528 -26.5401,-18.94771 -5.2725,-3.2745 -8.1585,-7.7478 -15.3291,-9.1575 -2.8749,-0.5661 -4.6287,1.1322 -6.9708,2.5752 1.776,-6.9819 3.7407,-6.7155 9.99,-8.88 -12.9315,-3.8073 -8.4471,-9.1464 -19.98,-4.44 2.9415,-8.0031 11.5662,-7.8033 18.87,-6.66 -6.7488,-8.1252 -6.6489,-7.9698 -16.65,-6.66 4.0848,-7.437 12.987,-7.6812 19.98,-4.44 0,0 1.11,-4.44 1.11,-4.44 0,0 -7.77,-3.33 -7.77,-3.33 13.4421,-2.9748 13.6863,5.0727 23.31,9.7458 9.5793,4.6398 17.9376,3.2634 22.2,4.662 6.216,2.0313 17.5158,9.3906 23.31,10.0122 0,0 5.55,7.77 5.55,7.77 0,0 5.55,-2.22 5.55,-2.22 0,0 0,1.11 0,1.11 0,0 -2.22,2.22 -2.22,2.22 0,0 7.77,-2.22 7.77,-2.22 0,0 -2.22,4.44 -2.22,4.44 7.2705,0.5661 4.9617,2.0868 10.0344,4.1625 6.438,2.6307 10.434,-0.7881 15.4956,11.37751 0,0 2.22,0 2.22,0 0,0 0,-3.33 0,-3.33 0,0 11.1,1.11 11.1,1.11 0,0 1.11,3.33 1.11,3.33 0,0 2.22,0 2.22,0 0,0 2.22,-6.66001 2.22,-6.66001 0,0 7.77,-1.11 7.77,-1.11 0,0 0,1.11 0,1.11 0,0 2.22,1.11 2.22,1.11 0,0 -3.33,-5.55 -3.33,-5.55 0,0 6.66,3.33 6.66,3.33 0,0 -1.11,-3.33 -1.11,-3.33 0,0 4.44,2.22 4.44,2.22 0,0 2.22,-4.44 2.22,-4.44 0,0 9.99,1.11 9.99,1.11 0,0 -8.88,-2.22 -8.88,-2.22 0,0 3.33,-6.66 3.33,-6.66 0,0 -5.55,0 -5.55,0 0,0 4.44,-6.66 4.44,-6.66 0,0 -8.88,4.44 -8.88,4.44 0,0 0,-4.44 0,-4.44 0,0 -3.33,1.11 -3.33,1.11 -1.8648,-6.5046 -1.6095,-5.7387 0,-12.21 0,0 -2.22,2.22 -2.22,2.22 0,0 -1.11,0 -1.11,0 0,0 0,-4.44 0,-4.44 -2.0979,0.2553 -4.5732,0.7215 -6.66,0.5661 -5.0394,-0.3996 -16.0062,-6.0717 -19.203,-9.8679 -1.5096,-1.7871 -2.2977,-4.0959 -3.4077,-6.1383 -1.443,-2.6751 -4.0848,-5.6499 -3.5631,-8.88 0.4329,-2.6973 4.2846,-5.6388 6.1938,-7.8699 6.1605,1.6983 4.2846,-2.042396 9.99,-5.549996 0,0 1.11,6.659996 1.11,6.659996 4.4289,-1.554 4.4511,-1.554 8.88,0 0,0 0,-3.329996 0,-3.329996 0,0 6.66,1.11 6.66,1.11 -3.8739,-7.1928 -7.2927,-10.5561 -15.54,-7.77 0,0 -6.66,-6.66 -6.66,-6.66 0,0 -1.11,3.33 -1.11,3.33 0,0 -2.22,0 -2.22,0 0,0 -2.22,-7.77 -2.22,-7.77 -4.107,2.3865 -3.7851,3.2079 -3.33,7.77 0,0 -1.11,1.11 -1.11,1.11 0,0 -2.22,0 -2.22,0 z m 150.96,45.509996 c 0,0 -1.11,0 -1.11,0 0,0 1.11,1.11 1.11,1.11 0,0 0,-1.11 0,-1.11 z m -106.56,116.55001 c 0,0 -3.33,0 -3.33,0 0,0 -1.11,3.33 -1.11,3.33 0,0 4.44,-3.33 4.44,-3.33 z m 139.86,9.99 c 0,2.4753 1.5762,1.7094 3.33,1.11 0,0 -3.33,-1.11 -3.33,-1.11 z m 12.21,5.55 c 0,0 -1.11,0 -1.11,0 0,0 1.11,1.11 1.11,1.11 0,0 0,-1.11 0,-1.11 z m -3.33,1.11 c 0,0 -1.11,0 -1.11,0 0,0 1.11,1.11 1.11,1.11 0,0 0,-1.11 0,-1.11 z m -2.22,2.22 c 0,0 4.44,4.44 4.44,4.44 0,0 -4.44,-4.44 -4.44,-4.44 z m 7.77,0 c 0,0 -1.11,0 -1.11,0 0,0 1.11,1.11 1.11,1.11 0,0 0,-1.11 0,-1.11 z m -11.1,15.54 c 0,0 -1.11,0 -1.11,0 0,0 1.11,1.11 1.11,1.11 0,0 0,-1.11 0,-1.11 z m -2.22,18.87 c 0,0 -3.33,-3.33 -3.33,-3.33 0,0 5.55,5.55 5.55,5.55 0,0 1.11,-3.33 1.11,-3.33 0,0 -3.33,1.11 -3.33,1.11 z m 0,14.43 c 0,0 -1.11,0 -1.11,0 0,0 1.11,1.11 1.11,1.11 0,0 0,-1.11 0,-1.11 z m -1.11,44.4 c 0,0 -1.11,0 -1.11,0 0,0 1.11,1.11 1.11,1.11 0,0 0,-1.11 0,-1.11 z m 0,7.77 c 0,0 -1.11,0 -1.11,0 0,0 1.11,1.11 1.11,1.11 0,0 0,-1.11 0,-1.11 z m -3.33,1.11 c 0,0 -1.11,0 -1.11,0 0,0 1.11,1.11 1.11,1.11 0,0 0,-1.11 0,-1.11 z m -139.86,53.28 c 0,0 -1.11,0 -1.11,0 0,0 1.11,1.11 1.11,1.11 0,0 0,-1.11 0,-1.11 z m 160.95,24.42 c 0,0 -1.11,0 -1.11,0 0,0 1.11,1.11 1.11,1.11 0,0 0,-1.11 0,-1.11 z m 0,36.63 c 0,0 -6.66,-1.11 -6.66,-1.11 0,0 6.66,1.11 6.66,1.11 z m -61.05,5.55 c 0,0 -1.11,0 -1.11,0 0,0 1.11,1.11 1.11,1.11 0,0 0,-1.11 0,-1.11 z m 12.21,8.88 c 0,0 -1.11,5.55 -1.11,5.55 0,0 1.11,-5.55 1.11,-5.55 z m -47.73,4.44 c 0,0 -1.11,0 -1.11,0 0,0 1.11,1.11 1.11,1.11 0,0 0,-1.11 0,-1.11 z"
     style="fill:#000000;stroke:none" />
</svg>
