<?xml version="1.0" encoding="UTF-8" standalone="no"?>
<svg
   xmlns:dc="http://purl.org/dc/elements/1.1/"
   xmlns:cc="http://creativecommons.org/ns#"
   xmlns:rdf="http://www.w3.org/1999/02/22-rdf-syntax-ns#"
   xmlns:svg="http://www.w3.org/2000/svg"
   xmlns="http://www.w3.org/2000/svg"
   xmlns:sodipodi="http://sodipodi.sourceforge.net/DTD/sodipodi-0.dtd"
   xmlns:inkscape="http://www.inkscape.org/namespaces/inkscape"
   width="100mm"
   height="100mm"
   viewBox="0 0 566.90006 566.89991"
   version="1.1"
   id="svg286"
   sodipodi:docname="harpie.svg"
   inkscape:version="1.0.1 (3bc2e813f5, 2020-09-07)">
  <metadata
     id="metadata292">
    <rdf:RDF>
      <cc:Work
         rdf:about="">
        <dc:format>image/svg+xml</dc:format>
        <dc:type
           rdf:resource="http://purl.org/dc/dcmitype/StillImage" />
        <dc:title></dc:title>
      </cc:Work>
    </rdf:RDF>
  </metadata>
  <defs
     id="defs290" />
  <sodipodi:namedview
     pagecolor="#ffffff"
     bordercolor="#666666"
     borderopacity="1"
     objecttolerance="10"
     gridtolerance="10"
     guidetolerance="10"
     inkscape:pageopacity="0"
     inkscape:pageshadow="2"
     inkscape:window-width="3840"
     inkscape:window-height="2066"
     id="namedview288"
     showgrid="false"
     inkscape:zoom="1.6310818"
     inkscape:cx="849.96259"
     inkscape:cy="501.42379"
     inkscape:window-x="-11"
     inkscape:window-y="-11"
     inkscape:window-maximized="1"
     inkscape:current-layer="svg286"
     inkscape:document-rotation="0" />
  <path
     id="Sélection #8"
     fill="none"
     stroke="#000000"
     stroke-width="1"
     d="m 38.919588,55.175266 c 2.7,2.71 8.73,13.46 9.97,17.17 0,0 1.47,5.83 1.47,5.83 0,0 9.61,15 9.61,15 0,0 9.03,10.040004 9.03,10.040004 0,0 12.09,14.68 12.09,14.68 0,0 28.830002,22.7 28.830002,22.7 12.79,10.47 16.94,17.76001 33,24.58001 -7.07,-6.04 -13.19,-11.34001 -15,-21.00001 0,0 24.96,18.21001 24.96,18.21001 0,0 9.05,9.49 9.05,9.49 4.18,3.61 6.22,3.95 9.99,6.67 9.17,6.63 13.87,11.11 21.68,19.21 0,0 15.62,18.13 15.62,18.13 9.42,9.56 19.5,15.66 30.7,22.61 3.36,2.09 6.34,5.11 10,6.53 0,0 15,2.28 15,2.28 5.15,0.74 8.86,1.39 12.83,5.08 2.4,2.23 6.95,8.97 10.86,7.43 2.74,-1.09 2.26,-5.4 1.7,-7.64 -1.66,-6.68 -6.7,-10.82 -1.39,-17 -3.47,-3.07 -4.72,-4.5 -6,-9 0,0 4,0 4,0 0,0 4,4 4,4 0,0 -5,-11 -5,-11 0,0 8,6 8,6 0,0 -5.48,-11 -5.48,-11 0,0 -4.52,-11 -4.52,-11 0,0 6,-3 6,-3 2.51,5.61 5.29,6.69 5,13 0,0 3,1 3,1 0,0 -1,-3 -1,-3 0,0 7,-3 7,-3 0,0 3,9 3,9 0,0 3,-1 3,-1 -0.47,10.13 -3.5,8.08 -1,17 0,0 9,-7 9,-7 -3.27,6.84 -4.43,8.05 -5.23,16 0,0 0,5 0,5 -1.68,7.37 -4.69,2.5 -2.77,13 4.53,-3.62 7.69,-6.42 14,-5.49 4.35,0.63 6.99,3 10,2.5 3.13,-0.53 15.76,-10.91 18.96,-13.51 0,0 34.13,-34.89 34.13,-34.89 0,0 33.91,-23.79 33.91,-23.79 5.62,-4.93 10.71996,-10.32 15.44996,-16.1 3.77,-4.62 4.95,-7.94 10.55,-10.72 0,0 -10,21 -10,21 11.03,-7.66 43.44,-33.86001 51.91,-43.00001 0,0 17.54,-22.45 17.54,-22.45 0,0 21.55,-36.550004 21.55,-36.550004 0,0 1,6 1,6 0,0 -4,5 -4,5 0,0 3,1 3,1 0,0 -3,2 -3,2 4.38,1.28 2.31,4.72 1,8 0,0 3,0 3,0 -1.79,5.130004 -2.5,5.980004 -7,9.000004 0,0 5,1 5,1 0,0 -7,3 -7,3 0,0 3,1 3,1 0,0 -4,2 -4,2 1.1,2.92 -0.46,2.91 -3,4 6.45,1.64 4.74,-1.05 8.54,-4.07 2.56,-2.04 8.25,-3.87 11.46,-3.93 1.63,-4.28 5.57,-6.18 10,-6 0,0 2,-6.000004 2,-6.000004 0,0 6,-1 6,-1 0,0 0,2.000004 0,2.000004 0,0 -2,0 -2,0 0,0 1,3 1,3 0,0 -4,2 -4,2 1.44,3.9 -1.11,5.83 -3.33,9 -5.28,7.56 -13.38,12.57 -14.67,18 -4.44,2.62 -5.5,3.45 -8,8 0,0 3,2 3,2 0,0 0,-6 0,-6 0,0 4,2 4,2 4.52,-4.06 5.41,-2.94 10.04,-6.2 6.83,-4.82 11.5,-13.55 20.96,-9.8 0,0 -10,4 -10,4 0,0 5,4 5,4 0,0 -5,1 -5,1 0,0 3,1 3,1 -4.03,7.98 -16.28,16.94 -25,19 0,0 2,2 2,2 0,0 0,1.00001 0,1.00001 0,0 -8,2 -8,2 7.67,0.38 8.58,-1.33 15,-3.64001 6.1,-2.19 10.47,-2.98 15,-8.36 0,0 3,1 3,1 0,0 2,-2 2,-2 0,0 7,4 7,4 -5.17,1.6 -17.09,13.34001 -26,17.33001 -3.26,1.47 -8.76,2.04 -10,5.67 0,0 -8,-3 -8,-3 0,0 -1,1 -1,1 0,0 0,2 0,2 0,0 15,1 15,1 0,0 0,1 0,1 0,0 2,1 2,1 0.06,-4.93 5.95,-4.89 10,-5 3.35,-5.32 8.47,-4.22 13,-1 0,0 -4,-1 -4,-1 0,0 -5,2 -5,2 0,0 4,5 4,5 -2.64,0.03 -4.93,-0.68 -6,2 -4.54,-0.19 -4.55,0.24 -8,3 0,0 -2,-2 -2,-2 0,0 -3,2 -3,2 0,0 -8,3 -8,3 0,0 2,0 2,0 0,0 0,1 0,1 -3.98,0.01 -5.68,-0.45 -9,2 0,0 25,-1 25,-1 1.79,1.86 2.51,3.44 5,2 0,0 8,3 8,3 0,0 -1,4 -1,4 0,0 -4,1 -4,1 0,0 -9,-2 -9,-2 0,0 1,5 1,5 -4.58,-1.05 -9.47,-1.17 -14.17,-0.92 -3.55,0.19 -6.68,-0.73 -8.83,1.92 0,0 -5,-3 -5,-3 0,0 1,3 1,3 -6.62,-1.75 -7.08,-3.19 -14,-1 0,0 40,9 40,9 0,0 0,4 0,4 0,0 -5,-3 -5,-3 -1.44,3.94 -3.94,4.18 -8,4.19 0,0 -22,-3.19 -22,-3.19 3.46,3.09 6.41,4.38 11,5 0,0 -1,2 -1,2 5.8,0.17 6.86,0.9 11,5 2.82,-3.07 5.27,-1.27 8,1 0,0 -2,2 -2,2 0,0 -9,3 -9,3 -16.02,-4.31 -10.74,0.6 -21,-7 0,0 3,4 3,4 -5.82,-2.08 -6.67,-3.74 -13,-2 0,0 21,7 21,7 0,0 3,7 3,7 0,0 -7,-2 -7,-2 -6.07,3.78 -13.73,-3.43 -23,-2 0,0 0,2 0,2 0,0 6,-1 6,-1 2.19,1.77 14.08,5.97 17,6.61 5.07,1.12 6.49,-0.44 11,3.39 0,0 -9,-1 -9,-1 -2.15,2.93 -2.86,2.34 -6,1 0,0 1,3 1,3 0,0 -4,-1 -4,-1 0,0 1,3 1,3 -5.29,-0.95 -9.21,-0.06 -12,-5 0,0 -3,1 -3,1 0,0 2,6 2,6 0,0 2,-1 2,-1 0,0 0,-1 0,-1 0,0 2,0 2,0 0,0 8,5 8,5 0,0 -2,1 -2,1 4.78,0.33 7.38,1.19 9,6 0,0 -4,1 -4,1 0,0 0,-4 0,-4 0,0 -6,-1 -6,-1 0,0 4,3 4,3 0,0 0,1 0,1 0,0 -2,2 -2,2 0,0 -2,-1 -2,-1 0,0 0,-1 0,-1 0,0 -2,2 -2,2 0,0 -2,-4 -2,-4 0,0 -3,2 -3,2 0,0 -1,-3 -1,-3 -2.42,1.91 -3.32,-0.02 -5,-2 0,0 -2,2 -2,2 0,0 -8,-9 -8,-9 0.5,8.54 5.38,8.75 10,15 0,0 2,-3 2,-3 0,0 0,1 0,1 0,0 2,2 2,2 0,0 -2,3 -2,3 0,0 3,-3 3,-3 0,0 5,4 5,4 0,0 -5,4 -5,4 0,0 -9,-4 -9,-4 0,0 1,2 1,2 0,0 -1,0 -1,0 0,0 -2,-6 -2,-6 0,0 -5,-1 -5,-1 0,0 -1,3 -1,3 0,0 -2,-5 -2,-5 0,0 -4,2 -4,2 0,0 -5,-4 -5,-4 0,0 9,7 9,7 0,0 1,6 1,6 4.87,0.57 6.73,1.56 9,6 0,0 -6,2 -6,2 0,0 -6,-4 -6,-4 0,0 -3,1 -3,1 0,0 2,-5 2,-5 0,0 -6,1 -6,1 0,0 -2,-4 -2,-4 0,0 -2,2 -2,2 0,0 -1,0 -1,0 0,0 -1,-3 -1,-3 -4.06,1.6 -8.28,-2.39 -12,-4 0,0 13,13 13,13 0,0 -6,0 -6,0 3,2.97 4.36,1.54 8,0 0,0 4,2 4,2 0,0 2,6 2,6 -4.52,0.93 -5.06,0.17 -9,-2 0,0 1,3 1,3 -7.78,-4.54 -0.78,-3.01 -12,-6 0,0 1,5 1,5 0,0 7,3 7,3 -3.01,2.73 -6.09,3.16 -9,0 0,0 -3,1 -3,1 -3.56,-2.85 -5.62,-3.04 -10,-2 0,0 1,2 1,2 0,0 4,0 4,0 0,0 3,3 3,3 0,0 -1,2 -1,2 3.01,1.08 2.81,1.04 4,4 -3.37,-0.6 -7.65,-0.37 -10,-3 0,0 -2,1 -2,1 0,0 -1,-3 -1,-3 -7.47996,0.31 -8.79996,-1.47 -14.99996,-5 3.84,4.57 5.4,4.72 5,11 0,0 -1,0 -1,0 0,0 -2,-2 -2,-2 0,0 0,7 0,7 0,0 -4,-1 -4,-1 0,0 3,11 3,11 -5.42,-1.42 -8.05,-3.28 -9,-9 0,0 -4,4 -4,4 0,0 -2,-5 -2,-5 0,0 -1,3 -1,3 0,0 -2,-7 -2,-7 -0.55,2.87 -0.29,2.87 -3,4 0,0 10,14 10,14 0,0 -9,-1 -9,-1 0,0 -2,4 -2,4 0,0 0,-8 0,-8 0,0 -4,3 -4,3 -3.59,-1.75 -5.46,-2.87 -6,-7 0,0 -3,1 -3,1 0,0 11,15 11,15 0,0 -10,-1 -10,-1 0,0 -1,-4 -1,-4 0,0 -5,0 -5,0 0,0 3,6 3,6 0,0 -1,0 -1,0 0,0 -1,2 -1,2 0,0 4,2 4,2 0,0 0,-1 0,-1 0,0 2,-1 2,-1 0,0 -1,4 -1,4 0,0 -3,-1 -3,-1 -2.45,3.26 -4.49,2.05 -8,1 0,0 3,6 3,6 0,0 -4,-3 -4,-3 0,0 -1,6 -1,6 0,0 -3,-4 -3,-4 0,0 -2,2 -2,2 0,0 -1,0 -1,0 0,0 -1,-4 -1,-4 -4.11,-1.56 -5.27,-5.48 -8,-9 1.35,3.94 1.64,4.12 0,8 3.65,2.96 7.44,7.66 1,10 0,0 -5.02,-6.49 -5.02,-6.49 0,0 -2.98,-8.51 -2.98,-8.51 -7.16,8.36 3,5.55 2,17 -4.92,-0.8 -6.66,-2.15 -8,-7 0,0 -5,-1 -5,-1 0,0 5,9 5,9 0,0 -3,-1 -3,-1 0,0 0,4 0,4 0,0 -3,-5 -3,-5 0,0 -3,1 -3,1 0,0 -4,-7 -4,-7 0,0 -1,7 -1,7 0,0 4,0 4,0 0,0 -1,5 -1,5 0,0 -5,-2 -5,-2 -2.31,-8.88 -9.29,-4.87 -8,-15 0,0 -2,-4 -2,-4 -4.03,-1.25 -3.83,-8.39 -4,-12 -10.94,8.49 -4.41,16 -3.74,21 0.51,2.5 0,5.47 0,8 -0.68,12.07 8.69,13.05 12.98,30 0.54,2.11 2.06,12.2 1.78,14 -0.45,2.83 -2.2,4.76 -2.56,9 -0.75,8.78 -0.48,16.53 1.98,25 1.15,3.97 0.84,5.61 3.56,9 -0.86,8.76 1.21,8.89 1.56,13.42 0.21,2.64 -0.73,5.01 -0.93,7.58 -0.17,2.15 0.6,5.73 -0.67,7.4 -1.74,2.31 -5.2,0.84 -8.7,3.32 -4.52,3.2 -3.69,7.09 -12.26,5.28 0,0 0,-2 0,-2 0,0 6,1 6,1 0,0 6,-15 6,-15 -4.59,5.28 -7.59,9.12 -15,10.19 -6.15,0.89 -11.77,-1.16 -9,-8.19 7.57,10.24 15.92,3.64 21,-5 -6.82,1.6 -14.27,7.66 -18.11,-2 -0.52,-1.31 -0.66,-2.63 -0.89,-4 5.62,2.15 4.34,4.35 7.27,5.65 5.97,2.64 11.91,-6.84 14.73,-10.65 -6.15,-2.43 -4.81,-0.79 -11,0 0,0 0,4 0,4 -1.7,-4.59 -0.76,-9.28 5,-9.85 0,0 7,0.85 7,0.85 0,0 -1.63,-11 -1.63,-11 -0.99,-3.46 -3.5,-6.99 -4.19,-11 -0.28,-3.66 2.41,-7.76 0,-9 0,0 -1.18,-9 -1.18,-9 -5.38,0.4 -6.52,-2 -6,-7 -2.66,2.96 -3.98,6.07 -8,4 0,0 -3,8 -3,8 0,0 0,-12 0,-12 0,0 -4,-1 -4,-1 -0.7,5.46 -2.13,9.16 -7,12 0,0 -1,-4 -1,-4 -1.77,1.29 -2.31,-1.52 -3,-3 0,0 -1,7 -1,7 0,0 -3,0 -3,0 0,0 1,-12 1,-12 0,0 -1,-2 -1,-2 -2.86,3.04 -3.02,3.85 -3,8 0,0 -4,3 -4,3 0,0 2,4 2,4 0,0 -3,1 -3,1 0,0 3,1 3,1 -2.02,0.43 -5.07,0.66 -6.73,1.82 -2.79,1.97 -9.91,15.68 -8.77,19.18 1.48,4.56 8.15,7.5 12.03,15 2.12,4.11 1.45,11.06 -4.53,10 0,0 3,-1 3,-1 -1.4,-6.05 -0.66,-6.95 -5.89,-11 -2.39,9.37 0.03,9.42 0,15 0,0 0,14 0,14 0,0 1.89,0 1.89,0 0,0 2,-3 2,-3 -1.77,5.53 -5.41,5.34 -6.96,0.94 -0.95,-3.07 -0.29,-11.48 0,-14.94 -9.08,5.08 -2.31,15.78 0,23 -9.92,-3.03 -12.38,-3.3 -14.04,-14 0,0 -3,1 -3,1 0,0 -4,-10 -4,-10 2.56,-1.71 7.51,-4.61 8.98,-7.18 1.95,-3.44 0.35,-8.94 0.8,-11.82 0.64,-4.08 6.21,-9.7 8.27,-21 0.68,-3.4 2.86,-5.53 0,-8 -0.46,-4.08 -1.2,-4.25 -4.05,-7 0,0 10,-7 10,-7 0,0 0,-6 0,-6 0,0 3,-3 3,-3 0,0 -8,7 -8,7 0,0 0,-3 0,-3 0,0 -2,6 -2,6 0,0 -3,1 -3,1 -6.93,-2.13 -8.67,-5.41 -3,-11 0,0 0,4 0,4 0,0 5,-1 5,-1 -1.02,-7.01 0.34,-5.73 5,-10 0,0 -21,8 -21,8 0,0 0,-1 0,-1 0,0 2,-2 2,-2 0,0 -3,4 -3,4 0,0 -2,0 -2,0 0.38,-4.79 1.03,-5.86 6,-5 6.6,-11.62 20.79,-10.41 26.86,-14.97 3.18,-2.39 3.21,-4.65 4.61,-8.03 5.08,-12.25 4.15,-3.63 4.55,-18 0.22,-7.95 3.79,-8.36 3.43,-11.74 -0.21,-1.92 -1.98,-1.95 -3.45,-7.26 -5.18,2.14 -11.09,5.58 -13,11 0,0 -5,0 -5,0 1.52,1.49 1.13,1.26 0,3 0,0 3,1 3,1 0,0 -1,5 -1,5 0,0 -3,1 -3,1 0,0 2,4 2,4 0,0 -3,-1 -3,-1 0,0 0,7 0,7 0,0 -5,0 -5,0 0,0 1,4 1,4 0,0 -5,-2 -5,-2 1.31,-5.08 0.85,-9.65 5,-13 0,0 -2,-3 -2,-3 0,0 -2,4 -2,4 0,0 -5,3 -5,3 3.66,1.31 -0.17,3.37 -2,4 0,0 -3,4 -3,4 0,0 -1,-5 -1,-5 0,0 -2,9 -2,9 0,0 -4,-1 -4,-1 0,0 9,-15 9,-15 0,0 -2,2 -2,2 0,0 -1,0 -1,0 0,0 -2,-3 -2,-3 0,0 -1,6 -1,6 0,0 -6,1 -6,1 0,0 -1,4 -1,4 0,0 0,-4 0,-4 0,0 -2,0 -2,0 0,0 0,6 0,6 0,0 -7,1 -7,1 1.3,-3.94 1.36,-4.07 0,-8 0,0 -2,3 -2,3 0,0 1,-4 1,-4 0,0 -3,5 -3,5 0,0 -2.48,-1.82 -2.48,-1.82 -2.69,-3.33 0.82,-8.12 2.48,-11.18 0,0 2,1 2,1 0,0 2,-5 2,-5 0,0 -6,1 -6,1 -0.48,5.94 -1.83,7.19 -7,10 0,0 1,-5 1,-5 0,0 -4,2 -4,2 0.2,-3.32 0.16,-3.25 3,-5 0,0 -4,-4 -4,-4 0,0 -1,6 -1,6 -1.55,-2.76 -3.74,-0.33 -6,1 0,0 3,-6 3,-6 0,0 -3,2 -3,2 0,0 3,-7 3,-7 0,0 -4,3 -4,3 0,0 3,-6 3,-6 -3.33,0.8 -5.51,1.77 -8,-1 0,0 -4,1 -4,1 0,0 -3,-5 -3,-5 0,0 5,2 5,2 -0.93,-4.64 -3.88,-6.97 -8,-9 0,0 7,-11 7,-11 0,0 -3,-1 -3,-1 -0.49,3.86 -3.06,5.68 -6,8 0,0 -3,-7 -3,-7 0,0 1,3 1,3 0,0 -3,0 -3,0 0,0 0,8 0,8 -3.98,-3.91 -5.71,-3.38 -11,-3 0,0 10,-16 10,-16 0,0 -3,-3 -3,-3 0,0 -2,7 -2,7 0,0 -1,-3 -1,-3 0,0 -2,5 -2,5 0,0 -2,-1 -2,-1 0,0 -1,-4 -1,-4 0,0 4,-1 4,-1 -6.13,-0.36 -3.77,3.96 -6.6,7.53 -1.9,2.41 -4.6,3.54 -7.4,4.47 0.33,-3.91 0.17,-4.66 4,-6 -2.91,-9.15 8.14,-6.99 5,-18 0,0 -3,4 -3,4 0,0 2,-1 2,-1 -2.25,5.37 -4.02,7.92 -9,11 0,0 1,-7 1,-7 0,0 -4,2 -4,2 -0.53,-7.23 0.67,-6.55 5,-12 0,0 -7,5 -7,5 0,0 -3,-1 -3,-1 0,0 -2,4 -2,4 0,0 1,-4 1,-4 0,0 -3,4 -3,4 0,0 0,-1 0,-1 0,0 -2,-1 -2,-1 0,0 -2,1 -2,1 -3.87,3.08 -6.22,2.55 -11,3 0,0 6,-8 6,-8 0,0 3,1 3,1 0,0 2,-5 2,-5 0,0 -7.83,1.45 -7.83,1.45 -5.32,1.51 -10.42,4.91 -15.17,0.55 0,0 3,1 3,1 0,0 6,-10 6,-10 0,0 -6.79,2.5 -6.79,2.5 0,0 -6.21,4.5 -6.21,4.5 0,0 1,-5 1,-5 -2.56,4.38 -5.5,5.83 -10.000002,3 0,0 3.000002,-5 3.000002,-5 3.66,-2 4.16,-3.65 7.18,-5.64 5.92,-3.9 7.39,-2.41 12.82,-9.36 0,0 -12,4 -12,4 0,0 -5,4 -5,4 0,0 -4.000002,1 -4.000002,1 0,0 -2,-3 -2,-3 0,0 0,1 0,1 0,0 -2,0 -2,0 0,0 2,5 2,5 0,0 -9,4 -9,4 0,0 -3,-1 -3,-1 0,0 0,-2 0,-2 0,0 -4,1 -4,1 0,0 2,-5 2,-5 0,0 8,-2 8,-2 0,0 -1,-3 -1,-3 0,0 5,-2 5,-2 0,0 6.000002,-8 6.000002,-8 0,0 -6.000002,4 -6.000002,4 0,0 -1,0 -1,0 0,0 -2,-2 -2,-2 0,0 -1,5 -1,5 0,0 -4,-3 -4,-3 0,0 -2,4 -2,4 0,0 0,-1 0,-1 0,0 -2,-1 -2,-1 0,0 -3,6 -3,6 0,0 -1,-3 -1,-3 0,0 -5,4 -5,4 0,0 -7,-3 -7,-3 0,0 5,-5 5,-5 0,0 2,3 2,3 0,0 -1,-3 -1,-3 0,0 5,0 5,0 0,0 14,-14 14,-14 0,0 -5,2 -5,2 0,0 0,-2 0,-2 0,0 -9,8 -9,8 -3.86,-1.15 -6.94,6.1 -12,1 0,0 -5,4 -5,4 0,0 -2,-2 -2,-2 0,0 0,-1 0,-1 0,0 4,-3 4,-3 0,0 -6,5 -6,5 0,0 -5,-1 -5,-1 0,0 0,-2 0,-2 0,0 11,-5 11,-5 0,0 -3,-1 -3,-1 0,0 9,-2 9,-2 0,0 -1,-4 -1,-4 0,0 -9,2 -9,2 0,0 2,-5 2,-5 0,0 -5,3 -5,3 0,0 1,-3 1,-3 0,0 -5,2 -5,2 0,0 -1,-3 -1,-3 0,0 -6,-1 -6,-1 0,0 -4,1 -4,1 8.06,-3.8 17.08,-1.6 25,-9 0,0 -11,3 -11,3 -7.52,-3.39 -13.71,2.15 -23,-7 0,0 23,-5 23,-5 0,0 -15,1.3 -15,1.3 0,0 -10,-1.3 -10,-1.3 0,0 -1,-2 -1,-2 0,0 1,-1 1,-1 0,0 -3,-1 -3,-1 4.04,-1.7 5.22,-2.64 9,0 3.88,-5.95 14.35,-7.85 21,-8 0,0 0,-4 0,-4 0,0 -24,4 -24,4 0,0 -1,-1 -1,-1 0,0 1,-2 1,-2 0,0 -4,2 -4,2 0,0 -3,-4 -3,-4 0,0 -5,2 -5,2 0,0 -4,-7 -4,-7 0,0 13,-1.9 13,-1.9 10.79,-0.55 21.99,-0.47 32,-5.1 0,0 -14,2 -14,2 0,0 0,-3 0,-3 0,0 -5,3 -5,3 0,0 1,-3 1,-3 0,0 -7,3 -7,3 -1.52,-3.55 -13.66,-1.77 -17,-1 0,0 0,-5 0,-5 0,0 -5,2 -5,2 0,0 1,-2 1,-2 0,0 -6,2 -6,2 0,0 0,-2 0,-2 0,0 -4.0000002,1 -4.0000002,1 0,0 2,-4 2,-4 0,0 -1,-3.89 -1,-3.89 5.8400002,-1.48 5.5500002,0.36 9.8300002,0 0,0 4.34,-0.8 4.34,-0.8 7.28,-0.97 10.75,-0.49 17.83,-4.31 0,0 -10,1 -10,1 0,0 1,-3 1,-3 0,0 -2,2 -2,2 0,0 -1,0 -1,0 0,0 -1,-1 -1,-1 0,0 1,-2 1,-2 0,0 -6,0 -6,0 -0.64,-2.52 -1.6,-2.03 -4,-2 0,0 0,-2 0,-2 0,0 -7,0 -7,0 0,0 1,-3.00001 1,-3.00001 0,0 -6.0000002,-3 -6.0000002,-3 0,0 0,-6 0,-6 13.4700002,5.57 21.4100002,12.09001 37.0000002,9 -11.27,-2.5 -17.76,-6.29 -27.04,-12.63 -4.69,-3.22 -9.3900002,-6.18 -11.9600002,-11.37 0,0 -3.00000004,1 -3.00000004,1 6.74000004,-8.22 15.66000024,0.77 22.42000024,3.72 0,0 7.58,2.49 7.58,2.49 3.88,1.7 9.96,4.91 13,0.79 0,0 -7,0 -7,0 0,0 1,-3 1,-3 -9.97,-2.35 -19.72,-11.17 -26,-19 0,0 3,-3 3,-3 0,0 -5.0000002,-1 -5.0000002,-1 0,0 3.0000002,-1 3.0000002,-1 -6.0300002,-1.18 -5.8200002,-1.21 -8.0000002,-7 2.92,0 6.3000002,-0.26 8.9900002,0.98 8.38,3.89 13.8,16.33 27.01,14.02 0,0 1,5 1,5 0,0 3,-1 3,-1 0,0 -9,-8 -9,-8 -0.6,-4.82 -5.75,-7.81 -8.99,-11.04 -4.31,-4.290004 -8.09,-9.630004 -11.01,-14.960004 0,0 3,-1 3,-1 0,0 -6,-3 -6,-3 0,0 0,-7 0,-7 0,0 6.59,2.24 6.59,2.24 0,0 10.42,11.45 10.42,11.45 0,0 0.99,2.31 0.99,2.31 0,0 13,3 13,3 1.54,5.13 4.48,8.070004 10,8.000004 0,0 -4,-1 -4,-1 0,0 1,-3.000004 1,-3.000004 0,0 -4,-1 -4,-1 0.59,-2.41 -0.21,-2.42 -2,-4 0,0 1,-3 1,-3 0,0 -4,-2 -4,-2 0,0 3,-2 3,-2 -4.77,-1.74 -5.38,-3.35 -7,-8 0,0 4,0 4,0 0,0 -4,-7 -4,-7 0,0 5,-2 5,-2 0,0 -4,-2 -4,-2 0,0 4,0 4,0 0,0 -5,-6 -5,-6 0,0 1,-6 1,-6 z m 2,16 c 0,0 -1,0 -1,0 0,0 1,1 1,1 0,0 0,-1 0,-1 z m 5,16 c 0,0 -1,0 -1,0 0,0 1,1 1,1 0,0 0,-1 0,-1 z m 18,18.000004 c 0,0 -4,3 -4,3 0,0 4,-3 4,-3 z m 457.999962,3 c 0,0 -1,0 -1,0 0,0 1,1 1,1 0,0 0,-1 0,-1 z m -467.999962,6 c 0.04,2.79 0.64,2.7 3,4 0,0 -3,-4 -3,-4 z m 463.999962,7 c 0,0 -4,2 -4,2 0,0 1,1 1,1 0,0 3,-3 3,-3 z m -474.999962,1 c 0,0 -1,0 -1,0 0,0 1,1 1,1 0,0 0,-1 0,-1 z m 9,4 c 0,0 -3,1 -3,1 0,0 4,3 4,3 0,0 -1,-4 -1,-4 z m 452.999962,0 c 0,0 2,3 2,3 0,0 1,-3 1,-3 0,0 -3,0 -3,0 z m 10,7 c 0,0 -4,5 -4,5 0,0 4,-5 4,-5 z m -489.999962,4 c 0,0 3,3 3,3 0,0 -3,-3 -3,-3 z m 498.999962,5 c 0,0 -1,0 -1,0 0,0 1,1 1,1 0,0 0,-1 0,-1 z m -6,3 c 0,0 -4,4 -4,4 0,0 4,-4 4,-4 z m -22,13.00001 c 0,0 -2,0 -2,0 0,0 -1,4 -1,4 0,0 3,-4 3,-4 z m 44,0 c 0,0 -1,0 -1,0 0,0 1,1 1,1 0,0 0,-1 0,-1 z m -395.99996,7 c 0,0 -1,0 -1,0 0,0 1,1 1,1 0,0 0,-1 0,-1 z m 372.99996,8 c 0,0 -1,0 -1,0 0,0 1,1 1,1 0,0 0,-1 0,-1 z m 16,6 c -1.39,-3.36 -2.79,-3.24 -6,-2 0,0 6,2 6,2 z m -471.999962,22 c 0,0 -5,5 -5,5 0,0 5,-5 5,-5 z m -23,1 c 0,0 -1,0 -1,0 0,0 1,1 1,1 0,0 0,-1 0,-1 z m 18,0 c 0,0 -4,3 -4,3 0,0 4,-3 4,-3 z m 16,0 c -6.05,0 -8.65,-0.79 -13,4 5.86,-0.15 7.96,-1.04 13,-4 z m 461.999962,6 c 0,0 -1,0 -1,0 0,0 1,1 1,1 0,0 0,-1 0,-1 z m -24,1 c 0,0 -1,0 -1,0 0,0 1,1 1,1 0,0 0,-1 0,-1 z m -466.999962,4 c 0,0 -1,0 -1,0 0,0 1,1 1,1 0,0 0,-1 0,-1 z m 10,0 c 0,0 -4,3 -4,3 0,0 4,-3 4,-3 z m -11,1 c 0,0 -1,0 -1,0 0,0 1,1 1,1 0,0 0,-1 0,-1 z m 258.000002,5 c -0.17,3.06 0.47,3.45 3,5 0,0 -3,-5 -3,-5 z m 212.99996,0 c 0,0 -1,0 -1,0 0,0 1,1 1,1 0,0 0,-1 0,-1 z m 17,0 c 0,0 -1,0 -1,0 0,0 1,1 1,1 0,0 0,-1 0,-1 z m -12,1 c 0,0 -1,0 -1,0 0,0 1,1 1,1 0,0 0,-1 0,-1 z m 1,1 c 0,0 -1,0 -1,0 0,0 1,1 1,1 0,0 0,-1 0,-1 z m -440.999962,3 c 0,0 -6,1 -6,1 0,0 -2,3 -2,3 0,0 4,4 4,4 0,0 0,-1 0,-1 0,0 -2,-2 -2,-2 0,0 6,-5 6,-5 z m -24,1 c 0,0 -1,0 -1,0 0,0 1,1 1,1 0,0 0,-1 0,-1 z m 35,5 c 0,0 -1,0 -1,0 0,0 1,1 1,1 0,0 0,-1 0,-1 z m 426.999962,0 c 0,0 2,3 2,3 0,0 -2,-3 -2,-3 z m -431.999962,1 c 0,0 -2,0 -2,0 0,0 -1,4 -1,4 0,0 3,-4 3,-4 z m 7,5 c 0,0 -2,4 -2,4 0,0 2,-4 2,-4 z m 399.999962,4 c 0,0 -1,0 -1,0 0,0 1,1 1,1 0,0 0,-1 0,-1 z m -434.999962,1 c 0,0 -1,0 -1,0 0,0 1,1 1,1 0,0 0,-1 0,-1 z m 450.999962,1 c 0,0 -1,0 -1,0 0,0 1,1 1,1 0,0 0,-1 0,-1 z m -21,5 c 0,0 2,4 2,4 0,0 -2,-4 -2,-4 z m -390.999962,3 c 0,0 -1,0 -1,0 0,0 1,1 1,1 0,0 0,-1 0,-1 z m 384.999962,2 c 0,0 -2,4 -2,4 0,0 2,-4 2,-4 z m -347.99996,2 c 0,0 -5,0 -5,0 0,0 -1,5 -1,5 0,0 -3,-2 -3,-2 0,0 -1,4 -1,4 5.44,-1.16 6.75,-2.57 10,-7 z m -10,4 c 0,0 -1,0 -1,0 0,0 1,1 1,1 0,0 0,-1 0,-1 z m 23,0 c 0,0 -2,0 -2,0 0,0 -2,4 -2,4 -2.3,-1.5 -2.65,2.33 -3,4 4.41,-2.11 5.61,-3.28 7,-8 z m -31,2 c 0,0 -3,-1 -3,-1 0,0 -1,3 -1,3 0,0 4,-2 4,-2 z m 1,1 c 0,0 -1,0 -1,0 0,0 1,1 1,1 0,0 0,-1 0,-1 z m 6,5 c -1.37,2.08 -1.27,2.04 1,3 0,0 -1,-3 -1,-3 z m 15,1 c 0,0 -1,0 -1,0 0,0 1,1 1,1 0,0 0,-1 0,-1 z m 302.99996,1 c 0,0 -1,0 -1,0 0,0 1,1 1,1 0,0 0,-1 0,-1 z m 5,1 c 0,0 -5,0 -5,0 2.95,4.07 4.09,5.56 9,7 0,0 0,-4 0,-4 0,0 -3,2 -3,2 0,0 -1,-5 -1,-5 z m -279.99996,1 c -1.85,2.86 -2.18,3.75 -1,7 0,0 3,-5 3,-5 0,0 -2,-2 -2,-2 z m 264,3 c -2.43,5.51 3.54996,7.64 7.99996,8 0,0 -2,-4 -2,-4 0,0 -1,3 -1,3 -1.02,-3.11 -0.79,-3.28 -3.99996,-4 0,0 -1,-3 -1,-3 z m 21.99996,0 c 0,0 1,4 1,4 0,0 -1,-4 -1,-4 z m -316.99996,1 c 0,0 -3,0 -3,0 0,0 0,4 0,4 0,0 3,-4 3,-4 z m 23,0 c 0,0 0,5 0,5 0,0 0,-5 0,-5 z m 299.99996,2 c 0,0 -1,0 -1,0 0,0 1,1 1,1 0,0 0,-1 0,-1 z m -277.99996,3 c 0,0 -3,-2 -3,-2 0,0 3,2 3,2 z m -4,-1 c 0,0 -2,5 -2,5 2.57,-1.85 2.28,-1.88 2,-5 z m -20,1 c -1.72,2.12 -1.84,2.38 -1,5 0,0 1,-5 1,-5 z m 307.99996,0 c 0,0 -1,0 -1,0 0,0 1,1 1,1 0,0 0,-1 0,-1 z m -12,2 c -0.52,2.33 -0.12,2.17 2,3 0,0 -2,-3 -2,-3 z m -282.99996,2 c 0,0 -1,0 -1,0 0,0 1,1 1,1 0,0 0,-1 0,-1 z m 8,1 c 0,0 -1,0 -1,0 0,0 1,1 1,1 0,0 0,-1 0,-1 z m -1,1 c 0,0 -1,0 -1,0 0,0 1,1 1,1 0,0 0,-1 0,-1 z m 235,0 c -3.36,5.73 4.38,12.4 9,15 0,0 -6,-10 -6,-10 0,0 -3,-5 -3,-5 z m -252,1 c 0,0 -2,1 -2,1 0,0 0,1 0,1 0,0 2,1 2,1 0,0 1,-2 1,-2 0,0 -1,-1 -1,-1 z m 281.99996,2 c 0,0 2,5 2,5 0,0 -2,-5 -2,-5 z m -38.99996,4 c 0,0 -5,2 -5,2 0,0 5,4 5,4 0,0 0,-6 0,-6 z m 19,2 c 0,0 1,5 1,5 0,0 -1,-5 -1,-5 z m -222,4 c 0,0 -4,1 -4,1 0,0 1,3 1,3 0,0 3,-4 3,-4 z m 202,1 c 0,0 -1,0 -1,0 0,0 1,1 1,1 0,0 0,-1 0,-1 z m 3,0 c 0,0 -1,0 -1,0 0,0 1,1 1,1 0,0 0,-1 0,-1 z m -213,3 c 0,0 -4,4 -4,4 0,0 7,0 7,0 0,0 2,2 2,2 0,0 -2,-5 -2,-5 0,0 -3,1 -3,1 0,0 0,-2 0,-2 z m 185,2 c -0.49,2.83 -0.25,3.26 2,5 0,0 -2,-5 -2,-5 z m 44,1 c 0,0 -1,0 -1,0 0,0 1,1 1,1 0,0 0,-1 0,-1 z m -143,3 c 0,0 0,4 0,4 0,0 0,-4 0,-4 z m -76,3 c 0,0 0,4 0,4 0,0 0,-4 0,-4 z m 29,0 c 0,0 -2,0 -2,0 0,0 -1,4 -1,4 -1.91,-1.21 -1.76,0.38 -2,2 -3.21,2.41 -2.87,3.11 -3,7 0,0 6,-4 6,-4 0,0 -2,-4 -2,-4 3.3,-0.83 3.14,-1.84 4,-5 z m 25,0 c 0,0 0,4 0,4 0,0 0,-4 0,-4 z m 127,1 c 0,0 -3,0 -3,0 0,0 0,3 0,3 0,0 3,0 3,0 0,0 0,-3 0,-3 z m -158,2 c 0,0 -1,0 -1,0 0,0 1,1 1,1 0,0 0,-1 0,-1 z m 137,3 c 0,0 -3,0 -3,0 0,0 3,5 3,5 0,0 0,-5 0,-5 z m -32,1 c 0,0 -2,0 -2,0 -0.61,4.49 -0.1,5.07 2,9 0,0 2,0 2,0 0,0 1,-3 1,-3 -2.63,-2.39 -2.76,-2.45 -3,-6 z m 20,0 c -2.46,3.92 -1,4.75 0,9 3.1,-2.34 3.76,-4.49 2,-8 0,0 -2,3 -2,3 0,0 0,-4 0,-4 z m -92,1 c 0,0 -2,0 -2,0 0,0 1,4 1,4 0,0 1,-4 1,-4 z m -44,5 c 0,0 -5,-3 -5,-3 0,0 4,4 4,4 0,0 1,-1 1,-1 z m 160,-3 c -0.64,2.93 0.46,3 3,4 0,0 -3,-4 -3,-4 z m -138,1 c 0,0 -2,0 -2,0 0,0 -3,6 -3,6 4.41,-0.76 4.49,-1.72 5,-6 z m 18,0 c 0,0 1,6 1,6 0,0 -1,-6 -1,-6 z m -34,2 c 0,0 -1,0 -1,0 0,0 1,1 1,1 0,0 0,-1 0,-1 z m 158,1 c 0,0 1,4 1,4 0,0 -1,-4 -1,-4 z m -9,1 c 0,0 0,5 0,5 0,0 0,-5 0,-5 z m -123,1 c 0,0 -4,1 -4,1 0,0 1,3 1,3 0,0 3,-4 3,-4 z m -15,1 c 0,0 -2,0 -2,0 0,0 -1,6 -1,6 0,0 -3,6 -3,6 4.02,-2.32 5.35,-4.34 5,-9 0,0 2,-2 2,-2 0,0 -1,-1 -1,-1 z m 23,0 c 0,0 -1,0 -1,0 0,0 1,1 1,1 0,0 0,-1 0,-1 z m 90,0 c 0,0 -1,6 -1,6 0,0 2,0 2,0 0,0 -1,-6 -1,-6 z m -118,4 c 0,0 -1,0 -1,0 0,0 1,1 1,1 0,0 0,-1 0,-1 z m 12,1 c 0,0 -1,0 -1,0 0,0 1,1 1,1 0,0 0,-1 0,-1 z m 98,2 c 0,0 -1,0 -1,0 0,0 1,1 1,1 0,0 0,-1 0,-1 z m 15,2 c 0,0 -1,0 -1,0 0,0 1,1 1,1 0,0 0,-1 0,-1 z m -6,3 c 0,0 -1,0 -1,0 0,0 1,1 1,1 0,0 0,-1 0,-1 z m -124,1 c 0,0 1,0 1,0 0,0 -1,1 -1,1 0,0 0,-1 0,-1 z m 79,23 c -0.96,2.61 -1.11,3.11 1,5 0,0 -1,-5 -1,-5 z m -3,5 c 0,0 -2,0 -2,0 0,0 -1,5 -1,5 0,0 3,-5 3,-5 z m -12,1 c 0,0 -2,6 -2,6 0,0 5,-4 5,-4 0,0 -3,-2 -3,-2 z m 10,5 c -1.81,0.63 -4.03,1.24 -5.34,2.74 -2.01,2.3 -0.34,3.78 2.34,3.26 0,0 3,-6 3,-6 z m 3,2 c 0,0 0,4 0,4 0,0 5,-1 5,-1 0,0 -5,-3 -5,-3 z m -13,1 c 0,0 -3,0 -3,0 0,0 0,5 0,5 0,0 2,0 2,0 0,0 1,-5 1,-5 z m 20,2 c 0,0 0,9 0,9 0,0 2,0 2,0 0,0 -2,-9 -2,-9 z m -49,3 c 0,0 -1,0 -1,0 0,0 1,1 1,1 0,0 0,-1 0,-1 z m 32,9 c 1.4,-0.49 2.49,-0.67 3.68,-1.72 4.32,-3.78 -0.63,-8.82 -3.84,-5.66 -1.17,1.15 -1.43,2.87 -1.84,4.38 0,0 2,3 2,3 z m -4,-8 c 0,0 -1,0 -1,0 0,0 1,1 1,1 0,0 0,-1 0,-1 z m 27,0 c 0,0 -2,0 -2,0 0,0 0,4 0,4 0,0 2,-4 2,-4 z m -44,1 c 0,0 -2,0 -2,0 0,0 -2,5 -2,5 3.53,-0.61 3.66,-0.67 5,-4 0,0 -2,1 -2,1 0,0 1,-2 1,-2 z m 47,2 c 0,0 -2,1 -2,1 0,0 0,1 0,1 0,0 2,1 2,1 0,0 1,-2 1,-2 0,0 -1,-1 -1,-1 z m -48,5 c -3.04,-1.65 -4.58,-3.1 -7,0 0,0 3,3 3,3 0,0 4,-3 4,-3 z m 52,-3 c 0,0 -2,4 -2,4 0,0 2,-4 2,-4 z m -66,55 c -6.34,1.09 -7.98,6.66 -3,10 0,0 3,-10 3,-10 z m 4,0 c 0,0 -2,0 -2,0 -0.98,3.79 -1.15,4.66 1,8 0,0 1,-8 1,-8 z m -2,8 c -4.11,4.57 -3.12,10.97 3,13 0,0 -3,-13 -3,-13 z m 76,0 c 0,0 -3,7 -3,7 5.12,-0.89 4.78,-2.64 3,-7 z"
     style="fill:#000000;stroke:none" />
</svg>
