<?xml version="1.0" encoding="UTF-8" standalone="no"?>
<svg
   xmlns:dc="http://purl.org/dc/elements/1.1/"
   xmlns:cc="http://creativecommons.org/ns#"
   xmlns:rdf="http://www.w3.org/1999/02/22-rdf-syntax-ns#"
   xmlns:svg="http://www.w3.org/2000/svg"
   xmlns="http://www.w3.org/2000/svg"
   xmlns:sodipodi="http://sodipodi.sourceforge.net/DTD/sodipodi-0.dtd"
   xmlns:inkscape="http://www.inkscape.org/namespaces/inkscape"
   width="100mm"
   height="100mm"
   viewBox="0 0 566.90006 566.8999"
   version="1.1"
   id="svg338"
   sodipodi:docname="licorne.svg"
   inkscape:version="1.0.1 (3bc2e813f5, 2020-09-07)">
  <metadata
     id="metadata344">
    <rdf:RDF>
      <cc:Work
         rdf:about="">
        <dc:format>image/svg+xml</dc:format>
        <dc:type
           rdf:resource="http://purl.org/dc/dcmitype/StillImage" />
        <dc:title></dc:title>
      </cc:Work>
    </rdf:RDF>
  </metadata>
  <defs
     id="defs342" />
  <sodipodi:namedview
     pagecolor="#ffffff"
     bordercolor="#666666"
     borderopacity="1"
     objecttolerance="10"
     gridtolerance="10"
     guidetolerance="10"
     inkscape:pageopacity="0"
     inkscape:pageshadow="2"
     inkscape:window-width="3840"
     inkscape:window-height="2066"
     id="namedview340"
     showgrid="false"
     inkscape:zoom="1.6310818"
     inkscape:cx="937.60418"
     inkscape:cy="432.7853"
     inkscape:window-x="-11"
     inkscape:window-y="-11"
     inkscape:window-maximized="1"
     inkscape:current-layer="svg338"
     inkscape:document-rotation="0" />
  <path
     id="Sélection #7"
     fill="none"
     stroke="#000000"
     stroke-width="1"
     d="m 39.542274,73.56702 c 7.79,2.22 10.83,8.28 18,11.87 8.53,4.25997 14.67,4.79997 18,6.23997 0,0 10.28,5.93 10.28,5.93 0,0 6.27,1.96 6.27,1.96 0,0 2.9,2.46 2.9,2.46 -2.71,-1.96 13.969996,8.09 10.559996,6.41 2.87,1.41 4.68,0.59 6.9,1.52 2.77,1.15 4.3,4.06 7.13,5.4 2.97,1.41 4.85,0.14 7.96,1.23 3.1,1.08 5.39,4.17 8.91,2.25 2.56001,-1.4 6.49001,-7.45 7.32001,-10.27 0,0 0.9,-6 0.9,-6 0.84,-3.07 7.27,-13.46 9.63,-15.41997 6.21,-5.16 7.22,4.71997 7.24,8.41997 0,0 0,7 0,7 3.3,-2.1 5.95,-3.87 8.37,-7.04 4.91,-6.43 6.79,-15.23997 15.63,-15.95997 0,0 -1,7 -1,7 8.44,-2.69 13.78,-10.65 23,-7 0,0 -12,8 -12,8 5.45,1.19 6.29,-0.39 11,-3 -2.35,7.06997 -4.86,8.39997 -12,8.99997 1.01,1.67 1.74,3.15 3.33,4.55 3.78,2.84 13.33,4.22 17.02,0 3.45,-3.68 1.66,-7.57 5.65,-12.54997 0.1,3.26 0.55,9.53997 5.09,9.56997 1.45,0.01 4.22,-1.58 5.91,-2.07 0,0 6,-1.13 6,-1.13 3.9,-1.14 6.74,-3.55997 11,-4.15997 8.45,-1.18 10.34,3.70997 17,4.86997 0,0 13,0 13,0 8.15,0.12 20.15,3.09 26,8.92 -6.27,-2.09 -16.47,-5.27 -23,-5.27 0,0 -15,2.19 -15,2.19 -7.38,-0.1 -10.21,-5.1 -15,-5.54 -4.43,-0.4 -7.38,3.48 -11,5.31 -3.38,1.71 -5.55,1.03 -9,2.76 -3.31,1.66 -6.38,4.95 -9,7.55 10.15,-1.08 13.53,-7.06 20,-8.58 6.91,-1.62 12.72,3.62 17,4.07 3.83,0.39 6.34,-2.3 12,-1.1 12.59,2.66 10.41,17.08 21,17.1 2.71,0 5.57,-1.41 8,-2.49 -3.07,5.18 -7.46,4.38 -13,7 7.37,3.45 13.16,9.27 21,11.63 7.35,2.21 17.25,-2.61 23.78,2.26 2.58,1.93 6.33,11.51 8.22,15.11 -8.07,-3.24 -6.95,-7.83 -13,-10.58 -3.77,-2.1 -6.33,-0.56 -10,0 -8.02,1.99 -9.18,-1.26 -15,6.58 2.19,0.57 4.79,1.54 7,1.52 0,0 6,0 6,0 10.57,-0.17 19.27,2.04 22,13.48 0,0 -12,-7.83 -12,-7.83 0,0 -21,0.83 -21,0.83 6.48,4.89 8.44,3.72 11.54,5.9 3.26,2.3 5.93,8.02 10.5,11.63 6.56,5.2 9.13,3.53 15.96,5.47 -6.9,4.91 -13.86,1.83 -21,-1 0,0 4.56,10.3 4.56,10.3 0,0 12.44,7.7 12.44,7.7 0,0 -9,0 -9,0 12.63,4.06 14.15,-2.98 27,-6 -6.21,8.6 -18.17,18.6 -29,12.47 -6.52,-3.7 -10.36,-10.26 -15,-11.56 -3.76,-1.06 -12.5,2.39 -17,3.09 2.88,3.3 6.56,6.03 11,6.78 5.19,0.87 12.88,-0.92 17.61,2.94 6.7,5.47 4.13,11.2 4.87,16.28 0.3,2.11 1.67,4.98 2.52,7 -3.14,-0.93 -5.87,-1.8 -7.26,-5.1 -1.91,-4.54 1.41,-8.44 -3.88,-12.17 -5.16,-3.64 -11.45,0.21 -14.86,0.72 -3.01,0.46 -6.94,-0.83 -10,-1.45 0,0 4.68,12.99 4.68,12.99 0,0 5.86,8.1 5.86,8.1 7.21,10.88 9.95,16.67 21.46,24.87 7.83,5.58 10.04,4.91 18,8.8 5,2.43 20.96,8.86 26,10.05 2.6,0.33 6.28,0.18 9,0 10.04,0.24 22.03,1.5 31,6.17 0,0 19,12.75 19,12.75 0,0 13,7.86 13,7.86 0,0 10,7.87 10,7.87 3.09,2.22 6,3.14 8.83,5.76 0,0 5.26,5.78 5.26,5.78 0,0 16.91,16.82 16.91,16.82 0,0 16,11.5 16,11.5 5.7,4.76 9.11,9.56 14.04,14.68 5.16,5.36 12.99,12.45 16.55,19 0,0 5.79,15.96 5.79,15.96 0,0 4.72,21.04 4.72,21.04 0.86,4.87 -0.16,6.26 2.25,12 4.04,9.64 18.28,20.44 15.27,36 -2.87,14.83 -13.16,22.14 -22.16,33 -6.56,7.93 -11.36,13.75 -20.46,19.18 -4,2.39 -7.35,4.52 -12,2.82 4.01,-1.53 5.4,-2.25 9,-4.67 4.22,-2.85 6.99,-5.52 8.78,-10.32 0.77,-1.39 1.7,-3.75 0,-4.6 -2.41,-0.98 -8.6,2.64 -10.78,3.64 -9.42,4.3 -21.9,8.96 -16,21.95 -9.21,-3.19 -2.52,-15.15 0,-21 -12.94,1.99 -10.97,4.51 -14,11 0.12,-12.48 6.57,-13.84 16,-20 -3.6,-1.51 -4.1,-1.53 -6,-5 0,0 -11,14 -11,14 0.77,-13.79 11.91,-24.5 22,-32.51 4.37,-3.47 4.74,-4.67 10,-7.49 -1.9,-1.12 -4.82,-3.04 -7,-3.29 -7.11,-0.83 -11.59,9.18 -17,12.29 2.89,-6.05 3.82,-6.07 4,-13 -3.31,2.65 -6.92,5.08 -9.91,8.09 -3.01,3.04 -4.33,5.44 -6.68,8.82 0,0 -5.29,7.13 -5.29,7.13 -2.77,5.1 -5.96,18.66 -6.12,24.68 0,0 2,9.28 2,9.28 0,0 -4,0 -4,0 -1.22,5.28 -2.14,4.58 0,10 -6.24,3.9 -3.26,5.34 -7,11 0.11,-3.84 -2.69,-10.56 -7.54,-8.21 -3.9,1.9 -6.15,17.42 -8.19,19.9 -1.95,2.36 -5.43,2.75 -8.27,3.31 -8.58,1.69 -16.43,1.13 -25,0 0.73,-2.55 8.09,-18.1 9.51,-19.79 2.47,-2.94 6.73,-4.27 10.23,-7.68 0,0 13.55,-16.53 13.55,-16.53 1.64,-2.21 8.35,-13.66 9.06,-16 1.25,-4.12 -0.13,-5.05 2.44,-10 1.34,-2.59 2.59,-4.05 3.6,-7 1.43,-4.14 1.21,-7.02 1.81,-11 0,0 1.55,-7 1.55,-7 0.39,-4.09 -1.67,-12.61 -4.4,-15.73 -2.48,-2.84 -4.65,-2.35 -9.35,-6.4 0,0 -13,-11.04 -13,-11.04 -5.33,-4.76 -8.95,-8.63 -15,-12.83 -0.77,8.56 -3.84,16.81 -6.17,25 -0.97,3.43 0.11,5.47 -1.52,7.57 -1.58,2.05 -12.61,4.57 -16.31,6.32 -4.99,2.36 -22.26,15.09 -25.89,19.12 -7.64,8.49 1.16,11.11 -5.11,19.99 0,0 -3,-8 -3,-8 0,0 -2,17 -2,17 0,0 -4,-2 -4,-2 0,0 0,8 0,8 -3.89,-1.73 -10.46,-4.59 -11.59,2.02 -0.92,5.35 4.15,7.6 5.28,12.02 1.54,6.07 -3.42,23.26 -7.33,27.67 -1.28,1.43 -1.81,1.47 -3.36,2.29 0,0 -9.63,-17 -9.63,-17 -3.09,-4.29 -6.39,-5.54 -7.68,-11.01 -2.19,-9.24 2.9,-14.1 5.5,-20.99 2.3,-6.11 2.29,-14.56 6.46,-19.82 0,0 8.07,-7.27 8.07,-7.27 0,0 22.89,-26.91 22.89,-26.91 3.29,-4.04 9.23,-9.34 10.74,-14 4.05,-12.46 -3.08,-24.31 -8.75,-35 -1.52,-2.88 -3.22,-4.83 -4.34,-8 -1.41,-3.96 -1.26,-7.88 -1.26,-12 0,0 -18,-1.46 -18,-1.46 0,0 -25,-7.64 -25,-7.64 0,0 -8,-2 -8,-2 0,0 -14,-6.94 -14,-6.94 0,0 -12,-2.95 -12,-2.95 0,0 -17,-11.9 -17,-11.9 -5.28,-2.98 -7.5,-1.68 -13,-2.4 -2.81,-0.36 -8.59,-1.86 -11,-1.64 -5.66,0.5 -5.78,5.48 -12.02,9.51 -4.85,3.13 -8.65,1.48 -13.98,1.42 -9.83,-0.11 -9.28,1.06 -17,2.08 0,0 -10,0 -10,0 0,0 -7,2.16 -7,2.16 -3.96,0.97 -6.14,0.27 -9,1.5 -4.12,1.77 -9.63,7.54 -9.72,12.26 -0.05,2.85 2.66,7.34 3.94,10 1.24,2.57 2.54,5.75 4.33,7.94 3.83,4.68 6.05,2.69 10.45,5.06 0,0 -4,1 -4,1 0,0 9,6 9,6 4.61,-1.64 5.42,-1.91 10,0 0,0 -1.97,4.98 -1.97,4.98 -1.32,6.28 5.58,4.28 9.97,9.17 8.05,8.95 12.5,16.86 8,28.85 0,0 -17,-7.9 -17,-7.9 -3.97,-1.33 -8.71,-1.04 -11.9,-3.03 -2.75,-1.73 -4.02,-4.61 -6.31,-6.81 -2.58,-2.49 -5.81,-3.69 -8.09,-6.56 0,0 -6.02,-12.7 -6.02,-12.7 0,0 -11.91,-20 -11.91,-20 0,0 -10.04,-16 -10.04,-16 -2.03001,-5.89 4.52,-20.53 8.9,-24.26 2.24,-1.91 5.58,-1.73 8.37,-2.44 0,0 11,-4.3 11,-4.3 -4.54,-5.67 -6.3,-4.72 -11.99,-7.95 -1.52,-0.86 -3.66,-2.65 -5.43,-2.56 -1.73,0.1 -4.13,2.1 -5.58,3.04 -4.69,3.01 -8.71001,3.82 -12.36001,8.56 -1.81,2.34 -8.07,16.55 -8.33,19.33 0,0 0.69,8.58 0.69,8.58 0,0 -4,-2 -4,-2 -1.73,9.18 4.39,10.08 0,17 0,0 0,-1 0,-1 0,0 -2,-2 -2,-2 0,0 -1,7 -1,7 0,0 -7,-6 -7,-6 1.22,7.53 4.4,6.67 6.31,12 1.47,3.64 0.97,17.16 0,21 -0.87,2.82 -2.85,9.16 -6.41,9.26 -2.88,0.07 -5.47,-3.2 -7.05,-5.26 -4.669996,-6.1 -6.319996,-14.64 -7.789996,-22 -0.77,-3.88 -3.07,-7.57 -2.8,-11 0.56,-7.01 13.279996,-22.22 16.509996,-31 0,0 3.74,-10.96 3.74,-10.96 0,0 1.43,-6.21 1.43,-6.21 0,0 4,-8.83 4,-8.83 1.26,-3.29 2.42,-8.23 4.57,-10.87 2.38,-2.94 16.74001,-11.51 20.49001,-11.97 4.36,-0.53 7.69,1.5 11.58,1.92 0,0 23.42,-1.08 23.42,-1.08 -3.51,-6.84 -9.45,-16.53 -9.91,-24 0,0 0.57,-9 0.57,-9 0,0 -0.68,-8 -0.68,-8 -0.34,-4.93 -2.08,-11.33 -1.02,-16 0.69,-3.01 5.86,-16.03 7.44,-19 1.36,-2.56 4.95,-8.52 5.42,-11 1.12,-5.8 -4.18,-8.63 -8.82,-10 0,0 4,6 4,6 0,0 -6,0 -6,0 -0.17,7.58 -1.37,11.86 -6.08,18 0,0 0,-8 0,-8 -0.89,-3.21 -8.94,-12.33 -11.92,-14 -0.82,3.84 -7.22,13.71 -11.1,14.67 -4.34001,1.08 -13.46001,-3.51 -16.47001,-6.42 -3.87,-3.76 0.12,-5.32 -4.43,-10.25 0,0 5.09,-33 5.09,-33 0,0 0,-11.89 0,-11.89 0,0 -6.09,-5.11 -6.09,-5.11 1.47,-5.97 0.93,-8.19 4.17,-14 1.58,-2.83 5.69,-7.72 5.01,-10.96 -0.67,-3.17 -4.6,-4.93 -7.18,-6.29 0,0 -20,-11.01 -20,-11.01 0,0 -11.999996,-7.68 -11.999996,-7.68 0,0 -13,-7.65 -13,-7.65 0,0 -16,-12.28 -16,-12.28 -6.86,-5.14997 -16.36,-12.31997 -20,-20.12997 z M 189.54228,96.56699 c -4.39,-0.75 -5.57,-0.3 -7,4 4.14,-0.34 4.91,-0.29 7,-4 z m 87,20.93 c -0.56,-1.31 -0.84,-2.43 -1.87,-3.61 -4.3,-4.93 -8.86,2.39 -2.07,3.61 0,0 3.94,0 3.94,0 z m -18,0.07 c -4.1,-7.67 -13.15,-5.12 -14.83,-0.9 -1.18,2.98 1.48,5.97 5.83,5.12 2.44,-0.47 6.29,-3.03 9,-4.22 z m 21,-2 c -1.16,4.08 0.55,5.23 4,7 0,0 -4,-7 -4,-7 z m -13,5 c 0.07,4.26 5.8,3.93 9,4 -1.71,-4.86 -3.4,-3.35 -9,-4 z m 34,26 c 1.53,-9.42 -8.64,-11.66 -16,-12 3.08,6.48 9.69,9.24 16,12 z m 0,12 c -4.89,-9.87 -6.76,-7.59 -13.79,-12.07 -2.16,-1.37 -2.97,-2.93 -5.42,-3.92 -4.26,-1.73 -8.16,-1.67 -9.79,2.99 0,0 21,12.35 21,12.35 0,0 8,0.65 8,0.65 z m 10,24 c -1.99,-5.72 -5.04,-8.09 -11,-9 2.84,6.23 4.84,6.91 11,9 z m -134,-5 c 0,0 -2.64,6.96 -2.64,6.96 -3.03,6.59 -5.43,3.85 -2.93,13.04 0.67,2.48 1.57,7.08 5.3,6.04 2.41,-0.68 2.28,-4.07 2.23,-6.04 0,0 -1.96,-20 -1.96,-20 z m -8,17 c 0,0 -2,0 -2,0 0,0 -1,1 -1,1 0,0 5,5 5,5 0,0 -2,-6 -2,-6 z m 10,19 c 0.41,-5.61 -2,-6.69 -7,-8 1.43,4.83 2.65,5.64 7,8 z m 291,138 c 0,0 1.54,33 1.54,33 0,0 -6.36,24 -6.36,24 0,0 12.51,22 12.51,22 0,0 9.21,16 9.21,16 0,0 5.31,5.14 5.31,5.14 0,0 3.79,0 3.79,0 0,0 -6.36,-7.18 -6.36,-7.18 0,0 -5.64,-8.96 -5.64,-8.96 0,0 13,0 13,0 0,0 3,-7 3,-7 0.22,8.52 1.43,6.83 6.92,12.13 6.61,6.39 8.21,10.54 19.08,9.77 3.41,-0.24 7.24,-1.36 9.48,-4.12 1.73,-2.13 2.62,-5.45 -0.72,-6.63 -1.06,-0.18 -3.58,-0.14 -4.76,0 0,0 -1,-4.15 -1,-4.15 5.43,-3.41 5.25,-11.69 1,-16 0,0 -3,6 -3,6 1.14,-5.74 2.71,-20.74 0.89,-26 -2.23,-6.44 -8.09,-12.31 -12.89,-16.99 -8.89,-8.67 -33.54,-25.21 -45,-31.01 z m 66,79 c 0,0 -2,0 -2,0 0,0 0,6 0,6 0,0 2,-6 2,-6 z m -31,19 c -2.49,-6.35 -6.6,-11.67 -14,-10 3,6.25 7.06,9.22 14,10 z m 24,21 c 0,0 -4,5 -4,5 0,0 5,-2 5,-2 0,0 -1,-3 -1,-3 z m -26,15 c -5.58,1.52 -9.19,3.81 -9,10 6.42,-1.92 7.01,-3.88 9,-10 z m 19,3 c 0,0 -4,2 -4,2 0,0 4,-2 4,-2 z m -3,6 c -6.98,2.18 -11.72,-1.09 -14,8 6.73,-0.17 10.85,-1.67 14,-8 z m 11,4 c 0,0 -2,0 -2,0 0,0 -1,2 -1,2 0,0 1,1 1,1 0,0 2,-3 2,-3 z"
     style="fill:#000000;stroke:none" />
</svg>
