<?xml version="1.0" encoding="UTF-8" standalone="no"?>
<svg
   xmlns:dc="http://purl.org/dc/elements/1.1/"
   xmlns:cc="http://creativecommons.org/ns#"
   xmlns:rdf="http://www.w3.org/1999/02/22-rdf-syntax-ns#"
   xmlns:svg="http://www.w3.org/2000/svg"
   xmlns="http://www.w3.org/2000/svg"
   xmlns:sodipodi="http://sodipodi.sourceforge.net/DTD/sodipodi-0.dtd"
   xmlns:inkscape="http://www.inkscape.org/namespaces/inkscape"
   width="100mm"
   height="100mm"
   viewBox="0 0 566.90007 566.89994"
   version="1.1"
   id="svg364"
   sodipodi:docname="lycan.svg"
   inkscape:version="1.0.1 (3bc2e813f5, 2020-09-07)">
  <metadata
     id="metadata370">
    <rdf:RDF>
      <cc:Work
         rdf:about="">
        <dc:format>image/svg+xml</dc:format>
        <dc:type
           rdf:resource="http://purl.org/dc/dcmitype/StillImage" />
        <dc:title></dc:title>
      </cc:Work>
    </rdf:RDF>
  </metadata>
  <defs
     id="defs368" />
  <sodipodi:namedview
     pagecolor="#ffffff"
     bordercolor="#666666"
     borderopacity="1"
     objecttolerance="10"
     gridtolerance="10"
     guidetolerance="10"
     inkscape:pageopacity="0"
     inkscape:pageshadow="2"
     inkscape:window-width="3840"
     inkscape:window-height="2066"
     id="namedview366"
     showgrid="false"
     inkscape:zoom="3.2621636"
     inkscape:cx="427.56895"
     inkscape:cy="264.36993"
     inkscape:window-x="-11"
     inkscape:window-y="-11"
     inkscape:window-maximized="1"
     inkscape:current-layer="svg364"
     inkscape:document-rotation="0" />
  <path
     id="lycan"
     fill="none"
     stroke="#000000"
     stroke-width="1.4"
     d="m 342.23317,270.51619 c 0,0 18.438,3.038 18.438,3.038 0,0 1.162,-1.638 1.162,-1.638 0,0 21,11.2 21,11.2 0,0 0,-8.4 0,-8.4 0,0 12.6,7 12.6,7 0,0 -1.4,-5.6 -1.4,-5.6 0,0 14,9.8 14,9.8 0,0 -1.4,-5.6 -1.4,-5.6 16.73,3.36 18.438,13.426 33.6,9.8 0,0 4.2,5.6 4.2,5.6 0,0 -1.4,-5.6 -1.4,-5.6 9.436,-0.112 7.658,4.2 13.286,8.792 2.996,2.45 8.162,3.094 11.914,3.808 0,0 2.8,-16.8 2.8,-16.8 10.332,5.39 8.904,14.378 15.946,22.218 5.096,5.656 10.43,5.166 15.68,10.654 1.638,1.708 8.75,13.888 9.576,16.128 1.596,4.34 0.574,7.112 5.488,15.4 5.418,9.128 10.304,8.96 13.51,19.6 0,0 -12.502,8.75 -12.502,8.75 0,0 -9.898,0 -9.898,0 0,0 1.4,-4.55 1.4,-4.55 0,0 -5.6,-2.8 -5.6,-2.8 0,0 -4.2,1.4 -4.2,1.4 -2.912,-4.998 -4.368,-5.376 -9.8,-7 5.306,11.494 6.104,7.196 13.944,13.188 0,0 9.856,9.212 9.856,9.212 0,0 -11.2,-1.4 -11.2,-1.4 0,0 1.4,7 1.4,7 0,0 -1.4,1.4 -1.4,1.4 -12.53,-4.522 -9.646,-12.376 -21,-8.4 -3.136,-5.012 -4.41,-4.466 -9.8,-2.8 -3.318,-3.556 -5.068,-1.134 -8.4,1.4 0,0 1.4,-7 1.4,-7 0,0 -5.6,8.4 -5.6,8.4 -4.62,-1.666 -8.834,-0.028 -12.6,2.8 0,0 -8.4,2.8 -8.4,2.8 0,0 2.8,-5.6 2.8,-5.6 0,0 -7,4.2 -7,4.2 0,0 -4.2,-2.8 -4.2,-2.8 -4.452,5.936 -8.078,4.508 -14,1.4 0,0 -11.2,11.2 -11.2,11.2 4.522,2.688 27.622,23.114 31.906,27.412 0,0 7.588,8.148 7.588,8.148 0,0 12.306,7.952 12.306,7.952 5.138,2.982 17.276,7.112 15.456,15.134 -1.652,7.266 -9.674,2.814 -18.256,2.954 0,0 0,-4.2 0,-4.2 0,0 -23.8,-8.4 -23.8,-8.4 0,0 0,-5.6 0,-5.6 0,0 -4.2,-2.8 -4.2,-2.8 0,0 -5.6,2.8 -5.6,2.8 0,0 -4.2,-9.8 -4.2,-9.8 0,0 -21,-5.6 -21,-5.6 0,0 0,7 0,7 0,0 -1.4,-9.8 -1.4,-9.8 0,0 -2.8,0 -2.8,0 0,0 -1.4,7 -1.4,7 -2.436,-10.416 0.196,-10.192 -7,-19.6 0.322,10.178 5.278,20.412 9.758,29.4 6.916,13.846 6.09,18.018 20.65,28.602 8.512,6.202 15.302,0.322 22.792,11.998 -7.56,3.486 -16.884,5.922 -25.2,3.486 -7.182,-2.1 -6.51,-5.698 -15.4,-4.886 0,0 -7,-7 -7,-7 0,0 0,-1.4 0,-1.4 0,0 2.8,-2.8 2.8,-2.8 -8.848,-0.728 -14.532,-6.272 -12.6,-15.4 0,0 -4.2,-1.4 -4.2,-1.4 0,0 1.4,-4.2 1.4,-4.2 0,0 -9.8,-5.6 -9.8,-5.6 0,0 1.4,-4.2 1.4,-4.2 0,0 -7,1.4 -7,1.4 0,0 1.4,-4.2 1.4,-4.2 0,0 -9.8,2.8 -9.8,2.8 0,0 0,-12.6 0,-12.6 0,0 -5.6,-1.4 -5.6,-1.4 0,0 5.6,-4.2 5.6,-4.2 0,0 -8.4,-1.4 -8.4,-1.4 6.846,-2.184 7.28,-4.508 5.6,-10.85 -6.146,7.854 -16.758,1.428 -25.2,0 -4.326,-0.21 -10.066,-0.028 -13.622,-2.786 -2.604,-2.03 -3.374,-4.466 -4.578,-7.364 0,0 -7,1.4 -7,1.4 0,0 1.4,-9.8 1.4,-9.8 0,0 -11.2,1.4 -11.2,1.4 0,0 -7,-12.6 -7,-12.6 0,0 -4.2,1.4 -4.2,1.4 0,0 -7,-9.8 -7,-9.8 0,0 4.2,-4.2 4.2,-4.2 -15.358,4.746 -10.85,11.676 -22.4,7 0,0 -2.8,4.2 -2.8,4.2 0,0 -5.6,-5.6 -5.6,-5.6 0,0 -8.4,2.8 -8.4,2.8 0,0 -1.4,-5.6 -1.4,-5.6 0,0 -14,5.6 -14,5.6 0,0 0,-2.8 0,-2.8 -12.642,7.392 -11.2,11.746 -22.4,18.732 0,0 -25.2,12.614 -25.2,12.614 0,0 -9.8,3.556 -9.8,3.556 0,0 -35,26.516 -35,26.516 -10.976,9.282 -16.912,8.344 -23.66,22.582 -0.98,2.058 -2.24,4.634 -2.366,6.944 -0.476,9.478 11.508,11.088 16.226,22.456 -3.934,1.12 -17.346,3.038 -20.916002,1.708 -4.746,-1.75 -5.138,-5.684 -7.014,-8.302 -4.004,-5.586 -6.594,-1.876 -9.87,-15.806 0,0 11.2,-11.2 11.2,-11.2 0,0 -1.4,-5.6 -1.4,-5.6 0,0 1.4,-2.8 1.4,-2.8 8.232,-5.194 4.704,-7.168 7.924,-14.112 1.708002,-3.682 4.242002,-4.858 5.516002,-7.602 1.19,-2.548 0.728,-7.322 2.856,-11.592 2.338,-4.662 4.088,-3.696 6.104,-10.094 0,0 -15.400002,2.898 -15.400002,2.898 0,0 -25.2,15.568 -25.2,15.568 0,0 -12.599999,6.496 -12.599999,6.496 -8.022,4.312 -8.47,8.302 -18.200001,10.192 -10.584,2.058 -16.086,6.02 -19.6,6.314 -3.5,0.294 -7.252,-1.232 -7.49,-5.194 -0.56,-9.814 14.378,-13.762 16.898,-15.288 2.352,-1.428 4.13,-3.612 5.992,-5.586 0,0 5.6,1.652 5.6,1.652 0,0 21.000001,-11.452 21.000001,-11.452 0,0 -1.4,-2.8 -1.4,-2.8 0,0 9.141999,-11.956 9.141999,-11.956 0,0 14.658,-14.644 14.658,-14.644 0,0 -19.599999,-2.8 -19.599999,-2.8 0,0 1.399999,-4.2 1.399999,-4.2 0,0 -4.199999,1.4 -4.199999,1.4 0,0 0,-5.6 0,-5.6 0,0 -4.2,2.8 -4.2,2.8 0,0 -4.2,-1.4 -4.2,-1.4 0,0 0,-7 0,-7 0,0 9.8,-2.8 9.8,-2.8 0,0 -11.2,1.4 -11.2,1.4 0,0 1.4,-2.8 1.4,-2.8 0,0 -16.800001,1.4 -16.800001,1.4 0,0 2.8,-5.6 2.8,-5.6 0,0 -5.6,-2.8 -5.6,-2.8 0,0 7,-1.4 7,-1.4 0,0 -5.6,-2.8 -5.6,-2.8 8.778,-2.506 30.016,-2.408 39.2,-0.756 0,0 14,3.276 14,3.276 4.97,0.476 9.408002,-0.868 14.000002,-2.604 15.134,-5.74 15.456,-8.568 23.324,-20.916 2.45,-3.864 13.412,-17.514 16.702,-20.328 2.688,-2.296 6.006,-3.57 8.974,-5.432 9.142,-5.726 18.718,-11.368 29.4,-13.692 0,0 11.2,-1.876 11.2,-1.876 0,0 11.144,-3.738 11.144,-3.738 0,0 25.256,-2.282 25.256,-2.282 0,0 19.6,3.542 19.6,3.542 0,0 16.8,1.54 16.8,1.54 5.712,1.134 15.456,4.13 21,4.046 0,0 22.4,-3.78 22.4,-3.78 0,0 -2.8,-4.2 -2.8,-4.2 0,0 15.4,2.8 15.4,2.8 0,0 -2.8,-8.4 -2.8,-8.4 0,0 15.4,5.6 15.4,5.6 0,0 0,-2.8 0,-2.8 0,0 7,1.4 7,1.4 0,0 -1.4,-5.6 -1.4,-5.6 z m -278.600001,81.2 c 0,0 -5.6,4.2 -5.6,4.2 0,0 7,0 7,0 0,0 -1.4,-4.2 -1.4,-4.2 z m -1.4,12.6 c 0,0 -1.4,0 -1.4,0 0,0 1.4,1.4 1.4,1.4 0,0 0,-1.4 0,-1.4 z m 393.400001,16.8 c 0,0 -4.2,4.2 -4.2,4.2 0,0 4.2,-4.2 4.2,-4.2 z m 8.4,78.4 c 0,0 -1.4,0 -1.4,0 0,0 1.4,1.4 1.4,1.4 0,0 0,-1.4 0,-1.4 z"
     style="fill:#000000;stroke:none" />
</svg>
