<?xml version="1.0" encoding="UTF-8" standalone="no"?>
<svg
   xmlns:dc="http://purl.org/dc/elements/1.1/"
   xmlns:cc="http://creativecommons.org/ns#"
   xmlns:rdf="http://www.w3.org/1999/02/22-rdf-syntax-ns#"
   xmlns:svg="http://www.w3.org/2000/svg"
   xmlns="http://www.w3.org/2000/svg"
   xmlns:sodipodi="http://sodipodi.sourceforge.net/DTD/sodipodi-0.dtd"
   xmlns:inkscape="http://www.inkscape.org/namespaces/inkscape"
   width="100mm"
   height="100mm"
   viewBox="0 0 566.90005 566.89991"
   version="1.1"
   id="svg390"
   sodipodi:docname="mariol.svg"
   inkscape:version="1.0.1 (3bc2e813f5, 2020-09-07)">
  <metadata
     id="metadata396">
    <rdf:RDF>
      <cc:Work
         rdf:about="">
        <dc:format>image/svg+xml</dc:format>
        <dc:type
           rdf:resource="http://purl.org/dc/dcmitype/StillImage" />
        <dc:title></dc:title>
      </cc:Work>
    </rdf:RDF>
  </metadata>
  <defs
     id="defs394" />
  <sodipodi:namedview
     pagecolor="#ffffff"
     bordercolor="#666666"
     borderopacity="1"
     objecttolerance="10"
     gridtolerance="10"
     guidetolerance="10"
     inkscape:pageopacity="0"
     inkscape:pageshadow="2"
     inkscape:window-width="3840"
     inkscape:window-height="2066"
     id="namedview392"
     showgrid="false"
     inkscape:zoom="1.6310818"
     inkscape:cx="585.82731"
     inkscape:cy="204.65094"
     inkscape:window-x="-11"
     inkscape:window-y="-11"
     inkscape:window-maximized="1"
     inkscape:current-layer="svg390"
     inkscape:document-rotation="0" />
  <path
     id="Sélection #1"
     fill="none"
     stroke="#000000"
     stroke-width="1.7"
     d="m 106.7393,233.56474 c -5.78,3.383 -7.055003,7.174 -9.299003,8.228 -5.508,2.584 -6.885,-4.25 -6.137,-8.228 1.139,-6.171 5.593,-11.373 10.625003,-14.841 7.242,-4.998 21.709,-7.293 30.311,-5.95 0,0 17,5.219 17,5.219 5.542,1.819 11.985,3.893 16.779,7.259 0,0 24.582,23.902 24.582,23.902 8.211,9.486 8.296,17.544 17.867,23.511 0,0 0,20.4 0,20.4 0,0 -3.111,30.6 -3.111,30.6 0,0 -15.521,27.2 -15.521,27.2 0,0 -11.22,17.714 -11.22,17.714 0,0 -4.573,10.897 -4.573,10.897 0,0 -6.103,10.489 -6.103,10.489 0,0 1.7,1.7 1.7,1.7 18.411,-6.035 9.962,-12.087 15.283,-21.386 0,0 12.835,-16.507 12.835,-16.507 0,0 6.596,-6.528 6.596,-6.528 4.165,-5.627 1.513,-7.242 12.376,-18.071 0,0 33.252,-24.769 33.252,-24.769 0,0 21.369,-10.013 21.369,-10.013 0,0 15.589,-9.061 15.589,-9.061 12.869,-5.253 37.451,-9.469 45.9,-19.465 0,0 -5.1,0 -5.1,0 0.238,-19.023 -9.758,-12.478 -17,-10.625 0,0 -15.3,3.825 -15.3,3.825 1.343,-4.658 3.604,-9.299 7.582,-12.376 3.723,-2.873 6.817,-2.516 11.118,-3.247 10.421,-1.768 20.434,-5.083 30.532,1.581 7.038,4.641 10.149,14.416 17.102,16.184 4.573,1.156 10.829,-3.57 15.266,-5.542 7.259,17.221 4.012,9.69 5.678,25.5 0,0 3.366,18.7 3.366,18.7 0,0 5.763,23.8 5.763,23.8 0.918,6.987 1.989,15.062 -6.392,17.306 -1.87,0.374 -4.522,0.663 -6.392,0 -6.97,-2.057 -6.018,-10.523 -15.623,-19.006 0,0 5.1,18.7 5.1,18.7 0,0 -6.8,-5.1 -6.8,-5.1 0,0 3.4,11.9 3.4,11.9 -16.235,3.757 -16.558,-6.341 -22.185,-18.7 -3.723,-8.211 -6.953,-9.282 -5.015,-18.7 -6.647,-1.768 -16.065,-3.91 -21.267,2.227 -4.675,5.491 -0.221,10.71 -1.122,21.573 -0.272,3.264 -1.598,13.566 -2.754,16.286 0,0 -6.494,10.914 -6.494,10.914 -2.533,5.151 -5.168,20.094 -3.281,25.5 5.848,16.711 24.395,24.905 30.651,35.717 2.04,3.536 2.176,4.743 4.964,8.483 6.12,8.194 17.017,15.793 12.903,27.2 0,0 -6.8,-8.5 -6.8,-8.5 0,0 5.1,22.1 5.1,22.1 0,0 -10.2,-17 -10.2,-17 2.159,8.874 3.043,17.34 -1.7,25.5 0,0 -5.1,-27.2 -5.1,-27.2 -0.986,9.741 -0.799,20.264 -10.2,25.5 2.108,-16.235 8.823,-14.96 1.7,-35.7 0,0 -6.8,0 -6.8,0 0,0 -3.332,17.714 -3.332,17.714 -0.629,11.458 1.479,17.935 -8.568,26.486 2.176,-12.206 7.786,-19.346 -3.4,-28.9 0.918,3.519 2.703,8.381 2.686,11.9 -0.017,7.599 -4.709,18.258 -11.186,22.1 3.638,-16.371 9.248,-17.663 1.7,-35.7 -0.544,5.015 -0.221,12.665 -1.802,17 -1.751,4.794 -6.052,8.143 -4.828,13.6 0.816,3.604 7.225,14.892 10.268,17.187 4.42,3.349 14.144,4.862 15.266,11.849 0.527,3.349 -3.587,8.84 -5.304,11.764 0,0 -11.9,-8.5 -11.9,-8.5 -3.06,7.106 -5.933,2.363 -9.707,-1.343 -11.135,-10.965 -6.511,-1.751 -15.793,-19.057 0,0 -3.4,6.8 -3.4,6.8 0,0 -3.315,0 -3.315,0 -1.785,-11.203 2.686,-12.733 0,-17.17 -4.998,-8.585 -18.02,-6.528 -18.785,-18.53 -9.027,-5.763 -15.75899,-10.948 -11.9,-22.1 0,0 -8.49999,0 -8.49999,0 0,0 -3.40001,-5.1 -3.40001,-5.1 0,0 -5.1,-11.9 -5.1,-11.9 0,0 -6.12,16.099 -6.12,16.099 -3.026,4.692 -8.568,6.001 -14.943,12.971 -4.369,4.811 -9.622,13.209 -16.337,14.654 -7.582,1.632 -16.303,-7.973 -23.732,-5.644 -5.933,1.853 -7.854,9.537 -20.468,16.32 0,0 4.879,18.462 4.879,18.462 5.27,8.5 10.914,2.55 12.121,17.238 0,0 -5.1,-1.7 -5.1,-1.7 0,0 -1.7,8.5 -1.7,8.5 0,0 -3.4,0 -3.4,0 0,0 -5.1,-8.5 -5.1,-8.5 -1.054,6.018 -0.986,6.46 -6.8,8.5 0,0 -1.7,-8.5 -1.7,-8.5 0,0 -8.5,3.4 -8.5,3.4 -0.425,-9.248 -3.723,-28.492 -2.04,-37.4 1.292,-6.766 9.707,-19.584 13.974,-25.211 0,0 14.365,-17.952 14.365,-17.952 6.987,-5.27 21.556,1.581 19.601,-14.637 0,0 6.8,-8.5 6.8,-8.5 0,0 -8.5,5.1 -8.5,5.1 0,0 -10.2,1.7 -10.2,1.7 0,0 1.7,-6.8 1.7,-6.8 0,0 -8.5,-1.7 -8.5,-1.7 0,0 -3.519,-15.3 -3.519,-15.3 0,0 3.519,-17 3.519,-17 0,0 -6.8,-1.7 -6.8,-1.7 0,0 6.8,0 6.8,0 0,0 3.4,-3.4 3.4,-3.4 0,0 0,-5.1 0,-5.1 0,0 -5.1,-1.7 -5.1,-1.7 0,0 8.5,-1.7 8.5,-1.7 0,0 -8.5,-5.1 -8.5,-5.1 0,0 5.1,-3.4 5.1,-3.4 0,0 -18.7,3.4 -18.7,3.4 0,0 -3.4,-5.1 -3.4,-5.1 0,0 17,-11.9 17,-11.9 0,0 -5.1,0 -5.1,0 0,0 -3.4,-6.8 -3.4,-6.8 0,0 15.3,-15.3 15.3,-15.3 0,0 -8.5,3.4 -8.5,3.4 0,0 1.7,-5.1 1.7,-5.1 0,0 -6.8,1.7 -6.8,1.7 0,0 3.4,-6.8 3.4,-6.8 0,0 -5.1,1.7 -5.1,1.7 0,0 10.2,-15.3 10.2,-15.3 0,0 6.8,1.7 6.8,1.7 0,0 -1.7,-3.4 -1.7,-3.4 0,0 -1.7,0 -1.7,0 0,0 0,-3.4 0,-3.4 0,0 1.7,0 1.7,0 0,0 1.7,-3.4 1.7,-3.4 0,0 -6.8,3.4 -6.8,3.4 0,0 1.7,-8.5 1.7,-8.5 0,0 -5.1,6.8 -5.1,6.8 0,0 -5.1,-1.7 -5.1,-1.7 0,0 -1.7,5.1 -1.7,5.1 0,0 -8.5,-5.1 -8.5,-5.1 6.307,-18.717 5.95,-11.628 17,-23.8 0,0 -13.6,6.8 -13.6,6.8 0,0 -3.4,-20.4 -3.4,-20.4 0,0 -3.4,3.4 -3.4,3.4 0,0 0,-8.5 0,-8.5 0,0 -3.4,3.4 -3.4,3.4 0,0 -1.7,0 -1.7,0 0,0 1.7,-5.1 1.7,-5.1 0,0 -6.8,1.7 -6.8,1.7 0,0 0,-5.1 0,-5.1 0,0 -5.1,3.4 -5.1,3.4 0,0 0,-11.9 0,-11.9 0,0 -5.1,0 -5.1,0 0,0 1.7,-8.5 1.7,-8.5 z m 1.7,-1.7 c 0,0 -1.7,0 -1.7,0 0,0 1.7,1.7 1.7,1.7 0,0 0,-1.7 0,-1.7 z m 39.1,20.4 c -4.879,0.935 -4.879,0.493 -6.8,5.1 0,0 6.8,-5.1 6.8,-5.1 z m 30.6,8.5 c 0,0 -11.9,3.4 -11.9,3.4 5.423,-0.068 8.126,0.799 11.9,-3.4 z m -3.4,5.1 c -5.967,0.51 -9.622,0.272 -13.6,5.1 0,0 13.6,-5.1 13.6,-5.1 z m 35.7,8.5 c 0,0 1.7,0 1.7,0 0,0 -1.7,1.7 -1.7,1.7 0,0 0,-1.7 0,-1.7 z m -49.3,8.5 c 0,0 -13.6,3.4 -13.6,3.4 0,0 1.7,5.1 1.7,5.1 0,0 11.9,-8.5 11.9,-8.5 z m 15.3,23.8 c -5.542,-1.19 -5.525,-1.564 -10.2,1.7 0,0 10.2,-1.7 10.2,-1.7 z m -5.1,23.8 c 0,0 -6.8,0 -6.8,0 0,0 0,3.4 0,3.4 0,0 6.8,0 6.8,0 0,0 0,-3.4 0,-3.4 z m -11.9,17 c -7.157,-0.68 -8.5,0.102 -13.6,5.1 0,0 11.9,0 11.9,0 0,0 1.7,-5.1 1.7,-5.1 z m 127.5,8.5 c 0,0 -3.4,0 -3.4,0 -5.525,9.588 -12.716,18.972 -11.713,30.6 1.275,15.011 18.258,29.478 26.724,41.293 0,0 10.489,18.207 10.489,18.207 2.584,-4.301 9.129,-13.957 9.01,-18.7 -0.289,-11.067 -22.967,-22.389 -28.441,-32.368 -4.233,-7.684 -2.669,-29.478 -2.669,-39.032 z m -40.8,13.6 c -3.094,2.295 -5.236,3.689 -7.633,6.868 -17.34,23.086 16.405,38.08 26.299,61.132 5.321,12.393 -8.211,24.939 10.234,34 8.262,-14.926 5.661,-13.77 6.562,-28.9 0.918,-5.899 3.349,-9.333 0,-14.569 -9.724,-13.005 -26.384,-16.031 -28.662,-31.331 0,0 -5.1,0 -5.1,0 1.275,-5.661 1.564,-5.389 -1.7,-10.2 3.349,-3.298 0.663,-5.049 -1.7,-8.5 3.621,-2.992 2.72,-4.114 1.7,-8.5 z m 44.2,88.4 c 0,0 -5.1,0 -5.1,0 0,0 -8.5,17 -8.5,17 0,0 6.8,5.1 6.8,5.1 6.749,-8.976 6.698,-11.203 6.8,-22.1 z"
     style="fill:#000000;stroke:none"
     inkscape:transform-center-x="27.587636"
     inkscape:transform-center-y="-54.255685" />
</svg>
