<?xml version="1.0" encoding="UTF-8" standalone="no"?>
<svg
   xmlns:dc="http://purl.org/dc/elements/1.1/"
   xmlns:cc="http://creativecommons.org/ns#"
   xmlns:rdf="http://www.w3.org/1999/02/22-rdf-syntax-ns#"
   xmlns:svg="http://www.w3.org/2000/svg"
   xmlns="http://www.w3.org/2000/svg"
   xmlns:sodipodi="http://sodipodi.sourceforge.net/DTD/sodipodi-0.dtd"
   xmlns:inkscape="http://www.inkscape.org/namespaces/inkscape"
   width="100mm"
   height="100mm"
   viewBox="0 0 1181.1023 1181.1011"
   version="1.1"
   id="svg3"
   sodipodi:docname="mule.svg"
   inkscape:version="1.0.1 (3bc2e813f5, 2020-09-07)">
  <metadata
     id="metadata9">
    <rdf:RDF>
      <cc:Work
         rdf:about="">
        <dc:format>image/svg+xml</dc:format>
        <dc:type
           rdf:resource="http://purl.org/dc/dcmitype/StillImage" />
        <dc:title></dc:title>
      </cc:Work>
    </rdf:RDF>
  </metadata>
  <defs
     id="defs7" />
  <sodipodi:namedview
     pagecolor="#ffffff"
     bordercolor="#666666"
     borderopacity="1"
     objecttolerance="10"
     gridtolerance="10"
     guidetolerance="10"
     inkscape:pageopacity="0"
     inkscape:pageshadow="2"
     inkscape:window-width="2056"
     inkscape:window-height="997"
     id="namedview5"
     showgrid="false"
     inkscape:zoom="0.74233352"
     inkscape:cx="161.24656"
     inkscape:cy="484.681"
     inkscape:window-x="685"
     inkscape:window-y="521"
     inkscape:window-maximized="0"
     inkscape:current-layer="svg3"
     inkscape:document-rotation="0"
     units="mm" />
  <path
     id="Sélection"
     fill="none"
     stroke="black"
     stroke-width="0.9"
     d="m 962.25764,229.64811 c 4.86002,-1.116 9.95402,-6.381 13.49102,-9.909 11.196,-11.205 17.586,-22.428 26.36104,-35.091 4.698,-6.777 10.08,-14.454 18.648,-16.2 0,14.454 -2.52,13.095 -8.766,25.2 0,0 -9.234,20.7 -9.234,20.7 6.831,-6.336 13.887,-22.977 20.232,-31.5 3.87,-5.211 7.362,-9.414 13.968,-10.8 2.394,10.809 -6.741,22.644 -10.791,32.4 0,0 -9.018,27 -9.018,27 -2.79,6.588 -6.849,10.458 -8.226,18 -1.215,5.319 1.197,8.73899 0,15.29999 0,0 3.735,-0.9 3.735,-0.9 0,0 -2.709,2.7 -2.709,2.7 0.756,5.409 -1.206,6.201 0,8.991 0.765,1.773 10.422,10.422 12.609,12.609 8.199,8.199 14.706,16.362 20.979,26.1 0,0 16.821,27.9 16.821,27.9 13.617,22.653 27.054,45.234 38.079,69.3 6.606,14.418 15.849,33.579 15.921,49.5 0,0 0,8.1 0,8.1 -0.099,8.073 -1.917,16.074 -5.301,23.4 0,0 -3.357,7.2 -3.357,7.2 -2.304,6.327 -2.61,12.366 -9.342,16.074 -7.227,3.987 -13.113,1.197 -19.764,-1.674 0.153,1.476 0.396,2.007 0,3.501 -2.394,10.881 -15.093,1.512 -20.736,0 -3.951,-1.215 -7.686,-0.468 -11.7,-2.286 -10.881,-4.923 -9.09,-18.261 -17.397,-28.215 -6.822,-8.172 -22.284,-13.356 -33.00304,-21.51 -11.673,-8.874 -13.023,-16.245 -21.6,-21.564 -3.816,-2.367 -7.52402,-2.52 -11.70002,-3.762 -6.327,-1.881 -10.71,-3.924 -16.2,-7.632 -3.393,-2.295 -6.039,-4.536 -8.73,-7.632 -2.961,-3.411 -4.986,-7.623 -10.16997,-7.533 -8.75696,0.153 -17.33396,13.869 -22.31996,20.133 -16.776,21.051 -33.309,37.854 -52.38,56.7 -15.822,15.633 -34.263,29.673 -43.821,50.4 -10.026,21.726 -6.984,43.137 -18.558,68.4 -3.834,8.379 -9.135,16.146 -15.921,22.419 -3.681,3.393 -10.953,7.038 -12.573,10.962 0,0 -2.619,11.619 -2.619,11.619 0,0 -5.886,22.5 -5.886,22.5 0,0 -14.202,47.7 -14.202,47.7 -1.539,7.848 -3.411,21.852 -3.42,29.7 0,0 0.891,14.4 0.891,14.4 0.162,7.434 -1.755,23.373 -3.735,30.6 0,0 -6.03,20.7 -6.03,20.7 -2.682,18.144 -0.333,36.684 0,54.9 -0.036,7.641 2.403,15.831 3.825,23.4 2.835,15.138 1.539,22.401 12.366,35.09997 9.882,11.574 12.663,11.349 17.586,16.47 0,0 13.797,19.53003 13.797,19.53003 2.484,3.483 9.351,12.141 9.396,16.182 0.081,7.101 -14.238,7.11 -19.296,7.218 1.539,2.934 4.383,7.263 3.051,10.683 -1.341,3.429 -6.192,3.78 -9.351,4.23 -9.261,1.341 -18.558,1.305 -27.9,1.287 -12.06,-0.018 -19.602,-3.699 -27.819,-12.6 -3.465,-3.753 -6.453,-8.28 -6.975,-13.5 -0.477,-4.788 2.853,-10.314 3.213,-16.2 0.468,-7.76703 -3.222,-14.26503 -10.719,-16.87503 -4.653,-1.629 -10.476,-1.107 -13.419,-5.724 -2.52,-3.933 -1.881,-11.439 -1.881,-16.101 0,0 -0.9,-32.39997 -0.9,-32.39997 0,0 0.9,-13.5 0.9,-13.5 0,0 0,-45 0,-45 0,0 -3.6,-34.2 -3.6,-34.2 0,0 0,-24.3 0,-24.3 0,0 1.8,-27 1.8,-27 0,0 0,-14.4 0,-14.4 0,0 -6.822,-52.2 -6.822,-52.2 -0.549,-3.699 -1.314,-15.093 -4.257,-17.082 -1.683,-1.143 -9.027,-1.845 -11.421,-2.196 0,0 -32.4,-3.222 -32.4,-3.222 0,0 -27,0 -27,0 0,0 -32.4,1.8 -32.4,1.8 0,0 -47.7,0 -47.7,0 0,0 -11.7,-0.864 -11.7,-0.864 -44.901,-1.962 -84.51,-14.004 -124.2,-34.938 0,0 -33.3,-18.576 -33.3,-18.576 -4.311,-2.466 -8.901,-6.597 -13.5,-3.042 0,0 -9,8.739 -9,8.739 -23.625,22.014 -36.801,48.528 -53.28,75.681 0,0 -18.612,27.9 -18.612,27.9 0,0 -15.903,21.6 -15.903,21.6 -3.267,5.49 -12.078,24.57 -13.869,30.6 0,0 -4.032,18 -4.032,18 0,0 -9.891,22.5 -9.891,22.5 -3.15,10.485 -2.331,25.785 -2.313,36.9 0,0 0.819,10.8 0.819,10.8 0,0 4.329,44.1 4.329,44.1 0.891,7.542 0.18,18.432 3.231,25.19997 3.798,8.424 9.153,12.708 14.175,19.8 0,0 10.143,18.00003 10.143,18.00003 2.529,3.798 9.315,13.95 10.143,18 1.8,8.703 -8.217,8.091 -14.04,8.1 0,0 -16.2,0 -16.2,0 0,0 -8.1,-0.756 -8.1,-0.756 -13.662,-1.458 -19.674,-3.231 -26.271,-16.344 -1.098,-2.187 -3.06,-6.615 -3.15,-9 -0.144,-4.212 2.979,-6.19203 4.401,-10.80003 1.584,-5.157 0.162,-13.032 -1.719,-18 -1.485,-3.924 -3.969,-7.434 -7.497,-9.783 -4.698,-3.123 -10.296,-2.916 -12.50999,-10.91697 -2.655,-9.567 1.79999,-32.922 2.56499,-44.1 0,0 0.981,-19.8 0.981,-19.8 0,0 0.9,-13.5 0.9,-13.5 0,0 0,-58.5 0,-58.5 -3.84299,3.834 -9.37799,15.318 -12.46499,20.7 -5.112,8.901 -12.348,18.981 -14.994,28.8 -1.35,4.995 -3.114,22.527 -3.141,27.9 0,0 0,16.2 0,16.2 0,0 0.9,16.2 0.9,16.2 0,0 1.8,26.1 1.8,26.1 0,0 0,13.49997 0,13.49997 0.009,4.581 0.315,10.143 2.124,14.4 3.348,7.893 11.511,15.678 14.616,21.60003 0,0 3.87,9 3.87,9 3.915,7.254 9.27899,13.896 12.37499,21.6 1.134,2.826 2.223,7.614 -0.864,9.621 -2.088,1.35 -6.264,1.179 -8.72099,1.179 -11.907,0.018 -35.523,1.836 -44.991,-5.076 -3.87,-2.826 -6.273,-6.867 -8.307,-11.124 -1.053,-2.223 -2.880002,-6.597 -3.015002,-9 -0.342,-6.039 5.454002,-6.597 5.877002,-16.2 0.297,-6.82203 -1.413,-15.66003 -6.354002,-20.61003 -6.381,-6.381 -13.725,-4.05 -15.057,-16.29 -0.909,-8.37897 2.88,-25.16397 4.095,-34.19997 0,0 4.833,-52.2 4.833,-52.2 0,0 0.819,-10.8 0.819,-10.8 0,0 0,-6.3 0,-6.3 0.09,-7.569 3.33,-14.571 -2.7,-20.7 0,0 -0.9,3.6 -0.9,3.6 0,0 -4.5,-15.3 -4.5,-15.3 0,0 -2.7,3.6 -2.7,3.6 0,0 -0.738,-13.5 -0.738,-13.5 0,0 0.738,-9 0.738,-9 0,0 -4.5,4.5 -4.5,4.5 0,0 -2.7,-20.7 -2.7,-20.7 0,0 -2.7,9 -2.7,9 0,0 0,-22.5 0,-22.5 0,0 -2.7,0.9 -2.7,0.9 -1.071,-8.154 -0.891,-12.645 -0.9,-20.7 0,0 -0.9,-14.4 -0.9,-14.4 0,0 0,-13.5 0,-13.5 0,0 -0.9,-14.4 -0.9,-14.4 -0.072,-43.902 -0.144,-88.146 8.505,-131.4 3.753,-18.765 9.468,-36.765 15.498,-54.9 0,0 9.675002,-33.3 9.675002,-33.3 7.461,-19.746 21.339,-40.266 36.522,-54.864 28.74599,-27.621 65.95199,-43.227 104.39999,-51.714 18.036,-3.987 33.66,-6.606 52.2,-6.822 0,0 9.9,-0.828 9.9,-0.828 0,0 7.2,0.792 7.2,0.792 0,0 10.8,0 10.8,0 13.5,0.198 57.258,8.154 73.8,10.593 48.042,7.074 96.309,13.815 144.9,13.743 28.359,-0.045 61.308,-17.154 78.3,-39.6 0,0 4.5,0.9 4.5,0.9 0.765,-3.375 0.891,-4.266 4.5,-4.5 0,0 0.9,-4.5 0.9,-4.5 3.879,-1.998 4.158,-2.943 4.5,-7.2 0,0 4.5,1.8 4.5,1.8 0,0 0.9,-4.5 0.9,-4.5 0,0 8.595,-3.321 8.595,-3.321 0,0 2.574,-2.052 2.574,-2.052 2.637,-1.557 4.095,-0.045 10.431,-7.227 0,0 0.9,0 0.9,0 0,0 1.8,1.8 1.8,1.8 0,0 0.9,-2.7 0.9,-2.7 0,0 3.6,-1.8 3.6,-1.8 0,0 2.7,0.9 2.7,0.9 0,0 0.9,-3.6 0.9,-3.6 0,0 3.6,1.8 3.6,1.8 0,0 4.5,-6.3 4.5,-6.3 0,0 2.7,0.9 2.7,0.9 0,0 0.9,-2.7 0.9,-2.7 0,0 3.6,0.9 3.6,0.9 0,0 6.3,-4.5 6.3,-4.5 0,0 3.6,2.7 3.6,2.7 0,0 4.5,-7.2 4.5,-7.2 0,0 6.3,2.7 6.3,2.7 3.528,-2.691 4.824,-1.674 6.3,-6.3 0,0 5.4,3.6 5.4,3.6 0,0 4.5,-6.3 4.5,-6.3 10.314,-0.558 8.892,-5.661 15.381,-8.424 5.184,-2.205 6.669,3.132 13.419,-3.276 0,0 4.5,1.8 4.5,1.8 0,0 6.3,-8.1 6.3,-8.1 0,0 3.6,0.9 3.6,0.9 0,0 10.8,-7.19999 10.8,-7.19999 0,0 3.6,-0.9 3.6,-0.9 3.834,1.97099 4.932,2.20499 8.1,-0.9 4.833,0.945 5.022,2.29499 9.9,0.9 3.789,0.729 4.275,-0.036 5.4,-3.6 0,0 3.6,1.8 3.6,1.8 0,0 0,-2.7 0,-2.7 0,0 2.7,0.9 2.7,0.9 0,0 0,-2.7 0,-2.7 0,0 4.5,1.8 4.5,1.8 0,0 0.9,-3.6 0.9,-3.6 0,0 3.6,1.8 3.6,1.8 0,0 0.9,-3.6 0.9,-3.6 0,0 7.2,-1.8 7.2,-1.8 0,0 1.8,3.6 1.8,3.6 0,0 1.8,-3.6 1.8,-3.6 0,0 0.9,0 0.9,0 0,0 1.8,1.8 1.8,1.8 0,0 2.7,-2.7 2.7,-2.7 0,0 0,0.9 0,0.9 0,0 1.8,1.8 1.8,1.8 0,0 0.9,-2.7 0.9,-2.7 0,0 2.7,-1.8 2.7,-1.8 0,0 3.6,1.8 3.6,1.8 0,0 1.8,-3.6 1.8,-3.6 0,0 0.9,2.7 0.9,2.7 0,0 1.8,0 1.8,0 0,0 0.9,-4.5 0.9,-4.5 0,0 4.5,3.6 4.5,3.6 0,0 0.9,-3.6 0.9,-3.6 0,0 3.6,2.7 3.6,2.7 0,0 1.8,-3.6 1.8,-3.6 0,0 0.9,2.7 0.9,2.7 0,0 1.8,0 1.8,0 0,0 2.7,-3.6 2.7,-3.6 0,0 2.7,3.6 2.7,3.6 0,0 1.8,-4.5 1.8,-4.5 0,0 2.7,4.5 2.7,4.5 0,0 2.7,-3.6 2.7,-3.6 0,0 1.8,2.7 1.8,2.7 0,0 1.8,-4.5 1.8,-4.5 0,0 4.5,2.7 4.5,2.7 0,0 0.9,-3.6 0.9,-3.6 0,0 2.7,2.7 2.7,2.7 0,0 7.2,0.9 7.2,0.9 0,0 4.5,-4.5 4.5,-4.5 0,0 0,0.9 0,0.9 0,0 1.8,1.8 1.8,1.8 0,0 0.9,-2.7 0.9,-2.7 0,0 3.6,1.8 3.6,1.8 0,0 1.8,-4.5 1.8,-4.5 0,0 1.8,3.6 1.8,3.6 0,0 1.8,0 1.8,0 0,0 0.9,-3.6 0.9,-3.6 0,0 0.9,0 0.9,0 0,0 1.8,1.8 1.8,1.8 0,0 2.7,-3.6 2.7,-3.6 0,0 0.9,2.7 0.9,2.7 0,0 6.29996,-1.8 6.29996,-1.8 0,0 3.59997,4.5 3.59997,4.5 0,0 4.5,-0.9 4.5,-0.9 0,0 0.9,-2.7 0.9,-2.7 0,0 0.9,0 0.9,0 0,0 1.8,1.8 1.8,1.8 0,0 1.8,-2.7 1.8,-2.7 0,0 2.7,3.6 2.7,3.6 0,0 0.9,-2.7 0.9,-2.7 0,0 3.6,1.8 3.6,1.8 1.071,-2.664 0.891,-2.628 3.6,-3.6 0,0 1.8,4.5 1.8,4.5 0,0 0.9,-2.7 0.9,-2.7 2.718,1.521 3.393,2.448 6.3,0.9 0,0 2.7,0.9 2.7,0.9 0,0 0.9,-2.7 0.9,-2.7 z M 121.65772,497.8481 c -2.916,4.509 -2.637,13.518 -2.7,18.9 0,0 -0.828,9.9 -0.828,9.9 0,0 0.792,7.2 0.792,7.2 0,0 0,10.8 0,10.8 0,0 4.05,37.8 4.05,37.8 0,0 8.442,43.2 8.442,43.2 0,0 2.025,23.4 2.025,23.4 0,0 0.819,10.8 0.819,10.8 0.009,4.581 0.18,13.932 1.8,18 5.562,-19.188 6.912,-38.718 4.239,-58.5 0,0 -11.439,-49.5 -11.439,-49.5 -2.907,-14.049 -7.182,-36.405 -7.2,-50.4 0,0 0,-21.6 0,-21.6 z"
     style="fill:#000000;stroke:none" />
</svg>
