<?xml version="1.0" encoding="UTF-8" standalone="no"?>
<svg
   xmlns:dc="http://purl.org/dc/elements/1.1/"
   xmlns:cc="http://creativecommons.org/ns#"
   xmlns:rdf="http://www.w3.org/1999/02/22-rdf-syntax-ns#"
   xmlns:svg="http://www.w3.org/2000/svg"
   xmlns="http://www.w3.org/2000/svg"
   xmlns:sodipodi="http://sodipodi.sourceforge.net/DTD/sodipodi-0.dtd"
   xmlns:inkscape="http://www.inkscape.org/namespaces/inkscape"
   width="100mm"
   height="100mm"
   viewBox="0 0 1181.1016 1181.1028"
   version="1.1"
   id="svg852"
   sodipodi:docname="oiseau-oracle.svg"
   inkscape:version="1.0.1 (3bc2e813f5, 2020-09-07)">
  <metadata
     id="metadata858">
    <rdf:RDF>
      <cc:Work
         rdf:about="">
        <dc:format>image/svg+xml</dc:format>
        <dc:type
           rdf:resource="http://purl.org/dc/dcmitype/StillImage" />
        <dc:title></dc:title>
      </cc:Work>
    </rdf:RDF>
  </metadata>
  <defs
     id="defs856" />
  <sodipodi:namedview
     pagecolor="#ffffff"
     bordercolor="#666666"
     borderopacity="1"
     objecttolerance="10"
     gridtolerance="10"
     guidetolerance="10"
     inkscape:pageopacity="0"
     inkscape:pageshadow="2"
     inkscape:window-width="3840"
     inkscape:window-height="2066"
     id="namedview854"
     showgrid="false"
     units="mm"
     inkscape:zoom="2.093921"
     inkscape:cx="285.44016"
     inkscape:cy="440.79982"
     inkscape:window-x="-11"
     inkscape:window-y="-11"
     inkscape:window-maximized="1"
     inkscape:current-layer="svg852"
     inkscape:document-rotation="0" />
  <path
     id="Sélection"
     fill="none"
     stroke="#000000"
     stroke-width="0.72"
     d="m 918.66913,296.02203 c 0,-2.9592 -0.2016,-5.1048 0.9792,-7.92 1.6776,-3.99601 7.6104,-12.9024 7.3944,-17.28 -0.1224,-2.6208 -5.1768,-9.2088 -7.02,-11.3184 -0.7992,-0.9072 -3.6936,-4.1904 -0.5184,-4.4424 1.9152,-0.1512 4.14,2.1816 5.2056,3.5496 2.7648,3.528 6.2856,9.1008 6.012,13.6512 0.108,1.7712 -0.4536,4.2048 0,5.76 0.3096,2.5128 2.1096,3.8016 2.8224,7.2 0,0 1.4184,12.96 1.4184,12.96 0,0 4.2552,17.28 4.2552,17.28 0,0 2.304,18.6264 2.304,18.6264 1.1088,2.5776 4.4424,3.7368 6.6672,5.1552 2.6064,1.6704 4.7088,3.9096 6.4368,6.4584 4.2552,6.264 3.5928,17.208 8.0712,21.8016 8.4816,8.7192 24.6816,17.3448 27.5904,30.0384 0.4752,2.0736 0.4032,5.0328 0.3816,7.2 -0.0792,6.876 -2.3112,13.5648 -4.0536,20.16 -0.5616,2.1168 -1.476,6.0912 -4.572,4.9176 -2.4696,-0.9288 -3.7152,-4.5864 -7.2432,-7.2288 -4.4496,-3.3408 -15.912,-8.0136 -21.5712,-8.4888 1.9512,6.6528 8.208,7.74 13.68,10.6704 2.2896,1.224 3.0456,2.0304 5.04,3.4056 0.9864,0.684 3.1824,1.8432 3.7872,2.7648 1.116,1.7208 -0.3528,2.808 -1.6704,3.6792 -3.1104,2.052 -5.6448,2.6352 -9.3168,2.4912 -6.6888,-0.2592 -18.3888,-2.736 -24.48,-5.58 0,0 -10.9224,-6.7248 -10.9224,-6.7248 -2.8296,-0.6984 -9.0504,1.7208 -13.5576,1.4688 -6.5664,-0.3744 -16.01283,-1.1448 -22.32003,-2.7792 -3.1608,-0.8136 -8.1432,-3.6432 -10.8,-5.5728 -1.296,-0.9432 -3.8304,-3.3048 -5.3424,-3.456 -1.4256,-0.144 -4.1544,1.5336 -5.4576,2.2104 -5.9112,3.0816 -7.3152,5.2992 -12.2472,9.2664 0,0 -5.03279,4.4496 -5.03279,4.4496 -7.9272,6.4152 -14.7672,11.2248 -20.9304,19.7064 -3.4848,4.788 -3.024,6.5736 -4.788,9.36 0,0 -3.34802,4.32 -3.34802,4.32 0,0 -6.1776,11.52 -6.1776,11.52 -0.2664,1.2528 -0.1152,2.3472 0,3.6 -2.4552,1.8648 -2.232,2.16 -1.476,5.04 0,0 -2.16,-2.88 -2.16,-2.88 0,0 -4.0032,7.2 -4.0032,7.2 0,0 -4.644,12.24 -4.644,12.24 -1.4688,3.6576 -3.5568,7.452 -3.2112,11.52 0.576,6.8544 4.1328,10.224 6.9552,15.84 0,0 5.1696,10.8 5.1696,10.8 0,0 6.3432,10.8 6.3432,10.8 3.0816,5.8896 5.68802,17.0928 5.63042,23.76 -0.0576,6.3288 -0.41042,13.8384 -3.56402,19.44 -6.516,11.5704 -8.1144,6.4584 -10.836,16.56 3.672,1.0872 6.1992,2.6352 7.452,6.48 0.8136,2.4768 0.504,5.4792 1.8936,7.7904 2.0592,3.4128 4.0896,2.0736 5.77442,8.7696 7.7688,-2.916 7.7544,-1.1304 14.4,0.5328 6.2496,1.5696 11.124,0.9936 15.11999,7.3944 0.9864,1.584 1.6992,3.96 2.3688,5.7528 1.152,3.0528 3.4632,12.8808 0.7992,15.3936 -4.44239,4.1904 -5.06879,-6.2496 -5.32799,-8.2584 -2.7504,0.8496 -7.3512,1.3824 -9.9576,0 -5.0544,-2.8584 -2.6136,-6.3072 -10.9224,-6.4152 2.6208,4.788 8.7624,6.6312 3.6,15.12 4.4136,1.6128 8.0424,-0.036 11.52,1.1376 3.9456,1.3392 7.0632,6.0192 10.79999,6.4728 3.8664,0.4608 7.9488,-3.5784 10.368,-1.8072 2.0016,1.476 0.0864,4.8384 -1.3536,6.0048 -1.1232,0.9072 -11.4408,3.1392 -13.33439,3.312 -1.2168,3.564 -4.4928,4.2768 -7.92,5.04 4.572,6.1848 6.2784,3.204 12.75839,7.74 0,0 5.9616,4.4352 5.9616,4.4352 5.4,3.3192 12.6,5.8752 16.848,10.9368 5.1912,6.1848 4.356,7.0848 4.8168,14.328 0.18,2.9088 0.756,5.7816 -0.468,8.6112 -1.0008,2.3256 -2.5488,2.7864 -4.0032,4.6152 -2.556,3.204 -1.836,4.1472 -6.3936,5.4936 0,4.5792 0.6624,11.0232 -1.3104,15.12 -3.1536,6.5448 -6.2712,5.184 -9.0648,7.6032 0,0 -3.3768,3.4848 -3.3768,3.4848 0,0 -10.61279,7.9632 -10.61279,7.9632 0,0 -4.464,4.0176 -4.464,4.0176 -4.0104,2.7144 -6.6744,2.232 -10.2528,4.5144 -7.7832,4.968 -3.8016,10.728 -14.91842,12.9744 -6.1632,1.2456 -7.8048,-2.268 -12.24,-3.6576 -1.9944,-0.3672 -7.704,-0.1728 -10.08,0 -2.5632,-0.1872 -13.8168,-0.324 -12.4272,-5.0328 0.5472,-1.8576 3.6432,-2.1384 5.2272,-2.2968 3.0888,-0.3024 10.3032,-1.2744 12.7368,-3.0312 1.7568,-1.26 1.7136,-3.096 2.5416,-4.9104 1.0656,-2.3472 3.384,-4.8168 5.6664,-6.0192 3.852,-2.0232 6.0768,-0.3744 8.1576,-0.576 -2.2608,0.2232 11.61362,-3.1248 9.77762,-2.4912 0,0 9.8496,-5.7888 9.8496,-5.7888 0,0 10.3104,-10.3536 10.3104,-10.3536 0,0 -12.24,3.2976 -12.24,3.2976 -3.2832,1.0584 -5.8464,2.0016 -7.2,-1.8576 0,0 -7.89122,3.3048 -7.89122,3.3048 0,0 -5.8176,3.7368 -5.8176,3.7368 0,0 -5.6088,1.656 -5.6088,1.656 -2.6784,1.3176 -3.744,3.8448 -7.3296,5.0904 -3.2904,1.1376 -9.4104,1.116 -12.9528,1.3968 -2.9088,0.2376 -5.6952,1.6704 -8.64,0.9648 -3.1608,-0.756 -4.3776,-2.8512 -6.5448,-3.4416 -3.06,-0.8424 -5.4864,1.5336 -10.0152,-1.5912 -1.2384,-0.8568 -5.3064,-3.8448 -4.1976,-5.5368 1.1808,-2.0952 4.7376,-0.007 6.3576,0 1.2744,0.2376 6.7032,-1.3176 7.848,-1.9872 3.1968,-1.8648 3.2688,-5.7096 7.9992,-7.2936 4.5936,-1.5408 6.6888,1.9008 12.888,-1.9152 0,0 4.4496,-3.276 4.4496,-3.276 0,0 6.4152,-3.1248 6.4152,-3.1248 5.2128,-3.5352 4.1832,-6.3 12.24,-6.7032 0.3816,-2.0304 1.8792,-5.6304 1.5912,-7.2 -0.4608,-2.4336 -3.024,-3.8736 -3.6216,-8.64 -0.54,-4.3416 0.8352,-8.8272 2.0304,-12.96 -4.9968,2.34 -9.6552,2.8008 -15.12,1.8288 0,0 -5.04,-1.0224 -5.04,-1.0224 -3.6936,-0.1944 -8.6976,2.664 -12.24,-4.4064 -6.912,1.8072 -7.7904,-2.3904 -11.0304,-4.3272 0,0 -5.4648,-1.9296 -5.4648,-1.9296 -2.6064,-1.4184 -3.276,-3.3696 -5.2344,-4.86 0,0 -5.4936,-2.7216 -5.4936,-2.7216 -2.6496,-1.7928 -2.6712,-3.9168 -5.2704,-5.2344 -4.2048,-2.1456 -7.8192,-1.5048 -12.1464,-1.9296 0,0 -5.04,-0.6048 -5.04,-0.6048 0,0 -4.32,0.5616 -4.32,0.5616 -2.6712,0.1584 -4.1112,-0.8496 -5.7312,-0.5832 -2.6136,0.4248 -2.4192,2.412 -7.2288,3.6288 0,0 1.0512,5.04 1.0512,5.04 1.8432,7.308 3.3624,9.0648 3.2688,17.28 -0.0936,8.208 -3.2328,10.44 -2.7216,15.12 0.5832,5.2776 2.1672,2.7288 2.0016,16.56 -0.0864,6.7536 -1.6848,6.8616 -2.6064,11.52 -1.2384,6.2352 1.8576,7.2144 -5.3136,15.12 0,0 12.24,6.8472 12.24,6.8472 1.7784,0.7488 3.0384,0.7344 5.04,1.8504 0,0 4.32,3.0528 4.32,3.0528 0,0 7.2,4.4352 7.2,4.4352 2.1096,1.3104 3.1464,1.296 5.04,2.2176 0,0 4.32,2.8008 4.32,2.8008 3.9384,2.2968 10.3968,1.1016 12.24,9.756 3.6864,0.3384 11.5128,3.8232 14.3712,6.0552 0,0 4.4712,4.14 4.4712,4.14 2.088,1.44 4.5864,1.62 6.9264,3.7656 2.4984,2.2968 2.5632,4.824 4.6656,6.192 0,0 10.6056,3.7008 10.6056,3.7008 0,0 2.88,0 2.88,0 6.6816,0.3744 6.8904,4.5288 12.96,5.3136 0,0 11.52002,0 11.52002,0 2.304,-0.1512 3.9024,-1.1952 7.2,-1.008 5.292,0.2952 6.948,3.276 10.08,4.4352 2.46959,0.9072 5.34239,0.1944 7.91999,0.936 2.2176,0.6336 9.0288,6.408 10.3752,8.3232 2.9592,4.2048 1.1304,13.2624 1.2744,14.3064 0.288,2.1456 1.98,3.492 2.8944,6.48 0,0 1.872,11.52 1.872,11.52 0.5256,5.3928 -2.6568,9.4176 -5.2272,13.68 0,0 -1.944,4.32 -1.944,4.32 -1.3464,2.4552 -5.9328,6.7176 -8.532,7.8552 -1.7712,0.7776 -11.80079,2.0232 -9.95039,-1.8648 0.8064,-1.7064 5.61599,-3.9312 7.15679,-8.1504 1.6488,-4.5432 -1.8432,-5.2848 -3.276,-8.6688 -1.77119,-4.176 -0.0864,-13.8888 -4.96799,-16.4736 -2.1168,-1.1232 -4.1616,0.7128 -6.9552,1.5264 -3.3768,0.9936 -5.508,0.4392 -8.64,-0.864 0,0 -0.3672,15.12 -0.3672,15.12 0,0 0.9432,5.04 0.9432,5.04 0.4752,5.0544 -1.836,7.0632 -4.464,10.8 -5.0472,7.1568 -0.9144,4.7808 -11.29682,13.86 0,0 -9.4176,7.7544 -9.4176,7.7544 -1.0152,0.5976 -2.3112,0.9216 -3.4776,1.044 -1.692,0.18 -7.7472,0.007 -6.3576,-3.0744 0.5688,-1.2672 2.2896,-1.9656 3.5352,-3.8376 2.232,-3.348 0.9072,-4.9464 5.7024,-7.8264 -6.2568,-9.1944 -0.3456,-12.5424 0.54,-18.72 0.468,-3.276 -1.5624,-5.256 -1.8216,-8.64 -0.2376,-3.1896 1.2096,-5.1552 1.2888,-7.2 0.0576,-1.6272 -2.9232,-9.2664 -4.0104,-10.5192 -0.9504,-1.1088 -3.3048,-2.4624 -4.6368,-3.1176 -5.3496,-2.628 -4.896,1.188 -12.96,-0.7632 -2.808,5.724 -5.0904,6.6456 -6.4656,9.36 0,0 -1.8648,6.48 -1.8648,6.48 -2.6352,5.4864 -7.0632,6.4296 -12.7296,6.48 0,0 0,10.08 0,10.08 0.0144,4.1112 -1.3968,6.6888 -5.1552,2.7144 -3.2328,-3.4128 -4.7088,-5.9544 -4.7448,-10.6344 0,0 -1.2456,-16.56 -1.2456,-16.56 1.224,-6.6312 6.3072,-11.6424 10.368,-16.56 3.8592,-4.6656 6.2064,-9.3816 12.4776,-11.52 -7.6896,-8.2872 -5.3064,-4.0464 -10.008,-7.668 -2.8944,-2.2248 -4.4712,-5.724 -10.872,-8.8992 0,0 -5.76,-1.8432 -5.76,-1.8432 0,0 -5.76,-3.5064 -5.76,-3.5064 -1.5768,-0.6408 -3.5424,-0.6264 -5.76,-1.908 -5.7888,-3.3408 -3.2544,-6.8112 -10.8,-9.8784 0,0 -15.12,-4.7376 -15.12,-4.7376 -2.5344,-0.6552 -4.6368,-0.2592 -7.2,-1.2672 -3.9312,-1.5336 -5.0256,-4.3416 -7.3224,-5.6376 -1.764,-0.9936 -3.8376,-0.6552 -6.3576,-1.8648 -4.2264,-2.0304 -5.2056,-5.1336 -7.2,-8.9496 -0.4032,1.3464 -0.9936,5.2344 -1.8792,5.9472 -1.8936,1.5264 -3.9096,-1.98 -8.2008,-4.5072 2.9088,5.58 -0.0432,5.9544 -2.7576,3.4848 -3.6,-3.2832 -3.6864,-6.7104 -8.7624,-10.6848 1.5192,3.744 4.2408,9.4608 2.448,13.572 -0.504,1.1592 -1.2528,1.7568 -2.4912,2.0088 -4.392,0.9072 -6.6096,-3.6288 -7.8768,-6.9408 -1.8144,2.088 -8.0352,9.432 -10.3536,3.492 -1.1376,-2.8944 1.6416,-4.896 1.0872,-8.532 -0.684,-4.5216 -3.8088,-9.6912 -8.0136,-11.52 1.1592,2.7792 2.5488,4.6584 4.068,7.2 0,0 1.5624,2.88 1.5624,2.88 0.3456,1.0656 0.6408,2.3112 0,3.3696 -1.7784,3.24 -7.2792,-0.4896 -9.2304,-1.8576 -4.6008,-3.2328 -7.416,-10.836 -10.8,-15.912 0.8928,3.42 1.4832,4.968 1.9584,8.64 0.252,1.98 1.1304,8.4456 0.4896,9.972 -1.152,2.7216 -4.86,2.8152 -6.6672,0 -1.764,-2.736 -1.2888,-6.1992 -1.6344,-9.252 0,0 -1.188,-5.76 -1.188,-5.76 -0.1224,-3.3408 2.5776,-7.3152 -4.4784,-9.36 2.3256,3.6072 4.176,7.0488 3.492,11.52 -0.5976,3.9096 -4.4064,5.076 -7.5024,2.7792 -1.6704,-1.2312 -1.908,-3.7728 -2.7288,-5.6592 -0.9432,-2.1816 -2.4912,-4.2192 -3.1896,-6.48 -0.3168,-1.8936 -0.1512,-8.4456 0,-10.8 -5.8824,7.3728 -8.7264,14.8968 -11.0592,23.76 0,0 -1.836,7.2 -1.836,7.2 0,0 -0.4104,7.2 -0.4104,7.2 0,0 -1.8072,5.76 -1.8072,5.76 -0.648,3.9384 0.007,7.5744 -2.3832,11.4912 -2.8224,4.6296 -10.0152,6.4944 -15.0552,6.5088 -0.144,6.2568 -1.836,6.948 -1.3608,10.08 0.6264,4.1832 3.0672,11.0592 2.6568,15.12 -0.4896,4.86 -3.5496,6.5232 -4.1328,9.36 0,0 0.4464,10.8 0.4464,10.8 0.252,2.4048 1.0944,3.528 0.8064,6.48 0,0 -1.3752,6.48 -1.3752,6.48 0,1.8864 0.9432,3.5784 0.6552,6.48 0,0 -3.2328,11.2176 -3.2328,11.2176 -0.1008,2.3184 2.2464,4.4712 1.7928,8.9424 -0.4176,4.1688 -2.808,5.9256 -3.0744,7.92 -0.3024,2.3256 1.9584,3.924 2.3544,7.92 0.4176,4.1472 -1.3104,5.868 -2.4264,9.36 -0.8352,2.5056 -0.792,9.756 0,12.2112 0.9288,2.7576 5.6088,5.3856 8.3304,5.904 2.0304,0.3888 4.464,-0.6192 7.92,0.4608 4.9032,1.5336 5.796,5.1192 9.432,7.9488 6.8832,5.364 14.6448,2.1672 15.768,14.5152 5.8464,1.2744 4.4568,3.5856 4.9536,7.92 0,0 0.7488,5.04 0.7488,5.04 -0.007,2.72881 -0.8928,4.03201 -1.2312,6.48001 -0.7632,5.508 1.0008,4.176 -1.9944,10.08 -1.6416,3.2328 -2.3976,8.7264 -7.488,7.5816 -7.596,-1.7208 -0.9144,-13.6008 -0.7272,-16.9416 0,0 0,-2.8512 0,-2.8512 0.0288,-7.02721 -3.9384,-4.88881 -8.6616,-6.36481 -2.412,-0.756 -4.3992,-2.376 -6.48,-3.744 0,0 -3.6,6.48 -3.6,6.48 6.3,5.08321 3.2904,8.67601 4.2984,12.96001 0.468,2.0016 1.908,3.672 2.1024,7.2 0.2736,4.8456 -1.98,7.0128 -2.5776,8.9496 0,0 -0.7992,6.17036 -0.7992,6.17036 -0.9576,3.0601 -2.4624,4.0537 -3.8016,6.4801 -1.5696,2.844 -1.332,5.4 -5.0112,8.3376 -3.7584,3.0096 -7.3224,2.1672 -9.0288,2.52 -3.3624,0.684 -3.276,3.06 -11.8224,2.808 -2.376,-0.065 -4.2912,-0.252 -5.8392,-2.3112 -2.304,-3.06 -0.972,-7.4952 2.9592,-8.208 1.7928,-0.324 3.4416,0.504 5.04,1.1736 0.18,-2.2032 0.7992,-7.4304 1.5408,-9.36 1.26,-3.2473 3.3984,-4.67286 4.1328,-8.64006 0.7416,-4.0032 -1.6632,-5.508 -1.2096,-10.08 0.3528,-3.5856 2.4696,-5.7816 1.8144,-8.6112 -0.7056,-3.06 -3.7944,-3.8232 -5.8752,-7.9488 -1.44,-2.84401 -3.5208,-11.77921 -7.2144,-12.44161 -2.1096,-0.3816 -3.024,2.4408 -9.0288,3.0816 2.4408,10.05841 -4.6008,11.59921 -6.5664,20.16001 0,0 0,5.76 0,5.76 -0.468,1.9512 -1.44,3.7584 -1.44,5.76 0.007,2.3904 1.7064,5.3136 0,10.07996 0,0 -1.8288,4.3201 -1.8288,4.3201 -0.648,2.3472 0.036,5.976 -3.8736,6.8616 -3.6864,0.828 -5.2848,-2.6856 -7.9632,-4.3344 -2.6208,-1.6128 -3.9744,-1.872 -5.904,-4.7016 -1.6848,-2.4625 -2.6064,-9.23766 -2.5128,-12.22566 0,0 0.8064,-4.32 0.8064,-4.32 0.0288,-2.1168 -0.432,-3.312 0,-5.76 0,0 2.3976,-5.76 2.3976,-5.76 0.6408,-2.4408 -0.2088,-4.644 1.0728,-7.92001 1.332,-3.4272 4.9032,-6.1344 5.5296,-9.7776 0.4752,-2.736 -1.9296,-5.6088 1.1376,-11.088 1.944,-3.4704 3.8592,-3.6648 6.0336,-5.508 0,0 3.9024,-4.32 3.9024,-4.32 0,0 4.8888,-3.9096 4.8888,-3.9096 1.2672,-1.0872 4.8744,-3.7512 5.364,-5.148 0.5616,-1.6056 -0.5544,-3.8952 -0.7488,-5.6088 0,0 0,-6.48 0,-6.48 -0.108,-2.8368 -0.4824,-3.5784 0.504,-6.48 0.5616,-1.6632 2.1312,-4.1616 2.0232,-5.76 -0.1656,-2.4264 -2.9448,-4.0752 -3.3984,-8.64 -0.6912,-6.8616 4.6368,-9.144 5.0832,-13.68 0.2808,-2.844 -1.7496,-4.8816 -1.4688,-8.64 0,0 1.3608,-6.48 1.3608,-6.48 0,-1.8864 -0.9432,-3.5784 -0.6552,-6.48 0.3096,-3.168 2.1456,-5.9112 2.2896,-9.36 0.0936,-2.3256 -0.648,-3.6144 -0.8496,-5.76 0,0 0,-11.52 0,-11.52 0.4536,-4.4856 3.024,-5.8464 3.1248,-8.1216 0.072,-1.5336 -1.3032,-3.564 -0.9648,-6.9984 0.5544,-5.7024 2.6784,-6.372 -0.5112,-12.924 -1.0584,-2.1816 -3.5424,-3.8952 -5.2704,-1.2816 -2.5056,3.7944 1.1952,10.5552 1.3104,15.6456 0.1368,6.0192 -0.3744,5.2488 -4.0464,9.4104 -1.0008,1.1376 -1.9656,2.6784 -3.2976,3.42 -4.104,2.2968 -7.9056,-2.6928 -8.3808,-6.3504 -0.2736,-2.052 0.252,-4.4496 0.612,-6.48 -3.6864,3.5568 -4.752,5.3568 -9.36,2.16 0,0 -2.7792,5.0256 -2.7792,5.0256 -2.34,3.7872 -7.2216,6.6384 -9.8712,1.4112 0,0 -3.1896,-17.2368 -3.1896,-17.2368 -3.8304,0.7992 -4.2336,0.3168 -7.2,-2.16 -1.0584,2.4336 -2.34,5.8104 -5.0688,6.7536 -4.932,1.7064 -9.108,-7.1712 -9.0792,-9.6336 0.0216,-2.0088 1.5768,-4.6224 2.3904,-6.48 2.2464,-5.1264 5.1912,-10.4832 6.7176,-15.84 -4.8096,-0.036 -9.6912,0.216 -14.4,-0.8928 0,0 -6.48,-1.7784 -6.48,-1.7784 -10.44,-2.196 -16.9992,-3.0528 -22.32,-13.8888 0,0 -9.468,5.3424 -9.468,5.3424 -1.4616,1.8432 -3.2328,14.544 -3.8232,17.6976 0,0 -5.4576,29.52 -5.4576,29.52 0,0 0,9.36 0,9.36 0,0 -0.6912,8.64 -0.6912,8.64 0,0 0,14.4 0,14.4 -0.0144,8.6328 -1.8864,11.6496 -3.8448,19.44 0,0 -10.4112,38.16 -10.4112,38.16 0,0 -9.936,33.12 -9.936,33.12 0,0 -6.0192,10.8 -6.0192,10.8 0,0 -2.6712,6.48 -2.6712,6.48 0,0 -8.6904,12.21121 -8.6904,12.21121 -5.004,6.3288 -11.5344,10.6992 -17.4672,15.9912 0,0 -13.68,12.24 -13.68,12.24 0,0 -10.08,8.98566 -10.08,8.98566 0,0 -20.16,12.852 -20.16,12.852 0,0 -26.64,17.0424 -26.64,17.0424 -11.0232,6.4584 -15.6168,9.9288 -28.8,11.5056 -2.9376,0.3528 -4.0536,0.7056 -7.2,0.5832 0,0 -7.92,-1.2024 -7.92,-1.2024 -8.0928,-1.0512 -7.2864,1.4112 -15.12,-4.5288 4.248,-0.014 9.2232,0.4248 10.8,-4.32 0,0 -9.36,0.72 -9.36,0.72 0,0 -3.6,0 -3.6,0 -4.752,-0.01 -14.7168,0.4104 -11.0016,-7.1856 0.4896,-1.0008 1.0008,-1.7856 1.836,-2.5272 1.2816,-1.1376 5.2128,-2.5992 7.0056,-3.4128 7.596,-3.4272 17.64,-4.968 25.92,-6.6384 9.9216,-1.9944 10.404,-3.7296 18,-6.1344 0,0 9.36,-2.2968 9.36,-2.2968 0,0 15.84,-5.9472 15.84,-5.9472 0,0 13.68,-9.46806 13.68,-9.46806 4.8888,-3.3984 17.0208,-11.232 20.7288,-14.9256 0,0 13.7376,-17.78401 13.7376,-17.78401 0,0 14.6736,-19.44 14.6736,-19.44 0,0 10.332,-17.28 10.332,-17.28 0,0 13.5576,-23.04 13.5576,-23.04 0,0 3.9456,-6.48 3.9456,-6.48 0,0 4.3848,-11.52 4.3848,-11.52 0,0 -22.1328,30.96 -22.1328,30.96 0,0 -22.3704,31.68 -22.3704,31.68 0,0 -14.9832,20.75041 -14.9832,20.75041 0,0 -19.7136,14.6952 -19.7136,14.6952 0,0 -18.72,14.7456 -18.72,14.7456 0,0 -12.24,3.39126 -12.24,3.39126 0,0 -12.96,4.7376 -12.96,4.7376 -5.2272,-4.9968 -14.184,4.0392 -17.28,-4.32 0,0 10.08,-9.36006 10.08,-9.36006 -0.8424,-3.8592 -0.4176,-4.5 1.44,-7.92 0,0 2.88,1.2312 2.88,1.2312 1.1736,0.5328 5.5512,1.9728 3.6432,-1.1592 0,0 -5.8032,-6.552 -5.8032,-6.552 5.8392,-2.3184 13.536,-3.24 19.8576,-3.204 0,0 3.9096,0.612 3.9096,0.612 4.5648,0.4176 8.8056,-1.8144 11.5128,-5.328 -5.3928,-0.8928 -11.988,0.1368 -17.28,1.44 2.0592,-3.3192 5.2776,-3.3984 8.64,-5.1336 3.9456,-2.03041 7.164,-4.49281 10.08,-7.82641 0,0 -12.96,6.66 -12.96,6.66 -3.5928,1.79281 -12.8952,6.90481 -16.56,6.78241 -8.2656,-0.2808 -1.8936,-13.21201 0.8712,-16.25761 0,0 7.0488,-6.0192 7.0488,-6.0192 10.368,-8.7696 21.2544,-17.0928 30.3624,-27.1656 3.6648,-4.0536 7.6536,-7.1352 9.9576,-12.24 -5.1048,4.4208 -10.5768,8.5176 -16.56,11.6784 0,0 -7.92,4.1328 -7.92,4.1328 -2.7144,1.7712 -17.1,14.7528 -19.0008,17.3088 -4.032,5.4072 -11.664,21.2472 -13.8024,27.87841 0,0 -0.7272,4.4136 -0.7272,4.4136 -0.6768,2.2608 -3.42,7.38 -4.6944,9.468 -1.548,2.5488 -2.7648,4.86 -4.8384,7.0992 -1.764,1.908 -2.4696,1.9872 -4.464,3.3408 -4.4496,3.00956 -5.1408,4.16876 -10.7928,4.67996 0,0 10.8648,-25.61756 10.8648,-25.61756 0,0 0,-3.9096 0,-3.9096 0,0 1.3752,-6.47281 1.3752,-6.47281 0,0 8.0784,-34.56 8.0784,-34.56 0,0 4.9392,-12.24 4.9392,-12.24 0,0 5.472,-12.96 5.472,-12.96 0,0 10.512,-12.96 10.512,-12.96 0,0 9.648,-8.0712 9.648,-8.0712 0,0 6.1416,-7.5384 6.1416,-7.5384 0,0 12.8088,-6.9552 12.8088,-6.9552 0,0 16.56,-12.2472 16.56,-12.2472 0,0 10.5264,-7.8984 10.5264,-7.8984 0,0 5.8896,-9.1296 5.8896,-9.1296 0,0 12.384,-25.92 12.384,-25.92 -3.3984,2.2752 -20.0808,14.8896 -22.0104,17.3448 -2.412,3.06 -1.4256,5.364 -3.5928,8.5752 0,0 -11.8368,12.24 -11.8368,12.24 -8.6112,8.5104 -12.3552,8.9208 -18.72,14.5296 -4.8528,4.2768 -6.8328,7.4304 -10.08,12.8304 -6.8976,-0.3888 -11.6208,4.6728 -16.0416,9.1584 -2.268,2.2968 -5.3352,4.0248 -3.3984,7.4016 0,0 -6.3216,14.4 -6.3216,14.4 0,0 -8.9064,33.84 -8.9064,33.84 0,0 -9.1152,29.52001 -9.1152,29.52001 0,0 -9.0288,28.80006 -9.0288,28.80006 0,0 -9.3168,15.12 -9.3168,15.12 -2.7,4.5936 -8.5464,14.3136 -12.1536,17.784 0,0 -20.0376,15.2352 -20.0376,15.2352 0,0 -5.04,2.2464 -5.04,2.2464 -3.1464,1.7856 -4.284,4.68 -7.2288,6.4296 -2.268,1.3536 -9.288,2.3832 -12.2112,2.8872 -3.564,0.6192 -12.0384,3.4704 -14.8968,1.0656 -3.3624,-2.8368 -0.3096,-6.3792 1.4832,-8.928 0.7128,-1.0224 2.0376,-2.5776 1.2384,-3.8952 -0.4824,-0.792 -4.0464,-1.9368 -5.1048,-2.412 -4.752,-2.1168 -10.152,-3.8952 -13.752,-7.8192 -1.6344,-1.7784 -3.276,-4.176 -2.3616,-6.7104 1.224,-3.3912 7.9056,-3.9672 11.0736,-4.6656 0,0 13.68,-2.1888 13.68,-2.1888 0,0 7.2,-1.6776 7.2,-1.6776 3.672,-0.792 7.8768,-1.332 10.7568,-3.9096 3.6864,-3.3048 5.0832,-12.2112 6.4152,-17.1216 0,0 7.5528,-25.20006 7.5528,-25.20006 0,0 4.7952,-8.64 4.7952,-8.64 -3.9024,2.2176 -11.0304,6.9552 -15.12,7.1712 0,0 -8.64,-0.4464 -8.64,-0.4464 -5.4936,0.5472 -15.4872,5.436 -19.2816,9.3312 -2.5056,2.5704 -4.6728,9.8352 -6.228,13.46396 -3.2832,7.6681 -6.7104,11.3185 -11.0592,18.0001 -1.0152,1.5624 -5.076,8.136 -6.1056,8.928 -0.9792,0.756 -2.1672,1.0944 -3.3912,0.8856 -3.8664,-0.6624 -3.6072,-4.6728 -3.6144,-7.6536 0,0 0,-19.4401 0,-19.4401 0.0216,-1.5336 0.0144,-2.82956 0.504,-4.31996 0,0 8.5896,-15.048 8.5896,-15.048 3.2256,-4.0536 14.4864,-7.1136 21.1464,-11.9448 0,0 20.88,-15.42241 20.88,-15.42241 0,0 24.48,-12.996 24.48,-12.996 0,0 10.8,-8.6616 10.8,-8.6616 0,0 20.16,-16.5672 20.16,-16.5672 0,0 -20.16,3.4704 -20.16,3.4704 -6.9624,0.6192 -7.416,-5.0832 -4.8168,-7.3728 1.0872,-0.9504 5.256,-2.0664 6.9768,-2.7792 0,0 24.408,-9.648 24.408,-9.648 3.4272,-2.016 4.4856,-5.6592 6.516,-8.8704 0,0 8.3232,-10.5624 8.3232,-10.5624 3.7152,-3.8376 9.8928,-4.8528 12.8592,-8.3088 0,0 11.8728,-18.5688 11.8728,-18.5688 0,0 21.4632,-35.28 21.4632,-35.28 0,0 8.892,-17.2728 8.892,-17.2728 0,0 5.8824,-7.9272 5.8824,-7.9272 0,0 13.1976,-22.104 13.1976,-22.104 2.2248,-2.8224 9.4392,-8.4528 12.5856,-11.2176 3.132,-2.7648 5.8536,-6.0552 9.36,-8.3592 6.7392,-4.4424 8.028,-3.0024 15.84,-10.1592 0,0 -17.28,4.9032 -17.28,4.9032 -2.1312,0.18 -5.6808,-0.4536 -7.92,-0.7776 -1.7928,-0.2592 -4.8888,-0.5112 -6.2568,-1.6776 -4.2912,-3.6504 2.4768,-10.0152 5.6016,-11.8224 2.2104,-1.2744 8.6616,-1.8864 11.4552,-2.3472 0,0 25.2,-4.8384 25.2,-4.8384 0,0 -7.2,0 -7.2,0 0,0 -29.52,3.6 -29.52,3.6 -6.84,0.036 -10.7064,1.0008 -17.28,2.52 0,0 -5.76,1.404 -5.76,1.404 0,0 -8.64,-0.36 -8.64,-0.36 0,0 -14.4,0 -14.4,0 -1.8864,-0.252 -3.9096,-0.8568 -4.4784,-2.9232 -0.4824,-1.7568 0.936,-4.7304 1.5984,-6.4008 -2.2752,-1.332 -5.1912,-3.5928 -5.4288,-6.48 -0.2736,-3.1824 7.6896,-10.0656 10.4688,-11.088 1.9224,-0.7056 10.3608,-0.4176 12.96,-0.432 0,0 7.92,-0.6912 7.92,-0.6912 0,0 8.64,0 8.64,0 0,0 27.36,3.9528 27.36,3.9528 0,0 23.76,-4.9464 23.76,-4.9464 6.5592,-1.4184 13.5432,-2.0808 19.44,-5.5152 0,0 -10.2024,-0.4608 -10.2024,-0.4608 -3.024,0.6048 -5.6952,2.2608 -8.5176,3.3984 -7.2864,2.9304 -18.0576,3.5928 -25.92,3.5424 -2.124,-0.0144 -4.5432,0.1368 -5.904,-1.6632 -2.1312,-2.3832 -0.5328,-5.8176 0,-8.4168 0,0 -4.896,3.3048 -4.896,3.3048 -5.004,3.348 -13.0032,9.4464 -15.12,-0.4248 -9.7416,0 -11.1384,1.8576 -20.16,4.212 0,0 -8.64,1.7136 -8.64,1.7136 -4.7088,1.0944 -6.4152,1.9296 -11.52,1.9944 -2.7072,0.0288 -7.02,0.5184 -8.9424,-1.6632 -1.476,-1.6848 -1.0656,-3.8304 -2.9448,-5.8032 -1.4328,-1.5048 -4.1976,-2.2536 -3.924,-4.8024 0,0 5.9976,-11.1888 5.9976,-11.1888 0.4032,-3.096 -6.4728,-6.9408 -2.9088,-10.8432 3.7224,-4.0752 9.7776,-1.1736 12.7224,-1.116 0,0 9.36,-1.3032 9.36,-1.3032 -0.9216,-1.0728 -3.0312,-3.1248 -3.4272,-4.3416 -1.3968,-4.32 4.4784,-4.2912 7.0272,-4.2984 0,0 33.84,-1.1664 33.84,-1.1664 3.7728,-0.72 4.1184,-1.4616 7.1352,-2.412 4.0608,-1.2816 4.6368,-0.8496 8.7048,-3.4416 7.7976,-4.9824 8.928,-2.8296 13.6728,-5.9184 0,0 12.9672,-11.808 12.9672,-11.808 0,0 38.88,-23.5512 38.88,-23.5512 13.3992,-8.0424 16.848,-7.7256 30.24,-19.188 1.5984,-1.368 4.8672,-4.0464 6.12,-5.5368 1.584,-1.8864 2.7,-5.2488 3.9816,-7.6176 0,0 4.536,-10.08 4.536,-10.08 0,0 7.6824,-15.12 7.6824,-15.12 -1.2024,0.9432 -5.004,4.4784 -6.2784,1.8648 -0.5472,-1.116 0.324,-2.9448 0.7056,-4.0248 1.5336,-4.356 1.3752,-5.3136 4.2624,-9.3312 3.492,-4.8456 11.4912,-9.6984 18.9288,-21.6288 6.2568,-10.0368 4.2264,-13.536 7.8336,-17.9928 0,0 4.5216,-4.5288 4.5216,-4.5288 0,0 6.0912,-7.7184 6.0912,-7.7184 0,0 10.0152,-9.3672 10.0152,-9.3672 0,0 11.52,-11.2464 11.52,-11.2464 0,0 17.9928,-11.9952 17.9928,-11.9952 0,0 5.832,-5.292 5.832,-5.292 0,0 12.8952,-9.828 12.8952,-9.828 0,0 10.8,-6.0408 10.8,-6.0408 0,0 9.36,-3.9168 9.36,-3.9168 0,0 11.52,-7.1136 11.52,-7.1136 -3.6936,-0.4176 -5.5584,-0.3816 -7.884,-3.636 -1.5768,-1.9368 -2.3328,-4.1688 0,-5.7096 0,0 12.924,-2.0304 12.924,-2.0304 0,0 20.88,-3.7584 20.88,-3.7584 4.3416,-0.9504 5.5296,-2.3832 10.08,-2.8656 0,0 0,-1.44 0,-1.44 -5.0976,-0.4176 -9.5976,-0.8856 -12.96,-5.1912 5.8824,-2.4696 8.6328,2.1816 16.56,0 0,0 8.64,-2.4912 8.64,-2.4912 0,0 5.04,-1.7856 5.04,-1.7856 0,0 8.64,-0.8496 8.64,-0.8496 0,0 7.92,-2.0952 7.92,-2.0952 0,0 19.44,-2.2896 19.44,-2.2896 0,0 17.28,-1.62 17.28,-1.62 1.656,0.36 2.2896,0.9936 3.6,1.9224 4.896,-3.6072 7.7472,0.7056 16.56,0.72 8.712,0.0144 17.3664,-1.3392 25.92,-2.9448 0,0 16.56,-3.4272 16.56,-3.4272 0,0 8.64,-5.3352 8.64,-5.3352 0,0 5.04,-1.3176 5.04,-1.3176 0,0 11.52,-7.092 11.52,-7.092 0,0 17.28,-10.0728 17.28,-10.0728 3.96,-2.3616 4.14,-1.5048 6.6024,-2.772 0,0 4.9176,-3.096 4.9176,-3.096 6.43682,-3.8376 5.2416,-2.7288 11.52002,-7.74 4.536,-3.6144 5.2632,-2.268 8.64,-3.816 4.2408,-1.944 7.884,-5.184 10.08,-9.2664 -4.3272,-0.8208 -4.248,-1.6632 -7.92,-2.8152 -9.36,-2.9376 -17.46722,-4.644 -23.76002,-13.0248 4.2408,-1.5552 4.1976,0.9 7.92002,2.0664 1.476,0.4608 2.2248,0.2376 4.32,1.1304 2.4408,1.0368 4.4136,2.7288 7.2,3.5496 3.276,0.9504 6.4512,0.468 12.24,3.2688 6.56639,3.1896 5.04,6.8904 11.51999,3.6648 -8.12879,-3.4992 -11.94479,-5.5224 -18.71279,-11.34 -1.6128,-1.3896 -4.8888,-4.104 -4.4208,-6.5448 0.1152,-0.5688 0.4536,-1.0944 1.0152,-1.3104 2.2392,-0.8784 3.6216,3.3552 4.1184,4.7952 5.3424,-1.6344 8.1936,3.06 12.23999,6.1416 3.2328,2.4696 5.4864,3.06 9.36,3.9384 0,0 -5.1552,-5.76 -5.1552,-5.76 -3.4632,-3.888 -8.30879,-8.7912 -3.4848,-13.68 0,0 2.916,7.2 2.916,7.2 2.952,5.6088 10.0656,12.2328 16.524,12.96 0,0 -4.9104,-7.92 -4.9104,-7.92 -3.5568,-4.6296 -10.836,-13.1256 -12.024,-18.72 -0.5184,-2.4336 -0.7488,-9.4608 2.0088,-10.6776 0.6696,-0.2952 1.2384,-0.2664 1.908,0 0.9864,0.3888 7.5456,6.732 8.1,7.8336 2.6424,5.3064 2.88,5.3064 6.3,10.044 -0.5544,-3.9024 -0.3024,-2.844 0,-6.48 0.252,-4.8384 -4.032,-10.2168 -5.904,-15.12 -1.584,-5.07601 -1.1592,-10.0224 0,-15.12 0.3312,-2.6352 -0.5616,-4.86 0.6552,-5.9472 2.088,-1.8576 6.4584,6.4584 7.7976,8.1072 3.0672,3.7872 6.4728,7.37999 7.7184,12.24 1.3896,4.428 -0.1296,14.1912 0,19.44 3.42,-3.3408 0.792,-5.94 5.6304,-8.64 -3.0816,-5.1408 -3.672,-5.4576 -3.6,-11.52 0.0216,-1.3752 0.0144,-3.0024 0.5328,-4.29121 1.188,-2.95199 3.8016,-3.30479 4.356,-5.86079 0.4824,-4.0176 -3.96,-5.0472 0,-9.288 3.7368,4.428 5.8968,10.152 6.6024,15.83999 0,0 0,6.48001 0,6.48001 0,0 1.08,5.76 1.08,5.76 0.008,2.088 -1.0656,3.4272 -0.8928,4.9752 0.1872,1.62 1.5192,2.52 2.33283,4.4496 0,0 1.368,4.2552 1.368,4.2552 1.3752,3.24 3.5856,6.3288 5.4072,9.3312 3.492,5.76 0.756,7.9992 9.4536,10.8288 -0.648,-2.268 -0.72,-5.5728 -1.5624,-7.164 -1.1952,-2.2248 -3.0168,-2.7576 -4.248,-4.5432 0,0 -2.6712,-6.2928 -2.6712,-6.2928 -2.3112,-4.9464 -5.7744,-13.2696 -5.8824,-18.72 -0.0288,-1.5768 1.8144,-10.67041 2.3688,-12.2256 0.4608,-1.2816 1.9368,-3.8448 3.5928,-2.3616 1.1952,1.0728 0.3312,3.35519 0.9288,5.9472 0.756,3.2616 2.7144,8.0496 4.5936,10.8 z m -20.88003,6.48 c 0,0 -1.4184,0 -1.4184,0 0,0 0,2.88 0,2.88 0,0 5.7384,10.08 5.7384,10.08 -0.0648,-6.4512 -1.3968,-7.4304 -4.32,-12.96 z m -7.2,7.2 c 0,0 -0.72,0 -0.72,0 0,0 0.72,0.72 0.72,0.72 0,0 0,-0.72 0,-0.72 z m -7.2,7.2 c 0,0 1.1736,6.48 1.1736,6.48 0,0 -0.4536,5.76 -0.4536,5.76 0,0 5.76,-1.44 5.76,-1.44 -0.0936,-7.2864 -1.8288,-4.9896 -6.48,-10.8 z m 42.48003,2.16 c -1.62,4.1328 1.4904,8.5968 4.32,11.52 -0.1008,-5.6448 -0.9864,-6.9552 -4.32,-11.52 z m -30.96003,5.76 c 0,0 -0.72,2.88 -0.72,2.88 0,0 7.2,-0.72 7.2,-0.72 0,0 -6.48,-2.16 -6.48,-2.16 z m -26.64,5.76 c 0,0 -0.72,0 -0.72,0 0,0 0.72,0.72 0.72,0.72 0,0 0,-0.72 0,-0.72 z m -57.60001,186.48 c 3.2904,1.9008 6.4872,7.6968 6.48,11.52 0,0 -6.48,-11.52 -6.48,-11.52 z m 13.68,6.48 c 2.0448,2.2176 2.5416,3.5928 1.44,6.48 0,0 -1.44,-6.48 -1.44,-6.48 z m 6.48002,33.84 c 0,0 0.72,0 0.72,0 0,0 -0.72,0.72 -0.72,0.72 0,0 0,-0.72 0,-0.72 z m -66.24002,57.6 c -1.8792,4.7952 1.3104,6.624 0.8424,9.2808 -0.36,2.016 -2.6424,2.8224 -4.4424,2.3544 -2.0448,-0.5328 -7.164,-5.0688 -9.36,-6.5952 0.216,1.4688 0.8712,5.8248 -2.0736,4.9032 -1.1304,-0.3528 -2.2032,-2.052 -3.3336,-2.7504 -1.4976,-0.9216 -2.9952,-0.5544 -4.5792,-1.4472 -2.0808,-1.1736 -2.0376,-2.628 -5.1336,-4.3056 0,2.1024 0.6552,10.4976 -3.492,9.216 -1.0296,-0.3168 -4.3992,-4.392 -5.868,-5.616 0,0 -11.7792,11.0088 -11.7792,11.0088 0,0 0,8.4312 0,8.4312 0,0 2.2392,12.96 2.2392,12.96 0,0 2.34,7.2 2.34,7.2 0,0 7.2,0.9936 7.2,0.9936 0,0 6.48,0 6.48,0 0,0 4.32,0.9072 4.32,0.9072 -2.6784,-0.3744 14.4864,-0.1008 11.52,0 3.0672,-0.1152 4.6944,-1.9368 7.2,-2.268 2.5416,-0.3312 4.2984,1.188 6.2784,0.6048 0,0 7.5816,-5.1408 7.5816,-5.1408 1.3032,-1.1808 1.908,-2.8296 4.2048,-4.2912 1.6344,-1.044 2.6208,-1.0728 4.2264,-1.692 2.8368,-1.1016 3.276,-2.3472 5.8176,-3.7512 0,0 7.8552,-3.6936 7.8552,-3.6936 1.6776,-0.9216 3.1176,-1.7496 2.4624,-3.9528 -0.4968,-1.6488 -2.2392,-2.9232 -3.3768,-5.1048 -2.5704,-4.9392 0.0792,-5.9976 -6.2496,-9.3312 -4.2192,4.0032 -4.2336,-1.6704 -10.8,-6.48 0,0 -2.16,2.88 -2.16,2.88 2.3832,3.996 0.216,4.4784 -2.1024,2.6712 -1.5768,-1.224 -4.5288,-5.2416 -5.8176,-6.9912 z m -327.6,24.48 c -4.8024,0 -8.9784,0.0936 -13.68,1.3896 -2.7072,0.7416 -4.0536,1.6416 -6.48,2.6928 0,0 -6.48,2.6496 -6.48,2.6496 -7.7544,4.2552 -20.4264,15.5808 -26.8416,21.96 0,0 -8.4384,7.308 -8.4384,7.308 5.8032,-0.7344 10.2816,-2.9088 14.7024,-6.732 3.5352,-3.0456 6.48,-7.056 10.4976,-9.3384 5.4576,-3.096 16.6896,-3.564 19.44,-4.4928 3.6648,-1.224 6.7896,-4.896 9.5616,-7.4376 4.5216,-4.1544 4.4712,-0.5472 7.7184,-7.9992 z m 374.4,22.32 c -0.7704,-1.008 -4.6368,-5.9904 -5.3784,-6.4008 -2.2968,-1.2744 -10.3824,1.8144 -12.3264,3.3984 -0.9792,0.8064 -1.116,1.2888 -1.7352,2.2824 0,0 5.04,0.4752 5.04,0.4752 0,0 7.2,-0.828 7.2,-0.828 0,0 7.2,1.0728 7.2,1.0728 z m -443.52,1.44 c -4.4352,0.8424 -5.9832,2.1456 -8.64,5.76 3.348,-1.2816 6.1992,-3.1248 8.64,-5.76 z m 33.84,10.8 c 0,0 -5.04,3.6 -5.04,3.6 0,0 5.04,-3.6 5.04,-3.6 z m 23.04,1.44 c -4.9896,1.4256 -16.8768,6.3504 -20.16,10.08 5.9544,-1.3248 16.2576,-5.4144 20.16,-10.08 z m 402.48,15.12 c 0,0 -5.292,-5.7888 -5.292,-5.7888 0,0 -3.0456,-6.0192 -3.0456,-6.0192 0,0 -9.6624,-1.7496 -9.6624,-1.7496 0,0 -11.52,4.3272 -11.52,4.3272 0,0 -7.2,0 -7.2,0 5.6736,2.7576 12.42,5.6232 18.72,6.7392 0,0 7.92,0.468 7.92,0.468 4.9392,0.6552 4.0896,2.7504 10.08,2.0232 z m 30.24001,27.36 c 0,0 -6.79679,2.1456 -6.79679,2.1456 0,0 -2.3832,5.7744 -2.3832,5.7744 0,0 -3.06,12.96 -3.06,12.96 5.5368,-4.4784 4.3632,-5.1048 11.52,-2.88 2.15279,-2.5128 2.50559,-2.9016 5.75999,-3.6 0,-8.5752 -0.576,-6.9984 -5.04,-14.4 z m -470.16001,17.28 c 0,0 -3.6,2.16 -3.6,2.16 0,0 3.6,-2.16 3.6,-2.16 z m -5.76,2.16 c 0,0 -0.72,0 -0.72,0 0,0 0.72,0.72 0.72,0.72 0,0 0,-0.72 0,-0.72 z m -2.88,1.44 c 0,0 -3.6,1.44 -3.6,1.44 0,0 3.6,-1.44 3.6,-1.44 z m -3.6,1.44 c 0,0 -2.88,2.16 -2.88,2.16 0,0 2.88,-2.16 2.88,-2.16 z m 469.44002,0 c -4.6584,3.0744 -6.4656,3.4272 -8.64,8.64 0,0 7.2,-2.16 7.2,-2.16 0,0 1.44,-6.48 1.44,-6.48 z m -337.68002,58.32 c -3.0456,2.772 -2.844,4.0032 -2.88,7.92 3.3048,-2.052 2.8656,-4.3848 2.88,-7.92 z m 13.68,0.72 c -6.5304,5.4432 -5.3064,7.0704 -4.32,14.4 3.7368,-3.3984 3.6864,-9.612 4.32,-14.4 z m 9.36,1.44 c -1.5984,2.1744 -1.7064,3.2472 -0.72,5.76 0,0 0.72,-5.76 0.72,-5.76 z m -1.44,10.08 c -2.2104,2.7216 -2.9952,5.3712 -1.44,8.64 1.6704,-3.384 2.6856,-4.932 1.44,-8.64 z m 15.12,9.36 c 0,0 -0.72,3.6 -0.72,3.6 0,0 0.72,-3.6 0.72,-3.6 z m -171.36,51.84 c -4.0896,2.3688 -4.752,5.832 -6.5736,10.08 0,0 -5.8536,12.24 -5.8536,12.24 0,0 -2.6928,7.2 -2.6928,7.2 -1.6488,3.2616 -7.7832,9.7056 -10.4904,12.96 0,0 -9.1008,12.168 -9.1008,12.168 -2.2032,2.34 -4.2552,2.88 -5.5152,4.6728 0,0 -5.1984,14.1192 -5.1984,14.1192 -1.3536,3.2544 -2.844,4.572 -4.9752,7.2 13.0608,-4.1256 16.02,-12.5208 23.3784,-22.32 0,0 14.7888,-18.72 14.7888,-18.72 2.0088,-2.5704 5.508,-6.5448 6.7968,-9.36 3.0096,-6.5808 4.0536,-22.5072 5.436,-30.24 z m 31.68,14.4 c 0,0 -0.72,0 -0.72,0 0,0 0.72,0.72 0.72,0.72 0,0 0,-0.72 0,-0.72 z m -56.88,13.68 c 0,0 -0.72,0 -0.72,0 0,0 0.72,0.72 0.72,0.72 0,0 0,-0.72 0,-0.72 z m -107.28,44.64 c -4.2696,0.7488 -2.9952,1.7568 -5.3568,9.36 0,0 -11.0952,23.76001 -11.0952,23.76001 -1.1664,4.1256 -4.032,9.1368 1.332,10.08 0,0 3.0672,-10.8 3.0672,-10.8 4.6512,-11.62801 11.9304,-18.62641 12.0528,-32.40001 z m -92.88,56.15997 c 0,0 -2.88,4.3201 -2.88,4.3201 0,0 2.88,-4.3201 2.88,-4.3201 z m 54.72,25.9201 c -1.62,1.3896 -3.1032,3.0816 -5.0472,4.0104 -4.1112,1.9512 -4.8384,-0.065 -8.6328,4.6296 5.5224,-1.1232 12.3552,-2.4624 13.68,-8.64 z"
     style="fill:#000000;stroke:none" />
</svg>
