<?xml version="1.0" encoding="UTF-8" standalone="no"?>
<svg
   xmlns:dc="http://purl.org/dc/elements/1.1/"
   xmlns:cc="http://creativecommons.org/ns#"
   xmlns:rdf="http://www.w3.org/1999/02/22-rdf-syntax-ns#"
   xmlns:svg="http://www.w3.org/2000/svg"
   xmlns="http://www.w3.org/2000/svg"
   xmlns:sodipodi="http://sodipodi.sourceforge.net/DTD/sodipodi-0.dtd"
   xmlns:inkscape="http://www.inkscape.org/namespaces/inkscape"
   width="100mm"
   height="100mm"
   viewBox="0 0 566.90005 566.89991"
   version="1.1"
   id="svg416"
   sodipodi:docname="pantodar.svg"
   inkscape:version="1.0.1 (3bc2e813f5, 2020-09-07)">
  <metadata
     id="metadata422">
    <rdf:RDF>
      <cc:Work
         rdf:about="">
        <dc:format>image/svg+xml</dc:format>
        <dc:type
           rdf:resource="http://purl.org/dc/dcmitype/StillImage" />
        <dc:title></dc:title>
      </cc:Work>
    </rdf:RDF>
  </metadata>
  <defs
     id="defs420" />
  <sodipodi:namedview
     pagecolor="#ffffff"
     bordercolor="#666666"
     borderopacity="1"
     objecttolerance="10"
     gridtolerance="10"
     guidetolerance="10"
     inkscape:pageopacity="0"
     inkscape:pageshadow="2"
     inkscape:window-width="3840"
     inkscape:window-height="2066"
     id="namedview418"
     showgrid="false"
     inkscape:zoom="1.6310818"
     inkscape:cx="869.83342"
     inkscape:cy="443.19702"
     inkscape:window-x="-11"
     inkscape:window-y="-11"
     inkscape:window-maximized="1"
     inkscape:current-layer="svg416"
     inkscape:document-rotation="0" />
  <path
     id="Sélection #15"
     fill="none"
     stroke="black"
     stroke-width="1"
     d="m 291.37115,41.381449 c 0,0 14,4 14,4 0,0 -1,3 -1,3 0,0 4,-1 4,-1 0,0 5,4 5,4 0,0 1,5 1,5 0,0 4,-2 4,-2 0,0 1,1 1,1 0,0 -4,5 -4,5 0,0 7,-3 7,-3 0,0 -4,6 -4,6 0,0 4,-2 4,-2 0,0 0,4 0,4 4.56,1.84 3.95,3.41 4,8 0,0 4,-2 4,-2 0,0 -1,5 -1,5 0,0 4,-4 4,-4 0,0 -1,6 -1,6 0,0 6,-1 6,-1 0,0 -2,4 -2,4 0,0 6,0 6,0 0,0 -2,3 -2,3 0,0 2,2 2,2 0,0 4,-1 4,-1 0,0 15,7.31 15,7.31 0,0 13,6.36 13,6.36 0,0 20,8.220001 20,8.220001 0,0 10,5.39 10,5.39 0,0 9,3.18 9,3.18 0,0 11,3.54 11,3.54 0,0 -1,3 -1,3 0,0 4,2 4,2 0,0 3,-3 3,-3 0,0 -2,5 -2,5 0,0 5,-2 5,-2 0,0 6,5.99999 6,5.99999 0,0 5,-2 5,-2 2.04,2.84 2.64,2.34 6,2 0,0 8,10 8,10 0,0 4,-1 4,-1 0,0 1,5 1,5 0,0 5,-1 5,-1 0,0 0,4 0,4 0,0 2,-2 2,-2 2.63,4.69 2.71,5.04 8,6 0,0 -1,4 -1,4 2.94,-0.5 4.12,-1.18 5,2 0,0 4,4 4,4 0,0 3,-1 3,-1 0,0 -1,5 -1,5 0,0 2,2 2,2 0,0 3,-1 3,-1 0,0 -2,5 -2,5 0,0 5,-3 5,-3 0,0 1,8 1,8 0,0 4,-3 4,-3 0,0 -3,6 -3,6 0,0 7,0 7,0 0,0 -6,4 -6,4 0,0 6,-2 6,-2 0,0 1,4 1,4 0,0 -5,3 -5,3 0,0 8,0 8,0 0,0 -6,3 -6,3 0,0 4,0 4,0 0,0 0,2 0,2 0,0 -5,2 -5,2 0,0 5,1 5,1 0,0 -4,3 -4,3 0,0 4,0 4,0 0,0 0,2 0,2 0,0 -4,1 -4,1 0,0 7,3 7,3 0,0 -4,3 -4,3 0,0 7,2 7,2 0,0 -6,3 -6,3 0,0 3,3 3,3 0,0 -3,1 -3,1 0,0 4,3 4,3 0,0 -5,1 -5,1 0,0 0,2 0,2 0,0 4,2 4,2 0,0 -5,1 -5,1 0,0 6,6 6,6 0,0 -4,0 -4,0 0,0 3,5 3,5 0,0 -5,-1 -5,-1 0,0 1,6 1,6 -2.26,1.1 -1.79,3.81 -2.2,6.08 -1.03,5.71 -3.71,3.46 -1.8,9.92 -2.17,1.95 -1.65,2.21 -1,5 0,0 -1,1 -1,1 0,0 -3,-1 -3,-1 0,0 1,4 1,4 0,0 -2,0 -2,0 0,0 1,5 1,5 0,0 -1,0 -1,0 0,0 -2,-2 -2,-2 0,0 -5,10 -5,10 0,0 3,2 3,2 0,0 -8,4 -8,4 0,0 2,4 2,4 0,0 -4,-1 -4,-1 0,0 1,5 1,5 0,0 -3,1 -3,1 0,0 1,3 1,3 0,0 -3,-1 -3,-1 0,0 0,6 0,6 0,0 -3,-1 -3,-1 0,0 0,4 0,4 -3.08,2.03 -2.76,2.5 -2,6 0,0 -4,0 -4,0 0,0 3,4 3,4 -4.37,-0.48 -5.91,-0.86 -6,4 0,0 -2,3 -2,3 0,0 -4,0 -4,0 0,0 1,3 1,3 0,0 -2,-1 -2,-1 0,0 -1,1 -1,1 -0.83,3.3 -1.84,3.14 -5,4 0,0 1,3 1,3 0,0 -3.73,4.5 -3.73,4.5 -3.6,3.56 -5.96,2.16 -5.27,8.5 0,0 -7,-1 -7,-1 0,0 2,4 2,4 0,0 -4,0 -4,0 0,0 4,5 4,5 -6.92,-0.68 -7.73,0.18 -6,7 0,0 -4,0 -4,0 0,0 3,4 3,4 0,0 -7,-1 -7,-1 0,0 3,5 3,5 0,0 -5,-2 -5,-2 0,0 1,3 1,3 0,0 -5,1 -5,1 0,0 2,2 2,2 0,0 -5,-1 -5,-1 -0.52,4.03 -0.38,4.9 -4,7 0,0 2,2 2,2 0,0 0,1 0,1 0,0 -6,-2 -6,-2 0,0 4,5 4,5 0,0 -6,-2 -6,-2 0,0 3,4 3,4 0,0 -3,2 -3,2 0,0 2,2 2,2 0,0 -8,-3 -8,-3 0,0 6,8 6,8 0,0 -4,1 -4,1 0,0 2,2 2,2 0,0 -10,-1.66 -10,-1.66 0,0 -8,-2.34 -8,-2.34 0,0 3.91,6.68 3.91,6.68 0,0 5.09,6.32 5.09,6.32 0,0 -5,-2 -5,-2 0,0 6,7 6,7 0,0 -4,-1 -4,-1 0,0 2,4 2,4 0,0 -9,-3 -9,-3 0,0 6,6 6,6 0,0 -6,0 -6,0 0,0 11,4 11,4 0,0 -9,2 -9,2 5.71,0.02 8.15,-0.58 11,5 0,0 -5,0 -5,0 0,0 0,3 0,3 0,0 3,0 3,0 -1.74,5.84 -6.33,7.58 -11,11 0,0 12,-4 12,-4 0,0 -9,8 -9,8 0,0 8,-1 8,-1 -2.12,1.57 -1.95,1.54 -1,4 0,0 -3,2 -3,2 0,0 5,-1 5,-1 0,0 2,5 2,5 0,0 -4,0 -4,0 0,0 0,2 0,2 5.26,0.12 8.03,0.22 12,4 -6.19,-0.56 -7.41,-2.67 -13,0 0,0 9,3 9,3 0,0 -1,3 -1,3 0,0 -1,2 -1,2 4.09,1.36 4.65,1.29 7,5 7.62,-1.92 8.05,2.91 16.04,10.28 3.49,3.23 7.08,6.59 9.52,10.72 2.11,3.54 1.68,5.05 3.82,8 6.05,8.32 12.41,10.56 13.85,11.8 2.75,2.36 0.8,2.8 6.77,6.2 0,0 -1,4 -1,4 5.84,2.43 1.33,7.08 -5,6.07 -10.06,-1.62 -24.83,-13.06 -32,-20.07 0,0 2.59,7.96 2.59,7.96 1.31,6.98 0.35,10.62 6.41,16.04 0,0 -2,4 -2,4 3,0.25 4.85,0.26 6.55,3.15 1.8,3.05 2.21,8.36 -2.61,8.52 -4.64,0.15 -8.66,-3.37 -12.03,-6.05 -11.53,-9.19 -12.97,-13.46 -18.57,-26.62 0,0 -3.62,-9.96 -3.62,-9.96 -4.5,-7.7 -12.19,-9.17 -19.72,-12.11 0,0 -8,-3.76 -8,-3.76 0,0 -9,-3.66 -9,-3.66 -7.46,-3.49 -8.93,-6 -18,-5.51 0,0 -2,-4 -2,-4 0,0 -3,1 -3,1 -1.92,-3.77 -2.19,-4.93 -6,-7 0,0 0,4 0,4 0,0 -2,-7 -2,-7 0,0 -5,2 -5,2 0,0 3,6 3,6 0,0 -5,-4 -5,-4 0,0 -1,4 -1,4 0,0 -4,-5 -4,-5 0,0 1,4 1,4 0,0 -6,-4 -6,-4 0,0 -2,-4 -2,-4 0,0 0,5 0,5 0,0 -3,-4 -3,-4 0,0 0,6 0,6 0,0 -2,-6 -2,-6 0,0 0,4 0,4 0,0 -4,-3 -4,-3 0,0 -3,1 -3,1 0,0 1,3 1,3 -6.95,-0.57 -10.43,-1.55 -17,2 0,0 -4,0 -4,0 -4.88,-5.84 -8.16,-2.11 -13.08,-2.82 -4.06,-0.25 -3.08,-2.5 -7.92,0 0,0 -3,-2.18 -3,-2.18 0,0 0,2 0,2 0,0 -15,2 -15,2 0,0 -3,-4 -3,-4 0,0 -1,3 -1,3 0,0 0,-4 0,-4 0,0 -5,4 -5,4 0,0 -1,-3 -1,-3 0,0 -2,0 -2,0 0,0 -1,3 -1,3 0,0 -7,-3 -7,-3 0,0 -3,3.19 -3,3.19 -2.31,-2.36 -3.94,-0.73 -6.72,0 -6.2,2.25 -11.26,2.22 -16.28,6.81 0,0 -4,-1 -4,-1 1.36,4.08 -0.52,4.82 -3,8 0,0 -2,0 -2,0 0,0 -5,-5 -5,-5 -2.07,8.25 -4.51,5.65 -9.72,7.89 0,0 -6.28,3.11 -6.28,3.11 0,0 -5,-5 -5,-5 0,0 -1,4 -1,4 0,0 -3,-4 -3,-4 0,0 0,10 0,10 0,0 -3,-7 -3,-7 0,0 -2,0 -2,0 0,0 -1,5 -1,5 -4.21001,-1.42 -4.36001,-1.38 -7.00001,-5 0,0 1,6 1,6 -2,-0.38 -7.8,-1.97 -9.41,-1.47 -2.09,0.67 -3.77,3.21 -5.88,4.54 -5.12,3.23 -9.29,0.69 -13.71,-2.07 0,0 2,9 2,9 -10.56,-4.43 -10.06,1.59 -16.17,2.55 -3.979997,0.86 -6.629997,-1.99 -12.829997,0 -5.06,1.38 -13.36,5.75 -16,-1.55 0,0 -5,0 -5,0 0,0 2,-6 2,-6 0,0 -4,1 -4,1 1.65,-5.16 5.89,-6.09 11,-6.49 0,0 5,0 5,0 0,0 15,-5.47 15,-5.47 0,0 4.999997,-2.89 4.999997,-2.89 3.41,-1.6 4.88,-0.82 10,-3.48 6.42,-3.33 15.07,-8.89 22,-10.67 0,0 0,-2 0,-2 0,0 -6,-3 -6,-3 -2.08,1.83 -2.53,1.04 -5,0 0,0 0,6 0,6 0,0 -12,-5.11 -12,-5.11 0,0 -6.91,-2.34 -6.91,-2.34 0,0 -6.089997,3.45 -6.089997,3.45 0,0 1,-5 1,-5 -4.61,0.88 -6.47,1.33 -8,6 0,0 -4,-4 -4,-4 0,0 -4,2 -4,2 0.04,-12.08 5.49,-11.06 15,-15.05 2.96,-1.25 4.589997,-2.61 7.999997,-3.1 10,-1.42 15.87,3.1 25,3.15 4.89,0.03 16.6,0.75 21.00001,2 0,0 0,-2 0,-2 0,0 8,1 8,1 0,0 1,-15 1,-15 0,0 -3,2 -3,2 0,0 3,-6 3,-6 0,0 -5,3 -5,3 0,0 0,-5 0,-5 0,0 1,-3 1,-3 0,0 -3,1 -3,1 0,0 3,-6 3,-6 0,0 -5,2 -5,2 0,0 -3,-10 -3,-10 0,0 -3.00001,5 -3.00001,5 0,0 -1,-5 -1,-5 0,0 -4.45,3.55 -4.45,3.55 -3.28,3.22 -4.31,7.04 -8.63,9.34 -2.72,1.63 -10.81,4.99 -11.89,0 -0.37,-1.87 1.31,-5.16 1.97,-6.89 0,0 3,1 3,1 0,0 -1,-5 -1,-5 4.83,-4.96 1.42,-6.42 0,-14 0,0 -7,1 -7,1 0,0 1,3 1,3 0,0 -4,-4 -4,-4 0,0 -1,7 -1,7 -4.22,-1.35 -14.199997,-9.74 -15.839997,-14 -0.51,-1.98 -0.13,-5.71 0,-8 2.13,-1.32 13.189997,-8.73 14.359997,-10.21 2.51,-3.16 1.22,-7.41 8.76,-11.69 3.59,-2.04 12.24,-2.51 16.72,-3.1 0,0 -1,-6 -1,-6 7.23,2.3 10.75,6.65 17.00001,9.74 5.05,2.5 10.83,3.3 15.83,6.86 6.59,4.7 16.84,13.07 24.59,15.25 3.76,1.05 6.73,-0.48 10.58,-0.56 0,0 14,0 14,0 7.5,-0.28 9.37,-0.44 17,1.02 3.26,0.62 6.78,2.37 10,1.88 0,0 13,-4.85 13,-4.85 0,0 27,-8.09 27,-8.09 5.9,-1.95 9.22,-4.36 16,-5.08 0,0 17,0.98 17,0.98 0,0 18.17,0 18.17,0 0,0 19.83,1.39 19.83,1.39 0,0 13,-2.01 13,-2.01 3.25,-0.71 20.6,-10.34 23.91,-12.62 5.17,-3.55 5.25,-5.87 12.09,-6.91 0,0 0,-6 0,-6 3.63,-0.97 3.55,-1.62 5,-5 0,0 11,-5 11,-5 0,0 1,-7 1,-7 5.06,1.39 5.5,-1.66 6,-6 3.87,-1.18 6.68,-6.08 9.37,-9.13 0,0 11.42,-11.31 11.42,-11.31 0,0 6.58,-8.56 6.58,-8.56 0,0 8.69,-10 8.69,-10 0,0 9.36,-16 9.36,-16 11.96,-21.2 16.62,-27.98 18.4,-53 0.23,-3.3 -0.34,-4.77 -0.78,-7.83 0,0 0,-11.17 0,-11.17 -1.03,-6.72 -4.72,-18.83 -9.04,-24 0,0 1,-3 1,-3 0,0 -4,0 -4,0 -0.19,-7.99 -12.44,-13.2 -15,-21 0,0 -4,1 -4,1 -2.24,-3.79 -2.58,-4.95 -7,-6 -2.59,-3.92 -14.25,-7.17 -19,-9.43 0,0 -12,-6.52 -12,-6.52 0,0 -7,-5.13 -7,-5.13 0,0 -22,-9.16999 -22,-9.16999 -7.17,-2.38 -24.79,-6.95 -29,-12.75 -5.87,3.86 -11.77,0.51 -15,-5 0,0 -4,4 -4,4 0,0 0,-6 0,-6 0,0 -4,3 -4,3 0,0 1,-4 1,-4 -7.28,0.74 -9.32,-1.67 -12,-8.000001 0,0 -3.21,2 -3.21,2 0,0 0,-4.03 0,-4.03 0,0 -10.79,-9.97 -10.79,-9.97 -0.28,-4.66 -0.84,-6.59 -5,-9 -1.01,-4.02 -1.35,-4.93 -5,-7 0,0 0,-4 0,-4 0,0 -6,3 -6,3 0,0 2,-5 2,-5 -8.83,-2.07 -12.24,-3.84 -21,1.23 -2.15,1.25 -6.26,3.02 -5,5.77 0,0 -6.24,9 -6.24,9 -1.53,2.86 -2.09,5.87 -2.76,9 -2.51,11.7 -1.24,15.840001 7.07,25.000001 2.58,2.83 4.55,5.16 7.93,7 0,0 -1,4 -1,4 3.68,1.94 4.81,2.98 6,6.99999 0,0 6,1 6,1 0,0 -1,0 -1,0 0,0 -2,2 -2,2 0,0 6,2 6,2 0,0 -2,3 -2,3 0,0 4,1 4,1 0,0 -1,2 -1,2 0,0 6,3 6,3 0,0 -4,1 -4,1 0,0 6,2 6,2 0,0 0,7 0,7 0,0 7,4 7,4 0,0 -4,1 -4,1 0,0 3,2 3,2 0,0 -4,1 -4,1 0,0 5,5 5,5 0,0 -2,0 -2,0 0,0 1,6 1,6 0,0 -1,0 -1,0 0,0 -2,-2 -2,-2 1.87,7.23 1.97,5.48 1,13 0,0 -2,-1 -2,-1 0,0 -1,8 -1,8 0,0 -2,-2 -2,-2 0,0 -3,7 -3,7 0,0 0,-4 0,-4 0,0 -10.91,8.4 -10.91,8.4 0,0 -19.09,8.27 -19.09,8.27 0,0 -15,6.7 -15,6.7 0,0 -11,5.49 -11,5.49 0,0 -12,4.31 -12,4.31 -12.28,5.71 -23.31,17.76 -24,31.83 -2.94,0.96 -5.18,4.35 -8.78,3.23 -3.57,-1.12 -4.09,-7.14 -3.74,-10.23 0.96,-8.56 7.79,-19.45 13.81,-25.42 10.3,-10.23 17.16,-11.9 29.71,-17.44 0,0 28,-12.28 28,-12.28 8.64,-3.85 19.45,-9 25.58,-16.45 3.5,-4.26 1.55,-7.45 4.42,-14.41 0,0 -4,1 -4,1 0,0 -1,-11 -1,-11 0,0 -3,2 -3,2 -0.46,-7.8 -5.49,-12.02 -10.21,-18 0,0 -10.42,-11.99999 -10.42,-11.99999 0,0 -6.81,-9 -6.81,-9 -7.77,-9.27 -8.99,-7.67 -12.47,-20.000001 -0.69,-2.45 -1.49,-4.4 -1.45,-7 0,0 1.1,-7 1.1,-7 0.88,-5.71 -0.02,-8.49 4.26,-13 0,0 -2,-4 -2,-4 0,0 4,-1 4,-1 0,0 -3,-2 -3,-2 0,0 5.55,-3.45 5.55,-3.45 0,0 5.22,-4.73 5.22,-4.73 0,0 7.23,-5.82 7.23,-5.82 3.37,-0.18 3.27,-0.1 5,-3 0,0 6,-1 6,-1 3.09,0.74 3.89,1.58 6,-1 2.86,0.81 3.06,1.35 5,-1 z m 206,134.999991 c 0,0 -1,0 -1,0 0,0 1,1 1,1 0,0 0,-1 0,-1 z m -84,202 c 0,0 -1,0 -1,0 0,0 1,1 1,1 0,0 0,-1 0,-1 z m -6,9 c 0,0 -1,0 -1,0 0,0 1,1 1,1 0,0 0,-1 0,-1 z m -9,46 c 0,0 1,0 1,0 0,0 -1,1 -1,1 0,0 0,-1 0,-1 z m -3,26 c 0,0 -4,2 -4,2 0,0 4,-2 4,-2 z m 4,7 c 0,0 -2,1 -2,1 0,0 3,2 3,2 0,0 -1,-3 -1,-3 z m -71,4 c 0,0 -1,0 -1,0 0,0 1,1 1,1 0,0 0,-1 0,-1 z m -29,3 c 0,0 -1,0 -1,0 0,0 1,1 1,1 0,0 0,-1 0,-1 z m 25,0 c 0,0 -1,0 -1,0 0,0 1,1 1,1 0,0 0,-1 0,-1 z m -188.00001,1 c 0,0 -3,0 -3,0 0,0 2,3 2,3 0,0 1,-3 1,-3 z m 67.00001,0 c 0,0 -1,0 -1,0 0,0 1,1 1,1 0,0 0,-1 0,-1 z m 3,1 c 0,0 -1,0 -1,0 0,0 1,1 1,1 0,0 0,-1 0,-1 z m 92,0 c 0,0 -1,0 -1,0 0,0 1,1 1,1 0,0 0,-1 0,-1 z m -178.00001,26 c 0.05,2.97 1.43,3.07 4,4 0,0 -4,-4 -4,-4 z m 298.00001,6 c -0.56,2.58 -0.05,2.48 2,4 0,0 -2,-4 -2,-4 z"
     style="fill:#000000;stroke:none" />
</svg>
