<?xml version="1.0" encoding="UTF-8" standalone="no"?>
<svg
   xmlns:dc="http://purl.org/dc/elements/1.1/"
   xmlns:cc="http://creativecommons.org/ns#"
   xmlns:rdf="http://www.w3.org/1999/02/22-rdf-syntax-ns#"
   xmlns:svg="http://www.w3.org/2000/svg"
   xmlns="http://www.w3.org/2000/svg"
   xmlns:sodipodi="http://sodipodi.sourceforge.net/DTD/sodipodi-0.dtd"
   xmlns:inkscape="http://www.inkscape.org/namespaces/inkscape"
   width="100mm"
   height="100mm"
   viewBox="0 0 566.90064 566.89999"
   version="1.1"
   id="svg443"
   sodipodi:docname="quileurbist.svg"
   inkscape:version="1.0.1 (3bc2e813f5, 2020-09-07)">
  <metadata
     id="metadata449">
    <rdf:RDF>
      <cc:Work
         rdf:about="">
        <dc:format>image/svg+xml</dc:format>
        <dc:type
           rdf:resource="http://purl.org/dc/dcmitype/StillImage" />
        <dc:title></dc:title>
      </cc:Work>
    </rdf:RDF>
  </metadata>
  <defs
     id="defs447" />
  <sodipodi:namedview
     pagecolor="#ffffff"
     bordercolor="#666666"
     borderopacity="1"
     objecttolerance="10"
     gridtolerance="10"
     guidetolerance="10"
     inkscape:pageopacity="0"
     inkscape:pageshadow="2"
     inkscape:window-width="3840"
     inkscape:window-height="2066"
     id="namedview445"
     showgrid="false"
     inkscape:zoom="0.74078769"
     inkscape:cx="1903.6065"
     inkscape:cy="832.11282"
     inkscape:window-x="-11"
     inkscape:window-y="-11"
     inkscape:window-maximized="1"
     inkscape:current-layer="svg443"
     inkscape:document-rotation="0" />
  <path
     id="Sélection"
     fill="none"
     stroke="#000000"
     stroke-width="0.45"
     d="m 384.77476,110.81534 c 1.2555,3.276 -1.6695,6.183 -1.8,12.15 0,0 1.8,0 1.8,0 0.1485,-1.7595 0.0765,-2.097 1.8,-2.7 0,0 0.45,1.8 0.45,1.8 6.9345,-2.8845 11.187,1.818 18,0 3.5775,5.9445 3.879,-0.801 9.45,-2.25 0.7785,4.3335 0.324,3.627 0,7.65 5.715,0.4185 4.509,-3.8025 9.9,-4.95 -0.4455,1.3365 -1.8045,4.6395 -1.611,5.85 0.5715,3.6495 4.824,3.3435 7.461,2.7 0.576,3.5595 2.151,3.1005 4.4055,5.121 0.918,0.8235 1.5435,2.106 2.8395,2.3625 1.044,0.207 2.5425,-0.4185 3.555,-0.7335 0,0 -0.45,3.15 -0.45,3.15 4.6485,-0.216 5.5215,-1.2645 9.45,-2.7 0.351,1.863 1.0035,6.696 4.032,5.364 1.0215,-0.45 2.475,-2.5695 3.618,-3.564 0.4815,1.4535 0.9045,6.7815 3.078,6.1515 1.035,-0.3015 0.9135,-1.35 3.222,-2.1015 0,0 1.35,4.5 1.35,4.5 6.066,-3.1275 6.3045,-7.7085 12.6,-10.8 -1.71,5.994 -4.0455,5.7735 -4.05,13.95 0,0 5.85,-2.7 5.85,-2.7 0,0 0.909,3.501 0.909,3.501 1.0035,1.6335 3.3705,1.935 4.941,1.0305 2.727,-1.5705 5.076,-5.8635 7.65,-8.1315 -0.5175,3.3345 -2.484,7.7805 -4.05,10.8 3.222,0.4095 3.6585,-1.476 6.3,-3.15 0.9765,2.0115 1.6335,6.9885 4.49997,6.417 0,0 3.6,-1.917 3.6,-1.917 0.3015,0.783 0.8775,2.4345 1.314,3.0555 0.522,0.747 1.062,1.0935 1.845,1.5255 0.9945,0.5445 2.907,1.3905 4.041,1.233 2.799,-0.3825 3.861,-3.933 8.55,-4.464 -0.1395,3.0195 -1.044,5.796 -2.25,8.55 1.6245,0.5625 5.2245,2.313 6.75,1.872 1.575,-0.4545 3.456,-2.9565 4.95,-4.122 -0.4185,2.655 -1.8315,4.9185 -1.611,6.282 0.225,1.413 5.382,6.3855 6.75,6.7005 0,0 4.761,-0.3825 4.761,-0.3825 -0.432,4.788 -2.367,4.7385 0,9.45 -4.59,3.951 -5.625,8.352 -7.794,10.2015 -2.448,2.0835 -2.4615,-1.395 -5.7105,0.6525 -4.482,2.8215 -4.473,5.967 -5.454,7.479 -0.657,1.008 -1.656,1.413 -2.1465,2.4255 -0.5625,1.1565 0.108,1.467 -0.945,3.9915 -5.778,-1.2465 -4.1895,0.3015 -6.9345,2.7225 -1.332,1.1745 -2.2905,1.269 -3.4875,3.1365 0,0 -1.656,3.3795 -1.656,3.3795 -0.5715,0.6975 -5.895,4.2255 -6.82197,4.6125 -0.9855,0.405 -1.665,0.4545 -2.7045,0.549 0,0 0,1.8 0,1.8 -0.1755,3.924 -2.502,1.9215 -4.9455,1.35 0.3015,5.1615 4.0635,5.346 6.75,10.35 -5.6385,-0.2745 -6.6645,-2.7405 -11.25,-4.05 0,0 0,7.65 0,7.65 -1.4265,-0.252 -3.1275,-0.954 -4.5,-0.567 -3.231,0.9135 -3.879,4.176 -8.55,5.067 3.438,4.1265 5.193,0.441 7.65,4.05 -2.241,0.1035 -2.979,0.2205 -4.95,1.35 0,0 1.35,0.45 1.35,0.45 0,0 -3.6,5.85 -3.6,5.85 0,0 11.25,0 11.25,0 -2.7495,4.3335 -4.653,5.2695 -8.1,8.568 -1.476,1.4085 -3.609,3.9105 -5.4,4.7025 -1.818,0.801 -8.1675,1.6875 -7.8255,4.734 0.1305,1.206 1.719,2.7315 2.916,2.871 0.909,0.1035 5.04,-1.0665 6.2595,-1.3365 3.6405,-0.801 4.4775,-0.639 8.1,-0.639 -2.331,3.2445 -8.406,7.119 -12.15,8.55 0.387,1.3635 1.1115,3.708 2.3715,4.491 0.8955,0.5535 2.4435,0.459 3.4785,0.459 3.267,0.005 10.4265,-0.3465 13.05,1.35 0,0 -9,2.862 -9,2.862 0,0 -3.573,2.2365 -3.573,2.2365 0,0 0,2.5515 0,2.5515 0,0 4.023,-0.9 4.023,-0.9 0,0 -3.6,7.65 -3.6,7.65 5.1075,0.963 7.6185,-0.027 12.6,-1.35 -2.619,4.7655 -5.9715,3.357 -9,9 0,0 4.05,0.9 4.05,0.9 -0.0855,2.3895 -0.288,4.212 1.1925,6.291 2.6235,3.699 5.76,1.8765 3.7575,6.309 0,0 4.5,1.8 4.5,1.8 0,0 0,0.9 0,0.9 -1.746,1.035 -2.232,1.305 -3.15,3.15 2.223,0.351 6.0435,1.413 5.112,4.5 -0.288,0.954 -1.7595,2.673 -2.412,3.6 0,0 11.24997,0 11.24997,0 -3.8475,5.2065 -10.24197,3.8025 -12.32547,8.55 -0.576,1.314 -0.3555,2.6685 -0.2745,4.05 1.989,0.306 5.976,1.116 7.2,2.7 0,0 -2.7,0.9 -2.7,0.9 2.376,0.9495 3.6495,1.17 5.39997,3.15 -3.50547,0 -7.23597,-0.684 -9.79647,2.2725 -0.414,0.4815 -0.891,1.125 -0.981,1.7685 -0.3105,2.2455 4.149,3.222 0.8775,5.409 0,0 1.35,4.95 1.35,4.95 0.621,0.072 1.179,0.081 1.7775,0.333 4.2435,1.773 0.333,6.129 0.783,7.8435 0,0 3.078,5.7735 3.078,5.7735 0.918,2.394 0.6615,5.1165 0.6615,7.65 0,0 2.24997,0.45 2.24997,0.45 -1.3365,2.529 -2.60997,2.079 -3.33447,3.6945 -1.4445,3.24 -0.702,12.8835 0.9585,16.0875 1.38147,2.664 3.74847,2.4165 4.21197,4.536 0.18,0.837 -0.5715,3.42 -0.837,4.482 0,0 0,7.2 0,7.2 4.2165,0.0135 5.076,0.8055 7.101,0.738 1.935,0.1395 3.0015,-0.837 4.95,0 7.263,2.628 8.7165,15.2775 11.3445,21.762 0.738,1.8315 1.584,3.393 2.8395,4.932 0.936,1.1565 2.43,2.106 2.5785,3.636 0,0 -0.828,5.382 -0.828,5.382 -0.567,3.3975 -1.089,8.163 -2.52,11.25 -1.0215,2.205 -2.5065,3.2445 -3.1095,4.95 -1.044,2.9655 1.7055,6.5295 2.142,9.45 0.693,4.635 -3.0375,9.6165 -6.597,12.132 -1.3905,0.981 -2.7495,2.0475 -4.5,1.818 2.313,-1.809 6.8985,-8.1045 5.3505,-11.187 -0.7785,-1.5435 -2.4615,-1.143 -3.2175,-2.826 -1.458,-3.258 2.2365,-6.6105 -2.583,-8.514 -0.81,-0.315 -1.3725,-0.3825 -2.1735,0 0,0 -2.871,1.827 -2.871,1.827 1.1565,2.5515 1.3635,6.4035 0,8.865 -1.116,1.719 -2.1735,0.513 -4.203,5.535 -1.179,2.916 -2.5875,9.045 -2.412,12.15 0,0 0.4095,4.05 0.4095,4.05 -6.02997,-2.925 -4.51347,-12.978 -3.789,-18.45 0.234,-1.7955 0.054,-3.6855 0.702,-5.4 1.557,-4.1085 3.987,-3.69 3.087,-9 -2.0295,1.62 -7.98747,5.355 -8.91447,7.218 -1.215,2.4345 1.116,3.4155 -1.53,6.732 -4.194,5.256 -5.7285,2.835 -8.2935,7.2 -2.1285,3.627 -1.953,7.8255 -4.662,11.25 -3.708,-11.4435 3.6045,-18.657 8.55,-27.9 -4.176,-0.5445 -3.7035,0.756 -6.75,1.5795 -1.6875,0.4545 -3.0825,-0.0945 -5.4,0.909 -4.572,1.98 -7.047,6.8445 -8.028,11.4615 -2.6145,-1.773 -0.9945,-5.823 0,-8.1 2.1375,-4.4055 4.0545,-5.508 7.5195,-8.433 0,0 2.061,-1.9215 2.061,-1.9215 1.7955,-1.1475 3.303,-0.005 6.5475,-4.4955 1.179,0.243 3.1005,1.1205 4.05,0.909 1.242,-0.2835 4.9725,-3.591 6.3,-4.545 0,0 5.26047,-3.0285 5.26047,-3.0285 1.17,-0.9945 1.0125,-2.1735 1.818,-2.7855 0.9,-0.684 2.2005,-0.1035 3.2715,-0.288 1.0305,-0.1755 3.105,-1.4355 3.78,-2.2365 1.107,-1.3095 0.594,-4.2705 0.855,-6.0255 0.567,-3.852 2.5605,-4.9275 1.7235,-6.732 -0.8685,-1.8675 -5.4315,-3.78 -7.2405,-5.067 -0.954,-0.6795 -2.0745,-1.935 -3.2085,-2.106 -1.2285,-0.189 -3.68097,0.99 -6.70947,0.8145 -4.032,-0.234 -7.497,-1.854 -9.0225,-5.8095 -1.2465,-3.24 -0.1485,-4.3425 -2.4255,-7.65 -1.2645,-1.836 -5.085,-5.7555 -5.697,-7.2 -0.4905,-1.5705 0.585,-2.736 0,-3.8925 -0.8505,-1.341 -2.6145,-0.225 -3.276,-1.656 -0.5445,-1.1745 0.4275,-2.331 -0.243,-4.3515 0,0 -4.509,-9.45 -4.509,-9.45 -1.7595,-4.6395 -1.116,-6.723 -2.106,-9.9 -0.7695,-2.475 -2.988,-5.1255 -4.221,-7.65 -5.7825,3.375 -14.679,14.697 -22.05,16.812 -1.4625,0.423 -4.644,0.2835 -6.3,0.288 -6.5655,0.009 -4.9905,1.3995 -9.9,3.8295 -1.0485,0.5175 -3.51,1.404 -3.51,2.8395 0,1.224 2.574,1.89 3.51,2.2455 0,0 3.6,1.2015 3.6,1.2015 2.9295,0.63 3.6225,-0.4905 7.0695,3.384 2.088,2.349 8.397,10.485 9.7965,13.05 0,0 2.385,5.4 2.385,5.4 0,0 3.105,5.4 3.105,5.4 1.521,3.2895 0.594,3.987 1.746,6.3 0,0 5.148,8.55 5.148,8.55 -6.0525,1.719 -11.2545,-2.9835 -12.6,4.05 -5.6205,0.1215 -9.783,2.673 -13.95,6.2415 -1.314,1.125 -3.2445,2.5875 -4.0455,4.1085 -0.612,1.1565 -0.7965,3.1905 -0.9045,4.5 0,0 -5.85,1.908 -5.85,1.908 -0.873,0.2295 -2.3265,0.3555 -3.0285,0.801 -1.197,0.756 -1.2735,2.088 -2.871,3.267 0,0 -2.574,1.476 -2.574,1.476 -2.25,1.7505 -3.5235,4.6215 -3.6765,7.398 -4.1895,-3.357 -3.9105,-10.3455 -0.6525,-14.3595 1.593,-1.9575 3.1185,-2.0385 3.987,-2.9835 0.6255,-0.6885 0.8775,-2.0115 1.1655,-2.871 -1.1565,-0.045 -3.5685,-0.3015 -4.5,0 -1.2825,0.495 -3.2805,2.4435 -4.5,3.321 -1.098,0.792 -2.3895,1.3005 -3.3705,2.2275 -0.891,0.846 -1.3635,1.8675 -2.52,2.5065 -0.9585,0.531 -4.0815,0.8505 -5.3595,1.1115 -2.43,0.495 -5.0445,1.422 -7.2,2.6505 -6.732,3.834 -7.335,8.3205 -9.9,11.547 -0.3735,-1.5345 -0.6165,-2.9205 -0.2745,-4.5 0.216,-1.0035 3.987,-8.37 4.689,-9.45 0.6525,-0.999 1.467,-1.8135 2.2635,-2.7 2.133,-2.3715 3.0375,-3.672 6.372,-4.05 -1.1025,-1.4265 -2.34,-2.7675 -3.618,-4.0455 -5.229,-5.2335 -10.6605,-2.0925 -14.364,3.1455 -1.287,1.8225 -2.286,4.7025 -4.068,5.85 0.153,-6.921 2.7405,-12.924 9.45,-15.804 1.701,-0.7335 4.4505,-1.3545 6.3,-1.215 2.6415,0.2025 3.8745,1.017 5.85,1.53 1.6875,0.252 2.187,-0.2925 4.05,0 1.4625,0.405 3.519,1.4355 4.95,1.3365 2.6955,-0.1935 10.602,-5.9445 11.7,-6.2685 1.8405,-0.54 3.834,0.7875 5.4,0.999 0,0 6.3,-0.378 6.3,-0.378 0,0 -0.3735,-2.7 -0.3735,-2.7 0,0 0,-1.341 0,-1.341 0.549,-4.0725 3.7125,-0.045 4.8645,0.243 0.99,0.243 2.2365,-0.7155 3.159,-1.152 0,0 -1.35,-4.5 -1.35,-4.5 0,0 4.05,1.8 4.05,1.8 0.2385,-0.8505 0.4545,-2.124 1.161,-2.6955 1.0935,-0.8865 3.924,-0.3015 3.2715,-4.4865 -0.45,-2.898 -7.3395,-5.7645 -9.8325,-7.2225 -7.785,-4.5585 -10.125,-8.3565 -15.3,-11.4885 -5.1885,-3.141 -7.335,-1.584 -10.341,-3.78 -0.702,-0.513 -1.3725,-1.1025 -1.8045,-1.8675 -0.63,-1.116 -1.674,-5.7825 -0.9045,-6.867 0.612,-0.864 1.7505,-1.008 2.7,-1.1925 0.5445,-5.112 2.7315,-3.8655 5.3955,-5.985 1.35,-1.0755 3.4605,-3.8115 4.554,-5.265 0,0 6.525,-9.8055 6.525,-9.8055 1.503,-1.7325 3.861,-2.3355 6.2505,-5.4945 2.142,-2.8305 0.2475,-3.483 1.224,-5.247 0.99,-1.7955 4.131,-1.9305 5.6835,-3.168 1.8225,-1.4535 0.8595,-2.8755 1.7865,-3.915 0.9495,-1.053 2.2275,-0.198 3.357,-0.5175 1.8225,-0.5085 1.9665,-1.836 5.724,-2.4525 -1.476,-3.123 -3.357,-3.6495 -4.284,-5.526 -0.855,-1.746 -1.5615,-10.233 -1.4715,-12.474 0,0 0,-13.05 0,-13.05 0.27,-1.3095 1.1025,-6.1425 0.666,-7.0785 -0.5175,-1.107 -2.376,-1.674 -3.4605,-2.061 -2.493,-0.891 -5.8185,-1.8765 -8.1,-3.168 -3.5055,-1.98 -4.86,-6.0525 -7.7805,-8.7165 -1.134,-1.0395 -5.4945,-2.4885 -7.0695,-2.781 0,0 -2.25,-0.3195 -2.25,-0.3195 -2.376,-0.7695 -1.6245,-1.755 -5.4,-1.9755 -1.872,-3.636 -3.7935,-1.098 -4.9365,-4.077 0,0 0,-7.623 0,-7.623 -0.639,-5.508 -3.735,-10.341 -8.5635,-13.104 -1.0755,-0.6165 -2.8035,-1.413 -4.05,-1.4355 -2.997,-0.0585 -5.0265,3.636 -7.1595,4.4685 0,0 -1.9665,0.3645 -1.9665,0.3645 -0.846,0.2655 -1.3725,0.765 -2.574,1.0215 -2.556,0.549 -11.196,-0.6975 -13.95,-1.3815 -3.402,-0.8505 -7.911,-2.6055 -10.2825,-5.2515 -1.728,-1.9215 -1.485,-5.6295 -5.0175,-5.517 -2.2455,0.072 -4.698,3.924 -6.057,5.526 -2.3895,2.8125 -3.951,2.79 -4.923,3.8925 -1.2105,1.377 -0.297,3.132 -1.1655,4.383 -0.747,1.0665 -2.8665,1.485 -5.2065,3.96 -2.0115,2.1285 -4.9095,7.902 -8.505,4.6125 -0.774,-0.711 -2.142,-3.1905 -2.1825,-4.239 0.0585,-1.2555 1.053,-1.9485 0,-3.582 -1.4715,-2.106 -3.2085,-2.0385 -4.8105,-5.3955 2.5335,0.1845 6.6105,0.945 9,0 1.008,-0.36 2.61,-1.404 2.421,-2.6775 -0.153,-1.026 -1.6515,-1.782 -2.4165,-2.3355 -1.5075,-1.0935 -1.8225,-1.503 -2.7045,-3.1095 4.266,1.035 5.571,-0.4455 9.45,-1.8 0,0 -2.25,-3.6 -2.25,-3.6 0,0 5.85,-3.15 5.85,-3.15 -3.24,-4.2795 -3.6675,-3.537 -6.732,-6.381 -0.72,-0.6705 -2.241,-2.691 -2.8845,-2.9205 -0.5625,-0.2835 -1.0845,-0.162 -1.6335,0 -2.601,1.008 -2.646,3.3345 -2.7,5.7015 -2.3265,-1.3455 -2.3265,-2.052 -3.15,-4.5 -2.547,1.53 -2.682,2.6055 -2.25,5.4 -2.583,-0.765 -3.501,-1.5255 -4.5,-4.05 -3.627,3.996 -4.6755,8.181 -3.915,13.5 0,0 0.765,4.5 0.765,4.5 -3.897,-2.934 -5.3595,-7.884 -5.4,-12.6 -2.988,1.386 -3.3885,0.3465 -5.4,2.7 0,0 -1.8,-3.15 -1.8,-3.15 0,0 -1.467,2.25 -1.467,2.25 0,0 -0.783,10.35 -0.783,10.35 -3.429,-2.0025 -2.421,-6.9975 -3.51,-10.35 -0.63,-1.944 -1.8765,-3.3255 -3.69,-4.2525 -1.2105,-0.6165 -3.852,-1.179 -3.915,-2.889 -0.1035,-2.8305 4.419,-1.719 5.7105,-3.348 1.1655,-1.467 0.603,-3.258 1.3635,-4.8105 0.6615,-1.35 2.376,-2.7225 3.4065,-4.95 0.882,-1.9035 0.7065,-3.3885 0.6345,-5.4 0,0 4.95,0.5265 4.95,0.5265 1.008,-0.198 1.935,-0.864 2.691,-1.521 5.256,-4.554 2.637,-8.532 7.209,-10.4895 2.457,-1.053 5.427,-1.0215 7.641,-2.4615 0.8775,-0.5715 2.277,-1.701 1.476,-2.8665 -0.3015,-0.432 -1.008,-0.765 -1.476,-0.9765 -3.564,-1.62 -4.0905,-0.3645 -7.191,-0.477 -1.5615,-0.0585 -8.0595,-1.1745 -9.45,-1.683 0,0 -3.6,-1.5525 -3.6,-1.5525 0,0 -4.05,-0.981 -4.05,-0.981 -3.051,-1.098 -13.383,-6.6555 -16.2,-8.5815 -5.832,-3.987 -5.6025,-5.589 -13.05,-8.046 -5.9715,-1.971 -6.291,0.468 -9.9,0.7605 -1.395,0.1125 -10.4715,-1.413 -11.655,-1.953 -1.737,-0.792 -2.538,-3.4065 -3.8835,-5.148 -2.7225,-3.5325 -5.256,-5.031 -9.6615,-5.4 -0.18,-3.0555 -1.3005,-4.509 -4.05,-5.9265 -0.9585,-0.4905 -2.5875,-0.9135 -3.276,-1.5975 0,0 -2.034,-3.726 -2.034,-3.726 -1.494,-2.196 -3.6495,-4.3515 -5.4495,-6.3 0,0 -5.0715,-6.3 -5.0715,-6.3 0,0 -9.369,-9.45 -9.369,-9.45 0,0 -4.968,-5.3235 -4.968,-5.3235 0,0 -4.932,-4.239 -4.932,-4.239 0,0 -4.05,-2.718 -4.05,-2.718 -3.582,-2.8215 -6.9795,-6.741 -11.25,-8.451 0,0 -3.15,-0.927 -3.15,-0.927 0,0 -3.15,-1.3815 -3.15,-1.3815 -1.3185,-0.3735 -2.0745,0.1035 -4.05,-0.4635 -2.8935,-0.8325 -3.0195,-2.1285 -6.30001,-1.2465 0.594,1.179 0.88651,1.962 1.89901,2.8755 0.927,0.837 2.376,1.4265 2.952,2.6055 0.54,1.2105 -0.171,2.106 0,3.519 0.171,1.044 1.0845,2.529 1.3725,5.4 0.549,5.4765 -0.423,8.145 -0.8235,13.05 0,0 -0.9,0 -0.9,0 -0.666,-3.6675 -2.115,-5.364 -3.708,-8.55 -0.61201,-1.224 -1.38151,-3.33 -2.32651,-4.2075 -1.485,-1.3725 -4.4865,-1.5705 -6.2955,-4.3515 -1.1925,-1.827 -0.4005,-3.4965 -0.9495,-5.391 -1.152,-4.0095 -6.489,-9.36 -11.0205,-8.91 -3.3525,0.3285 -4.9365,2.6505 -9.45,3.06 -0.351,1.9305 -1.08,4.275 -2.4255,5.7555 0,0 -3.1095,2.52 -3.1095,2.52 -0.972,1.134 -1.2375,3.222 -4.5,7.0245 -2.3085,2.6955 -5.4045,4.5405 -7.209,7.65 -2.0745,3.5775 -3.158997,9.945 -7.505997,11.25 0,-4.9725 0.153,-8.082 2.637,-12.6 0,0 5.102997,-7.524 5.102997,-7.524 0.7605,-1.6335 -0.576,-2.5245 0.3555,-4.626 0,0 3.393,-4.95 3.393,-4.95 1.1205,-1.899 1.4085,-3.339 2.0115,-5.4 -2.322,2.025 -7.848,8.172 -9.292497,10.8 -1.4805,2.6955 -1.0845,4.158 -2.34,6.3 0,0 -2.8935,4.05 -2.8935,4.05 0,0 -5.2695,8.1 -5.2695,8.1 -5.499,9.4005 -7.6545,16.5915 -7.6545,27.45 -4.698,-0.7695 -3.564,-4.6215 -3.2265,-8.1 0,0 0.414,-4.5 0.414,-4.5 1.2825,-7.9065 4.0905,-15.3675 6.561,-22.95 0,0 2.8665,-10.7235 2.8665,-10.7235 0,0 2.835,-3.6765 2.835,-3.6765 -14.9805,2.115 -22.671,15.0525 -26.676,28.35 0,0 -2.385,9 -2.385,9 -0.468,2.115 -0.648,4.5495 -1.989,6.3 0,-1.17 0.09,-2.9745 -0.261,-4.05 -0.4455,-1.3635 -1.26,-1.908 -1.467,-3.6 0,0 0.4545,-7.65 0.4545,-7.65 0.702,-7.0155 3.249,-14.931 7.3215,-20.7 2.6325,-3.735 4.7565,-5.058 6.417,-7.2 1.5075,-1.944 1.0125,-2.8935 2.1735,-4.095 0,0 4.2615,-3.0555 4.2615,-3.0555 0,0 8.1,-6.3495 8.1,-6.3495 -5.823,0.0585 -6.1785,2.475 -10.8,4.545 -3.258,1.458 -3.3435,0.0225 -8.1,2.8575 -8.253,4.9185 -13.104,12.213 -15.4665,21.3975 0,0 -1.008,4.5 -1.008,4.5 0,0 0.2745,4.05 0.2745,4.05 -2.628,-2.3625 -2.691,-5.679 -2.817,-9 -0.2745,-7.4295 2.241,-14.5485 7.011,-20.25 0,0 6.0165,-5.697 6.0165,-5.697 1.899,-2.025 0.3375,-4.221 2.5155,-5.841 2.0025,-1.4895 7.731,-2.4075 10.224,-2.3535 0.9405,0.1395 1.71,0.387 2.619,0 1.17,-0.6975 1.7775,-2.088 2.331,-3.2085 3.7665,0.333 3.5865,-0.8325 6.75,-2.25 0,0 0.45,1.35 0.45,1.35 0,0 2.7,-3.15 2.7,-3.15 1.017,0.3825 2.6415,1.2735 3.6,1.3005 2.1645,0.063 3.9465,-1.7235 5.526,-2.439 1.4895,-0.6795 4.193997,-0.594 8.423997,-4.023 1.287,-1.0395 5.175,-5.085 6.6555,-5.04 1.6605,0.0495 1.6965,2.8215 2.349,3.762 1.143,1.6425 2.2365,0.2385 3.1455,2.8395 4.5585,-1.962 5.4675,-3.3705 6.75,0.45 3.0825,-2.3175 13.212,-4.9005 11.25,2.25 0,0 6.3,2.88 6.3,2.88 0,0 9.90001,-3.78 9.90001,-3.78 -0.3195,2.3625 -1.386,3.4335 -0.5895,4.8195 1.6605,2.8935 4.896,3.366 7.7895,4.1265 0,0 14.85,5.544 14.85,5.544 0,0 6.732,2.511 6.732,2.511 1.989,0.1215 2.52,-2.169 4.4595,-1.89 2.124,0.297 1.035,3.1815 1.1655,4.23 0.3105,2.556 3.114,3.1005 5.193,2.709 1.0485,3.7395 1.341,3.0555 4.5,5.211 0.7695,0.5265 1.683,1.3905 2.682,1.269 1.2465,-0.153 1.512,-1.5255 4.518,-2.43 0,0 -1.35,5.4 -1.35,5.4 0,0 5.4,2.4615 5.4,2.4615 0,0 3.6,-1.1115 3.6,-1.1115 0.3285,2.088 0.972,4.149 2.781,5.4495 1.3995,0.999 2.502,0.6345 3.3975,1.89 0.6885,0.972 1.1385,3.8925 2.826,3.8925 1.8045,0 1.503,-2.511 4.4955,-4.032 0,0 -0.423,6.255 -0.423,6.255 0,0 2.673,4.995 2.673,4.995 0,0 4.95,-2.25 4.95,-2.25 0.4455,1.5435 0.9315,5.0895 2.7495,5.4585 0.6975,0.144 2.9835,-0.756 4.0005,-0.9585 0,0 -0.45,2.25 -0.45,2.25 0,0 5.85,-1.8 5.85,-1.8 -0.5085,1.197 -2.1735,3.6585 -2.2455,4.5 -0.1485,1.728 2.916,4.4775 4.4955,4.788 1.5165,0.315 2.9115,-1.215 4.167,0 1.269,1.206 0.162,4.3695 3.492,5.679 1.8585,0.7335 5.7735,-0.1305 7.443,0.963 2.025,1.332 -0.927,3.8745 2.0475,5.5305 1.5885,0.882 7.47,0.918 8.424,1.3095 2.034,0.837 4.194,5.6295 6.363,6.5205 1.6875,0.6975 2.331,-1.485 3.9735,-1.0575 1.1025,0.288 1.5165,1.737 2.5155,2.358 0.5895,0.369 1.386,0.4635 2.07,0.387 2.547,-0.3015 2.6505,-2.376 2.7045,-4.428 5.5485,0.3285 4.5405,3.8025 6.9255,5.3955 0,0 8.3745,2.2545 8.3745,2.2545 0,0 2.25,-4.05 2.25,-4.05 0,0 0,3.6 0,3.6 4.086,0.198 7.9875,2.1195 11.25,4.5 0,0 3.15,-4.95 3.15,-4.95 0.153,1.1475 0.4995,5.0625 0.909,5.805 0.9945,1.791 5.2335,3.0915 7.191,3.645 0,0 2.7,-8.55 2.7,-8.55 1.773,3.4605 2.007,5.7735 2.7945,9.45 0.2835,1.3275 0.7065,3.7035 1.8945,4.491 0.954,0.6345 3.564,0.459 4.761,0.459 0,0 0,2.7 0,2.7 3.1635,-2.2725 4.1985,-5.0535 8.1,-6.3 -0.2745,5.562 -2.808,5.7735 -3.6,10.8 7.11,-0.0225 7.047,-2.6235 12.6,-5.85 -0.198,4.041 -1.278,4.2705 -2.376,7.65 -0.3285,1.071 -0.7515,2.4165 0,3.4155 0,0 4.626,2.8845 4.626,2.8845 0,0 6.3,-6.3 6.3,-6.3 0,0 -0.9,7.2 -0.9,7.2 0,0 11.7,-7.2 11.7,-7.2 -0.8055,4.302 -3.33,5.283 -2.25,9.9 0,0 4.5135,-4.05 4.5135,-4.05 0,0 4.4865,-12.6 4.4865,-12.6 1.7325,4.743 1.0035,8.019 1.611,12.6 0.171,1.2915 0.0225,3.789 0.909,4.68 0.6255,0.63 2.4075,0.8955 3.33,1.17 0,0 5.4,-14.4 5.4,-14.4 1.7145,2.6505 0.459,7.155 0.45,10.35 5.292,-3.0915 6.057,-7.128 10.35,-10.35 -0.2835,3.114 -1.7955,6.1425 -3.024,9 -0.4185,0.972 -1.584,3.456 -1.422,4.446 0.3195,1.8765 4.6485,2.016 5.9355,0 0.9225,-1.4265 -0.27,-5.0085 -0.5895,-6.696 0,0 5.85,2.124 5.85,2.124 0,0 2.241,-0.6885 2.241,-0.6885 0,0 1.9485,-1.9305 1.9485,-1.9305 0,0 -1.4895,-8.055 -1.4895,-8.055 4.1895,0.4365 7.497,3.4155 10.35,2.7495 5.103,-1.197 3.897,-8.163 7.65,-11.7495 0,0 1.6695,7.65 1.6695,7.65 0,0 1.6155,3.105 1.6155,3.105 0,0 3.915,0 3.915,0 0,0 -0.45,-8.505 -0.45,-8.505 0,0 4.2255,5.0625 4.2255,5.0625 0,0 5.2245,2.1375 5.2245,2.1375 0.621,-1.566 1.188,-2.7855 1.305,-4.5 0.468,-6.6555 -6.4395,-15.1245 -2.205,-22.05 0,0 3.3435,8.55 3.3435,8.55 0,0 6.5565,14.85 6.5565,14.85 3.9285,-2.241 7.9245,-4.1175 6.75,-9.45 0,0 2.25,1.35 2.25,1.35 0,0 1.35,0 1.35,0 0,0 1.4805,-3.6 1.4805,-3.6 1.2375,-3.384 0.81,-4.4865 3.6135,-7.6095 4.4415,-4.941 13.4325,-7.1775 20.106,-13.5405 0,0 -9.45,-4.743 -9.45,-4.743 -2.151,-0.8415 -4.446,-0.936 -6.3,-2.07 -2.421,-1.485 -4.5585,-4.293 -6.75,-6.1515 -0.6975,-0.5895 -1.341,-1.1205 -2.25,-1.3365 -1.6065,-0.378 -4.131,0.9135 -3.6,-3.249 -3.708,-0.9315 -3.834,-2.16 -6.75,-3.582 0,0 -12.6,-6.183 -12.6,-6.183 -3.4875,-2.25 -3.546,-3.465 -5.418,-4.77 0,0 -8.082,-3.519 -8.082,-3.519 -3.2265,-1.6155 -4.131,-3.033 -5.85,-4.032 0,0 -7.65,-3.231 -7.65,-3.231 -2.1465,-1.1025 -5.292,-3.105 -7.2,-4.5765 -4.869,-3.744 -4.194,-4.572 -8.1,-3.4065 -1.935,-2.502 -2.916,-3.1725 -5.85,-4.3065 -1.4985,-0.5805 -6.462,-2.691 -7.65,-2.628 -2.2995,0.126 -6.597,2.124 -8.55,3.375 0,0 -3.15,2.1645 -3.15,2.1645 -1.6515,0.8865 -2.358,0.432 -4.05,0.5445 -2.745,0.1755 -4.2795,1.5525 -6.75,2.25 -2.4705,0.801 -3.8745,0.585 -6.3,0 0,0 -0.45,2.2005 -0.45,2.2005 -2.0025,-0.072 -2.5695,0.0315 -3.6,-1.8 -6.516,1.332 -9.099,4.2885 -13.95,8.352 0,0 -8.172,5.7735 -8.172,5.7735 0,0 -3.1905,7.0245 -3.1905,7.0245 -2.5335,5.103 -5.526,11.0115 -6.5385,16.65 -0.7515,5.2425 -0.1395,4.5315 0,9 -2.4165,-1.872 -2.4975,-3.15 -3.3975,-5.85 -2.79,-8.37 -0.828,-11.916 1.8,-19.8 0.5985,-1.8 1.305,-5.9445 2.2005,-7.056 0,0 4.6215,-3.8745 4.6215,-3.8745 2.9565,-2.8395 5.3505,-6.165 7.2765,-9.7695 -1.2195,-0.005 -2.9295,-0.144 -4.05,0.252 -3.5235,1.2375 -6.9165,6.9075 -9.9,9.567 -1.5615,1.3905 -2.8935,1.989 -4.2255,3.699 -1.116,1.431 -1.8315,3.3525 -3.15,4.527 0,0 -2.5245,1.7685 -2.5245,1.7685 -3.609,2.4795 -6.03,4.7835 -8.343,8.5365 -4.6125,7.488 -4.5225,11.475 -6.507,19.35 -2.376,-2.16 -1.8135,-4.221 -1.8,-7.2 0.0315,-7.0515 2.826,-14.8095 6.615,-20.7 0,0 3.582,-4.95 3.582,-4.95 1.6335,-2.4885 0.9225,-3.789 4.0185,-6.5025 1.125,-0.9855 2.5065,-1.1205 3.7845,-1.773 1.323,-0.675 4.545,-3.6225 5.8455,-4.7745 0.6705,-0.5895 1.773,-1.458 2.0385,-2.3265 0.2115,-0.6975 -0.0765,-1.494 -0.234,-2.1735 -5.301,1.2105 -10.071,3.8115 -13.932,7.668 0,0 -5.625,6.3675 -5.625,6.3675 -0.7605,0.585 -5.6655,3.15 -6.543,3.3345 -2.061,0.423 -2.448,-0.5265 -4.95,0.9585 -10.0935,5.9805 -13.167,15.309 -16.2,25.7715 0,0 -0.9,0 -0.9,0 -5.8455,-11.4795 5.1525,-22.6845 12.6,-30.15 0,0 5.022,-5.8095 5.022,-5.8095 2.5065,-2.07 6.2235,-0.9 8.928,-5.8905 0,0 -7.2,2.115 -7.2,2.115 0,0 -4.5,0 -4.5,0 0,0 -3.6,1.701 -3.6,1.701 0,0 -5.85,2.349 -5.85,2.349 0,0 -3.15,2.6415 -3.15,2.6415 0,0 -11.7,9.1935 -11.7,9.1935 2.781,-12.195 12.969,-18.0495 22.9455,-23.7555 0,0 4.0725,-3.042 4.0725,-3.042 4.8375,-2.565 11.3895,1.1025 14.382,-5.1525 11.4075,2.043 15.309,-2.6235 23.85,-8.55 3.1815,2.097 4.1715,1.368 7.2,-0.45 4.257,2.8035 5.22,0.342 9,-1.35 0,0 0,1.35 0,1.35 4.1985,-3.312 2.286,-5.751 5.85,-7.65 0,0 0.45,9 0.45,9 5.904,-0.207 2.6235,-4.104 7.2,-5.85 1.3185,2.8665 0.585,3.3165 0.45,6.3 0,0 2.7,-2.25 2.7,-2.25 0,0 2.7,1.8 2.7,1.8 1.3185,-1.449 2.6685,-2.403 4.05,-0.45 5.3235,-2.6145 7.6905,-8.0055 12.15,-11.7 z"
     style="fill:#000000;stroke:none" />
</svg>
