<?xml version="1.0" encoding="UTF-8" standalone="no"?>
<svg
   xmlns:dc="http://purl.org/dc/elements/1.1/"
   xmlns:cc="http://creativecommons.org/ns#"
   xmlns:rdf="http://www.w3.org/1999/02/22-rdf-syntax-ns#"
   xmlns:svg="http://www.w3.org/2000/svg"
   xmlns="http://www.w3.org/2000/svg"
   xmlns:sodipodi="http://sodipodi.sourceforge.net/DTD/sodipodi-0.dtd"
   xmlns:inkscape="http://www.inkscape.org/namespaces/inkscape"
   width="100mm"
   height="100mm"
   viewBox="0 0 1181.1016 1181.1028"
   version="1.1"
   id="svg3"
   sodipodi:docname="rananevre.svg"
   inkscape:version="1.0.1 (3bc2e813f5, 2020-09-07)">
  <metadata
     id="metadata9">
    <rdf:RDF>
      <cc:Work
         rdf:about="">
        <dc:format>image/svg+xml</dc:format>
        <dc:type
           rdf:resource="http://purl.org/dc/dcmitype/StillImage" />
        <dc:title></dc:title>
      </cc:Work>
    </rdf:RDF>
  </metadata>
  <defs
     id="defs7" />
  <sodipodi:namedview
     pagecolor="#ffffff"
     bordercolor="#666666"
     borderopacity="1"
     objecttolerance="10"
     gridtolerance="10"
     guidetolerance="10"
     inkscape:pageopacity="0"
     inkscape:pageshadow="2"
     inkscape:window-width="3840"
     inkscape:window-height="2066"
     id="namedview5"
     showgrid="false"
     units="mm"
     inkscape:zoom="1"
     inkscape:cx="30.93073"
     inkscape:cy="440.79982"
     inkscape:window-x="-11"
     inkscape:window-y="-11"
     inkscape:window-maximized="1"
     inkscape:current-layer="svg3"
     inkscape:document-rotation="0" />
  <path
     id="Sélection #1"
     fill="none"
     stroke="#000000"
     stroke-width="0.704"
     d="m 253.0913,432.96514 c 3.71008,0.19712 4.5056,2.37952 7.04704,4.92096 0,0 7.73696,7.04704 7.73696,7.04704 1.80928,1.68256 4.95616,4.6464 7.71584,3.88608 1.63328,-0.45056 6.72321,-5.82912 8.18049,-7.30048 0,0 11.55968,-10.22912 11.55968,-10.22912 1.584,-1.28832 4.65344,-3.26656 5.68128,-4.80832 0,0 2.18944,-5.48416 2.18944,-5.48416 1.37984,-2.87936 6.5824,-10.46144 9.08864,-12.15104 1.73184,-1.16864 3.11168,-1.04896 4.80128,-1.9008 1.70368,-0.85888 2.93568,-2.51328 4.99136,-2.52736 2.6048,-0.0141 3.7312,2.6752 6.14592,1.27424 2.98496,-1.73888 8.53952,-12.26368 12.86208,-13.12256 4.75904,-0.9504 3.44256,5.632 7.75808,4.06912 2.96384,-1.07712 5.9136,-5.61088 7.92704,-8.0256 3.47072,-4.1536 8.98304,-9.9264 13.88288,-12.27776 6.54016,-3.1328 4.45632,4.4 11.264,3.02016 8.80704,-1.78816 16.21312,-10.25728 20.416,-11.39072 3.87904,-1.04896 5.07584,2.11904 7.744,2.0416 2.90048,-0.0915 5.92768,-4.65344 9.07456,-4.224 2.93568,0.40832 2.79488,4.32256 6.42752,4.26624 3.2736,-0.0422 13.22112,-6.81472 16.17792,-8.89152 2.01344,-1.41504 4.99136,-4.06208 7.58208,-2.66112 4.74496,2.55552 -0.86592,6.74432 -2.90048,8.5888 -0.49984,0.4576 -2.52736,2.33728 -0.90112,2.83008 0.92224,0.28864 3.16096,-1.15456 4.02688,-1.60512 4.34368,-2.27392 7.51168,-6.07552 11.20064,-9.26464 3.40032,-2.93568 8.82816,-7.91297 12.672,-9.86305 9.13088,-4.62528 22.15488,-2.75264 30.976,1.76 2.55552,1.30944 9.86304,4.81537 10.67264,7.46945 1.28128,4.23104 -4.69568,5.11808 -7.15264,6.7584 -4.84352,3.23136 -7.37792,8.53248 -9.87712,13.5872 -0.79552,1.60512 -3.10464,6.4064 -1.5488,7.93408 1.74592,1.71776 7.02592,-1.96416 8.60992,-2.97088 6.18816,-3.92832 6.53312,-5.83616 11.264,-9.62368 2.30208,-1.85152 8.5184,-5.5264 11.264,-6.9696 7.71584,-4.04096 8.43392,-2.992 14.784,-5.16736 2.94976,-1.01376 6.68096,-2.75264 9.84896,-1.90784 3.40032,0.9152 6.13184,5.96992 7.96928,8.84928 0,0 11.81312,18.304 11.81312,18.304 2.17536,3.2384 4.95616,6.10368 6.29376,9.856 2.0416,5.71648 -0.37312,9.34912 -4.30848,13.34784 -4.048,4.11136 -16.88192,11.15136 -22.46464,14.14336 0,0 -9.84192,4.224 -9.84192,4.224 -1.17568,0.59136 -3.04832,1.54176 -2.19648,3.168 0.4928,0.95744 2.2528,1.59104 3.4848,3.28768 2.06976,2.8512 0.87296,4.80832 2.64,7.58912 2.0768,3.28064 7.49056,6.94144 9.20128,9.18016 2.288,2.97792 0.4928,3.9424 3.17504,6.4064 0,0 19.58528,13.62944 19.58528,13.62944 0,0 6.73728,4.31552 6.73728,4.31552 3.99872,4.09024 -3.22432,5.12512 1.25312,10.82048 3.15392,4.00576 8.66624,7.1808 13.1296,9.59552 1.78112,0.95744 5.5616,2.72448 6.81472,4.05504 2.59072,2.7456 0.27456,4.40704 2.08384,7.46944 2.82304,4.79424 9.35616,7.40608 11.2992,9.42656 1.99936,2.0768 1.34464,3.9776 3.25248,5.54048 1.6896,1.37984 4.68864,1.1968 6.82176,1.53472 5.11808,0.8096 13.67872,2.0768 17.07904,6.39936 3.24544,4.12544 -2.26688,5.984 -3.31584,7.06112 -1.4784,1.5136 -3.04832,5.15328 -1.48544,7.0048 0,0 7.23008,4.59008 7.23008,4.59008 2.56256,1.88672 3.32992,3.92832 5.89952,5.69536 0,0 7.56096,4.07616 7.56096,4.07616 0,0 3.70304,3.15392 3.70304,3.15392 3.59744,2.7808 5.40672,2.61184 9.62368,7.27232 3.78752,4.1888 -1.08416,4.2592 0.68288,7.94816 0,0 9.40544,13.36896 9.40544,13.36896 3.47072,5.05472 13.84064,9.83488 12.99584,16.192 -0.0493,1.14752 -0.4224,1.48544 0,2.816 0,0 5.67424,9.152 5.67424,9.152 0,0 10.36288,15.22048 10.36288,15.22048 0,0 4.69568,3.44256 4.69568,3.44256 6.43456,4.84352 14.28416,11.43296 14.784,20.05696 -4.8576,-0.57024 -4.26624,-1.6896 -7.36384,-4.78016 -0.95744,-0.95744 -2.83008,-2.57664 -4.31552,-1.9712 -1.30944,0.53504 -0.92928,2.20352 -0.64064,3.2384 0,0 4.00576,9.84896 4.00576,9.84896 1.07712,2.82304 2.64,7.4976 4.4352,9.79264 2.75968,3.52 11.5456,9.9264 16.368,19.07136 0.76736,1.45728 2.52032,4.78016 2.62592,6.32192 0.0493,0.81664 -0.0774,1.74592 -0.75328,2.30912 -2.4288,2.0064 -7.06816,-6.48384 -7.94816,-2.15424 -0.30272,1.5136 1.45024,5.42784 2.09792,6.8992 3.1328,7.08928 4.34368,11.02464 10.49664,16.0864 0,0 6.46272,4.00576 6.46272,4.00576 1.63328,2.22464 -2.82304,3.21728 -1.59808,5.86432 0.57728,1.23904 3.168,3.01312 4.28736,3.93536 2.816,2.33728 8.39168,7.93408 8.92672,11.64416 1.02784,7.1104 -9.06048,1.71776 -4.20992,9.152 2.59072,3.96352 8.95488,7.43424 12.8832,10.25024 0,0 10.56,8.46208 10.56,8.46208 3.68896,2.37952 4.55488,1.2672 7.744,5.22368 0,0 -9.79968,-1.1264 -9.79968,-1.1264 -4.05504,0.82368 -0.0563,4.23808 0.90816,8.8704 0.76032,3.63264 -0.0352,5.29408 3.30176,7.89184 0,0 17.0368,8.79296 17.0368,8.79296 1.056,1.14752 1.056,2.288 1.22496,3.75232 0,0 -2.10496,0 -2.10496,0 -7.9904,0.72512 2.288,7.39904 4.21696,9.19424 0,0 16.16384,13.95328 16.16384,13.95328 3.3792,3.29472 5.89248,4.8576 4.95616,9.83488 -1.16864,-0.0563 -3.05536,-0.40128 -4.16064,0 -2.30912,0.59136 -4.97024,3.79456 -3.25952,6.0896 2.0416,2.7456 6.39232,3.42848 9.53216,3.85088 0,0 0.62656,13.376 0.62656,13.376 0.4928,1.89376 2.08384,3.49888 3.01312,5.632 0.78848,1.81632 0.6688,3.06944 2.21056,4.65344 1.97824,2.02048 5.60384,2.79488 8.22976,3.696 0,0 9.856,2.62592 9.856,2.62592 0,0 13.376,4.01984 13.376,4.01984 0,0 12.672,4.56896 12.672,4.56896 0,0 24.64,7.11744 24.64,7.11744 5.46301,2.1472 6.07549,4.2592 14.78397,7.6384 5.89952,2.288 7.37792,1.11936 11.264,1.95008 0,0 9.152,2.78784 9.152,2.78784 0,0 9.85596,0.7392 9.85596,0.7392 0,0 9.152,3.11872 9.152,3.11872 0,0 16.192,1.42912 16.192,1.42912 2.43584,0.0493 8.46217,-0.0352 6.92041,-4.19584 -0.65472,-1.76704 -3.29481,-3.43552 -4.80841,-4.48448 -3.82976,-2.65408 -8.5536,-5.2448 -11.84832,-8.4128 0,0 -7.86368,-8.03968 -7.86368,-8.03968 -4.86464,-4.23104 -29.39196,-20.62016 -35.19996,-23.75296 0,0 -21.82397,-8.35648 -21.82397,-8.35648 -6.48384,-3.4496 -12.32,-7.9904 -17.39584,-13.2704 -4.12544,-4.28736 -5.30816,-7.23008 -10.76416,-11.31328 0,0 -30.976,-24.464 -30.976,-24.464 0,0 -18.71232,-14.34752 -18.71232,-14.34752 -7.2864,-6.7936 -9.91232,-11.42592 -15.03744,-19.45152 -3.59744,-5.632 -7.98336,-12.64384 -10.07424,-19.008 -4.04096,-12.27776 -2.66112,-29.1456 -2.64,-42.24 0.0211,-14.05888 2.47104,-20.79616 8.61696,-33.088 1.28832,-2.5696 2.25984,-5.3856 3.91424,-7.744 1.64736,-2.35136 3.74528,-4.20992 5.65312,-6.336 0,0 6.51904,-7.744 6.51904,-7.744 0,0 11.20064,-10.53184 11.20064,-10.53184 2.75968,-2.64 4.91392,-4.048 7.42016,-7.06816 2.23168,-2.69632 8.39168,-11.7216 9.63072,-14.784 0,0 2.66112,-9.152 2.66112,-9.152 3.45664,2.3584 2.85824,4.56192 2.816,8.448 -0.0986,8.57472 -3.67488,14.24896 -7.03296,21.824 0,0 -3.82272,8.448 -3.82272,8.448 0,0 -11.89056,24.64 -11.89056,24.64 0,0 -5.3856,11.264 -5.3856,11.264 -1.7248,5.1744 -2.30912,10.82048 -3.13984,16.192 -0.75328,4.83648 -1.99936,9.14496 -1.78816,14.08 0.352,8.3776 4.10432,17.48736 6.97664,25.344 0,0 5.18848,14.784 5.18848,14.784 2.69632,5.75872 7.4272,10.1376 11.62304,14.784 0,0 14.19968,15.28384 14.19968,15.28384 0,0 17.6,12.79168 17.6,12.79168 0,0 9.856,7.22304 9.856,7.22304 0,0 19.008,11.25696 19.008,11.25696 0,0 24.63997,15.07968 24.63997,15.07968 0,0 15.488,9.14496 15.488,9.14496 17.255,11.23584 20.82428,15.1712 35.90405,28.37824 0,0 10.15168,8.67328 10.15168,8.67328 0,0 11.67229,11.72864 11.67229,11.72864 5.9981,5.39968 8.2368,5.53344 11.8836,13.49568 2.1894,4.7872 3.3158,16.33984 1.0912,21.12 -3.5412,7.62432 -9.8138,10.79232 -17.1988,13.43936 -4.055,1.45024 -3.8227,1.98528 -8.44797,2.04864 -8.21568,0.1056 -6.9696,-0.64768 -13.37609,-1.28832 0,0 -16.192,-1.02784 -16.192,-1.02784 0,0 -11.96796,-2.38656 -11.96796,-2.38656 -10.86272,-1.88672 -22.0704,-2.91456 -33.088,-3.04128 0,0 -20.41597,-2.63296 -20.41597,-2.63296 -5.632,-1.3728 -11.05984,-3.67488 -16.896,-3.70304 0,0 -15.488,0 -15.488,0 -7.17376,-0.0845 -9.96864,-1.83744 -16.192,-3.07648 0,0 -9.152,-0.71808 -9.152,-0.71808 -4.09728,-0.93632 -6.2656,-4.44928 -9.14496,-3.6608 -2.47808,0.68288 -4.35776,4.67456 -7.744,5.47712 -3.28768,0.78144 -4.31552,-2.59072 -6.7936,-1.0208 0,0 -8.05376,10.71488 -8.05376,10.71488 0,0 -7.19488,7.08224 -7.19488,7.08224 -1.78112,2.59072 -1.95712,5.51936 -5.08288,9.0112 -2.80896,3.13984 -5.09696,3.06944 -7.16672,4.74496 -1.7952,1.4432 -4.39296,5.66716 -7.9552,8.5958 -3.72416,3.06944 -5.01952,1.56992 -7.62432,3.40032 -1.47136,1.03488 -4.70272,5.37152 -10.67968,9.03936 -3.75232,2.30208 -4.73088,1.23904 -7.744,2.79488 0,0 -9.856,7.18784 -9.856,7.18784 0,0 -19.008,6.94852 -19.008,6.94852 0,0 -6.336,1.4854 -6.336,1.4854 -4.4,1.4573 -5.57568,3.9494 -14.784,6.5894 -6.41344,1.8375 -15.74848,1.5136 -22.528,1.4362 -8.89152,-0.1056 -15.92448,-3.351 -21.12,-4.1747 0,0 -7.04,0 -7.04,0 -2.92864,-0.056 -8.272,-0.9786 -10.54592,0 -1.56992,0.6054 -3.54112,2.0486 -2.71744,3.9917 0.59136,1.3868 2.4992,1.8656 3.9072,3.8579 2.30912,3.2595 0.88,5.1885 2.7104,8.2931 2.02752,3.4496 6.30784,6.8288 7.82144,11.264 0.83776,2.4711 2.55552,7.9552 0.41536,10.0391 -3.7312,3.6397 -10.23616,-4.6816 -12.85504,-5.6743 0,0 -10.56,0.5562 -10.56,0.5562 -4.86464,-0.1197 -16.26944,-3.4707 -21.12,-5.1603 0,0 -6.336,-2.4359 -6.336,-2.4359 -1.53472,-0.1971 -4.01984,-0.1689 -5.632,0 -5.99104,-0.035 -5.3856,1.9008 -9.856,3.506 -1.99232,0.718 -4.23808,0.5772 -6.336,0.5772 0,0 -17.6,-2.0556 -17.6,-2.0556 0,0 -10.56,0 -10.56,0 -15.11488,-0.035 -29.44832,3.2524 -37.23456,17.5436 0,0 -6.09664,14.7841 -6.09664,14.7841 -0.78144,1.922 -1.56288,5.0829 -3.40736,6.2023 -2.20352,1.3446 -4.27328,0.1337 -5.27296,-2.0557 -1.33056,-3.4707 0.0634,-7.9552 0,-11.8907 -0.14784,-1.1475 -0.176,-2.3161 -0.80256,-3.3299 -1.56288,-2.5344 -8.37056,-5.5616 -11.24992,-4.2662 -3.91424,1.767 -8.8352,9.3491 -11.46816,11.5175 -1.77408,1.4643 -4.46336,2.2317 -6.01216,0 -3.07648,-4.4423 2.29504,-12.9818 3.97056,-17.2974 0.8096,-2.0908 2.6752,-5.2448 0,-6.7302 -1.18976,-0.6618 -2.7808,-0.6547 -4.09024,-0.4858 -7.63136,1.0138 -6.80768,5.1885 -11.46816,9.0253 -2.992,2.457 -6.48384,0.7744 -7.72288,-2.6329 -1.47136,-4.034 3.52704,-11.0247 6.1248,-13.8407 1.07712,-1.1687 3.24544,-2.9075 3.68192,-4.3719 0.68992,-2.2387 -1.59808,-3.7593 0,-6.1529 1.07008,-1.6263 4.74496,-2.985 6.56832,-3.9776 7.58912,-4.1395 16.31872,-5.6109 24.64,-7.7792 0,0 20.416,-6.5261 20.416,-6.5261 0,0 23.936,-3.92128 23.936,-3.92128 0,0 30.272,-3.35808 30.272,-3.35808 0,0 7.04,-0.64064 7.04,-0.64064 0,0 19.008,1.07712 19.008,1.07712 4.92096,1.13344 6.42048,4.14656 9.152,3.82976 1.30944,-0.15488 5.5616,-2.9568 7.04,-3.78752 3.33696,-1.8656 6.98368,-3.18912 9.49696,-6.25152 1.94304,-2.3584 4.60416,-11.27808 5.7024,-14.57984 2.3936,-7.20892 5.6672,-13.34076 9.74336,-19.71196 3.38624,-5.28704 6.9696,-10.93312 12.36928,-14.27712 1.34464,-0.83776 4.89984,-3.21024 4.49152,-5.09696 -0.33088,-1.54176 -3.00608,-0.0352 -4.49152,0 -2.7808,0.1056 -4.86464,-2.25984 -6.94144,-1.83744 -2.47104,0.50688 -1.3728,2.83712 -5.02656,5.01952 -1.94304,-3.4496 -3.16096,-2.33024 -6.336,-3.82272 -2.43584,-1.14752 -5.63904,-3.94944 -8.44096,-3.61152 -3.11168,0.37312 -3.9072,3.71712 -7.75104,2.68928 -4.63232,-1.23904 -6.71616,-6.01216 -11.24992,-6.10368 -3.88608,-0.0845 -3.82976,4.06912 -7.06112,4.06912 -2.68928,0 -4.12544,-3.37216 -6.39232,-4.26624 -1.13344,-0.57728 -10.50368,-0.30272 -11.90464,0 -3.64672,1.08416 -6.92736,6.34304 -9.97568,9.07456 0,0 -19.59232,14.17152 -19.59232,14.17152 0,0 -7.744,4.41408 -7.744,4.41408 -16.18496,9.52512 -17.47328,9.82784 -35.2,15.09372 -10.736,3.18912 -15.67104,5.46304 -27.456,5.60384 0,0 -21.12,0 -21.12,0 -4.63936,0 -8.95488,0.47168 -13.376,-1.11936 0,0 -9.152,-4.576 -9.152,-4.576 -1.3728,-0.4928 -3.15392,-1.31648 -4.5056,0 -0.9856,0.68992 -1.09824,2.40064 -1.40096,3.58336 -0.34496,1.34464 -1.056,2.83712 -0.83776,4.224 0.53504,3.38624 7.06112,10.36288 9.21536,13.376 1.73184,2.43584 3.98464,6.92736 -0.43648,8.1312 -4.4,1.20384 -5.88544,-2.75968 -8.49728,-5.12512 -1.232,-1.11232 -11.01056,-6.22336 -12.54528,-6.50496 -2.73152,-0.48576 -4.42816,1.74592 -9.152,2.96384 -3.04832,0.78848 -8.63104,0.54912 -11.968,0.53504 -8.43392,-0.0422 -12.16512,-3.2384 -18.304,-4.2592 -2.3232,-0.38016 -14.59392,1.88672 -16.896,2.93568 -2.90048,1.33056 -11.7568,6.10368 -14.08,7.93408 -3.22432,2.5344 -5.18848,5.32224 -9.152,7.77924 -4.03392,2.4921 -5.5616,1.1968 -9.152,3.6678 -3.95648,2.7245 -6.43456,7.2442 -8.6592,8.5747 -2.02048,1.2039 -4.62528,0.704 -7.50464,2.7245 -2.7456,1.929 -3.9776,4.8928 -5.04064,7.9552 -0.704,2.0346 -1.18976,4.9703 -3.5552,5.7447 -4.2944,1.3939 -4.12544,-4.6676 -4.10432,-7.1527 0.0422,-3.9072 1.11936,-10.1094 1.83744,-14.08 0.28864,-1.5981 1.15456,-4.5056 -0.67584,-5.3222 -1.14048,-0.7815 -2.83712,-0.1831 -3.9776,0 -2.05568,0.7884 -9.66592,3.2243 -10.98944,4.3225 0,0 -3.36512,3.9987 -3.36512,3.9987 -1.7952,1.3728 -4.59009,1.2813 -5.51233,-1.0489 -2.09792,-5.28 7.36385,-12.4467 10.71489,-15.1853 1.56992,-1.28832 5.1392,-3.6608 3.19616,-5.9488 -3.52704,-4.16064 -9.91232,-4.39296 -14.46017,-1.95008 -2.61888,1.408 -7.08928,6.78656 -9.70112,1.96416 -1.59808,-2.94272 1.3376,-5.97696 3.39328,-7.71584 4.92096,-4.17472 7.2864,-4.49152 12.64385,-7.08928 1.49952,-0.72512 5.0688,-2.37952 6.01216,-3.61152 2.36544,-3.07648 -3.42848,-5.81504 0.62656,-9.7222 4.13248,-3.98464 10.67264,-2.6752 14.48128,-4.23104 0,0 4.928,-2.12608 4.928,-2.12608 9.91936,-3.08352 22.73216,-2.65408 33.088,-2.65408 0,0 43.648,0 43.648,0 7.22304,-0.0141 5.8784,-1.24608 11.968,-4.00576 1.99232,-0.90112 4.62528,-1.52768 6.30784,-2.72448 0,0 7.06816,-6.69504 7.06816,-6.69504 0,0 20.416,-13.68576 20.416,-13.68576 5.61088,-2.97792 14.57984,-3.85792 17.54368,-8.80704 1.07008,-1.7952 2.12608,-4.93504 1.76,-7.02592 -0.36608,-2.06976 -1.99936,-3.82976 -1.25312,-6.336 0.86592,-2.9216 5.3152,-5.89952 5.22368,-9.84896 -0.0774,-3.11168 -2.97792,-3.81568 -2.43584,-7.05408 0.36608,-2.15424 2.71744,-4.9632 3.73824,-7.03296 1.48544,-3.02016 1.9008,-6.68096 2.91456,-9.856 0.93632,-2.93568 4.4,-9.2928 4.13952,-11.90464 -0.15488,-1.53472 -1.1616,-2.40768 -1.77408,-4.35072 -1.10528,-3.49184 -0.2112,-3.47072 -3.80864,-5.56864 2.16832,-7.45536 15.04448,-16.6144 16.4736,-18.52928 1.32352,-1.78112 1.4432,-4.68864 -1.0912,-5.39968 -0.75328,-0.20416 -2.5696,-0.0493 -3.4144,0 1.56992,-6.9696 6.59648,-2.65408 10.08128,-9.17312 0.76736,-1.43616 1.87264,-3.7312 0.68992,-5.2096 -1.18272,-1.4784 -5.39264,-1.35872 -4.76608,-5.28704 0.2112,-1.3024 1.22496,-2.52032 1.83744,-3.68896 0.92928,-1.76704 0.85888,-2.29504 2.23168,-4.10432 3.90016,-5.15328 8.65216,-8.13824 7.7088,-15.44576 -0.46464,-3.63264 -4.2944,-2.30208 -5.32224,-5.71648 -0.528,-1.76704 2.0768,-8.30016 0.4576,-13.32672 -0.55616,-1.7248 -1.66144,-3.73824 -3.78752,-2.8864 -1.10528,0.44352 -7.23712,7.44128 -9.27872,2.01344 -0.73216,-1.95712 0.61248,-3.93536 1.67552,-5.47008 2.09088,-3.00608 9.96864,-11.03168 8.58176,-14.67136 -1.42912,-3.74528 -5.13216,1.056 -8.68736,1.1264 -2.2176,0.0422 -4.44928,-1.45728 -3.64672,-3.92128 0.92224,-2.79488 6.59648,-4.16064 7.33568,-7.23712 0.47168,-1.97824 -1.21792,-3.51296 -1.88672,-5.56864 -0.79552,-2.44992 0.1056,-4.89984 -1.53472,-6.63168 -1.39392,-1.47136 -3.58336,-1.02784 -4.68864,-3.38624 -0.51392,-1.0912 -1.57696,-11.08096 -4.2592,-13.55904 -1.80224,-1.66848 -5.19552,-2.0416 -7.52576,-2.6752 0,0 -11.968,-3.79456 -11.968,-3.79456 -7.4272,-2.54848 -10.51776,-6.63168 -13.376,-7.40608 -1.49952,-0.61952 -7.51872,0.13376 -9.856,0 -7.4976,0.15488 -15.53024,0.11264 -22.528,3.26656 -3.5552,1.60512 -4.70272,3.168 -7.744,4.98432 -4.20992,2.52032 -6.6528,1.95712 -8.5536,4.66048 -1.45728,2.08384 -4.6464,11.93984 -4.34368,14.68544 0.528,4.6464 2.99904,5.99808 3.04128,14.08 0,0 0,13.376 0,13.376 -0.0352,2.61888 -0.23936,6.04736 -3.54816,6.52608 -3.45664,0.4928 -7.26528,-4.40704 -9.40544,-3.06944 -1.43616,0.89408 -1.45728,9.51104 -6.7232,8.01152 -3.65376,-1.04192 -2.68224,-6.55424 -5.21664,-8.01152 -2.52736,-1.45024 -2.288,3.696 -5.4208,4.42112 -1.17568,0.27456 -2.4288,-0.22528 -3.4144,-0.8448 -4.18176,-2.64704 -4.38592,-9.58848 -4.28032,-14.07296 0.176,-7.23712 3.77344,-13.68576 5.96288,-20.416 0,0 4.38592,-17.6 4.38592,-17.6 2.71744,-7.42016 6.38528,-10.44736 11.41184,-16.12864 0,0 5.83616,-6.39936 5.83616,-6.39936 1.95712,-1.35168 6.45568,-2.02752 9.00416,-2.83712 0,0 10.56,-3.68192 10.56,-3.68192 0,0 11.968,-2.93568 11.968,-2.93568 0,0 18.304,-7.0752 18.304,-7.0752 2.40768,-0.51392 5.90656,-0.35904 8.448,-0.36608 9.51104,-0.0141 15.12192,-3.5904 19.81056,-11.968 0.92224,-1.64736 3.39328,-5.69536 2.55552,-7.52576 -0.80256,-1.75296 -4.45632,-2.112 -6.17408,-2.47808 -4.16064,-0.88704 -15.2064,-3.29472 -19.008,-3.00608 0,0 -25.344,4.2592 -25.344,4.2592 0,0 -19.712,2.5344 -19.712,2.5344 -5.2448,1.48544 -7.17376,3.9424 -10.56,5.0688 0,0 -5.632,1.23904 -5.632,1.23904 0,0 -8.448,3.97056 -8.448,3.97056 -8.8352,3.68896 -11.5808,2.37952 -19.1136,11.0176 -3.47776,3.98464 -2.90048,7.43424 -5.81504,10.49664 -3.28064,3.4496 -13.88288,8.56768 -14.43904,13.20704 -0.16192,1.32352 0.8448,4.1184 1.18272,5.56864 0.8448,3.5552 1.8656,9.55328 3.63968,12.672 1.408,2.47808 4.33664,4.9632 5.58272,7.744 1.57696,3.50592 0.16896,7.08224 -4.12544,6.4768 -2.23168,-0.3168 -7.36384,-1.1616 -9.12384,-2.25984 0,0 -4.35776,-3.57632 -4.35776,-3.57632 -2.33024,-0.9856 -3.67488,1.584 -3.53408,3.58336 0.16896,2.3584 6.18816,14.26304 0.66176,17.46624 -3.2384,1.87968 -9.33504,-1.41504 -11.21472,-4.1536 -1.08416,-1.57696 -1.76704,-4.81536 -3.4848,-5.13216 -1.40096,-0.25344 -2.14016,1.3728 -2.56256,2.3936 -1.00672,2.41472 -1.40096,6.99072 -3.85088,8.272 -4.97728,2.6048 -8.59585,-5.12512 -9.98273,-6.53312 -1.408,-1.43616 -3.04128,-1.70368 -3.49184,-3.9424 0,0 0,-6.96256 0,-6.96256 -0.64064,-10.81344 -1.20384,-11.60896 3.77344,-21.824 0.90112,-1.85152 2.13312,-4.66048 3.3792,-6.20928 2.09793,-2.61184 4.36481,-3.16096 6.35009,-4.79424 2.44992,-2.02752 3.21728,-4.47744 5.88544,-6.97664 3.2384,-3.03424 7.39904,-5.22368 10.1376,-8.77888 2.70336,-3.51296 2.0064,-6.11776 2.9216,-8.44096 0.9504,-2.40768 3.92832,-5.21664 5.82208,-7.01184 4.7872,-4.52672 8.80704,-5.66016 14.08,-9.0816 6.30784,-4.09728 9.79264,-8.3424 12.73536,-10.384 0,0 5.56864,-3.06944 5.56864,-3.06944 0,0 11.82016,-8.7296 11.82016,-8.7296 0,0 10.37696,-15.22752 10.37696,-15.22752 3.0272,-3.9072 7.37088,-7.01888 10.89088,-10.56 0,0 9.88416,-10.85568 9.88416,-10.85568 0,0 6.89216,-5.5968 6.89216,-5.5968 4.41408,-3.94944 3.93536,-4.752 9.97568,-8.11712 3.93536,-2.19648 10.05312,-3.29472 12.24256,-5.80096 0,0 3.35808,-4.82944 3.35808,-4.82944 4.576,-6.3008 7.1808,-8.70848 10.28544,-16.192 0,0 5.32224,-16.896 5.32224,-16.896 1.96416,-5.90656 4.6112,-13.71392 -1.08416,-18.70528 -2.55552,-2.23872 -5.8432,-2.2176 -9.00416,-2.47104 0,0 -17.6,-0.64768 -17.6,-0.64768 -1.84448,0.007 -6.18112,-0.30272 -6.60352,2.2176 -0.33088,1.95008 5.15328,7.87776 6.48384,9.7504 2.82304,3.9776 7.36384,16.27648 7.86368,21.12 -7.23712,-2.47104 -9.15904,-8.96896 -12.65792,-14.784 -1.28128,-2.13312 -6.03328,-7.94112 -7.82144,-9.856 -1.91488,-2.05568 -4.91392,-5.33632 -7.68064,-6.02624 -3.36512,-0.83072 -11.088,1.8304 -14.08,3.52 -1.40096,0.78848 -3.99872,2.0768 -3.81568,3.98464 0,0 5.89952,9.7856 5.89952,9.7856 2.37952,4.49152 6.11072,19.0784 4.95616,23.936 -2.66112,-3.67488 -2.97792,-7.92704 -4.94912,-11.968 -2.17536,-4.45632 -4.60416,-6.22336 -7.216,-9.856 -1.23904,-1.73184 -3.6608,-6.15296 -5.5616,-6.87104 -1.81632,-0.68288 -3.94944,0.9152 -5.50528,1.71776 0,0 -12.672,4.6816 -12.672,4.6816 -2.59072,1.0912 -4.94912,2.33024 -7.744,2.9216 0,0 -23.936,0.36608 -23.936,0.36608 -7.92,0.0141 -11.78496,4.63936 -21.12,4.83648 -4.9632,0.1056 -12.12289,-4.94912 -10.93313,-10.46144 1.09825,-5.06176 7.13153,-4.224 7.30049,-7.1456 0.0774,-1.24608 -1.23904,-3.01312 -1.80224,-4.12544 0,0 -1.584,-3.33696 -1.584,-3.33696 -1.45024,-2.09088 -7.49057,-5.12512 -9.87713,-6.90624 -1.94304,-1.45728 -3.92128,-3.82272 -6.336,-4.28736 -3.25248,-0.6336 -6.67392,2.66112 -9.44768,-0.47168 -0.94336,-1.07712 -1.232,-2.68224 -1.64736,-4.00576 -2.73856,-8.57472 -2.23168,-5.67424 -2.28096,-14.784 -0.0141,-2.25984 0.18304,-5.69536 -2.27392,-6.82176 -2.02752,-0.93632 -6.17408,0.64064 -8.28608,1.18976 -1.0912,-6.43456 4.5408,-6.3008 9.152,-6.336 1.92192,-0.0141 6.94848,-0.0845 6.0192,-3.38624 -0.37312,-1.30944 -2.112,-2.16128 -3.21024,-2.76672 0,0 -8.44096,-5.04768 -8.44096,-5.04768 -8.1664,-5.82208 -20.21184,-14.27712 -24.64,-23.29536 8.30016,0.59136 15.57952,8.61696 21.824,13.50272 0,0 7.744,5.26592 7.744,5.26592 2.66112,1.7248 10.2432,5.92768 13.376,5.12512 1.92896,-0.49984 4.5056,-2.61184 3.58336,-4.82944 -0.47872,-1.14752 -6.3008,-6.20224 -7.65952,-7.6032 -3.28064,-3.36512 -6.32192,-8.94784 -7.18784,-13.57312 z m 33.79201,74.624 c -0.5632,0.89408 -1.21088,1.42912 -0.59136,2.62592 0.60544,1.18272 8.9408,4.80128 10.44736,4.93504 5.99808,0.52096 16.17792,-6.31488 21.824,-8.3072 3.99168,-1.21088 4.86464,-0.1408 7.744,0 1.47136,-0.1056 4.59008,-0.96448 3.40032,-3.07648 -0.61248,-1.0912 -8.74368,-3.4144 -10.44032,-4.05504 0,0 -15.488,-5.96992 -15.488,-5.96992 -1.64736,-0.27456 -3.87904,0.28864 -5.632,0.40832 -3.57632,0.2464 -12.66496,-0.9856 -14.96704,1.77408 -2.93568,3.52704 1.47136,9.01824 3.70304,11.66528 z"
     style="fill:#000000;stroke:none" />
</svg>
