<?xml version="1.0" encoding="UTF-8" standalone="no"?>
<svg
   xmlns:dc="http://purl.org/dc/elements/1.1/"
   xmlns:cc="http://creativecommons.org/ns#"
   xmlns:rdf="http://www.w3.org/1999/02/22-rdf-syntax-ns#"
   xmlns:svg="http://www.w3.org/2000/svg"
   xmlns="http://www.w3.org/2000/svg"
   xmlns:sodipodi="http://sodipodi.sourceforge.net/DTD/sodipodi-0.dtd"
   xmlns:inkscape="http://www.inkscape.org/namespaces/inkscape"
   width="100mm"
   height="100mm"
   viewBox="0 0 566.90005 566.89987"
   version="1.1"
   id="svg469"
   sodipodi:docname="sanguinox.svg"
   inkscape:version="1.0.1 (3bc2e813f5, 2020-09-07)">
  <metadata
     id="metadata475">
    <rdf:RDF>
      <cc:Work
         rdf:about="">
        <dc:format>image/svg+xml</dc:format>
        <dc:type
           rdf:resource="http://purl.org/dc/dcmitype/StillImage" />
        <dc:title></dc:title>
      </cc:Work>
    </rdf:RDF>
  </metadata>
  <defs
     id="defs473" />
  <sodipodi:namedview
     pagecolor="#ffffff"
     bordercolor="#666666"
     borderopacity="1"
     objecttolerance="10"
     gridtolerance="10"
     guidetolerance="10"
     inkscape:pageopacity="0"
     inkscape:pageshadow="2"
     inkscape:window-width="3840"
     inkscape:window-height="2066"
     id="namedview471"
     showgrid="false"
     inkscape:zoom="1.6310818"
     inkscape:cx="813.9263"
     inkscape:cy="355.86136"
     inkscape:window-x="-11"
     inkscape:window-y="-11"
     inkscape:window-maximized="1"
     inkscape:current-layer="svg469"
     inkscape:document-rotation="0" />
  <path
     id="Sélection #12"
     fill="none"
     stroke="#000000"
     stroke-width="1.521"
     d="m 138.00058,359.01209 c 21.61341,-2.8899 16.8831,-1.85562 37.73601,-9.46062 7.10307,-2.5857 15.77277,-7.43769 22.815,-8.31987 13.29354,-1.64268 25.87221,9.23247 50.19301,9.14121 0,0 39.546,-8.94348 39.546,-8.94348 10.60137,-1.65789 22.72374,1.07991 33.462,2.11419 14.63202,1.41453 44.58051,3.92418 55.88154,13.36959 3.31578,2.76822 4.89762,5.81022 6.47946,9.70398 0,0 4.563,-1.521 4.563,-1.521 0,0 0,7.605 0,7.605 6.87492,2.2815 8.44155,5.53644 10.647,12.168 0,0 13.689,3.042 13.689,3.042 2.19024,6.47946 8.42634,3.98502 13.689,3.042 0,0 -3.042,6.084 -3.042,6.084 0,0 12.168,-4.563 12.168,-4.563 0,0 -3.042,6.084 -3.042,6.084 0,0 4.563,-1.521 4.563,-1.521 0,0 1.521,6.084 1.521,6.084 14.09967,-2.87469 9.82566,5.87106 19.773,-4.563 0,0 1.521,6.084 1.521,6.084 0,0 6.084,0 6.084,0 0,0 4.563,-6.084 4.563,-6.084 0,0 0,6.084 0,6.084 5.67333,-4.69989 6.29694,-5.76459 13.689,-4.563 0,0 3.042,-3.042 3.042,-3.042 0,0 1.521,4.563 1.521,4.563 0,0 1.521,0 1.521,0 0,0 1.521,-3.042 1.521,-3.042 0,0 4.563,1.521 4.563,1.521 0,0 1.521,-4.563 1.521,-4.563 2.57049,5.26266 8.91306,2.69217 13.689,1.521 0,0 10.647,4.563 10.647,4.563 0,0 0,-1.521 0,-1.521 0,0 3.042,-1.521 3.042,-1.521 0.0152,4.4109 1.8252,13.40001 -3.042,15.21 0,0 1.521,4.563 1.521,4.563 0,0 -3.042,0 -3.042,0 0,0 4.563,7.605 4.563,7.605 0,0 -7.605,6.084 -7.605,6.084 0,0 -1.521,0 -1.521,0 0,0 -3.042,-3.042 -3.042,-3.042 0,0 4.563,9.126 4.563,9.126 0,0 -6.084,-1.521 -6.084,-1.521 0,0 0,6.084 0,6.084 0,0 -4.563,-4.563 -4.563,-4.563 0,0 -1.521,1.521 -1.521,1.521 0,0 0,9.126 0,9.126 0,0 -7.605,-7.605 -7.605,-7.605 0,0 1.521,4.563 1.521,4.563 0,0 -6.084,-3.042 -6.084,-3.042 0,0 6.084,7.605 6.084,7.605 0,0 -12.168,-7.605 -12.168,-7.605 0,0 3.042,9.126 3.042,9.126 0,0 -1.521,0 -1.521,0 0,0 -3.042,-3.042 -3.042,-3.042 0,0 -1.521,12.168 -1.521,12.168 0,0 -7.605,-10.647 -7.605,-10.647 0,0 1.521,7.605 1.521,7.605 -4.28922,-2.98116 -3.96981,-4.04586 -4.563,-9.126 0,0 -4.563,3.042 -4.563,3.042 0,0 -1.521,-6.084 -1.521,-6.084 0,0 0,7.605 0,7.605 0,0 -9.126,-7.605 -9.126,-7.605 0,0 -1.521,6.084 -1.521,6.084 0,0 -3.042,-12.168 -3.042,-12.168 0,0 -6.084,9.126 -6.084,9.126 0,0 -1.521,-6.084 -1.521,-6.084 0,0 -1.521,4.563 -1.521,4.563 0,0 0,-4.563 0,-4.563 0,0 -3.042,1.521 -3.042,1.521 0,0 -1.521,-6.084 -1.521,-6.084 0,0 -4.563,10.647 -4.563,10.647 0,0 -1.521,-12.168 -1.521,-12.168 0,0 -7.605,4.563 -7.605,4.563 0,0 1.521,-6.084 1.521,-6.084 0,0 -6.084,-1.521 -6.084,-1.521 0,0 -6.084,6.084 -6.084,6.084 0,0 4.563,-9.126 4.563,-9.126 0,0 -6.084,0 -6.084,0 0,0 3.042,-1.521 3.042,-1.521 0,0 0,-1.521 0,-1.521 0,0 -6.084,1.521 -6.084,1.521 0,0 -1.521,-3.042 -1.521,-3.042 0,0 1.521,-1.521 1.521,-1.521 0,0 -6.084,1.521 -6.084,1.521 0,0 -4.563,-4.563 -4.563,-4.563 0,0 -7.605,-16.731 -7.605,-16.731 0,0 0,7.605 0,7.605 0,0 -4.563,0 -4.563,0 0,0 -4.563,-10.647 -4.563,-10.647 0,0 -7.605,18.252 -7.605,18.252 0,0 -1.521,0 -1.521,0 0,0 -3.042,-3.042 -3.042,-3.042 0,0 -9.126,9.126 -9.126,9.126 0,0 -1.521,-3.042 -1.521,-3.042 0,0 -1.521,0 -1.521,0 0.65403,11.08809 3.40704,11.62044 10.16028,19.773 0,0 7.05744,8.56323 7.05744,8.56323 3.16368,3.08763 7.16391,4.91283 9.06516,9.11079 2.66175,5.91669 0.71487,21.9024 0.97344,29.47698 0.62361,5.49081 2.4336,9.126 0,14.32782 -1.42974,2.31192 -4.47174,6.61635 -6.67719,8.22861 -3.52872,2.02293 -16.33554,2.87469 -19.69695,0 -2.78343,-2.00772 -1.93167,-5.26266 0,-7.74189 2.52486,-3.30057 11.2554,-8.47197 10.09944,-16.33554 -2.41839,-16.59411 -23.86449,-19.08855 -36.83862,-21.40047 -7.86357,-1.74915 -12.71556,-8.25903 -18.252,0 0,0 -7.605,0 -7.605,0 0,0 0,6.19047 0,6.19047 -7.22475,1.04949 -4.80636,6.084 -10.85994,10.70784 -5.38434,4.09149 -12.3201,5.24745 -18.03906,8.38071 -7.17912,3.93939 -7.92441,6.82929 -16.731,9.81045 0,0 1.521,7.605 1.521,7.605 0,0 -4.563,-1.521 -4.563,-1.521 -5.61249,8.39592 -20.80728,4.19796 -28.899,1.521 5.27787,-14.63202 6.76845,-9.21726 16.731,-17.14167 4.563,-3.63519 6.6924,-6.6924 12.168,-10.29717 4.24359,-2.78343 7.92441,-3.89376 11.57481,-7.86357 7.58979,-8.22861 6.9966,-15.60546 8.19819,-25.58322 -10.76868,-0.4563 -34.58754,-4.06107 -44.109,0 -10.12987,4.19796 -10.79911,11.02725 -21.29401,15.25563 0,0 1.521,4.563 1.521,4.563 0,0 -7.605,9.126 -7.605,9.126 3.46788,0.56277 12.19842,0.0304 14.06925,1.53621 5.44519,4.38048 -2.4336,12.65472 -6.60114,14.73849 -9.2781,4.65426 -25.75053,-1.91646 -29.09673,-11.7117 -1.93167,-5.65812 2.26629,-15.11874 3.37662,-21.294 -6.6924,7.78752 -9.74961,11.14893 -12.168,21.294 -15.43815,2.44881 -38.40525,27.87993 -47.40957,31.08924 -2.63133,0.94302 -6.084,0.83655 -8.86743,0.85176 -5.00409,0.0304 -16.21386,1.27764 -14.31261,-7.19433 1.44495,-6.3882 7.93962,-7.16391 12.79161,-9.39978 3.63519,-1.68831 13.689,-8.41113 16.67016,-11.1033 9.126,-8.2134 20.09241,-36.03249 24.39684,-48.35259 0,0 -10.647,-3.042 -10.647,-3.042 0,0 0,-7.605 0,-7.605 0,0 -4.563,-7.33122 -4.563,-7.33122 -6.03837,2.35755 -8.35029,-1.26243 -15.21,0 -11.54439,2.85948 -31.119659,19.24065 -39.545999,4.28922 6.03837,-3.51351 9.627929,-4.63905 7.605,-12.168 0,0 -1.521,6.084 -1.521,6.084 0,0 -6.084,-3.042 -6.084,-3.042 0,0 -1.521,4.563 -1.521,4.563 -7.9092,-2.05335 -17.50671,-8.70012 -15.46857,-18.252 0.63882,-3.05721 3.78729,-7.48332 5.20182,-10.647 0,0 5.0193,-13.55211 5.0193,-13.55211 1.94688,-3.42225 5.9319,-7.07265 6.50988,-10.84473 0.50193,-3.33099 -1.62747,-7.46811 -2.78343,-10.58616 14.008409,-1.80999 13.171859,3.74166 20.198879,2.70738 8.03088,-1.17117 14.16051,-9.32373 20.86812,-10.67742 4.73031,-0.95823 9.18684,1.46016 9.41499,6.50988 0.4563,1.74915 -0.0304,2.93553 0,4.50216 z m 349.54102,41.067 c 0,0 -1.521,0 -1.521,0 0,0 1.521,1.521 1.521,1.521 0,0 0,-1.521 0,-1.521 z m 33.462,15.21 c 0,0 -1.521,0 -1.521,0 0,0 1.521,1.521 1.521,1.521 0,0 0,-1.521 0,-1.521 z m -3.042,4.563 c 0.36504,3.71124 1.15596,3.42225 4.563,4.563 0,0 -4.563,-4.563 -4.563,-4.563 z m -104.949,3.042 c 0,0 -1.521,0 -1.521,0 0,0 1.521,1.521 1.521,1.521 0,0 0,-1.521 0,-1.521 z m 38.025,13.689 c 0,0 -3.042,0 -3.042,0 0,0 1.521,6.084 1.521,6.084 0,0 1.521,-6.084 1.521,-6.084 z m 47.151,3.042 c 0,0 -1.521,0 -1.521,0 0,0 1.521,1.521 1.521,1.521 0,0 0,-1.521 0,-1.521 z m -34.983,1.521 c 0,0 1.521,7.605 1.521,7.605 0,0 -1.521,-7.605 -1.521,-7.605 z"
     style="fill:#000000;stroke:none" />
</svg>
