<?xml version="1.0" encoding="UTF-8" standalone="no"?>
<svg
   xmlns:dc="http://purl.org/dc/elements/1.1/"
   xmlns:cc="http://creativecommons.org/ns#"
   xmlns:rdf="http://www.w3.org/1999/02/22-rdf-syntax-ns#"
   xmlns:svg="http://www.w3.org/2000/svg"
   xmlns="http://www.w3.org/2000/svg"
   xmlns:sodipodi="http://sodipodi.sourceforge.net/DTD/sodipodi-0.dtd"
   xmlns:inkscape="http://www.inkscape.org/namespaces/inkscape"
   width="100mm"
   height="100mm"
   viewBox="0 0 1181.1023 1181.1023"
   version="1.1"
   id="svg852"
   sodipodi:docname="scologriffe.svg"
   inkscape:version="1.0.1 (3bc2e813f5, 2020-09-07)">
  <metadata
     id="metadata858">
    <rdf:RDF>
      <cc:Work
         rdf:about="">
        <dc:format>image/svg+xml</dc:format>
        <dc:type
           rdf:resource="http://purl.org/dc/dcmitype/StillImage" />
        <dc:title></dc:title>
      </cc:Work>
    </rdf:RDF>
  </metadata>
  <defs
     id="defs856" />
  <sodipodi:namedview
     pagecolor="#ffffff"
     bordercolor="#666666"
     borderopacity="1"
     objecttolerance="10"
     gridtolerance="10"
     guidetolerance="10"
     inkscape:pageopacity="0"
     inkscape:pageshadow="2"
     inkscape:window-width="3840"
     inkscape:window-height="2066"
     id="namedview854"
     showgrid="false"
     units="mm"
     inkscape:zoom="1.6026298"
     inkscape:cx="74.060697"
     inkscape:cy="-29.291282"
     inkscape:window-x="-11"
     inkscape:window-y="-11"
     inkscape:window-maximized="1"
     inkscape:current-layer="svg852" />
  <path
     id="Sélection"
     fill="none"
     stroke="#000000"
     stroke-width="1.33"
     d="m 869.66545,479.62287 c 3.9102,-9.0573 5.6392,-6.7564 13.3,-9.9484 0,0 6.65,-3.4979 6.65,-3.4979 16.4787,-8.6317 33.9948,-13.5926 51.7503,-18.7131 7.581,-2.1812 6.1978,-4.7747 20.0032,-5.0806 0,0 0,7.9135 0,7.9135 -1.8221,6.6234 -11.4912,9.3765 -17.2235,11.7306 -13.3399,5.5062 -35.4844,7.2352 -45.22,17.5959 -14.0847,0.1729 -30.1378,20.9076 -38.7828,30.59 -3.6841,4.1097 -10.4804,9.5893 -9.2302,15.7605 1.2236,6.1313 11.2651,9.0174 15.96,12.2227 3.1388,2.1546 5.3732,5.32 8.113,7.9268 3.4846,-10.0415 14.8561,-7.8869 17.29,-15.96 0,0 14.63,-8.6184 14.63,-8.6184 0,0 17.29,-7.7007 17.29,-7.7007 7.7805,-3.9634 10.2277,-6.8229 19.9367,-10.7065 0,0 41.2433,-13.5128 41.2433,-13.5128 0,0 11.97,-1.3832 11.97,-1.3832 14.49705,-3.0723 6.95585,-2.5403 22.61005,-3.1255 5.32,-0.2128 13.3665,-3.5511 17.29,1.1571 0,0 3.99,-2.66 3.99,-2.66 0,0 1.33,5.32 1.33,5.32 0,0 -3.99,-1.33 -3.99,-1.33 -1.3034,5.586 -5.7456,6.5037 -10.64,8.6982 0,0 -35.91005,11.2385 -35.91005,11.2385 -21.4396,5.8786 -42.7861,11.2119 -62.51,21.9849 -5.9451,3.2452 -8.0066,6.5835 -13.3,9.9617 0,0 -7.4214,4.256 -7.4214,4.256 -5.3067,3.7506 -17.7422,15.4147 -20.5086,21.0007 0,0 -3.99,-1.33 -3.99,-1.33 3.6442,13.433 -9.4297,17.9417 -19.95,21.1603 0,0 -18.62,6.7165 -18.62,6.7165 0,0 -13.2468,2.6999 -13.2468,2.6999 0,0 -18.6732,10.4272 -18.6732,10.4272 -9.5361,5.0008 -15.4014,5.7057 -22.61,14.8561 6.8362,0.8379 7.3682,-0.8778 13.4197,-1.197 0,0 17.1703,0.7714 17.1703,0.7714 11.2252,1.1172 21.3465,6.2377 31.92,9.975 5.8387,2.0615 17.7422,5.6791 21.28,10.4006 5.9717,0.5852 7.9534,2.3408 11.97,6.65 0,0 -6.65,5.32 -6.65,5.32 -11.6109,-3.7639 -16.0265,-10.6666 -34.6332,-14.1911 -5.3599,-1.0108 -10.4405,0.4655 -11.9168,-5.7589 -9.8021,-0.8778 -9.4696,-2.9127 -21.28,-2.6467 0,0 -26.6,3.0324 -26.6,3.0324 -10.4006,0.3325 -4.2959,-3.4979 -18.62,0.9443 -2.5403,11.6109 -27.797,10.6134 -37.24,10.64 3.2585,9.31 5.9052,6.8495 11.2518,12.6749 0,0 4.7215,7.1687 4.7215,7.1687 3.9368,5.3998 13.433,16.3191 19.9367,17.3964 0,0 2.66,5.32 2.66,5.32 0,0 -7.98,3.99 -7.98,3.99 -3.3782,-7.3948 -5.4796,-5.852 -9.7356,-10.9858 -2.6068,-3.1388 -4.0432,-7.9667 -10.4405,-13.2734 -7.0091,-5.8121 -15.8403,-7.5544 -23.7139,-12.0232 -5.1205,-2.9127 -15.8004,-10.3873 -21.28,-10.4006 -6.1978,0 -16.1329,6.9825 -21.28,10.2676 -7.6874,4.9077 -16.5186,8.1662 -22.61,15.1354 -6.8229,-1.3433 -13.4862,-1.0773 -18.62,3.99 8.5918,0.6916 9.0174,3.0191 15.96,7.3682 9.8819,6.1845 25.8685,17.423 31.92,27.2118 0,0 2.66,-1.33 2.66,-1.33 1.5561,7.3549 -1.6891,8.8711 -7.98,5.1205 -5.9584,-3.5511 -11.3449,-10.8262 -17.3033,-15.6009 -8.0598,-6.4372 -33.6357,-18.5535 -43.8767,-19.0456 -3.8038,-0.1862 -11.1188,1.1172 -14.3507,3.0989 -4.4422,2.7265 -4.8811,6.6101 -12.2493,8.9775 -7.3416,2.3541 -7.7539,-1.5827 -17.29,-1.1704 0,0 0,2.66 0,2.66 0,0 9.31,1.33 9.31,1.33 0,0 21.28,9.842 21.28,9.842 7.7672,3.8703 10.5203,7.9268 16.7314,13.0473 5.7589,4.7614 8.8179,4.0299 11.1986,11.6907 0,0 -13.3,0 -13.3,0 0,0 1.33,-3.99 1.33,-3.99 -7.049,-2.3408 -36.6548,-20.1894 -55.86,-23.6607 -10.0149,-1.8088 -10.2676,6.6101 -22.61,3.7107 2.5802,8.6849 18.9525,25.2035 26.6532,29.9516 3.6176,2.2344 5.3466,2.4738 9.2568,3.4979 2.6467,0.7049 12.9276,2.7797 10.4139,7.2884 -2.4605,4.389 -12.0764,1.1837 -15.7339,0 -13.566,-4.2693 -12.1562,-5.7456 -22.61,-12.9409 0,0 -19.95,-11.837 -19.95,-11.837 -3.458,-14.8295 -12.103,-4.2826 -19.95,-2.0881 -3.6309,1.0241 -10.64,0.7581 -14.63,0.7581 10.8794,9.8021 9.3233,8.9908 17.9683,19.95 1.8221,2.3009 6.1712,6.8229 7.0756,9.2302 2.9659,7.9135 -7.7406,3.0457 -10.3474,0.8911 -3.8969,-3.2186 -5.1471,-6.1845 -7.9933,-10.0016 -3.857,-5.187 -15.3482,-17.9018 -21.3332,-19.4313 -5.7589,-1.4763 -9.5361,4.1895 -15.96,6.1845 -6.9293,2.1679 -6.6766,-1.6093 -15.96,2.4871 15.0955,2.8728 19.9101,14.3108 28.8743,25.0439 0,0 8.2593,8.5785 8.2593,8.5785 1.862,3.6841 -0.7448,6.4106 -5.2402,5.3333 -10.2277,-2.4339 -15.2418,-15.7738 -21.6125,-22.7696 -5.7589,-6.3175 -16.7314,-10.5735 -24.9109,-12.8079 -3.2319,-0.8911 -13.5926,-3.9368 -16.226,-2.7797 -8.5253,3.7506 -10.0415,18.2476 -27.664,14.0315 0,0 9.31,9.31 9.31,9.31 0,0 -1.33,3.99 -1.33,3.99 8.1928,1.6359 6.6899,8.1263 19.95,11.3449 9.6957,2.3541 28.9541,-1.596 49.21,7.2751 0,0 -2.66,6.65 -2.66,6.65 13.4862,-5.0274 14.1379,-6.9825 29.26,-9.31 0,0 -2.66,0 -2.66,0 0,0 0,-1.33 0,-1.33 0,0 5.32,1.33 5.32,1.33 0,0 3.99,-3.99 3.99,-3.99 0,0 -2.66,0 -2.66,0 0,0 0,-1.33 0,-1.33 26.7995,-6.0515 16.9974,-6.384 46.2175,-6.3973 6.7431,0 8.1396,-0.7315 13.6325,3.7373 0,0 -5.32,2.66 -5.32,2.66 9.6026,-0.1064 17.0107,-7.3682 25.27,-11.6242 0,0 29.26,-12.7281 29.26,-12.7281 7.6475,-3.4447 21.9051,-10.5735 29.26,-12.3158 5.8919,-1.3965 31.0156,-5.5461 35.91,-4.6284 7.3682,1.3699 14.2044,8.9376 19.95,8.6849 4.4688,-0.1995 9.2834,-5.0008 14.63,-6.2244 0,0 34.58,-2.394 34.58,-2.394 19.9766,-0.0266 40.698,-0.5985 60.4086,3.192 7.182,1.3832 9.1371,5.5195 19.3914,7.448 0,0 -1.33,2.66 -1.33,2.66 11.2518,0.3591 12.8345,4.5486 22.61,9.31 0.7581,-2.0881 0.7315,-3.2186 3.0457,-4.3358 3.2452,-1.5694 20.4953,0.8911 24.7646,1.7157 0,0 10.7331,3.5378 10.7331,3.5378 0,0 22.6366,4.256 22.6366,4.256 0,0 13.3532,4.2959 13.3532,4.2959 4.3757,1.7157 6.6367,3.6442 11.9168,5.054 0,0 7.98,1.2236 7.98,1.2236 8.5918,1.4896 20.0697,6.2111 19.95,16.1728 0,0 13.3,3.8038 13.3,3.8038 0,0 23.94,0 23.94,0 6.3308,0.8645 19.39145,5.5594 25.27005,8.4987 6.517,3.2585 11.8636,5.3865 15.96,11.6375 8.8179,0.0133 12.9542,5.9584 20.0165,10.4671 7.714,4.9343 14.2842,11.1454 21.1603,17.1304 2.7398,2.3807 7.5278,6.2909 8.4987,9.8686 0.9044,3.325 -1.1172,8.5386 -2.261,11.7439 0,0 -7.5677,18.7397 -7.5677,18.7397 -1.3699,4.0166 -2.3541,9.4563 -5.0274,12.8212 -2.8196,3.5644 -5.8919,3.4048 -10.8794,8.3391 4.6284,0.6916 4.2028,1.1172 8.2061,2.6467 0,0 6.4239,2.3142 6.4239,2.3142 24.3656,13.5527 30.058,44.7944 45.8451,65.5291 9.709,12.7547 23.3947,14.0714 36.6149,21.3066 -7.2485,1.4098 -10.0415,-0.1596 -17.29,0 -2.4206,0.0798 -5.6791,0.4921 -7.98,0 -20.0431,-4.3092 -29.925,-38.6365 -45.22,-50.5666 -1.1172,-4.7348 -6.5835,-12.1163 -11.97,-9.31 0,0 -21.0539,-14.3108 -21.0539,-14.3108 -2.7265,-2.0615 -5.586,-5.4929 -9.4164,-4.4688 -4.1363,1.1039 -5.4796,5.8653 -6.4106,9.4696 -2.9925,11.704 -8.8046,14.8428 -18.9791,20.2426 -2.5403,1.3433 -8.1264,4.6949 -10.5603,1.5162 -2.2876,-3.0058 1.4896,-9.4031 2.6467,-12.4355 0,0 3.9236,-11.9833 3.9236,-11.9833 0,0 -13.30005,-1.6625 -13.30005,-1.6625 0,0 -25.27,4.3225 -25.27,4.3225 0,0 18.3274,20.1362 18.3274,20.1362 2.0216,1.9019 5.1205,5.1338 2.1014,7.7805 -1.4896,1.2901 -7.714,2.1014 -9.7888,2.2344 -8.1263,0.532 -28.3556,-10.4937 -34.181,-16.1329 -5.453,-5.2668 -5.8919,-11.1587 -16.2127,-8.2859 -6.6633,1.862 -4.1363,7.8603 -10.7198,19.418 0,0 -21.1071,32.0397 -21.1071,32.0397 0,0 -9.5494,29.26 -9.5494,29.26 0,0 -1.33,-5.32 -1.33,-5.32 0,0 1.197,13.30003 1.197,13.30003 -0.7182,15.9334 -5.8387,13.2468 1.463,30.59 0,0 -2.66,15.96 -2.66,15.96 0,0 -2.66,-6.65 -2.66,-6.65 0,0 -5.32,2.66 -5.32,2.66 -3.2452,-9.0174 -8.2859,-26.733 -7.9268,-35.91 0,0 2.8196,-25.53603 2.8196,-25.53603 0.6384,-6.5968 1.1039,-17.5959 3.0723,-23.674 0,0 5.4264,-11.97 5.4264,-11.97 1.6093,-4.4156 10.4405,-24.339 12.8611,-27.1453 1.4231,-1.6359 1.9418,-1.4364 3.5511,-2.1147 -0.0266,-2.4738 0.5852,-8.6184 0,-10.0681 -1.7822,-3.2452 -10.8129,-4.8545 -14.4837,-6.6101 -6.1446,-2.926 -12.4754,-8.7913 -16.891,-13.9118 -2.4605,-2.8595 -6.9559,-8.645 -8.5253,-11.97 -5.9052,-12.5552 -0.3857,-23.8203 1.4763,-35.91 -8.0864,7.049 -10.4804,15.3615 -22.61,17.29 1.2768,9.6558 3.8969,30.0048 11.6375,36.4819 4.6949,3.9235 12.4887,-5.8653 15.1753,2.2876 3.6043,10.9991 -16.9708,19.8303 -26.5867,14.4039 -7.2086,-4.0698 -5.7589,-10.7065 -7.6209,-17.2634 -2.3275,-8.246 -7.8071,-20.6017 -13.8852,-26.6 1.4896,-6.8362 -11.5577,-7.1554 -15.96,-7.8736 0,0 -34.58,-5.4663 -34.58,-5.4663 0,0 -18.62,1.3699 -18.62,1.3699 -3.5112,4.7481 -10.1612,7.6342 -15.96,7.98 -3.8304,7.049 -9.3632,7.7938 -15.9467,11.4912 0,0 -16.625,13.034 -16.625,13.034 -2.5137,2.3807 -10.4538,10.1479 -11.6774,12.768 -1.9551,4.2161 -0.4256,6.916 -4.2028,11.7971 -2.261,2.9127 -10.7863,9.709 -14.0581,12.3557 -5.0673,4.0831 -10.2942,8.7381 -15.96,11.9035 -8.6982,4.8678 -28.9142,10.0415 -38.57,7.7805 3.9235,-13.0207 18.8062,-11.7306 29.26,-17.9151 18.9126,-11.1986 16.3856,-14.9492 27.93,-28.6349 -2.527,-3.5112 1.2103,-8.6583 3.2851,-11.97 6.5569,-10.4538 12.9276,-10.6134 17.9949,-25.27 -7.6076,-1.8886 -10.3075,-4.2427 -11.97,-11.97 0,0 -18.62,-11.3316 -18.62,-11.3316 0,0 -14.63,3.3516 -14.63,3.3516 0,0 -1.33,6.65 -1.33,6.65 0,0 -11.97,7.98 -11.97,7.98 3.3117,0.7847 7.5544,1.6492 9.7622,4.522 2.5935,3.3649 0.0532,6.3308 -4.4688,5.4663 -3.2984,-0.6251 -7.7273,-4.0964 -10.6134,-5.9983 0,0 -16.7048,26.6 -16.7048,26.6 -3.0856,6.5303 -0.7847,16.2659 -12.7946,29.2068 -4.2161,4.5353 -12.0764,9.6824 -18.3806,10.3873 -4.0964,0.4522 -8.7913,-1.0906 -7.1022,-6.2377 1.7423,-5.3067 15.162,-11.2784 20.4022,-12.0764 0.4522,-4.5619 0,-6.5569 3.99,-9.31 -0.3458,-6.9559 1.729,-8.6184 4.3757,-14.63 0,0 5.1604,-11.97 5.1604,-11.97 4.8013,-9.1637 9.044,-13.0739 11.7439,-23.94 -8.3258,-1.3832 -7.9135,-4.6417 -14.63,-8.4455 -4.6284,-2.6334 -26.7596,-9.4696 -31.8003,-8.7913 -2.6068,0.3458 -4.7348,2.394 -6.7697,3.9368 0,0 1.33,-5.32 1.33,-5.32 -7.5943,8.0465 -14.3906,18.5003 -17.29,29.26 0,0 2.66,-1.33 2.66,-1.33 0,0 -7.98,18.62 -7.98,18.62 3.4447,0.3591 9.9351,1.3965 12.4754,3.8836 1.0507,1.0108 1.6359,2.3009 1.1704,3.7506 -1.3566,4.2294 -8.0066,2.394 -11.1321,1.6758 0.5852,9.5494 3.591,27.265 0,35.91 -1.6758,3.5245 -12.7547,21.1869 -15.1886,23.5277 -3.0324,2.9127 -8.2327,4.1097 -9.4696,-1.1172 -0.931,-3.9634 2.8196,-11.6907 3.5245,-17.0905 3.7772,-1.4364 4.0033,-4.4555 5.5328,-7.98 4.6816,-10.7198 3.9102,-11.0124 3.7772,-22.61 -0.0532,-3.7506 -0.6251,-14.4305 -2.5137,-17.3964 0,0 -13.7123,-13.5527 -13.7123,-13.5527 -4.9742,-6.251 -8.0199,-13.2202 -17.024,-12.9409 -1.7024,-4.4289 -17.7156,-12.7946 -27.0522,-3.591 -9.5095,9.3765 -14.5502,20.9741 -20.0697,32.7978 0,0 -4.2028,8.2593 -4.2028,8.2593 -2.4605,6.5702 -0.3192,9.8553 -4.5353,15.7339 0,0 2.66,0 2.66,0 0,0 0,1.33 0,1.33 -3.0191,3.192 -2.6999,7.8337 -3.3117,12.0232 0.5453,-3.7506 -5.6791,29.9117 -3.724,23.5676 -1.2768,4.1496 -5.2934,3.2053 -6.0515,-2.3674 0,0 1.064,-15.9334 1.064,-15.9334 -0.4123,-12.901 -6.5569,-22.078 2.7132,-33.25 0,0 2.2078,-10.64 2.2078,-10.64 0,0 8.2061,-15.96 8.2061,-15.96 0,0 5.5461,-14.63 5.5461,-14.63 -12.4355,2.8329 -24.0597,8.2327 -37.24,7.98 0,0 18.5269,15.5876 18.5269,15.5876 1.6492,1.596 4.3358,4.8811 1.7024,6.9559 -2.2211,1.7556 -6.2643,-0.4788 -8.2593,-1.6359 -7.0224,-4.0831 -11.3981,-10.7863 -18.62,-14.2576 -1.7822,-4.9875 -12.369,-7.98 -17.29,-9.3366 -4.3092,-1.197 -15.3881,-5.6658 -18.62,-5.6126 -9.7622,0.1862 -24.2725,17.7023 -33.25,22.9292 3.4181,1.2369 11.2119,3.7905 9.6558,8.911 -0.3325,1.0507 -1.064,1.7423 -2.1014,2.0881 -2.8595,0.9842 -7.0623,-1.6625 -10.2144,-2.2211 -4.0565,-0.7049 -8.0332,1.0241 -11.97,1.862 -1.33,6.4505 -7.0091,9.0174 -11.97,13.034 -7.0091,5.6791 -9.8021,8.6184 -14.63,16.226 0,0 -2.66,-2.66 -2.66,-2.66 0,0 -8.5386,16.5053 -8.5386,16.5053 0,0 -4.7614,2.1147 -4.7614,2.1147 0,0 -0.9177,-7.98 -0.9177,-7.98 0,0 3.325,-8.5386 3.325,-8.5386 0,0 1.729,-7.4214 1.729,-7.4214 0,0 5.1737,-11.97 5.1737,-11.97 4.389,-1.2369 21.9849,-16.0664 25.27,-19.95 -11.5178,-0.2926 -24.7513,-5.6126 -30.59,-15.96 0,0 -5.32,2.66 -5.32,2.66 -2.3009,-4.0831 -3.1654,-4.7614 -7.98,-5.4397 -10.0947,-1.4231 -13.5394,7.7273 -21.28,12.5951 -8.17951,5.1471 -18.22101,9.9484 -24.99071,17.0107 0,0 -24.6582,34.2209 -24.6582,34.2209 -2.394,2.6068 -15.0157,12.0099 -17.1969,5.0806 -0.798,-2.5536 1.3566,-4.4954 3.2053,-5.8121 2.6866,-1.9285 6.0249,-2.8728 8.4322,-5.2934 2.8462,-2.8595 4.0698,-8.5386 6.2377,-12.4621 0,0 6.783,-9.6824 6.783,-9.6824 0,0 5.5993,-10.2676 5.5993,-10.2676 6.3175,-12.2759 15.7339,-17.7688 25.9483,-26.6 0,0 -33.1968,-6.0515 -33.1968,-6.0515 -5.2003,-1.4497 -5.6791,-3.7107 -10.7464,-4.389 -3.4181,-0.4655 -7.1953,0.3192 -10.5868,0.7581 -13.3532,1.7423 -22.8494,4.5087 -34.0214,12.5818 -4.3624,3.1521 -13.4596,11.3449 -16.1595,15.8403 -8.5253,14.1911 -7.3948,30.6166 -26.95909,37.3331 -2.0482,0.7049 -5.8121,2.0083 -7.9002,1.9817 -3.8038,-0.0665 -5.6658,-2.8063 -3.9634,-5.4663 1.5827,-2.4738 5.2402,-2.1812 7.9135,-4.4023 4.2427,-3.5245 9.4696,-13.699 11.5178,-18.9259 7.4746,-18.9924 21.24009,-27.7172 38.02469,-37.2134 4.9609,-2.8196 7.3416,-4.8279 12.9276,-6.6766 0,0 0,-2.66 0,-2.66 -5.0673,-1.596 -14.6433,-5.9983 -17.2501,-10.773 0,0 -2.6999,-13.167 -2.6999,-13.167 -8.2992,3.2319 -16.2127,-1.596 -22.60999,-6.65 -3.724,10.4139 -15.1088,3.7905 -29.26,9.4297 -12.847802,5.1205 -18.580102,10.7065 -29.260002,18.0614 -3.2452,2.2477 -7.2751,3.7107 -9.935098,6.3042 -5.0673,4.9476 -5.9983,11.8902 -11.438,16.0265 -8.246,6.2776 -16.758,4.1629 -14.3241,-1.4763 0.7182,-1.6359 4.3225,-4.4422 5.7589,-6.0648 0,0 10.4139,-14.3507 10.4139,-14.3507 3.6841,-4.4156 8.7248,-7.6475 10.2144,-13.3 4.867798,-3.5644 16.292498,-12.7414 21.279998,-14.4438 0,0 17.290002,-4.6284 17.290002,-4.6284 5.8121,-1.0108 13.0207,0.4921 20.881,-5.9318 4.123,-3.3649 2.6201,-6.1978 4.8013,-10.7331 0,0 6.63669,-12.1429 6.63669,-12.1429 4.6018,-10.8395 -1.3832,-6.1845 8.911,-17.29 -8.379,3.6043 -20.88099,8.4455 -27.92999,13.7522 -3.2319,2.4339 -10.3208,9.1637 -13.3,10.4139 0,0 -13.300002,2.4339 -13.300002,2.4339 -2.5137,0.6517 -12.0232,2.2743 -9.0839,-3.6974 2.1546,-4.4023 8.2593,-3.0723 11.7439,-4.1363 0,0 15.906802,-9.2302 15.906802,-9.2302 5.6259,-3.724 10.4405,-12.0498 23.9932,-17.6757 7.35489,-3.0457 20.34899,-2.9792 27.37139,-6.8495 0,0 9.8686,-6.8894 9.8686,-6.8894 7.3948,-4.6284 24.5252,-12.4089 33.25,-11.7173 2.8994,0.2261 5.4397,1.7423 7.98,3.0058 4.522,-13.9916 9.3898,-17.1836 22.61,-21.3864 3.99,-1.2768 6.2643,-2.5802 10.64,-2.0083 0,0 6.65,1.5694 6.65,1.5694 4.60181,0.5985 6.50371,-0.798 10.64001,-1.9817 3.6575,-1.0507 7.7273,-0.8778 10.64,-2.4738 3.1255,-1.7157 7.6209,-6.7697 10.64,-9.3499 9.1903,-7.8603 14.8029,-10.5469 26.6,-10.4405 0,0 23.94,0 23.94,0 4.0432,-0.8113 14.3906,-7.049 18.62,-9.2834 15.2684,-8.0731 28.2226,-10.5735 43.89,-1.8354 8.2593,-16.8112 14.8162,-18.6998 31.92,-18.62 0,0 18.5668,1.8354 18.5668,1.8354 3.3516,-0.9044 5.586,-4.389 8.2593,-6.5037 3.325,-2.6201 8.9908,-4.7215 13.0739,-5.9185 12.8345,-3.7506 23.7139,2.0482 35.91,3.9368 1.2236,-13.034 4.9476,-10.1479 14.63,-14.6965 13.4729,-6.3308 14.0714,-8.3125 29.26,-3.9235 1.729,-3.2053 2.7398,-5.1205 5.4663,-7.7007 12.901,-12.2227 30.3905,-4.4555 37.0937,-5.8919 5.9584,-1.2768 13.0207,-10.2809 22.61,-13.2867 4.6018,-1.4364 23.3415,-4.6683 27.93,-4.3624 0,0 23.94,4.6417 23.94,4.6417 2.3009,-7.1022 7.98,-9.5095 14.63,-11.97 0,0 -2.66,-2.66 -2.66,-2.66 10.7065,-4.8811 16.7713,-14.0315 29.26,-15.6807 9.6425,-1.2768 38.0247,5.4131 50.54,2.3807 0,0 -1.33,-3.99 -1.33,-3.99 5.2136,-2.5004 10.5203,-6.9027 15.96,-3.99 0,0 23.4346,-18.4604 23.4346,-18.4604 0,0 12.4754,-17.4363 12.4754,-17.4363 0,0 19.95,-15.9733 19.95,-15.9733 0,0 5.32,3.99 5.32,3.99 3.8836,-11.6508 16.1994,-19.3249 25.1636,-27.0655 0,0 10.7464,-11.5045 10.7464,-11.5045 0,0 2.66,2.66 2.66,2.66 z m -15.96,49.21 c 0,0 1.33,0 1.33,0 0,0 -1.33,1.33 -1.33,1.33 0,0 0,-1.33 0,-1.33 z m 63.84,7.98 c 0,0 -1.33,0 -1.33,0 0,0 1.33,1.33 1.33,1.33 0,0 0,-1.33 0,-1.33 z m -238.07,47.88 c 0,0 -1.33,0 -1.33,0 0,0 1.33,1.33 1.33,1.33 0,0 0,-1.33 0,-1.33 z m 175.56,1.33 c 0,0 -1.33,0 -1.33,0 0,0 1.33,1.33 1.33,1.33 0,0 0,-1.33 0,-1.33 z m -25.27,46.55 c 0,0 1.33,0 1.33,0 0,0 -1.33,1.33 -1.33,1.33 0,0 0,-1.33 0,-1.33 z m -89.11,23.94 c 0,0 -1.33,0 -1.33,0 0,0 1.33,1.33 1.33,1.33 0,0 0,-1.33 0,-1.33 z m -138.32,17.29 c 0,0 -6.65,3.99 -6.65,3.99 0,0 6.65,-3.99 6.65,-3.99 z m -6.65,3.99 c 0,0 -1.33,0 -1.33,0 0,0 1.33,1.33 1.33,1.33 0,0 0,-1.33 0,-1.33 z m 47.88,0 c 0,0 -1.33,0 -1.33,0 0,0 1.33,1.33 1.33,1.33 0,0 0,-1.33 0,-1.33 z m -107.73,22.61 c 0,0 -5.32,3.99 -5.32,3.99 0,0 1.33,1.33 1.33,1.33 0,0 3.99,-5.32 3.99,-5.32 z m -135.66,61.18 c 0,0 -23.2883,-19.1254 -23.2883,-19.1254 -2.5004,-0.7714 -4.7215,-0.1596 -7.3017,0 -8.6849,-0.7581 -9.9883,-3.6442 -14.63,5.8254 -3.0989,-4.921 -5.1205,-5.0407 -10.64,-3.99 0,0 -1.33,7.98 -1.33,7.98 0,0 9.31,3.99 9.31,3.99 -4.0831,1.6093 0.7182,4.2427 2.66,5.32 0,0 -1.33,5.32 -1.33,5.32 -15.4812,-4.4555 -10.64,-8.0066 -21.28,-11.6242 -8.2859,-2.8063 -11.0257,1.5827 -17.29,1.4364 -4.6151,-0.1064 -7.0623,-2.8196 -11.97,-3.325 -7.5278,-0.7847 -14.3374,1.7955 -21.28,4.2028 0,0 7.98,11.97 7.98,11.97 0,0 17.29,3.99 17.29,3.99 0,0 -1.33,5.32 -1.33,5.32 0,0 23.94,5.32 23.94,5.32 0,0 -2.66,2.66 -2.66,2.66 10.1213,1.3832 14.3241,-5.5328 23.94,-8.2593 0,0 25.27,-2.1413 25.27,-2.1413 10.1878,-2.1945 11.837,-6.4505 22.61,-8.2194 0,0 1.33,-6.65 1.33,-6.65 z m 170.24,-21.28 c 0,0 -1.33,0 -1.33,0 0,0 1.33,1.33 1.33,1.33 0,0 0,-1.33 0,-1.33 z m -281.96,10.64 c 0,0 -1.33,0 -1.33,0 0,0 1.33,1.33 1.33,1.33 0,0 0,-1.33 0,-1.33 z m -138.32001,2.66 c 0,0 -6.65,3.99 -6.65,3.99 0,0 6.65,-3.99 6.65,-3.99 z m 102.41,10.64 c 0,0 -10.64,-1.33 -10.64,-1.33 0,0 2.66,5.32 2.66,5.32 0,0 2.66,0 2.66,0 0,0 5.32,-3.99 5.32,-3.99 z m 22.61001,9.31 c -1.0773,-1.8487 -0.9709,-2.5004 -3.0457,-3.8304 -4.2294,-2.6999 -20.09631,-5.8919 -23.46121,-0.9177 -1.7157,2.527 0.3857,12.3025 7.88691,10.0681 0,0 -5.32001,-2.66 -5.32001,-2.66 14.03151,4.6683 16.46541,2.8994 30.59001,1.5561 5.3599,-0.5187 9.4829,0.4788 14.63,-1.5561 0,0 -21.28,-2.66 -21.28,-2.66 z m 19.95,-3.99 c 0,0 -1.33,0 -1.33,0 0,0 1.33,1.33 1.33,1.33 0,0 0,-1.33 0,-1.33 z m 21.28,10.64 c 0,0 -1.33,0 -1.33,0 0,0 1.33,1.33 1.33,1.33 0,0 0,-1.33 0,-1.33 z m -215.46,25.27 c 0,0 -1.330002,0 -1.330002,0 0,0 1.330002,1.33 1.330002,1.33 0,0 0,-1.33 0,-1.33 z m -1.330002,1.33 c 0,0 -1.33,0 -1.33,0 0,0 1.33,1.33 1.33,1.33 0,0 0,-1.33 0,-1.33 z m -14.63,9.31 c 0,0 -1.33,0 -1.33,0 0,0 1.33,1.33 1.33,1.33 0,0 0,-1.33 0,-1.33 z m 651.700002,6.65 c 0,0 -6.65,1.0507 -6.65,1.0507 0,0 -22.61,1.9817 -22.61,1.9817 0,0 -27.8103,1.9019 -27.8103,1.9019 0,0 -12.0897,7.0357 -12.0897,7.0357 14.1113,3.3649 21.9184,17.1703 30.59,27.93 5.0141,-6.3042 13.6591,-12.8744 21.28,-15.694 0,0 7.98,-2.394 7.98,-2.394 6.8096,-2.926 9.3233,-6.3707 17.29,-8.512 -0.4522,-7.7273 -1.3566,-9.1903 -7.98,-13.3 z m -121.03,5.32 c 0,0 -1.33,0 -1.33,0 0,0 1.33,1.33 1.33,1.33 0,0 0,-1.33 0,-1.33 z m -3.99,3.99 c 0,0 -1.33,0 -1.33,0 0,0 1.33,1.33 1.33,1.33 0,0 0,-1.33 0,-1.33 z m 23.94,3.99 c 0,0 -21.28,0 -21.28,0 0,0 11.97,7.98 11.97,7.98 0,0 -1.33,5.32 -1.33,5.32 3.8969,-2.8063 9.177,-8.7647 10.64,-13.3 z m 29.26,3.99 c 0,0 -1.33,0 -1.33,0 0,0 1.33,1.33 1.33,1.33 0,0 0,-1.33 0,-1.33 z m -458.85001,2.66 c 0,0 -1.33,0 -1.33,0 0,0 1.33,1.33 1.33,1.33 0,0 0,-1.33 0,-1.33 z m 343.14001,0 c 0,0 -31.92,10.64 -31.92,10.64 7.1022,5.054 13.3,12.635 21.28,14.63 0.9177,-13.4463 7.049,-13.0739 10.64,-25.27 z m -207.48,13.3 c 0,0 -25.27,1.8221 -25.27,1.8221 0,0 -11.97,-4.4821 -11.97,-4.4821 0,0 -1.33,1.33 -1.33,1.33 0,0 0,2.66 0,2.66 0,0 15.96,8.7647 15.96,8.7647 2.6068,1.7024 6.1047,4.8146 9.31,4.8811 6.3973,0.1064 11.5444,-9.7755 13.3,-14.9758 z m -51.87,2.66 c 0,0 -1.33,0 -1.33,0 0,0 1.33,1.33 1.33,1.33 0,0 0,-1.33 0,-1.33 z m 454.86,0 c 0,0 -1.33,0 -1.33,0 0,0 1.33,1.33 1.33,1.33 0,0 0,-1.33 0,-1.33 z m 2.66,1.33 c 0,0 -1.33,0 -1.33,0 0,0 1.33,1.33 1.33,1.33 0,0 0,-1.33 0,-1.33 z m -598.50001,3.99 c 0,0 -1.33,0 -1.33,0 0,0 1.33,1.33 1.33,1.33 0,0 0,-1.33 0,-1.33 z m 547.96001,0 c 0,0 -1.33,0 -1.33,0 0,0 1.33,1.33 1.33,1.33 0,0 0,-1.33 0,-1.33 z m 7.98,23.94 c 0,0 -1.33,0 -1.33,0 0,0 1.33,1.33 1.33,1.33 0,0 0,-1.33 0,-1.33 z m -388.36,10.64 c 0,0 -1.33,0 -1.33,0 0,0 1.33,1.33 1.33,1.33 0,0 0,-1.33 0,-1.33 z m 726.18005,0 c 0,0 -1.33,0 -1.33,0 0,0 1.33,1.33 1.33,1.33 0,0 0,-1.33 0,-1.33 z m -367.08005,2.66 c 0,0 -1.33,0 -1.33,0 0,0 1.33,1.33 1.33,1.33 0,0 0,-1.33 0,-1.33 z m 337.82005,7.98 c 0,0 -1.33,0 -1.33,0 0,0 1.33,1.33 1.33,1.33 0,0 0,-1.33 0,-1.33 z m -714.21005,3.99 c 0,0 -1.33,0 -1.33,0 0,0 1.33,1.33 1.33,1.33 0,0 0,-1.33 0,-1.33 z m 771.40005,10.64 c 0,0 2.66,-1.33 2.66,-1.33 0,0 2.66,2.66 2.66,2.66 0,0 0,1.33 0,1.33 0,0 -5.32,-2.66 -5.32,-2.66 z"
     style="fill:#000000;stroke:none" />
</svg>
