<?xml version="1.0" encoding="UTF-8" standalone="no"?>
<svg
   xmlns:dc="http://purl.org/dc/elements/1.1/"
   xmlns:cc="http://creativecommons.org/ns#"
   xmlns:rdf="http://www.w3.org/1999/02/22-rdf-syntax-ns#"
   xmlns:svg="http://www.w3.org/2000/svg"
   xmlns="http://www.w3.org/2000/svg"
   xmlns:sodipodi="http://sodipodi.sourceforge.net/DTD/sodipodi-0.dtd"
   xmlns:inkscape="http://www.inkscape.org/namespaces/inkscape"
   width="100mm"
   height="100mm"
   viewBox="0 0 566.90006 566.89989"
   version="1.1"
   id="svg495"
   sodipodi:docname="sirene.svg"
   inkscape:version="1.0.1 (3bc2e813f5, 2020-09-07)">
  <metadata
     id="metadata501">
    <rdf:RDF>
      <cc:Work
         rdf:about="">
        <dc:format>image/svg+xml</dc:format>
        <dc:type
           rdf:resource="http://purl.org/dc/dcmitype/StillImage" />
        <dc:title></dc:title>
      </cc:Work>
    </rdf:RDF>
  </metadata>
  <defs
     id="defs499" />
  <sodipodi:namedview
     pagecolor="#ffffff"
     bordercolor="#666666"
     borderopacity="1"
     objecttolerance="10"
     gridtolerance="10"
     guidetolerance="10"
     inkscape:pageopacity="0"
     inkscape:pageshadow="2"
     inkscape:window-width="3840"
     inkscape:window-height="2066"
     id="namedview497"
     showgrid="false"
     inkscape:zoom="1.6310818"
     inkscape:cx="911.46544"
     inkscape:cy="401.20094"
     inkscape:window-x="-11"
     inkscape:window-y="-11"
     inkscape:window-maximized="1"
     inkscape:current-layer="svg495"
     inkscape:document-rotation="0" />
  <path
     id="Sélection #10"
     fill="none"
     stroke="#000000"
     stroke-width="1.2"
     d="m 308.95568,391.04239 c 1.044,-12.744 3.6,-12.672 11.508,-21.648 10.824,-12.264 16.08,-19.572 32.892,-22.368 10.392,-1.728 19.848,3.78 25.788,-1.068 0,0 8.172,-9.768 8.172,-9.768 2.796,-2.844 7.344,-5.82 9.324,-8.952 2.004,-3.18 1.968,-7.116 3.504,-10.488 1.548,-3.408 4.116,-5.4 6.024,-8.556 0,0 4.944,-10.752 4.944,-10.752 6.372,-10.668 16.944,-19.404 26.196,-27.504 11.256,-9.852 12.456,-18.12 26.448,-12.6 2.028,0.804 4.668,1.656 5.988,3.516 3.444,4.944 -2.508,11.376 0,23.388 -3.66,2.88 -1.884,5.4 -1.188,9.6 0,0 -4.8,-2.4 -4.8,-2.4 0,0 1.2,7.2 1.2,7.2 0,0 -4.8,-1.2 -4.8,-1.2 -0.684,5.376 -1.488,9.876 -6,13.2 0,0 1.2,4.8 1.2,4.8 0,0 -4.8,0 -4.8,0 0,0 1.2,4.8 1.2,4.8 0,0 -4.8,6 -4.8,6 0,0 8.4,-3.6 8.4,-3.6 0,0 -1.2,-3.6 -1.2,-3.6 5.52,-0.936 6.276,-1.716 4.8,-7.2 0,0 7.2,1.2 7.2,1.2 0,0 -2.4,-6 -2.4,-6 0,0 6,2.4 6,2.4 0,0 0,-6 0,-6 0,0 8.4,-2.4 8.4,-2.4 0,0 -3.6,-4.8 -3.6,-4.8 0,0 8.4,1.2 8.4,1.2 0,0 -3.6,-6 -3.6,-6 0,0 4.8,-1.2 4.8,-1.2 0,0 -1.2,-3.6 -1.2,-3.6 0,0 12,-1.2 12,-1.2 5.124,28.608 -8.592,40.716 -24.168,62.4 -6.264,8.724 -11.112,19.332 -22.632,20.4 -0.252,4.944 -2.796,16.392 -1.068,20.4 1.404,3.24 8.892,10.896 11.976,12.948 0,0 6.804,4.008 6.804,4.008 3.096,2.412 6.372,8.352 8.34,11.844 6.336,11.232 7.26,25.572 10.644,29.532 5.82,6.792 20.712,-0.396 23.304,14.868 8.244,1.296 15.072,5.004 18,13.2 0,0 -7.308,-2.892 -7.308,-2.892 0,0 -15.492,-0.708 -15.492,-0.708 3.468,5.088 7.212,8.028 4.8,14.4 -2.964,-5.46 -6.384,-6.324 -12,-8.448 -11.988,-4.512 -23.376,-6.228 -30,7.248 -8.064,-5.46 2.076,-14.784 2.292,-21.6 0.06,-2.04 -1.836,-8.388 -2.448,-10.8 -1.572,-6.252 -4.524,-18.768 -8.232,-23.736 -1.98,-2.652 -4.356,-3.708 -7.212,-5.16 -1.992,-1.008 -5.772,-2.94 -7.896,-3.024 -2.244,-0.66 -4.212,-0.012 -6.42,0 -12.36,1.884 -8.628,1.944 -19.284,6.144 -10.452,4.128 -17.724,1.824 -24,4.428 -14.34,5.964 -23.148,15.756 -40.8,18.948 6.768,6.96 7.692,2.46 16.8,2.436 7.224,-0.024 11.064,1.536 15.6,7.164 0,0 -9.6,-2.4 -9.6,-2.4 0,0 10.44,6.36 10.44,6.36 0,0 6.36,17.64 6.36,17.64 -8.148,-5.328 -9.852,-14.688 -21.6,-13.2 10.056,3.216 12.948,9.084 13.2,19.2 -8.52,-4.44 -7.536,-9.468 -15.6,-9.6 0,0 3.6,10.8 3.6,10.8 -4.272,-1.56 -8.94,-4.524 -13.2,-5.316 -5.772,-1.092 -9.132,2.004 -15.468,-2.292 -1.44,-0.972 -2.616,-2.064 -3.528,-3.552 0,0 -7.404,-20.04 -7.404,-20.04 -13.164,6.924 -15.012,5.712 -27.6,10.572 0,0 -36,13.2 -36,13.2 -3.156,0.408 -7.5,0.192 -10.8,0 0,0 -15.6,1.32 -15.6,1.32 -26.28,-1.488 -38.064,-6.108 -61.2,-17.592 0,0 -12,-5.808 -12,-5.808 -10.644,-6.204 -33.972,-29.76 -44.292,-39.396 -4.692,-4.38 -9.768,-12.552 -15.708,-14.556 -6.072,-2.052 -10.068003,3.036 -25.200003,3.06 0,0 -10.8,0 -10.8,0 -10.824,-0.132 -17.616,-4.284 -27.599999,-6.396 -5.508,-1.176 -12.276,-0.792 -18.000001,-0.804 -7.98,-0.012 -14.028,-0.36 -15.6,-9.6 11.808,0.252 5.136,-4.356 19.200001,0 -5.916001,-10.092 4.296,-8.784 10.8,-7.2 0,0 -1.2,-4.8 -1.2,-4.8 0,0 14.543999,2.808 14.543999,2.808 0,0 8.268,-4.428 8.268,-4.428 0,0 21.588,-0.78 21.588,-0.78 -3.12,-6.852 -2.316,-10.296 6,-8.4 0,0 -3.6,-3.6 -3.6,-3.6 0,0 1.2,-9.6 1.2,-9.6 4.164,-1.008 8.952,-1.8 13.200003,-0.684 7.044,1.836 19.296,12.996 21.708,19.884 1.848,5.304 2.964,17.304 6.504,21.096 2.484,2.676 10.116,5.064 13.788,6.504 0,0 34.8,11.844 34.8,11.844 3.648,0.744 18.888,-2.256 24,-2.94 17.796,-2.376 28.068,-0.036 45.6,-7.044 0,0 21.6,-8.28 21.6,-8.28 15.636,-6.24 22.164,-10.032 39.6,-4.38 z m 190.8,67.2 c 0,0 -4.8,1.2 -4.8,1.2 0,0 0,2.4 0,2.4 0,0 1.2,1.2 1.2,1.2 0,0 2.4,0 2.4,0 0,0 1.2,-4.8 1.2,-4.8 z m 4.8,1.2 c 0,0 -1.2,0 -1.2,0 0,0 1.2,1.2 1.2,1.2 0,0 0,-1.2 0,-1.2 z"
     style="fill:#000000;stroke:none" />
</svg>
