<?xml version="1.0" encoding="UTF-8" standalone="no"?>
<svg
   xmlns:dc="http://purl.org/dc/elements/1.1/"
   xmlns:cc="http://creativecommons.org/ns#"
   xmlns:rdf="http://www.w3.org/1999/02/22-rdf-syntax-ns#"
   xmlns:svg="http://www.w3.org/2000/svg"
   xmlns="http://www.w3.org/2000/svg"
   xmlns:sodipodi="http://sodipodi.sourceforge.net/DTD/sodipodi-0.dtd"
   xmlns:inkscape="http://www.inkscape.org/namespaces/inkscape"
   width="100mm"
   height="100mm"
   viewBox="0 0 566.90006 566.89991"
   version="1.1"
   id="svg3"
   sodipodi:docname="tigre-vert-vert.svg"
   inkscape:version="1.0.1 (3bc2e813f5, 2020-09-07)">
  <metadata
     id="metadata9">
    <rdf:RDF>
      <cc:Work
         rdf:about="">
        <dc:format>image/svg+xml</dc:format>
        <dc:type
           rdf:resource="http://purl.org/dc/dcmitype/StillImage" />
        <dc:title></dc:title>
      </cc:Work>
    </rdf:RDF>
  </metadata>
  <defs
     id="defs7" />
  <sodipodi:namedview
     pagecolor="#ffffff"
     bordercolor="#666666"
     borderopacity="1"
     objecttolerance="10"
     gridtolerance="10"
     guidetolerance="10"
     inkscape:pageopacity="0"
     inkscape:pageshadow="2"
     inkscape:window-width="3840"
     inkscape:window-height="2066"
     id="namedview5"
     showgrid="false"
     inkscape:zoom="2.3970636"
     inkscape:cx="597.36725"
     inkscape:cy="229.24759"
     inkscape:window-x="-11"
     inkscape:window-y="-11"
     inkscape:window-maximized="1"
     inkscape:current-layer="svg3"
     inkscape:document-rotation="0" />
  <path
     id="Sélection #2"
     fill="none"
     stroke="black"
     stroke-width="1.08"
     d="m 49.879948,251.94334 c 0,0 19.44,7.4196 19.44,7.4196 0,0 23.759995,11.5344 23.759995,11.5344 0,0 23.760007,8.1108 23.760007,8.1108 0,0 18.36,9.3312 18.36,9.3312 11.9772,5.1516 31.3308,10.4328 44.28,12.2256 10.962,1.5228 21.654,-1.8036 32.4,-3.078 0,0 16.2,-1.5768 16.2,-1.5768 5.9508,-0.7776 8.5212,-2.0952 15.12,-1.8036 9.6768,0.4212 15.7032,6.2748 27,6.7716 7.2792,0.324 7.8408,-0.8424 14.04,-2.0952 12.204,-2.4624 18.6948,-3.3264 30.24,-9.3852 0,0 10.8,-5.7996 10.8,-5.7996 0,0 44.28003,-14.85 44.28003,-14.85 0,0 36.72,-8.4888 36.72,-8.4888 7.0632,-0.7344 11.5236,3.3048 18.36,0.8424 0,0 12.96,-6.9228 12.96,-6.9228 0,0 28.08,-9.342 28.08,-9.342 0,0 10.7028,-2.8512 10.7028,-2.8512 4.7844,-1.6632 6.1776,-5.778 11.9772,-5.7132 0,0 8.0136,1.6632 8.0136,1.6632 3.4128,0.3996 7.5168,-0.8856 14.6664,1.6416 0,0 15.12,7.4844 15.12,7.4844 4.3632,1.8792 11.502,2.484 14.2452,5.4324 1.5768,1.6956 2.916,5.7348 6.7824,10.152 0,0 8.64,7.9812 8.64,7.9812 2.8836,3.186 10.368,16.1352 10.2924,20.196 -0.054,2.6568 -3.1536,7.398 -5.1408,9.1044 0,0 -13.2192,5.076 -13.2192,5.076 -5.616,2.3004 -8.1648,2.0196 -14.04,2.0196 0,0 8.64,-9.72 8.64,-9.72 0,0 -7.56,-1.1124 -7.56,-1.1124 -6.7176,-0.0108 -17.1288,5.2488 -16.9668,12.9924 0.0648,2.9376 1.7064,6.0264 2.9268,8.64 0,0 -3.24,1.08 -3.24,1.08 0,0 0,2.16 0,2.16 0,0 8.64,0 8.64,0 0,0 -4.0392,7.56 -4.0392,7.56 0,0 -2.7324,5.8752 -2.7324,5.8752 -2.6352,3.8016 -10.3032,2.9484 -13.0572,0 -1.8792,-2.2572 -0.8532,-4.536 -1.3284,-6.9552 -0.8748,-4.4388 -4.8384,-8.5968 -9.0828,-9.72 -1.5336,-4.914 -2.5272,-5.2488 -7.56,-5.4 0,0 0,11.88 0,11.88 0,0 -4.32,-8.64 -4.32,-8.64 0,0 -2.16,10.8 -2.16,10.8 0,0 -3.24,-7.56 -3.24,-7.56 0,0 -1.08,5.4 -1.08,5.4 0,0 -3.24,-8.64 -3.24,-8.64 0,0 -3.24,6.48 -3.24,6.48 -0.6372,-4.3416 -0.8748,-4.8384 -4.32,-7.56 0,0 -4.32,5.4 -4.32,5.4 0,0 -4.32,-5.4 -4.32,-5.4 -1.4904,2.4732 -6.6312,10.7028 -7.1928,12.96 -0.972,3.8664 3.672,16.4808 6.1128,19.44 0,0 3.24,7.56 3.24,7.56 0,0 -5.4,0 -5.4,0 0,0 2.16,5.4 2.16,5.4 0,0 -5.4,-1.08 -5.4,-1.08 0,0 -2.16,5.4 -2.16,5.4 0,0 -1.08,0 -1.08,0 0,0 -2.16,-2.16 -2.16,-2.16 0,0 0,4.32 0,4.32 0,0 -6.48,-1.08 -6.48,-1.08 0.8964,9.9468 5.7348,18.9972 9.558,28.08 1.7496,4.158 3.078,9.4176 5.9832,12.7764 0,0 19.6236,16.686 19.6236,16.686 6.3072,6.5988 7.7544,11.5128 10.6164,14.5908 2.0736,2.2356 6.5664,4.806 9.2988,6.5664 1.458,0.9396 2.6784,1.8144 4.32,2.4624 -4.0068,-1.5876 21.4704,5.7456 17.28,4.9464 3.0996,0.594 6.642,-0.1404 9.4824,1.5552 3.2616,1.9548 6.7824,9.18 7.7976,12.7764 0,0 -7.56,-3.24 -7.56,-3.24 0,0 2.16,7.56 2.16,7.56 -5.0436,0.7344 -4.9788,-0.9396 -8.8236,-0.7884 0,0 -22.4964,2.1384 -22.4964,2.1384 -17.388,-3.78 -13.6296,-10.1412 -24.84,-9.99 0,0 2.16,-6.48 2.16,-6.48 0,0 -7.56,-2.16 -7.56,-2.16 0,0 1.08,-3.24 1.08,-3.24 0,0 -17.28,-6.48 -17.28,-6.48 0,0 -4.32,-4.32 -4.32,-4.32 0,0 2.16,-1.08 2.16,-1.08 0,0 -11.88,-4.32 -11.88,-4.32 0,0 -1.08,-3.24 -1.08,-3.24 0,0 -3.24,1.08 -3.24,1.08 0,0 -4.32,-7.56 -4.32,-7.56 0,0 -8.64,3.24 -8.64,3.24 0,0 4.32,-4.32 4.32,-4.32 0,0 -7.56,1.08 -7.56,1.08 0,0 -1.08,-6.48 -1.08,-6.48 0,0 -8.64,3.24 -8.64,3.24 0,0 4.32,-3.24 4.32,-3.24 0,0 0,-5.4 0,-5.4 0,0 -4.32,-1.08 -4.32,-1.08 0,0 0,-4.32 0,-4.32 0,0 -2.16,3.24 -2.16,3.24 0,0 -3.24,-16.2 -3.24,-16.2 0,0 -5.4,5.4 -5.4,5.4 0,0 0,-7.56 0,-7.56 0,0 -4.32,6.48 -4.32,6.48 0,0 -2.16,-7.56 -2.16,-7.56 0,0 -2.16,0 -2.16,0 0,9.0936 0.5076,16.9452 -1.62,25.92 -1.1124,4.6872 -4.7196,11.0592 -4.2336,15.12 0.6696,5.4648 5.2164,7.8624 8.2404,11.9232 0,0 9.5904,16.038 9.5904,16.038 1.08,1.404 1.8144,2.2464 3.3372,3.186 -1.8468,-1.134 16.4808,8.0028 13.8456,7.1064 0,0 8.2404,1.242 8.2404,1.242 3.8448,1.728 8.3484,8.2728 9.0396,12.3444 0,0 -10.8,-1.08 -10.8,-1.08 0,0 0,5.4 0,5.4 0,0 -16.2,0.8532 -16.2,0.8532 -5.1732,-0.7236 -7.5384,-2.97 -11.88,-4.8924 -6.7284,-2.9808 -9.1476,0.6696 -9.72,-8.9208 -11.5128,-1.2312 -8.0028,-6.2424 -19.44,-5.4 2.9808,-6.426 2.3112,-8.478 -3.24,-12.96 1.0692,-12.3768 -7.3224,-13.284 -10.8,-21.6 0,0 -3.24,1.08 -3.24,1.08 0,0 -1.08,-10.8 -1.08,-10.8 0,0 -4.32,-1.08 -4.32,-1.08 0,0 3.24,-5.4 3.24,-5.4 0,0 -4.32,2.16 -4.32,2.16 0,0 2.16,-4.32 2.16,-4.32 0,0 -3.24,1.08 -3.24,1.08 0,0 1.08,-6.48 1.08,-6.48 0,0 -4.32,0 -4.32,0 4.2984,-8.4348 10.1088,-6.9444 10.8,-14.04 -4.2012,2.2032 -8.262,2.6892 -12.96,2.16 0,0 -1.08,3.24 -1.08,3.24 0,0 -4.32003,0 -4.32003,0 0,0 -7.56,0 -7.56,0 0,0 -1.08,3.24 -1.08,3.24 0,0 -3.24,-2.16 -3.24,-2.16 0,0 -1.08,3.24 -1.08,3.24 -3.3048,-3.3588 -4.2768,0.0648 -5.4,3.24 0,0 -3.24,-2.16 -3.24,-2.16 0,0 -14.04,7.56 -14.04,7.56 0,0 -3.24,-4.32 -3.24,-4.32 0,0 -2.16,8.64 -2.16,8.64 -1.9872,-2.8188 -2.3652,-2.5164 -5.4,-1.08 0,0 -3.24,-4.32 -3.24,-4.32 0,0 0,9.72 0,9.72 0,0 -3.24,-9.72 -3.24,-9.72 0,0 1.08,6.48 1.08,6.48 0,0 -3.24,-3.24 -3.24,-3.24 0,0 -6.48,4.32 -6.48,4.32 0,0 0,-7.56 0,-7.56 0,0 -5.4,3.24 -5.4,3.24 0,0 2.16,-4.32 2.16,-4.32 0,0 -5.4,8.64 -5.4,8.64 0,0 0,-5.4 0,-5.4 -5.8428,8.2296 -6.804,27.1404 -15.228,32.8212 -3.1968,2.1492 -7.0848,0.8316 -10.692,1.1556 0,0 -15.12,1.3176 -15.12,1.3176 0,0 -17.2584,-2.0736 -17.2584,-2.0736 -3.9852,-0.0864 -8.1972,4.4496 -8.1432,8.4024 0.0216,2.1816 2.862,4.4496 4.2552,6.0804 1.6416,1.9332 2.754,3.8988 5.0544,5.1948 4.9788,2.808 14.8716,0.5076 18.252,11.9016 -5.562,2.3004 -6.6528,4.266 -8.8236,5.0868 -3.2184,1.2312 -21.3408,-1.1556 -24.3972,-2.4732 -3.5424,-1.5228 -2.646,-4.8924 -6.8364,-6.48 -4.212,-1.5984 -4.8168,1.0476 -11.7828,-2.6136 0,0 0,1.08 0,1.08 0,0 -2.16,1.08 -2.16,1.08 0,0 3.24,-7.56 3.24,-7.56 0,0 -4.32,-4.32 -4.32,-4.32 0.648,-12.8088 3.9312,-21.7188 8.64,-33.48 0,0 6.48,1.08 6.48,1.08 0,0 -2.16,-3.24 -2.16,-3.24 0,0 6.48,1.08 6.48,1.08 0,0 -1.08,-3.24 -1.08,-3.24 0,0 1.08,-1.08 1.08,-1.08 0,0 3.24,1.08 3.24,1.08 0,0 -2.16,-5.4 -2.16,-5.4 0,0 8.64,3.24 8.64,3.24 0,0 5.4,-8.64 5.4,-8.64 0,0 -4.32,1.08 -4.32,1.08 0,0 2.16,-4.32 2.16,-4.32 0,0 -5.4,3.24 -5.4,3.24 0,0 1.08,-3.24 1.08,-3.24 0,0 -4.32,0 -4.32,0 0.6264,-2.1168 2.1492,-4.266 0,-5.4 0,0 2.16,-4.32 2.16,-4.32 0,0 -7.56,-1.08 -7.56,-1.08 0,0 1.08,-3.24 1.08,-3.24 -3.3588,1.8468 -7.8408,3.1968 -10.368,5.6808 -3.2184,3.1644 -7.1172,9.7956 -11.232,11.2536 -3.1644,1.3392 -5.2704,-0.5832 -9.72,0 0,0 -14.04,3.3912 -14.04,3.3912 -8.1972,0.9936 -16.0812,-0.1728 -24.84,2.3976 -13.95361,4.104 -19.828807,12.1284 -29.030407,22.4424 -5.194795,5.8104 -13.996795,11.1024 -12.247195,20.7144 1.296,9.7416 3.672,1.2528 0,18.36 0,0 -3.0024,-2.16 -3.0024,-2.16 0,0 -4.32,7.56 -4.32,7.56 -6.264,-1.7928 -8.9424,-4.6224 -10.8,-10.8 0,0 -2.16,0 -2.16,0 0,0 -2.16,3.24 -2.16,3.24 -2.4192,-5.2272 -5.3784,-16.0704 -3.132,-21.6 1.404,-3.4344 4.6116,-6.4476 6.4692,-9.72 2.3652,-4.1364 1.4796,-6.75 6.3828,-8.64 0,0 -2.16,-5.4 -2.16,-5.4 3.0348,-1.8468 3.942,-3.942 6.6204,-6.1668 11.3616,-9.45 19.591195,-15.5628 20.379595,-31.6332 3.1968,-0.7236 7.4304,-1.0152 8.64,-4.32 0,0 10.799997,-3.24 10.799997,-3.24 0,0 -1.08,-2.16 -1.08,-2.16 0,0 9.72001,-7.56 9.72001,-7.56 1.0044,-4.104 4.2768,-5.3136 7.56,-7.5924 5.0868,-3.5208 9.3312,-8.4024 15.12,-10.7676 0,0 -1.08,-3.24 -1.08,-3.24 0,0 6.48,0 6.48,0 0,0 0,-3.24 0,-3.24 0,0 -7.56,-1.08 -7.56,-1.08 0,0 6.48,-1.08 6.48,-1.08 0,0 -4.32,-7.56 -4.32,-7.56 0,0 7.56,2.16 7.56,2.16 0,0 -5.4,-4.32 -5.4,-4.32 0,0 10.8,0 10.8,0 0,0 0,-2.16 0,-2.16 0,0 -9.72,-2.16 -9.72,-2.16 0,0 8.64,-1.08 8.64,-1.08 0,0 0,-2.16 0,-2.16 0,0 -7.56,-1.08 -7.56,-1.08 0,0 4.32,-2.16 4.32,-2.16 0,0 -1.08,-3.24 -1.08,-3.24 -3.402,1.9656 -3.9636,2.9916 -7.56,1.08 0,0 -3.24,2.16 -3.24,2.16 0,0 1.08,-6.48 1.08,-6.48 0,0 -6.48,6.48 -6.48,6.48 0,0 4.32,-7.56 4.32,-7.56 0,0 -6.48,5.4 -6.48,5.4 0,0 0,-5.4 0,-5.4 0,0 -1.08,3.24 -1.08,3.24 0,0 -5.4,-1.08 -5.4,-1.08 0,0 -2.16,4.32 -2.16,4.32 0,0 1.08,-7.56 1.08,-7.56 0,0 -3.24,1.08 -3.24,1.08 0,0 0,-1.08 0,-1.08 0,0 2.16,-2.16 2.16,-2.16 0,0 -10.80001,5.4 -10.80001,5.4 1.4256,-4.7844 2.43,-4.7412 1.08,-9.72 0,0 -2.16,0 -2.16,0 0,0 -4.32,6.48 -4.32,6.48 0,0 -2.159997,-9.72 -2.159997,-9.72 0,0 2.159997,-4.32 2.159997,-4.32 0,0 -4.319997,2.16 -4.319997,2.16 0,0 1.08,-3.24 1.08,-3.24 0,0 -4.32,1.08 -4.32,1.08 -1.1664,-5.022 -2.7,-6.1236 -7.56,-7.56 -1.3932,-5.0004 -3.3696,-8.4672 -8.639995,-9.72 -2.3112,-6.4692 -13.3812,-15.5628 -19.44,-18.4464 0,0 -7.2576,-2.4732 -7.2576,-2.4732 -3.8556,-1.4796 -6.4908,-3.6288 -11.1024,-3.618 -8.9964,0.0216 -17.9172,13.878 -17.064,22.3776 0.8532,8.5752 8.8236,15.0984 9.9792,20.52 1.08,5.0868 -3.726,12.2148 -11.178,8.0244 -7.8084,-4.3848 -10.0332,-16.9668 -16.2972001,-20.9844 2.3544,-7.0092 0.5292,-14.31 0,-21.6 0,0 3.24,-1.08 3.24,-1.08 0,0 -1.08,-3.24 -1.08,-3.24 0,0 3.24,-1.08 3.24,-1.08 0,0 -2.16,-2.16 -2.16,-2.16 0,0 0,-1.08 0,-1.08 0,0 4.3200001,0 4.3200001,0 0,0 -1.08,-4.32 -1.08,-4.32 0,0 3.24,1.08 3.24,1.08 0,0 1.08,-4.32 1.08,-4.32 0,0 3.24,1.08 3.24,1.08 0,0 0,-4.32 0,-4.32 0,0 4.32,2.16 4.32,2.16 0,0 1.08,-4.32 1.08,-4.32 0,0 4.32,1.08 4.32,1.08 0,0 0,-4.32 0,-4.32 0,0 15.12,2.16 15.12,2.16 2.43,-1.4796 1.89,-1.4796 4.32,0 0,0 1.08,-2.16 1.08,-2.16 0,0 1.08,0 1.08,0 z m 65.880002,66.96 c 0,0 -5.4,4.32 -5.4,4.32 0,0 5.4,-4.32 5.4,-4.32 z m 23.76,4.32 c 0,0 -2.16,0 -2.16,0 0,0 -1.08,5.4 -1.08,5.4 0,0 3.24,-5.4 3.24,-5.4 z m 197.64003,74.52 c 0,0 -1.08,0 -1.08,0 0,0 1.08,1.08 1.08,1.08 0,0 0,-1.08 0,-1.08 z m -149.04003,2.16 c 0,0 -1.08,0 -1.08,0 0,0 1.08,1.08 1.08,1.08 0,0 0,-1.08 0,-1.08 z m -1.08,1.08 c 0,0 -1.08,0 -1.08,0 0,0 1.08,1.08 1.08,1.08 0,0 0,-1.08 0,-1.08 z m 85.32,11.88 c 0,0 -2.16,0 -2.16,0 0,0 -1.08,4.32 -1.08,4.32 0,0 3.24,-4.32 3.24,-4.32 z m -69.12,4.32 c 0,0 -2.16,0 -2.16,0 0,0 -2.16,6.48 -2.16,6.48 3.618,-2.0412 3.6396,-2.4192 4.32,-6.48 z m 10.8,6.48 c -3.1428,-5.4972 -5.994,-4.0824 -9.72,0 0,0 9.72,0 9.72,0 z"
     style="fill:#338000;stroke:none" />
</svg>
