<?xml version="1.0" encoding="UTF-8" standalone="no"?>
<svg
   xmlns:dc="http://purl.org/dc/elements/1.1/"
   xmlns:cc="http://creativecommons.org/ns#"
   xmlns:rdf="http://www.w3.org/1999/02/22-rdf-syntax-ns#"
   xmlns:svg="http://www.w3.org/2000/svg"
   xmlns="http://www.w3.org/2000/svg"
   xmlns:sodipodi="http://sodipodi.sourceforge.net/DTD/sodipodi-0.dtd"
   xmlns:inkscape="http://www.inkscape.org/namespaces/inkscape"
   width="100mm"
   height="100mm"
   viewBox="0 0 566.90006 566.89991"
   version="1.1"
   id="svg521"
   sodipodi:docname="tournedent.svg"
   inkscape:version="1.0.1 (3bc2e813f5, 2020-09-07)">
  <metadata
     id="metadata527">
    <rdf:RDF>
      <cc:Work
         rdf:about="">
        <dc:format>image/svg+xml</dc:format>
        <dc:type
           rdf:resource="http://purl.org/dc/dcmitype/StillImage" />
        <dc:title></dc:title>
      </cc:Work>
    </rdf:RDF>
  </metadata>
  <defs
     id="defs525" />
  <sodipodi:namedview
     pagecolor="#ffffff"
     bordercolor="#666666"
     borderopacity="1"
     objecttolerance="10"
     gridtolerance="10"
     guidetolerance="10"
     inkscape:pageopacity="0"
     inkscape:pageshadow="2"
     inkscape:window-width="3840"
     inkscape:window-height="2066"
     id="namedview523"
     showgrid="false"
     inkscape:zoom="1.6310818"
     inkscape:cx="891.64684"
     inkscape:cy="462.2795"
     inkscape:window-x="-11"
     inkscape:window-y="-11"
     inkscape:window-maximized="1"
     inkscape:current-layer="svg521"
     inkscape:document-rotation="0" />
  <path
     id="Sélection #9"
     fill="none"
     stroke="#000000"
     stroke-width="0.76"
     d="m 224.53961,13.346579 c 2.9108,3.6784 3.5872,6.802 3.8,11.4 3.4884,0.3724 5.0008,0.6536 6.84,3.8 0,0 -6.08,-0.76 -6.08,-0.76 0,0 3.8,6.08 3.8,6.08 0,0 -3.8,1.52 -3.8,1.52 0,0 3.04,4.56 3.04,4.56 -4.066,3.2452 -3.1236,4.3092 -3.04,9.12 6.0268,-0.076 4.8032,-0.4484 8.36,-4.56 0,0 0,3.8 0,3.8 4.9096,-1.064 5.776,-1.7556 6.08,-6.84 0,0 3.42,3.7848 3.42,3.7848 1.2236,0.5168 6.0724,-0.0988 7.9724,0 3.9368,0.38 8.8388,4.6588 10.0852,8.3752 1.6416,4.8944 -2.9868,9.7204 -5.1224,13.68 -2.2952,4.2332 -2.1736,9.4468 -5.1832,12.7756 -2.8728,3.192 -6.0648,3.1768 -9.652,4.8336 0,0 -15.8232,9.5912 -15.8232,9.5912 -5.7532,4.6892 -3.2224,8.679201 -7.6836,14.569201 0,0 -7.0756,7.6304 -7.0756,7.6304 -4.636,6.1408 -6.2624,10.5944 -9.8496,16.72 -1.6036,2.736 -4.6208,6.156 -5.8064,8.9908 -0.5776,2.1584 0.008,6.5816 0,9.2492 -0.532,4.7424 -1.5808,4.4764 -1.6416,11.4 -7.296,0.6764 -7.1288,2.5308 -10.9212,7.5924 -1.5428,2.0444 -4.598,4.4916 -5.3808,6.2472 -1.0412,2.3028 -1.7252,11.9472 -5.2136,19.6004 -1.7784,3.8988 -7.9724,10.5564 -6.7792,14.2652 0.988,3.0704 4.8792,1.4668 7.0148,0.9348 0,0 3.04,7.6 3.04,7.6 5.4264,-14.1968 19.418,-27.2384 33.44,-32.68 -1.3528,-2.3332 -4.9324,-6.3612 -4.0584,-9.0136 0.7524,-2.3104 9.2264,-6.2624 11.59,-8.17 2.4852,-2.0064 4.446,-5.3352 6.4904,-7.8964 4.5448,-5.7152 9.3784,-11.3468 15.618,-15.238 0,0 19,-12.4716 19,-12.4716 4.0432,-1.9304 12.1524,-3.648 15.1696,-6.0496 6.08,-4.8336 5.2972,-12.2132 12.9504,-14.4172 2.2192,-0.6156 3.8684,-0.3572 6.08,0 11.8332,1.8316 11.8408,6.2928 18.24,8.398 4.2484,1.3984 18.8936,1.938 24.2364,4.6664 5.7456,2.9336 2.2572,10.0244 5.586,16.872 0,0 10.5944,15.2 10.5944,15.2 0,0 5.1604,5.5328 5.1604,5.5328 2.8272,3.7772 5.5632,10.8224 6.2016,11.78 1.3604,2.0216 8.436,5.0236 11.3012,7.0376 7.144,5.0388 18.1032,14.6072 22.5948,22.0096 1.254,2.0596 2.774,4.9476 1.7784,7.3948 -1.0716,2.6448 -4.5524,2.5308 -3.4276,6.3004 1.9988,6.6956 7.2048,8.4588 9.9408,12.9352 0,0 3.2376,7.5696 3.2376,7.5696 0,0 8.6032,17.48 8.6032,17.48 2.9412,5.0388 10.0244,11.7116 14.2728,15.96 0.7296,-0.8436 1.1932,-1.6948 2.3332,-2.1508 1.5884,-0.646 2.508,0.1824 3.2604,1.5048 0.9424,1.672 0.8664,3.7164 2.9792,5.4112 1.2464,0.9956 2.9412,1.2844 4.3472,2.0596 1.4668,0.8056 6.84,4.8716 7.5544,6.2548 1.4288,2.774 -1.1704,4.408 -0.7144,9.7204 6.5968,-0.2432 6.8248,5.6088 6.84,10.64 0,0 -5.32,0.76 -5.32,0.76 0,0 1.52,1.52 1.52,1.52 0,0 0,0.76 0,0.76 -1.33,4.4232 0.9424,9.4012 2.2648,13.68 0,0 8.7552,22.8 8.7552,22.8 1.938,4.674 1.482,5.9432 4.9704,10.6096 3.0932,4.1344 8.2992,5.7304 10.3968,10.6704 1.7556,3.3364 -0.1976,5.8368 0,9.12 -0.3344,2.2572 0.57,4.8108 0,9.88 0,0 -2.0672,20.52 -2.0672,20.52 0.0456,3.8608 1.1096,8.7476 3.0932,12.0916 2.1584,3.6556 4.9324,4.978 4.8944,10.7084 0,0 -1.7784,10.64 -1.7784,10.64 -0.4484,4.7044 0.4788,8.1472 -1.3148,12.92 -1.406,3.7468 -4.826,7.5544 -7.3872,15.96 0,0 -5.2896,28.88 -5.2896,28.88 0,0 -2.2952,7.6 -2.2952,7.6 -1.482,5.3428 -2.5992,11.8864 -7.562,15.4052 -4.636,3.2832 -13.908,0.3344 -18.8404,-0.9652 0.1976,-5.5328 1.8772,-5.3048 4.56,-9.88 -3.2908,-2.242 -1.3376,-3.8152 -0.76,-8.36 0,0 -3.8,1.52 -3.8,1.52 0.494,-2.8956 0.57,-2.9792 3.04,-4.56 0,0 -7.6,-8.36 -7.6,-8.36 0,0 4.56,-0.76 4.56,-0.76 0,0 -0.76,-8.36 -0.76,-8.36 0,0 -3.8,0 -3.8,0 -0.7676,4.3776 -3.2224,4.4688 -5.32,0.76 0,0 -3.04,0.76 -3.04,0.76 0,0 0.76,3.8 0.76,3.8 0,0 -3.04,-2.28 -3.04,-2.28 -4.0204,2.3104 -2.6068,2.28 -4.902,4.1268 0,0 -8.778,4.7044 -8.778,4.7044 -2.8956,0.8284 -6.0648,-2.3408 -7.6228,-4.4916 -3.7164,-5.092 -1.216,-16.6896 1.8164,-21.812 4.2408,-7.1516 15.428,-14.0448 21.7588,-19.3572 4.3928,-3.7012 15.0556,-16.6364 18.2856,-21.6904 2.3484,-3.6784 6.2852,-9.3328 6.6348,-13.68 0.2356,-2.9944 -2.166,-12.4108 -3.5644,-15.162 -1.8164,-3.5796 -2.85,-2.318 -3.8684,-6.878 0.9196,-0.6156 1.2844,-0.5548 1.8316,-1.7404 0.6612,-1.444 1.6264,-11.0808 0.9728,-12.4944 -0.9576,-2.0824 -3.5568,-2.1736 -4.0052,-4.8488 -0.76,-4.4916 3.9292,-4.8944 4.75,-8.322 0.6156,-2.5764 -2.8956,-15.1164 -4.256,-17.4192 -1.102,-1.862 -2.1888,-2.5764 -3.8532,-3.8152 0.9348,-5.928 -0.7524,-12.6768 -6.1104,-16.1576 -4.37,-2.8424 -8.5728,0.4788 -9.8496,-7.4024 -6.6728,-1.4212 -6.574,-6.308 -5.1072,-12.0232 0.5244,-2.0292 1.824,-2.7284 1.5124,-4.1724 -0.5776,-2.6828 -4.4688,-3.4428 -6.1864,-7.3948 -1.8392,-4.2408 -0.4788,-6.2092 -1.0792,-9.0896 -0.6004,-2.9412 -5.1756,-9.6824 -7.1288,-12.16 -1.444,-1.8392 -4.4688,-5.7456 -7.0604,-5.5176 -2.4472,0.2204 -5.6088,3.8988 -5.814,6.2928 0,0 1.8772,14.4248 1.8772,14.4248 0,0 0,15.2 0,15.2 0,0 -1.4136,17.48 -1.4136,17.48 0,0 0,22.8 0,22.8 0.0152,9.386 4.7348,22.876 4.6816,26.5848 -0.0684,4.2636 -3.8912,3.8076 -6.9616,3.8152 0,0 -6.08,0 -6.08,0 2.6068,7.524 4.5372,9.956 4.56,18.24 0,0 -3.04,-0.76 -3.04,-0.76 -1.7024,5.4568 -5.9432,5.7076 -10.64,3.8 0,0 -1.4896,12.92 -1.4896,12.92 -0.3876,10.0472 2.9792,15.4812 5.4568,24.32 1.1856,4.2408 0.456,6.688 3.1464,11.4 0,0 11.0504,14.2044 11.0504,14.2044 2.2496,2.4548 4.1268,1.5352 5.2212,4.8412 2.0824,6.2548 -2.7816,8.6336 -4.4612,12.8744 -0.7296,2.0368 -0.1976,3.306 0,5.32 0.038,1.2692 0.1292,3.04 -0.6992,4.104 -0.9576,1.2236 -3.116,1.2692 -4.5448,1.6036 -2.1356,0.494 -8.094,2.4396 -9.88,3.4732 -5.5024,3.1996 -10.4728,11.8332 -15.3292,16.4312 -2.8956,2.7512 -8.0636,5.2668 -9.4544,7.904 -2.3712,3.6328 -1.7404,10.6324 0,14.2652 2.3864,4.1496 5.4948,2.1508 3.5036,9.2188 5.2972,1.4896 4.598,2.2496 10.64,2.28 8.5044,0.038 6.5056,-1.3072 10.6704,-1.4744 2.5992,-0.1064 10.5412,1.8316 12.8744,2.8728 4.636,2.0672 9.2872,10.7084 5.1148,12.4108 -2.0368,0.836 -6.7032,-1.0716 -8.816,-1.6492 -0.0684,1.9076 0.6232,7.6912 0,8.8996 -0.2052,0.646 -0.5472,0.988 -1.1704,1.3072 0,0 -9.5532,1.406 -9.5532,1.406 -7.0984,-0.114 -14.82,-6.612 -18.2476,-7.1364 -6.5512,-1.0108 -9.2492,2.3864 -13.68,2.318 -4.8564,-0.0684 -10.8756,-3.4352 -14.4324,-3.42 -3.534,0.0228 -4.4004,2.584 -8.36,3.1236 -4.9172,1.0564 -12.996,-0.4484 -16.72,0 -5.0236,0.2052 -11.9396,2.5916 -11.2632,-4.978 0.5168,-5.7912 2.8652,-13.0036 7.6,-16.6516 6.232,-4.788 8.7324,-1.976 16.5528,-9.956 1.5884,-1.6264 3.7316,-3.9976 4.6436,-6.0724 0.95,-2.166 0.456,-3.9976 1.9228,-5.3808 2.7208,-2.5688 8.056,-1.7024 13.1936,-6.8096 7.1364,-7.106 6.9464,-16.2412 9.5532,-20.4136 2.4472,-3.914 8.8996,-7.2428 13.2772,-8.436 -1.1324,-2.3408 -2.3028,-4.6588 -4.0736,-6.5968 -1.1856,-1.292 -3.0932,-2.4928 -3.648,-4.18 -0.6308,-1.9304 0.5244,-3.6252 0.494,-5.9432 -0.0228,-2.6524 -3.1084,-9.9484 -4.7044,-12.0232 -4.0888,-5.3276 -11.1568,-5.852 -12.9884,-6.9844 -1.9836,-1.2312 -3.1084,-4.0964 -4.5524,-6.004 0,0 -4.7044,-5.4188 -4.7044,-5.4188 -3.1084,-4.7804 0.4484,-7.0528 0.5852,-10.6096 0.1292,-3.4504 -5.8064,-12.16 -8.968,-13.5052 -5.5708,-2.3636 -9.8116,8.1624 -15.0404,6.6652 -3.116,-0.8968 -6.2548,-8.6488 -8.8692,-11.0124 -2.812,-2.546 -6.1788,-1.5884 -9.5304,-1.1476 0,0 -0.76,4.56 -0.76,4.56 0,0 2.28,0.76 2.28,0.76 0,0 -1.52,8.36 -1.52,8.36 0,0 -9.1124,3.534 -9.1124,3.534 0,0 -9.1276,7.106 -9.1276,7.106 0,0 -4.56,-10.64 -4.56,-10.64 0,0 -6.84,4.56 -6.84,4.56 0.8664,6.194 -2.812,9.7356 -4.2104,15.2 -0.7372,2.8956 -0.3192,6.3612 -2.9488,8.5652 -2.5384,2.128 -7.5848,1.1172 -9.4164,5.1604 -0.76,1.6568 -2.7588,18.3768 -5.2364,20.786 -2.5536,2.4776 -8.702,1.064 -11.3316,3.1844 -3.3592,2.7056 -4.0052,7.9496 -5.3732,11.704 -1.634,4.4536 -8.2992,10.7008 -7.5924,19 0.1672,1.976 1.5656,9.8344 2.3712,11.3696 1.3452,2.5536 3.002,3.04 4.522,5.4948 3.648,5.89 7.2048,11.8104 11.5748,17.2216 5.1148,6.3308 3.8228,2.5536 5.206,10.754 0.0836,1.3528 0.8588,3.6556 0,4.8868 -0.6536,1.292 -2.8576,1.1932 -4.1648,1.178 0,0 -12.92,-1.5352 -12.92,-1.5352 0,0 -9.12,-3.382 -9.12,-3.382 0,0 -12.16,-1.5124 -12.16,-1.5124 -3.6176,-0.7448 -5.0084,-2.356 -7.6,-2.4852 -3.648,-0.1748 -7.2732,2.432 -10.64,3.0628 -3.496,0.6536 -4.674,-0.722 -6.84,-0.7904 -4.6816,-0.1444 -12.7984,6.7412 -16.72,0.5776 -3.3744,1.596 -12.0612,9.6748 -13.68,0 0,0 -15.2,6.84 -15.2,6.84 -1.9988,-2.6144 -5.13,-5.5708 -4.8488,-9.12 0,0 0.8132,-3.04 0.8132,-3.04 1.33,-6.84 -10.6932,-2.4244 -6.2624,-11.4 3.192,-6.4524 6.4448,-6.6272 12.578,-5.6544 0,0 16.72,2.7588 16.72,2.7588 5.3352,-0.9424 9.8952,-5.89 14.44,-8.2156 0,0 7.6,-3.3212 7.6,-3.3212 2.4396,-0.5852 4.7424,0.1216 8.36,-1.4136 2.4396,-1.0336 10.0016,-7.9724 11.9624,-10.1232 5.8824,-6.4524 8.7856,-18.4908 10.2372,-27.018 0,0 0,-4.0432 0,-4.0432 0.8132,-3.2072 2.9792,-5.4492 2.736,-8.3296 -0.5548,-6.6044 -8.5272,-8.8236 -6.8628,-13.6496 1.2008,-3.4808 4.9704,-3.5644 6.1636,-5.662 1.2464,-2.1964 -1.0944,-6.3308 1.406,-9.2416 1.8392,-2.1432 4.1268,-1.2312 7.0224,-2.6068 1.6948,-0.8132 8.3524,-6.8932 9.6444,-8.3904 3.306,-3.8152 4.0736,-7.0452 6.042,-11.3696 4.0736,-8.9528 7.4176,-16.5756 7.8888,-26.6 -2.0444,0.8132 -7.372,3.3972 -8.9832,1.064 -1.026,-1.292 -0.2812,-3.4884 0,-4.864 0.9272,-3.1084 2.4472,-6.688 1.71,-9.88 -1.3072,-5.6924 -5.7912,-9.6976 -8.6944,-14.44 0,0 -3.0552,-6.08 -3.0552,-6.08 -1.5504,-2.8728 -2.9336,-5.206 -3.9672,-8.36 -1.9988,-6.0952 -2.8576,-19.228 -2.85,-25.84 0.008,-6.6576 0.8512,-7.3644 1.3908,-12.92 0,0 0.4788,-9.12 0.4788,-9.12 1.482,-8.2308 5.2896,-11.02 4.8336,-17.48 0,0 -3.6632,-28.12 -3.6632,-28.12 -0.008,-7.3188 1.3224,-14.7744 2.28,-22.04 0,0 -10.64,2.052 -10.64,2.052 -4.5068,1.5656 -14.1892,8.6412 -17.3128,12.388 -2.052,2.47 -5.4948,9.9636 -7.524,11.4076 -2.7056,1.9152 -4.7652,-0.9348 -10.8832,1.5124 0,0 0,-1.52 0,-1.52 -7.3416,6.2016 -7.2048,4.7804 -13.68,3.04 -0.1596,-3.4732 -0.456,-6.2168 -2.6068,-9.12 -2.0976,-2.8348 -6.4524,-6.0192 -7.5772,-9.12 -1.3528,-3.7316 0.95,-7.4556 1.3072,-10.64 0,0 -0.4864,-6.84 -0.4864,-6.84 0.3268,-3.838 6.7792,-12.6996 8.8008,-17.48 0,0 5.5784,-13.68 5.5784,-13.68 0,0 2.0064,-10.64 2.0064,-10.64 0,0 1.9988,-5.32 1.9988,-5.32 0,0 2.7892,-12.92 2.7892,-12.92 0.456,-3.7468 -0.7448,-4.3396 -1.1096,-7.6 -0.2128,-2.4928 0.494,-4.6664 0,-6.84 -0.5396,-1.9836 -1.6264,-2.964 -2.204,-6.08 -1.2464,-6.6652 2.128,-12.3804 8.2232,-15.2 0,0 -0.76,-2.28 -0.76,-2.28 0,0 6.0724,-2.85 6.0724,-2.85 0,0 11.7724,-10.0776 11.7724,-10.0776 0,0 8.6032,-15.177201 8.6032,-15.177201 0,0 5.2364,-6.2548 5.2364,-6.2548 0,0 0.9956,-7.4404 0.9956,-7.4404 0,0 0,-20.52 0,-20.52 0,0 1.482,-12.16 1.482,-12.16 0,0 1.1628,-9.88 1.1628,-9.88 0,0 2.0976,-5.32 2.0976,-5.32 0,0 3.8912,-11.362 3.8912,-11.362 0,0 7.2428,-6.5664 7.2428,-6.5664 0,0 5.4036,-6.3916 5.4036,-6.3916 z"
     style="fill:#000000;stroke:none" />
</svg>
