<?xml version="1.0" encoding="UTF-8" standalone="no"?>
<svg
   xmlns:dc="http://purl.org/dc/elements/1.1/"
   xmlns:cc="http://creativecommons.org/ns#"
   xmlns:rdf="http://www.w3.org/1999/02/22-rdf-syntax-ns#"
   xmlns:svg="http://www.w3.org/2000/svg"
   xmlns="http://www.w3.org/2000/svg"
   xmlns:sodipodi="http://sodipodi.sourceforge.net/DTD/sodipodi-0.dtd"
   xmlns:inkscape="http://www.inkscape.org/namespaces/inkscape"
   width="100mm"
   height="100mm"
   viewBox="0 0 566.90005 566.89991"
   version="1.1"
   id="svg56"
   sodipodi:docname="zomar.svg"
   inkscape:version="1.0.1 (3bc2e813f5, 2020-09-07)">
  <metadata
     id="metadata62">
    <rdf:RDF>
      <cc:Work
         rdf:about="">
        <dc:format>image/svg+xml</dc:format>
        <dc:type
           rdf:resource="http://purl.org/dc/dcmitype/StillImage" />
        <dc:title></dc:title>
      </cc:Work>
    </rdf:RDF>
  </metadata>
  <defs
     id="defs60" />
  <sodipodi:namedview
     pagecolor="#ffffff"
     bordercolor="#666666"
     borderopacity="1"
     objecttolerance="10"
     gridtolerance="10"
     guidetolerance="10"
     inkscape:pageopacity="0"
     inkscape:pageshadow="2"
     inkscape:window-width="3840"
     inkscape:window-height="2066"
     id="namedview58"
     showgrid="false"
     inkscape:zoom="1"
     inkscape:cx="308.14261"
     inkscape:cy="226.04192"
     inkscape:window-x="-11"
     inkscape:window-y="-11"
     inkscape:window-maximized="1"
     inkscape:current-layer="svg56"
     inkscape:document-rotation="0" />
  <path
     id="Sélection #1"
     fill="none"
     stroke="black"
     stroke-width="1.15"
     d="m 509.68483,229.23649 c 0,0 2.3,0 2.3,0 0,0 4.761,12.65 4.761,12.65 0,0 0,13.8 0,13.8 0.322,5.5775 1.449,8.763 0.874,14.95 0,0 -3.4845,13.8 -3.4845,13.8 -3.0015,11.9485 -8.556,29.118 -15.709,39.1 -5.244,7.3255 -10.7065,10.7985 -17.0085,16.514 -11.799,10.7065 -28.75,23.8165 -43.0445,30.889 0,0 -22.9885,11.5 -22.9885,11.5 0,0 -19.55,15.7205 -19.55,15.7205 -4.8185,3.1625 -10.7755,6.7735 -14.95,1.2765 -1.4375,2.576 -4.3125,6.7505 -2.369,9.683 2.001,3.013 3.795,0.598 5.819,6.417 0,0 -4.6,-1.15 -4.6,-1.15 0,0 2.3,9.2 2.3,9.2 0,0 -5.75,-1.15 -5.75,-1.15 0,0 -6.9,9.2 -6.9,9.2 0,0 20.7,1.3685 20.7,1.3685 13.7195,0.5405 25.99,-12.1785 39.1,-15.755 0,0 44.85,-7.843 44.85,-7.843 9.3725,-3.1165 14.007,-5.3245 24.15,-5.3705 6.0145,-0.023 14.3635,-0.621 18.4,4.6 0,0 -20.7,-1.955 -20.7,-1.955 0,0 -43.7,12.42 -43.7,12.42 -6.693,1.4605 -8.74,-1.8285 -21.85,2.599 -15.801,5.336 -24.9665,18.699 -43.7,17.94 -7.291,-0.299 -8.6135,-2.1735 -13.8,-3.1165 -6.4285,-1.15 -13.041,-1.3685 -19.55,-1.4375 -4.554,-0.0575 -10.4535,-0.8165 -14.95,-1.679 -9.66,-1.8515 -9.9475,-3.105 -19.55,2.829 16.606,4.853 9.7175,5.1175 18.446,9.0735 0,0 25.254,9.5565 25.254,9.5565 2.806,1.1385 13.0985,6.21 14.95,6.21 3.4615,0.023 8.4065,-4.7495 11.5,-6.716 0,0 24.15,-12.7075 24.15,-12.7075 13.9495,-4.324 20.9415,-6.4975 35.65,-6.5665 0,0 31.05,-3.082 31.05,-3.082 6.21,0.483 13.0295,1.748 18.354,5.106 0,0 7.3715,6.095 7.3715,6.095 0,0 8.7745,3.381 8.7745,3.381 0,0 7.4405,-12.65 7.4405,-12.65 1.357,-3.2775 0.667,-5.6695 1.8745,-7.3715 1.9665,-2.7715 7.475,-1.472 8.809,-7.6015 0,0 0,-10.327 0,-10.327 5.6695,1.886 6.1755,8.5675 5.773,13.8 -0.713,9.246 -9.131,26.151 -13.547,34.5 6.164,-1.748 15.3755,-2.9095 20.7,1.15 0,0 -21.804,1.794 -21.804,1.794 0,0 -19.596,19.9525 -19.596,19.9525 0,0 -19.55,12.2935 -19.55,12.2935 0,0 -11.6955,8.05 -11.6955,8.05 0,0 -28.5545,8.625 -28.5545,8.625 0,0 -18.4,6.187 -18.4,6.187 0,0 -17.25,0.759 -17.25,0.759 0,0 -14.95,4.439 -14.95,4.439 -4.2205,-3.2545 -11.914,-5.451 -17.25,-5.75 3.2545,3.243 7.4175,7.774 11.5,9.8325 7.958,4.0135 18.469,-0.2415 17.25,12.0175 0,0 -3.45,0 -3.45,0 -3.427,-6.509 -4.508,-3.841 -10.35,-4.5195 -11.7185,-1.334 -14.9615,-13.7885 -24.15,-16.3185 -6.095,-1.656 -15.065,0.621 -20.7,0 -6.647,-0.7705 -10.1545,-5.566 -16.192,-6.325 -7.0035,-0.874 -9.8555,3.6685 -16.008,4.6 -3.9905,0.598 -8.51,-1.4145 -12.65,-1.7825 -3.7375,-0.713 -6.647,-0.092 -10.35,0 4.324,4.6 13.7885,9.982 19.55,12.4545 0,0 10.074,3.7605 10.074,3.7605 3.818,2.7945 2.3575,5.0255 -0.874,6.9805 -5.704,-7.9005 -6.67,-2.6565 -13.8,-5.911 -8.349,-3.795 -8.855,-10.0625 -19.55,-10.189 -5.635,-6.5895 -7.9695,-5.7385 -16.1,-5.75 0,0 4.945,19.3085 4.945,19.3085 0,0 8.855,9.4415 8.855,9.4415 -7.843,-3.542 -9.614,-0.437 -13.4435,-3.9675 -3.4615,-3.1855 -3.427,-8.947 -3.8985,-13.2825 0,0 -5.014,-21.5395 -5.014,-21.5395 -2.8405,-5.612 -11.5345,-3.933 -13.294,-11.8105 -12.0865,2.0355 -7.084,6.095 -5.865,13.8 0,0 0,13.8 0,13.8 4.5655,0.9315 15.065,6.325 17.158,10.5915 0.5635,1.725 0.1495,2.231 0,3.2085 -5.98,-2.6105 -14.904,-3.864 -21.643,-3.45 -6.624,-11.7875 -8.6135,-16.0195 -19.55,-24.012 -2.5185,-1.84 -5.106,-3.9675 -8.05,-5.06 0,0 -5.75,-1.2995 -5.75,-1.2995 -4.209,-1.2305 -5.8765,-3.542 -9.2,-2.9785 0,0 -13.8,7.3715 -13.8,7.3715 -5.2325,2.8405 -16.491,7.521 -16.974,14.4785 -0.23,3.4385 5.75,10.8445 7.774,17.25 -12.5925,-5.06 -12.7075,-9.2575 -14.95,-21.85 0,0 14.95,-14.95 14.95,-14.95 -4.6345,-2.691 -5.474,-5.359 -6.9,-10.35 -4.899,3.7605 -13.9725,19.1245 -17.25,4.4965 -2.2655,-0.069 -5.9915,-0.644 -8.05,0 -6.7735,1.219 -7.9925,6.578 -14.95,0 -2.07,8.027 -4.7955,10.5455 -12.65,7.0035 -0.6555,7.8775 -5.589,9.2575 -11.707,13.5585 0,0 -13.788502,10.5915 -13.788502,10.5915 0,0 -7.843,2.1735 -7.843,2.1735 -4.7725,1.863 -6.233,5.589 -10.35,5.451 -1.656,-0.0575 -3.22,-0.782 -3.91,-2.369 -2.185,-5.037 4.255,-10.419 7.3485,-13.3285 0,0 10.7525,-8.5905 10.7525,-8.5905 5.865,-6.233 2.346,-18.308 14.5475,-15.5365 2.392002,-7.0495 4.232002,-11.73 12.650002,-8.05 0,0 14.95,-9.2 14.95,-9.2 0,0 -21.85,-10.649 -21.85,-10.649 -6.532002,-0.5405 -15.329502,4.9105 -20.700002,8.119 -7.0725,4.2205 -20.516,9.4875 -24.403,16.4335 -1.472,2.645 -1.5985,7.13 -2.047,10.2465 3.8985,0.897 4.37,0.7705 5.75,4.6 0,0 -16.1,1.6445 -16.1,1.6445 0,0 -8.05,3.4385 -8.05,3.4385 -5.0715,1.5525 -10.442,0.092 -9.2,9.867 0,0 -1.15,1.15 -1.15,1.15 -1.8515,-1.081 -3.4155,-1.702 -4.554,-3.703 -1.633,-2.852 -0.644,-9.2 1.771,-11.4195 3.151,-2.875 10.6145,-1.932 16.5255,-6.325 5.635,-4.186 9.0045,-14.858 15.3755,-20.378 5.8995,-5.106 25.208,-13.202 32.936,-17.7445 4.3585,-2.553 13.811502,-13.6045 17.399502,-14.145 6.118,-0.943 9.154,7.176 11.753,9.568 0,0 24.9435,14.697 24.9435,14.697 4.4505,-9.6715 5.658,-6.785 11.3965,-10.9825 5.4625,-3.9905 3.8525,-5.75 11.6035,-7.4175 1.288,-7.5785 4.9795,-5.175 9.43,-9.752 0,0 2.852,-3.5765 2.852,-3.5765 3.22,-3.2085 5.888,-2.622 9.3725,-4.4045 3.5075,-1.794 4.991,-4.6115 9.3955,-6.4055 3.8755,-1.5755 6.716,-0.7705 10.35,-1.725 0,0 13.7885,-4.715 13.7885,-4.715 6.946,-1.863 14.651,-10.8445 20.7115,-2.7715 0,0 4.6,-5.819 4.6,-5.819 0,0 11.822,0 11.822,0 0,0 20.378,-3.933 20.378,-3.933 0,0 6.9,2.852 6.9,2.852 3.473,-4.7725 11.569,-6.4975 14.099,-0.8855 1.6445,3.634 -0.046,7.8545 -1.449,11.2355 16.146,-0.1495 19.711,-5.0025 33.35,-8.855 0,0 22.931,-5.6465 22.931,-5.6465 7.613,-4.1515 7.429,-18.745 17.388,-18.8485 0,0 0,-5.75 0,-5.75 0.2415,-7.3255 2.369,-8.763 4.577,-14.95 3.2085,-8.9585 5.428,-18.5265 10.58,-26.68 2.944,-4.6575 5.8075,-10.626 11.224,-12.42 0.5405,-9.9015 5.8305,-15.4905 10.051,-24.15 5.152,-10.5685 10.1315,-22.0225 17.9285,-31.004 4.623,-5.336 20.8265,-17.411 27.2205,-21.758 6.7735,-4.623 18.216,-10.879 26.45,-11.5345 2.4955,-0.1955 8.786,-0.5405 9.8325,2.438 0.8855,2.5185 -2.392,3.933 -4.1285,4.7035 -8.5445,3.7605 -10.902,4.0135 -17.871,11.0975 -4.5655,4.6575 -8.8665,8.004 -12.098,13.8575 0,0 -17.135,55.2 -17.135,55.2 0,0 10.4535,-9.0735 10.4535,-9.0735 2.691,-1.2535 5.1635,-0.184 7.9465,-1.0695 6.463,-2.07 7.383,-5.9685 5.75,-11.707 0,0 9.1425,1.6675 9.1425,1.6675 6.4745,-0.851 4.6575,-10.764 4.6575,-15.4675 0,0 5.75,2.599 5.75,2.599 12.6155,5.221 6.8655,-11.6955 8.05,-17.549 13.9035,3.2085 9.2345,-6.578 8.05,-14.95 8.188,-2.139 12.144,-6.003 4.6,-12.65 5.5545,-8.7055 5.7155,-9.2575 5.75,-19.55 z m -146.05,201.25 c -7.705,-9.5105 -16.238,-4.8875 -26.45,-3.45 0,0 0,2.3 0,2.3 8.2455,0.667 18.653,3.358 26.45,1.15 z m 124.2,24.15 c 3.841,1.1155 8.648,2.714 12.627,1.633 4.347,-1.196 6.8195,-4.9565 3.634,-8.8435 -3.4615,-4.232 -12.2015,-4.968 -17.411,-5.888 -13.018,-2.277 -16.2495,2.967 -27.6,7.2795 -11.5345,4.37 -23.276,4.7035 -31.05,15.019 0,0 28.75,-3.45 28.75,-3.45 0,0 29.9,0 29.9,0 0,0 1.15,-5.75 1.15,-5.75 z m -112.7,10.35 c 0,0 -41.4,-16.054 -41.4,-16.054 0,0 -12.65,2.0355 -12.65,2.0355 0,0 -16.1,-0.9315 -16.1,-0.9315 0,0 0,2.3 0,2.3 0,0 5.75,5.75 5.75,5.75 0,0 -1.15,1.15 -1.15,1.15 0,0 -3.45,-1.15 -3.45,-1.15 0,0 0,4.7495 0,4.7495 -3.0935,0.598 -6.026,1.3685 -9.154,0 -7.429,-2.7485 -4.1515,-9.131 -14.996,-4.7495 0,0 0,2.3 0,2.3 0,0 13.8,6.3825 13.8,6.3825 0,0 17.25,-3.289 17.25,-3.289 0,0 5.75,-4.2435 5.75,-4.2435 2.9555,6.4745 11.454,14.996 17.25,19.0325 4.6345,3.243 9.4185,2.461 11.5,-2.9325 6.7735,-1.0695 6.187,-2.714 11.5,-4.5655 7.383,-2.5875 9.844,1.0925 16.1,-5.7845 z m -57.5,2.3 c -6.1985,1.863 -13.11,8.3145 -19.55,7.6475 0,0 -28.75,-14.5245 -28.75,-14.5245 -3.8295,-0.8625 -10.0855,1.0465 -13.8,2.277 1.978,3.703 3.611,5.428 8.0385,6.095 2.0585,0.092 4.5425,-0.598 6.1295,0 5.796,2.852 -0.3795,12.7305 1.518,17.848 1.0695,2.8865 5.819,5.9225 8.464,7.337 12.1095,6.4745 19.8375,-5.98 27.6,-7.268 9.6485,-1.61 19.389,3.864 28.75,1.288 -4.1055,-7.5095 -14.283,-8.6365 -18.4,-20.7 z m 169.05,-4.6 c 0,0 -40.25,3.3465 -40.25,3.3465 0,0 -24.15,1.9205 -24.15,1.9205 0,0 -24.15,16.583 -24.15,16.583 3.5995,0.8165 10.396,3.3235 13.6965,2.4035 3.45,-0.9545 11.845,-9.2575 15.0535,-10.074 4.14,-1.0695 5.612,3.2085 12.65,1.7365 6.7505,-1.403 7.866,-6.4055 11.6035,-7.015 3.381,-0.552 7.268,3.9215 11.063,2.691 3.105,-1.012 2.599,-5.566 2.6335,-8.142 6.141,0 18.101,1.932 21.85,-3.45 z m -223.1,16.1 c 0,0 -17.25,-12.65 -17.25,-12.65 0,0 -2.3,8.05 -2.3,8.05 0,0 18.4,9.2 18.4,9.2 0,0 1.15,-4.6 1.15,-4.6 z m -44.85,-4.6 c -2.553,2.9555 -3.036,4.2895 -4.1055,8.05 -2.829,9.913 0.621,11.477 7.5555,18.4 4.439,4.4275 5.8995,6.1985 11.5,9.2 0,0 0.966,-11.5 0.966,-11.5 0,0 -15.916,-24.15 -15.916,-24.15 z m -26.45,12.65 c 0,0 -2.3,0 -2.3,0 0,0 -3.45,6.9 -3.45,6.9 4.14,-2.1275 4.4045,-2.4495 5.75,-6.9 z"
     style="fill:#000000;stroke:none" />
</svg>
