<?xml version="1.0" encoding="UTF-8" standalone="no"?>
<svg
   xmlns:dc="http://purl.org/dc/elements/1.1/"
   xmlns:cc="http://creativecommons.org/ns#"
   xmlns:rdf="http://www.w3.org/1999/02/22-rdf-syntax-ns#"
   xmlns:svg="http://www.w3.org/2000/svg"
   xmlns="http://www.w3.org/2000/svg"
   xmlns:sodipodi="http://sodipodi.sourceforge.net/DTD/sodipodi-0.dtd"
   xmlns:inkscape="http://www.inkscape.org/namespaces/inkscape"
   width="100mm"
   height="100mm"
   viewBox="0 0 1181.1037 1181.1003"
   version="1.1"
   id="svg3"
   sodipodi:docname="zombrelle.svg"
   inkscape:version="1.0.1 (3bc2e813f5, 2020-09-07)">
  <metadata
     id="metadata9">
    <rdf:RDF>
      <cc:Work
         rdf:about="">
        <dc:format>image/svg+xml</dc:format>
        <dc:type
           rdf:resource="http://purl.org/dc/dcmitype/StillImage" />
        <dc:title></dc:title>
      </cc:Work>
    </rdf:RDF>
  </metadata>
  <defs
     id="defs7" />
  <sodipodi:namedview
     pagecolor="#ffffff"
     bordercolor="#666666"
     borderopacity="1"
     objecttolerance="10"
     gridtolerance="10"
     guidetolerance="10"
     inkscape:pageopacity="0"
     inkscape:pageshadow="2"
     inkscape:window-width="2738"
     inkscape:window-height="1727"
     id="namedview5"
     showgrid="false"
     units="mm"
     inkscape:zoom="1.314689"
     inkscape:cx="90.214434"
     inkscape:cy="159.59946"
     inkscape:window-x="0"
     inkscape:window-y="0"
     inkscape:window-maximized="0"
     inkscape:current-layer="svg3" />
  <path
     id="Sélection"
     fill="none"
     stroke="black"
     stroke-width="1.4"
     d="m 621.2038,345.56242 c -8.218,11.228 -16.52,13.034 -28,19.404 0,0 -44.8,26.866 -44.8,26.866 -16.688,10.584 -20.286,13.734 -35.392,25.732 0,0 -14.994,11.424 -14.994,11.424 0,0 -15.414,14.924 -15.414,14.924 0,0 -32.2,22.498 -32.2,22.498 -21.322,17.808 -33.236,31.598 -50.512,52.752 0,0 -20.342,23.8 -20.342,23.8 -0.994,2.114 -1.064,3.388 -1.54,5.6 -0.28,2.674 -1.204,7.168 0,9.618 2.968,7 15.862,6.006 23.212,17.038 4.606,6.916 3.094,10.752 7.084,18.144 3.472,6.44 11.69,21.546 15.96,26.586 10.654,12.572 33.264,25.018 49.938,25.214 5.684,0.056 20.286,-0.294 24.906,-3.038 4.326,-2.576 8.134,-11.928 10.444,-16.562 0,0 21,-40.6 21,-40.6 0,0 18.62,-36.4 18.62,-36.4 0,0 13.944,-39.2 13.944,-39.2 0,0 29.442,-86.8 29.442,-86.8 0,0 16.912,-39.2 16.912,-39.2 0,0 13.944,-25.2 13.944,-25.2 6.79,-12.054 6.58,-15.806 16.996,-26.348 3.654,-3.696 12.642,-12.376 17.752,-6.748 1.932,2.114 2.128,5.194 1.736,7.896 -0.56,3.85 -4.802,12.544 -6.496,16.8 0,0 -9.324,26.6 -9.324,26.6 0,0 -8.302,28 -8.302,28 0,0 -10.696,28 -10.696,28 -2.632,8.75 -2.898,16.478 -4.326,25.2 -2.1,12.852 -3.906,24.654 -3.752,37.8 0.14,11.424 8.694,42.154 11.928,54.6 3.696,14.21 7.49,45.458 7.672,60.2 0,0 0.714,23.674 0.714,23.674 0.322,2.744 0.266,7.14 2.856,8.848 2.828,1.862 6.384,-0.14 9.03,-1.386 0,0 18.2,-8.624 18.2,-8.624 0,0 29.4,-14.154 29.4,-14.154 0,0 11.2,-6.58 11.2,-6.58 16.38,-8.316 25.592,-10.948 40.6,-23.604 0,0 23.8,-25.718 23.8,-25.718 0,0 12.362,-11.312 12.362,-11.312 0,0 18.676,-20.706 18.676,-20.706 0,0 26.362,-24.276 26.362,-24.276 0,0 15.4,-14.924 15.4,-14.924 0,0 23.8,-19.544 23.8,-19.544 13.3,-10.43 28.672,-17.85 43.4,-25.928 0,0 11.2,-6.58 11.2,-6.58 16.38,-8.19 18.116,-5.502 35,-18.9 0,0 19.6,-17.094 19.6,-17.094 14.014,-12.026 28.238,-23.758 43.4,-34.272 4.914,-3.416 8.512,-6.622 14,-9.338 19.194,-9.478 39.326,-11.34 60.2,-8.582 -0.98,4.298 -3.108,13.006 -6.314,15.988 -5.222,4.844 -14.028,3.57 -20.286,5.278 -13.958,3.808 -22.19,17.92 -22.288,31.934 -0.098,13.552 8.428,19.292 10.612,25.326 0,0 3.99,20.874 3.99,20.874 2.184,10.052 6.034,19.81 9.674,29.4 8.652,22.722 21.686,38.556 21.812,64.4 0.014,3.696 -0.336,10.766 0.84,14 0,0 7.966,12.6 7.966,12.6 0,0 8.918,23.8 8.918,23.8 0,0 13.706,39.2 13.706,39.2 0,0 8.652,18.2 8.652,18.2 0,0 8.19,19.6 8.19,19.6 0,0 6.496,15.4 6.496,15.4 7.266,15.456 9.828,15.344 9.632,33.6 0,0 -4.2,33.6 -4.2,33.6 -7.476,-5.726 -7.994,-25.886 -13.398,-34.916 -4.452,-7.476 -12.152,-8.008 -11.788,8.316 0,0 1.386,22.4 1.386,22.4 0,0 5.6,58.8 5.6,58.8 0,0 0,19.6 0,19.6 0,0 -4.2,49 -4.2,49 -0.042,26.166 0.672,49.994 -6.874,75.6 -6.048,20.496 -30.212,57.83398 -41.846,76.99998 -11.102,18.284 -12.908,31.192 -17.934,39.144 -4.284,6.79 -13.482,15.176 -20.146,19.656 1.218,-3.906 3.22,-8.47 2.338,-12.6 -2.324,-10.822 -18.172,-12.292 -22.568,-26.6 -5.026,-16.436 4.788,-21.994 4.83,-47.6 0.014,-8.73598 -0.462,-29.98798 -2.464,-37.79998 -4.69,-18.284 -23.632,-40.04 -36.736,-53.2 -5.278,-5.306 -12.628,-14.574 -18.2,-18.256 -12.866,-8.484 -24.388,-9.688 -36.4,-15.204 -7.644,-3.514 -24.206,-15.736 -30.8,-21.378 0,0 -34.762,-31.962 -34.762,-31.962 0,0 -13.496,-17.57 -13.496,-17.57 -2.73,-2.814 -5.6,-3.794 -11.704,-10.43 -8.89,-9.688 -15.19,-23.8 -28.238,-28.392 -5.81,-2.03 -11.116,0.126 -16.8,1.148 -7.266,1.302 -15.022,2.03 -22.4,2.044 -28,0.042 -35.308,-1.12 -63,7.49 -10.01,3.108 -25.158,14.196 -33.6,13.51 -1.554,9.744 1.652,14.07 5.908,22.4 2.352,4.606 5.81,14.322 8.792,17.458 4.9,5.194 12.208,6.482 18.9,7.742 -1.246,13.762 -4.816,16.338 2.576,30.8 4.242,8.288 14.77,18.018 20.93,25.2 4.844,5.642 15.68,22.54 19.684,29.4 2.954,5.068 9.17,14.042 9.59,19.6 0.686,9.128 -6.902,18.046 -11.424,25.2 0,0 -7.882,15.4 -7.882,15.4 -4.27,7.392 -9.814,19.06798 -16.674,23.79998 0,0 0,5.6 0,5.6 19.712,1.778 28.098,16.044 12.6,28 -4.396,-9.534 -6.748,-10.542 -16.8,-12.6 -3.094,8.54 -10.234,10.15 -18.2,13.3 -13.216,5.236 -29.61,10.29 -40.516,19.544 -10.92,9.24 -0.854,15.708 -9.884,21.756 0,0 -7,-22.4 -7,-22.4 -7.658,1.47 -9.842,1.512 -11.2,9.8 -6.608,-1.736 -7.756,-2.45 -11.2,-8.4 0,0 -4.2,2.8 -4.2,2.8 0,0 2.8,-18.2 2.8,-18.2 9.954,-3.304 11.298,-7.742 19.6,-11.494 10.178,-4.592 41.594,-16.324 48.944,-21.812 3.668,-2.73 9.352,-9.198 12.124,-12.894 5.068,-6.73398 11.256,-26.40398 12.684,-34.99998 0,0 1.176,-11.2 1.176,-11.2 0.91,-4.256 4.578,-11.718 3.738,-15.4 -1.344,-5.908 -8.918,-8.68 -14.322,-16.8 -12.824,-19.348 -15.638,-29.904 -33.544,-47.6 -5.404,-5.334 -10.066,-9.59 -16.8,-13.272 -12.166,-6.664 -30.996,-10.584 -44.8,-10.528 0,0 -18.2,1.358 -18.2,1.358 -10.416,-0.056 -14.238,-5.46 -19.39,-3.458 -4.984,1.946 -3.5,7.826 -3.01,11.9 -4.816,1.61 -11.27,3.458 -15.274,6.51 -10.29,7.826 -16.128,25.942 -18.214,38.29 -0.952,5.628 -1.19,21.476 -3.752,24.654 -5.124,6.37 -19.894,10.108 -27.16,13.51 -7.91,3.71 -15.68,12.362 -21,19.236 10.388,3.15 13.496,10.752 14,21 -4.578,-2.044 -11.004,-7.112 -15.4,-7.238 -3.514,-0.112 -7.826,2.59 -11.2,3.906 -10.57,4.088 -18.004,5.138 -27.944,12.026 -8.876,6.13198 -17.878,16.75798 -29.456,16.50598 0,0 -2.8,7 -2.8,7 0,0 1.4,8.4 1.4,8.4 -9.184,-1.526 -9.59,-5.586 -9.8,-14 -5.012,3.304 -5.796,3.668 -5.6,9.8 -10.36,-1.736 -8.946,-7.448 -5.6,-15.4 0,0 -4.2,8.4 -4.2,8.4 -7.056,-2.674 -8.134,-9.072 -3.402,-14.79798 5.334,-6.454 15.54,-11.746 23.002,-15.568 0,0 26.544,-10.5 26.544,-10.5 0,0 9.982,-5.978 9.982,-5.978 3.78,-2.128 7.406,-3.416 10.892,-6.272 0,0 25.382,-30.59 25.382,-30.59 9.072,-7.868 21.812,-11.452 25.228,-17.458 1.33,-2.338 2.674,-11.732 3.332,-15.036 0,0 7.28,-28 7.28,-28 0,0 5.502,-12.6 5.502,-12.6 1.358,-3.542 4.368,-20.132 4.256,-23.772 -0.224,-6.622 -9.422,-9.198 -14.798,-11.662 -16.03,-7.364 -24.626,-5.208 -36.456,-23.366 -16.492,-25.34 -11.298,-58.8 -26.53,-82.586 -12.754,-19.894 -33.824,-5.264 -53.2,-15.806 -5.348,-2.912 -7.154,-6.72 -11.34,-10.612 0,0 -10.192,-7.616 -10.192,-7.616 -4.718,-4.69 -5.502,-9.044 -8.778,-13.524 0,0 -9.24,-9.982 -9.24,-9.982 -7.056,-8.792 -10.444,-16.912 -22.064,-20.874 -2.044,-6.398 -7.056,-5.11 -12.6,-6.048 -9.436,-1.596 -28.322,-8.302 -35.756,-0.742 -5.936,6.034 -11.76,17.85 -16.926,24.99 0,0 -11.942,14 -11.942,14 -16.856,18.872 -47.362,50.47 -66.976,65.464 0,0 -32.2,21.798 -32.2,21.798 -18.564,12.404 -34.496,27.062 -57.4,28.938 4.676,-8.862 14.28,-17.668 15.12,-22.4 0.56,-6.86 -8.862,-16.66 0,-26.6 0,0 8.68,14 8.68,14 0,0 2.8,0 2.8,0 6.16,-11.83 7.63,-12.502 4.2,-26.6 9.282,1.526 8.414,5.502 11.774,5.978 3.01,0.448 4.354,-3.696 4.34,-6.006 -0.056,-6.356 -4.802,-6.048 -0.714,-19.572 0,0 2.8,0 2.8,0 2.66,4.872 9.072,13.118 11.746,2.772 1.274,-4.928 -3.822,-20.104 7.462,-15.106 0,0 2.366,1.722 2.366,1.722 0,0 3.626,3.612 3.626,3.612 4.578,-12.95 -2.128,-17.234 0.84,-23.352 2.45,-5.04 9.394,-2.044 11.76,6.552 11.326,-5.894 15.722,-26.152 19.6,-37.8 0,0 -8.4,-2.38 -8.4,-2.38 0,0 -42,6.58 -42,6.58 0,0 4.2,9.8 4.2,9.8 -15.232,4.312 -11.452,-4.2 -23.8,-1.4 5.53,2.324 6.552,2.562 8.4,8.4 0,0 -18.2,-4.2 -18.2,-4.2 0,0 4.2,9.8 4.2,9.8 0,0 -15.4,-2.8 -15.4,-2.8 0,0 0,-4.2 0,-4.2 0,0 -7,5.6 -7,5.6 0,0 5.6,0 5.6,0 0,0 1.4,8.4 1.4,8.4 -10.234,-0.84 -12.152,-2.198 -20.999999,-7 0,0 5.599999,12.6 5.599999,12.6 0,0 -19.599999,0 -19.599999,0 -1.848,-2.352 -7.938,-10.92 -11.326,-6.23 -0.91,1.274 -1.19,3.276 -0.952,4.802 0.42,2.842 3.766,6.916 5.278,9.828 -4.718,-0.168 -8.358,-0.07 -12.656,-2.38 -5.152,-2.772 -8.876,-7.308 -15.344,-7.63 -8.106,-0.392 -13.566,7.504 -26.6,4.41 7.42,-18.732 21.322,-28.35 35,-42 12.978,-12.95 12.824,-11.648 26.6,-21.882 30.435999,-22.61 43.735999,-29.036 76.999999,-45.668 0,0 26.6,-13.048 26.6,-13.048 0,0 34.972,-11.956 34.972,-11.956 8.26,-3.738 7.014,-7.686 11.802,-13.818 2.59,-3.318 12.894,-11.55 16.618,-13.944 0,0 41.608,-16.982 41.608,-16.982 0,0 16.8,-14.056 16.8,-14.056 0,0 33.6,-23.058 33.6,-23.058 0,0 61.6,-28.952 61.6,-28.952 0,0 78.4,-37.884 78.4,-37.884 0,0 30.8,-15.386 30.8,-15.386 0,0 21,-11.032 21,-11.032 0,0 35,-16.156 35,-16.156 19.348,-8.666 28.196,-14.364 50.4,-14.378 z"
     style="fill:#000000;stroke:none" />
</svg>
