<?xml version="1.0" encoding="UTF-8" standalone="no"?>
<svg
   xmlns:dc="http://purl.org/dc/elements/1.1/"
   xmlns:cc="http://creativecommons.org/ns#"
   xmlns:rdf="http://www.w3.org/1999/02/22-rdf-syntax-ns#"
   xmlns:svg="http://www.w3.org/2000/svg"
   xmlns="http://www.w3.org/2000/svg"
   xmlns:sodipodi="http://sodipodi.sourceforge.net/DTD/sodipodi-0.dtd"
   xmlns:inkscape="http://www.inkscape.org/namespaces/inkscape"
   width="100mm"
   height="100mm"
   viewBox="0 0 566.90006 566.89991"
   version="1.1"
   id="svg565"
   sodipodi:docname="zyglute.svg"
   inkscape:version="1.0.1 (3bc2e813f5, 2020-09-07)">
  <metadata
     id="metadata571">
    <rdf:RDF>
      <cc:Work
         rdf:about="">
        <dc:format>image/svg+xml</dc:format>
        <dc:type
           rdf:resource="http://purl.org/dc/dcmitype/StillImage" />
        <dc:title></dc:title>
      </cc:Work>
    </rdf:RDF>
  </metadata>
  <defs
     id="defs569" />
  <sodipodi:namedview
     pagecolor="#ffffff"
     bordercolor="#666666"
     borderopacity="1"
     objecttolerance="10"
     gridtolerance="10"
     guidetolerance="10"
     inkscape:pageopacity="0"
     inkscape:pageshadow="2"
     inkscape:window-width="3840"
     inkscape:window-height="2066"
     id="namedview567"
     showgrid="false"
     inkscape:zoom="1.6310818"
     inkscape:cx="881.8801"
     inkscape:cy="371.6206"
     inkscape:window-x="-11"
     inkscape:window-y="-11"
     inkscape:window-maximized="1"
     inkscape:current-layer="svg565"
     inkscape:document-rotation="0" />
  <path
     id="Sélection #3"
     fill="none"
     stroke="#000000"
     stroke-width="1.3225"
     d="m 240.42633,35.62173 c 9.95843,0.09257 31.8458,6.49347 39.39728,12.7489 0,0 8.34497,9.38975 8.34497,9.38975 6.28188,5.85867 11.33383,8.17305 14.4417,17.53635 1.9573,5.93802 -0.529,7.935 -1.01832,13.225 -0.30418,3.20045 0.83317,10.11712 1.81182,13.225 3.2269,10.30227 10.60645,13.25145 11.96863,19.8375 1.66635,8.05402 -7.48535,17.43055 -17.9331,9.65425 -6.48025,-4.8139 -4.6023,-11.109 -7.86888,-17.58925 -2.88305,-5.69998 -10.87095,-13.1721 -16.0816,-16.91478 -4.84035,-3.46495 -15.40712,-8.6227 -21.16,-5.63385 -4.61552,2.39373 -7.74985,7.935 -12.02152,11.109 -4.72133,3.51785 -9.3633,3.10788 -12.51085,8.87398 -2.65823,4.89325 -1.94408,15.31455 -1.91763,21.08065 0.11903,23.95047 18.42243,56.64267 18.515,87.285 0,0 13.225,-10.58 13.225,-10.58 0,0 -6.6125,13.225 -6.6125,13.225 14.7591,-4.66843 11.4264,-9.27073 30.4175,-10.58 0,0 -11.9025,10.58 -11.9025,10.58 12.62988,-3.31948 29.8356,-9.01945 42.32,-2.645 -13.34402,6.17607 -27.75927,6.10995 -39.675,14.5475 0,0 9.2575,0 9.2575,0 9.58813,0.13225 8.05403,1.38862 15.87,4.94615 10.06423,4.58907 19.82428,6.348 22.4825,18.85885 0,0 21.16,3.31947 21.16,3.31947 0,0 21.16,-0.67447 21.16,-0.67447 7.68373,7.68372 14.83845,3.63687 23.805,6.348 8.33175,2.51275 12.82825,8.22595 17.41733,11.0032 3.46495,2.116 8.7814,3.31947 14.32267,7.28697 17.74795,12.70923 36.26295,51.37913 44.965,71.90433 -7.06215,-3.50463 -8.96655,-8.1995 -13.225,-14.5475 -5.2371,-7.80275 -13.92592,-21.27903 -19.8375,-27.7725 0,0 17.1925,46.2875 17.1925,46.2875 0,0 -1.3225,0 -1.3225,0 0,0 -2.645,-2.645 -2.645,-2.645 0,0 3.9675,19.8375 3.9675,19.8375 -4.25845,-3.29303 -4.52295,-8.21273 -6.17607,-13.225 0,0 -10.6329,-26.45 -10.6329,-26.45 0,0 -25.51103,-31.74 -25.51103,-31.74 0,0 25.1275,38.3525 25.1275,38.3525 0,0 -15.87,-10.58 -15.87,-10.58 9.19138,11.50575 18.44888,23.0115 19.8375,38.3525 0,0 -14.5475,-14.5475 -14.5475,-14.5475 2.3276,6.91667 11.4264,26.91287 10.7387,33.0096 -0.3174,2.76402 -1.20347,3.3856 -2.8037,5.3429 0,0 -2.645,-7.935 -2.645,-7.935 -6.62572,10.19648 -6.58605,4.36425 -9.2575,18.515 -6.00415,-4.20555 -2.35405,-8.60947 -3.04175,-15.87 -1.12412,-11.92895 -1.20347,-26.6087 -7.53825,-37.03 2.67145,14.9178 1.3754,20.0491 -1.2167,34.385 -1.058,5.9248 -1.4283,12.31247 -6.7183,15.87 1.67958,-6.91668 0.9522,-6.96958 1.6928,-13.225 3.0153,-25.04815 0.39675,-34.5437 -13.5953,-55.545 0,0 3.29303,11.9025 3.29303,11.9025 4.3378,19.38785 2.04987,35.94555 -4.95938,54.2225 -2.40695,6.26865 -5.819,16.25353 -11.55865,19.8375 0,0 9.2575,-43.6425 9.2575,-43.6425 -1.94407,5.52805 -2.12922,8.54335 -7.935,10.58 2.2747,-10.13035 4.69488,-14.98393 0,-25.1275 -4.06007,17.7744 -5.2371,12.1141 -2.645,31.74 0,0 -3.9675,-13.225 -3.9675,-13.225 0,0 -18.515,13.225 -18.515,13.225 0,0 5.40903,29.095 5.40903,29.095 0,0 4.1791,15.87 4.1791,15.87 0,0 1.4812,9.2575 1.4812,9.2575 1.87795,8.87398 5.54127,17.16605 6.17607,26.45 -0.1058,2.44663 -0.59512,5.31645 0,7.59115 0.8464,1.29605 9.58813,10.1039 0,9.8923 0,0 -2.6979,0 -2.6979,0 -2.42017,5.15775 -8.2524,13.52917 -5.26355,19.37462 3.55753,6.94313 12.52408,5.7132 15.84355,16.04193 -9.74682,0.2116 -17.3512,4.32457 -19.8375,-6.6125 -16.8751,1.5341 -22.09897,12.39182 -27.99732,15.64517 -4.0204,2.20858 -13.47628,1.54733 -18.29018,1.54733 5.25033,-10.54033 11.109,-7.37955 14.62685,-12.08765 2.42018,-3.2269 0.0661,-6.877 -3.00207,-8.50368 -3.29303,-1.7457 -12.72245,-1.6399 -16.91478,-1.89117 4.4965,-7.92178 8.15983,-6.01737 15.87,-5.48838 0,0 9.2575,0 9.2575,0 3.703,-5.19742 6.65218,-2.116 11.77025,-6.65217 3.5972,-3.20045 14.66653,-22.89248 15.8171,-27.53445 1.60023,-6.44058 -7.92177,-29.095 -10.2097,-37.03 0,0 -14.9178,-54.2225 -14.9178,-54.2225 -2.35405,-4.29812 -12.70922,-14.99715 -17.00735,-17.16605 -3.10787,-1.56055 -19.29527,-3.39882 -23.805,-3.99395 0.96543,14.13753 8.00113,13.66142 11.9025,25.1275 0,0 -23.805,22.20477 -23.805,22.20477 0,0 -9.24427,7.16795 -9.24427,7.16795 0,0 -9.49555,9.93198 -9.49555,9.93198 -10.38163,10.11713 -20.90873,19.58622 -30.23235,30.7878 -1.78538,2.15567 -4.19234,4.48328 -3.76914,7.5647 0.87286,3.68977 13.64821,15.61872 0,20.2078 0,0 -1.4812,-9.2575 -1.4812,-9.2575 0,0 -5.29,0 -5.29,0 1.7457,6.16285 1.49443,8.38465 0,14.5475 14.82524,3.5972 11.36029,-2.51275 19.89041,-8.3053 3.53108,-2.39373 7.7234,-3.0153 11.8496,-3.5972 -1.24315,7.68372 -7.43245,15.38067 -14.5475,18.515 0,0 0,2.645 0,2.645 0,0 1.3225,1.3225 1.3225,1.3225 0,0 15.87,-10.58 15.87,-10.58 2.92273,10.77837 -4.89325,19.61267 -15.87,19.3614 -3.72945,-0.0793 -8.23917,-2.2747 -11.90251,-3.4914 -3.83525,5.69997 -10.6329,3.9675 -13.6482,-1.60023 -6.57282,-12.167 -6.21575,-18.23727 -6.1893,-31.46227 0.0132,-5.62063 -0.19837,-12.20668 3.57075,-16.83543 0,0 13.62175,-10.96352 13.62175,-10.96352 0,0 12.12734,-12.4315 12.12734,-12.4315 0,0 22.25767,-19.50688 22.25767,-19.50688 4.78745,-4.37747 16.8751,-19.8904 17.54958,-26.22517 1.09767,-10.40808 -11.86283,-7.68373 -16.94123,-12.31248 -6.75797,-6.20252 -11.80992,-18.50177 -13.83335,-27.36252 0,0 -13.225,12.2728 -13.225,12.2728 0,0 -15.64518,6.41412 -15.64518,6.41412 0,0 -15.59228,14.61363 -15.59228,14.61363 -5.48837,6.2422 -16.35932,28.4073 -20.6839,36.79195 -11.29415,21.88737 -21.59642,39.48985 -28.75115,63.48 9.0459,4.8668 11.638,8.33175 11.9025,18.515 -5.42225,-0.64803 -6.14962,-0.72738 -9.2575,-5.29 0,0 -2.645,0 -2.645,0 0,0 -3.35915,17.1925 -3.35915,17.1925 0,0 1.30928,9.2575 1.30928,9.2575 0,0 -2.71113,21.04097 -2.71113,21.04097 0,0 -12.43149,9.37653 -12.43149,9.37653 -2.12923,-7.7234 -0.4761,-11.38673 2.645,-18.515 -13.25145,6.26865 -10.80483,14.83845 -29.095,22.4825 -0.72738,-6.51993 -0.46288,-10.01133 2.645,-15.87 0,0 -14.547502,6.6125 -14.547502,6.6125 -0.7406,-4.06008 -0.780275,-5.2371 0.7406,-9.23105 4.5494,-12.0083 10.606452,-3.83525 21.609652,-13.225 4.7081,-4.0204 6.54637,-12.60343 9.01945,-18.54145 4.78745,-11.50575 3.66332,-16.17418 5.7661,-21.16 0,0 6.08349,-10.58 6.08349,-10.58 0,0 6.54638,-14.5475 6.54638,-14.5475 0,0 6.9299,-11.9025 6.9299,-11.9025 0,0 13.62175,-30.4175 13.62175,-30.4175 0,0 10.23615,-21.16 10.23615,-21.16 4.66842,-11.57188 1.4812,-16.58415 3.71622,-22.25768 1.7457,-4.3907 8.10693,-9.54845 11.2677,-13.56885 3.46495,-4.40392 17.86698,-29.28015 18.73983,-33.88245 1.2696,-6.78442 -8.50368,-6.4538 -14.62685,-16.27997 -2.34083,-3.72945 -12.3786,-20.71035 -13.13243,-23.77855 -1.83827,-7.4589 1.30928,-17.8802 3.41205,-25.1275 0,0 -9.2575,10.58 -9.2575,10.58 0.0397,-11.94218 0.75383,-12.4315 9.2575,-21.16 0,0 -18.515,6.6125 -18.515,6.6125 0,0 13.225,-11.9025 13.225,-11.9025 0,0 -2.645,-3.9675 -2.645,-3.9675 0,0 6.6125,-2.645 6.6125,-2.645 0,0 -22.4825,6.6125 -22.4825,6.6125 6.14963,-10.97675 21.64933,-12.696 33.0625,-13.225 0,0 -5.29,-6.6125 -5.29,-6.6125 0,0 13.225,0 13.225,0 0,0 1.3225,-1.3225 1.3225,-1.3225 0,0 -5.29,-14.5475 -5.29,-14.5475 0,0 18.515,17.1925 18.515,17.1925 0,0 -3.9675,-11.9025 -3.9675,-11.9025 0,0 7.935,3.9675 7.935,3.9675 -0.2645,-29.80915 -13.44982,-66.9185 -14.41525,-88.6075 -0.13225,-2.93595 1.46798,-16.8751 2.18213,-19.8375 3.29302,-13.66143 12.82825,-26.17228 21.49063,-37.03 0,0 -14.54751,9.2575 -14.54751,9.2575 0,0 11.90251,-18.515 11.90251,-18.515 0,0 -17.19251,15.87 -17.19251,15.87 0,0 5.40903,-13.225 5.40903,-13.225 0,0 5.17097,-13.225 5.17097,-13.225 -13.68787,1.54732 -16.42545,10.18325 -22.4825,14.5475 3.16078,-18.9382 19.59945,-15.1823 35.70751,-25.1275 0,0 -10.58001,-1.3225 -10.58001,-1.3225 11.46609,-3.31948 13.52919,-2.645 25.12751,-2.645 0,0 -5.29,-5.29 -5.29,-5.29 z m 2.645,19.8375 c -5.30322,2.65822 -6.00415,3.67655 -7.935,9.2575 0,0 7.935,-9.2575 7.935,-9.2575 z m -13.225,17.1925 c 0,0 -1.3225,0 -1.3225,0 0,0 1.3225,1.3225 1.3225,1.3225 0,0 0,-1.3225 0,-1.3225 z m -39.67501,166.635 c 0,0 -1.3225,0 -1.3225,0 0,0 1.3225,1.3225 1.3225,1.3225 0,0 0,-1.3225 0,-1.3225 z m 185.15001,70.0925 c -0.7406,3.41205 -0.0661,3.2798 2.645,5.29 0,0 -2.645,-5.29 -2.645,-5.29 z m 51.5775,0 c 0,0 2.645,3.9675 2.645,3.9675 0,0 -2.645,-3.9675 -2.645,-3.9675 z m -46.2875,6.6125 c 0,0 2.645,3.9675 2.645,3.9675 0,0 -2.645,-3.9675 -2.645,-3.9675 z m -39.675,21.16 c -4.25845,-7.68373 -3.95427,-12.52408 -13.225,-14.5475 2.92273,6.22897 5.72643,12.84147 5.29,19.8375 0,0 -22.4825,-13.225 -22.4825,-13.225 0,0 10.03778,11.9554 10.03778,11.9554 0,0 9.0988,14.20365 9.0988,14.20365 0,0 11.1619,9.61457 11.1619,9.61457 0,0 5.40902,25.06138 5.40902,25.06138 7.3002,-6.0835 15.03683,-18.0389 15.7113,-27.7725 0.7406,-10.65935 -11.8496,-32.82445 -19.6788,-39.675 0,0 -1.3225,14.5475 -1.3225,14.5475 z m 23.805,-9.2575 c -2.44662,6.37445 0.38353,14.95747 2.645,21.16 4.88003,-7.55148 1.28283,-14.05818 -2.645,-21.16 z"
     style="fill:#000000;stroke:none" />
</svg>
